<?xml version="1.0" encoding="utf-8" standalone="no"?>
<!DOCTYPE svg PUBLIC "-//W3C//DTD SVG 1.1//EN"
  "http://www.w3.org/Graphics/SVG/1.1/DTD/svg11.dtd">
<svg xmlns:xlink="http://www.w3.org/1999/xlink" width="417.15125pt" height="365.98825pt" viewBox="0 0 417.15125 365.98825" xmlns="http://www.w3.org/2000/svg" version="1.1">
 <metadata>
  <rdf:RDF xmlns:dc="http://purl.org/dc/elements/1.1/" xmlns:cc="http://creativecommons.org/ns#" xmlns:rdf="http://www.w3.org/1999/02/22-rdf-syntax-ns#">
   <cc:Work>
    <dc:type rdf:resource="http://purl.org/dc/dcmitype/StillImage"/>
    <dc:date>2025-11-25T12:41:25.740227</dc:date>
    <dc:format>image/svg+xml</dc:format>
    <dc:creator>
     <cc:Agent>
      <dc:title>Matplotlib v3.10.6, https://matplotlib.org/</dc:title>
     </cc:Agent>
    </dc:creator>
   </cc:Work>
  </rdf:RDF>
 </metadata>
 <defs>
  <style type="text/css">*{stroke-linejoin: round; stroke-linecap: butt}</style>
 </defs>
 <g id="figure_1">
  <g id="patch_1">
   <path d="M 0 365.98825 
L 417.15125 365.98825 
L 417.15125 0 
L 0 0 
z
" style="fill: #ffffff"/>
  </g>
  <g id="axes_1">
   <g id="patch_2">
    <path d="M 55.51375 319.1895 
L 384.73375 319.1895 
L 384.73375 25.3575 
L 55.51375 25.3575 
z
" style="fill: #f9fafb"/>
   </g>
   <g id="matplotlib.axis_1">
    <g id="xtick_1">
     <g id="line2d_1">
      <path d="M 55.51375 319.1895 
L 55.51375 25.3575 
" clip-path="url(#p786ca7632f)" style="fill: none; stroke: #c7ced9; stroke-opacity: 0.65; stroke-width: 0.9; stroke-linecap: square"/>
     </g>
     <g id="line2d_2">
      <defs>
       <path id="m994767b2df" d="M 0 0 
L 0 5 
" style="stroke: #111827; stroke-width: 1.05"/>
      </defs>
      <g>
       <use xlink:href="#m994767b2df" x="55.51375" y="319.1895" style="fill: #111827; stroke: #111827; stroke-width: 1.05"/>
      </g>
     </g>
     <g id="text_1">
      <!-- 0.0 -->
      <g transform="translate(44.381563 338.327313) scale(0.14 -0.14)">
       <defs>
        <path id="DejaVuSans-30" d="M 2034 4250 
Q 1547 4250 1301 3770 
Q 1056 3291 1056 2328 
Q 1056 1369 1301 889 
Q 1547 409 2034 409 
Q 2525 409 2770 889 
Q 3016 1369 3016 2328 
Q 3016 3291 2770 3770 
Q 2525 4250 2034 4250 
z
M 2034 4750 
Q 2819 4750 3233 4129 
Q 3647 3509 3647 2328 
Q 3647 1150 3233 529 
Q 2819 -91 2034 -91 
Q 1250 -91 836 529 
Q 422 1150 422 2328 
Q 422 3509 836 4129 
Q 1250 4750 2034 4750 
z
" transform="scale(0.015625)"/>
        <path id="DejaVuSans-2e" d="M 684 794 
L 1344 794 
L 1344 0 
L 684 0 
L 684 794 
z
" transform="scale(0.015625)"/>
       </defs>
       <use xlink:href="#DejaVuSans-30"/>
       <use xlink:href="#DejaVuSans-2e" transform="translate(63.623047 0)"/>
       <use xlink:href="#DejaVuSans-30" transform="translate(95.410156 0)"/>
      </g>
     </g>
    </g>
    <g id="xtick_2">
     <g id="line2d_3">
      <path d="M 121.35775 319.1895 
L 121.35775 25.3575 
" clip-path="url(#p786ca7632f)" style="fill: none; stroke: #c7ced9; stroke-opacity: 0.65; stroke-width: 0.9; stroke-linecap: square"/>
     </g>
     <g id="line2d_4">
      <g>
       <use xlink:href="#m994767b2df" x="121.35775" y="319.1895" style="fill: #111827; stroke: #111827; stroke-width: 1.05"/>
      </g>
     </g>
     <g id="text_2">
      <!-- 0.2 -->
      <g transform="translate(110.225563 338.327313) scale(0.14 -0.14)">
       <defs>
        <path id="DejaVuSans-32" d="M 1228 531 
L 3431 531 
L 3431 0 
L 469 0 
L 469 531 
Q 828 903 1448 1529 
Q 2069 2156 2228 2338 
Q 2531 2678 2651 2914 
Q 2772 3150 2772 3378 
Q 2772 3750 2511 3984 
Q 2250 4219 1831 4219 
Q 1534 4219 1204 4116 
Q 875 4013 500 3803 
L 500 4441 
Q 881 4594 1212 4672 
Q 1544 4750 1819 4750 
Q 2544 4750 2975 4387 
Q 3406 4025 3406 3419 
Q 3406 3131 3298 2873 
Q 3191 2616 2906 2266 
Q 2828 2175 2409 1742 
Q 1991 1309 1228 531 
z
" transform="scale(0.015625)"/>
       </defs>
       <use xlink:href="#DejaVuSans-30"/>
       <use xlink:href="#DejaVuSans-2e" transform="translate(63.623047 0)"/>
       <use xlink:href="#DejaVuSans-32" transform="translate(95.410156 0)"/>
      </g>
     </g>
    </g>
    <g id="xtick_3">
     <g id="line2d_5">
      <path d="M 187.20175 319.1895 
L 187.20175 25.3575 
" clip-path="url(#p786ca7632f)" style="fill: none; stroke: #c7ced9; stroke-opacity: 0.65; stroke-width: 0.9; stroke-linecap: square"/>
     </g>
     <g id="line2d_6">
      <g>
       <use xlink:href="#m994767b2df" x="187.20175" y="319.1895" style="fill: #111827; stroke: #111827; stroke-width: 1.05"/>
      </g>
     </g>
     <g id="text_3">
      <!-- 0.4 -->
      <g transform="translate(176.069563 338.327313) scale(0.14 -0.14)">
       <defs>
        <path id="DejaVuSans-34" d="M 2419 4116 
L 825 1625 
L 2419 1625 
L 2419 4116 
z
M 2253 4666 
L 3047 4666 
L 3047 1625 
L 3713 1625 
L 3713 1100 
L 3047 1100 
L 3047 0 
L 2419 0 
L 2419 1100 
L 313 1100 
L 313 1709 
L 2253 4666 
z
" transform="scale(0.015625)"/>
       </defs>
       <use xlink:href="#DejaVuSans-30"/>
       <use xlink:href="#DejaVuSans-2e" transform="translate(63.623047 0)"/>
       <use xlink:href="#DejaVuSans-34" transform="translate(95.410156 0)"/>
      </g>
     </g>
    </g>
    <g id="xtick_4">
     <g id="line2d_7">
      <path d="M 253.04575 319.1895 
L 253.04575 25.3575 
" clip-path="url(#p786ca7632f)" style="fill: none; stroke: #c7ced9; stroke-opacity: 0.65; stroke-width: 0.9; stroke-linecap: square"/>
     </g>
     <g id="line2d_8">
      <g>
       <use xlink:href="#m994767b2df" x="253.04575" y="319.1895" style="fill: #111827; stroke: #111827; stroke-width: 1.05"/>
      </g>
     </g>
     <g id="text_4">
      <!-- 0.6 -->
      <g transform="translate(241.913563 338.327313) scale(0.14 -0.14)">
       <defs>
        <path id="DejaVuSans-36" d="M 2113 2584 
Q 1688 2584 1439 2293 
Q 1191 2003 1191 1497 
Q 1191 994 1439 701 
Q 1688 409 2113 409 
Q 2538 409 2786 701 
Q 3034 994 3034 1497 
Q 3034 2003 2786 2293 
Q 2538 2584 2113 2584 
z
M 3366 4563 
L 3366 3988 
Q 3128 4100 2886 4159 
Q 2644 4219 2406 4219 
Q 1781 4219 1451 3797 
Q 1122 3375 1075 2522 
Q 1259 2794 1537 2939 
Q 1816 3084 2150 3084 
Q 2853 3084 3261 2657 
Q 3669 2231 3669 1497 
Q 3669 778 3244 343 
Q 2819 -91 2113 -91 
Q 1303 -91 875 529 
Q 447 1150 447 2328 
Q 447 3434 972 4092 
Q 1497 4750 2381 4750 
Q 2619 4750 2861 4703 
Q 3103 4656 3366 4563 
z
" transform="scale(0.015625)"/>
       </defs>
       <use xlink:href="#DejaVuSans-30"/>
       <use xlink:href="#DejaVuSans-2e" transform="translate(63.623047 0)"/>
       <use xlink:href="#DejaVuSans-36" transform="translate(95.410156 0)"/>
      </g>
     </g>
    </g>
    <g id="xtick_5">
     <g id="line2d_9">
      <path d="M 318.88975 319.1895 
L 318.88975 25.3575 
" clip-path="url(#p786ca7632f)" style="fill: none; stroke: #c7ced9; stroke-opacity: 0.65; stroke-width: 0.9; stroke-linecap: square"/>
     </g>
     <g id="line2d_10">
      <g>
       <use xlink:href="#m994767b2df" x="318.88975" y="319.1895" style="fill: #111827; stroke: #111827; stroke-width: 1.05"/>
      </g>
     </g>
     <g id="text_5">
      <!-- 0.8 -->
      <g transform="translate(307.757563 338.327313) scale(0.14 -0.14)">
       <defs>
        <path id="DejaVuSans-38" d="M 2034 2216 
Q 1584 2216 1326 1975 
Q 1069 1734 1069 1313 
Q 1069 891 1326 650 
Q 1584 409 2034 409 
Q 2484 409 2743 651 
Q 3003 894 3003 1313 
Q 3003 1734 2745 1975 
Q 2488 2216 2034 2216 
z
M 1403 2484 
Q 997 2584 770 2862 
Q 544 3141 544 3541 
Q 544 4100 942 4425 
Q 1341 4750 2034 4750 
Q 2731 4750 3128 4425 
Q 3525 4100 3525 3541 
Q 3525 3141 3298 2862 
Q 3072 2584 2669 2484 
Q 3125 2378 3379 2068 
Q 3634 1759 3634 1313 
Q 3634 634 3220 271 
Q 2806 -91 2034 -91 
Q 1263 -91 848 271 
Q 434 634 434 1313 
Q 434 1759 690 2068 
Q 947 2378 1403 2484 
z
M 1172 3481 
Q 1172 3119 1398 2916 
Q 1625 2713 2034 2713 
Q 2441 2713 2670 2916 
Q 2900 3119 2900 3481 
Q 2900 3844 2670 4047 
Q 2441 4250 2034 4250 
Q 1625 4250 1398 4047 
Q 1172 3844 1172 3481 
z
" transform="scale(0.015625)"/>
       </defs>
       <use xlink:href="#DejaVuSans-30"/>
       <use xlink:href="#DejaVuSans-2e" transform="translate(63.623047 0)"/>
       <use xlink:href="#DejaVuSans-38" transform="translate(95.410156 0)"/>
      </g>
     </g>
    </g>
    <g id="xtick_6">
     <g id="line2d_11">
      <path d="M 384.73375 319.1895 
L 384.73375 25.3575 
" clip-path="url(#p786ca7632f)" style="fill: none; stroke: #c7ced9; stroke-opacity: 0.65; stroke-width: 0.9; stroke-linecap: square"/>
     </g>
     <g id="line2d_12">
      <g>
       <use xlink:href="#m994767b2df" x="384.73375" y="319.1895" style="fill: #111827; stroke: #111827; stroke-width: 1.05"/>
      </g>
     </g>
     <g id="text_6">
      <!-- 1.0 -->
      <g transform="translate(373.601562 338.327313) scale(0.14 -0.14)">
       <defs>
        <path id="DejaVuSans-31" d="M 794 531 
L 1825 531 
L 1825 4091 
L 703 3866 
L 703 4441 
L 1819 4666 
L 2450 4666 
L 2450 531 
L 3481 531 
L 3481 0 
L 794 0 
L 794 531 
z
" transform="scale(0.015625)"/>
       </defs>
       <use xlink:href="#DejaVuSans-31"/>
       <use xlink:href="#DejaVuSans-2e" transform="translate(63.623047 0)"/>
       <use xlink:href="#DejaVuSans-30" transform="translate(95.410156 0)"/>
      </g>
     </g>
    </g>
    <g id="xtick_7">
     <g id="line2d_13">
      <path d="M 71.97475 319.1895 
L 71.97475 25.3575 
" clip-path="url(#p786ca7632f)" style="fill: none; stroke: #e2e7f0; stroke-opacity: 0.5; stroke-width: 0.7; stroke-linecap: square"/>
     </g>
     <g id="line2d_14">
      <defs>
       <path id="m4b987fb633" d="M 0 0 
L 0 2 
" style="stroke: #000000; stroke-width: 0.6"/>
      </defs>
      <g>
       <use xlink:href="#m4b987fb633" x="71.97475" y="319.1895" style="stroke: #000000; stroke-width: 0.6"/>
      </g>
     </g>
    </g>
    <g id="xtick_8">
     <g id="line2d_15">
      <path d="M 88.43575 319.1895 
L 88.43575 25.3575 
" clip-path="url(#p786ca7632f)" style="fill: none; stroke: #e2e7f0; stroke-opacity: 0.5; stroke-width: 0.7; stroke-linecap: square"/>
     </g>
     <g id="line2d_16">
      <g>
       <use xlink:href="#m4b987fb633" x="88.43575" y="319.1895" style="stroke: #000000; stroke-width: 0.6"/>
      </g>
     </g>
    </g>
    <g id="xtick_9">
     <g id="line2d_17">
      <path d="M 104.89675 319.1895 
L 104.89675 25.3575 
" clip-path="url(#p786ca7632f)" style="fill: none; stroke: #e2e7f0; stroke-opacity: 0.5; stroke-width: 0.7; stroke-linecap: square"/>
     </g>
     <g id="line2d_18">
      <g>
       <use xlink:href="#m4b987fb633" x="104.89675" y="319.1895" style="stroke: #000000; stroke-width: 0.6"/>
      </g>
     </g>
    </g>
    <g id="xtick_10">
     <g id="line2d_19">
      <path d="M 137.81875 319.1895 
L 137.81875 25.3575 
" clip-path="url(#p786ca7632f)" style="fill: none; stroke: #e2e7f0; stroke-opacity: 0.5; stroke-width: 0.7; stroke-linecap: square"/>
     </g>
     <g id="line2d_20">
      <g>
       <use xlink:href="#m4b987fb633" x="137.81875" y="319.1895" style="stroke: #000000; stroke-width: 0.6"/>
      </g>
     </g>
    </g>
    <g id="xtick_11">
     <g id="line2d_21">
      <path d="M 154.27975 319.1895 
L 154.27975 25.3575 
" clip-path="url(#p786ca7632f)" style="fill: none; stroke: #e2e7f0; stroke-opacity: 0.5; stroke-width: 0.7; stroke-linecap: square"/>
     </g>
     <g id="line2d_22">
      <g>
       <use xlink:href="#m4b987fb633" x="154.27975" y="319.1895" style="stroke: #000000; stroke-width: 0.6"/>
      </g>
     </g>
    </g>
    <g id="xtick_12">
     <g id="line2d_23">
      <path d="M 170.74075 319.1895 
L 170.74075 25.3575 
" clip-path="url(#p786ca7632f)" style="fill: none; stroke: #e2e7f0; stroke-opacity: 0.5; stroke-width: 0.7; stroke-linecap: square"/>
     </g>
     <g id="line2d_24">
      <g>
       <use xlink:href="#m4b987fb633" x="170.74075" y="319.1895" style="stroke: #000000; stroke-width: 0.6"/>
      </g>
     </g>
    </g>
    <g id="xtick_13">
     <g id="line2d_25">
      <path d="M 203.66275 319.1895 
L 203.66275 25.3575 
" clip-path="url(#p786ca7632f)" style="fill: none; stroke: #e2e7f0; stroke-opacity: 0.5; stroke-width: 0.7; stroke-linecap: square"/>
     </g>
     <g id="line2d_26">
      <g>
       <use xlink:href="#m4b987fb633" x="203.66275" y="319.1895" style="stroke: #000000; stroke-width: 0.6"/>
      </g>
     </g>
    </g>
    <g id="xtick_14">
     <g id="line2d_27">
      <path d="M 220.12375 319.1895 
L 220.12375 25.3575 
" clip-path="url(#p786ca7632f)" style="fill: none; stroke: #e2e7f0; stroke-opacity: 0.5; stroke-width: 0.7; stroke-linecap: square"/>
     </g>
     <g id="line2d_28">
      <g>
       <use xlink:href="#m4b987fb633" x="220.12375" y="319.1895" style="stroke: #000000; stroke-width: 0.6"/>
      </g>
     </g>
    </g>
    <g id="xtick_15">
     <g id="line2d_29">
      <path d="M 236.58475 319.1895 
L 236.58475 25.3575 
" clip-path="url(#p786ca7632f)" style="fill: none; stroke: #e2e7f0; stroke-opacity: 0.5; stroke-width: 0.7; stroke-linecap: square"/>
     </g>
     <g id="line2d_30">
      <g>
       <use xlink:href="#m4b987fb633" x="236.58475" y="319.1895" style="stroke: #000000; stroke-width: 0.6"/>
      </g>
     </g>
    </g>
    <g id="xtick_16">
     <g id="line2d_31">
      <path d="M 269.50675 319.1895 
L 269.50675 25.3575 
" clip-path="url(#p786ca7632f)" style="fill: none; stroke: #e2e7f0; stroke-opacity: 0.5; stroke-width: 0.7; stroke-linecap: square"/>
     </g>
     <g id="line2d_32">
      <g>
       <use xlink:href="#m4b987fb633" x="269.50675" y="319.1895" style="stroke: #000000; stroke-width: 0.6"/>
      </g>
     </g>
    </g>
    <g id="xtick_17">
     <g id="line2d_33">
      <path d="M 285.96775 319.1895 
L 285.96775 25.3575 
" clip-path="url(#p786ca7632f)" style="fill: none; stroke: #e2e7f0; stroke-opacity: 0.5; stroke-width: 0.7; stroke-linecap: square"/>
     </g>
     <g id="line2d_34">
      <g>
       <use xlink:href="#m4b987fb633" x="285.96775" y="319.1895" style="stroke: #000000; stroke-width: 0.6"/>
      </g>
     </g>
    </g>
    <g id="xtick_18">
     <g id="line2d_35">
      <path d="M 302.42875 319.1895 
L 302.42875 25.3575 
" clip-path="url(#p786ca7632f)" style="fill: none; stroke: #e2e7f0; stroke-opacity: 0.5; stroke-width: 0.7; stroke-linecap: square"/>
     </g>
     <g id="line2d_36">
      <g>
       <use xlink:href="#m4b987fb633" x="302.42875" y="319.1895" style="stroke: #000000; stroke-width: 0.6"/>
      </g>
     </g>
    </g>
    <g id="xtick_19">
     <g id="line2d_37">
      <path d="M 335.35075 319.1895 
L 335.35075 25.3575 
" clip-path="url(#p786ca7632f)" style="fill: none; stroke: #e2e7f0; stroke-opacity: 0.5; stroke-width: 0.7; stroke-linecap: square"/>
     </g>
     <g id="line2d_38">
      <g>
       <use xlink:href="#m4b987fb633" x="335.35075" y="319.1895" style="stroke: #000000; stroke-width: 0.6"/>
      </g>
     </g>
    </g>
    <g id="xtick_20">
     <g id="line2d_39">
      <path d="M 351.81175 319.1895 
L 351.81175 25.3575 
" clip-path="url(#p786ca7632f)" style="fill: none; stroke: #e2e7f0; stroke-opacity: 0.5; stroke-width: 0.7; stroke-linecap: square"/>
     </g>
     <g id="line2d_40">
      <g>
       <use xlink:href="#m4b987fb633" x="351.81175" y="319.1895" style="stroke: #000000; stroke-width: 0.6"/>
      </g>
     </g>
    </g>
    <g id="xtick_21">
     <g id="line2d_41">
      <path d="M 368.27275 319.1895 
L 368.27275 25.3575 
" clip-path="url(#p786ca7632f)" style="fill: none; stroke: #e2e7f0; stroke-opacity: 0.5; stroke-width: 0.7; stroke-linecap: square"/>
     </g>
     <g id="line2d_42">
      <g>
       <use xlink:href="#m4b987fb633" x="368.27275" y="319.1895" style="stroke: #000000; stroke-width: 0.6"/>
      </g>
     </g>
    </g>
    <g id="text_7">
     <!-- False positive rate -->
     <g transform="translate(147.130156 355.876688) scale(0.14 -0.14)">
      <defs>
       <path id="DejaVuSans-Bold-46" d="M 588 4666 
L 3834 4666 
L 3834 3756 
L 1791 3756 
L 1791 2888 
L 3713 2888 
L 3713 1978 
L 1791 1978 
L 1791 0 
L 588 0 
L 588 4666 
z
" transform="scale(0.015625)"/>
       <path id="DejaVuSans-Bold-61" d="M 2106 1575 
Q 1756 1575 1579 1456 
Q 1403 1338 1403 1106 
Q 1403 894 1545 773 
Q 1688 653 1941 653 
Q 2256 653 2472 879 
Q 2688 1106 2688 1447 
L 2688 1575 
L 2106 1575 
z
M 3816 1997 
L 3816 0 
L 2688 0 
L 2688 519 
Q 2463 200 2181 54 
Q 1900 -91 1497 -91 
Q 953 -91 614 226 
Q 275 544 275 1050 
Q 275 1666 698 1953 
Q 1122 2241 2028 2241 
L 2688 2241 
L 2688 2328 
Q 2688 2594 2478 2717 
Q 2269 2841 1825 2841 
Q 1466 2841 1156 2769 
Q 847 2697 581 2553 
L 581 3406 
Q 941 3494 1303 3539 
Q 1666 3584 2028 3584 
Q 2975 3584 3395 3211 
Q 3816 2838 3816 1997 
z
" transform="scale(0.015625)"/>
       <path id="DejaVuSans-Bold-6c" d="M 538 4863 
L 1656 4863 
L 1656 0 
L 538 0 
L 538 4863 
z
" transform="scale(0.015625)"/>
       <path id="DejaVuSans-Bold-73" d="M 3272 3391 
L 3272 2541 
Q 2913 2691 2578 2766 
Q 2244 2841 1947 2841 
Q 1628 2841 1473 2761 
Q 1319 2681 1319 2516 
Q 1319 2381 1436 2309 
Q 1553 2238 1856 2203 
L 2053 2175 
Q 2913 2066 3209 1816 
Q 3506 1566 3506 1031 
Q 3506 472 3093 190 
Q 2681 -91 1863 -91 
Q 1516 -91 1145 -36 
Q 775 19 384 128 
L 384 978 
Q 719 816 1070 734 
Q 1422 653 1784 653 
Q 2113 653 2278 743 
Q 2444 834 2444 1013 
Q 2444 1163 2330 1236 
Q 2216 1309 1875 1350 
L 1678 1375 
Q 931 1469 631 1722 
Q 331 1975 331 2491 
Q 331 3047 712 3315 
Q 1094 3584 1881 3584 
Q 2191 3584 2531 3537 
Q 2872 3491 3272 3391 
z
" transform="scale(0.015625)"/>
       <path id="DejaVuSans-Bold-65" d="M 4031 1759 
L 4031 1441 
L 1416 1441 
Q 1456 1047 1700 850 
Q 1944 653 2381 653 
Q 2734 653 3104 758 
Q 3475 863 3866 1075 
L 3866 213 
Q 3469 63 3072 -14 
Q 2675 -91 2278 -91 
Q 1328 -91 801 392 
Q 275 875 275 1747 
Q 275 2603 792 3093 
Q 1309 3584 2216 3584 
Q 3041 3584 3536 3087 
Q 4031 2591 4031 1759 
z
M 2881 2131 
Q 2881 2450 2695 2645 
Q 2509 2841 2209 2841 
Q 1884 2841 1681 2658 
Q 1478 2475 1428 2131 
L 2881 2131 
z
" transform="scale(0.015625)"/>
       <path id="DejaVuSans-Bold-20" transform="scale(0.015625)"/>
       <path id="DejaVuSans-Bold-70" d="M 1656 506 
L 1656 -1331 
L 538 -1331 
L 538 3500 
L 1656 3500 
L 1656 2988 
Q 1888 3294 2169 3439 
Q 2450 3584 2816 3584 
Q 3463 3584 3878 3070 
Q 4294 2556 4294 1747 
Q 4294 938 3878 423 
Q 3463 -91 2816 -91 
Q 2450 -91 2169 54 
Q 1888 200 1656 506 
z
M 2400 2772 
Q 2041 2772 1848 2508 
Q 1656 2244 1656 1747 
Q 1656 1250 1848 986 
Q 2041 722 2400 722 
Q 2759 722 2948 984 
Q 3138 1247 3138 1747 
Q 3138 2247 2948 2509 
Q 2759 2772 2400 2772 
z
" transform="scale(0.015625)"/>
       <path id="DejaVuSans-Bold-6f" d="M 2203 2784 
Q 1831 2784 1636 2517 
Q 1441 2250 1441 1747 
Q 1441 1244 1636 976 
Q 1831 709 2203 709 
Q 2569 709 2762 976 
Q 2956 1244 2956 1747 
Q 2956 2250 2762 2517 
Q 2569 2784 2203 2784 
z
M 2203 3584 
Q 3106 3584 3614 3096 
Q 4122 2609 4122 1747 
Q 4122 884 3614 396 
Q 3106 -91 2203 -91 
Q 1297 -91 786 396 
Q 275 884 275 1747 
Q 275 2609 786 3096 
Q 1297 3584 2203 3584 
z
" transform="scale(0.015625)"/>
       <path id="DejaVuSans-Bold-69" d="M 538 3500 
L 1656 3500 
L 1656 0 
L 538 0 
L 538 3500 
z
M 538 4863 
L 1656 4863 
L 1656 3950 
L 538 3950 
L 538 4863 
z
" transform="scale(0.015625)"/>
       <path id="DejaVuSans-Bold-74" d="M 1759 4494 
L 1759 3500 
L 2913 3500 
L 2913 2700 
L 1759 2700 
L 1759 1216 
Q 1759 972 1856 886 
Q 1953 800 2241 800 
L 2816 800 
L 2816 0 
L 1856 0 
Q 1194 0 917 276 
Q 641 553 641 1216 
L 641 2700 
L 84 2700 
L 84 3500 
L 641 3500 
L 641 4494 
L 1759 4494 
z
" transform="scale(0.015625)"/>
       <path id="DejaVuSans-Bold-76" d="M 97 3500 
L 1216 3500 
L 2088 1081 
L 2956 3500 
L 4078 3500 
L 2700 0 
L 1472 0 
L 97 3500 
z
" transform="scale(0.015625)"/>
       <path id="DejaVuSans-Bold-72" d="M 3138 2547 
Q 2991 2616 2845 2648 
Q 2700 2681 2553 2681 
Q 2122 2681 1889 2404 
Q 1656 2128 1656 1613 
L 1656 0 
L 538 0 
L 538 3500 
L 1656 3500 
L 1656 2925 
Q 1872 3269 2151 3426 
Q 2431 3584 2822 3584 
Q 2878 3584 2943 3579 
Q 3009 3575 3134 3559 
L 3138 2547 
z
" transform="scale(0.015625)"/>
      </defs>
      <use xlink:href="#DejaVuSans-Bold-46"/>
      <use xlink:href="#DejaVuSans-Bold-61" transform="translate(62.435547 0)"/>
      <use xlink:href="#DejaVuSans-Bold-6c" transform="translate(129.916016 0)"/>
      <use xlink:href="#DejaVuSans-Bold-73" transform="translate(164.193359 0)"/>
      <use xlink:href="#DejaVuSans-Bold-65" transform="translate(223.714844 0)"/>
      <use xlink:href="#DejaVuSans-Bold-20" transform="translate(291.537109 0)"/>
      <use xlink:href="#DejaVuSans-Bold-70" transform="translate(326.351562 0)"/>
      <use xlink:href="#DejaVuSans-Bold-6f" transform="translate(397.933594 0)"/>
      <use xlink:href="#DejaVuSans-Bold-73" transform="translate(466.634766 0)"/>
      <use xlink:href="#DejaVuSans-Bold-69" transform="translate(526.15625 0)"/>
      <use xlink:href="#DejaVuSans-Bold-74" transform="translate(560.433594 0)"/>
      <use xlink:href="#DejaVuSans-Bold-69" transform="translate(608.236328 0)"/>
      <use xlink:href="#DejaVuSans-Bold-76" transform="translate(642.513672 0)"/>
      <use xlink:href="#DejaVuSans-Bold-65" transform="translate(707.699219 0)"/>
      <use xlink:href="#DejaVuSans-Bold-20" transform="translate(775.521484 0)"/>
      <use xlink:href="#DejaVuSans-Bold-72" transform="translate(810.335938 0)"/>
      <use xlink:href="#DejaVuSans-Bold-61" transform="translate(859.652344 0)"/>
      <use xlink:href="#DejaVuSans-Bold-74" transform="translate(927.132812 0)"/>
      <use xlink:href="#DejaVuSans-Bold-65" transform="translate(974.935547 0)"/>
     </g>
    </g>
   </g>
   <g id="matplotlib.axis_2">
    <g id="ytick_1">
     <g id="line2d_43">
      <path d="M 55.51375 319.1895 
L 384.73375 319.1895 
" clip-path="url(#p786ca7632f)" style="fill: none; stroke: #c7ced9; stroke-opacity: 0.65; stroke-width: 0.9; stroke-linecap: square"/>
     </g>
     <g id="line2d_44">
      <defs>
       <path id="m70f2df7920" d="M 0 0 
L -5 0 
" style="stroke: #111827; stroke-width: 1.05"/>
      </defs>
      <g>
       <use xlink:href="#m70f2df7920" x="55.51375" y="319.1895" style="fill: #111827; stroke: #111827; stroke-width: 1.05"/>
      </g>
     </g>
     <g id="text_8">
      <!-- 0.0 -->
      <g transform="translate(24.749375 324.508406) scale(0.14 -0.14)">
       <use xlink:href="#DejaVuSans-30"/>
       <use xlink:href="#DejaVuSans-2e" transform="translate(63.623047 0)"/>
       <use xlink:href="#DejaVuSans-30" transform="translate(95.410156 0)"/>
      </g>
     </g>
    </g>
    <g id="ytick_2">
     <g id="line2d_45">
      <path d="M 55.51375 261.575382 
L 384.73375 261.575382 
" clip-path="url(#p786ca7632f)" style="fill: none; stroke: #c7ced9; stroke-opacity: 0.65; stroke-width: 0.9; stroke-linecap: square"/>
     </g>
     <g id="line2d_46">
      <g>
       <use xlink:href="#m70f2df7920" x="55.51375" y="261.575382" style="fill: #111827; stroke: #111827; stroke-width: 1.05"/>
      </g>
     </g>
     <g id="text_9">
      <!-- 0.2 -->
      <g transform="translate(24.749375 266.894289) scale(0.14 -0.14)">
       <use xlink:href="#DejaVuSans-30"/>
       <use xlink:href="#DejaVuSans-2e" transform="translate(63.623047 0)"/>
       <use xlink:href="#DejaVuSans-32" transform="translate(95.410156 0)"/>
      </g>
     </g>
    </g>
    <g id="ytick_3">
     <g id="line2d_47">
      <path d="M 55.51375 203.961265 
L 384.73375 203.961265 
" clip-path="url(#p786ca7632f)" style="fill: none; stroke: #c7ced9; stroke-opacity: 0.65; stroke-width: 0.9; stroke-linecap: square"/>
     </g>
     <g id="line2d_48">
      <g>
       <use xlink:href="#m70f2df7920" x="55.51375" y="203.961265" style="fill: #111827; stroke: #111827; stroke-width: 1.05"/>
      </g>
     </g>
     <g id="text_10">
      <!-- 0.4 -->
      <g transform="translate(24.749375 209.280171) scale(0.14 -0.14)">
       <use xlink:href="#DejaVuSans-30"/>
       <use xlink:href="#DejaVuSans-2e" transform="translate(63.623047 0)"/>
       <use xlink:href="#DejaVuSans-34" transform="translate(95.410156 0)"/>
      </g>
     </g>
    </g>
    <g id="ytick_4">
     <g id="line2d_49">
      <path d="M 55.51375 146.347147 
L 384.73375 146.347147 
" clip-path="url(#p786ca7632f)" style="fill: none; stroke: #c7ced9; stroke-opacity: 0.65; stroke-width: 0.9; stroke-linecap: square"/>
     </g>
     <g id="line2d_50">
      <g>
       <use xlink:href="#m70f2df7920" x="55.51375" y="146.347147" style="fill: #111827; stroke: #111827; stroke-width: 1.05"/>
      </g>
     </g>
     <g id="text_11">
      <!-- 0.6 -->
      <g transform="translate(24.749375 151.666053) scale(0.14 -0.14)">
       <use xlink:href="#DejaVuSans-30"/>
       <use xlink:href="#DejaVuSans-2e" transform="translate(63.623047 0)"/>
       <use xlink:href="#DejaVuSans-36" transform="translate(95.410156 0)"/>
      </g>
     </g>
    </g>
    <g id="ytick_5">
     <g id="line2d_51">
      <path d="M 55.51375 88.733029 
L 384.73375 88.733029 
" clip-path="url(#p786ca7632f)" style="fill: none; stroke: #c7ced9; stroke-opacity: 0.65; stroke-width: 0.9; stroke-linecap: square"/>
     </g>
     <g id="line2d_52">
      <g>
       <use xlink:href="#m70f2df7920" x="55.51375" y="88.733029" style="fill: #111827; stroke: #111827; stroke-width: 1.05"/>
      </g>
     </g>
     <g id="text_12">
      <!-- 0.8 -->
      <g transform="translate(24.749375 94.051936) scale(0.14 -0.14)">
       <use xlink:href="#DejaVuSans-30"/>
       <use xlink:href="#DejaVuSans-2e" transform="translate(63.623047 0)"/>
       <use xlink:href="#DejaVuSans-38" transform="translate(95.410156 0)"/>
      </g>
     </g>
    </g>
    <g id="ytick_6">
     <g id="line2d_53">
      <path d="M 55.51375 31.118912 
L 384.73375 31.118912 
" clip-path="url(#p786ca7632f)" style="fill: none; stroke: #c7ced9; stroke-opacity: 0.65; stroke-width: 0.9; stroke-linecap: square"/>
     </g>
     <g id="line2d_54">
      <g>
       <use xlink:href="#m70f2df7920" x="55.51375" y="31.118912" style="fill: #111827; stroke: #111827; stroke-width: 1.05"/>
      </g>
     </g>
     <g id="text_13">
      <!-- 1.0 -->
      <g transform="translate(24.749375 36.437818) scale(0.14 -0.14)">
       <use xlink:href="#DejaVuSans-31"/>
       <use xlink:href="#DejaVuSans-2e" transform="translate(63.623047 0)"/>
       <use xlink:href="#DejaVuSans-30" transform="translate(95.410156 0)"/>
      </g>
     </g>
    </g>
    <g id="ytick_7">
     <g id="line2d_55">
      <path d="M 55.51375 304.785971 
L 384.73375 304.785971 
" clip-path="url(#p786ca7632f)" style="fill: none; stroke: #e2e7f0; stroke-opacity: 0.5; stroke-width: 0.7; stroke-linecap: square"/>
     </g>
     <g id="line2d_56">
      <defs>
       <path id="ma997f55307" d="M 0 0 
L -2 0 
" style="stroke: #000000; stroke-width: 0.6"/>
      </defs>
      <g>
       <use xlink:href="#ma997f55307" x="55.51375" y="304.785971" style="stroke: #000000; stroke-width: 0.6"/>
      </g>
     </g>
    </g>
    <g id="ytick_8">
     <g id="line2d_57">
      <path d="M 55.51375 290.382441 
L 384.73375 290.382441 
" clip-path="url(#p786ca7632f)" style="fill: none; stroke: #e2e7f0; stroke-opacity: 0.5; stroke-width: 0.7; stroke-linecap: square"/>
     </g>
     <g id="line2d_58">
      <g>
       <use xlink:href="#ma997f55307" x="55.51375" y="290.382441" style="stroke: #000000; stroke-width: 0.6"/>
      </g>
     </g>
    </g>
    <g id="ytick_9">
     <g id="line2d_59">
      <path d="M 55.51375 275.978912 
L 384.73375 275.978912 
" clip-path="url(#p786ca7632f)" style="fill: none; stroke: #e2e7f0; stroke-opacity: 0.5; stroke-width: 0.7; stroke-linecap: square"/>
     </g>
     <g id="line2d_60">
      <g>
       <use xlink:href="#ma997f55307" x="55.51375" y="275.978912" style="stroke: #000000; stroke-width: 0.6"/>
      </g>
     </g>
    </g>
    <g id="ytick_10">
     <g id="line2d_61">
      <path d="M 55.51375 247.171853 
L 384.73375 247.171853 
" clip-path="url(#p786ca7632f)" style="fill: none; stroke: #e2e7f0; stroke-opacity: 0.5; stroke-width: 0.7; stroke-linecap: square"/>
     </g>
     <g id="line2d_62">
      <g>
       <use xlink:href="#ma997f55307" x="55.51375" y="247.171853" style="stroke: #000000; stroke-width: 0.6"/>
      </g>
     </g>
    </g>
    <g id="ytick_11">
     <g id="line2d_63">
      <path d="M 55.51375 232.768324 
L 384.73375 232.768324 
" clip-path="url(#p786ca7632f)" style="fill: none; stroke: #e2e7f0; stroke-opacity: 0.5; stroke-width: 0.7; stroke-linecap: square"/>
     </g>
     <g id="line2d_64">
      <g>
       <use xlink:href="#ma997f55307" x="55.51375" y="232.768324" style="stroke: #000000; stroke-width: 0.6"/>
      </g>
     </g>
    </g>
    <g id="ytick_12">
     <g id="line2d_65">
      <path d="M 55.51375 218.364794 
L 384.73375 218.364794 
" clip-path="url(#p786ca7632f)" style="fill: none; stroke: #e2e7f0; stroke-opacity: 0.5; stroke-width: 0.7; stroke-linecap: square"/>
     </g>
     <g id="line2d_66">
      <g>
       <use xlink:href="#ma997f55307" x="55.51375" y="218.364794" style="stroke: #000000; stroke-width: 0.6"/>
      </g>
     </g>
    </g>
    <g id="ytick_13">
     <g id="line2d_67">
      <path d="M 55.51375 189.557735 
L 384.73375 189.557735 
" clip-path="url(#p786ca7632f)" style="fill: none; stroke: #e2e7f0; stroke-opacity: 0.5; stroke-width: 0.7; stroke-linecap: square"/>
     </g>
     <g id="line2d_68">
      <g>
       <use xlink:href="#ma997f55307" x="55.51375" y="189.557735" style="stroke: #000000; stroke-width: 0.6"/>
      </g>
     </g>
    </g>
    <g id="ytick_14">
     <g id="line2d_69">
      <path d="M 55.51375 175.154206 
L 384.73375 175.154206 
" clip-path="url(#p786ca7632f)" style="fill: none; stroke: #e2e7f0; stroke-opacity: 0.5; stroke-width: 0.7; stroke-linecap: square"/>
     </g>
     <g id="line2d_70">
      <g>
       <use xlink:href="#ma997f55307" x="55.51375" y="175.154206" style="stroke: #000000; stroke-width: 0.6"/>
      </g>
     </g>
    </g>
    <g id="ytick_15">
     <g id="line2d_71">
      <path d="M 55.51375 160.750676 
L 384.73375 160.750676 
" clip-path="url(#p786ca7632f)" style="fill: none; stroke: #e2e7f0; stroke-opacity: 0.5; stroke-width: 0.7; stroke-linecap: square"/>
     </g>
     <g id="line2d_72">
      <g>
       <use xlink:href="#ma997f55307" x="55.51375" y="160.750676" style="stroke: #000000; stroke-width: 0.6"/>
      </g>
     </g>
    </g>
    <g id="ytick_16">
     <g id="line2d_73">
      <path d="M 55.51375 131.943618 
L 384.73375 131.943618 
" clip-path="url(#p786ca7632f)" style="fill: none; stroke: #e2e7f0; stroke-opacity: 0.5; stroke-width: 0.7; stroke-linecap: square"/>
     </g>
     <g id="line2d_74">
      <g>
       <use xlink:href="#ma997f55307" x="55.51375" y="131.943618" style="stroke: #000000; stroke-width: 0.6"/>
      </g>
     </g>
    </g>
    <g id="ytick_17">
     <g id="line2d_75">
      <path d="M 55.51375 117.540088 
L 384.73375 117.540088 
" clip-path="url(#p786ca7632f)" style="fill: none; stroke: #e2e7f0; stroke-opacity: 0.5; stroke-width: 0.7; stroke-linecap: square"/>
     </g>
     <g id="line2d_76">
      <g>
       <use xlink:href="#ma997f55307" x="55.51375" y="117.540088" style="stroke: #000000; stroke-width: 0.6"/>
      </g>
     </g>
    </g>
    <g id="ytick_18">
     <g id="line2d_77">
      <path d="M 55.51375 103.136559 
L 384.73375 103.136559 
" clip-path="url(#p786ca7632f)" style="fill: none; stroke: #e2e7f0; stroke-opacity: 0.5; stroke-width: 0.7; stroke-linecap: square"/>
     </g>
     <g id="line2d_78">
      <g>
       <use xlink:href="#ma997f55307" x="55.51375" y="103.136559" style="stroke: #000000; stroke-width: 0.6"/>
      </g>
     </g>
    </g>
    <g id="ytick_19">
     <g id="line2d_79">
      <path d="M 55.51375 74.3295 
L 384.73375 74.3295 
" clip-path="url(#p786ca7632f)" style="fill: none; stroke: #e2e7f0; stroke-opacity: 0.5; stroke-width: 0.7; stroke-linecap: square"/>
     </g>
     <g id="line2d_80">
      <g>
       <use xlink:href="#ma997f55307" x="55.51375" y="74.3295" style="stroke: #000000; stroke-width: 0.6"/>
      </g>
     </g>
    </g>
    <g id="ytick_20">
     <g id="line2d_81">
      <path d="M 55.51375 59.925971 
L 384.73375 59.925971 
" clip-path="url(#p786ca7632f)" style="fill: none; stroke: #e2e7f0; stroke-opacity: 0.5; stroke-width: 0.7; stroke-linecap: square"/>
     </g>
     <g id="line2d_82">
      <g>
       <use xlink:href="#ma997f55307" x="55.51375" y="59.925971" style="stroke: #000000; stroke-width: 0.6"/>
      </g>
     </g>
    </g>
    <g id="ytick_21">
     <g id="line2d_83">
      <path d="M 55.51375 45.522441 
L 384.73375 45.522441 
" clip-path="url(#p786ca7632f)" style="fill: none; stroke: #e2e7f0; stroke-opacity: 0.5; stroke-width: 0.7; stroke-linecap: square"/>
     </g>
     <g id="line2d_84">
      <g>
       <use xlink:href="#ma997f55307" x="55.51375" y="45.522441" style="stroke: #000000; stroke-width: 0.6"/>
      </g>
     </g>
    </g>
    <g id="text_14">
     <!-- True positive rate -->
     <g transform="translate(17.837813 242.047094) rotate(-90) scale(0.14 -0.14)">
      <defs>
       <path id="DejaVuSans-Bold-54" d="M 31 4666 
L 4331 4666 
L 4331 3756 
L 2784 3756 
L 2784 0 
L 1581 0 
L 1581 3756 
L 31 3756 
L 31 4666 
z
" transform="scale(0.015625)"/>
       <path id="DejaVuSans-Bold-75" d="M 500 1363 
L 500 3500 
L 1625 3500 
L 1625 3150 
Q 1625 2866 1622 2436 
Q 1619 2006 1619 1863 
Q 1619 1441 1641 1255 
Q 1663 1069 1716 984 
Q 1784 875 1895 815 
Q 2006 756 2150 756 
Q 2500 756 2700 1025 
Q 2900 1294 2900 1772 
L 2900 3500 
L 4019 3500 
L 4019 0 
L 2900 0 
L 2900 506 
Q 2647 200 2364 54 
Q 2081 -91 1741 -91 
Q 1134 -91 817 281 
Q 500 653 500 1363 
z
" transform="scale(0.015625)"/>
      </defs>
      <use xlink:href="#DejaVuSans-Bold-54"/>
      <use xlink:href="#DejaVuSans-Bold-72" transform="translate(57.212891 0)"/>
      <use xlink:href="#DejaVuSans-Bold-75" transform="translate(106.529297 0)"/>
      <use xlink:href="#DejaVuSans-Bold-65" transform="translate(177.720703 0)"/>
      <use xlink:href="#DejaVuSans-Bold-20" transform="translate(245.542969 0)"/>
      <use xlink:href="#DejaVuSans-Bold-70" transform="translate(280.357422 0)"/>
      <use xlink:href="#DejaVuSans-Bold-6f" transform="translate(351.939453 0)"/>
      <use xlink:href="#DejaVuSans-Bold-73" transform="translate(420.640625 0)"/>
      <use xlink:href="#DejaVuSans-Bold-69" transform="translate(480.162109 0)"/>
      <use xlink:href="#DejaVuSans-Bold-74" transform="translate(514.439453 0)"/>
      <use xlink:href="#DejaVuSans-Bold-69" transform="translate(562.242188 0)"/>
      <use xlink:href="#DejaVuSans-Bold-76" transform="translate(596.519531 0)"/>
      <use xlink:href="#DejaVuSans-Bold-65" transform="translate(661.705078 0)"/>
      <use xlink:href="#DejaVuSans-Bold-20" transform="translate(729.527344 0)"/>
      <use xlink:href="#DejaVuSans-Bold-72" transform="translate(764.341797 0)"/>
      <use xlink:href="#DejaVuSans-Bold-61" transform="translate(813.658203 0)"/>
      <use xlink:href="#DejaVuSans-Bold-74" transform="translate(881.138672 0)"/>
      <use xlink:href="#DejaVuSans-Bold-65" transform="translate(928.941406 0)"/>
     </g>
    </g>
   </g>
   <g id="line2d_85">
    <path d="M 55.51375 319.1895 
L 384.73375 31.118912 
" clip-path="url(#p786ca7632f)" style="fill: none; stroke-dasharray: 4.07,1.76; stroke-dashoffset: 0; stroke: #4b5563; stroke-width: 1.1"/>
   </g>
   <g id="line2d_86">
    <path d="M 55.51375 319.1895 
L 58.822494 283.613166 
L 62.131237 251.956812 
L 65.439981 223.822215 
L 68.748725 198.848119 
L 72.057469 176.707127 
L 75.366212 157.102837 
L 78.674956 139.76719 
L 81.9837 124.458019 
L 85.292443 110.956788 
L 88.601187 99.066507 
L 91.909931 88.609812 
L 95.218675 79.427197 
L 98.527418 71.375386 
L 101.836162 64.325841 
L 105.144906 58.163388 
L 108.453649 52.784966 
L 111.762393 48.098464 
L 115.071137 44.02168 
L 118.379881 40.481346 
L 121.688624 37.412255 
L 124.997368 34.756457 
L 128.306112 32.462525 
L 129.960484 31.436808 
L 131.614856 31.118912 
L 384.73375 31.118912 
L 384.73375 31.118912 
" clip-path="url(#p786ca7632f)" style="fill: none; stroke: #1f77b4; stroke-width: 2.6; stroke-linecap: square"/>
   </g>
   <g id="patch_3">
    <path d="M 55.51375 319.1895 
L 55.51375 25.3575 
" style="fill: none; stroke: #111827; stroke-width: 1.1; stroke-linejoin: miter; stroke-linecap: square"/>
   </g>
   <g id="patch_4">
    <path d="M 384.73375 319.1895 
L 384.73375 25.3575 
" style="fill: none; stroke: #111827; stroke-width: 1.1; stroke-linejoin: miter; stroke-linecap: square"/>
   </g>
   <g id="patch_5">
    <path d="M 55.51375 319.1895 
L 384.73375 319.1895 
" style="fill: none; stroke: #111827; stroke-width: 1.1; stroke-linejoin: miter; stroke-linecap: square"/>
   </g>
   <g id="patch_6">
    <path d="M 55.51375 25.3575 
L 384.73375 25.3575 
" style="fill: none; stroke: #111827; stroke-width: 1.1; stroke-linejoin: miter; stroke-linecap: square"/>
   </g>
   <g id="text_15">
    <!-- Macro ROC curve (multiclass, one-vs-rest) -->
    <g transform="translate(30.29625 19.3575) scale(0.16 -0.16)">
     <defs>
      <path id="DejaVuSans-Bold-4d" d="M 588 4666 
L 2119 4666 
L 3181 2169 
L 4250 4666 
L 5778 4666 
L 5778 0 
L 4641 0 
L 4641 3413 
L 3566 897 
L 2803 897 
L 1728 3413 
L 1728 0 
L 588 0 
L 588 4666 
z
" transform="scale(0.015625)"/>
      <path id="DejaVuSans-Bold-63" d="M 3366 3391 
L 3366 2478 
Q 3138 2634 2908 2709 
Q 2678 2784 2431 2784 
Q 1963 2784 1702 2511 
Q 1441 2238 1441 1747 
Q 1441 1256 1702 982 
Q 1963 709 2431 709 
Q 2694 709 2930 787 
Q 3166 866 3366 1019 
L 3366 103 
Q 3103 6 2833 -42 
Q 2563 -91 2291 -91 
Q 1344 -91 809 395 
Q 275 881 275 1747 
Q 275 2613 809 3098 
Q 1344 3584 2291 3584 
Q 2566 3584 2833 3536 
Q 3100 3488 3366 3391 
z
" transform="scale(0.015625)"/>
      <path id="DejaVuSans-Bold-52" d="M 2297 2597 
Q 2675 2597 2839 2737 
Q 3003 2878 3003 3200 
Q 3003 3519 2839 3656 
Q 2675 3794 2297 3794 
L 1791 3794 
L 1791 2597 
L 2297 2597 
z
M 1791 1766 
L 1791 0 
L 588 0 
L 588 4666 
L 2425 4666 
Q 3347 4666 3776 4356 
Q 4206 4047 4206 3378 
Q 4206 2916 3982 2619 
Q 3759 2322 3309 2181 
Q 3556 2125 3751 1926 
Q 3947 1728 4147 1325 
L 4800 0 
L 3519 0 
L 2950 1159 
Q 2778 1509 2601 1637 
Q 2425 1766 2131 1766 
L 1791 1766 
z
" transform="scale(0.015625)"/>
      <path id="DejaVuSans-Bold-4f" d="M 2719 3878 
Q 2169 3878 1866 3472 
Q 1563 3066 1563 2328 
Q 1563 1594 1866 1187 
Q 2169 781 2719 781 
Q 3272 781 3575 1187 
Q 3878 1594 3878 2328 
Q 3878 3066 3575 3472 
Q 3272 3878 2719 3878 
z
M 2719 4750 
Q 3844 4750 4481 4106 
Q 5119 3463 5119 2328 
Q 5119 1197 4481 553 
Q 3844 -91 2719 -91 
Q 1597 -91 958 553 
Q 319 1197 319 2328 
Q 319 3463 958 4106 
Q 1597 4750 2719 4750 
z
" transform="scale(0.015625)"/>
      <path id="DejaVuSans-Bold-43" d="M 4288 256 
Q 3956 84 3597 -3 
Q 3238 -91 2847 -91 
Q 1681 -91 1000 561 
Q 319 1213 319 2328 
Q 319 3447 1000 4098 
Q 1681 4750 2847 4750 
Q 3238 4750 3597 4662 
Q 3956 4575 4288 4403 
L 4288 3438 
Q 3953 3666 3628 3772 
Q 3303 3878 2944 3878 
Q 2300 3878 1931 3465 
Q 1563 3053 1563 2328 
Q 1563 1606 1931 1193 
Q 2300 781 2944 781 
Q 3303 781 3628 887 
Q 3953 994 4288 1222 
L 4288 256 
z
" transform="scale(0.015625)"/>
      <path id="DejaVuSans-Bold-28" d="M 2413 -844 
L 1484 -844 
Q 1006 -72 778 623 
Q 550 1319 550 2003 
Q 550 2688 779 3389 
Q 1009 4091 1484 4856 
L 2413 4856 
Q 2013 4116 1813 3408 
Q 1613 2700 1613 2009 
Q 1613 1319 1811 609 
Q 2009 -100 2413 -844 
z
" transform="scale(0.015625)"/>
      <path id="DejaVuSans-Bold-6d" d="M 3781 2919 
Q 3994 3244 4286 3414 
Q 4578 3584 4928 3584 
Q 5531 3584 5847 3212 
Q 6163 2841 6163 2131 
L 6163 0 
L 5038 0 
L 5038 1825 
Q 5041 1866 5042 1909 
Q 5044 1953 5044 2034 
Q 5044 2406 4934 2573 
Q 4825 2741 4581 2741 
Q 4263 2741 4089 2478 
Q 3916 2216 3909 1719 
L 3909 0 
L 2784 0 
L 2784 1825 
Q 2784 2406 2684 2573 
Q 2584 2741 2328 2741 
Q 2006 2741 1831 2477 
Q 1656 2213 1656 1722 
L 1656 0 
L 531 0 
L 531 3500 
L 1656 3500 
L 1656 2988 
Q 1863 3284 2130 3434 
Q 2397 3584 2719 3584 
Q 3081 3584 3359 3409 
Q 3638 3234 3781 2919 
z
" transform="scale(0.015625)"/>
      <path id="DejaVuSans-Bold-2c" d="M 653 1209 
L 1778 1209 
L 1778 256 
L 1006 -909 
L 341 -909 
L 653 256 
L 653 1209 
z
" transform="scale(0.015625)"/>
      <path id="DejaVuSans-Bold-6e" d="M 4056 2131 
L 4056 0 
L 2931 0 
L 2931 347 
L 2931 1631 
Q 2931 2084 2911 2256 
Q 2891 2428 2841 2509 
Q 2775 2619 2662 2680 
Q 2550 2741 2406 2741 
Q 2056 2741 1856 2470 
Q 1656 2200 1656 1722 
L 1656 0 
L 538 0 
L 538 3500 
L 1656 3500 
L 1656 2988 
Q 1909 3294 2193 3439 
Q 2478 3584 2822 3584 
Q 3428 3584 3742 3212 
Q 4056 2841 4056 2131 
z
" transform="scale(0.015625)"/>
      <path id="DejaVuSans-Bold-2d" d="M 347 2297 
L 2309 2297 
L 2309 1388 
L 347 1388 
L 347 2297 
z
" transform="scale(0.015625)"/>
      <path id="DejaVuSans-Bold-29" d="M 513 -844 
Q 913 -100 1113 609 
Q 1313 1319 1313 2009 
Q 1313 2700 1113 3408 
Q 913 4116 513 4856 
L 1441 4856 
Q 1916 4091 2145 3389 
Q 2375 2688 2375 2003 
Q 2375 1319 2147 623 
Q 1919 -72 1441 -844 
L 513 -844 
z
" transform="scale(0.015625)"/>
     </defs>
     <use xlink:href="#DejaVuSans-Bold-4d"/>
     <use xlink:href="#DejaVuSans-Bold-61" transform="translate(99.511719 0)"/>
     <use xlink:href="#DejaVuSans-Bold-63" transform="translate(166.992188 0)"/>
     <use xlink:href="#DejaVuSans-Bold-72" transform="translate(226.269531 0)"/>
     <use xlink:href="#DejaVuSans-Bold-6f" transform="translate(275.585938 0)"/>
     <use xlink:href="#DejaVuSans-Bold-20" transform="translate(344.287109 0)"/>
     <use xlink:href="#DejaVuSans-Bold-52" transform="translate(379.101562 0)"/>
     <use xlink:href="#DejaVuSans-Bold-4f" transform="translate(456.103516 0)"/>
     <use xlink:href="#DejaVuSans-Bold-43" transform="translate(541.113281 0)"/>
     <use xlink:href="#DejaVuSans-Bold-20" transform="translate(614.501953 0)"/>
     <use xlink:href="#DejaVuSans-Bold-63" transform="translate(649.316406 0)"/>
     <use xlink:href="#DejaVuSans-Bold-75" transform="translate(708.59375 0)"/>
     <use xlink:href="#DejaVuSans-Bold-72" transform="translate(779.785156 0)"/>
     <use xlink:href="#DejaVuSans-Bold-76" transform="translate(829.101562 0)"/>
     <use xlink:href="#DejaVuSans-Bold-65" transform="translate(894.287109 0)"/>
     <use xlink:href="#DejaVuSans-Bold-20" transform="translate(962.109375 0)"/>
     <use xlink:href="#DejaVuSans-Bold-28" transform="translate(996.923828 0)"/>
     <use xlink:href="#DejaVuSans-Bold-6d" transform="translate(1042.626953 0)"/>
     <use xlink:href="#DejaVuSans-Bold-75" transform="translate(1146.826172 0)"/>
     <use xlink:href="#DejaVuSans-Bold-6c" transform="translate(1218.017578 0)"/>
     <use xlink:href="#DejaVuSans-Bold-74" transform="translate(1252.294922 0)"/>
     <use xlink:href="#DejaVuSans-Bold-69" transform="translate(1300.097656 0)"/>
     <use xlink:href="#DejaVuSans-Bold-63" transform="translate(1334.375 0)"/>
     <use xlink:href="#DejaVuSans-Bold-6c" transform="translate(1393.652344 0)"/>
     <use xlink:href="#DejaVuSans-Bold-61" transform="translate(1427.929688 0)"/>
     <use xlink:href="#DejaVuSans-Bold-73" transform="translate(1495.410156 0)"/>
     <use xlink:href="#DejaVuSans-Bold-73" transform="translate(1554.931641 0)"/>
     <use xlink:href="#DejaVuSans-Bold-2c" transform="translate(1614.453125 0)"/>
     <use xlink:href="#DejaVuSans-Bold-20" transform="translate(1652.441406 0)"/>
     <use xlink:href="#DejaVuSans-Bold-6f" transform="translate(1687.255859 0)"/>
     <use xlink:href="#DejaVuSans-Bold-6e" transform="translate(1755.957031 0)"/>
     <use xlink:href="#DejaVuSans-Bold-65" transform="translate(1827.148438 0)"/>
     <use xlink:href="#DejaVuSans-Bold-2d" transform="translate(1894.970703 0)"/>
     <use xlink:href="#DejaVuSans-Bold-76" transform="translate(1936.474609 0)"/>
     <use xlink:href="#DejaVuSans-Bold-73" transform="translate(2001.660156 0)"/>
     <use xlink:href="#DejaVuSans-Bold-2d" transform="translate(2061.181641 0)"/>
     <use xlink:href="#DejaVuSans-Bold-72" transform="translate(2102.685547 0)"/>
     <use xlink:href="#DejaVuSans-Bold-65" transform="translate(2152.001953 0)"/>
     <use xlink:href="#DejaVuSans-Bold-73" transform="translate(2219.824219 0)"/>
     <use xlink:href="#DejaVuSans-Bold-74" transform="translate(2279.345703 0)"/>
     <use xlink:href="#DejaVuSans-Bold-29" transform="translate(2327.148438 0)"/>
    </g>
   </g>
   <g id="legend_1">
    <g id="patch_7">
     <path d="M 181.705312 312.1895 
L 374.93375 312.1895 
Q 377.73375 312.1895 377.73375 309.3895 
L 377.73375 290.240125 
Q 377.73375 287.440125 374.93375 287.440125 
L 181.705312 287.440125 
Q 178.905312 287.440125 178.905312 290.240125 
L 178.905312 309.3895 
Q 178.905312 312.1895 181.705312 312.1895 
z
" style="fill: #ffffff; opacity: 0.96; stroke: #111827; stroke-linejoin: miter"/>
    </g>
    <g id="line2d_87">
     <path d="M 184.505312 298.777938 
L 198.505312 298.777938 
L 212.505312 298.777938 
" style="fill: none; stroke: #1f77b4; stroke-width: 2.6; stroke-linecap: square"/>
    </g>
    <g id="text_16">
     <!-- ROC (AUC = 0.935) -->
     <g transform="translate(223.705312 303.677937) scale(0.14 -0.14)">
      <defs>
       <path id="DejaVuSans-Bold-41" d="M 3419 850 
L 1538 850 
L 1241 0 
L 31 0 
L 1759 4666 
L 3194 4666 
L 4922 0 
L 3713 0 
L 3419 850 
z
M 1838 1716 
L 3116 1716 
L 2478 3572 
L 1838 1716 
z
" transform="scale(0.015625)"/>
       <path id="DejaVuSans-Bold-55" d="M 588 4666 
L 1791 4666 
L 1791 1869 
Q 1791 1291 1980 1042 
Q 2169 794 2597 794 
Q 3028 794 3217 1042 
Q 3406 1291 3406 1869 
L 3406 4666 
L 4609 4666 
L 4609 1869 
Q 4609 878 4112 393 
Q 3616 -91 2597 -91 
Q 1581 -91 1084 393 
Q 588 878 588 1869 
L 588 4666 
z
" transform="scale(0.015625)"/>
       <path id="DejaVuSans-Bold-3d" d="M 678 3084 
L 4684 3084 
L 4684 2350 
L 678 2350 
L 678 3084 
z
M 678 1663 
L 4684 1663 
L 4684 922 
L 678 922 
L 678 1663 
z
" transform="scale(0.015625)"/>
       <path id="DejaVuSans-Bold-30" d="M 2944 2338 
Q 2944 3213 2780 3570 
Q 2616 3928 2228 3928 
Q 1841 3928 1675 3570 
Q 1509 3213 1509 2338 
Q 1509 1453 1675 1090 
Q 1841 728 2228 728 
Q 2613 728 2778 1090 
Q 2944 1453 2944 2338 
z
M 4147 2328 
Q 4147 1169 3647 539 
Q 3147 -91 2228 -91 
Q 1306 -91 806 539 
Q 306 1169 306 2328 
Q 306 3491 806 4120 
Q 1306 4750 2228 4750 
Q 3147 4750 3647 4120 
Q 4147 3491 4147 2328 
z
" transform="scale(0.015625)"/>
       <path id="DejaVuSans-Bold-2e" d="M 653 1209 
L 1778 1209 
L 1778 0 
L 653 0 
L 653 1209 
z
" transform="scale(0.015625)"/>
       <path id="DejaVuSans-Bold-39" d="M 641 103 
L 641 966 
Q 928 831 1190 764 
Q 1453 697 1709 697 
Q 2247 697 2547 995 
Q 2847 1294 2900 1881 
Q 2688 1725 2447 1647 
Q 2206 1569 1925 1569 
Q 1209 1569 770 1986 
Q 331 2403 331 3084 
Q 331 3838 820 4291 
Q 1309 4744 2131 4744 
Q 3044 4744 3544 4128 
Q 4044 3513 4044 2388 
Q 4044 1231 3459 570 
Q 2875 -91 1856 -91 
Q 1528 -91 1228 -42 
Q 928 6 641 103 
z
M 2125 2350 
Q 2441 2350 2600 2554 
Q 2759 2759 2759 3169 
Q 2759 3575 2600 3781 
Q 2441 3988 2125 3988 
Q 1809 3988 1650 3781 
Q 1491 3575 1491 3169 
Q 1491 2759 1650 2554 
Q 1809 2350 2125 2350 
z
" transform="scale(0.015625)"/>
       <path id="DejaVuSans-Bold-33" d="M 2981 2516 
Q 3453 2394 3698 2092 
Q 3944 1791 3944 1325 
Q 3944 631 3412 270 
Q 2881 -91 1863 -91 
Q 1503 -91 1142 -33 
Q 781 25 428 141 
L 428 1069 
Q 766 900 1098 814 
Q 1431 728 1753 728 
Q 2231 728 2486 893 
Q 2741 1059 2741 1369 
Q 2741 1688 2480 1852 
Q 2219 2016 1709 2016 
L 1228 2016 
L 1228 2791 
L 1734 2791 
Q 2188 2791 2409 2933 
Q 2631 3075 2631 3366 
Q 2631 3634 2415 3781 
Q 2200 3928 1806 3928 
Q 1516 3928 1219 3862 
Q 922 3797 628 3669 
L 628 4550 
Q 984 4650 1334 4700 
Q 1684 4750 2022 4750 
Q 2931 4750 3382 4451 
Q 3834 4153 3834 3553 
Q 3834 3144 3618 2883 
Q 3403 2622 2981 2516 
z
" transform="scale(0.015625)"/>
       <path id="DejaVuSans-Bold-35" d="M 678 4666 
L 3669 4666 
L 3669 3781 
L 1638 3781 
L 1638 3059 
Q 1775 3097 1914 3117 
Q 2053 3138 2203 3138 
Q 3056 3138 3531 2711 
Q 4006 2284 4006 1522 
Q 4006 766 3489 337 
Q 2972 -91 2053 -91 
Q 1656 -91 1267 -14 
Q 878 63 494 219 
L 494 1166 
Q 875 947 1217 837 
Q 1559 728 1863 728 
Q 2300 728 2551 942 
Q 2803 1156 2803 1522 
Q 2803 1891 2551 2103 
Q 2300 2316 1863 2316 
Q 1603 2316 1309 2248 
Q 1016 2181 678 2041 
L 678 4666 
z
" transform="scale(0.015625)"/>
      </defs>
      <use xlink:href="#DejaVuSans-Bold-52"/>
      <use xlink:href="#DejaVuSans-Bold-4f" transform="translate(77.001953 0)"/>
      <use xlink:href="#DejaVuSans-Bold-43" transform="translate(162.011719 0)"/>
      <use xlink:href="#DejaVuSans-Bold-20" transform="translate(235.400391 0)"/>
      <use xlink:href="#DejaVuSans-Bold-28" transform="translate(270.214844 0)"/>
      <use xlink:href="#DejaVuSans-Bold-41" transform="translate(315.917969 0)"/>
      <use xlink:href="#DejaVuSans-Bold-55" transform="translate(390.185547 0)"/>
      <use xlink:href="#DejaVuSans-Bold-43" transform="translate(471.386719 0)"/>
      <use xlink:href="#DejaVuSans-Bold-20" transform="translate(544.775391 0)"/>
      <use xlink:href="#DejaVuSans-Bold-3d" transform="translate(579.589844 0)"/>
      <use xlink:href="#DejaVuSans-Bold-20" transform="translate(663.378906 0)"/>
      <use xlink:href="#DejaVuSans-Bold-30" transform="translate(698.193359 0)"/>
      <use xlink:href="#DejaVuSans-Bold-2e" transform="translate(767.773438 0)"/>
      <use xlink:href="#DejaVuSans-Bold-39" transform="translate(805.761719 0)"/>
      <use xlink:href="#DejaVuSans-Bold-33" transform="translate(875.341797 0)"/>
      <use xlink:href="#DejaVuSans-Bold-35" transform="translate(944.921875 0)"/>
      <use xlink:href="#DejaVuSans-Bold-29" transform="translate(1014.501953 0)"/>
     </g>
    </g>
   </g>
  </g>
 </g>
 <defs>
  <clipPath id="p786ca7632f">
   <rect x="55.51375" y="25.3575" width="329.22" height="293.832"/>
  </clipPath>
 </defs>
</svg>
