<?xml version="1.0" encoding="utf-8" standalone="no"?>
<!DOCTYPE svg PUBLIC "-//W3C//DTD SVG 1.1//EN"
  "http://www.w3.org/Graphics/SVG/1.1/DTD/svg11.dtd">
<svg xmlns:xlink="http://www.w3.org/1999/xlink" width="410.948906pt" height="403.904125pt" viewBox="0 0 410.948906 403.904125" xmlns="http://www.w3.org/2000/svg" version="1.1">
 <metadata>
  <rdf:RDF xmlns:dc="http://purl.org/dc/elements/1.1/" xmlns:cc="http://creativecommons.org/ns#" xmlns:rdf="http://www.w3.org/1999/02/22-rdf-syntax-ns#">
   <cc:Work>
    <dc:type rdf:resource="http://purl.org/dc/dcmitype/StillImage"/>
    <dc:date>2025-05-18T17:11:25.003618</dc:date>
    <dc:format>image/svg+xml</dc:format>
    <dc:creator>
     <cc:Agent>
      <dc:title>Matplotlib v3.7.2, https://matplotlib.org/</dc:title>
     </cc:Agent>
    </dc:creator>
   </cc:Work>
  </rdf:RDF>
 </metadata>
 <defs>
  <style type="text/css">*{stroke-linejoin: round; stroke-linecap: butt}</style>
 </defs>
 <g id="figure_1">
  <g id="patch_1">
   <path d="M 0 403.904125 
L 410.948906 403.904125 
L 410.948906 0 
L 0 0 
z
" style="fill: #ffffff"/>
  </g>
  <g id="axes_1">
   <g id="patch_2">
    <path d="M 56.549063 358.605375 
L 391.349063 358.605375 
L 391.349063 25.965375 
L 56.549063 25.965375 
z
" style="fill: #ffffff"/>
   </g>
   <g id="matplotlib.axis_1">
    <g id="xtick_1">
     <g id="line2d_1">
      <path d="M 56.549063 358.605375 
L 56.549063 25.965375 
" clip-path="url(#p1d63644ba1)" style="fill: none; stroke-dasharray: 2.96,1.28; stroke-dashoffset: 0; stroke: #b0b0b0; stroke-opacity: 0.7; stroke-width: 0.8"/>
     </g>
     <g id="line2d_2">
      <defs>
       <path id="m9927cd997a" d="M 0 0 
L 0 3.5 
" style="stroke: #000000; stroke-width: 0.8"/>
      </defs>
      <g>
       <use xlink:href="#m9927cd997a" x="56.549063" y="358.605375" style="stroke: #000000; stroke-width: 0.8"/>
      </g>
     </g>
     <g id="text_1">
      <!-- 0.0 -->
      <g transform="translate(44.149219 376.243188) scale(0.14 -0.14)">
       <defs>
        <path id="DejaVuSans-Bold-30" d="M 2944 2338 
Q 2944 3213 2780 3570 
Q 2616 3928 2228 3928 
Q 1841 3928 1675 3570 
Q 1509 3213 1509 2338 
Q 1509 1453 1675 1090 
Q 1841 728 2228 728 
Q 2613 728 2778 1090 
Q 2944 1453 2944 2338 
z
M 4147 2328 
Q 4147 1169 3647 539 
Q 3147 -91 2228 -91 
Q 1306 -91 806 539 
Q 306 1169 306 2328 
Q 306 3491 806 4120 
Q 1306 4750 2228 4750 
Q 3147 4750 3647 4120 
Q 4147 3491 4147 2328 
z
" transform="scale(0.015625)"/>
        <path id="DejaVuSans-Bold-2e" d="M 653 1209 
L 1778 1209 
L 1778 0 
L 653 0 
L 653 1209 
z
" transform="scale(0.015625)"/>
       </defs>
       <use xlink:href="#DejaVuSans-Bold-30"/>
       <use xlink:href="#DejaVuSans-Bold-2e" x="69.580078"/>
       <use xlink:href="#DejaVuSans-Bold-30" x="107.568359"/>
      </g>
     </g>
    </g>
    <g id="xtick_2">
     <g id="line2d_3">
      <path d="M 123.509063 358.605375 
L 123.509063 25.965375 
" clip-path="url(#p1d63644ba1)" style="fill: none; stroke-dasharray: 2.96,1.28; stroke-dashoffset: 0; stroke: #b0b0b0; stroke-opacity: 0.7; stroke-width: 0.8"/>
     </g>
     <g id="line2d_4">
      <g>
       <use xlink:href="#m9927cd997a" x="123.509063" y="358.605375" style="stroke: #000000; stroke-width: 0.8"/>
      </g>
     </g>
     <g id="text_2">
      <!-- 0.2 -->
      <g transform="translate(111.109219 376.243188) scale(0.14 -0.14)">
       <defs>
        <path id="DejaVuSans-Bold-32" d="M 1844 884 
L 3897 884 
L 3897 0 
L 506 0 
L 506 884 
L 2209 2388 
Q 2438 2594 2547 2791 
Q 2656 2988 2656 3200 
Q 2656 3528 2436 3728 
Q 2216 3928 1850 3928 
Q 1569 3928 1234 3808 
Q 900 3688 519 3450 
L 519 4475 
Q 925 4609 1322 4679 
Q 1719 4750 2100 4750 
Q 2938 4750 3402 4381 
Q 3866 4013 3866 3353 
Q 3866 2972 3669 2642 
Q 3472 2313 2841 1759 
L 1844 884 
z
" transform="scale(0.015625)"/>
       </defs>
       <use xlink:href="#DejaVuSans-Bold-30"/>
       <use xlink:href="#DejaVuSans-Bold-2e" x="69.580078"/>
       <use xlink:href="#DejaVuSans-Bold-32" x="107.568359"/>
      </g>
     </g>
    </g>
    <g id="xtick_3">
     <g id="line2d_5">
      <path d="M 190.469063 358.605375 
L 190.469063 25.965375 
" clip-path="url(#p1d63644ba1)" style="fill: none; stroke-dasharray: 2.96,1.28; stroke-dashoffset: 0; stroke: #b0b0b0; stroke-opacity: 0.7; stroke-width: 0.8"/>
     </g>
     <g id="line2d_6">
      <g>
       <use xlink:href="#m9927cd997a" x="190.469063" y="358.605375" style="stroke: #000000; stroke-width: 0.8"/>
      </g>
     </g>
     <g id="text_3">
      <!-- 0.4 -->
      <g transform="translate(178.069219 376.243188) scale(0.14 -0.14)">
       <defs>
        <path id="DejaVuSans-Bold-34" d="M 2356 3675 
L 1038 1722 
L 2356 1722 
L 2356 3675 
z
M 2156 4666 
L 3494 4666 
L 3494 1722 
L 4159 1722 
L 4159 850 
L 3494 850 
L 3494 0 
L 2356 0 
L 2356 850 
L 288 850 
L 288 1881 
L 2156 4666 
z
" transform="scale(0.015625)"/>
       </defs>
       <use xlink:href="#DejaVuSans-Bold-30"/>
       <use xlink:href="#DejaVuSans-Bold-2e" x="69.580078"/>
       <use xlink:href="#DejaVuSans-Bold-34" x="107.568359"/>
      </g>
     </g>
    </g>
    <g id="xtick_4">
     <g id="line2d_7">
      <path d="M 257.429063 358.605375 
L 257.429063 25.965375 
" clip-path="url(#p1d63644ba1)" style="fill: none; stroke-dasharray: 2.96,1.28; stroke-dashoffset: 0; stroke: #b0b0b0; stroke-opacity: 0.7; stroke-width: 0.8"/>
     </g>
     <g id="line2d_8">
      <g>
       <use xlink:href="#m9927cd997a" x="257.429063" y="358.605375" style="stroke: #000000; stroke-width: 0.8"/>
      </g>
     </g>
     <g id="text_4">
      <!-- 0.6 -->
      <g transform="translate(245.029219 376.243188) scale(0.14 -0.14)">
       <defs>
        <path id="DejaVuSans-Bold-36" d="M 2316 2303 
Q 2000 2303 1842 2098 
Q 1684 1894 1684 1484 
Q 1684 1075 1842 870 
Q 2000 666 2316 666 
Q 2634 666 2792 870 
Q 2950 1075 2950 1484 
Q 2950 1894 2792 2098 
Q 2634 2303 2316 2303 
z
M 3803 4544 
L 3803 3681 
Q 3506 3822 3243 3889 
Q 2981 3956 2731 3956 
Q 2194 3956 1894 3657 
Q 1594 3359 1544 2772 
Q 1750 2925 1990 3001 
Q 2231 3078 2516 3078 
Q 3231 3078 3670 2659 
Q 4109 2241 4109 1563 
Q 4109 813 3618 361 
Q 3128 -91 2303 -91 
Q 1394 -91 895 523 
Q 397 1138 397 2266 
Q 397 3422 980 4083 
Q 1563 4744 2578 4744 
Q 2900 4744 3203 4694 
Q 3506 4644 3803 4544 
z
" transform="scale(0.015625)"/>
       </defs>
       <use xlink:href="#DejaVuSans-Bold-30"/>
       <use xlink:href="#DejaVuSans-Bold-2e" x="69.580078"/>
       <use xlink:href="#DejaVuSans-Bold-36" x="107.568359"/>
      </g>
     </g>
    </g>
    <g id="xtick_5">
     <g id="line2d_9">
      <path d="M 324.389063 358.605375 
L 324.389063 25.965375 
" clip-path="url(#p1d63644ba1)" style="fill: none; stroke-dasharray: 2.96,1.28; stroke-dashoffset: 0; stroke: #b0b0b0; stroke-opacity: 0.7; stroke-width: 0.8"/>
     </g>
     <g id="line2d_10">
      <g>
       <use xlink:href="#m9927cd997a" x="324.389063" y="358.605375" style="stroke: #000000; stroke-width: 0.8"/>
      </g>
     </g>
     <g id="text_5">
      <!-- 0.8 -->
      <g transform="translate(311.989219 376.243188) scale(0.14 -0.14)">
       <defs>
        <path id="DejaVuSans-Bold-38" d="M 2228 2088 
Q 1891 2088 1709 1903 
Q 1528 1719 1528 1375 
Q 1528 1031 1709 848 
Q 1891 666 2228 666 
Q 2563 666 2741 848 
Q 2919 1031 2919 1375 
Q 2919 1722 2741 1905 
Q 2563 2088 2228 2088 
z
M 1350 2484 
Q 925 2613 709 2878 
Q 494 3144 494 3541 
Q 494 4131 934 4440 
Q 1375 4750 2228 4750 
Q 3075 4750 3515 4442 
Q 3956 4134 3956 3541 
Q 3956 3144 3739 2878 
Q 3522 2613 3097 2484 
Q 3572 2353 3814 2058 
Q 4056 1763 4056 1313 
Q 4056 619 3595 264 
Q 3134 -91 2228 -91 
Q 1319 -91 855 264 
Q 391 619 391 1313 
Q 391 1763 633 2058 
Q 875 2353 1350 2484 
z
M 1631 3419 
Q 1631 3141 1786 2991 
Q 1941 2841 2228 2841 
Q 2509 2841 2662 2991 
Q 2816 3141 2816 3419 
Q 2816 3697 2662 3845 
Q 2509 3994 2228 3994 
Q 1941 3994 1786 3844 
Q 1631 3694 1631 3419 
z
" transform="scale(0.015625)"/>
       </defs>
       <use xlink:href="#DejaVuSans-Bold-30"/>
       <use xlink:href="#DejaVuSans-Bold-2e" x="69.580078"/>
       <use xlink:href="#DejaVuSans-Bold-38" x="107.568359"/>
      </g>
     </g>
    </g>
    <g id="xtick_6">
     <g id="line2d_11">
      <path d="M 391.349063 358.605375 
L 391.349063 25.965375 
" clip-path="url(#p1d63644ba1)" style="fill: none; stroke-dasharray: 2.96,1.28; stroke-dashoffset: 0; stroke: #b0b0b0; stroke-opacity: 0.7; stroke-width: 0.8"/>
     </g>
     <g id="line2d_12">
      <g>
       <use xlink:href="#m9927cd997a" x="391.349063" y="358.605375" style="stroke: #000000; stroke-width: 0.8"/>
      </g>
     </g>
     <g id="text_6">
      <!-- 1.0 -->
      <g transform="translate(378.949219 376.243188) scale(0.14 -0.14)">
       <defs>
        <path id="DejaVuSans-Bold-31" d="M 750 831 
L 1813 831 
L 1813 3847 
L 722 3622 
L 722 4441 
L 1806 4666 
L 2950 4666 
L 2950 831 
L 4013 831 
L 4013 0 
L 750 0 
L 750 831 
z
" transform="scale(0.015625)"/>
       </defs>
       <use xlink:href="#DejaVuSans-Bold-31"/>
       <use xlink:href="#DejaVuSans-Bold-2e" x="69.580078"/>
       <use xlink:href="#DejaVuSans-Bold-30" x="107.568359"/>
      </g>
     </g>
    </g>
    <g id="text_7">
     <!-- Recall -->
     <g transform="translate(200.138125 393.792563) scale(0.14 -0.14)">
      <defs>
       <path id="DejaVuSans-Bold-52" d="M 2297 2597 
Q 2675 2597 2839 2737 
Q 3003 2878 3003 3200 
Q 3003 3519 2839 3656 
Q 2675 3794 2297 3794 
L 1791 3794 
L 1791 2597 
L 2297 2597 
z
M 1791 1766 
L 1791 0 
L 588 0 
L 588 4666 
L 2425 4666 
Q 3347 4666 3776 4356 
Q 4206 4047 4206 3378 
Q 4206 2916 3982 2619 
Q 3759 2322 3309 2181 
Q 3556 2125 3751 1926 
Q 3947 1728 4147 1325 
L 4800 0 
L 3519 0 
L 2950 1159 
Q 2778 1509 2601 1637 
Q 2425 1766 2131 1766 
L 1791 1766 
z
" transform="scale(0.015625)"/>
       <path id="DejaVuSans-Bold-65" d="M 4031 1759 
L 4031 1441 
L 1416 1441 
Q 1456 1047 1700 850 
Q 1944 653 2381 653 
Q 2734 653 3104 758 
Q 3475 863 3866 1075 
L 3866 213 
Q 3469 63 3072 -14 
Q 2675 -91 2278 -91 
Q 1328 -91 801 392 
Q 275 875 275 1747 
Q 275 2603 792 3093 
Q 1309 3584 2216 3584 
Q 3041 3584 3536 3087 
Q 4031 2591 4031 1759 
z
M 2881 2131 
Q 2881 2450 2695 2645 
Q 2509 2841 2209 2841 
Q 1884 2841 1681 2658 
Q 1478 2475 1428 2131 
L 2881 2131 
z
" transform="scale(0.015625)"/>
       <path id="DejaVuSans-Bold-63" d="M 3366 3391 
L 3366 2478 
Q 3138 2634 2908 2709 
Q 2678 2784 2431 2784 
Q 1963 2784 1702 2511 
Q 1441 2238 1441 1747 
Q 1441 1256 1702 982 
Q 1963 709 2431 709 
Q 2694 709 2930 787 
Q 3166 866 3366 1019 
L 3366 103 
Q 3103 6 2833 -42 
Q 2563 -91 2291 -91 
Q 1344 -91 809 395 
Q 275 881 275 1747 
Q 275 2613 809 3098 
Q 1344 3584 2291 3584 
Q 2566 3584 2833 3536 
Q 3100 3488 3366 3391 
z
" transform="scale(0.015625)"/>
       <path id="DejaVuSans-Bold-61" d="M 2106 1575 
Q 1756 1575 1579 1456 
Q 1403 1338 1403 1106 
Q 1403 894 1545 773 
Q 1688 653 1941 653 
Q 2256 653 2472 879 
Q 2688 1106 2688 1447 
L 2688 1575 
L 2106 1575 
z
M 3816 1997 
L 3816 0 
L 2688 0 
L 2688 519 
Q 2463 200 2181 54 
Q 1900 -91 1497 -91 
Q 953 -91 614 226 
Q 275 544 275 1050 
Q 275 1666 698 1953 
Q 1122 2241 2028 2241 
L 2688 2241 
L 2688 2328 
Q 2688 2594 2478 2717 
Q 2269 2841 1825 2841 
Q 1466 2841 1156 2769 
Q 847 2697 581 2553 
L 581 3406 
Q 941 3494 1303 3539 
Q 1666 3584 2028 3584 
Q 2975 3584 3395 3211 
Q 3816 2838 3816 1997 
z
" transform="scale(0.015625)"/>
       <path id="DejaVuSans-Bold-6c" d="M 538 4863 
L 1656 4863 
L 1656 0 
L 538 0 
L 538 4863 
z
" transform="scale(0.015625)"/>
      </defs>
      <use xlink:href="#DejaVuSans-Bold-52"/>
      <use xlink:href="#DejaVuSans-Bold-65" x="77.001953"/>
      <use xlink:href="#DejaVuSans-Bold-63" x="144.824219"/>
      <use xlink:href="#DejaVuSans-Bold-61" x="204.101562"/>
      <use xlink:href="#DejaVuSans-Bold-6c" x="271.582031"/>
      <use xlink:href="#DejaVuSans-Bold-6c" x="305.859375"/>
     </g>
    </g>
   </g>
   <g id="matplotlib.axis_2">
    <g id="ytick_1">
     <g id="line2d_13">
      <path d="M 56.549063 358.605375 
L 391.349063 358.605375 
" clip-path="url(#p1d63644ba1)" style="fill: none; stroke-dasharray: 2.96,1.28; stroke-dashoffset: 0; stroke: #b0b0b0; stroke-opacity: 0.7; stroke-width: 0.8"/>
     </g>
     <g id="line2d_14">
      <defs>
       <path id="m880a84d502" d="M 0 0 
L -3.5 0 
" style="stroke: #000000; stroke-width: 0.8"/>
      </defs>
      <g>
       <use xlink:href="#m880a84d502" x="56.549063" y="358.605375" style="stroke: #000000; stroke-width: 0.8"/>
      </g>
     </g>
     <g id="text_8">
      <!-- 0.0 -->
      <g transform="translate(24.749375 363.924281) scale(0.14 -0.14)">
       <use xlink:href="#DejaVuSans-Bold-30"/>
       <use xlink:href="#DejaVuSans-Bold-2e" x="69.580078"/>
       <use xlink:href="#DejaVuSans-Bold-30" x="107.568359"/>
      </g>
     </g>
    </g>
    <g id="ytick_2">
     <g id="line2d_15">
      <path d="M 56.549063 295.245375 
L 391.349063 295.245375 
" clip-path="url(#p1d63644ba1)" style="fill: none; stroke-dasharray: 2.96,1.28; stroke-dashoffset: 0; stroke: #b0b0b0; stroke-opacity: 0.7; stroke-width: 0.8"/>
     </g>
     <g id="line2d_16">
      <g>
       <use xlink:href="#m880a84d502" x="56.549063" y="295.245375" style="stroke: #000000; stroke-width: 0.8"/>
      </g>
     </g>
     <g id="text_9">
      <!-- 0.2 -->
      <g transform="translate(24.749375 300.564281) scale(0.14 -0.14)">
       <use xlink:href="#DejaVuSans-Bold-30"/>
       <use xlink:href="#DejaVuSans-Bold-2e" x="69.580078"/>
       <use xlink:href="#DejaVuSans-Bold-32" x="107.568359"/>
      </g>
     </g>
    </g>
    <g id="ytick_3">
     <g id="line2d_17">
      <path d="M 56.549063 231.885375 
L 391.349063 231.885375 
" clip-path="url(#p1d63644ba1)" style="fill: none; stroke-dasharray: 2.96,1.28; stroke-dashoffset: 0; stroke: #b0b0b0; stroke-opacity: 0.7; stroke-width: 0.8"/>
     </g>
     <g id="line2d_18">
      <g>
       <use xlink:href="#m880a84d502" x="56.549063" y="231.885375" style="stroke: #000000; stroke-width: 0.8"/>
      </g>
     </g>
     <g id="text_10">
      <!-- 0.4 -->
      <g transform="translate(24.749375 237.204281) scale(0.14 -0.14)">
       <use xlink:href="#DejaVuSans-Bold-30"/>
       <use xlink:href="#DejaVuSans-Bold-2e" x="69.580078"/>
       <use xlink:href="#DejaVuSans-Bold-34" x="107.568359"/>
      </g>
     </g>
    </g>
    <g id="ytick_4">
     <g id="line2d_19">
      <path d="M 56.549063 168.525375 
L 391.349063 168.525375 
" clip-path="url(#p1d63644ba1)" style="fill: none; stroke-dasharray: 2.96,1.28; stroke-dashoffset: 0; stroke: #b0b0b0; stroke-opacity: 0.7; stroke-width: 0.8"/>
     </g>
     <g id="line2d_20">
      <g>
       <use xlink:href="#m880a84d502" x="56.549063" y="168.525375" style="stroke: #000000; stroke-width: 0.8"/>
      </g>
     </g>
     <g id="text_11">
      <!-- 0.6 -->
      <g transform="translate(24.749375 173.844281) scale(0.14 -0.14)">
       <use xlink:href="#DejaVuSans-Bold-30"/>
       <use xlink:href="#DejaVuSans-Bold-2e" x="69.580078"/>
       <use xlink:href="#DejaVuSans-Bold-36" x="107.568359"/>
      </g>
     </g>
    </g>
    <g id="ytick_5">
     <g id="line2d_21">
      <path d="M 56.549063 105.165375 
L 391.349063 105.165375 
" clip-path="url(#p1d63644ba1)" style="fill: none; stroke-dasharray: 2.96,1.28; stroke-dashoffset: 0; stroke: #b0b0b0; stroke-opacity: 0.7; stroke-width: 0.8"/>
     </g>
     <g id="line2d_22">
      <g>
       <use xlink:href="#m880a84d502" x="56.549063" y="105.165375" style="stroke: #000000; stroke-width: 0.8"/>
      </g>
     </g>
     <g id="text_12">
      <!-- 0.8 -->
      <g transform="translate(24.749375 110.484281) scale(0.14 -0.14)">
       <use xlink:href="#DejaVuSans-Bold-30"/>
       <use xlink:href="#DejaVuSans-Bold-2e" x="69.580078"/>
       <use xlink:href="#DejaVuSans-Bold-38" x="107.568359"/>
      </g>
     </g>
    </g>
    <g id="ytick_6">
     <g id="line2d_23">
      <path d="M 56.549063 41.805375 
L 391.349063 41.805375 
" clip-path="url(#p1d63644ba1)" style="fill: none; stroke-dasharray: 2.96,1.28; stroke-dashoffset: 0; stroke: #b0b0b0; stroke-opacity: 0.7; stroke-width: 0.8"/>
     </g>
     <g id="line2d_24">
      <g>
       <use xlink:href="#m880a84d502" x="56.549063" y="41.805375" style="stroke: #000000; stroke-width: 0.8"/>
      </g>
     </g>
     <g id="text_13">
      <!-- 1.0 -->
      <g transform="translate(24.749375 47.124281) scale(0.14 -0.14)">
       <use xlink:href="#DejaVuSans-Bold-31"/>
       <use xlink:href="#DejaVuSans-Bold-2e" x="69.580078"/>
       <use xlink:href="#DejaVuSans-Bold-30" x="107.568359"/>
      </g>
     </g>
    </g>
    <g id="text_14">
     <!-- Precision -->
     <g transform="translate(17.837813 228.5235) rotate(-90) scale(0.14 -0.14)">
      <defs>
       <path id="DejaVuSans-Bold-50" d="M 588 4666 
L 2584 4666 
Q 3475 4666 3951 4270 
Q 4428 3875 4428 3144 
Q 4428 2409 3951 2014 
Q 3475 1619 2584 1619 
L 1791 1619 
L 1791 0 
L 588 0 
L 588 4666 
z
M 1791 3794 
L 1791 2491 
L 2456 2491 
Q 2806 2491 2997 2661 
Q 3188 2831 3188 3144 
Q 3188 3456 2997 3625 
Q 2806 3794 2456 3794 
L 1791 3794 
z
" transform="scale(0.015625)"/>
       <path id="DejaVuSans-Bold-72" d="M 3138 2547 
Q 2991 2616 2845 2648 
Q 2700 2681 2553 2681 
Q 2122 2681 1889 2404 
Q 1656 2128 1656 1613 
L 1656 0 
L 538 0 
L 538 3500 
L 1656 3500 
L 1656 2925 
Q 1872 3269 2151 3426 
Q 2431 3584 2822 3584 
Q 2878 3584 2943 3579 
Q 3009 3575 3134 3559 
L 3138 2547 
z
" transform="scale(0.015625)"/>
       <path id="DejaVuSans-Bold-69" d="M 538 3500 
L 1656 3500 
L 1656 0 
L 538 0 
L 538 3500 
z
M 538 4863 
L 1656 4863 
L 1656 3950 
L 538 3950 
L 538 4863 
z
" transform="scale(0.015625)"/>
       <path id="DejaVuSans-Bold-73" d="M 3272 3391 
L 3272 2541 
Q 2913 2691 2578 2766 
Q 2244 2841 1947 2841 
Q 1628 2841 1473 2761 
Q 1319 2681 1319 2516 
Q 1319 2381 1436 2309 
Q 1553 2238 1856 2203 
L 2053 2175 
Q 2913 2066 3209 1816 
Q 3506 1566 3506 1031 
Q 3506 472 3093 190 
Q 2681 -91 1863 -91 
Q 1516 -91 1145 -36 
Q 775 19 384 128 
L 384 978 
Q 719 816 1070 734 
Q 1422 653 1784 653 
Q 2113 653 2278 743 
Q 2444 834 2444 1013 
Q 2444 1163 2330 1236 
Q 2216 1309 1875 1350 
L 1678 1375 
Q 931 1469 631 1722 
Q 331 1975 331 2491 
Q 331 3047 712 3315 
Q 1094 3584 1881 3584 
Q 2191 3584 2531 3537 
Q 2872 3491 3272 3391 
z
" transform="scale(0.015625)"/>
       <path id="DejaVuSans-Bold-6f" d="M 2203 2784 
Q 1831 2784 1636 2517 
Q 1441 2250 1441 1747 
Q 1441 1244 1636 976 
Q 1831 709 2203 709 
Q 2569 709 2762 976 
Q 2956 1244 2956 1747 
Q 2956 2250 2762 2517 
Q 2569 2784 2203 2784 
z
M 2203 3584 
Q 3106 3584 3614 3096 
Q 4122 2609 4122 1747 
Q 4122 884 3614 396 
Q 3106 -91 2203 -91 
Q 1297 -91 786 396 
Q 275 884 275 1747 
Q 275 2609 786 3096 
Q 1297 3584 2203 3584 
z
" transform="scale(0.015625)"/>
       <path id="DejaVuSans-Bold-6e" d="M 4056 2131 
L 4056 0 
L 2931 0 
L 2931 347 
L 2931 1631 
Q 2931 2084 2911 2256 
Q 2891 2428 2841 2509 
Q 2775 2619 2662 2680 
Q 2550 2741 2406 2741 
Q 2056 2741 1856 2470 
Q 1656 2200 1656 1722 
L 1656 0 
L 538 0 
L 538 3500 
L 1656 3500 
L 1656 2988 
Q 1909 3294 2193 3439 
Q 2478 3584 2822 3584 
Q 3428 3584 3742 3212 
Q 4056 2841 4056 2131 
z
" transform="scale(0.015625)"/>
      </defs>
      <use xlink:href="#DejaVuSans-Bold-50"/>
      <use xlink:href="#DejaVuSans-Bold-72" x="73.291016"/>
      <use xlink:href="#DejaVuSans-Bold-65" x="122.607422"/>
      <use xlink:href="#DejaVuSans-Bold-63" x="190.429688"/>
      <use xlink:href="#DejaVuSans-Bold-69" x="249.707031"/>
      <use xlink:href="#DejaVuSans-Bold-73" x="283.984375"/>
      <use xlink:href="#DejaVuSans-Bold-69" x="343.505859"/>
      <use xlink:href="#DejaVuSans-Bold-6f" x="377.783203"/>
      <use xlink:href="#DejaVuSans-Bold-6e" x="446.484375"/>
     </g>
    </g>
   </g>
   <g id="line2d_25">
    <path d="M 391.349063 263.565375 
L 391.349063 263.47024 
L 389.117062 263.914904 
L 389.117062 263.819833 
L 389.117062 261.877506 
L 388.001062 262.103221 
L 388.001062 262.004143 
L 388.001062 261.904861 
L 386.885063 262.131301 
L 386.885063 262.031946 
L 386.885063 261.83262 
L 385.769062 262.05992 
L 385.769062 261.96008 
L 385.769062 260.023097 
L 383.537062 260.484445 
L 383.537062 260.380613 
L 383.537062 260.276561 
L 382.421063 260.508238 
L 382.421063 260.404101 
L 382.421063 260.090359 
L 380.189062 260.556282 
L 380.189062 260.451529 
L 380.189062 259.06908 
L 379.073062 259.304724 
L 379.073062 259.196906 
L 379.073062 258.654283 
L 375.725063 259.258007 
L 375.725063 257.144233 
L 373.493063 257.627597 
L 373.493063 257.514139 
L 373.493063 257.400426 
L 372.377063 257.643213 
L 372.377063 257.300968 
L 371.261062 257.544742 
L 371.261062 257.43029 
L 370.145062 257.674763 
L 370.145062 257.33029 
L 369.029063 257.575762 
L 369.029063 256.997128 
L 367.913063 257.243907 
L 367.913063 256.659354 
L 364.565063 257.405375 
L 364.565063 256.220363 
L 362.333062 256.723685 
L 362.333062 256.00112 
L 360.101063 256.508693 
L 360.101063 256.022518 
L 358.985062 256.277842 
L 358.985062 256.155733 
L 357.869062 256.411827 
L 357.869062 256.289586 
L 356.753062 256.546453 
L 356.753062 256.055194 
L 355.637063 256.313327 
L 355.637063 255.317784 
L 354.521063 255.577848 
L 354.521063 254.564047 
L 353.405063 254.826065 
L 353.405063 254.18307 
L 352.289062 254.446566 
L 352.289062 253.927071 
L 348.941062 254.723523 
L 348.941062 254.200847 
L 347.825063 254.468347 
L 347.825063 253.140069 
L 346.709063 253.409973 
L 346.709063 253.275452 
L 345.593062 253.54622 
L 345.593062 253.276492 
L 344.477062 253.548306 
L 344.477062 253.413097 
L 343.361063 253.685787 
L 343.361063 252.868232 
L 340.013062 253.693771 
L 340.013062 253.419493 
L 338.897063 253.696474 
L 338.897063 253.558979 
L 337.781062 253.836871 
L 337.781062 253.284003 
L 336.665062 253.563367 
L 336.665062 253.145428 
L 335.549062 253.426092 
L 335.549062 250.703468 
L 334.433063 250.988458 
L 334.433063 250.694021 
L 333.317063 250.98017 
L 333.317063 250.088248 
L 332.201063 250.376329 
L 332.201063 249.925375 
L 331.085062 250.214833 
L 331.085062 248.375106 
L 329.969063 248.667698 
L 329.969063 248.511758 
L 327.737063 249.099827 
L 327.737063 248.315404 
L 326.621062 248.611688 
L 326.621062 248.453651 
L 325.505063 248.750987 
L 325.505063 248.274739 
L 324.389063 248.573537 
L 324.389063 247.284731 
L 323.273062 247.58602 
L 323.273062 247.422996 
L 322.157062 247.725375 
L 322.157062 246.904042 
L 321.041063 247.208342 
L 321.041063 246.20777 
L 319.925062 246.514221 
L 319.925062 246.345916 
L 318.809062 246.653495 
L 318.809062 245.976026 
L 317.693062 246.285375 
L 317.693062 246.114935 
L 315.461062 246.736882 
L 315.461062 246.566351 
L 313.229062 247.192531 
L 313.229062 246.850774 
L 312.113063 247.165744 
L 312.113063 244.53745 
L 310.997063 244.856714 
L 310.997063 244.677299 
L 309.881063 244.997792 
L 309.881063 244.093273 
L 308.765062 244.415901 
L 308.765062 243.866913 
L 307.649063 244.19125 
L 307.649063 243.637633 
L 305.417062 244.290812 
L 305.417062 242.791605 
L 304.301063 243.121631 
L 304.301063 242.549929 
L 302.069062 243.214647 
L 302.069062 242.445375 
L 299.837063 243.116412 
L 299.837063 242.922963 
L 298.721063 243.260409 
L 298.721063 241.889586 
L 297.605063 242.229865 
L 297.605063 240.82775 
L 296.489062 241.170892 
L 296.489062 239.110638 
L 295.373063 239.457396 
L 295.373063 239.247629 
L 294.257063 239.595851 
L 294.257063 239.385587 
L 293.141063 239.735287 
L 293.141063 238.4594 
L 292.025063 238.811827 
L 292.025063 238.380915 
L 289.793063 239.090574 
L 289.793063 238.002096 
L 288.677063 238.36012 
L 288.677063 236.804266 
L 287.561062 237.165375 
L 287.561062 236.713925 
L 283.097062 238.173914 
L 283.097062 237.947964 
L 281.981063 238.316653 
L 281.981063 236.944538 
L 280.865063 237.316232 
L 280.865063 237.084764 
L 279.749062 237.458147 
L 279.749062 236.993091 
L 277.517063 237.745259 
L 277.517063 237.511939 
L 276.401063 237.890481 
L 276.401063 235.993194 
L 275.285062 236.375454 
L 275.285062 235.892332 
L 274.169062 236.276662 
L 274.169062 234.557182 
L 271.937063 235.334407 
L 271.937063 232.278102 
L 270.821063 232.672456 
L 270.821063 231.088394 
L 269.705063 231.486047 
L 269.705063 231.218428 
L 268.589063 231.618033 
L 268.589063 230.809197 
L 267.473063 231.211332 
L 267.473063 230.666913 
L 266.357063 231.071328 
L 266.357063 230.79765 
L 265.241062 231.204085 
L 265.241062 230.09865 
L 264.125063 230.507984 
L 264.125063 229.948606 
L 263.009063 230.360298 
L 263.009063 229.796584 
L 261.893062 230.210661 
L 261.893062 229.642543 
L 260.777062 230.059034 
L 260.777062 228.908731 
L 259.661063 229.328245 
L 259.661063 225.446945 
L 257.429062 226.29911 
L 257.429062 225.991422 
L 255.197063 226.852104 
L 255.197063 225.294737 
L 254.081062 225.729546 
L 254.081062 225.413926 
L 252.965062 225.851089 
L 252.965062 224.574606 
L 246.269063 227.249277 
L 246.269063 226.281051 
L 244.037063 227.192042 
L 244.037063 226.866761 
L 241.805063 227.787465 
L 241.805063 227.461235 
L 239.573062 228.391841 
L 239.573062 227.405375 
L 237.341063 228.347507 
L 237.341063 227.348086 
L 236.225062 227.823837 
L 236.225062 227.487637 
L 232.877063 228.930764 
L 232.877063 228.593946 
L 231.761062 229.080375 
L 231.761062 228.402234 
L 230.645062 228.891989 
L 230.645062 228.207486 
L 229.529063 228.700613 
L 229.529063 228.356038 
L 228.413063 228.852184 
L 228.413063 228.158316 
L 227.297063 228.657922 
L 227.297063 228.308601 
L 226.181063 228.811305 
L 226.181063 228.107814 
L 225.065063 228.614071 
L 225.065063 227.903736 
L 223.949063 228.413594 
L 223.949063 228.055924 
L 222.833062 228.569011 
L 222.833062 228.209795 
L 221.717062 228.726151 
L 221.717062 227.637777 
L 219.485063 228.681779 
L 219.485063 227.577613 
L 217.253062 228.636144 
L 217.253062 228.264804 
L 216.137063 228.799071 
L 216.137063 227.673583 
L 215.021063 228.212332 
L 215.021063 227.068533 
L 213.905062 227.611827 
L 213.905062 226.839003 
L 212.789062 227.38644 
L 212.789062 225.814956 
L 210.557063 226.923447 
L 210.557063 226.525617 
L 209.441062 227.085375 
L 209.441062 225.878769 
L 208.325063 226.443412 
L 208.325063 224.801648 
L 207.209063 225.37173 
L 207.209063 223.263603 
L 204.977063 224.419388 
L 204.977063 223.990679 
L 202.745063 225.162288 
L 202.745063 224.298579 
L 201.629063 224.891089 
L 201.629063 224.455538 
L 200.513062 225.052434 
L 200.513062 223.730127 
L 199.397063 224.332527 
L 199.397063 222.985308 
L 198.281063 223.593294 
L 198.281063 221.289334 
L 194.933063 223.146065 
L 194.933063 218.308232 
L 193.817063 218.940859 
L 193.817063 217.932451 
L 192.701063 218.570592 
L 192.701063 217.031749 
L 189.353063 218.978708 
L 189.353063 218.45965 
L 188.237062 219.118808 
L 188.237062 218.596386 
L 186.005063 219.930658 
L 186.005063 219.405375 
L 184.889063 220.08066 
L 184.889063 218.482298 
L 183.773063 219.164448 
L 183.773063 216.419548 
L 182.657062 217.109723 
L 182.657062 211.890621 
L 181.541063 212.59056 
L 181.541063 211.378819 
L 180.425063 212.085375 
L 180.425063 211.472321 
L 178.193062 212.904109 
L 178.193062 211.664098 
L 175.961063 213.122113 
L 175.961063 211.862518 
L 174.845063 212.601897 
L 174.845063 211.321164 
L 172.613063 212.821304 
L 172.613063 212.173375 
L 171.497063 212.933946 
L 171.497063 212.280711 
L 170.381063 213.048618 
L 170.381063 212.38999 
L 168.149063 213.947841 
L 168.149063 212.614592 
L 163.685063 215.822276 
L 163.685063 213.089586 
L 161.453063 214.744505 
L 161.453063 211.183593 
L 160.337063 212.026271 
L 160.337063 211.293375 
L 158.105063 213.005375 
L 158.105063 212.266289 
L 155.873063 214.014606 
L 155.873063 213.269293 
L 154.757063 214.157707 
L 154.757063 211.100613 
L 152.525063 212.911257 
L 152.525063 212.127956 
L 150.293063 213.979288 
L 150.293063 213.188982 
L 149.177063 214.13065 
L 149.177063 212.525375 
L 148.061062 213.479118 
L 148.061062 211.005375 
L 146.945063 211.972232 
L 146.945063 207.659493 
L 144.713063 209.633946 
L 144.713063 208.741902 
L 142.481063 210.765375 
L 142.481063 209.863912 
L 141.365063 210.894946 
L 141.365063 206.220565 
L 136.901063 210.491089 
L 136.901063 205.520811 
L 135.785063 206.626997 
L 135.785063 202.405375 
L 133.553063 204.667347 
L 133.553063 196.685375 
L 131.321063 199.014398 
L 131.321063 196.577894 
L 130.205062 197.768452 
L 130.205062 196.521654 
L 129.089063 197.730375 
L 129.089063 196.463643 
L 127.973063 197.691089 
L 127.973063 196.403775 
L 123.509063 201.514466 
L 123.509063 197.520629 
L 120.161063 201.582766 
L 120.161063 194.445375 
L 119.045063 195.845742 
L 119.045063 192.803506 
L 116.813063 195.679661 
L 116.813063 194.113067 
L 114.581063 197.099493 
L 114.581063 193.869375 
L 113.465063 195.405375 
L 113.465063 193.740069 
L 112.349063 195.306406 
L 112.349063 191.868533 
L 111.233063 193.464949 
L 111.233063 191.689246 
L 110.117063 193.318418 
L 110.117063 189.645375 
L 107.885063 193.005375 
L 107.885063 187.160669 
L 104.537063 192.478546 
L 103.421063 194.338708 
L 103.421063 190.180059 
L 102.305063 192.082298 
L 102.305063 178.205375 
L 100.073063 182.102518 
L 100.073063 168.525375 
L 96.725063 174.656988 
L 95.609063 176.834883 
L 95.609063 173.805375 
L 92.261063 180.752743 
L 91.145063 183.233946 
L 91.145063 180.045375 
L 90.029063 182.605375 
L 90.029063 179.28462 
L 88.913062 181.928452 
L 88.913062 174.861375 
L 86.681063 180.405375 
L 84.449062 186.431462 
L 84.449062 182.605375 
L 82.217062 189.154212 
L 82.217062 171.774606 
L 79.985063 178.79997 
L 78.869063 182.605375 
L 78.869063 177.576804 
L 77.753063 181.570081 
L 77.753063 164.437633 
L 75.521062 172.89503 
L 73.289062 182.605375 
L 72.173063 188.02076 
L 72.173063 173.805375 
L 71.057063 179.544505 
L 71.057063 162.491089 
L 69.941063 168.525375 
L 68.825063 175.194849 
L 68.825063 165.005375 
L 67.709063 172.252434 
L 67.709063 147.405375 
L 66.593063 154.948232 
L 65.477063 163.651529 
L 64.361063 173.805375 
L 64.361063 157.005375 
L 63.245063 168.525375 
L 63.245063 147.405375 
L 62.129063 160.605375 
L 61.013063 177.576804 
L 61.013063 147.405375 
L 59.897063 168.525375 
L 58.781063 200.205375 
L 57.665063 253.005375 
L 56.549063 358.605375 
L 56.549063 41.805375 
L 56.549063 41.805375 
" clip-path="url(#p1d63644ba1)" style="fill: none; stroke: #0000ff; stroke-width: 2.5; stroke-linecap: square"/>
   </g>
   <g id="line2d_26">
    <path d="M 391.349063 263.565375 
L 391.349063 256.849486 
L 390.233063 257.079973 
L 390.233063 256.97104 
L 390.233063 249.098785 
L 389.117062 249.338708 
L 389.117062 238.800299 
L 388.001062 239.05061 
L 388.001062 227.561364 
L 386.885063 227.820438 
L 386.885063 227.454606 
L 385.769062 227.714619 
L 385.769062 226.418671 
L 384.653062 226.680163 
L 384.653062 225.739184 
L 383.537062 226.001946 
L 383.537062 224.27484 
L 382.421063 224.539288 
L 382.421063 224.149561 
L 381.305063 224.414982 
L 381.305063 223.629094 
L 380.189062 223.895698 
L 380.189062 221.891089 
L 379.073062 222.159473 
L 379.073062 221.955823 
L 377.957063 222.225106 
L 377.957063 221.61078 
L 376.841063 221.881164 
L 376.841063 221.053786 
L 375.725063 221.325375 
L 375.725063 218.132817 
L 373.493063 218.681269 
L 373.493063 213.490536 
L 372.377063 213.767895 
L 372.377063 210.660821 
L 371.261062 210.93992 
L 371.261062 206.411849 
L 370.145062 206.692747 
L 370.145062 205.911035 
L 367.913063 206.475943 
L 367.913063 205.155375 
L 366.797062 205.439462 
L 366.797062 204.904851 
L 365.681062 205.18999 
L 365.681062 203.837121 
L 364.565063 204.123396 
L 364.565063 198.464716 
L 363.449062 198.752164 
L 363.449062 198.458316 
L 361.217062 199.036371 
L 361.217062 198.445375 
L 360.101063 198.735987 
L 360.101063 194.472804 
L 358.985062 194.764154 
L 358.985062 192.866379 
L 356.753062 193.451887 
L 356.753062 192.486077 
L 355.637063 192.780375 
L 355.637063 190.481811 
L 354.521063 190.776804 
L 354.521063 190.108164 
L 353.405063 190.404177 
L 353.405063 188.365375 
L 352.289062 188.662055 
L 352.289062 186.924393 
L 351.173063 187.221768 
L 351.173063 185.088363 
L 350.057063 185.386248 
L 350.057063 179.42602 
L 347.825063 180.020494 
L 347.825063 178.464199 
L 346.709063 178.76258 
L 346.709063 177.178062 
L 345.593062 177.476898 
L 345.593062 176.269375 
L 344.477062 176.568849 
L 344.477062 175.754368 
L 343.361063 176.054702 
L 343.361063 173.143872 
L 342.245063 173.443731 
L 342.245063 170.872042 
L 341.129062 171.1715 
L 341.129062 169.857711 
L 340.013062 170.1576 
L 340.013062 164.240158 
L 338.897063 164.53661 
L 338.897063 163.592236 
L 337.781062 163.889277 
L 337.781062 163.413199 
L 336.665062 163.711257 
L 336.665062 163.232402 
L 335.549062 163.531483 
L 335.549062 162.07932 
L 334.433063 162.378509 
L 334.433063 161.889166 
L 333.317063 162.189375 
L 333.317063 160.705123 
L 332.201063 161.005375 
L 332.201063 160.505122 
L 329.969063 161.109192 
L 329.969063 158.564138 
L 328.853063 158.86584 
L 328.853063 158.34838 
L 326.621062 158.955375 
L 326.621062 158.434096 
L 325.505063 158.739406 
L 325.505063 156.624423 
L 324.389063 156.928982 
L 324.389063 156.392609 
L 321.041063 157.314222 
L 321.041063 156.773117 
L 319.925062 157.083003 
L 319.925062 154.329965 
L 318.809062 154.638252 
L 318.809062 153.514466 
L 317.693062 153.823055 
L 317.693062 152.685375 
L 315.461062 153.304816 
L 315.461062 146.184566 
L 313.229062 146.791422 
L 313.229062 144.299493 
L 312.113063 144.601835 
L 312.113063 143.331784 
L 310.997063 143.633946 
L 310.997063 142.346692 
L 309.881063 142.648618 
L 309.881063 141.998146 
L 305.417062 143.220009 
L 305.417062 142.561338 
L 303.185063 143.181375 
L 303.185063 138.439337 
L 302.069062 138.744176 
L 302.069062 135.934448 
L 300.953062 136.236144 
L 300.953062 135.521131 
L 299.837063 135.82344 
L 299.837063 133.646417 
L 298.721063 133.946551 
L 298.721063 129.453375 
L 297.605063 129.746512 
L 297.605063 128.205375 
L 296.489062 128.497267 
L 296.489062 126.141211 
L 295.373063 126.430033 
L 295.373063 125.632179 
L 290.909063 126.800497 
L 290.909063 125.98999 
L 289.793063 126.285375 
L 289.793063 122.978329 
L 288.677063 123.268232 
L 288.677063 121.575159 
L 287.561062 121.863137 
L 287.561062 119.271068 
L 286.445063 119.554826 
L 286.445063 114.182903 
L 284.213063 114.729149 
L 284.213063 109.079506 
L 281.981063 109.60304 
L 281.981063 108.630375 
L 280.865063 108.892434 
L 280.865063 107.909312 
L 279.749062 108.170592 
L 279.749062 106.175096 
L 278.633062 106.432575 
L 278.633062 105.419833 
L 276.401063 105.93493 
L 276.401063 103.872314 
L 273.053063 104.641739 
L 273.053063 101.453911 
L 271.937063 101.704535 
L 271.937063 100.620565 
L 270.821063 100.869782 
L 270.821063 99.773035 
L 269.705063 100.02076 
L 269.705063 97.791582 
L 265.241062 98.773796 
L 265.241062 95.309375 
L 264.125063 95.548232 
L 264.125063 94.368604 
L 263.009063 94.605375 
L 263.009063 90.988937 
L 255.197063 92.612922 
L 255.197063 88.794849 
L 254.081062 89.02076 
L 254.081062 86.403433 
L 251.849063 86.840669 
L 251.849063 84.149929 
L 250.733063 84.360599 
L 250.733063 80.205375 
L 245.153063 81.200194 
L 245.153063 78.295427 
L 244.037063 78.48748 
L 244.037063 73.99361 
L 240.689063 74.518418 
L 240.689063 71.396584 
L 239.573062 71.560071 
L 239.573062 69.965375 
L 237.341063 70.281779 
L 237.341063 67.005375 
L 228.413063 68.205375 
L 228.413063 66.466453 
L 225.065063 66.91757 
L 225.065063 63.316486 
L 216.137063 64.433946 
L 216.137063 62.511257 
L 211.673063 63.06712 
L 211.673063 61.07024 
L 204.977063 61.884248 
L 204.977063 59.779843 
L 196.049062 60.861014 
L 196.049062 58.605375 
L 191.585062 59.130375 
L 191.585062 56.772304 
L 180.425063 58.051529 
L 180.425063 55.460547 
L 173.729062 56.205375 
L 173.729062 53.431063 
L 162.569063 54.605375 
L 158.105063 55.144322 
L 158.105063 51.916013 
L 155.873063 52.13581 
L 155.873063 48.768012 
L 146.945063 49.43911 
L 146.945063 45.66879 
L 144.713063 45.765375 
L 144.713063 41.805375 
L 56.549063 41.805375 
L 56.549063 41.805375 
" clip-path="url(#p1d63644ba1)" style="fill: none; stroke: #ff0000; stroke-width: 2.5; stroke-linecap: square"/>
   </g>
   <g id="patch_3">
    <path d="M 56.549063 358.605375 
L 56.549063 25.965375 
" style="fill: none; stroke: #000000; stroke-width: 0.8; stroke-linejoin: miter; stroke-linecap: square"/>
   </g>
   <g id="patch_4">
    <path d="M 391.349063 358.605375 
L 391.349063 25.965375 
" style="fill: none; stroke: #000000; stroke-width: 0.8; stroke-linejoin: miter; stroke-linecap: square"/>
   </g>
   <g id="patch_5">
    <path d="M 56.549063 358.605375 
L 391.349063 358.605375 
" style="fill: none; stroke: #000000; stroke-width: 0.8; stroke-linejoin: miter; stroke-linecap: square"/>
   </g>
   <g id="patch_6">
    <path d="M 56.549063 25.965375 
L 391.349063 25.965375 
" style="fill: none; stroke: #000000; stroke-width: 0.8; stroke-linejoin: miter; stroke-linecap: square"/>
   </g>
   <g id="text_15">
    <!-- Ukrainian Data: Precision-Recall -->
    <g transform="translate(71.265938 19.965375) scale(0.168 -0.168)">
     <defs>
      <path id="DejaVuSans-Bold-55" d="M 588 4666 
L 1791 4666 
L 1791 1869 
Q 1791 1291 1980 1042 
Q 2169 794 2597 794 
Q 3028 794 3217 1042 
Q 3406 1291 3406 1869 
L 3406 4666 
L 4609 4666 
L 4609 1869 
Q 4609 878 4112 393 
Q 3616 -91 2597 -91 
Q 1581 -91 1084 393 
Q 588 878 588 1869 
L 588 4666 
z
" transform="scale(0.015625)"/>
      <path id="DejaVuSans-Bold-6b" d="M 538 4863 
L 1656 4863 
L 1656 2216 
L 2944 3500 
L 4244 3500 
L 2534 1894 
L 4378 0 
L 3022 0 
L 1656 1459 
L 1656 0 
L 538 0 
L 538 4863 
z
" transform="scale(0.015625)"/>
      <path id="DejaVuSans-Bold-20" transform="scale(0.015625)"/>
      <path id="DejaVuSans-Bold-44" d="M 1791 3756 
L 1791 909 
L 2222 909 
Q 2959 909 3348 1275 
Q 3738 1641 3738 2338 
Q 3738 3031 3350 3393 
Q 2963 3756 2222 3756 
L 1791 3756 
z
M 588 4666 
L 1856 4666 
Q 2919 4666 3439 4514 
Q 3959 4363 4331 4000 
Q 4659 3684 4818 3271 
Q 4978 2859 4978 2338 
Q 4978 1809 4818 1395 
Q 4659 981 4331 666 
Q 3956 303 3431 151 
Q 2906 0 1856 0 
L 588 0 
L 588 4666 
z
" transform="scale(0.015625)"/>
      <path id="DejaVuSans-Bold-74" d="M 1759 4494 
L 1759 3500 
L 2913 3500 
L 2913 2700 
L 1759 2700 
L 1759 1216 
Q 1759 972 1856 886 
Q 1953 800 2241 800 
L 2816 800 
L 2816 0 
L 1856 0 
Q 1194 0 917 276 
Q 641 553 641 1216 
L 641 2700 
L 84 2700 
L 84 3500 
L 641 3500 
L 641 4494 
L 1759 4494 
z
" transform="scale(0.015625)"/>
      <path id="DejaVuSans-Bold-3a" d="M 716 3500 
L 1844 3500 
L 1844 2291 
L 716 2291 
L 716 3500 
z
M 716 1209 
L 1844 1209 
L 1844 0 
L 716 0 
L 716 1209 
z
" transform="scale(0.015625)"/>
      <path id="DejaVuSans-Bold-2d" d="M 347 2297 
L 2309 2297 
L 2309 1388 
L 347 1388 
L 347 2297 
z
" transform="scale(0.015625)"/>
     </defs>
     <use xlink:href="#DejaVuSans-Bold-55"/>
     <use xlink:href="#DejaVuSans-Bold-6b" x="81.201172"/>
     <use xlink:href="#DejaVuSans-Bold-72" x="147.705078"/>
     <use xlink:href="#DejaVuSans-Bold-61" x="197.021484"/>
     <use xlink:href="#DejaVuSans-Bold-69" x="264.501953"/>
     <use xlink:href="#DejaVuSans-Bold-6e" x="298.779297"/>
     <use xlink:href="#DejaVuSans-Bold-69" x="369.970703"/>
     <use xlink:href="#DejaVuSans-Bold-61" x="404.248047"/>
     <use xlink:href="#DejaVuSans-Bold-6e" x="471.728516"/>
     <use xlink:href="#DejaVuSans-Bold-20" x="542.919922"/>
     <use xlink:href="#DejaVuSans-Bold-44" x="577.734375"/>
     <use xlink:href="#DejaVuSans-Bold-61" x="660.742188"/>
     <use xlink:href="#DejaVuSans-Bold-74" x="728.222656"/>
     <use xlink:href="#DejaVuSans-Bold-61" x="776.025391"/>
     <use xlink:href="#DejaVuSans-Bold-3a" x="843.505859"/>
     <use xlink:href="#DejaVuSans-Bold-20" x="883.496094"/>
     <use xlink:href="#DejaVuSans-Bold-50" x="918.310547"/>
     <use xlink:href="#DejaVuSans-Bold-72" x="991.601562"/>
     <use xlink:href="#DejaVuSans-Bold-65" x="1040.917969"/>
     <use xlink:href="#DejaVuSans-Bold-63" x="1108.740234"/>
     <use xlink:href="#DejaVuSans-Bold-69" x="1168.017578"/>
     <use xlink:href="#DejaVuSans-Bold-73" x="1202.294922"/>
     <use xlink:href="#DejaVuSans-Bold-69" x="1261.816406"/>
     <use xlink:href="#DejaVuSans-Bold-6f" x="1296.09375"/>
     <use xlink:href="#DejaVuSans-Bold-6e" x="1364.794922"/>
     <use xlink:href="#DejaVuSans-Bold-2d" x="1435.986328"/>
     <use xlink:href="#DejaVuSans-Bold-52" x="1477.490234"/>
     <use xlink:href="#DejaVuSans-Bold-65" x="1554.492188"/>
     <use xlink:href="#DejaVuSans-Bold-63" x="1622.314453"/>
     <use xlink:href="#DejaVuSans-Bold-61" x="1681.591797"/>
     <use xlink:href="#DejaVuSans-Bold-6c" x="1749.072266"/>
     <use xlink:href="#DejaVuSans-Bold-6c" x="1783.349609"/>
    </g>
   </g>
   <g id="legend_1">
    <g id="patch_7">
     <path d="M 66.349063 351.605375 
L 246.835312 351.605375 
Q 249.635312 351.605375 249.635312 348.805375 
L 249.635312 290.492875 
Q 249.635312 287.692875 246.835312 287.692875 
L 66.349063 287.692875 
Q 63.549062 287.692875 63.549062 290.492875 
L 63.549062 348.805375 
Q 63.549062 351.605375 66.349063 351.605375 
z
" style="fill: #ffffff; opacity: 0.8; stroke: #cccccc; stroke-linejoin: miter"/>
    </g>
    <g id="text_16">
     <!-- Method -->
     <g transform="translate(130.995625 302.411) scale(0.12 -0.12)">
      <defs>
       <path id="DejaVuSans-Bold-4d" d="M 588 4666 
L 2119 4666 
L 3181 2169 
L 4250 4666 
L 5778 4666 
L 5778 0 
L 4641 0 
L 4641 3413 
L 3566 897 
L 2803 897 
L 1728 3413 
L 1728 0 
L 588 0 
L 588 4666 
z
" transform="scale(0.015625)"/>
       <path id="DejaVuSans-Bold-68" d="M 4056 2131 
L 4056 0 
L 2931 0 
L 2931 347 
L 2931 1625 
Q 2931 2084 2911 2256 
Q 2891 2428 2841 2509 
Q 2775 2619 2662 2680 
Q 2550 2741 2406 2741 
Q 2056 2741 1856 2470 
Q 1656 2200 1656 1722 
L 1656 0 
L 538 0 
L 538 4863 
L 1656 4863 
L 1656 2988 
Q 1909 3294 2193 3439 
Q 2478 3584 2822 3584 
Q 3428 3584 3742 3212 
Q 4056 2841 4056 2131 
z
" transform="scale(0.015625)"/>
       <path id="DejaVuSans-Bold-64" d="M 2919 2988 
L 2919 4863 
L 4044 4863 
L 4044 0 
L 2919 0 
L 2919 506 
Q 2688 197 2409 53 
Q 2131 -91 1766 -91 
Q 1119 -91 703 423 
Q 288 938 288 1747 
Q 288 2556 703 3070 
Q 1119 3584 1766 3584 
Q 2128 3584 2408 3439 
Q 2688 3294 2919 2988 
z
M 2181 722 
Q 2541 722 2730 984 
Q 2919 1247 2919 1747 
Q 2919 2247 2730 2509 
Q 2541 2772 2181 2772 
Q 1825 2772 1636 2509 
Q 1447 2247 1447 1747 
Q 1447 1247 1636 984 
Q 1825 722 2181 722 
z
" transform="scale(0.015625)"/>
      </defs>
      <use xlink:href="#DejaVuSans-Bold-4d"/>
      <use xlink:href="#DejaVuSans-Bold-65" x="99.511719"/>
      <use xlink:href="#DejaVuSans-Bold-74" x="167.333984"/>
      <use xlink:href="#DejaVuSans-Bold-68" x="215.136719"/>
      <use xlink:href="#DejaVuSans-Bold-6f" x="286.328125"/>
      <use xlink:href="#DejaVuSans-Bold-64" x="355.029297"/>
     </g>
    </g>
    <g id="line2d_27">
     <path d="M 69.149062 317.644438 
L 83.149062 317.644438 
L 97.149062 317.644438 
" style="fill: none; stroke: #0000ff; stroke-width: 2.5; stroke-linecap: square"/>
    </g>
    <g id="text_17">
     <!-- BERT Baseline -->
     <g transform="translate(108.349063 322.544438) scale(0.14 -0.14)">
      <defs>
       <path id="DejaVuSans-Bold-42" d="M 2456 2859 
Q 2741 2859 2887 2984 
Q 3034 3109 3034 3353 
Q 3034 3594 2887 3720 
Q 2741 3847 2456 3847 
L 1791 3847 
L 1791 2859 
L 2456 2859 
z
M 2497 819 
Q 2859 819 3042 972 
Q 3225 1125 3225 1434 
Q 3225 1738 3044 1889 
Q 2863 2041 2497 2041 
L 1791 2041 
L 1791 819 
L 2497 819 
z
M 3616 2497 
Q 4003 2384 4215 2081 
Q 4428 1778 4428 1338 
Q 4428 663 3972 331 
Q 3516 0 2584 0 
L 588 0 
L 588 4666 
L 2394 4666 
Q 3366 4666 3802 4372 
Q 4238 4078 4238 3431 
Q 4238 3091 4078 2852 
Q 3919 2613 3616 2497 
z
" transform="scale(0.015625)"/>
       <path id="DejaVuSans-Bold-45" d="M 588 4666 
L 3834 4666 
L 3834 3756 
L 1791 3756 
L 1791 2888 
L 3713 2888 
L 3713 1978 
L 1791 1978 
L 1791 909 
L 3903 909 
L 3903 0 
L 588 0 
L 588 4666 
z
" transform="scale(0.015625)"/>
       <path id="DejaVuSans-Bold-54" d="M 31 4666 
L 4331 4666 
L 4331 3756 
L 2784 3756 
L 2784 0 
L 1581 0 
L 1581 3756 
L 31 3756 
L 31 4666 
z
" transform="scale(0.015625)"/>
      </defs>
      <use xlink:href="#DejaVuSans-Bold-42"/>
      <use xlink:href="#DejaVuSans-Bold-45" x="76.220703"/>
      <use xlink:href="#DejaVuSans-Bold-52" x="144.53125"/>
      <use xlink:href="#DejaVuSans-Bold-54" x="217.033203"/>
      <use xlink:href="#DejaVuSans-Bold-20" x="285.246094"/>
      <use xlink:href="#DejaVuSans-Bold-42" x="320.060547"/>
      <use xlink:href="#DejaVuSans-Bold-61" x="396.28125"/>
      <use xlink:href="#DejaVuSans-Bold-73" x="463.761719"/>
      <use xlink:href="#DejaVuSans-Bold-65" x="523.283203"/>
      <use xlink:href="#DejaVuSans-Bold-6c" x="591.105469"/>
      <use xlink:href="#DejaVuSans-Bold-69" x="625.382812"/>
      <use xlink:href="#DejaVuSans-Bold-6e" x="659.660156"/>
      <use xlink:href="#DejaVuSans-Bold-65" x="730.851562"/>
     </g>
    </g>
    <g id="line2d_28">
     <path d="M 69.149062 338.193813 
L 83.149062 338.193813 
L 97.149062 338.193813 
" style="fill: none; stroke: #ff0000; stroke-width: 2.5; stroke-linecap: square"/>
    </g>
    <g id="text_18">
     <!-- BERT + Proposed -->
     <g transform="translate(108.349063 343.093813) scale(0.14 -0.14)">
      <defs>
       <path id="DejaVuSans-Bold-2b" d="M 3053 4013 
L 3053 2375 
L 4684 2375 
L 4684 1638 
L 3053 1638 
L 3053 0 
L 2309 0 
L 2309 1638 
L 678 1638 
L 678 2375 
L 2309 2375 
L 2309 4013 
L 3053 4013 
z
" transform="scale(0.015625)"/>
       <path id="DejaVuSans-Bold-70" d="M 1656 506 
L 1656 -1331 
L 538 -1331 
L 538 3500 
L 1656 3500 
L 1656 2988 
Q 1888 3294 2169 3439 
Q 2450 3584 2816 3584 
Q 3463 3584 3878 3070 
Q 4294 2556 4294 1747 
Q 4294 938 3878 423 
Q 3463 -91 2816 -91 
Q 2450 -91 2169 54 
Q 1888 200 1656 506 
z
M 2400 2772 
Q 2041 2772 1848 2508 
Q 1656 2244 1656 1747 
Q 1656 1250 1848 986 
Q 2041 722 2400 722 
Q 2759 722 2948 984 
Q 3138 1247 3138 1747 
Q 3138 2247 2948 2509 
Q 2759 2772 2400 2772 
z
" transform="scale(0.015625)"/>
      </defs>
      <use xlink:href="#DejaVuSans-Bold-42"/>
      <use xlink:href="#DejaVuSans-Bold-45" x="76.220703"/>
      <use xlink:href="#DejaVuSans-Bold-52" x="144.53125"/>
      <use xlink:href="#DejaVuSans-Bold-54" x="217.033203"/>
      <use xlink:href="#DejaVuSans-Bold-20" x="285.246094"/>
      <use xlink:href="#DejaVuSans-Bold-2b" x="320.060547"/>
      <use xlink:href="#DejaVuSans-Bold-20" x="403.849609"/>
      <use xlink:href="#DejaVuSans-Bold-50" x="438.664062"/>
      <use xlink:href="#DejaVuSans-Bold-72" x="511.955078"/>
      <use xlink:href="#DejaVuSans-Bold-6f" x="561.271484"/>
      <use xlink:href="#DejaVuSans-Bold-70" x="629.972656"/>
      <use xlink:href="#DejaVuSans-Bold-6f" x="701.554688"/>
      <use xlink:href="#DejaVuSans-Bold-73" x="770.255859"/>
      <use xlink:href="#DejaVuSans-Bold-65" x="829.777344"/>
      <use xlink:href="#DejaVuSans-Bold-64" x="897.599609"/>
     </g>
    </g>
   </g>
  </g>
 </g>
 <defs>
  <clipPath id="p1d63644ba1">
   <rect x="56.549063" y="25.965375" width="334.8" height="332.64"/>
  </clipPath>
 </defs>
</svg>
