<?xml version="1.0" encoding="utf-8" standalone="no"?>
<!DOCTYPE svg PUBLIC "-//W3C//DTD SVG 1.1//EN"
  "http://www.w3.org/Graphics/SVG/1.1/DTD/svg11.dtd">
<svg xmlns:xlink="http://www.w3.org/1999/xlink" width="410.948906pt" height="403.904125pt" viewBox="0 0 410.948906 403.904125" xmlns="http://www.w3.org/2000/svg" version="1.1">
 <metadata>
  <rdf:RDF xmlns:dc="http://purl.org/dc/elements/1.1/" xmlns:cc="http://creativecommons.org/ns#" xmlns:rdf="http://www.w3.org/1999/02/22-rdf-syntax-ns#">
   <cc:Work>
    <dc:type rdf:resource="http://purl.org/dc/dcmitype/StillImage"/>
    <dc:date>2025-05-18T17:11:24.689901</dc:date>
    <dc:format>image/svg+xml</dc:format>
    <dc:creator>
     <cc:Agent>
      <dc:title>Matplotlib v3.7.2, https://matplotlib.org/</dc:title>
     </cc:Agent>
    </dc:creator>
   </cc:Work>
  </rdf:RDF>
 </metadata>
 <defs>
  <style type="text/css">*{stroke-linejoin: round; stroke-linecap: butt}</style>
 </defs>
 <g id="figure_1">
  <g id="patch_1">
   <path d="M 0 403.904125 
L 410.948906 403.904125 
L 410.948906 0 
L 0 0 
z
" style="fill: #ffffff"/>
  </g>
  <g id="axes_1">
   <g id="patch_2">
    <path d="M 56.549063 358.605375 
L 391.349063 358.605375 
L 391.349063 25.965375 
L 56.549063 25.965375 
z
" style="fill: #ffffff"/>
   </g>
   <g id="matplotlib.axis_1">
    <g id="xtick_1">
     <g id="line2d_1">
      <path d="M 56.549063 358.605375 
L 56.549063 25.965375 
" clip-path="url(#pcc285f6174)" style="fill: none; stroke-dasharray: 2.96,1.28; stroke-dashoffset: 0; stroke: #b0b0b0; stroke-opacity: 0.7; stroke-width: 0.8"/>
     </g>
     <g id="line2d_2">
      <defs>
       <path id="m1d643a19e4" d="M 0 0 
L 0 3.5 
" style="stroke: #000000; stroke-width: 0.8"/>
      </defs>
      <g>
       <use xlink:href="#m1d643a19e4" x="56.549063" y="358.605375" style="stroke: #000000; stroke-width: 0.8"/>
      </g>
     </g>
     <g id="text_1">
      <!-- 0.0 -->
      <g transform="translate(44.149219 376.243188) scale(0.14 -0.14)">
       <defs>
        <path id="DejaVuSans-Bold-30" d="M 2944 2338 
Q 2944 3213 2780 3570 
Q 2616 3928 2228 3928 
Q 1841 3928 1675 3570 
Q 1509 3213 1509 2338 
Q 1509 1453 1675 1090 
Q 1841 728 2228 728 
Q 2613 728 2778 1090 
Q 2944 1453 2944 2338 
z
M 4147 2328 
Q 4147 1169 3647 539 
Q 3147 -91 2228 -91 
Q 1306 -91 806 539 
Q 306 1169 306 2328 
Q 306 3491 806 4120 
Q 1306 4750 2228 4750 
Q 3147 4750 3647 4120 
Q 4147 3491 4147 2328 
z
" transform="scale(0.015625)"/>
        <path id="DejaVuSans-Bold-2e" d="M 653 1209 
L 1778 1209 
L 1778 0 
L 653 0 
L 653 1209 
z
" transform="scale(0.015625)"/>
       </defs>
       <use xlink:href="#DejaVuSans-Bold-30"/>
       <use xlink:href="#DejaVuSans-Bold-2e" x="69.580078"/>
       <use xlink:href="#DejaVuSans-Bold-30" x="107.568359"/>
      </g>
     </g>
    </g>
    <g id="xtick_2">
     <g id="line2d_3">
      <path d="M 123.509063 358.605375 
L 123.509063 25.965375 
" clip-path="url(#pcc285f6174)" style="fill: none; stroke-dasharray: 2.96,1.28; stroke-dashoffset: 0; stroke: #b0b0b0; stroke-opacity: 0.7; stroke-width: 0.8"/>
     </g>
     <g id="line2d_4">
      <g>
       <use xlink:href="#m1d643a19e4" x="123.509063" y="358.605375" style="stroke: #000000; stroke-width: 0.8"/>
      </g>
     </g>
     <g id="text_2">
      <!-- 0.2 -->
      <g transform="translate(111.109219 376.243188) scale(0.14 -0.14)">
       <defs>
        <path id="DejaVuSans-Bold-32" d="M 1844 884 
L 3897 884 
L 3897 0 
L 506 0 
L 506 884 
L 2209 2388 
Q 2438 2594 2547 2791 
Q 2656 2988 2656 3200 
Q 2656 3528 2436 3728 
Q 2216 3928 1850 3928 
Q 1569 3928 1234 3808 
Q 900 3688 519 3450 
L 519 4475 
Q 925 4609 1322 4679 
Q 1719 4750 2100 4750 
Q 2938 4750 3402 4381 
Q 3866 4013 3866 3353 
Q 3866 2972 3669 2642 
Q 3472 2313 2841 1759 
L 1844 884 
z
" transform="scale(0.015625)"/>
       </defs>
       <use xlink:href="#DejaVuSans-Bold-30"/>
       <use xlink:href="#DejaVuSans-Bold-2e" x="69.580078"/>
       <use xlink:href="#DejaVuSans-Bold-32" x="107.568359"/>
      </g>
     </g>
    </g>
    <g id="xtick_3">
     <g id="line2d_5">
      <path d="M 190.469063 358.605375 
L 190.469063 25.965375 
" clip-path="url(#pcc285f6174)" style="fill: none; stroke-dasharray: 2.96,1.28; stroke-dashoffset: 0; stroke: #b0b0b0; stroke-opacity: 0.7; stroke-width: 0.8"/>
     </g>
     <g id="line2d_6">
      <g>
       <use xlink:href="#m1d643a19e4" x="190.469063" y="358.605375" style="stroke: #000000; stroke-width: 0.8"/>
      </g>
     </g>
     <g id="text_3">
      <!-- 0.4 -->
      <g transform="translate(178.069219 376.243188) scale(0.14 -0.14)">
       <defs>
        <path id="DejaVuSans-Bold-34" d="M 2356 3675 
L 1038 1722 
L 2356 1722 
L 2356 3675 
z
M 2156 4666 
L 3494 4666 
L 3494 1722 
L 4159 1722 
L 4159 850 
L 3494 850 
L 3494 0 
L 2356 0 
L 2356 850 
L 288 850 
L 288 1881 
L 2156 4666 
z
" transform="scale(0.015625)"/>
       </defs>
       <use xlink:href="#DejaVuSans-Bold-30"/>
       <use xlink:href="#DejaVuSans-Bold-2e" x="69.580078"/>
       <use xlink:href="#DejaVuSans-Bold-34" x="107.568359"/>
      </g>
     </g>
    </g>
    <g id="xtick_4">
     <g id="line2d_7">
      <path d="M 257.429063 358.605375 
L 257.429063 25.965375 
" clip-path="url(#pcc285f6174)" style="fill: none; stroke-dasharray: 2.96,1.28; stroke-dashoffset: 0; stroke: #b0b0b0; stroke-opacity: 0.7; stroke-width: 0.8"/>
     </g>
     <g id="line2d_8">
      <g>
       <use xlink:href="#m1d643a19e4" x="257.429063" y="358.605375" style="stroke: #000000; stroke-width: 0.8"/>
      </g>
     </g>
     <g id="text_4">
      <!-- 0.6 -->
      <g transform="translate(245.029219 376.243188) scale(0.14 -0.14)">
       <defs>
        <path id="DejaVuSans-Bold-36" d="M 2316 2303 
Q 2000 2303 1842 2098 
Q 1684 1894 1684 1484 
Q 1684 1075 1842 870 
Q 2000 666 2316 666 
Q 2634 666 2792 870 
Q 2950 1075 2950 1484 
Q 2950 1894 2792 2098 
Q 2634 2303 2316 2303 
z
M 3803 4544 
L 3803 3681 
Q 3506 3822 3243 3889 
Q 2981 3956 2731 3956 
Q 2194 3956 1894 3657 
Q 1594 3359 1544 2772 
Q 1750 2925 1990 3001 
Q 2231 3078 2516 3078 
Q 3231 3078 3670 2659 
Q 4109 2241 4109 1563 
Q 4109 813 3618 361 
Q 3128 -91 2303 -91 
Q 1394 -91 895 523 
Q 397 1138 397 2266 
Q 397 3422 980 4083 
Q 1563 4744 2578 4744 
Q 2900 4744 3203 4694 
Q 3506 4644 3803 4544 
z
" transform="scale(0.015625)"/>
       </defs>
       <use xlink:href="#DejaVuSans-Bold-30"/>
       <use xlink:href="#DejaVuSans-Bold-2e" x="69.580078"/>
       <use xlink:href="#DejaVuSans-Bold-36" x="107.568359"/>
      </g>
     </g>
    </g>
    <g id="xtick_5">
     <g id="line2d_9">
      <path d="M 324.389063 358.605375 
L 324.389063 25.965375 
" clip-path="url(#pcc285f6174)" style="fill: none; stroke-dasharray: 2.96,1.28; stroke-dashoffset: 0; stroke: #b0b0b0; stroke-opacity: 0.7; stroke-width: 0.8"/>
     </g>
     <g id="line2d_10">
      <g>
       <use xlink:href="#m1d643a19e4" x="324.389063" y="358.605375" style="stroke: #000000; stroke-width: 0.8"/>
      </g>
     </g>
     <g id="text_5">
      <!-- 0.8 -->
      <g transform="translate(311.989219 376.243188) scale(0.14 -0.14)">
       <defs>
        <path id="DejaVuSans-Bold-38" d="M 2228 2088 
Q 1891 2088 1709 1903 
Q 1528 1719 1528 1375 
Q 1528 1031 1709 848 
Q 1891 666 2228 666 
Q 2563 666 2741 848 
Q 2919 1031 2919 1375 
Q 2919 1722 2741 1905 
Q 2563 2088 2228 2088 
z
M 1350 2484 
Q 925 2613 709 2878 
Q 494 3144 494 3541 
Q 494 4131 934 4440 
Q 1375 4750 2228 4750 
Q 3075 4750 3515 4442 
Q 3956 4134 3956 3541 
Q 3956 3144 3739 2878 
Q 3522 2613 3097 2484 
Q 3572 2353 3814 2058 
Q 4056 1763 4056 1313 
Q 4056 619 3595 264 
Q 3134 -91 2228 -91 
Q 1319 -91 855 264 
Q 391 619 391 1313 
Q 391 1763 633 2058 
Q 875 2353 1350 2484 
z
M 1631 3419 
Q 1631 3141 1786 2991 
Q 1941 2841 2228 2841 
Q 2509 2841 2662 2991 
Q 2816 3141 2816 3419 
Q 2816 3697 2662 3845 
Q 2509 3994 2228 3994 
Q 1941 3994 1786 3844 
Q 1631 3694 1631 3419 
z
" transform="scale(0.015625)"/>
       </defs>
       <use xlink:href="#DejaVuSans-Bold-30"/>
       <use xlink:href="#DejaVuSans-Bold-2e" x="69.580078"/>
       <use xlink:href="#DejaVuSans-Bold-38" x="107.568359"/>
      </g>
     </g>
    </g>
    <g id="xtick_6">
     <g id="line2d_11">
      <path d="M 391.349063 358.605375 
L 391.349063 25.965375 
" clip-path="url(#pcc285f6174)" style="fill: none; stroke-dasharray: 2.96,1.28; stroke-dashoffset: 0; stroke: #b0b0b0; stroke-opacity: 0.7; stroke-width: 0.8"/>
     </g>
     <g id="line2d_12">
      <g>
       <use xlink:href="#m1d643a19e4" x="391.349063" y="358.605375" style="stroke: #000000; stroke-width: 0.8"/>
      </g>
     </g>
     <g id="text_6">
      <!-- 1.0 -->
      <g transform="translate(378.949219 376.243188) scale(0.14 -0.14)">
       <defs>
        <path id="DejaVuSans-Bold-31" d="M 750 831 
L 1813 831 
L 1813 3847 
L 722 3622 
L 722 4441 
L 1806 4666 
L 2950 4666 
L 2950 831 
L 4013 831 
L 4013 0 
L 750 0 
L 750 831 
z
" transform="scale(0.015625)"/>
       </defs>
       <use xlink:href="#DejaVuSans-Bold-31"/>
       <use xlink:href="#DejaVuSans-Bold-2e" x="69.580078"/>
       <use xlink:href="#DejaVuSans-Bold-30" x="107.568359"/>
      </g>
     </g>
    </g>
    <g id="text_7">
     <!-- Recall -->
     <g transform="translate(200.138125 393.792563) scale(0.14 -0.14)">
      <defs>
       <path id="DejaVuSans-Bold-52" d="M 2297 2597 
Q 2675 2597 2839 2737 
Q 3003 2878 3003 3200 
Q 3003 3519 2839 3656 
Q 2675 3794 2297 3794 
L 1791 3794 
L 1791 2597 
L 2297 2597 
z
M 1791 1766 
L 1791 0 
L 588 0 
L 588 4666 
L 2425 4666 
Q 3347 4666 3776 4356 
Q 4206 4047 4206 3378 
Q 4206 2916 3982 2619 
Q 3759 2322 3309 2181 
Q 3556 2125 3751 1926 
Q 3947 1728 4147 1325 
L 4800 0 
L 3519 0 
L 2950 1159 
Q 2778 1509 2601 1637 
Q 2425 1766 2131 1766 
L 1791 1766 
z
" transform="scale(0.015625)"/>
       <path id="DejaVuSans-Bold-65" d="M 4031 1759 
L 4031 1441 
L 1416 1441 
Q 1456 1047 1700 850 
Q 1944 653 2381 653 
Q 2734 653 3104 758 
Q 3475 863 3866 1075 
L 3866 213 
Q 3469 63 3072 -14 
Q 2675 -91 2278 -91 
Q 1328 -91 801 392 
Q 275 875 275 1747 
Q 275 2603 792 3093 
Q 1309 3584 2216 3584 
Q 3041 3584 3536 3087 
Q 4031 2591 4031 1759 
z
M 2881 2131 
Q 2881 2450 2695 2645 
Q 2509 2841 2209 2841 
Q 1884 2841 1681 2658 
Q 1478 2475 1428 2131 
L 2881 2131 
z
" transform="scale(0.015625)"/>
       <path id="DejaVuSans-Bold-63" d="M 3366 3391 
L 3366 2478 
Q 3138 2634 2908 2709 
Q 2678 2784 2431 2784 
Q 1963 2784 1702 2511 
Q 1441 2238 1441 1747 
Q 1441 1256 1702 982 
Q 1963 709 2431 709 
Q 2694 709 2930 787 
Q 3166 866 3366 1019 
L 3366 103 
Q 3103 6 2833 -42 
Q 2563 -91 2291 -91 
Q 1344 -91 809 395 
Q 275 881 275 1747 
Q 275 2613 809 3098 
Q 1344 3584 2291 3584 
Q 2566 3584 2833 3536 
Q 3100 3488 3366 3391 
z
" transform="scale(0.015625)"/>
       <path id="DejaVuSans-Bold-61" d="M 2106 1575 
Q 1756 1575 1579 1456 
Q 1403 1338 1403 1106 
Q 1403 894 1545 773 
Q 1688 653 1941 653 
Q 2256 653 2472 879 
Q 2688 1106 2688 1447 
L 2688 1575 
L 2106 1575 
z
M 3816 1997 
L 3816 0 
L 2688 0 
L 2688 519 
Q 2463 200 2181 54 
Q 1900 -91 1497 -91 
Q 953 -91 614 226 
Q 275 544 275 1050 
Q 275 1666 698 1953 
Q 1122 2241 2028 2241 
L 2688 2241 
L 2688 2328 
Q 2688 2594 2478 2717 
Q 2269 2841 1825 2841 
Q 1466 2841 1156 2769 
Q 847 2697 581 2553 
L 581 3406 
Q 941 3494 1303 3539 
Q 1666 3584 2028 3584 
Q 2975 3584 3395 3211 
Q 3816 2838 3816 1997 
z
" transform="scale(0.015625)"/>
       <path id="DejaVuSans-Bold-6c" d="M 538 4863 
L 1656 4863 
L 1656 0 
L 538 0 
L 538 4863 
z
" transform="scale(0.015625)"/>
      </defs>
      <use xlink:href="#DejaVuSans-Bold-52"/>
      <use xlink:href="#DejaVuSans-Bold-65" x="77.001953"/>
      <use xlink:href="#DejaVuSans-Bold-63" x="144.824219"/>
      <use xlink:href="#DejaVuSans-Bold-61" x="204.101562"/>
      <use xlink:href="#DejaVuSans-Bold-6c" x="271.582031"/>
      <use xlink:href="#DejaVuSans-Bold-6c" x="305.859375"/>
     </g>
    </g>
   </g>
   <g id="matplotlib.axis_2">
    <g id="ytick_1">
     <g id="line2d_13">
      <path d="M 56.549063 358.605375 
L 391.349063 358.605375 
" clip-path="url(#pcc285f6174)" style="fill: none; stroke-dasharray: 2.96,1.28; stroke-dashoffset: 0; stroke: #b0b0b0; stroke-opacity: 0.7; stroke-width: 0.8"/>
     </g>
     <g id="line2d_14">
      <defs>
       <path id="m39a8b83744" d="M 0 0 
L -3.5 0 
" style="stroke: #000000; stroke-width: 0.8"/>
      </defs>
      <g>
       <use xlink:href="#m39a8b83744" x="56.549063" y="358.605375" style="stroke: #000000; stroke-width: 0.8"/>
      </g>
     </g>
     <g id="text_8">
      <!-- 0.0 -->
      <g transform="translate(24.749375 363.924281) scale(0.14 -0.14)">
       <use xlink:href="#DejaVuSans-Bold-30"/>
       <use xlink:href="#DejaVuSans-Bold-2e" x="69.580078"/>
       <use xlink:href="#DejaVuSans-Bold-30" x="107.568359"/>
      </g>
     </g>
    </g>
    <g id="ytick_2">
     <g id="line2d_15">
      <path d="M 56.549063 295.245375 
L 391.349063 295.245375 
" clip-path="url(#pcc285f6174)" style="fill: none; stroke-dasharray: 2.96,1.28; stroke-dashoffset: 0; stroke: #b0b0b0; stroke-opacity: 0.7; stroke-width: 0.8"/>
     </g>
     <g id="line2d_16">
      <g>
       <use xlink:href="#m39a8b83744" x="56.549063" y="295.245375" style="stroke: #000000; stroke-width: 0.8"/>
      </g>
     </g>
     <g id="text_9">
      <!-- 0.2 -->
      <g transform="translate(24.749375 300.564281) scale(0.14 -0.14)">
       <use xlink:href="#DejaVuSans-Bold-30"/>
       <use xlink:href="#DejaVuSans-Bold-2e" x="69.580078"/>
       <use xlink:href="#DejaVuSans-Bold-32" x="107.568359"/>
      </g>
     </g>
    </g>
    <g id="ytick_3">
     <g id="line2d_17">
      <path d="M 56.549063 231.885375 
L 391.349063 231.885375 
" clip-path="url(#pcc285f6174)" style="fill: none; stroke-dasharray: 2.96,1.28; stroke-dashoffset: 0; stroke: #b0b0b0; stroke-opacity: 0.7; stroke-width: 0.8"/>
     </g>
     <g id="line2d_18">
      <g>
       <use xlink:href="#m39a8b83744" x="56.549063" y="231.885375" style="stroke: #000000; stroke-width: 0.8"/>
      </g>
     </g>
     <g id="text_10">
      <!-- 0.4 -->
      <g transform="translate(24.749375 237.204281) scale(0.14 -0.14)">
       <use xlink:href="#DejaVuSans-Bold-30"/>
       <use xlink:href="#DejaVuSans-Bold-2e" x="69.580078"/>
       <use xlink:href="#DejaVuSans-Bold-34" x="107.568359"/>
      </g>
     </g>
    </g>
    <g id="ytick_4">
     <g id="line2d_19">
      <path d="M 56.549063 168.525375 
L 391.349063 168.525375 
" clip-path="url(#pcc285f6174)" style="fill: none; stroke-dasharray: 2.96,1.28; stroke-dashoffset: 0; stroke: #b0b0b0; stroke-opacity: 0.7; stroke-width: 0.8"/>
     </g>
     <g id="line2d_20">
      <g>
       <use xlink:href="#m39a8b83744" x="56.549063" y="168.525375" style="stroke: #000000; stroke-width: 0.8"/>
      </g>
     </g>
     <g id="text_11">
      <!-- 0.6 -->
      <g transform="translate(24.749375 173.844281) scale(0.14 -0.14)">
       <use xlink:href="#DejaVuSans-Bold-30"/>
       <use xlink:href="#DejaVuSans-Bold-2e" x="69.580078"/>
       <use xlink:href="#DejaVuSans-Bold-36" x="107.568359"/>
      </g>
     </g>
    </g>
    <g id="ytick_5">
     <g id="line2d_21">
      <path d="M 56.549063 105.165375 
L 391.349063 105.165375 
" clip-path="url(#pcc285f6174)" style="fill: none; stroke-dasharray: 2.96,1.28; stroke-dashoffset: 0; stroke: #b0b0b0; stroke-opacity: 0.7; stroke-width: 0.8"/>
     </g>
     <g id="line2d_22">
      <g>
       <use xlink:href="#m39a8b83744" x="56.549063" y="105.165375" style="stroke: #000000; stroke-width: 0.8"/>
      </g>
     </g>
     <g id="text_12">
      <!-- 0.8 -->
      <g transform="translate(24.749375 110.484281) scale(0.14 -0.14)">
       <use xlink:href="#DejaVuSans-Bold-30"/>
       <use xlink:href="#DejaVuSans-Bold-2e" x="69.580078"/>
       <use xlink:href="#DejaVuSans-Bold-38" x="107.568359"/>
      </g>
     </g>
    </g>
    <g id="ytick_6">
     <g id="line2d_23">
      <path d="M 56.549063 41.805375 
L 391.349063 41.805375 
" clip-path="url(#pcc285f6174)" style="fill: none; stroke-dasharray: 2.96,1.28; stroke-dashoffset: 0; stroke: #b0b0b0; stroke-opacity: 0.7; stroke-width: 0.8"/>
     </g>
     <g id="line2d_24">
      <g>
       <use xlink:href="#m39a8b83744" x="56.549063" y="41.805375" style="stroke: #000000; stroke-width: 0.8"/>
      </g>
     </g>
     <g id="text_13">
      <!-- 1.0 -->
      <g transform="translate(24.749375 47.124281) scale(0.14 -0.14)">
       <use xlink:href="#DejaVuSans-Bold-31"/>
       <use xlink:href="#DejaVuSans-Bold-2e" x="69.580078"/>
       <use xlink:href="#DejaVuSans-Bold-30" x="107.568359"/>
      </g>
     </g>
    </g>
    <g id="text_14">
     <!-- Precision -->
     <g transform="translate(17.837813 228.5235) rotate(-90) scale(0.14 -0.14)">
      <defs>
       <path id="DejaVuSans-Bold-50" d="M 588 4666 
L 2584 4666 
Q 3475 4666 3951 4270 
Q 4428 3875 4428 3144 
Q 4428 2409 3951 2014 
Q 3475 1619 2584 1619 
L 1791 1619 
L 1791 0 
L 588 0 
L 588 4666 
z
M 1791 3794 
L 1791 2491 
L 2456 2491 
Q 2806 2491 2997 2661 
Q 3188 2831 3188 3144 
Q 3188 3456 2997 3625 
Q 2806 3794 2456 3794 
L 1791 3794 
z
" transform="scale(0.015625)"/>
       <path id="DejaVuSans-Bold-72" d="M 3138 2547 
Q 2991 2616 2845 2648 
Q 2700 2681 2553 2681 
Q 2122 2681 1889 2404 
Q 1656 2128 1656 1613 
L 1656 0 
L 538 0 
L 538 3500 
L 1656 3500 
L 1656 2925 
Q 1872 3269 2151 3426 
Q 2431 3584 2822 3584 
Q 2878 3584 2943 3579 
Q 3009 3575 3134 3559 
L 3138 2547 
z
" transform="scale(0.015625)"/>
       <path id="DejaVuSans-Bold-69" d="M 538 3500 
L 1656 3500 
L 1656 0 
L 538 0 
L 538 3500 
z
M 538 4863 
L 1656 4863 
L 1656 3950 
L 538 3950 
L 538 4863 
z
" transform="scale(0.015625)"/>
       <path id="DejaVuSans-Bold-73" d="M 3272 3391 
L 3272 2541 
Q 2913 2691 2578 2766 
Q 2244 2841 1947 2841 
Q 1628 2841 1473 2761 
Q 1319 2681 1319 2516 
Q 1319 2381 1436 2309 
Q 1553 2238 1856 2203 
L 2053 2175 
Q 2913 2066 3209 1816 
Q 3506 1566 3506 1031 
Q 3506 472 3093 190 
Q 2681 -91 1863 -91 
Q 1516 -91 1145 -36 
Q 775 19 384 128 
L 384 978 
Q 719 816 1070 734 
Q 1422 653 1784 653 
Q 2113 653 2278 743 
Q 2444 834 2444 1013 
Q 2444 1163 2330 1236 
Q 2216 1309 1875 1350 
L 1678 1375 
Q 931 1469 631 1722 
Q 331 1975 331 2491 
Q 331 3047 712 3315 
Q 1094 3584 1881 3584 
Q 2191 3584 2531 3537 
Q 2872 3491 3272 3391 
z
" transform="scale(0.015625)"/>
       <path id="DejaVuSans-Bold-6f" d="M 2203 2784 
Q 1831 2784 1636 2517 
Q 1441 2250 1441 1747 
Q 1441 1244 1636 976 
Q 1831 709 2203 709 
Q 2569 709 2762 976 
Q 2956 1244 2956 1747 
Q 2956 2250 2762 2517 
Q 2569 2784 2203 2784 
z
M 2203 3584 
Q 3106 3584 3614 3096 
Q 4122 2609 4122 1747 
Q 4122 884 3614 396 
Q 3106 -91 2203 -91 
Q 1297 -91 786 396 
Q 275 884 275 1747 
Q 275 2609 786 3096 
Q 1297 3584 2203 3584 
z
" transform="scale(0.015625)"/>
       <path id="DejaVuSans-Bold-6e" d="M 4056 2131 
L 4056 0 
L 2931 0 
L 2931 347 
L 2931 1631 
Q 2931 2084 2911 2256 
Q 2891 2428 2841 2509 
Q 2775 2619 2662 2680 
Q 2550 2741 2406 2741 
Q 2056 2741 1856 2470 
Q 1656 2200 1656 1722 
L 1656 0 
L 538 0 
L 538 3500 
L 1656 3500 
L 1656 2988 
Q 1909 3294 2193 3439 
Q 2478 3584 2822 3584 
Q 3428 3584 3742 3212 
Q 4056 2841 4056 2131 
z
" transform="scale(0.015625)"/>
      </defs>
      <use xlink:href="#DejaVuSans-Bold-50"/>
      <use xlink:href="#DejaVuSans-Bold-72" x="73.291016"/>
      <use xlink:href="#DejaVuSans-Bold-65" x="122.607422"/>
      <use xlink:href="#DejaVuSans-Bold-63" x="190.429688"/>
      <use xlink:href="#DejaVuSans-Bold-69" x="249.707031"/>
      <use xlink:href="#DejaVuSans-Bold-73" x="283.984375"/>
      <use xlink:href="#DejaVuSans-Bold-69" x="343.505859"/>
      <use xlink:href="#DejaVuSans-Bold-6f" x="377.783203"/>
      <use xlink:href="#DejaVuSans-Bold-6e" x="446.484375"/>
     </g>
    </g>
   </g>
   <g id="line2d_25">
    <path d="M 391.349063 200.205375 
L 391.349063 198.927956 
L 390.679462 199.086505 
L 390.679462 198.602136 
L 390.009862 198.760998 
L 390.009862 198.110563 
L 389.340262 198.269733 
L 389.340262 198.106292 
L 388.670662 198.265783 
L 388.670662 197.773441 
L 388.001062 197.933244 
L 388.001062 197.10589 
L 387.331462 197.265994 
L 387.331462 195.245041 
L 385.992262 195.566044 
L 385.992262 194.190185 
L 385.322662 194.351098 
L 385.322662 193.829104 
L 383.313862 194.31377 
L 383.313862 193.436144 
L 381.974662 193.760835 
L 381.974662 191.434039 
L 381.305063 191.596679 
L 381.305063 191.414951 
L 380.635463 191.577924 
L 380.635463 190.84695 
L 379.965863 191.010194 
L 379.965863 190.642258 
L 378.626663 190.969731 
L 378.626663 190.600083 
L 377.957063 190.764315 
L 377.957063 190.578856 
L 376.617863 190.908365 
L 376.617863 189.598232 
L 375.948262 189.763364 
L 375.948262 189.19551 
L 373.939462 189.692889 
L 373.939462 189.502672 
L 372.600262 189.836075 
L 372.600262 189.070681 
L 371.930662 189.237838 
L 371.930662 189.045375 
L 369.921863 189.549047 
L 369.921863 187.599147 
L 366.573863 188.444818 
L 366.573863 187.850544 
L 364.565063 188.362384 
L 364.565063 187.362132 
L 363.225863 187.705022 
L 363.225863 187.098992 
L 362.556263 187.270937 
L 362.556263 186.86445 
L 360.547462 187.382518 
L 360.547462 186.56327 
L 359.877862 186.736632 
L 359.877862 185.283636 
L 358.538662 185.631041 
L 358.538662 184.152628 
L 357.869062 184.326646 
L 357.869062 184.113331 
L 357.199462 184.287728 
L 357.199462 184.073841 
L 355.860263 184.423825 
L 355.860263 183.994278 
L 354.521063 184.345795 
L 354.521063 183.697186 
L 353.851463 183.87345 
L 353.851463 183.219839 
L 353.181863 183.396386 
L 353.181863 182.957816 
L 351.842663 183.312025 
L 351.842663 182.871035 
L 351.173063 183.0487 
L 351.173063 181.711974 
L 350.503463 181.889746 
L 350.503463 181.213538 
L 349.833863 181.391582 
L 349.833863 181.164966 
L 346.485862 182.061746 
L 346.485862 181.377468 
L 345.816262 181.558027 
L 345.816262 181.328691 
L 345.146662 181.509655 
L 345.146662 180.353678 
L 343.807462 180.71637 
L 343.807462 180.249469 
L 340.459462 181.163895 
L 340.459462 180.693852 
L 339.789862 180.878054 
L 339.789862 180.405375 
L 338.450662 180.774975 
L 338.450662 180.299493 
L 337.111463 180.670791 
L 337.111463 179.228078 
L 336.441863 179.414035 
L 336.441863 178.683636 
L 335.772263 178.869865 
L 335.772263 178.624994 
L 333.763463 179.186497 
L 333.763463 178.447133 
L 331.085062 179.20206 
L 331.085062 177.954471 
L 330.415462 178.144094 
L 330.415462 176.623353 
L 329.745862 176.81297 
L 329.745862 176.556924 
L 327.067463 177.320389 
L 327.067463 176.805375 
L 326.397863 176.997409 
L 326.397863 176.219089 
L 325.728263 176.411384 
L 325.728263 176.150361 
L 325.058663 176.343108 
L 325.058663 176.081237 
L 321.710663 177.052842 
L 321.710663 175.194849 
L 319.701863 175.782468 
L 319.701863 175.51361 
L 317.693062 176.106114 
L 317.693062 175.021423 
L 315.684262 175.617912 
L 315.684262 175.070046 
L 314.345062 175.47024 
L 314.345062 174.641574 
L 313.005862 175.043499 
L 313.005862 173.644399 
L 310.997063 174.250092 
L 310.997063 173.967338 
L 310.327463 174.170352 
L 310.327463 173.601985 
L 309.657863 173.805375 
L 309.657863 173.519749 
L 308.988263 173.723641 
L 308.988263 173.437003 
L 307.649063 173.846433 
L 307.649063 172.980375 
L 306.979463 173.185657 
L 306.979463 172.89503 
L 305.640263 173.307262 
L 305.640263 172.429072 
L 302.961862 173.259747 
L 302.961862 172.668533 
L 302.292262 172.877579 
L 302.292262 172.282298 
L 301.622662 172.491731 
L 301.622662 172.192513 
L 300.283462 172.613117 
L 300.283462 171.100985 
L 299.613862 171.311564 
L 299.613862 170.699493 
L 298.944262 170.910449 
L 298.944262 169.361811 
L 298.274662 169.572648 
L 298.274662 169.25968 
L 296.935463 169.683116 
L 296.935463 169.368769 
L 295.596263 169.794691 
L 295.596263 169.478954 
L 294.926663 169.692812 
L 294.926663 169.375845 
L 294.257063 169.590249 
L 294.257063 168.632402 
L 293.587463 168.846999 
L 293.587463 168.525375 
L 292.917863 168.740519 
L 292.917863 167.768515 
L 292.248263 167.983837 
L 292.248263 167.65743 
L 290.239463 168.307268 
L 290.239463 166.988044 
L 289.569862 167.205375 
L 289.569862 166.538476 
L 286.221863 167.634549 
L 286.221863 167.298333 
L 284.882663 167.741771 
L 284.882663 167.403959 
L 283.543463 167.850135 
L 283.543463 166.828232 
L 281.534663 167.501605 
L 281.534663 167.157893 
L 279.525863 167.837925 
L 279.525863 167.492332 
L 278.856263 167.720439 
L 278.856263 167.373375 
L 277.517063 167.831652 
L 277.517063 167.482889 
L 275.508263 168.175963 
L 275.508263 166.765375 
L 273.499462 167.463476 
L 273.499462 167.106868 
L 270.821063 168.048984 
L 270.821063 166.968324 
L 268.142663 167.921946 
L 268.142663 167.192755 
L 265.464263 168.159132 
L 265.464263 167.422396 
L 264.794663 167.66584 
L 264.794663 166.549235 
L 263.455463 167.037469 
L 263.455463 166.284746 
L 262.116263 166.775789 
L 262.116263 166.016068 
L 258.098662 167.509583 
L 258.098662 167.125857 
L 257.429062 167.378011 
L 257.429062 166.992472 
L 256.759462 167.245375 
L 256.759462 165.292722 
L 255.420262 165.798818 
L 255.420262 164.205375 
L 254.750662 164.458791 
L 254.750662 163.651529 
L 253.411463 164.160281 
L 253.411463 163.344998 
L 251.402663 164.114236 
L 251.402663 163.290121 
L 249.393863 164.067209 
L 249.393863 162.814817 
L 248.724263 163.075052 
L 248.724263 161.805375 
L 248.054663 162.065679 
L 248.054663 161.638418 
L 245.376262 162.689586 
L 245.376262 162.259001 
L 241.358663 163.868627 
L 241.358663 163.433946 
L 240.689063 163.706046 
L 240.689063 163.269052 
L 240.019463 163.542004 
L 240.019463 162.661357 
L 238.680263 163.209457 
L 238.680263 161.420936 
L 233.993063 163.368166 
L 233.993063 162.913067 
L 231.984262 163.765938 
L 231.984262 163.307493 
L 231.314662 163.594054 
L 231.314662 163.133035 
L 229.975462 163.709413 
L 229.975462 161.839907 
L 229.305862 162.128452 
L 229.305862 161.655014 
L 228.636263 161.944505 
L 228.636263 160.509025 
L 225.288263 161.970892 
L 225.288263 160.507112 
L 223.949063 161.099141 
L 223.949063 160.605375 
L 222.609863 161.20236 
L 222.609863 160.705123 
L 221.270663 161.307147 
L 221.270663 160.80639 
L 219.931463 161.413538 
L 219.931463 159.892779 
L 218.592263 160.503049 
L 218.592263 158.955375 
L 217.922663 159.26125 
L 217.922663 157.68748 
L 215.244262 158.920269 
L 215.244262 158.387775 
L 214.574662 158.699493 
L 214.574662 158.163552 
L 213.235463 158.79082 
L 213.235463 156.061113 
L 212.565863 156.374142 
L 212.565863 155.25992 
L 211.226663 155.888477 
L 211.226663 153.61714 
L 210.557063 153.931218 
L 210.557063 152.191777 
L 208.548263 153.137946 
L 208.548263 151.957099 
L 207.878663 152.274539 
L 207.878663 150.475142 
L 203.191463 152.732378 
L 203.191463 152.119661 
L 201.182662 153.113483 
L 201.182662 151.245375 
L 197.834662 152.929067 
L 197.834662 152.294264 
L 197.165062 152.636335 
L 197.165062 151.353039 
L 194.486663 152.735343 
L 194.486663 150.104417 
L 191.138663 151.862518 
L 191.138663 149.828982 
L 190.469063 150.184322 
L 190.469063 149.496464 
L 189.799463 149.853057 
L 189.799463 149.159528 
L 189.129863 149.517375 
L 189.129863 148.818084 
L 187.790662 149.538708 
L 187.790662 148.832402 
L 182.433863 151.805375 
L 182.433863 151.084818 
L 181.764263 151.466913 
L 181.764263 150.008192 
L 181.094663 150.390534 
L 181.094663 149.652184 
L 179.755463 150.422518 
L 179.755463 149.676343 
L 176.407463 151.644791 
L 176.407463 150.886694 
L 174.398663 152.098708 
L 174.398663 150.557614 
L 173.729062 150.964926 
L 173.729062 147.806896 
L 173.059462 148.211482 
L 173.059462 147.405375 
L 172.389862 147.811529 
L 172.389862 146.177468 
L 171.050663 146.992875 
L 171.050663 146.163022 
L 169.711463 146.987984 
L 169.711463 146.148232 
L 169.041863 146.563941 
L 169.041863 145.715775 
L 165.693863 147.836395 
L 165.693863 145.223557 
L 164.354663 146.085375 
L 164.354663 143.395248 
L 163.015463 144.259843 
L 163.015463 143.343837 
L 161.676263 144.219168 
L 161.676263 142.35494 
L 161.006663 142.794021 
L 161.006663 141.84748 
L 158.328262 143.633946 
L 158.328262 142.669949 
L 157.658662 143.124294 
L 157.658662 140.172498 
L 155.649862 141.538708 
L 155.649862 140.529096 
L 153.641063 141.92613 
L 153.641063 140.899214 
L 152.301862 141.84748 
L 152.301862 140.805375 
L 150.962662 141.76654 
L 150.962662 140.70879 
L 150.293063 141.19361 
L 150.293063 140.122616 
L 148.953863 141.100897 
L 148.953863 138.914923 
L 145.605863 141.417746 
L 145.605863 140.292422 
L 144.936262 140.805375 
L 144.936262 139.665061 
L 140.918663 142.838889 
L 140.918663 140.480785 
L 140.249063 141.022957 
L 140.249063 138.605375 
L 138.909863 139.693015 
L 138.909863 138.456222 
L 136.231463 140.690924 
L 136.231463 134.205375 
L 134.222663 135.885375 
L 134.222663 134.527326 
L 132.883463 135.672042 
L 132.883463 134.287363 
L 129.535462 137.251529 
L 129.535462 134.376804 
L 128.196262 135.594849 
L 128.196262 134.117958 
L 126.187463 135.989159 
L 126.187463 132.939622 
L 124.848263 134.205375 
L 124.848263 129.430907 
L 123.509063 130.691706 
L 123.509063 129.040158 
L 122.169863 130.323022 
L 122.169863 128.632042 
L 119.491463 131.283238 
L 119.491463 129.534606 
L 118.821863 130.214677 
L 118.821863 128.430375 
L 115.473862 131.951716 
L 114.134663 133.441739 
L 114.134663 131.565375 
L 112.795463 133.086731 
L 112.795463 131.159221 
L 111.456263 132.713201 
L 111.456263 128.71511 
L 108.777862 131.904458 
L 108.777862 129.805375 
L 106.769063 132.319661 
L 106.769063 130.143837 
L 105.429863 131.875963 
L 105.429863 129.631118 
L 103.421063 132.319661 
L 103.421063 127.605375 
L 102.081862 129.430907 
L 102.081862 126.966665 
L 100.742663 128.838342 
L 100.742663 126.285375 
L 100.073063 127.234588 
L 100.073063 124.605375 
L 97.394663 128.548232 
L 96.725063 129.593327 
L 96.725063 126.800497 
L 94.716262 130.02816 
L 94.716262 124.091089 
L 94.046663 125.173796 
L 94.046663 122.061375 
L 93.377063 123.145916 
L 93.377063 116.605375 
L 92.037863 118.742518 
L 92.037863 115.266245 
L 91.368263 116.346551 
L 91.368263 105.165375 
L 88.689863 109.320129 
L 87.350662 111.608765 
L 87.350662 107.350203 
L 86.681063 108.500112 
L 86.681063 99.405375 
L 84.672263 102.728452 
L 82.663463 106.458436 
L 81.324263 109.20963 
L 81.324263 92.205375 
L 79.315463 95.89318 
L 77.306663 100.16327 
L 75.297863 105.165375 
L 75.297863 97.711257 
L 73.958663 101.205375 
L 73.958663 92.902149 
L 73.289062 94.605375 
L 73.289062 85.501927 
L 72.619462 87.062518 
L 72.619462 77.005375 
L 71.280263 79.821375 
L 69.941063 83.127114 
L 68.601863 87.062518 
L 68.601863 73.485375 
L 67.262663 77.005375 
L 65.923462 81.405375 
L 65.253863 84.045375 
L 65.253863 64.433946 
L 63.914663 68.205375 
L 63.245063 70.605375 
L 63.245063 41.805375 
L 56.549063 41.805375 
L 56.549063 41.805375 
" clip-path="url(#pcc285f6174)" style="fill: none; stroke: #0000ff; stroke-width: 2.5; stroke-linecap: square"/>
   </g>
   <g id="line2d_26">
    <path d="M 391.349063 200.205375 
L 391.349063 196.476409 
L 390.679462 196.634883 
L 390.679462 191.498398 
L 390.009862 191.656804 
L 390.009862 183.891754 
L 389.340262 184.049277 
L 389.340262 180.293257 
L 388.670662 180.450273 
L 388.670662 172.649399 
L 388.001062 172.804427 
L 388.001062 169.214071 
L 387.331462 169.368132 
L 387.331462 166.345916 
L 386.661862 166.499102 
L 386.661862 166.02535 
L 385.992262 166.178708 
L 385.992262 164.25924 
L 385.322662 164.412117 
L 385.322662 161.957082 
L 384.653062 162.109172 
L 384.653062 160.098981 
L 383.983462 160.250445 
L 383.983462 157.15518 
L 383.313862 157.305375 
L 383.313862 153.022396 
L 382.644262 153.170488 
L 382.644262 150.958538 
L 381.974662 151.105645 
L 381.974662 150.263291 
L 380.635463 150.557614 
L 380.635463 149.707282 
L 379.965863 149.854488 
L 379.965863 143.395248 
L 379.296263 143.538333 
L 379.296263 141.39684 
L 378.626663 141.538708 
L 378.626663 140.607092 
L 377.957063 140.748641 
L 377.957063 139.492983 
L 377.287463 139.633946 
L 377.287463 139.000165 
L 376.617863 139.141027 
L 376.617863 136.240617 
L 373.269862 136.939103 
L 373.269862 136.610708 
L 372.600262 136.751369 
L 372.600262 135.093267 
L 371.930662 135.23292 
L 371.930662 134.562132 
L 371.261062 134.701616 
L 371.261062 131.283238 
L 370.591462 131.420054 
L 370.591462 130.02199 
L 368.582663 130.431032 
L 368.582663 127.574389 
L 367.913063 127.708823 
L 367.913063 126.252063 
L 367.243463 126.38547 
L 367.243463 126.018033 
L 366.573863 126.151492 
L 366.573863 125.041044 
L 365.234663 125.306972 
L 365.234663 124.183545 
L 364.565063 124.315986 
L 364.565063 119.707014 
L 363.895463 119.834932 
L 363.895463 119.442217 
L 363.225863 119.57012 
L 363.225863 117.584777 
L 362.556263 117.710866 
L 362.556263 116.906544 
L 361.886662 117.032131 
L 361.886662 116.627486 
L 360.547462 116.878988 
L 360.547462 116.063722 
L 359.877862 116.189159 
L 359.877862 114.540069 
L 357.199462 115.038252 
L 357.199462 114.620469 
L 356.529863 114.745581 
L 356.529863 114.325857 
L 355.860263 114.450892 
L 355.860263 114.029209 
L 355.190663 114.154164 
L 355.190663 112.878766 
L 353.851463 113.126841 
L 353.851463 112.267021 
L 352.512263 112.51469 
L 352.512263 110.333035 
L 351.842663 110.454753 
L 351.842663 110.013204 
L 347.155462 110.873483 
L 347.155462 109.977527 
L 345.816262 110.224976 
L 345.816262 109.773375 
L 345.146662 109.897178 
L 345.146662 108.987825 
L 340.459462 109.858708 
L 340.459462 109.397212 
L 339.120262 109.64895 
L 339.120262 109.184479 
L 337.111463 109.563724 
L 337.111463 109.095601 
L 335.772263 109.349526 
L 335.772263 106.495451 
L 334.433063 106.743306 
L 334.433063 106.259886 
L 333.093863 106.508265 
L 333.093863 105.533035 
L 332.424262 105.656538 
L 332.424262 104.672301 
L 330.415462 105.041383 
L 330.415462 104.544199 
L 328.406663 104.915434 
L 328.406663 104.414071 
L 327.737063 104.538048 
L 327.737063 103.52784 
L 325.728263 103.898175 
L 325.728263 103.38774 
L 323.719463 103.760214 
L 323.719463 101.688302 
L 323.049863 101.810263 
L 323.049863 100.231605 
L 321.710663 100.472042 
L 321.710663 99.939808 
L 321.041063 100.05992 
L 321.041063 99.52463 
L 320.371463 99.644379 
L 320.371463 99.105999 
L 319.032263 99.34525 
L 319.032263 98.258205 
L 318.362662 98.376804 
L 318.362662 97.278793 
L 317.023462 97.51385 
L 317.023462 96.959515 
L 316.353862 97.076864 
L 316.353862 96.519234 
L 315.014662 96.753555 
L 315.014662 96.191641 
L 314.345062 96.308601 
L 314.345062 95.743306 
L 309.657863 96.569489 
L 309.657863 94.837974 
L 305.640263 95.548232 
L 305.640263 94.959737 
L 302.292262 95.561031 
L 302.292262 94.964559 
L 301.622662 95.085375 
L 301.622662 94.485102 
L 299.613862 94.847577 
L 299.613862 94.241237 
L 298.274662 94.483435 
L 298.274662 93.257811 
L 296.265863 93.618459 
L 296.265863 92.374389 
L 295.596263 92.493375 
L 295.596263 91.235162 
L 294.257063 91.469983 
L 294.257063 90.833946 
L 292.917863 91.068533 
L 292.917863 88.483636 
L 292.248263 88.596658 
L 292.248263 87.282747 
L 291.578663 87.393668 
L 291.578663 86.064199 
L 289.569862 86.392042 
L 289.569862 85.041107 
L 288.230662 85.256747 
L 288.230662 83.886578 
L 286.221863 84.205375 
L 286.221863 83.510691 
L 284.213063 83.829865 
L 284.213063 80.997128 
L 280.865063 81.508769 
L 280.865063 80.783385 
L 278.186663 81.195851 
L 278.186663 80.460017 
L 276.847463 80.666175 
L 276.847463 79.923022 
L 274.838662 80.231251 
L 274.838662 79.478889 
L 270.821063 80.09988 
L 270.821063 79.332648 
L 268.142663 79.750779 
L 268.142663 78.971855 
L 266.133863 79.285938 
L 266.133863 76.905375 
L 264.794663 77.105946 
L 264.794663 76.299358 
L 262.785863 76.598439 
L 262.785863 75.781027 
L 260.107462 76.179569 
L 260.107462 75.348904 
L 255.420262 76.054024 
L 255.420262 75.202965 
L 253.411463 75.507503 
L 253.411463 74.644399 
L 248.724263 75.360515 
L 248.724263 74.475375 
L 248.054663 74.577789 
L 248.054663 71.881324 
L 247.385063 71.976804 
L 247.385063 69.22076 
L 246.045862 69.397633 
L 246.045862 62.716266 
L 245.376262 62.785507 
L 245.376262 61.802717 
L 230.645062 63.379569 
L 229.975462 63.457174 
L 229.975462 62.391657 
L 228.636263 62.541375 
L 228.636263 61.460849 
L 226.627463 61.678438 
L 226.627463 60.578708 
L 219.931463 61.30076 
L 219.931463 60.152865 
L 215.913862 60.587984 
L 215.913862 59.405375 
L 214.574662 59.546175 
L 214.574662 57.134407 
L 213.905062 57.196468 
L 213.905062 55.971229 
L 209.887463 56.325375 
L 209.887463 55.060605 
L 203.861063 55.579288 
L 203.861063 54.25603 
L 201.852262 54.421304 
L 201.852262 53.069375 
L 189.129863 54.108288 
L 189.129863 52.622936 
L 185.112262 52.949094 
L 185.112262 51.405375 
L 181.764263 51.65408 
L 181.764263 50.055375 
L 181.094663 50.098569 
L 181.094663 48.474849 
L 173.729062 48.884705 
L 173.729062 47.144701 
L 158.328262 47.936988 
L 158.328262 45.919661 
L 155.649862 46.029375 
L 155.649862 43.931549 
L 150.293063 44.052184 
L 150.293063 41.805375 
L 56.549063 41.805375 
L 56.549063 41.805375 
" clip-path="url(#pcc285f6174)" style="fill: none; stroke: #ff0000; stroke-width: 2.5; stroke-linecap: square"/>
   </g>
   <g id="patch_3">
    <path d="M 56.549063 358.605375 
L 56.549063 25.965375 
" style="fill: none; stroke: #000000; stroke-width: 0.8; stroke-linejoin: miter; stroke-linecap: square"/>
   </g>
   <g id="patch_4">
    <path d="M 391.349063 358.605375 
L 391.349063 25.965375 
" style="fill: none; stroke: #000000; stroke-width: 0.8; stroke-linejoin: miter; stroke-linecap: square"/>
   </g>
   <g id="patch_5">
    <path d="M 56.549063 358.605375 
L 391.349063 358.605375 
" style="fill: none; stroke: #000000; stroke-width: 0.8; stroke-linejoin: miter; stroke-linecap: square"/>
   </g>
   <g id="patch_6">
    <path d="M 56.549063 25.965375 
L 391.349063 25.965375 
" style="fill: none; stroke: #000000; stroke-width: 0.8; stroke-linejoin: miter; stroke-linecap: square"/>
   </g>
   <g id="text_15">
    <!-- FakeNewsNet: Precision-Recall -->
    <g transform="translate(77.915063 19.965375) scale(0.168 -0.168)">
     <defs>
      <path id="DejaVuSans-Bold-46" d="M 588 4666 
L 3834 4666 
L 3834 3756 
L 1791 3756 
L 1791 2888 
L 3713 2888 
L 3713 1978 
L 1791 1978 
L 1791 0 
L 588 0 
L 588 4666 
z
" transform="scale(0.015625)"/>
      <path id="DejaVuSans-Bold-6b" d="M 538 4863 
L 1656 4863 
L 1656 2216 
L 2944 3500 
L 4244 3500 
L 2534 1894 
L 4378 0 
L 3022 0 
L 1656 1459 
L 1656 0 
L 538 0 
L 538 4863 
z
" transform="scale(0.015625)"/>
      <path id="DejaVuSans-Bold-4e" d="M 588 4666 
L 1931 4666 
L 3628 1466 
L 3628 4666 
L 4769 4666 
L 4769 0 
L 3425 0 
L 1728 3200 
L 1728 0 
L 588 0 
L 588 4666 
z
" transform="scale(0.015625)"/>
      <path id="DejaVuSans-Bold-77" d="M 225 3500 
L 1313 3500 
L 1900 1088 
L 2491 3500 
L 3425 3500 
L 4013 1113 
L 4603 3500 
L 5691 3500 
L 4769 0 
L 3547 0 
L 2956 2406 
L 2369 0 
L 1147 0 
L 225 3500 
z
" transform="scale(0.015625)"/>
      <path id="DejaVuSans-Bold-74" d="M 1759 4494 
L 1759 3500 
L 2913 3500 
L 2913 2700 
L 1759 2700 
L 1759 1216 
Q 1759 972 1856 886 
Q 1953 800 2241 800 
L 2816 800 
L 2816 0 
L 1856 0 
Q 1194 0 917 276 
Q 641 553 641 1216 
L 641 2700 
L 84 2700 
L 84 3500 
L 641 3500 
L 641 4494 
L 1759 4494 
z
" transform="scale(0.015625)"/>
      <path id="DejaVuSans-Bold-3a" d="M 716 3500 
L 1844 3500 
L 1844 2291 
L 716 2291 
L 716 3500 
z
M 716 1209 
L 1844 1209 
L 1844 0 
L 716 0 
L 716 1209 
z
" transform="scale(0.015625)"/>
      <path id="DejaVuSans-Bold-20" transform="scale(0.015625)"/>
      <path id="DejaVuSans-Bold-2d" d="M 347 2297 
L 2309 2297 
L 2309 1388 
L 347 1388 
L 347 2297 
z
" transform="scale(0.015625)"/>
     </defs>
     <use xlink:href="#DejaVuSans-Bold-46"/>
     <use xlink:href="#DejaVuSans-Bold-61" x="62.435547"/>
     <use xlink:href="#DejaVuSans-Bold-6b" x="129.916016"/>
     <use xlink:href="#DejaVuSans-Bold-65" x="193.794922"/>
     <use xlink:href="#DejaVuSans-Bold-4e" x="261.617188"/>
     <use xlink:href="#DejaVuSans-Bold-65" x="345.308594"/>
     <use xlink:href="#DejaVuSans-Bold-77" x="413.130859"/>
     <use xlink:href="#DejaVuSans-Bold-73" x="505.513672"/>
     <use xlink:href="#DejaVuSans-Bold-4e" x="565.035156"/>
     <use xlink:href="#DejaVuSans-Bold-65" x="648.726562"/>
     <use xlink:href="#DejaVuSans-Bold-74" x="716.548828"/>
     <use xlink:href="#DejaVuSans-Bold-3a" x="764.351562"/>
     <use xlink:href="#DejaVuSans-Bold-20" x="804.341797"/>
     <use xlink:href="#DejaVuSans-Bold-50" x="839.15625"/>
     <use xlink:href="#DejaVuSans-Bold-72" x="912.447266"/>
     <use xlink:href="#DejaVuSans-Bold-65" x="961.763672"/>
     <use xlink:href="#DejaVuSans-Bold-63" x="1029.585938"/>
     <use xlink:href="#DejaVuSans-Bold-69" x="1088.863281"/>
     <use xlink:href="#DejaVuSans-Bold-73" x="1123.140625"/>
     <use xlink:href="#DejaVuSans-Bold-69" x="1182.662109"/>
     <use xlink:href="#DejaVuSans-Bold-6f" x="1216.939453"/>
     <use xlink:href="#DejaVuSans-Bold-6e" x="1285.640625"/>
     <use xlink:href="#DejaVuSans-Bold-2d" x="1356.832031"/>
     <use xlink:href="#DejaVuSans-Bold-52" x="1398.335938"/>
     <use xlink:href="#DejaVuSans-Bold-65" x="1475.337891"/>
     <use xlink:href="#DejaVuSans-Bold-63" x="1543.160156"/>
     <use xlink:href="#DejaVuSans-Bold-61" x="1602.4375"/>
     <use xlink:href="#DejaVuSans-Bold-6c" x="1669.917969"/>
     <use xlink:href="#DejaVuSans-Bold-6c" x="1704.195312"/>
    </g>
   </g>
   <g id="legend_1">
    <g id="patch_7">
     <path d="M 66.349063 351.605375 
L 246.835312 351.605375 
Q 249.635312 351.605375 249.635312 348.805375 
L 249.635312 290.492875 
Q 249.635312 287.692875 246.835312 287.692875 
L 66.349063 287.692875 
Q 63.549062 287.692875 63.549062 290.492875 
L 63.549062 348.805375 
Q 63.549062 351.605375 66.349063 351.605375 
z
" style="fill: #ffffff; opacity: 0.8; stroke: #cccccc; stroke-linejoin: miter"/>
    </g>
    <g id="text_16">
     <!-- Method -->
     <g transform="translate(130.995625 302.411) scale(0.12 -0.12)">
      <defs>
       <path id="DejaVuSans-Bold-4d" d="M 588 4666 
L 2119 4666 
L 3181 2169 
L 4250 4666 
L 5778 4666 
L 5778 0 
L 4641 0 
L 4641 3413 
L 3566 897 
L 2803 897 
L 1728 3413 
L 1728 0 
L 588 0 
L 588 4666 
z
" transform="scale(0.015625)"/>
       <path id="DejaVuSans-Bold-68" d="M 4056 2131 
L 4056 0 
L 2931 0 
L 2931 347 
L 2931 1625 
Q 2931 2084 2911 2256 
Q 2891 2428 2841 2509 
Q 2775 2619 2662 2680 
Q 2550 2741 2406 2741 
Q 2056 2741 1856 2470 
Q 1656 2200 1656 1722 
L 1656 0 
L 538 0 
L 538 4863 
L 1656 4863 
L 1656 2988 
Q 1909 3294 2193 3439 
Q 2478 3584 2822 3584 
Q 3428 3584 3742 3212 
Q 4056 2841 4056 2131 
z
" transform="scale(0.015625)"/>
       <path id="DejaVuSans-Bold-64" d="M 2919 2988 
L 2919 4863 
L 4044 4863 
L 4044 0 
L 2919 0 
L 2919 506 
Q 2688 197 2409 53 
Q 2131 -91 1766 -91 
Q 1119 -91 703 423 
Q 288 938 288 1747 
Q 288 2556 703 3070 
Q 1119 3584 1766 3584 
Q 2128 3584 2408 3439 
Q 2688 3294 2919 2988 
z
M 2181 722 
Q 2541 722 2730 984 
Q 2919 1247 2919 1747 
Q 2919 2247 2730 2509 
Q 2541 2772 2181 2772 
Q 1825 2772 1636 2509 
Q 1447 2247 1447 1747 
Q 1447 1247 1636 984 
Q 1825 722 2181 722 
z
" transform="scale(0.015625)"/>
      </defs>
      <use xlink:href="#DejaVuSans-Bold-4d"/>
      <use xlink:href="#DejaVuSans-Bold-65" x="99.511719"/>
      <use xlink:href="#DejaVuSans-Bold-74" x="167.333984"/>
      <use xlink:href="#DejaVuSans-Bold-68" x="215.136719"/>
      <use xlink:href="#DejaVuSans-Bold-6f" x="286.328125"/>
      <use xlink:href="#DejaVuSans-Bold-64" x="355.029297"/>
     </g>
    </g>
    <g id="line2d_27">
     <path d="M 69.149062 317.644438 
L 83.149062 317.644438 
L 97.149062 317.644438 
" style="fill: none; stroke: #0000ff; stroke-width: 2.5; stroke-linecap: square"/>
    </g>
    <g id="text_17">
     <!-- BERT Baseline -->
     <g transform="translate(108.349063 322.544438) scale(0.14 -0.14)">
      <defs>
       <path id="DejaVuSans-Bold-42" d="M 2456 2859 
Q 2741 2859 2887 2984 
Q 3034 3109 3034 3353 
Q 3034 3594 2887 3720 
Q 2741 3847 2456 3847 
L 1791 3847 
L 1791 2859 
L 2456 2859 
z
M 2497 819 
Q 2859 819 3042 972 
Q 3225 1125 3225 1434 
Q 3225 1738 3044 1889 
Q 2863 2041 2497 2041 
L 1791 2041 
L 1791 819 
L 2497 819 
z
M 3616 2497 
Q 4003 2384 4215 2081 
Q 4428 1778 4428 1338 
Q 4428 663 3972 331 
Q 3516 0 2584 0 
L 588 0 
L 588 4666 
L 2394 4666 
Q 3366 4666 3802 4372 
Q 4238 4078 4238 3431 
Q 4238 3091 4078 2852 
Q 3919 2613 3616 2497 
z
" transform="scale(0.015625)"/>
       <path id="DejaVuSans-Bold-45" d="M 588 4666 
L 3834 4666 
L 3834 3756 
L 1791 3756 
L 1791 2888 
L 3713 2888 
L 3713 1978 
L 1791 1978 
L 1791 909 
L 3903 909 
L 3903 0 
L 588 0 
L 588 4666 
z
" transform="scale(0.015625)"/>
       <path id="DejaVuSans-Bold-54" d="M 31 4666 
L 4331 4666 
L 4331 3756 
L 2784 3756 
L 2784 0 
L 1581 0 
L 1581 3756 
L 31 3756 
L 31 4666 
z
" transform="scale(0.015625)"/>
      </defs>
      <use xlink:href="#DejaVuSans-Bold-42"/>
      <use xlink:href="#DejaVuSans-Bold-45" x="76.220703"/>
      <use xlink:href="#DejaVuSans-Bold-52" x="144.53125"/>
      <use xlink:href="#DejaVuSans-Bold-54" x="217.033203"/>
      <use xlink:href="#DejaVuSans-Bold-20" x="285.246094"/>
      <use xlink:href="#DejaVuSans-Bold-42" x="320.060547"/>
      <use xlink:href="#DejaVuSans-Bold-61" x="396.28125"/>
      <use xlink:href="#DejaVuSans-Bold-73" x="463.761719"/>
      <use xlink:href="#DejaVuSans-Bold-65" x="523.283203"/>
      <use xlink:href="#DejaVuSans-Bold-6c" x="591.105469"/>
      <use xlink:href="#DejaVuSans-Bold-69" x="625.382812"/>
      <use xlink:href="#DejaVuSans-Bold-6e" x="659.660156"/>
      <use xlink:href="#DejaVuSans-Bold-65" x="730.851562"/>
     </g>
    </g>
    <g id="line2d_28">
     <path d="M 69.149062 338.193813 
L 83.149062 338.193813 
L 97.149062 338.193813 
" style="fill: none; stroke: #ff0000; stroke-width: 2.5; stroke-linecap: square"/>
    </g>
    <g id="text_18">
     <!-- BERT + Proposed -->
     <g transform="translate(108.349063 343.093813) scale(0.14 -0.14)">
      <defs>
       <path id="DejaVuSans-Bold-2b" d="M 3053 4013 
L 3053 2375 
L 4684 2375 
L 4684 1638 
L 3053 1638 
L 3053 0 
L 2309 0 
L 2309 1638 
L 678 1638 
L 678 2375 
L 2309 2375 
L 2309 4013 
L 3053 4013 
z
" transform="scale(0.015625)"/>
       <path id="DejaVuSans-Bold-70" d="M 1656 506 
L 1656 -1331 
L 538 -1331 
L 538 3500 
L 1656 3500 
L 1656 2988 
Q 1888 3294 2169 3439 
Q 2450 3584 2816 3584 
Q 3463 3584 3878 3070 
Q 4294 2556 4294 1747 
Q 4294 938 3878 423 
Q 3463 -91 2816 -91 
Q 2450 -91 2169 54 
Q 1888 200 1656 506 
z
M 2400 2772 
Q 2041 2772 1848 2508 
Q 1656 2244 1656 1747 
Q 1656 1250 1848 986 
Q 2041 722 2400 722 
Q 2759 722 2948 984 
Q 3138 1247 3138 1747 
Q 3138 2247 2948 2509 
Q 2759 2772 2400 2772 
z
" transform="scale(0.015625)"/>
      </defs>
      <use xlink:href="#DejaVuSans-Bold-42"/>
      <use xlink:href="#DejaVuSans-Bold-45" x="76.220703"/>
      <use xlink:href="#DejaVuSans-Bold-52" x="144.53125"/>
      <use xlink:href="#DejaVuSans-Bold-54" x="217.033203"/>
      <use xlink:href="#DejaVuSans-Bold-20" x="285.246094"/>
      <use xlink:href="#DejaVuSans-Bold-2b" x="320.060547"/>
      <use xlink:href="#DejaVuSans-Bold-20" x="403.849609"/>
      <use xlink:href="#DejaVuSans-Bold-50" x="438.664062"/>
      <use xlink:href="#DejaVuSans-Bold-72" x="511.955078"/>
      <use xlink:href="#DejaVuSans-Bold-6f" x="561.271484"/>
      <use xlink:href="#DejaVuSans-Bold-70" x="629.972656"/>
      <use xlink:href="#DejaVuSans-Bold-6f" x="701.554688"/>
      <use xlink:href="#DejaVuSans-Bold-73" x="770.255859"/>
      <use xlink:href="#DejaVuSans-Bold-65" x="829.777344"/>
      <use xlink:href="#DejaVuSans-Bold-64" x="897.599609"/>
     </g>
    </g>
   </g>
  </g>
 </g>
 <defs>
  <clipPath id="pcc285f6174">
   <rect x="56.549063" y="25.965375" width="334.8" height="332.64"/>
  </clipPath>
 </defs>
</svg>
