<?xml version="1.0" encoding="utf-8" standalone="no"?>
<!DOCTYPE svg PUBLIC "-//W3C//DTD SVG 1.1//EN"
  "http://www.w3.org/Graphics/SVG/1.1/DTD/svg11.dtd">
<svg xmlns:xlink="http://www.w3.org/1999/xlink" width="379.745313pt" height="221.105625pt" viewBox="0 0 379.745313 221.105625" xmlns="http://www.w3.org/2000/svg" version="1.1">
 <metadata>
  <rdf:RDF xmlns:dc="http://purl.org/dc/elements/1.1/" xmlns:cc="http://creativecommons.org/ns#" xmlns:rdf="http://www.w3.org/1999/02/22-rdf-syntax-ns#">
   <cc:Work>
    <dc:type rdf:resource="http://purl.org/dc/dcmitype/StillImage"/>
    <dc:date>2024-05-09T13:11:51.020748</dc:date>
    <dc:format>image/svg+xml</dc:format>
    <dc:creator>
     <cc:Agent>
      <dc:title>Matplotlib v3.6.2, https://matplotlib.org/</dc:title>
     </cc:Agent>
    </dc:creator>
   </cc:Work>
  </rdf:RDF>
 </metadata>
 <defs>
  <style type="text/css">*{stroke-linejoin: round; stroke-linecap: butt}</style>
 </defs>
 <g id="figure_1">
  <g id="patch_1">
   <path d="M 0 221.105625 
L 379.745313 221.105625 
L 379.745313 0 
L 0 0 
z
" style="fill: #ffffff"/>
  </g>
  <g id="axes_1">
   <g id="patch_2">
    <path d="M 37.745313 188.115 
L 372.545313 188.115 
L 372.545313 21.795 
L 37.745313 21.795 
z
" style="fill: #eaeaf2"/>
   </g>
   <g id="matplotlib.axis_1">
    <g id="xtick_1">
     <g id="line2d_1">
      <path d="M 52.963494 188.115 
L 52.963494 21.795 
" clip-path="url(#pfaea08081b)" style="fill: none; stroke: #ffffff; stroke-width: 0.8; stroke-linecap: round"/>
     </g>
     <g id="line2d_2"/>
     <g id="text_1">
      <!-- 0.0 -->
      <g style="fill: #262626" transform="translate(46.013494 198.772813) scale(0.1 -0.1)">
       <defs>
        <path id="ArialMT-30" d="M 266 2259 
Q 266 3072 433 3567 
Q 600 4063 929 4331 
Q 1259 4600 1759 4600 
Q 2128 4600 2406 4451 
Q 2684 4303 2865 4023 
Q 3047 3744 3150 3342 
Q 3253 2941 3253 2259 
Q 3253 1453 3087 958 
Q 2922 463 2592 192 
Q 2263 -78 1759 -78 
Q 1097 -78 719 397 
Q 266 969 266 2259 
z
M 844 2259 
Q 844 1131 1108 757 
Q 1372 384 1759 384 
Q 2147 384 2411 759 
Q 2675 1134 2675 2259 
Q 2675 3391 2411 3762 
Q 2147 4134 1753 4134 
Q 1366 4134 1134 3806 
Q 844 3388 844 2259 
z
" transform="scale(0.015625)"/>
        <path id="ArialMT-2e" d="M 581 0 
L 581 641 
L 1222 641 
L 1222 0 
L 581 0 
z
" transform="scale(0.015625)"/>
       </defs>
       <use xlink:href="#ArialMT-30"/>
       <use xlink:href="#ArialMT-2e" x="55.615234"/>
       <use xlink:href="#ArialMT-30" x="83.398438"/>
      </g>
     </g>
    </g>
    <g id="xtick_2">
     <g id="line2d_3">
      <path d="M 113.836222 188.115 
L 113.836222 21.795 
" clip-path="url(#pfaea08081b)" style="fill: none; stroke: #ffffff; stroke-width: 0.8; stroke-linecap: round"/>
     </g>
     <g id="line2d_4"/>
     <g id="text_2">
      <!-- 0.2 -->
      <g style="fill: #262626" transform="translate(106.886222 198.772813) scale(0.1 -0.1)">
       <defs>
        <path id="ArialMT-32" d="M 3222 541 
L 3222 0 
L 194 0 
Q 188 203 259 391 
Q 375 700 629 1000 
Q 884 1300 1366 1694 
Q 2113 2306 2375 2664 
Q 2638 3022 2638 3341 
Q 2638 3675 2398 3904 
Q 2159 4134 1775 4134 
Q 1369 4134 1125 3890 
Q 881 3647 878 3216 
L 300 3275 
Q 359 3922 746 4261 
Q 1134 4600 1788 4600 
Q 2447 4600 2831 4234 
Q 3216 3869 3216 3328 
Q 3216 3053 3103 2787 
Q 2991 2522 2730 2228 
Q 2469 1934 1863 1422 
Q 1356 997 1212 845 
Q 1069 694 975 541 
L 3222 541 
z
" transform="scale(0.015625)"/>
       </defs>
       <use xlink:href="#ArialMT-30"/>
       <use xlink:href="#ArialMT-2e" x="55.615234"/>
       <use xlink:href="#ArialMT-32" x="83.398438"/>
      </g>
     </g>
    </g>
    <g id="xtick_3">
     <g id="line2d_5">
      <path d="M 174.708949 188.115 
L 174.708949 21.795 
" clip-path="url(#pfaea08081b)" style="fill: none; stroke: #ffffff; stroke-width: 0.8; stroke-linecap: round"/>
     </g>
     <g id="line2d_6"/>
     <g id="text_3">
      <!-- 0.4 -->
      <g style="fill: #262626" transform="translate(167.758949 198.772813) scale(0.1 -0.1)">
       <defs>
        <path id="ArialMT-34" d="M 2069 0 
L 2069 1097 
L 81 1097 
L 81 1613 
L 2172 4581 
L 2631 4581 
L 2631 1613 
L 3250 1613 
L 3250 1097 
L 2631 1097 
L 2631 0 
L 2069 0 
z
M 2069 1613 
L 2069 3678 
L 634 1613 
L 2069 1613 
z
" transform="scale(0.015625)"/>
       </defs>
       <use xlink:href="#ArialMT-30"/>
       <use xlink:href="#ArialMT-2e" x="55.615234"/>
       <use xlink:href="#ArialMT-34" x="83.398438"/>
      </g>
     </g>
    </g>
    <g id="xtick_4">
     <g id="line2d_7">
      <path d="M 235.581676 188.115 
L 235.581676 21.795 
" clip-path="url(#pfaea08081b)" style="fill: none; stroke: #ffffff; stroke-width: 0.8; stroke-linecap: round"/>
     </g>
     <g id="line2d_8"/>
     <g id="text_4">
      <!-- 0.6 -->
      <g style="fill: #262626" transform="translate(228.631676 198.772813) scale(0.1 -0.1)">
       <defs>
        <path id="ArialMT-36" d="M 3184 3459 
L 2625 3416 
Q 2550 3747 2413 3897 
Q 2184 4138 1850 4138 
Q 1581 4138 1378 3988 
Q 1113 3794 959 3422 
Q 806 3050 800 2363 
Q 1003 2672 1297 2822 
Q 1591 2972 1913 2972 
Q 2475 2972 2870 2558 
Q 3266 2144 3266 1488 
Q 3266 1056 3080 686 
Q 2894 316 2569 119 
Q 2244 -78 1831 -78 
Q 1128 -78 684 439 
Q 241 956 241 2144 
Q 241 3472 731 4075 
Q 1159 4600 1884 4600 
Q 2425 4600 2770 4297 
Q 3116 3994 3184 3459 
z
M 888 1484 
Q 888 1194 1011 928 
Q 1134 663 1356 523 
Q 1578 384 1822 384 
Q 2178 384 2434 671 
Q 2691 959 2691 1453 
Q 2691 1928 2437 2201 
Q 2184 2475 1800 2475 
Q 1419 2475 1153 2201 
Q 888 1928 888 1484 
z
" transform="scale(0.015625)"/>
       </defs>
       <use xlink:href="#ArialMT-30"/>
       <use xlink:href="#ArialMT-2e" x="55.615234"/>
       <use xlink:href="#ArialMT-36" x="83.398438"/>
      </g>
     </g>
    </g>
    <g id="xtick_5">
     <g id="line2d_9">
      <path d="M 296.454403 188.115 
L 296.454403 21.795 
" clip-path="url(#pfaea08081b)" style="fill: none; stroke: #ffffff; stroke-width: 0.8; stroke-linecap: round"/>
     </g>
     <g id="line2d_10"/>
     <g id="text_5">
      <!-- 0.8 -->
      <g style="fill: #262626" transform="translate(289.504403 198.772813) scale(0.1 -0.1)">
       <defs>
        <path id="ArialMT-38" d="M 1131 2484 
Q 781 2613 612 2850 
Q 444 3088 444 3419 
Q 444 3919 803 4259 
Q 1163 4600 1759 4600 
Q 2359 4600 2725 4251 
Q 3091 3903 3091 3403 
Q 3091 3084 2923 2848 
Q 2756 2613 2416 2484 
Q 2838 2347 3058 2040 
Q 3278 1734 3278 1309 
Q 3278 722 2862 322 
Q 2447 -78 1769 -78 
Q 1091 -78 675 323 
Q 259 725 259 1325 
Q 259 1772 486 2073 
Q 713 2375 1131 2484 
z
M 1019 3438 
Q 1019 3113 1228 2906 
Q 1438 2700 1772 2700 
Q 2097 2700 2305 2904 
Q 2513 3109 2513 3406 
Q 2513 3716 2298 3927 
Q 2084 4138 1766 4138 
Q 1444 4138 1231 3931 
Q 1019 3725 1019 3438 
z
M 838 1322 
Q 838 1081 952 856 
Q 1066 631 1291 507 
Q 1516 384 1775 384 
Q 2178 384 2440 643 
Q 2703 903 2703 1303 
Q 2703 1709 2433 1975 
Q 2163 2241 1756 2241 
Q 1359 2241 1098 1978 
Q 838 1716 838 1322 
z
" transform="scale(0.015625)"/>
       </defs>
       <use xlink:href="#ArialMT-30"/>
       <use xlink:href="#ArialMT-2e" x="55.615234"/>
       <use xlink:href="#ArialMT-38" x="83.398438"/>
      </g>
     </g>
    </g>
    <g id="xtick_6">
     <g id="line2d_11">
      <path d="M 357.327131 188.115 
L 357.327131 21.795 
" clip-path="url(#pfaea08081b)" style="fill: none; stroke: #ffffff; stroke-width: 0.8; stroke-linecap: round"/>
     </g>
     <g id="line2d_12"/>
     <g id="text_6">
      <!-- 1.0 -->
      <g style="fill: #262626" transform="translate(350.377131 198.772813) scale(0.1 -0.1)">
       <defs>
        <path id="ArialMT-31" d="M 2384 0 
L 1822 0 
L 1822 3584 
Q 1619 3391 1289 3197 
Q 959 3003 697 2906 
L 697 3450 
Q 1169 3672 1522 3987 
Q 1875 4303 2022 4600 
L 2384 4600 
L 2384 0 
z
" transform="scale(0.015625)"/>
       </defs>
       <use xlink:href="#ArialMT-31"/>
       <use xlink:href="#ArialMT-2e" x="55.615234"/>
       <use xlink:href="#ArialMT-30" x="83.398438"/>
      </g>
     </g>
    </g>
    <g id="text_7">
     <!-- Recall -->
     <g style="fill: #262626" transform="translate(191.251563 211.918125) scale(0.1 -0.1)">
      <defs>
       <path id="ArialMT-52" d="M 503 0 
L 503 4581 
L 2534 4581 
Q 3147 4581 3465 4457 
Q 3784 4334 3975 4021 
Q 4166 3709 4166 3331 
Q 4166 2844 3850 2509 
Q 3534 2175 2875 2084 
Q 3116 1969 3241 1856 
Q 3506 1613 3744 1247 
L 4541 0 
L 3778 0 
L 3172 953 
Q 2906 1366 2734 1584 
Q 2563 1803 2427 1890 
Q 2291 1978 2150 2013 
Q 2047 2034 1813 2034 
L 1109 2034 
L 1109 0 
L 503 0 
z
M 1109 2559 
L 2413 2559 
Q 2828 2559 3062 2645 
Q 3297 2731 3419 2920 
Q 3541 3109 3541 3331 
Q 3541 3656 3305 3865 
Q 3069 4075 2559 4075 
L 1109 4075 
L 1109 2559 
z
" transform="scale(0.015625)"/>
       <path id="ArialMT-65" d="M 2694 1069 
L 3275 997 
Q 3138 488 2766 206 
Q 2394 -75 1816 -75 
Q 1088 -75 661 373 
Q 234 822 234 1631 
Q 234 2469 665 2931 
Q 1097 3394 1784 3394 
Q 2450 3394 2872 2941 
Q 3294 2488 3294 1666 
Q 3294 1616 3291 1516 
L 816 1516 
Q 847 969 1125 678 
Q 1403 388 1819 388 
Q 2128 388 2347 550 
Q 2566 713 2694 1069 
z
M 847 1978 
L 2700 1978 
Q 2663 2397 2488 2606 
Q 2219 2931 1791 2931 
Q 1403 2931 1139 2672 
Q 875 2413 847 1978 
z
" transform="scale(0.015625)"/>
       <path id="ArialMT-63" d="M 2588 1216 
L 3141 1144 
Q 3050 572 2676 248 
Q 2303 -75 1759 -75 
Q 1078 -75 664 370 
Q 250 816 250 1647 
Q 250 2184 428 2587 
Q 606 2991 970 3192 
Q 1334 3394 1763 3394 
Q 2303 3394 2647 3120 
Q 2991 2847 3088 2344 
L 2541 2259 
Q 2463 2594 2264 2762 
Q 2066 2931 1784 2931 
Q 1359 2931 1093 2626 
Q 828 2322 828 1663 
Q 828 994 1084 691 
Q 1341 388 1753 388 
Q 2084 388 2306 591 
Q 2528 794 2588 1216 
z
" transform="scale(0.015625)"/>
       <path id="ArialMT-61" d="M 2588 409 
Q 2275 144 1986 34 
Q 1697 -75 1366 -75 
Q 819 -75 525 192 
Q 231 459 231 875 
Q 231 1119 342 1320 
Q 453 1522 633 1644 
Q 813 1766 1038 1828 
Q 1203 1872 1538 1913 
Q 2219 1994 2541 2106 
Q 2544 2222 2544 2253 
Q 2544 2597 2384 2738 
Q 2169 2928 1744 2928 
Q 1347 2928 1158 2789 
Q 969 2650 878 2297 
L 328 2372 
Q 403 2725 575 2942 
Q 747 3159 1072 3276 
Q 1397 3394 1825 3394 
Q 2250 3394 2515 3294 
Q 2781 3194 2906 3042 
Q 3031 2891 3081 2659 
Q 3109 2516 3109 2141 
L 3109 1391 
Q 3109 606 3145 398 
Q 3181 191 3288 0 
L 2700 0 
Q 2613 175 2588 409 
z
M 2541 1666 
Q 2234 1541 1622 1453 
Q 1275 1403 1131 1340 
Q 988 1278 909 1158 
Q 831 1038 831 891 
Q 831 666 1001 516 
Q 1172 366 1500 366 
Q 1825 366 2078 508 
Q 2331 650 2450 897 
Q 2541 1088 2541 1459 
L 2541 1666 
z
" transform="scale(0.015625)"/>
       <path id="ArialMT-6c" d="M 409 0 
L 409 4581 
L 972 4581 
L 972 0 
L 409 0 
z
" transform="scale(0.015625)"/>
      </defs>
      <use xlink:href="#ArialMT-52"/>
      <use xlink:href="#ArialMT-65" x="72.216797"/>
      <use xlink:href="#ArialMT-63" x="127.832031"/>
      <use xlink:href="#ArialMT-61" x="177.832031"/>
      <use xlink:href="#ArialMT-6c" x="233.447266"/>
      <use xlink:href="#ArialMT-6c" x="255.664062"/>
     </g>
    </g>
   </g>
   <g id="matplotlib.axis_2">
    <g id="ytick_1">
     <g id="line2d_13">
      <path d="M 37.745313 180.555 
L 372.545313 180.555 
" clip-path="url(#pfaea08081b)" style="fill: none; stroke: #ffffff; stroke-width: 0.8; stroke-linecap: round"/>
     </g>
     <g id="line2d_14"/>
     <g id="text_8">
      <!-- 0.0 -->
      <g style="fill: #262626" transform="translate(20.345313 184.133906) scale(0.1 -0.1)">
       <use xlink:href="#ArialMT-30"/>
       <use xlink:href="#ArialMT-2e" x="55.615234"/>
       <use xlink:href="#ArialMT-30" x="83.398438"/>
      </g>
     </g>
    </g>
    <g id="ytick_2">
     <g id="line2d_15">
      <path d="M 37.745313 150.315 
L 372.545313 150.315 
" clip-path="url(#pfaea08081b)" style="fill: none; stroke: #ffffff; stroke-width: 0.8; stroke-linecap: round"/>
     </g>
     <g id="line2d_16"/>
     <g id="text_9">
      <!-- 0.2 -->
      <g style="fill: #262626" transform="translate(20.345313 153.893906) scale(0.1 -0.1)">
       <use xlink:href="#ArialMT-30"/>
       <use xlink:href="#ArialMT-2e" x="55.615234"/>
       <use xlink:href="#ArialMT-32" x="83.398438"/>
      </g>
     </g>
    </g>
    <g id="ytick_3">
     <g id="line2d_17">
      <path d="M 37.745313 120.075 
L 372.545313 120.075 
" clip-path="url(#pfaea08081b)" style="fill: none; stroke: #ffffff; stroke-width: 0.8; stroke-linecap: round"/>
     </g>
     <g id="line2d_18"/>
     <g id="text_10">
      <!-- 0.4 -->
      <g style="fill: #262626" transform="translate(20.345313 123.653906) scale(0.1 -0.1)">
       <use xlink:href="#ArialMT-30"/>
       <use xlink:href="#ArialMT-2e" x="55.615234"/>
       <use xlink:href="#ArialMT-34" x="83.398438"/>
      </g>
     </g>
    </g>
    <g id="ytick_4">
     <g id="line2d_19">
      <path d="M 37.745313 89.835 
L 372.545313 89.835 
" clip-path="url(#pfaea08081b)" style="fill: none; stroke: #ffffff; stroke-width: 0.8; stroke-linecap: round"/>
     </g>
     <g id="line2d_20"/>
     <g id="text_11">
      <!-- 0.6 -->
      <g style="fill: #262626" transform="translate(20.345313 93.413906) scale(0.1 -0.1)">
       <use xlink:href="#ArialMT-30"/>
       <use xlink:href="#ArialMT-2e" x="55.615234"/>
       <use xlink:href="#ArialMT-36" x="83.398438"/>
      </g>
     </g>
    </g>
    <g id="ytick_5">
     <g id="line2d_21">
      <path d="M 37.745313 59.595 
L 372.545313 59.595 
" clip-path="url(#pfaea08081b)" style="fill: none; stroke: #ffffff; stroke-width: 0.8; stroke-linecap: round"/>
     </g>
     <g id="line2d_22"/>
     <g id="text_12">
      <!-- 0.8 -->
      <g style="fill: #262626" transform="translate(20.345313 63.173906) scale(0.1 -0.1)">
       <use xlink:href="#ArialMT-30"/>
       <use xlink:href="#ArialMT-2e" x="55.615234"/>
       <use xlink:href="#ArialMT-38" x="83.398438"/>
      </g>
     </g>
    </g>
    <g id="ytick_6">
     <g id="line2d_23">
      <path d="M 37.745313 29.355 
L 372.545313 29.355 
" clip-path="url(#pfaea08081b)" style="fill: none; stroke: #ffffff; stroke-width: 0.8; stroke-linecap: round"/>
     </g>
     <g id="line2d_24"/>
     <g id="text_13">
      <!-- 1.0 -->
      <g style="fill: #262626" transform="translate(20.345313 32.933906) scale(0.1 -0.1)">
       <use xlink:href="#ArialMT-31"/>
       <use xlink:href="#ArialMT-2e" x="55.615234"/>
       <use xlink:href="#ArialMT-30" x="83.398438"/>
      </g>
     </g>
    </g>
    <g id="text_14">
     <!-- Precision -->
     <g style="fill: #262626" transform="translate(14.357813 125.518281) rotate(-90) scale(0.1 -0.1)">
      <defs>
       <path id="ArialMT-50" d="M 494 0 
L 494 4581 
L 2222 4581 
Q 2678 4581 2919 4538 
Q 3256 4481 3484 4323 
Q 3713 4166 3852 3881 
Q 3991 3597 3991 3256 
Q 3991 2672 3619 2267 
Q 3247 1863 2275 1863 
L 1100 1863 
L 1100 0 
L 494 0 
z
M 1100 2403 
L 2284 2403 
Q 2872 2403 3119 2622 
Q 3366 2841 3366 3238 
Q 3366 3525 3220 3729 
Q 3075 3934 2838 4000 
Q 2684 4041 2272 4041 
L 1100 4041 
L 1100 2403 
z
" transform="scale(0.015625)"/>
       <path id="ArialMT-72" d="M 416 0 
L 416 3319 
L 922 3319 
L 922 2816 
Q 1116 3169 1280 3281 
Q 1444 3394 1641 3394 
Q 1925 3394 2219 3213 
L 2025 2691 
Q 1819 2813 1613 2813 
Q 1428 2813 1281 2702 
Q 1134 2591 1072 2394 
Q 978 2094 978 1738 
L 978 0 
L 416 0 
z
" transform="scale(0.015625)"/>
       <path id="ArialMT-69" d="M 425 3934 
L 425 4581 
L 988 4581 
L 988 3934 
L 425 3934 
z
M 425 0 
L 425 3319 
L 988 3319 
L 988 0 
L 425 0 
z
" transform="scale(0.015625)"/>
       <path id="ArialMT-73" d="M 197 991 
L 753 1078 
Q 800 744 1014 566 
Q 1228 388 1613 388 
Q 2000 388 2187 545 
Q 2375 703 2375 916 
Q 2375 1106 2209 1216 
Q 2094 1291 1634 1406 
Q 1016 1563 777 1677 
Q 538 1791 414 1992 
Q 291 2194 291 2438 
Q 291 2659 392 2848 
Q 494 3038 669 3163 
Q 800 3259 1026 3326 
Q 1253 3394 1513 3394 
Q 1903 3394 2198 3281 
Q 2494 3169 2634 2976 
Q 2775 2784 2828 2463 
L 2278 2388 
Q 2241 2644 2061 2787 
Q 1881 2931 1553 2931 
Q 1166 2931 1000 2803 
Q 834 2675 834 2503 
Q 834 2394 903 2306 
Q 972 2216 1119 2156 
Q 1203 2125 1616 2013 
Q 2213 1853 2448 1751 
Q 2684 1650 2818 1456 
Q 2953 1263 2953 975 
Q 2953 694 2789 445 
Q 2625 197 2315 61 
Q 2006 -75 1616 -75 
Q 969 -75 630 194 
Q 291 463 197 991 
z
" transform="scale(0.015625)"/>
       <path id="ArialMT-6f" d="M 213 1659 
Q 213 2581 725 3025 
Q 1153 3394 1769 3394 
Q 2453 3394 2887 2945 
Q 3322 2497 3322 1706 
Q 3322 1066 3130 698 
Q 2938 331 2570 128 
Q 2203 -75 1769 -75 
Q 1072 -75 642 372 
Q 213 819 213 1659 
z
M 791 1659 
Q 791 1022 1069 705 
Q 1347 388 1769 388 
Q 2188 388 2466 706 
Q 2744 1025 2744 1678 
Q 2744 2294 2464 2611 
Q 2184 2928 1769 2928 
Q 1347 2928 1069 2612 
Q 791 2297 791 1659 
z
" transform="scale(0.015625)"/>
       <path id="ArialMT-6e" d="M 422 0 
L 422 3319 
L 928 3319 
L 928 2847 
Q 1294 3394 1984 3394 
Q 2284 3394 2536 3286 
Q 2788 3178 2913 3003 
Q 3038 2828 3088 2588 
Q 3119 2431 3119 2041 
L 3119 0 
L 2556 0 
L 2556 2019 
Q 2556 2363 2490 2533 
Q 2425 2703 2258 2804 
Q 2091 2906 1866 2906 
Q 1506 2906 1245 2678 
Q 984 2450 984 1813 
L 984 0 
L 422 0 
z
" transform="scale(0.015625)"/>
      </defs>
      <use xlink:href="#ArialMT-50"/>
      <use xlink:href="#ArialMT-72" x="66.699219"/>
      <use xlink:href="#ArialMT-65" x="100"/>
      <use xlink:href="#ArialMT-63" x="155.615234"/>
      <use xlink:href="#ArialMT-69" x="205.615234"/>
      <use xlink:href="#ArialMT-73" x="227.832031"/>
      <use xlink:href="#ArialMT-69" x="277.832031"/>
      <use xlink:href="#ArialMT-6f" x="300.048828"/>
      <use xlink:href="#ArialMT-6e" x="355.664062"/>
     </g>
    </g>
   </g>
   <g id="line2d_25">
    <path d="M 357.327131 111.003 
L 357.327131 106.877034 
L 354.68049 103.259933 
L 354.68049 98.082273 
L 354.68049 96.060882 
L 354.68049 90.309974 
L 354.68049 86.364836 
L 352.03385 81.794306 
L 352.03385 78.246018 
L 352.03385 75.735368 
L 352.03385 73.098396 
L 352.03385 71.031923 
L 352.03385 69.609545 
L 352.03385 68.884412 
L 352.03385 66.651 
L 352.03385 65.886544 
L 349.38721 65.355 
L 349.38721 62.132622 
L 349.38721 60.452872 
L 346.740569 58.049891 
L 346.740569 56.235 
L 346.740569 55.307239 
L 346.740569 54.365526 
L 346.740569 52.438969 
L 344.093929 51.624767 
L 341.447289 51.79875 
L 341.447289 50.784921 
L 341.447289 49.755 
L 338.800648 49.9182 
L 338.800648 48.864677 
L 338.800648 47.794024 
L 338.800648 46.70582 
L 338.800648 44.475 
L 338.800648 43.331471 
L 338.800648 42.168559 
L 336.154008 42.278077 
L 333.507368 41.188043 
L 330.860728 41.291842 
L 330.860728 40.059425 
L 325.567447 40.252297 
L 325.567447 38.976818 
L 322.920807 39.065092 
L 320.274166 39.155 
L 314.980886 39.339906 
L 312.334245 39.435 
L 309.687605 38.162767 
L 307.040965 38.249118 
L 304.394324 38.337178 
L 293.807763 37.23 
L 288.514482 37.397553 
L 285.867842 37.484032 
L 280.574562 36.075 
L 272.634641 34.629419 
L 269.988 34.691471 
L 259.401439 34.955 
L 248.814878 33.333947 
L 214.408554 31.79371 
L 174.708949 32.572021 
L 137.655984 29.355 
L 52.963494 29.355 
" clip-path="url(#pfaea08081b)" style="fill: none; stroke: #0000ff; stroke-width: 1.5; stroke-linecap: round"/>
   </g>
   <g id="line2d_26">
    <path d="M 357.327131 111.003 
L 357.327131 75.173182 
L 352.03385 75.735368 
L 352.03385 71.729522 
L 349.38721 72.001154 
L 349.38721 66.901309 
L 344.093929 67.412143 
L 344.093929 64.247308 
L 341.447289 64.493028 
L 341.447289 62.835 
L 338.800648 63.075863 
L 338.800648 61.360839 
L 336.154008 61.596176 
L 336.154008 57.991364 
L 330.860728 58.431923 
L 330.860728 56.52375 
L 325.567447 56.955 
L 325.567447 54.961452 
L 322.920807 55.169634 
L 322.920807 47.603276 
L 309.687605 48.42527 
L 309.687605 47.224091 
L 304.394324 47.555 
L 304.394324 46.312009 
L 301.747684 46.471981 
L 301.747684 43.893462 
L 299.101044 44.034612 
L 299.101044 42.696176 
L 275.281281 43.987258 
L 275.281281 42.502826 
L 254.108158 43.755 
L 254.108158 42.106807 
L 248.814878 42.421667 
L 248.814878 40.695 
L 230.288396 41.782397 
L 217.055194 42.696176 
L 217.055194 38.518636 
L 214.408554 38.659615 
L 214.408554 36.4425 
L 195.882071 37.312895 
L 190.588791 37.602273 
L 190.588791 34.955 
L 174.708949 35.655 
L 174.708949 32.572021 
L 153.535826 33.231923 
L 137.655984 33.936818 
L 124.422783 34.755 
L 116.482862 35.403 
L 116.482862 29.355 
L 52.963494 29.355 
L 52.963494 29.355 
" clip-path="url(#pfaea08081b)" style="fill: none; stroke: #ff0000; stroke-width: 1.5; stroke-linecap: round"/>
   </g>
   <g id="line2d_27">
    <path d="M 357.327131 111.003 
L 357.327131 108.405622 
L 354.68049 108.735 
L 354.68049 88.379599 
L 352.03385 88.696935 
L 352.03385 82.361897 
L 349.38721 82.668295 
L 349.38721 80.940882 
L 346.740569 81.246124 
L 346.740569 76.955 
L 344.093929 77.250652 
L 344.093929 71.133947 
L 341.447289 71.410629 
L 341.447289 66.105 
L 338.800648 66.361993 
L 338.800648 65.557817 
L 336.154008 65.814574 
L 336.154008 64.163633 
L 328.214087 64.931471 
L 328.214087 57.705 
L 325.567447 57.928228 
L 325.567447 54.961452 
L 322.920807 55.169634 
L 322.920807 54.141885 
L 320.274166 54.346736 
L 320.274166 53.295 
L 309.687605 54.120517 
L 309.687605 53.021087 
L 304.394324 53.439956 
L 304.394324 47.555 
L 299.101044 47.898396 
L 299.101044 46.635 
L 291.161123 47.143235 
L 291.161123 45.822327 
L 283.221202 46.326429 
L 283.221202 44.942629 
L 280.574562 45.105 
L 280.574562 43.679211 
L 259.401439 44.996379 
L 251.461518 45.555 
L 251.461518 43.928494 
L 232.935036 45.270789 
L 217.055194 46.635 
L 217.055194 44.69413 
L 211.761913 45.152015 
L 211.761913 43.100455 
L 195.882071 44.475 
L 190.588791 44.996379 
L 190.588791 40.155 
L 177.355589 41.213824 
L 164.122388 42.502826 
L 153.535826 43.755 
L 142.949265 45.270789 
L 135.009344 46.635 
L 127.069423 48.255 
L 121.776143 49.515 
L 116.482862 50.955 
L 113.836222 51.755 
L 113.836222 46.801154 
L 108.542941 48.255 
L 103.24966 49.973182 
L 97.95638 52.035 
L 95.309739 53.228684 
L 92.663099 54.555 
L 90.016459 56.037353 
L 90.016459 48.255 
L 87.369818 49.515 
L 84.723178 50.955 
L 82.076538 52.616538 
L 79.429897 54.555 
L 76.783257 56.845909 
L 74.136617 59.595 
L 74.136617 46.155 
L 71.489977 48.255 
L 68.843336 50.955 
L 66.196696 54.555 
L 63.550056 59.595 
L 60.903415 67.155 
L 58.256775 79.755 
L 55.610135 104.955 
L 52.963494 180.555 
L 52.963494 29.355 
L 52.963494 29.355 
" clip-path="url(#pfaea08081b)" style="fill: none; stroke: #008000; stroke-width: 1.5; stroke-linecap: round"/>
   </g>
   <g id="patch_3">
    <path d="M 37.745313 188.115 
L 37.745313 21.795 
" style="fill: none"/>
   </g>
   <g id="patch_4">
    <path d="M 372.545313 188.115 
L 372.545313 21.795 
" style="fill: none"/>
   </g>
   <g id="patch_5">
    <path d="M 37.745313 188.115 
L 372.545313 188.115 
" style="fill: none"/>
   </g>
   <g id="patch_6">
    <path d="M 37.745313 21.795 
L 372.545313 21.795 
" style="fill: none"/>
   </g>
   <g id="text_15">
    <!-- Крива Precision-Recall -->
    <g style="fill: #262626" transform="translate(143.4925 15.795) scale(0.12 -0.12)">
     <defs>
      <path id="ArialMT-41a" d="M 503 4581 
L 1109 4581 
L 1109 2575 
Q 1525 2575 1694 2736 
Q 1863 2897 2125 3509 
Q 2316 3959 2439 4145 
Q 2563 4331 2791 4457 
Q 3019 4584 3294 4584 
Q 3644 4584 3663 4578 
L 3663 4053 
Q 3631 4053 3541 4056 
Q 3441 4059 3419 4059 
Q 3128 4059 2988 3919 
Q 2844 3778 2659 3319 
Q 2428 2738 2268 2586 
Q 2109 2434 1888 2344 
Q 2331 2222 2763 1525 
L 3706 0 
L 2953 0 
L 2188 1244 
Q 1872 1759 1659 1951 
Q 1447 2144 1109 2144 
L 1109 0 
L 503 0 
L 503 4581 
z
" transform="scale(0.015625)"/>
      <path id="ArialMT-440" d="M 422 -1272 
L 422 3319 
L 934 3319 
L 934 2888 
Q 1116 3141 1344 3267 
Q 1572 3394 1897 3394 
Q 2322 3394 2647 3175 
Q 2972 2956 3137 2557 
Q 3303 2159 3303 1684 
Q 3303 1175 3120 767 
Q 2938 359 2589 142 
Q 2241 -75 1856 -75 
Q 1575 -75 1351 44 
Q 1128 163 984 344 
L 984 -1272 
L 422 -1272 
z
M 931 1641 
Q 931 1000 1190 694 
Q 1450 388 1819 388 
Q 2194 388 2461 705 
Q 2728 1022 2728 1688 
Q 2728 2322 2467 2637 
Q 2206 2953 1844 2953 
Q 1484 2953 1207 2617 
Q 931 2281 931 1641 
z
" transform="scale(0.015625)"/>
      <path id="ArialMT-438" d="M 422 3319 
L 984 3319 
L 984 788 
L 2544 3319 
L 3150 3319 
L 3150 0 
L 2588 0 
L 2588 2516 
L 1028 0 
L 422 0 
L 422 3319 
z
" transform="scale(0.015625)"/>
      <path id="ArialMT-432" d="M 425 3319 
L 1722 3319 
Q 2200 3319 2433 3239 
Q 2666 3159 2833 2946 
Q 3000 2734 3000 2438 
Q 3000 2200 2901 2023 
Q 2803 1847 2606 1728 
Q 2841 1650 2995 1436 
Q 3150 1222 3150 928 
Q 3119 456 2812 228 
Q 2506 0 1922 0 
L 425 0 
L 425 3319 
z
M 988 1922 
L 1588 1922 
Q 1947 1922 2081 1959 
Q 2216 1997 2322 2111 
Q 2428 2225 2428 2384 
Q 2428 2647 2242 2750 
Q 2056 2853 1606 2853 
L 988 2853 
L 988 1922 
z
M 988 463 
L 1728 463 
Q 2206 463 2384 573 
Q 2563 684 2572 956 
Q 2572 1116 2469 1252 
Q 2366 1388 2200 1423 
Q 2034 1459 1669 1459 
L 988 1459 
L 988 463 
z
" transform="scale(0.015625)"/>
      <path id="ArialMT-430" d="M 2588 409 
Q 2275 144 1986 34 
Q 1697 -75 1366 -75 
Q 819 -75 525 192 
Q 231 459 231 875 
Q 231 1119 342 1320 
Q 453 1522 633 1644 
Q 813 1766 1038 1828 
Q 1203 1872 1538 1913 
Q 2219 1994 2541 2106 
Q 2544 2222 2544 2253 
Q 2544 2597 2384 2738 
Q 2169 2928 1744 2928 
Q 1347 2928 1158 2789 
Q 969 2650 878 2297 
L 328 2372 
Q 403 2725 575 2942 
Q 747 3159 1072 3276 
Q 1397 3394 1825 3394 
Q 2250 3394 2515 3294 
Q 2781 3194 2906 3042 
Q 3031 2891 3081 2659 
Q 3109 2516 3109 2141 
L 3109 1391 
Q 3109 606 3145 398 
Q 3181 191 3288 0 
L 2700 0 
Q 2613 175 2588 409 
z
M 2541 1666 
Q 2234 1541 1622 1453 
Q 1275 1403 1131 1340 
Q 988 1278 909 1158 
Q 831 1038 831 891 
Q 831 666 1001 516 
Q 1172 366 1500 366 
Q 1825 366 2078 508 
Q 2331 650 2450 897 
Q 2541 1088 2541 1459 
L 2541 1666 
z
" transform="scale(0.015625)"/>
      <path id="ArialMT-20" transform="scale(0.015625)"/>
      <path id="ArialMT-2d" d="M 203 1375 
L 203 1941 
L 1931 1941 
L 1931 1375 
L 203 1375 
z
" transform="scale(0.015625)"/>
     </defs>
     <use xlink:href="#ArialMT-41a"/>
     <use xlink:href="#ArialMT-440" x="58.251953"/>
     <use xlink:href="#ArialMT-438" x="113.867188"/>
     <use xlink:href="#ArialMT-432" x="169.726562"/>
     <use xlink:href="#ArialMT-430" x="221.726562"/>
     <use xlink:href="#ArialMT-20" x="277.341797"/>
     <use xlink:href="#ArialMT-50" x="305.125"/>
     <use xlink:href="#ArialMT-72" x="371.824219"/>
     <use xlink:href="#ArialMT-65" x="405.125"/>
     <use xlink:href="#ArialMT-63" x="460.740234"/>
     <use xlink:href="#ArialMT-69" x="510.740234"/>
     <use xlink:href="#ArialMT-73" x="532.957031"/>
     <use xlink:href="#ArialMT-69" x="582.957031"/>
     <use xlink:href="#ArialMT-6f" x="605.173828"/>
     <use xlink:href="#ArialMT-6e" x="660.789062"/>
     <use xlink:href="#ArialMT-2d" x="716.404297"/>
     <use xlink:href="#ArialMT-52" x="749.705078"/>
     <use xlink:href="#ArialMT-65" x="821.921875"/>
     <use xlink:href="#ArialMT-63" x="877.537109"/>
     <use xlink:href="#ArialMT-61" x="927.537109"/>
     <use xlink:href="#ArialMT-6c" x="983.152344"/>
     <use xlink:href="#ArialMT-6c" x="1005.369141"/>
    </g>
   </g>
   <g id="legend_1">
    <g id="line2d_28">
     <path d="M 311.448438 145.336875 
L 321.448438 145.336875 
L 331.448438 145.336875 
" style="fill: none; stroke: #0000ff; stroke-width: 1.5; stroke-linecap: round"/>
    </g>
    <g id="text_16">
     <!-- МІДЗ -->
     <g style="fill: #262626" transform="translate(339.448438 148.836875) scale(0.1 -0.1)">
      <defs>
       <path id="ArialMT-41c" d="M 475 0 
L 475 4581 
L 1388 4581 
L 2472 1338 
Q 2622 884 2691 659 
Q 2769 909 2934 1394 
L 4031 4581 
L 4847 4581 
L 4847 0 
L 4263 0 
L 4263 3834 
L 2931 0 
L 2384 0 
L 1059 3900 
L 1059 0 
L 475 0 
z
" transform="scale(0.015625)"/>
       <path id="ArialMT-406" d="M 597 0 
L 597 4581 
L 1203 4581 
L 1203 0 
L 597 0 
z
" transform="scale(0.015625)"/>
       <path id="ArialMT-414" d="M 909 4581 
L 3697 4581 
L 3697 541 
L 4109 541 
L 4109 -1069 
L 3569 -1069 
L 3569 0 
L 541 0 
L 541 -1069 
L 0 -1069 
L 0 541 
L 356 541 
Q 909 1375 909 3913 
L 909 4581 
z
M 3091 4041 
L 1494 4041 
L 1494 3806 
Q 1494 3222 1389 2208 
Q 1284 1194 978 541 
L 3091 541 
L 3091 4041 
z
" transform="scale(0.015625)"/>
       <path id="ArialMT-417" d="M 244 1294 
L 822 1444 
Q 888 1109 1173 775 
Q 1459 441 1931 441 
Q 2413 441 2691 687 
Q 2969 934 2969 1284 
Q 2969 1663 2675 1886 
Q 2381 2109 1875 2109 
L 1584 2109 
L 1584 2638 
Q 2003 2638 2225 2686 
Q 2447 2734 2617 2932 
Q 2788 3131 2788 3384 
Q 2788 3684 2555 3906 
Q 2322 4128 1925 4128 
Q 1578 4128 1333 3954 
Q 1088 3781 994 3495 
Q 900 3209 900 3069 
L 319 3200 
Q 534 4659 1931 4659 
Q 2603 4659 2997 4286 
Q 3391 3913 3391 3413 
Q 3391 2772 2784 2419 
Q 3134 2322 3370 2023 
Q 3606 1725 3606 1309 
Q 3606 719 3148 320 
Q 2691 -78 1934 -78 
Q 634 -78 244 1294 
z
" transform="scale(0.015625)"/>
      </defs>
      <use xlink:href="#ArialMT-41c"/>
      <use xlink:href="#ArialMT-406" x="83.300781"/>
      <use xlink:href="#ArialMT-414" x="111.083984"/>
      <use xlink:href="#ArialMT-417" x="178.808594"/>
     </g>
    </g>
    <g id="line2d_29">
     <path d="M 311.448438 159.482188 
L 321.448438 159.482188 
L 331.448438 159.482188 
" style="fill: none; stroke: #ff0000; stroke-width: 1.5; stroke-linecap: round"/>
    </g>
    <g id="text_17">
     <!-- С4.5 -->
     <g style="fill: #262626" transform="translate(339.448438 162.982188) scale(0.1 -0.1)">
      <defs>
       <path id="ArialMT-421" d="M 3763 1606 
L 4369 1453 
Q 4178 706 3683 314 
Q 3188 -78 2472 -78 
Q 1731 -78 1267 223 
Q 803 525 561 1097 
Q 319 1669 319 2325 
Q 319 3041 592 3573 
Q 866 4106 1370 4382 
Q 1875 4659 2481 4659 
Q 3169 4659 3637 4309 
Q 4106 3959 4291 3325 
L 3694 3184 
Q 3534 3684 3231 3912 
Q 2928 4141 2469 4141 
Q 1941 4141 1586 3887 
Q 1231 3634 1087 3207 
Q 944 2781 944 2328 
Q 944 1744 1114 1308 
Q 1284 872 1643 656 
Q 2003 441 2422 441 
Q 2931 441 3284 734 
Q 3638 1028 3763 1606 
z
" transform="scale(0.015625)"/>
       <path id="ArialMT-35" d="M 266 1200 
L 856 1250 
Q 922 819 1161 601 
Q 1400 384 1738 384 
Q 2144 384 2425 690 
Q 2706 997 2706 1503 
Q 2706 1984 2436 2262 
Q 2166 2541 1728 2541 
Q 1456 2541 1237 2417 
Q 1019 2294 894 2097 
L 366 2166 
L 809 4519 
L 3088 4519 
L 3088 3981 
L 1259 3981 
L 1013 2750 
Q 1425 3038 1878 3038 
Q 2478 3038 2890 2622 
Q 3303 2206 3303 1553 
Q 3303 931 2941 478 
Q 2500 -78 1738 -78 
Q 1113 -78 717 272 
Q 322 622 266 1200 
z
" transform="scale(0.015625)"/>
      </defs>
      <use xlink:href="#ArialMT-421"/>
      <use xlink:href="#ArialMT-34" x="72.216797"/>
      <use xlink:href="#ArialMT-2e" x="127.832031"/>
      <use xlink:href="#ArialMT-35" x="155.615234"/>
     </g>
    </g>
    <g id="line2d_30">
     <path d="M 311.448438 173.6275 
L 321.448438 173.6275 
L 331.448438 173.6275 
" style="fill: none; stroke: #008000; stroke-width: 1.5; stroke-linecap: round"/>
    </g>
    <g id="text_18">
     <!-- КоЗВ -->
     <g style="fill: #262626" transform="translate(339.448438 177.1275) scale(0.1 -0.1)">
      <defs>
       <path id="ArialMT-43e" d="M 213 1659 
Q 213 2581 725 3025 
Q 1153 3394 1769 3394 
Q 2453 3394 2887 2945 
Q 3322 2497 3322 1706 
Q 3322 1066 3130 698 
Q 2938 331 2570 128 
Q 2203 -75 1769 -75 
Q 1072 -75 642 372 
Q 213 819 213 1659 
z
M 791 1659 
Q 791 1022 1069 705 
Q 1347 388 1769 388 
Q 2188 388 2466 706 
Q 2744 1025 2744 1678 
Q 2744 2294 2464 2611 
Q 2184 2928 1769 2928 
Q 1347 2928 1069 2612 
Q 791 2297 791 1659 
z
" transform="scale(0.015625)"/>
       <path id="ArialMT-412" d="M 469 0 
L 469 4581 
L 2188 4581 
Q 2713 4581 3030 4442 
Q 3347 4303 3526 4014 
Q 3706 3725 3706 3409 
Q 3706 3116 3547 2856 
Q 3388 2597 3066 2438 
Q 3481 2316 3704 2022 
Q 3928 1728 3928 1328 
Q 3928 1006 3792 729 
Q 3656 453 3456 303 
Q 3256 153 2954 76 
Q 2653 0 2216 0 
L 469 0 
z
M 1075 2656 
L 2066 2656 
Q 2469 2656 2644 2709 
Q 2875 2778 2992 2937 
Q 3109 3097 3109 3338 
Q 3109 3566 3000 3739 
Q 2891 3913 2687 3977 
Q 2484 4041 1991 4041 
L 1075 4041 
L 1075 2656 
z
M 1075 541 
L 2216 541 
Q 2509 541 2628 563 
Q 2838 600 2978 687 
Q 3119 775 3209 942 
Q 3300 1109 3300 1328 
Q 3300 1584 3169 1773 
Q 3038 1963 2805 2039 
Q 2572 2116 2134 2116 
L 1075 2116 
L 1075 541 
z
" transform="scale(0.015625)"/>
      </defs>
      <use xlink:href="#ArialMT-41a"/>
      <use xlink:href="#ArialMT-43e" x="58.251953"/>
      <use xlink:href="#ArialMT-417" x="113.867188"/>
      <use xlink:href="#ArialMT-412" x="174.267578"/>
     </g>
    </g>
   </g>
  </g>
 </g>
 <defs>
  <clipPath id="pfaea08081b">
   <rect x="37.745313" y="21.795" width="334.8" height="166.32"/>
  </clipPath>
 </defs>
</svg>
