<?xml version="1.0" encoding="utf-8" standalone="no"?>
<!DOCTYPE svg PUBLIC "-//W3C//DTD SVG 1.1//EN"
  "http://www.w3.org/Graphics/SVG/1.1/DTD/svg11.dtd">
<svg xmlns:xlink="http://www.w3.org/1999/xlink" width="459.155625pt" height="287.025313pt" viewBox="0 0 459.155625 287.025313" xmlns="http://www.w3.org/2000/svg" version="1.1">
 <metadata>
  <rdf:RDF xmlns:dc="http://purl.org/dc/elements/1.1/" xmlns:cc="http://creativecommons.org/ns#" xmlns:rdf="http://www.w3.org/1999/02/22-rdf-syntax-ns#">
   <cc:Work>
    <dc:type rdf:resource="http://purl.org/dc/dcmitype/StillImage"/>
    <dc:date>2023-08-16T17:33:31.439629</dc:date>
    <dc:format>image/svg+xml</dc:format>
    <dc:creator>
     <cc:Agent>
      <dc:title>Matplotlib v3.7.1, https://matplotlib.org/</dc:title>
     </cc:Agent>
    </dc:creator>
   </cc:Work>
  </rdf:RDF>
 </metadata>
 <defs>
  <style type="text/css">*{stroke-linejoin: round; stroke-linecap: butt}</style>
 </defs>
 <g id="figure_1">
  <g id="patch_1">
   <path d="M 0 287.025313 
L 459.155625 287.025313 
L 459.155625 0 
L 0 0 
z
" style="fill: #ffffff"/>
  </g>
  <g id="axes_1">
   <g id="patch_2">
    <path d="M 61.355625 245.597813 
L 451.955625 245.597813 
L 451.955625 23.837813 
L 61.355625 23.837813 
z
" style="fill: #ffffff"/>
   </g>
   <g id="matplotlib.axis_1">
    <g id="xtick_1">
     <g id="line2d_1">
      <path d="M 66.865656 245.597813 
L 66.865656 23.837813 
" clip-path="url(#p3e8e1a2763)" style="fill: none; stroke-dasharray: 1.85,0.8; stroke-dashoffset: 0; stroke: #808080; stroke-width: 0.5"/>
     </g>
     <g id="line2d_2">
      <defs>
       <path id="m047848f2b2" d="M 0 0 
L 0 3.5 
" style="stroke: #000000; stroke-width: 0.8"/>
      </defs>
      <g>
       <use xlink:href="#m047848f2b2" x="66.865656" y="245.597813" style="stroke: #000000; stroke-width: 0.8"/>
      </g>
     </g>
     <g id="text_1">
      <!-- 0 -->
      <g transform="translate(63.38675 260.19625) scale(0.1 -0.1)">
       <defs>
        <path id="DejaVuSans-Bold-30" d="M 2944 2338 
Q 2944 3213 2780 3570 
Q 2616 3928 2228 3928 
Q 1841 3928 1675 3570 
Q 1509 3213 1509 2338 
Q 1509 1453 1675 1090 
Q 1841 728 2228 728 
Q 2613 728 2778 1090 
Q 2944 1453 2944 2338 
z
M 4147 2328 
Q 4147 1169 3647 539 
Q 3147 -91 2228 -91 
Q 1306 -91 806 539 
Q 306 1169 306 2328 
Q 306 3491 806 4120 
Q 1306 4750 2228 4750 
Q 3147 4750 3647 4120 
Q 4147 3491 4147 2328 
z
" transform="scale(0.015625)"/>
       </defs>
       <use xlink:href="#DejaVuSans-Bold-30"/>
      </g>
     </g>
    </g>
    <g id="xtick_2">
     <g id="line2d_3">
      <path d="M 128.088227 245.597813 
L 128.088227 23.837813 
" clip-path="url(#p3e8e1a2763)" style="fill: none; stroke-dasharray: 1.85,0.8; stroke-dashoffset: 0; stroke: #808080; stroke-width: 0.5"/>
     </g>
     <g id="line2d_4">
      <g>
       <use xlink:href="#m047848f2b2" x="128.088227" y="245.597813" style="stroke: #000000; stroke-width: 0.8"/>
      </g>
     </g>
     <g id="text_2">
      <!-- 5 -->
      <g transform="translate(124.609321 260.19625) scale(0.1 -0.1)">
       <defs>
        <path id="DejaVuSans-Bold-35" d="M 678 4666 
L 3669 4666 
L 3669 3781 
L 1638 3781 
L 1638 3059 
Q 1775 3097 1914 3117 
Q 2053 3138 2203 3138 
Q 3056 3138 3531 2711 
Q 4006 2284 4006 1522 
Q 4006 766 3489 337 
Q 2972 -91 2053 -91 
Q 1656 -91 1267 -14 
Q 878 63 494 219 
L 494 1166 
Q 875 947 1217 837 
Q 1559 728 1863 728 
Q 2300 728 2551 942 
Q 2803 1156 2803 1522 
Q 2803 1891 2551 2103 
Q 2300 2316 1863 2316 
Q 1603 2316 1309 2248 
Q 1016 2181 678 2041 
L 678 4666 
z
" transform="scale(0.015625)"/>
       </defs>
       <use xlink:href="#DejaVuSans-Bold-35"/>
      </g>
     </g>
    </g>
    <g id="xtick_3">
     <g id="line2d_5">
      <path d="M 189.310797 245.597813 
L 189.310797 23.837813 
" clip-path="url(#p3e8e1a2763)" style="fill: none; stroke-dasharray: 1.85,0.8; stroke-dashoffset: 0; stroke: #808080; stroke-width: 0.5"/>
     </g>
     <g id="line2d_6">
      <g>
       <use xlink:href="#m047848f2b2" x="189.310797" y="245.597813" style="stroke: #000000; stroke-width: 0.8"/>
      </g>
     </g>
     <g id="text_3">
      <!-- 10 -->
      <g transform="translate(182.352985 260.19625) scale(0.1 -0.1)">
       <defs>
        <path id="DejaVuSans-Bold-31" d="M 750 831 
L 1813 831 
L 1813 3847 
L 722 3622 
L 722 4441 
L 1806 4666 
L 2950 4666 
L 2950 831 
L 4013 831 
L 4013 0 
L 750 0 
L 750 831 
z
" transform="scale(0.015625)"/>
       </defs>
       <use xlink:href="#DejaVuSans-Bold-31"/>
       <use xlink:href="#DejaVuSans-Bold-30" x="69.580078"/>
      </g>
     </g>
    </g>
    <g id="xtick_4">
     <g id="line2d_7">
      <path d="M 250.533368 245.597813 
L 250.533368 23.837813 
" clip-path="url(#p3e8e1a2763)" style="fill: none; stroke-dasharray: 1.85,0.8; stroke-dashoffset: 0; stroke: #808080; stroke-width: 0.5"/>
     </g>
     <g id="line2d_8">
      <g>
       <use xlink:href="#m047848f2b2" x="250.533368" y="245.597813" style="stroke: #000000; stroke-width: 0.8"/>
      </g>
     </g>
     <g id="text_4">
      <!-- 15 -->
      <g transform="translate(243.575555 260.19625) scale(0.1 -0.1)">
       <use xlink:href="#DejaVuSans-Bold-31"/>
       <use xlink:href="#DejaVuSans-Bold-35" x="69.580078"/>
      </g>
     </g>
    </g>
    <g id="xtick_5">
     <g id="line2d_9">
      <path d="M 311.755938 245.597813 
L 311.755938 23.837813 
" clip-path="url(#p3e8e1a2763)" style="fill: none; stroke-dasharray: 1.85,0.8; stroke-dashoffset: 0; stroke: #808080; stroke-width: 0.5"/>
     </g>
     <g id="line2d_10">
      <g>
       <use xlink:href="#m047848f2b2" x="311.755938" y="245.597813" style="stroke: #000000; stroke-width: 0.8"/>
      </g>
     </g>
     <g id="text_5">
      <!-- 20 -->
      <g transform="translate(304.798126 260.19625) scale(0.1 -0.1)">
       <defs>
        <path id="DejaVuSans-Bold-32" d="M 1844 884 
L 3897 884 
L 3897 0 
L 506 0 
L 506 884 
L 2209 2388 
Q 2438 2594 2547 2791 
Q 2656 2988 2656 3200 
Q 2656 3528 2436 3728 
Q 2216 3928 1850 3928 
Q 1569 3928 1234 3808 
Q 900 3688 519 3450 
L 519 4475 
Q 925 4609 1322 4679 
Q 1719 4750 2100 4750 
Q 2938 4750 3402 4381 
Q 3866 4013 3866 3353 
Q 3866 2972 3669 2642 
Q 3472 2313 2841 1759 
L 1844 884 
z
" transform="scale(0.015625)"/>
       </defs>
       <use xlink:href="#DejaVuSans-Bold-32"/>
       <use xlink:href="#DejaVuSans-Bold-30" x="69.580078"/>
      </g>
     </g>
    </g>
    <g id="xtick_6">
     <g id="line2d_11">
      <path d="M 372.978509 245.597813 
L 372.978509 23.837813 
" clip-path="url(#p3e8e1a2763)" style="fill: none; stroke-dasharray: 1.85,0.8; stroke-dashoffset: 0; stroke: #808080; stroke-width: 0.5"/>
     </g>
     <g id="line2d_12">
      <g>
       <use xlink:href="#m047848f2b2" x="372.978509" y="245.597813" style="stroke: #000000; stroke-width: 0.8"/>
      </g>
     </g>
     <g id="text_6">
      <!-- 25 -->
      <g transform="translate(366.020697 260.19625) scale(0.1 -0.1)">
       <use xlink:href="#DejaVuSans-Bold-32"/>
       <use xlink:href="#DejaVuSans-Bold-35" x="69.580078"/>
      </g>
     </g>
    </g>
    <g id="xtick_7">
     <g id="line2d_13">
      <path d="M 434.20108 245.597813 
L 434.20108 23.837813 
" clip-path="url(#p3e8e1a2763)" style="fill: none; stroke-dasharray: 1.85,0.8; stroke-dashoffset: 0; stroke: #808080; stroke-width: 0.5"/>
     </g>
     <g id="line2d_14">
      <g>
       <use xlink:href="#m047848f2b2" x="434.20108" y="245.597813" style="stroke: #000000; stroke-width: 0.8"/>
      </g>
     </g>
     <g id="text_7">
      <!-- 30 -->
      <g transform="translate(427.243267 260.19625) scale(0.1 -0.1)">
       <defs>
        <path id="DejaVuSans-Bold-33" d="M 2981 2516 
Q 3453 2394 3698 2092 
Q 3944 1791 3944 1325 
Q 3944 631 3412 270 
Q 2881 -91 1863 -91 
Q 1503 -91 1142 -33 
Q 781 25 428 141 
L 428 1069 
Q 766 900 1098 814 
Q 1431 728 1753 728 
Q 2231 728 2486 893 
Q 2741 1059 2741 1369 
Q 2741 1688 2480 1852 
Q 2219 2016 1709 2016 
L 1228 2016 
L 1228 2791 
L 1734 2791 
Q 2188 2791 2409 2933 
Q 2631 3075 2631 3366 
Q 2631 3634 2415 3781 
Q 2200 3928 1806 3928 
Q 1516 3928 1219 3862 
Q 922 3797 628 3669 
L 628 4550 
Q 984 4650 1334 4700 
Q 1684 4750 2022 4750 
Q 2931 4750 3382 4451 
Q 3834 4153 3834 3553 
Q 3834 3144 3618 2883 
Q 3403 2622 2981 2516 
z
" transform="scale(0.015625)"/>
       </defs>
       <use xlink:href="#DejaVuSans-Bold-33"/>
       <use xlink:href="#DejaVuSans-Bold-30" x="69.580078"/>
      </g>
     </g>
    </g>
    <g id="text_8">
     <!-- Number of epochs -->
     <g transform="translate(184.715312 276.91375) scale(0.14 -0.14)">
      <defs>
       <path id="DejaVuSans-Bold-4e" d="M 588 4666 
L 1931 4666 
L 3628 1466 
L 3628 4666 
L 4769 4666 
L 4769 0 
L 3425 0 
L 1728 3200 
L 1728 0 
L 588 0 
L 588 4666 
z
" transform="scale(0.015625)"/>
       <path id="DejaVuSans-Bold-75" d="M 500 1363 
L 500 3500 
L 1625 3500 
L 1625 3150 
Q 1625 2866 1622 2436 
Q 1619 2006 1619 1863 
Q 1619 1441 1641 1255 
Q 1663 1069 1716 984 
Q 1784 875 1895 815 
Q 2006 756 2150 756 
Q 2500 756 2700 1025 
Q 2900 1294 2900 1772 
L 2900 3500 
L 4019 3500 
L 4019 0 
L 2900 0 
L 2900 506 
Q 2647 200 2364 54 
Q 2081 -91 1741 -91 
Q 1134 -91 817 281 
Q 500 653 500 1363 
z
" transform="scale(0.015625)"/>
       <path id="DejaVuSans-Bold-6d" d="M 3781 2919 
Q 3994 3244 4286 3414 
Q 4578 3584 4928 3584 
Q 5531 3584 5847 3212 
Q 6163 2841 6163 2131 
L 6163 0 
L 5038 0 
L 5038 1825 
Q 5041 1866 5042 1909 
Q 5044 1953 5044 2034 
Q 5044 2406 4934 2573 
Q 4825 2741 4581 2741 
Q 4263 2741 4089 2478 
Q 3916 2216 3909 1719 
L 3909 0 
L 2784 0 
L 2784 1825 
Q 2784 2406 2684 2573 
Q 2584 2741 2328 2741 
Q 2006 2741 1831 2477 
Q 1656 2213 1656 1722 
L 1656 0 
L 531 0 
L 531 3500 
L 1656 3500 
L 1656 2988 
Q 1863 3284 2130 3434 
Q 2397 3584 2719 3584 
Q 3081 3584 3359 3409 
Q 3638 3234 3781 2919 
z
" transform="scale(0.015625)"/>
       <path id="DejaVuSans-Bold-62" d="M 2400 722 
Q 2759 722 2948 984 
Q 3138 1247 3138 1747 
Q 3138 2247 2948 2509 
Q 2759 2772 2400 2772 
Q 2041 2772 1848 2508 
Q 1656 2244 1656 1747 
Q 1656 1250 1848 986 
Q 2041 722 2400 722 
z
M 1656 2988 
Q 1888 3294 2169 3439 
Q 2450 3584 2816 3584 
Q 3463 3584 3878 3070 
Q 4294 2556 4294 1747 
Q 4294 938 3878 423 
Q 3463 -91 2816 -91 
Q 2450 -91 2169 54 
Q 1888 200 1656 506 
L 1656 0 
L 538 0 
L 538 4863 
L 1656 4863 
L 1656 2988 
z
" transform="scale(0.015625)"/>
       <path id="DejaVuSans-Bold-65" d="M 4031 1759 
L 4031 1441 
L 1416 1441 
Q 1456 1047 1700 850 
Q 1944 653 2381 653 
Q 2734 653 3104 758 
Q 3475 863 3866 1075 
L 3866 213 
Q 3469 63 3072 -14 
Q 2675 -91 2278 -91 
Q 1328 -91 801 392 
Q 275 875 275 1747 
Q 275 2603 792 3093 
Q 1309 3584 2216 3584 
Q 3041 3584 3536 3087 
Q 4031 2591 4031 1759 
z
M 2881 2131 
Q 2881 2450 2695 2645 
Q 2509 2841 2209 2841 
Q 1884 2841 1681 2658 
Q 1478 2475 1428 2131 
L 2881 2131 
z
" transform="scale(0.015625)"/>
       <path id="DejaVuSans-Bold-72" d="M 3138 2547 
Q 2991 2616 2845 2648 
Q 2700 2681 2553 2681 
Q 2122 2681 1889 2404 
Q 1656 2128 1656 1613 
L 1656 0 
L 538 0 
L 538 3500 
L 1656 3500 
L 1656 2925 
Q 1872 3269 2151 3426 
Q 2431 3584 2822 3584 
Q 2878 3584 2943 3579 
Q 3009 3575 3134 3559 
L 3138 2547 
z
" transform="scale(0.015625)"/>
       <path id="DejaVuSans-Bold-20" transform="scale(0.015625)"/>
       <path id="DejaVuSans-Bold-6f" d="M 2203 2784 
Q 1831 2784 1636 2517 
Q 1441 2250 1441 1747 
Q 1441 1244 1636 976 
Q 1831 709 2203 709 
Q 2569 709 2762 976 
Q 2956 1244 2956 1747 
Q 2956 2250 2762 2517 
Q 2569 2784 2203 2784 
z
M 2203 3584 
Q 3106 3584 3614 3096 
Q 4122 2609 4122 1747 
Q 4122 884 3614 396 
Q 3106 -91 2203 -91 
Q 1297 -91 786 396 
Q 275 884 275 1747 
Q 275 2609 786 3096 
Q 1297 3584 2203 3584 
z
" transform="scale(0.015625)"/>
       <path id="DejaVuSans-Bold-66" d="M 2841 4863 
L 2841 4128 
L 2222 4128 
Q 1984 4128 1890 4042 
Q 1797 3956 1797 3744 
L 1797 3500 
L 2753 3500 
L 2753 2700 
L 1797 2700 
L 1797 0 
L 678 0 
L 678 2700 
L 122 2700 
L 122 3500 
L 678 3500 
L 678 3744 
Q 678 4316 997 4589 
Q 1316 4863 1984 4863 
L 2841 4863 
z
" transform="scale(0.015625)"/>
       <path id="DejaVuSans-Bold-70" d="M 1656 506 
L 1656 -1331 
L 538 -1331 
L 538 3500 
L 1656 3500 
L 1656 2988 
Q 1888 3294 2169 3439 
Q 2450 3584 2816 3584 
Q 3463 3584 3878 3070 
Q 4294 2556 4294 1747 
Q 4294 938 3878 423 
Q 3463 -91 2816 -91 
Q 2450 -91 2169 54 
Q 1888 200 1656 506 
z
M 2400 2772 
Q 2041 2772 1848 2508 
Q 1656 2244 1656 1747 
Q 1656 1250 1848 986 
Q 2041 722 2400 722 
Q 2759 722 2948 984 
Q 3138 1247 3138 1747 
Q 3138 2247 2948 2509 
Q 2759 2772 2400 2772 
z
" transform="scale(0.015625)"/>
       <path id="DejaVuSans-Bold-63" d="M 3366 3391 
L 3366 2478 
Q 3138 2634 2908 2709 
Q 2678 2784 2431 2784 
Q 1963 2784 1702 2511 
Q 1441 2238 1441 1747 
Q 1441 1256 1702 982 
Q 1963 709 2431 709 
Q 2694 709 2930 787 
Q 3166 866 3366 1019 
L 3366 103 
Q 3103 6 2833 -42 
Q 2563 -91 2291 -91 
Q 1344 -91 809 395 
Q 275 881 275 1747 
Q 275 2613 809 3098 
Q 1344 3584 2291 3584 
Q 2566 3584 2833 3536 
Q 3100 3488 3366 3391 
z
" transform="scale(0.015625)"/>
       <path id="DejaVuSans-Bold-68" d="M 4056 2131 
L 4056 0 
L 2931 0 
L 2931 347 
L 2931 1625 
Q 2931 2084 2911 2256 
Q 2891 2428 2841 2509 
Q 2775 2619 2662 2680 
Q 2550 2741 2406 2741 
Q 2056 2741 1856 2470 
Q 1656 2200 1656 1722 
L 1656 0 
L 538 0 
L 538 4863 
L 1656 4863 
L 1656 2988 
Q 1909 3294 2193 3439 
Q 2478 3584 2822 3584 
Q 3428 3584 3742 3212 
Q 4056 2841 4056 2131 
z
" transform="scale(0.015625)"/>
       <path id="DejaVuSans-Bold-73" d="M 3272 3391 
L 3272 2541 
Q 2913 2691 2578 2766 
Q 2244 2841 1947 2841 
Q 1628 2841 1473 2761 
Q 1319 2681 1319 2516 
Q 1319 2381 1436 2309 
Q 1553 2238 1856 2203 
L 2053 2175 
Q 2913 2066 3209 1816 
Q 3506 1566 3506 1031 
Q 3506 472 3093 190 
Q 2681 -91 1863 -91 
Q 1516 -91 1145 -36 
Q 775 19 384 128 
L 384 978 
Q 719 816 1070 734 
Q 1422 653 1784 653 
Q 2113 653 2278 743 
Q 2444 834 2444 1013 
Q 2444 1163 2330 1236 
Q 2216 1309 1875 1350 
L 1678 1375 
Q 931 1469 631 1722 
Q 331 1975 331 2491 
Q 331 3047 712 3315 
Q 1094 3584 1881 3584 
Q 2191 3584 2531 3537 
Q 2872 3491 3272 3391 
z
" transform="scale(0.015625)"/>
      </defs>
      <use xlink:href="#DejaVuSans-Bold-4e"/>
      <use xlink:href="#DejaVuSans-Bold-75" x="83.691406"/>
      <use xlink:href="#DejaVuSans-Bold-6d" x="154.882812"/>
      <use xlink:href="#DejaVuSans-Bold-62" x="259.082031"/>
      <use xlink:href="#DejaVuSans-Bold-65" x="330.664062"/>
      <use xlink:href="#DejaVuSans-Bold-72" x="398.486328"/>
      <use xlink:href="#DejaVuSans-Bold-20" x="447.802734"/>
      <use xlink:href="#DejaVuSans-Bold-6f" x="482.617188"/>
      <use xlink:href="#DejaVuSans-Bold-66" x="551.318359"/>
      <use xlink:href="#DejaVuSans-Bold-20" x="594.824219"/>
      <use xlink:href="#DejaVuSans-Bold-65" x="629.638672"/>
      <use xlink:href="#DejaVuSans-Bold-70" x="697.460938"/>
      <use xlink:href="#DejaVuSans-Bold-6f" x="769.042969"/>
      <use xlink:href="#DejaVuSans-Bold-63" x="837.744141"/>
      <use xlink:href="#DejaVuSans-Bold-68" x="897.021484"/>
      <use xlink:href="#DejaVuSans-Bold-73" x="968.212891"/>
     </g>
    </g>
   </g>
   <g id="matplotlib.axis_2">
    <g id="ytick_1">
     <g id="line2d_15">
      <path d="M 61.355625 243.79141 
L 451.955625 243.79141 
" clip-path="url(#p3e8e1a2763)" style="fill: none; stroke-dasharray: 1.85,0.8; stroke-dashoffset: 0; stroke: #808080; stroke-width: 0.5"/>
     </g>
     <g id="line2d_16">
      <defs>
       <path id="m2edd53923a" d="M 0 0 
L -3.5 0 
" style="stroke: #000000; stroke-width: 0.8"/>
      </defs>
      <g>
       <use xlink:href="#m2edd53923a" x="61.355625" y="243.79141" style="stroke: #000000; stroke-width: 0.8"/>
      </g>
     </g>
     <g id="text_9">
      <!-- 0.55 -->
      <g transform="translate(24.749375 248.350473) scale(0.12 -0.12)">
       <defs>
        <path id="DejaVuSans-Bold-2e" d="M 653 1209 
L 1778 1209 
L 1778 0 
L 653 0 
L 653 1209 
z
" transform="scale(0.015625)"/>
       </defs>
       <use xlink:href="#DejaVuSans-Bold-30"/>
       <use xlink:href="#DejaVuSans-Bold-2e" x="69.580078"/>
       <use xlink:href="#DejaVuSans-Bold-35" x="107.568359"/>
       <use xlink:href="#DejaVuSans-Bold-35" x="177.148438"/>
      </g>
     </g>
    </g>
    <g id="ytick_2">
     <g id="line2d_17">
      <path d="M 61.355625 209.318086 
L 451.955625 209.318086 
" clip-path="url(#p3e8e1a2763)" style="fill: none; stroke-dasharray: 1.85,0.8; stroke-dashoffset: 0; stroke: #808080; stroke-width: 0.5"/>
     </g>
     <g id="line2d_18">
      <g>
       <use xlink:href="#m2edd53923a" x="61.355625" y="209.318086" style="stroke: #000000; stroke-width: 0.8"/>
      </g>
     </g>
     <g id="text_10">
      <!-- 0.60 -->
      <g transform="translate(24.749375 213.877149) scale(0.12 -0.12)">
       <defs>
        <path id="DejaVuSans-Bold-36" d="M 2316 2303 
Q 2000 2303 1842 2098 
Q 1684 1894 1684 1484 
Q 1684 1075 1842 870 
Q 2000 666 2316 666 
Q 2634 666 2792 870 
Q 2950 1075 2950 1484 
Q 2950 1894 2792 2098 
Q 2634 2303 2316 2303 
z
M 3803 4544 
L 3803 3681 
Q 3506 3822 3243 3889 
Q 2981 3956 2731 3956 
Q 2194 3956 1894 3657 
Q 1594 3359 1544 2772 
Q 1750 2925 1990 3001 
Q 2231 3078 2516 3078 
Q 3231 3078 3670 2659 
Q 4109 2241 4109 1563 
Q 4109 813 3618 361 
Q 3128 -91 2303 -91 
Q 1394 -91 895 523 
Q 397 1138 397 2266 
Q 397 3422 980 4083 
Q 1563 4744 2578 4744 
Q 2900 4744 3203 4694 
Q 3506 4644 3803 4544 
z
" transform="scale(0.015625)"/>
       </defs>
       <use xlink:href="#DejaVuSans-Bold-30"/>
       <use xlink:href="#DejaVuSans-Bold-2e" x="69.580078"/>
       <use xlink:href="#DejaVuSans-Bold-36" x="107.568359"/>
       <use xlink:href="#DejaVuSans-Bold-30" x="177.148438"/>
      </g>
     </g>
    </g>
    <g id="ytick_3">
     <g id="line2d_19">
      <path d="M 61.355625 174.844762 
L 451.955625 174.844762 
" clip-path="url(#p3e8e1a2763)" style="fill: none; stroke-dasharray: 1.85,0.8; stroke-dashoffset: 0; stroke: #808080; stroke-width: 0.5"/>
     </g>
     <g id="line2d_20">
      <g>
       <use xlink:href="#m2edd53923a" x="61.355625" y="174.844762" style="stroke: #000000; stroke-width: 0.8"/>
      </g>
     </g>
     <g id="text_11">
      <!-- 0.65 -->
      <g transform="translate(24.749375 179.403824) scale(0.12 -0.12)">
       <use xlink:href="#DejaVuSans-Bold-30"/>
       <use xlink:href="#DejaVuSans-Bold-2e" x="69.580078"/>
       <use xlink:href="#DejaVuSans-Bold-36" x="107.568359"/>
       <use xlink:href="#DejaVuSans-Bold-35" x="177.148438"/>
      </g>
     </g>
    </g>
    <g id="ytick_4">
     <g id="line2d_21">
      <path d="M 61.355625 140.371438 
L 451.955625 140.371438 
" clip-path="url(#p3e8e1a2763)" style="fill: none; stroke-dasharray: 1.85,0.8; stroke-dashoffset: 0; stroke: #808080; stroke-width: 0.5"/>
     </g>
     <g id="line2d_22">
      <g>
       <use xlink:href="#m2edd53923a" x="61.355625" y="140.371438" style="stroke: #000000; stroke-width: 0.8"/>
      </g>
     </g>
     <g id="text_12">
      <!-- 0.70 -->
      <g transform="translate(24.749375 144.9305) scale(0.12 -0.12)">
       <defs>
        <path id="DejaVuSans-Bold-37" d="M 428 4666 
L 3944 4666 
L 3944 3988 
L 2125 0 
L 953 0 
L 2675 3781 
L 428 3781 
L 428 4666 
z
" transform="scale(0.015625)"/>
       </defs>
       <use xlink:href="#DejaVuSans-Bold-30"/>
       <use xlink:href="#DejaVuSans-Bold-2e" x="69.580078"/>
       <use xlink:href="#DejaVuSans-Bold-37" x="107.568359"/>
       <use xlink:href="#DejaVuSans-Bold-30" x="177.148438"/>
      </g>
     </g>
    </g>
    <g id="ytick_5">
     <g id="line2d_23">
      <path d="M 61.355625 105.898113 
L 451.955625 105.898113 
" clip-path="url(#p3e8e1a2763)" style="fill: none; stroke-dasharray: 1.85,0.8; stroke-dashoffset: 0; stroke: #808080; stroke-width: 0.5"/>
     </g>
     <g id="line2d_24">
      <g>
       <use xlink:href="#m2edd53923a" x="61.355625" y="105.898113" style="stroke: #000000; stroke-width: 0.8"/>
      </g>
     </g>
     <g id="text_13">
      <!-- 0.75 -->
      <g transform="translate(24.749375 110.457176) scale(0.12 -0.12)">
       <use xlink:href="#DejaVuSans-Bold-30"/>
       <use xlink:href="#DejaVuSans-Bold-2e" x="69.580078"/>
       <use xlink:href="#DejaVuSans-Bold-37" x="107.568359"/>
       <use xlink:href="#DejaVuSans-Bold-35" x="177.148438"/>
      </g>
     </g>
    </g>
    <g id="ytick_6">
     <g id="line2d_25">
      <path d="M 61.355625 71.424789 
L 451.955625 71.424789 
" clip-path="url(#p3e8e1a2763)" style="fill: none; stroke-dasharray: 1.85,0.8; stroke-dashoffset: 0; stroke: #808080; stroke-width: 0.5"/>
     </g>
     <g id="line2d_26">
      <g>
       <use xlink:href="#m2edd53923a" x="61.355625" y="71.424789" style="stroke: #000000; stroke-width: 0.8"/>
      </g>
     </g>
     <g id="text_14">
      <!-- 0.80 -->
      <g transform="translate(24.749375 75.983852) scale(0.12 -0.12)">
       <defs>
        <path id="DejaVuSans-Bold-38" d="M 2228 2088 
Q 1891 2088 1709 1903 
Q 1528 1719 1528 1375 
Q 1528 1031 1709 848 
Q 1891 666 2228 666 
Q 2563 666 2741 848 
Q 2919 1031 2919 1375 
Q 2919 1722 2741 1905 
Q 2563 2088 2228 2088 
z
M 1350 2484 
Q 925 2613 709 2878 
Q 494 3144 494 3541 
Q 494 4131 934 4440 
Q 1375 4750 2228 4750 
Q 3075 4750 3515 4442 
Q 3956 4134 3956 3541 
Q 3956 3144 3739 2878 
Q 3522 2613 3097 2484 
Q 3572 2353 3814 2058 
Q 4056 1763 4056 1313 
Q 4056 619 3595 264 
Q 3134 -91 2228 -91 
Q 1319 -91 855 264 
Q 391 619 391 1313 
Q 391 1763 633 2058 
Q 875 2353 1350 2484 
z
M 1631 3419 
Q 1631 3141 1786 2991 
Q 1941 2841 2228 2841 
Q 2509 2841 2662 2991 
Q 2816 3141 2816 3419 
Q 2816 3697 2662 3845 
Q 2509 3994 2228 3994 
Q 1941 3994 1786 3844 
Q 1631 3694 1631 3419 
z
" transform="scale(0.015625)"/>
       </defs>
       <use xlink:href="#DejaVuSans-Bold-30"/>
       <use xlink:href="#DejaVuSans-Bold-2e" x="69.580078"/>
       <use xlink:href="#DejaVuSans-Bold-38" x="107.568359"/>
       <use xlink:href="#DejaVuSans-Bold-30" x="177.148438"/>
      </g>
     </g>
    </g>
    <g id="ytick_7">
     <g id="line2d_27">
      <path d="M 61.355625 36.951465 
L 451.955625 36.951465 
" clip-path="url(#p3e8e1a2763)" style="fill: none; stroke-dasharray: 1.85,0.8; stroke-dashoffset: 0; stroke: #808080; stroke-width: 0.5"/>
     </g>
     <g id="line2d_28">
      <g>
       <use xlink:href="#m2edd53923a" x="61.355625" y="36.951465" style="stroke: #000000; stroke-width: 0.8"/>
      </g>
     </g>
     <g id="text_15">
      <!-- 0.85 -->
      <g transform="translate(24.749375 41.510528) scale(0.12 -0.12)">
       <use xlink:href="#DejaVuSans-Bold-30"/>
       <use xlink:href="#DejaVuSans-Bold-2e" x="69.580078"/>
       <use xlink:href="#DejaVuSans-Bold-38" x="107.568359"/>
       <use xlink:href="#DejaVuSans-Bold-35" x="177.148438"/>
      </g>
     </g>
    </g>
    <g id="text_16">
     <!-- Accuracy -->
     <g transform="translate(17.728438 170.30625) rotate(-90) scale(0.14 -0.14)">
      <defs>
       <path id="DejaVuSans-Bold-41" d="M 3419 850 
L 1538 850 
L 1241 0 
L 31 0 
L 1759 4666 
L 3194 4666 
L 4922 0 
L 3713 0 
L 3419 850 
z
M 1838 1716 
L 3116 1716 
L 2478 3572 
L 1838 1716 
z
" transform="scale(0.015625)"/>
       <path id="DejaVuSans-Bold-61" d="M 2106 1575 
Q 1756 1575 1579 1456 
Q 1403 1338 1403 1106 
Q 1403 894 1545 773 
Q 1688 653 1941 653 
Q 2256 653 2472 879 
Q 2688 1106 2688 1447 
L 2688 1575 
L 2106 1575 
z
M 3816 1997 
L 3816 0 
L 2688 0 
L 2688 519 
Q 2463 200 2181 54 
Q 1900 -91 1497 -91 
Q 953 -91 614 226 
Q 275 544 275 1050 
Q 275 1666 698 1953 
Q 1122 2241 2028 2241 
L 2688 2241 
L 2688 2328 
Q 2688 2594 2478 2717 
Q 2269 2841 1825 2841 
Q 1466 2841 1156 2769 
Q 847 2697 581 2553 
L 581 3406 
Q 941 3494 1303 3539 
Q 1666 3584 2028 3584 
Q 2975 3584 3395 3211 
Q 3816 2838 3816 1997 
z
" transform="scale(0.015625)"/>
       <path id="DejaVuSans-Bold-79" d="M 78 3500 
L 1197 3500 
L 2138 1125 
L 2938 3500 
L 4056 3500 
L 2584 -331 
Q 2363 -916 2067 -1148 
Q 1772 -1381 1288 -1381 
L 641 -1381 
L 641 -647 
L 991 -647 
Q 1275 -647 1404 -556 
Q 1534 -466 1606 -231 
L 1638 -134 
L 78 3500 
z
" transform="scale(0.015625)"/>
      </defs>
      <use xlink:href="#DejaVuSans-Bold-41"/>
      <use xlink:href="#DejaVuSans-Bold-63" x="77.392578"/>
      <use xlink:href="#DejaVuSans-Bold-63" x="136.669922"/>
      <use xlink:href="#DejaVuSans-Bold-75" x="195.947266"/>
      <use xlink:href="#DejaVuSans-Bold-72" x="267.138672"/>
      <use xlink:href="#DejaVuSans-Bold-61" x="316.455078"/>
      <use xlink:href="#DejaVuSans-Bold-63" x="383.935547"/>
      <use xlink:href="#DejaVuSans-Bold-79" x="443.212891"/>
     </g>
    </g>
   </g>
   <g id="line2d_29">
    <path d="M 79.11017 207.939153 
L 91.354685 96.935049 
L 103.599199 64.461178 
L 115.843713 55.98074 
L 128.088227 50.671848 
L 140.332741 49.361862 
L 152.577255 47.845035 
L 164.821769 46.741889 
L 177.066283 45.431903 
L 189.310797 44.46665 
L 201.555312 45.018223 
L 213.799826 42.536144 
L 226.04434 42.674037 
L 238.288854 42.39825 
L 250.533368 42.19141 
L 262.777882 41.157211 
L 275.022396 41.639837 
L 287.26691 41.019317 
L 299.511424 40.743531 
L 311.755938 40.123011 
L 324.000453 37.296198 
L 336.244967 38.330398 
L 348.489481 37.709878 
L 360.733995 37.227252 
L 372.978509 36.813572 
L 385.223023 36.606732 
L 397.467537 35.020959 
L 409.712051 34.883066 
L 421.956565 34.400439 
L 434.20108 33.917812 
" clip-path="url(#p3e8e1a2763)" style="fill: none; stroke: #0000ff; stroke-width: 1.5; stroke-linecap: square"/>
    <defs>
     <path id="md52dc0221a" d="M -2 2 
L 2 -2 
M -2 -2 
L 2 2 
" style="stroke: #0000ff"/>
    </defs>
    <g clip-path="url(#p3e8e1a2763)">
     <use xlink:href="#md52dc0221a" x="79.11017" y="207.939153" style="fill: #0000ff; stroke: #0000ff"/>
     <use xlink:href="#md52dc0221a" x="91.354685" y="96.935049" style="fill: #0000ff; stroke: #0000ff"/>
     <use xlink:href="#md52dc0221a" x="103.599199" y="64.461178" style="fill: #0000ff; stroke: #0000ff"/>
     <use xlink:href="#md52dc0221a" x="115.843713" y="55.98074" style="fill: #0000ff; stroke: #0000ff"/>
     <use xlink:href="#md52dc0221a" x="128.088227" y="50.671848" style="fill: #0000ff; stroke: #0000ff"/>
     <use xlink:href="#md52dc0221a" x="140.332741" y="49.361862" style="fill: #0000ff; stroke: #0000ff"/>
     <use xlink:href="#md52dc0221a" x="152.577255" y="47.845035" style="fill: #0000ff; stroke: #0000ff"/>
     <use xlink:href="#md52dc0221a" x="164.821769" y="46.741889" style="fill: #0000ff; stroke: #0000ff"/>
     <use xlink:href="#md52dc0221a" x="177.066283" y="45.431903" style="fill: #0000ff; stroke: #0000ff"/>
     <use xlink:href="#md52dc0221a" x="189.310797" y="44.46665" style="fill: #0000ff; stroke: #0000ff"/>
     <use xlink:href="#md52dc0221a" x="201.555312" y="45.018223" style="fill: #0000ff; stroke: #0000ff"/>
     <use xlink:href="#md52dc0221a" x="213.799826" y="42.536144" style="fill: #0000ff; stroke: #0000ff"/>
     <use xlink:href="#md52dc0221a" x="226.04434" y="42.674037" style="fill: #0000ff; stroke: #0000ff"/>
     <use xlink:href="#md52dc0221a" x="238.288854" y="42.39825" style="fill: #0000ff; stroke: #0000ff"/>
     <use xlink:href="#md52dc0221a" x="250.533368" y="42.19141" style="fill: #0000ff; stroke: #0000ff"/>
     <use xlink:href="#md52dc0221a" x="262.777882" y="41.157211" style="fill: #0000ff; stroke: #0000ff"/>
     <use xlink:href="#md52dc0221a" x="275.022396" y="41.639837" style="fill: #0000ff; stroke: #0000ff"/>
     <use xlink:href="#md52dc0221a" x="287.26691" y="41.019317" style="fill: #0000ff; stroke: #0000ff"/>
     <use xlink:href="#md52dc0221a" x="299.511424" y="40.743531" style="fill: #0000ff; stroke: #0000ff"/>
     <use xlink:href="#md52dc0221a" x="311.755938" y="40.123011" style="fill: #0000ff; stroke: #0000ff"/>
     <use xlink:href="#md52dc0221a" x="324.000453" y="37.296198" style="fill: #0000ff; stroke: #0000ff"/>
     <use xlink:href="#md52dc0221a" x="336.244967" y="38.330398" style="fill: #0000ff; stroke: #0000ff"/>
     <use xlink:href="#md52dc0221a" x="348.489481" y="37.709878" style="fill: #0000ff; stroke: #0000ff"/>
     <use xlink:href="#md52dc0221a" x="360.733995" y="37.227252" style="fill: #0000ff; stroke: #0000ff"/>
     <use xlink:href="#md52dc0221a" x="372.978509" y="36.813572" style="fill: #0000ff; stroke: #0000ff"/>
     <use xlink:href="#md52dc0221a" x="385.223023" y="36.606732" style="fill: #0000ff; stroke: #0000ff"/>
     <use xlink:href="#md52dc0221a" x="397.467537" y="35.020959" style="fill: #0000ff; stroke: #0000ff"/>
     <use xlink:href="#md52dc0221a" x="409.712051" y="34.883066" style="fill: #0000ff; stroke: #0000ff"/>
     <use xlink:href="#md52dc0221a" x="421.956565" y="34.400439" style="fill: #0000ff; stroke: #0000ff"/>
     <use xlink:href="#md52dc0221a" x="434.20108" y="33.917812" style="fill: #0000ff; stroke: #0000ff"/>
    </g>
   </g>
   <g id="line2d_30">
    <path d="M 79.11017 235.517812 
L 91.354685 134.166239 
L 103.599199 100.382382 
L 115.843713 87.282518 
L 128.088227 75.010015 
L 140.332741 70.804269 
L 152.577255 67.90851 
L 164.821769 65.288538 
L 177.066283 63.771711 
L 189.310797 61.496472 
L 201.555312 59.152286 
L 213.799826 57.359673 
L 226.04434 56.118633 
L 238.288854 54.94654 
L 250.533368 55.56706 
L 262.777882 53.843394 
L 275.022396 52.602354 
L 287.26691 49.637648 
L 299.511424 48.327662 
L 311.755938 46.741889 
L 324.000453 45.569796 
L 336.244967 45.225063 
L 348.489481 45.294009 
L 360.733995 44.811383 
L 372.978509 44.46665 
L 385.223023 43.777183 
L 397.467537 43.01877 
L 409.712051 42.122464 
L 421.956565 41.846677 
L 434.20108 41.226157 
" clip-path="url(#p3e8e1a2763)" style="fill: none; stroke-dasharray: 5.55,2.4; stroke-dashoffset: 0; stroke: #008000; stroke-width: 1.5"/>
    <defs>
     <path id="m34a7048804" d="M 0 2.828427 
L 2.828427 0 
L 0 -2.828427 
L -2.828427 0 
z
" style="stroke: #008000; stroke-linejoin: miter"/>
    </defs>
    <g clip-path="url(#p3e8e1a2763)">
     <use xlink:href="#m34a7048804" x="79.11017" y="235.517812" style="fill: #008000; stroke: #008000; stroke-linejoin: miter"/>
     <use xlink:href="#m34a7048804" x="91.354685" y="134.166239" style="fill: #008000; stroke: #008000; stroke-linejoin: miter"/>
     <use xlink:href="#m34a7048804" x="103.599199" y="100.382382" style="fill: #008000; stroke: #008000; stroke-linejoin: miter"/>
     <use xlink:href="#m34a7048804" x="115.843713" y="87.282518" style="fill: #008000; stroke: #008000; stroke-linejoin: miter"/>
     <use xlink:href="#m34a7048804" x="128.088227" y="75.010015" style="fill: #008000; stroke: #008000; stroke-linejoin: miter"/>
     <use xlink:href="#m34a7048804" x="140.332741" y="70.804269" style="fill: #008000; stroke: #008000; stroke-linejoin: miter"/>
     <use xlink:href="#m34a7048804" x="152.577255" y="67.90851" style="fill: #008000; stroke: #008000; stroke-linejoin: miter"/>
     <use xlink:href="#m34a7048804" x="164.821769" y="65.288538" style="fill: #008000; stroke: #008000; stroke-linejoin: miter"/>
     <use xlink:href="#m34a7048804" x="177.066283" y="63.771711" style="fill: #008000; stroke: #008000; stroke-linejoin: miter"/>
     <use xlink:href="#m34a7048804" x="189.310797" y="61.496472" style="fill: #008000; stroke: #008000; stroke-linejoin: miter"/>
     <use xlink:href="#m34a7048804" x="201.555312" y="59.152286" style="fill: #008000; stroke: #008000; stroke-linejoin: miter"/>
     <use xlink:href="#m34a7048804" x="213.799826" y="57.359673" style="fill: #008000; stroke: #008000; stroke-linejoin: miter"/>
     <use xlink:href="#m34a7048804" x="226.04434" y="56.118633" style="fill: #008000; stroke: #008000; stroke-linejoin: miter"/>
     <use xlink:href="#m34a7048804" x="238.288854" y="54.94654" style="fill: #008000; stroke: #008000; stroke-linejoin: miter"/>
     <use xlink:href="#m34a7048804" x="250.533368" y="55.56706" style="fill: #008000; stroke: #008000; stroke-linejoin: miter"/>
     <use xlink:href="#m34a7048804" x="262.777882" y="53.843394" style="fill: #008000; stroke: #008000; stroke-linejoin: miter"/>
     <use xlink:href="#m34a7048804" x="275.022396" y="52.602354" style="fill: #008000; stroke: #008000; stroke-linejoin: miter"/>
     <use xlink:href="#m34a7048804" x="287.26691" y="49.637648" style="fill: #008000; stroke: #008000; stroke-linejoin: miter"/>
     <use xlink:href="#m34a7048804" x="299.511424" y="48.327662" style="fill: #008000; stroke: #008000; stroke-linejoin: miter"/>
     <use xlink:href="#m34a7048804" x="311.755938" y="46.741889" style="fill: #008000; stroke: #008000; stroke-linejoin: miter"/>
     <use xlink:href="#m34a7048804" x="324.000453" y="45.569796" style="fill: #008000; stroke: #008000; stroke-linejoin: miter"/>
     <use xlink:href="#m34a7048804" x="336.244967" y="45.225063" style="fill: #008000; stroke: #008000; stroke-linejoin: miter"/>
     <use xlink:href="#m34a7048804" x="348.489481" y="45.294009" style="fill: #008000; stroke: #008000; stroke-linejoin: miter"/>
     <use xlink:href="#m34a7048804" x="360.733995" y="44.811383" style="fill: #008000; stroke: #008000; stroke-linejoin: miter"/>
     <use xlink:href="#m34a7048804" x="372.978509" y="44.46665" style="fill: #008000; stroke: #008000; stroke-linejoin: miter"/>
     <use xlink:href="#m34a7048804" x="385.223023" y="43.777183" style="fill: #008000; stroke: #008000; stroke-linejoin: miter"/>
     <use xlink:href="#m34a7048804" x="397.467537" y="43.01877" style="fill: #008000; stroke: #008000; stroke-linejoin: miter"/>
     <use xlink:href="#m34a7048804" x="409.712051" y="42.122464" style="fill: #008000; stroke: #008000; stroke-linejoin: miter"/>
     <use xlink:href="#m34a7048804" x="421.956565" y="41.846677" style="fill: #008000; stroke: #008000; stroke-linejoin: miter"/>
     <use xlink:href="#m34a7048804" x="434.20108" y="41.226157" style="fill: #008000; stroke: #008000; stroke-linejoin: miter"/>
    </g>
   </g>
   <g id="patch_3">
    <path d="M 61.355625 245.597812 
L 61.355625 23.837813 
" style="fill: none; stroke: #000000; stroke-width: 0.8; stroke-linejoin: miter; stroke-linecap: square"/>
   </g>
   <g id="patch_4">
    <path d="M 451.955625 245.597812 
L 451.955625 23.837813 
" style="fill: none; stroke: #000000; stroke-width: 0.8; stroke-linejoin: miter; stroke-linecap: square"/>
   </g>
   <g id="patch_5">
    <path d="M 61.355625 245.597813 
L 451.955625 245.597813 
" style="fill: none; stroke: #000000; stroke-width: 0.8; stroke-linejoin: miter; stroke-linecap: square"/>
   </g>
   <g id="patch_6">
    <path d="M 61.355625 23.837813 
L 451.955625 23.837813 
" style="fill: none; stroke: #000000; stroke-width: 0.8; stroke-linejoin: miter; stroke-linecap: square"/>
   </g>
   <g id="text_17">
    <!-- Accuracy learning curves -->
    <g transform="translate(157.431719 17.837813) scale(0.14 -0.14)">
     <defs>
      <path id="DejaVuSans-Bold-6c" d="M 538 4863 
L 1656 4863 
L 1656 0 
L 538 0 
L 538 4863 
z
" transform="scale(0.015625)"/>
      <path id="DejaVuSans-Bold-6e" d="M 4056 2131 
L 4056 0 
L 2931 0 
L 2931 347 
L 2931 1631 
Q 2931 2084 2911 2256 
Q 2891 2428 2841 2509 
Q 2775 2619 2662 2680 
Q 2550 2741 2406 2741 
Q 2056 2741 1856 2470 
Q 1656 2200 1656 1722 
L 1656 0 
L 538 0 
L 538 3500 
L 1656 3500 
L 1656 2988 
Q 1909 3294 2193 3439 
Q 2478 3584 2822 3584 
Q 3428 3584 3742 3212 
Q 4056 2841 4056 2131 
z
" transform="scale(0.015625)"/>
      <path id="DejaVuSans-Bold-69" d="M 538 3500 
L 1656 3500 
L 1656 0 
L 538 0 
L 538 3500 
z
M 538 4863 
L 1656 4863 
L 1656 3950 
L 538 3950 
L 538 4863 
z
" transform="scale(0.015625)"/>
      <path id="DejaVuSans-Bold-67" d="M 2919 594 
Q 2688 288 2409 144 
Q 2131 0 1766 0 
Q 1125 0 706 504 
Q 288 1009 288 1791 
Q 288 2575 706 3076 
Q 1125 3578 1766 3578 
Q 2131 3578 2409 3434 
Q 2688 3291 2919 2981 
L 2919 3500 
L 4044 3500 
L 4044 353 
Q 4044 -491 3511 -936 
Q 2978 -1381 1966 -1381 
Q 1638 -1381 1331 -1331 
Q 1025 -1281 716 -1178 
L 716 -306 
Q 1009 -475 1290 -558 
Q 1572 -641 1856 -641 
Q 2406 -641 2662 -400 
Q 2919 -159 2919 353 
L 2919 594 
z
M 2181 2772 
Q 1834 2772 1640 2515 
Q 1447 2259 1447 1791 
Q 1447 1309 1634 1061 
Q 1822 813 2181 813 
Q 2531 813 2725 1069 
Q 2919 1325 2919 1791 
Q 2919 2259 2725 2515 
Q 2531 2772 2181 2772 
z
" transform="scale(0.015625)"/>
      <path id="DejaVuSans-Bold-76" d="M 97 3500 
L 1216 3500 
L 2088 1081 
L 2956 3500 
L 4078 3500 
L 2700 0 
L 1472 0 
L 97 3500 
z
" transform="scale(0.015625)"/>
     </defs>
     <use xlink:href="#DejaVuSans-Bold-41"/>
     <use xlink:href="#DejaVuSans-Bold-63" x="77.392578"/>
     <use xlink:href="#DejaVuSans-Bold-63" x="136.669922"/>
     <use xlink:href="#DejaVuSans-Bold-75" x="195.947266"/>
     <use xlink:href="#DejaVuSans-Bold-72" x="267.138672"/>
     <use xlink:href="#DejaVuSans-Bold-61" x="316.455078"/>
     <use xlink:href="#DejaVuSans-Bold-63" x="383.935547"/>
     <use xlink:href="#DejaVuSans-Bold-79" x="443.212891"/>
     <use xlink:href="#DejaVuSans-Bold-20" x="508.398438"/>
     <use xlink:href="#DejaVuSans-Bold-6c" x="543.212891"/>
     <use xlink:href="#DejaVuSans-Bold-65" x="577.490234"/>
     <use xlink:href="#DejaVuSans-Bold-61" x="645.3125"/>
     <use xlink:href="#DejaVuSans-Bold-72" x="712.792969"/>
     <use xlink:href="#DejaVuSans-Bold-6e" x="762.109375"/>
     <use xlink:href="#DejaVuSans-Bold-69" x="833.300781"/>
     <use xlink:href="#DejaVuSans-Bold-6e" x="867.578125"/>
     <use xlink:href="#DejaVuSans-Bold-67" x="938.769531"/>
     <use xlink:href="#DejaVuSans-Bold-20" x="1010.351562"/>
     <use xlink:href="#DejaVuSans-Bold-63" x="1045.166016"/>
     <use xlink:href="#DejaVuSans-Bold-75" x="1104.443359"/>
     <use xlink:href="#DejaVuSans-Bold-72" x="1175.634766"/>
     <use xlink:href="#DejaVuSans-Bold-76" x="1224.951172"/>
     <use xlink:href="#DejaVuSans-Bold-65" x="1290.136719"/>
     <use xlink:href="#DejaVuSans-Bold-73" x="1357.958984"/>
    </g>
   </g>
   <g id="legend_1">
    <g id="patch_7">
     <path d="M 317.7 238.597813 
L 442.155625 238.597813 
Q 444.955625 238.597813 444.955625 235.797813 
L 444.955625 195.989688 
Q 444.955625 193.189688 442.155625 193.189688 
L 317.7 193.189688 
Q 314.9 193.189688 314.9 195.989688 
L 314.9 235.797813 
Q 314.9 238.597813 317.7 238.597813 
z
" style="fill: #ffffff; opacity: 0.8; stroke: #cccccc; stroke-linejoin: miter"/>
    </g>
    <g id="line2d_31">
     <path d="M 320.5 204.5275 
L 334.5 204.5275 
L 348.5 204.5275 
" style="fill: none; stroke: #0000ff; stroke-width: 1.5; stroke-linecap: square"/>
     <g>
      <use xlink:href="#md52dc0221a" x="334.5" y="204.5275" style="fill: #0000ff; stroke: #0000ff"/>
     </g>
    </g>
    <g id="text_18">
     <!-- Training -->
     <g transform="translate(359.7 209.4275) scale(0.14 -0.14)">
      <defs>
       <path id="DejaVuSans-Bold-54" d="M 31 4666 
L 4331 4666 
L 4331 3756 
L 2784 3756 
L 2784 0 
L 1581 0 
L 1581 3756 
L 31 3756 
L 31 4666 
z
" transform="scale(0.015625)"/>
      </defs>
      <use xlink:href="#DejaVuSans-Bold-54"/>
      <use xlink:href="#DejaVuSans-Bold-72" x="57.212891"/>
      <use xlink:href="#DejaVuSans-Bold-61" x="106.529297"/>
      <use xlink:href="#DejaVuSans-Bold-69" x="174.009766"/>
      <use xlink:href="#DejaVuSans-Bold-6e" x="208.287109"/>
      <use xlink:href="#DejaVuSans-Bold-69" x="279.478516"/>
      <use xlink:href="#DejaVuSans-Bold-6e" x="313.755859"/>
      <use xlink:href="#DejaVuSans-Bold-67" x="384.947266"/>
     </g>
    </g>
    <g id="line2d_32">
     <path d="M 320.5 225.18625 
L 334.5 225.18625 
L 348.5 225.18625 
" style="fill: none; stroke-dasharray: 5.55,2.4; stroke-dashoffset: 0; stroke: #008000; stroke-width: 1.5"/>
     <g>
      <use xlink:href="#m34a7048804" x="334.5" y="225.18625" style="fill: #008000; stroke: #008000; stroke-linejoin: miter"/>
     </g>
    </g>
    <g id="text_19">
     <!-- Validation -->
     <g transform="translate(359.7 230.08625) scale(0.14 -0.14)">
      <defs>
       <path id="DejaVuSans-Bold-56" d="M 31 4666 
L 1241 4666 
L 2478 1222 
L 3713 4666 
L 4922 4666 
L 3194 0 
L 1759 0 
L 31 4666 
z
" transform="scale(0.015625)"/>
       <path id="DejaVuSans-Bold-64" d="M 2919 2988 
L 2919 4863 
L 4044 4863 
L 4044 0 
L 2919 0 
L 2919 506 
Q 2688 197 2409 53 
Q 2131 -91 1766 -91 
Q 1119 -91 703 423 
Q 288 938 288 1747 
Q 288 2556 703 3070 
Q 1119 3584 1766 3584 
Q 2128 3584 2408 3439 
Q 2688 3294 2919 2988 
z
M 2181 722 
Q 2541 722 2730 984 
Q 2919 1247 2919 1747 
Q 2919 2247 2730 2509 
Q 2541 2772 2181 2772 
Q 1825 2772 1636 2509 
Q 1447 2247 1447 1747 
Q 1447 1247 1636 984 
Q 1825 722 2181 722 
z
" transform="scale(0.015625)"/>
       <path id="DejaVuSans-Bold-74" d="M 1759 4494 
L 1759 3500 
L 2913 3500 
L 2913 2700 
L 1759 2700 
L 1759 1216 
Q 1759 972 1856 886 
Q 1953 800 2241 800 
L 2816 800 
L 2816 0 
L 1856 0 
Q 1194 0 917 276 
Q 641 553 641 1216 
L 641 2700 
L 84 2700 
L 84 3500 
L 641 3500 
L 641 4494 
L 1759 4494 
z
" transform="scale(0.015625)"/>
      </defs>
      <use xlink:href="#DejaVuSans-Bold-56"/>
      <use xlink:href="#DejaVuSans-Bold-61" x="71.892578"/>
      <use xlink:href="#DejaVuSans-Bold-6c" x="139.373047"/>
      <use xlink:href="#DejaVuSans-Bold-69" x="173.650391"/>
      <use xlink:href="#DejaVuSans-Bold-64" x="207.927734"/>
      <use xlink:href="#DejaVuSans-Bold-61" x="279.509766"/>
      <use xlink:href="#DejaVuSans-Bold-74" x="346.990234"/>
      <use xlink:href="#DejaVuSans-Bold-69" x="394.792969"/>
      <use xlink:href="#DejaVuSans-Bold-6f" x="429.070312"/>
      <use xlink:href="#DejaVuSans-Bold-6e" x="497.771484"/>
     </g>
    </g>
   </g>
  </g>
 </g>
 <defs>
  <clipPath id="p3e8e1a2763">
   <rect x="61.355625" y="23.837813" width="390.6" height="221.76"/>
  </clipPath>
 </defs>
</svg>
