<?xml version="1.0" encoding="utf-8" standalone="no"?>
<!DOCTYPE svg PUBLIC "-//W3C//DTD SVG 1.1//EN"
  "http://www.w3.org/Graphics/SVG/1.1/DTD/svg11.dtd">
<svg xmlns:xlink="http://www.w3.org/1999/xlink" width="454.349062pt" height="403.904125pt" viewBox="0 0 454.349062 403.904125" xmlns="http://www.w3.org/2000/svg" version="1.1">
 <metadata>
  <rdf:RDF xmlns:dc="http://purl.org/dc/elements/1.1/" xmlns:cc="http://creativecommons.org/ns#" xmlns:rdf="http://www.w3.org/1999/02/22-rdf-syntax-ns#">
   <cc:Work>
    <dc:type rdf:resource="http://purl.org/dc/dcmitype/StillImage"/>
    <dc:date>2025-05-18T17:01:48.302086</dc:date>
    <dc:format>image/svg+xml</dc:format>
    <dc:creator>
     <cc:Agent>
      <dc:title>Matplotlib v3.7.2, https://matplotlib.org/</dc:title>
     </cc:Agent>
    </dc:creator>
   </cc:Work>
  </rdf:RDF>
 </metadata>
 <defs>
  <style type="text/css">*{stroke-linejoin: round; stroke-linecap: butt}</style>
 </defs>
 <g id="figure_1">
  <g id="patch_1">
   <path d="M 0 403.904125 
L 454.349062 403.904125 
L 454.349062 0 
L 0 0 
z
" style="fill: #ffffff"/>
  </g>
  <g id="axes_1">
   <g id="patch_2">
    <path d="M 56.549063 358.605375 
L 447.149063 358.605375 
L 447.149063 25.965375 
L 56.549063 25.965375 
z
" style="fill: #ffffff"/>
   </g>
   <g id="matplotlib.axis_1">
    <g id="xtick_1">
     <g id="line2d_1">
      <defs>
       <path id="m34bc9a041b" d="M 0 0 
L 0 3.5 
" style="stroke: #000000; stroke-width: 0.8"/>
      </defs>
      <g>
       <use xlink:href="#m34bc9a041b" x="74.303608" y="358.605375" style="stroke: #000000; stroke-width: 0.8"/>
      </g>
     </g>
     <g id="text_1">
      <!-- 0.0 -->
      <g transform="translate(61.903764 376.243188) scale(0.14 -0.14)">
       <defs>
        <path id="DejaVuSans-Bold-30" d="M 2944 2338 
Q 2944 3213 2780 3570 
Q 2616 3928 2228 3928 
Q 1841 3928 1675 3570 
Q 1509 3213 1509 2338 
Q 1509 1453 1675 1090 
Q 1841 728 2228 728 
Q 2613 728 2778 1090 
Q 2944 1453 2944 2338 
z
M 4147 2328 
Q 4147 1169 3647 539 
Q 3147 -91 2228 -91 
Q 1306 -91 806 539 
Q 306 1169 306 2328 
Q 306 3491 806 4120 
Q 1306 4750 2228 4750 
Q 3147 4750 3647 4120 
Q 4147 3491 4147 2328 
z
" transform="scale(0.015625)"/>
        <path id="DejaVuSans-Bold-2e" d="M 653 1209 
L 1778 1209 
L 1778 0 
L 653 0 
L 653 1209 
z
" transform="scale(0.015625)"/>
       </defs>
       <use xlink:href="#DejaVuSans-Bold-30"/>
       <use xlink:href="#DejaVuSans-Bold-2e" x="69.580078"/>
       <use xlink:href="#DejaVuSans-Bold-30" x="107.568359"/>
      </g>
     </g>
    </g>
    <g id="xtick_2">
     <g id="line2d_2">
      <g>
       <use xlink:href="#m34bc9a041b" x="145.32179" y="358.605375" style="stroke: #000000; stroke-width: 0.8"/>
      </g>
     </g>
     <g id="text_2">
      <!-- 0.2 -->
      <g transform="translate(132.921946 376.243188) scale(0.14 -0.14)">
       <defs>
        <path id="DejaVuSans-Bold-32" d="M 1844 884 
L 3897 884 
L 3897 0 
L 506 0 
L 506 884 
L 2209 2388 
Q 2438 2594 2547 2791 
Q 2656 2988 2656 3200 
Q 2656 3528 2436 3728 
Q 2216 3928 1850 3928 
Q 1569 3928 1234 3808 
Q 900 3688 519 3450 
L 519 4475 
Q 925 4609 1322 4679 
Q 1719 4750 2100 4750 
Q 2938 4750 3402 4381 
Q 3866 4013 3866 3353 
Q 3866 2972 3669 2642 
Q 3472 2313 2841 1759 
L 1844 884 
z
" transform="scale(0.015625)"/>
       </defs>
       <use xlink:href="#DejaVuSans-Bold-30"/>
       <use xlink:href="#DejaVuSans-Bold-2e" x="69.580078"/>
       <use xlink:href="#DejaVuSans-Bold-32" x="107.568359"/>
      </g>
     </g>
    </g>
    <g id="xtick_3">
     <g id="line2d_3">
      <g>
       <use xlink:href="#m34bc9a041b" x="216.339972" y="358.605375" style="stroke: #000000; stroke-width: 0.8"/>
      </g>
     </g>
     <g id="text_3">
      <!-- 0.4 -->
      <g transform="translate(203.940128 376.243188) scale(0.14 -0.14)">
       <defs>
        <path id="DejaVuSans-Bold-34" d="M 2356 3675 
L 1038 1722 
L 2356 1722 
L 2356 3675 
z
M 2156 4666 
L 3494 4666 
L 3494 1722 
L 4159 1722 
L 4159 850 
L 3494 850 
L 3494 0 
L 2356 0 
L 2356 850 
L 288 850 
L 288 1881 
L 2156 4666 
z
" transform="scale(0.015625)"/>
       </defs>
       <use xlink:href="#DejaVuSans-Bold-30"/>
       <use xlink:href="#DejaVuSans-Bold-2e" x="69.580078"/>
       <use xlink:href="#DejaVuSans-Bold-34" x="107.568359"/>
      </g>
     </g>
    </g>
    <g id="xtick_4">
     <g id="line2d_4">
      <g>
       <use xlink:href="#m34bc9a041b" x="287.358153" y="358.605375" style="stroke: #000000; stroke-width: 0.8"/>
      </g>
     </g>
     <g id="text_4">
      <!-- 0.6 -->
      <g transform="translate(274.95831 376.243188) scale(0.14 -0.14)">
       <defs>
        <path id="DejaVuSans-Bold-36" d="M 2316 2303 
Q 2000 2303 1842 2098 
Q 1684 1894 1684 1484 
Q 1684 1075 1842 870 
Q 2000 666 2316 666 
Q 2634 666 2792 870 
Q 2950 1075 2950 1484 
Q 2950 1894 2792 2098 
Q 2634 2303 2316 2303 
z
M 3803 4544 
L 3803 3681 
Q 3506 3822 3243 3889 
Q 2981 3956 2731 3956 
Q 2194 3956 1894 3657 
Q 1594 3359 1544 2772 
Q 1750 2925 1990 3001 
Q 2231 3078 2516 3078 
Q 3231 3078 3670 2659 
Q 4109 2241 4109 1563 
Q 4109 813 3618 361 
Q 3128 -91 2303 -91 
Q 1394 -91 895 523 
Q 397 1138 397 2266 
Q 397 3422 980 4083 
Q 1563 4744 2578 4744 
Q 2900 4744 3203 4694 
Q 3506 4644 3803 4544 
z
" transform="scale(0.015625)"/>
       </defs>
       <use xlink:href="#DejaVuSans-Bold-30"/>
       <use xlink:href="#DejaVuSans-Bold-2e" x="69.580078"/>
       <use xlink:href="#DejaVuSans-Bold-36" x="107.568359"/>
      </g>
     </g>
    </g>
    <g id="xtick_5">
     <g id="line2d_5">
      <g>
       <use xlink:href="#m34bc9a041b" x="358.376335" y="358.605375" style="stroke: #000000; stroke-width: 0.8"/>
      </g>
     </g>
     <g id="text_5">
      <!-- 0.8 -->
      <g transform="translate(345.976491 376.243188) scale(0.14 -0.14)">
       <defs>
        <path id="DejaVuSans-Bold-38" d="M 2228 2088 
Q 1891 2088 1709 1903 
Q 1528 1719 1528 1375 
Q 1528 1031 1709 848 
Q 1891 666 2228 666 
Q 2563 666 2741 848 
Q 2919 1031 2919 1375 
Q 2919 1722 2741 1905 
Q 2563 2088 2228 2088 
z
M 1350 2484 
Q 925 2613 709 2878 
Q 494 3144 494 3541 
Q 494 4131 934 4440 
Q 1375 4750 2228 4750 
Q 3075 4750 3515 4442 
Q 3956 4134 3956 3541 
Q 3956 3144 3739 2878 
Q 3522 2613 3097 2484 
Q 3572 2353 3814 2058 
Q 4056 1763 4056 1313 
Q 4056 619 3595 264 
Q 3134 -91 2228 -91 
Q 1319 -91 855 264 
Q 391 619 391 1313 
Q 391 1763 633 2058 
Q 875 2353 1350 2484 
z
M 1631 3419 
Q 1631 3141 1786 2991 
Q 1941 2841 2228 2841 
Q 2509 2841 2662 2991 
Q 2816 3141 2816 3419 
Q 2816 3697 2662 3845 
Q 2509 3994 2228 3994 
Q 1941 3994 1786 3844 
Q 1631 3694 1631 3419 
z
" transform="scale(0.015625)"/>
       </defs>
       <use xlink:href="#DejaVuSans-Bold-30"/>
       <use xlink:href="#DejaVuSans-Bold-2e" x="69.580078"/>
       <use xlink:href="#DejaVuSans-Bold-38" x="107.568359"/>
      </g>
     </g>
    </g>
    <g id="xtick_6">
     <g id="line2d_6">
      <g>
       <use xlink:href="#m34bc9a041b" x="429.394517" y="358.605375" style="stroke: #000000; stroke-width: 0.8"/>
      </g>
     </g>
     <g id="text_6">
      <!-- 1.0 -->
      <g transform="translate(416.994673 376.243188) scale(0.14 -0.14)">
       <defs>
        <path id="DejaVuSans-Bold-31" d="M 750 831 
L 1813 831 
L 1813 3847 
L 722 3622 
L 722 4441 
L 1806 4666 
L 2950 4666 
L 2950 831 
L 4013 831 
L 4013 0 
L 750 0 
L 750 831 
z
" transform="scale(0.015625)"/>
       </defs>
       <use xlink:href="#DejaVuSans-Bold-31"/>
       <use xlink:href="#DejaVuSans-Bold-2e" x="69.580078"/>
       <use xlink:href="#DejaVuSans-Bold-30" x="107.568359"/>
      </g>
     </g>
    </g>
    <g id="text_7">
     <!-- Recall -->
     <g transform="translate(228.038125 393.792563) scale(0.14 -0.14)">
      <defs>
       <path id="DejaVuSans-Bold-52" d="M 2297 2597 
Q 2675 2597 2839 2737 
Q 3003 2878 3003 3200 
Q 3003 3519 2839 3656 
Q 2675 3794 2297 3794 
L 1791 3794 
L 1791 2597 
L 2297 2597 
z
M 1791 1766 
L 1791 0 
L 588 0 
L 588 4666 
L 2425 4666 
Q 3347 4666 3776 4356 
Q 4206 4047 4206 3378 
Q 4206 2916 3982 2619 
Q 3759 2322 3309 2181 
Q 3556 2125 3751 1926 
Q 3947 1728 4147 1325 
L 4800 0 
L 3519 0 
L 2950 1159 
Q 2778 1509 2601 1637 
Q 2425 1766 2131 1766 
L 1791 1766 
z
" transform="scale(0.015625)"/>
       <path id="DejaVuSans-Bold-65" d="M 4031 1759 
L 4031 1441 
L 1416 1441 
Q 1456 1047 1700 850 
Q 1944 653 2381 653 
Q 2734 653 3104 758 
Q 3475 863 3866 1075 
L 3866 213 
Q 3469 63 3072 -14 
Q 2675 -91 2278 -91 
Q 1328 -91 801 392 
Q 275 875 275 1747 
Q 275 2603 792 3093 
Q 1309 3584 2216 3584 
Q 3041 3584 3536 3087 
Q 4031 2591 4031 1759 
z
M 2881 2131 
Q 2881 2450 2695 2645 
Q 2509 2841 2209 2841 
Q 1884 2841 1681 2658 
Q 1478 2475 1428 2131 
L 2881 2131 
z
" transform="scale(0.015625)"/>
       <path id="DejaVuSans-Bold-63" d="M 3366 3391 
L 3366 2478 
Q 3138 2634 2908 2709 
Q 2678 2784 2431 2784 
Q 1963 2784 1702 2511 
Q 1441 2238 1441 1747 
Q 1441 1256 1702 982 
Q 1963 709 2431 709 
Q 2694 709 2930 787 
Q 3166 866 3366 1019 
L 3366 103 
Q 3103 6 2833 -42 
Q 2563 -91 2291 -91 
Q 1344 -91 809 395 
Q 275 881 275 1747 
Q 275 2613 809 3098 
Q 1344 3584 2291 3584 
Q 2566 3584 2833 3536 
Q 3100 3488 3366 3391 
z
" transform="scale(0.015625)"/>
       <path id="DejaVuSans-Bold-61" d="M 2106 1575 
Q 1756 1575 1579 1456 
Q 1403 1338 1403 1106 
Q 1403 894 1545 773 
Q 1688 653 1941 653 
Q 2256 653 2472 879 
Q 2688 1106 2688 1447 
L 2688 1575 
L 2106 1575 
z
M 3816 1997 
L 3816 0 
L 2688 0 
L 2688 519 
Q 2463 200 2181 54 
Q 1900 -91 1497 -91 
Q 953 -91 614 226 
Q 275 544 275 1050 
Q 275 1666 698 1953 
Q 1122 2241 2028 2241 
L 2688 2241 
L 2688 2328 
Q 2688 2594 2478 2717 
Q 2269 2841 1825 2841 
Q 1466 2841 1156 2769 
Q 847 2697 581 2553 
L 581 3406 
Q 941 3494 1303 3539 
Q 1666 3584 2028 3584 
Q 2975 3584 3395 3211 
Q 3816 2838 3816 1997 
z
" transform="scale(0.015625)"/>
       <path id="DejaVuSans-Bold-6c" d="M 538 4863 
L 1656 4863 
L 1656 0 
L 538 0 
L 538 4863 
z
" transform="scale(0.015625)"/>
      </defs>
      <use xlink:href="#DejaVuSans-Bold-52"/>
      <use xlink:href="#DejaVuSans-Bold-65" x="77.001953"/>
      <use xlink:href="#DejaVuSans-Bold-63" x="144.824219"/>
      <use xlink:href="#DejaVuSans-Bold-61" x="204.101562"/>
      <use xlink:href="#DejaVuSans-Bold-6c" x="271.582031"/>
      <use xlink:href="#DejaVuSans-Bold-6c" x="305.859375"/>
     </g>
    </g>
   </g>
   <g id="matplotlib.axis_2">
    <g id="ytick_1">
     <g id="line2d_7">
      <defs>
       <path id="m2c73f32c33" d="M 0 0 
L -3.5 0 
" style="stroke: #000000; stroke-width: 0.8"/>
      </defs>
      <g>
       <use xlink:href="#m2c73f32c33" x="56.549063" y="343.485375" style="stroke: #000000; stroke-width: 0.8"/>
      </g>
     </g>
     <g id="text_8">
      <!-- 0.5 -->
      <g transform="translate(24.749375 348.804281) scale(0.14 -0.14)">
       <defs>
        <path id="DejaVuSans-Bold-35" d="M 678 4666 
L 3669 4666 
L 3669 3781 
L 1638 3781 
L 1638 3059 
Q 1775 3097 1914 3117 
Q 2053 3138 2203 3138 
Q 3056 3138 3531 2711 
Q 4006 2284 4006 1522 
Q 4006 766 3489 337 
Q 2972 -91 2053 -91 
Q 1656 -91 1267 -14 
Q 878 63 494 219 
L 494 1166 
Q 875 947 1217 837 
Q 1559 728 1863 728 
Q 2300 728 2551 942 
Q 2803 1156 2803 1522 
Q 2803 1891 2551 2103 
Q 2300 2316 1863 2316 
Q 1603 2316 1309 2248 
Q 1016 2181 678 2041 
L 678 4666 
z
" transform="scale(0.015625)"/>
       </defs>
       <use xlink:href="#DejaVuSans-Bold-30"/>
       <use xlink:href="#DejaVuSans-Bold-2e" x="69.580078"/>
       <use xlink:href="#DejaVuSans-Bold-35" x="107.568359"/>
      </g>
     </g>
    </g>
    <g id="ytick_2">
     <g id="line2d_8">
      <g>
       <use xlink:href="#m2c73f32c33" x="56.549063" y="283.005375" style="stroke: #000000; stroke-width: 0.8"/>
      </g>
     </g>
     <g id="text_9">
      <!-- 0.6 -->
      <g transform="translate(24.749375 288.324281) scale(0.14 -0.14)">
       <use xlink:href="#DejaVuSans-Bold-30"/>
       <use xlink:href="#DejaVuSans-Bold-2e" x="69.580078"/>
       <use xlink:href="#DejaVuSans-Bold-36" x="107.568359"/>
      </g>
     </g>
    </g>
    <g id="ytick_3">
     <g id="line2d_9">
      <g>
       <use xlink:href="#m2c73f32c33" x="56.549063" y="222.525375" style="stroke: #000000; stroke-width: 0.8"/>
      </g>
     </g>
     <g id="text_10">
      <!-- 0.7 -->
      <g transform="translate(24.749375 227.844281) scale(0.14 -0.14)">
       <defs>
        <path id="DejaVuSans-Bold-37" d="M 428 4666 
L 3944 4666 
L 3944 3988 
L 2125 0 
L 953 0 
L 2675 3781 
L 428 3781 
L 428 4666 
z
" transform="scale(0.015625)"/>
       </defs>
       <use xlink:href="#DejaVuSans-Bold-30"/>
       <use xlink:href="#DejaVuSans-Bold-2e" x="69.580078"/>
       <use xlink:href="#DejaVuSans-Bold-37" x="107.568359"/>
      </g>
     </g>
    </g>
    <g id="ytick_4">
     <g id="line2d_10">
      <g>
       <use xlink:href="#m2c73f32c33" x="56.549063" y="162.045375" style="stroke: #000000; stroke-width: 0.8"/>
      </g>
     </g>
     <g id="text_11">
      <!-- 0.8 -->
      <g transform="translate(24.749375 167.364281) scale(0.14 -0.14)">
       <use xlink:href="#DejaVuSans-Bold-30"/>
       <use xlink:href="#DejaVuSans-Bold-2e" x="69.580078"/>
       <use xlink:href="#DejaVuSans-Bold-38" x="107.568359"/>
      </g>
     </g>
    </g>
    <g id="ytick_5">
     <g id="line2d_11">
      <g>
       <use xlink:href="#m2c73f32c33" x="56.549063" y="101.565375" style="stroke: #000000; stroke-width: 0.8"/>
      </g>
     </g>
     <g id="text_12">
      <!-- 0.9 -->
      <g transform="translate(24.749375 106.884281) scale(0.14 -0.14)">
       <defs>
        <path id="DejaVuSans-Bold-39" d="M 641 103 
L 641 966 
Q 928 831 1190 764 
Q 1453 697 1709 697 
Q 2247 697 2547 995 
Q 2847 1294 2900 1881 
Q 2688 1725 2447 1647 
Q 2206 1569 1925 1569 
Q 1209 1569 770 1986 
Q 331 2403 331 3084 
Q 331 3838 820 4291 
Q 1309 4744 2131 4744 
Q 3044 4744 3544 4128 
Q 4044 3513 4044 2388 
Q 4044 1231 3459 570 
Q 2875 -91 1856 -91 
Q 1528 -91 1228 -42 
Q 928 6 641 103 
z
M 2125 2350 
Q 2441 2350 2600 2554 
Q 2759 2759 2759 3169 
Q 2759 3575 2600 3781 
Q 2441 3988 2125 3988 
Q 1809 3988 1650 3781 
Q 1491 3575 1491 3169 
Q 1491 2759 1650 2554 
Q 1809 2350 2125 2350 
z
" transform="scale(0.015625)"/>
       </defs>
       <use xlink:href="#DejaVuSans-Bold-30"/>
       <use xlink:href="#DejaVuSans-Bold-2e" x="69.580078"/>
       <use xlink:href="#DejaVuSans-Bold-39" x="107.568359"/>
      </g>
     </g>
    </g>
    <g id="ytick_6">
     <g id="line2d_12">
      <g>
       <use xlink:href="#m2c73f32c33" x="56.549063" y="41.085375" style="stroke: #000000; stroke-width: 0.8"/>
      </g>
     </g>
     <g id="text_13">
      <!-- 1.0 -->
      <g transform="translate(24.749375 46.404281) scale(0.14 -0.14)">
       <use xlink:href="#DejaVuSans-Bold-31"/>
       <use xlink:href="#DejaVuSans-Bold-2e" x="69.580078"/>
       <use xlink:href="#DejaVuSans-Bold-30" x="107.568359"/>
      </g>
     </g>
    </g>
    <g id="text_14">
     <!-- Precision -->
     <g transform="translate(17.837813 228.5235) rotate(-90) scale(0.14 -0.14)">
      <defs>
       <path id="DejaVuSans-Bold-50" d="M 588 4666 
L 2584 4666 
Q 3475 4666 3951 4270 
Q 4428 3875 4428 3144 
Q 4428 2409 3951 2014 
Q 3475 1619 2584 1619 
L 1791 1619 
L 1791 0 
L 588 0 
L 588 4666 
z
M 1791 3794 
L 1791 2491 
L 2456 2491 
Q 2806 2491 2997 2661 
Q 3188 2831 3188 3144 
Q 3188 3456 2997 3625 
Q 2806 3794 2456 3794 
L 1791 3794 
z
" transform="scale(0.015625)"/>
       <path id="DejaVuSans-Bold-72" d="M 3138 2547 
Q 2991 2616 2845 2648 
Q 2700 2681 2553 2681 
Q 2122 2681 1889 2404 
Q 1656 2128 1656 1613 
L 1656 0 
L 538 0 
L 538 3500 
L 1656 3500 
L 1656 2925 
Q 1872 3269 2151 3426 
Q 2431 3584 2822 3584 
Q 2878 3584 2943 3579 
Q 3009 3575 3134 3559 
L 3138 2547 
z
" transform="scale(0.015625)"/>
       <path id="DejaVuSans-Bold-69" d="M 538 3500 
L 1656 3500 
L 1656 0 
L 538 0 
L 538 3500 
z
M 538 4863 
L 1656 4863 
L 1656 3950 
L 538 3950 
L 538 4863 
z
" transform="scale(0.015625)"/>
       <path id="DejaVuSans-Bold-73" d="M 3272 3391 
L 3272 2541 
Q 2913 2691 2578 2766 
Q 2244 2841 1947 2841 
Q 1628 2841 1473 2761 
Q 1319 2681 1319 2516 
Q 1319 2381 1436 2309 
Q 1553 2238 1856 2203 
L 2053 2175 
Q 2913 2066 3209 1816 
Q 3506 1566 3506 1031 
Q 3506 472 3093 190 
Q 2681 -91 1863 -91 
Q 1516 -91 1145 -36 
Q 775 19 384 128 
L 384 978 
Q 719 816 1070 734 
Q 1422 653 1784 653 
Q 2113 653 2278 743 
Q 2444 834 2444 1013 
Q 2444 1163 2330 1236 
Q 2216 1309 1875 1350 
L 1678 1375 
Q 931 1469 631 1722 
Q 331 1975 331 2491 
Q 331 3047 712 3315 
Q 1094 3584 1881 3584 
Q 2191 3584 2531 3537 
Q 2872 3491 3272 3391 
z
" transform="scale(0.015625)"/>
       <path id="DejaVuSans-Bold-6f" d="M 2203 2784 
Q 1831 2784 1636 2517 
Q 1441 2250 1441 1747 
Q 1441 1244 1636 976 
Q 1831 709 2203 709 
Q 2569 709 2762 976 
Q 2956 1244 2956 1747 
Q 2956 2250 2762 2517 
Q 2569 2784 2203 2784 
z
M 2203 3584 
Q 3106 3584 3614 3096 
Q 4122 2609 4122 1747 
Q 4122 884 3614 396 
Q 3106 -91 2203 -91 
Q 1297 -91 786 396 
Q 275 884 275 1747 
Q 275 2609 786 3096 
Q 1297 3584 2203 3584 
z
" transform="scale(0.015625)"/>
       <path id="DejaVuSans-Bold-6e" d="M 4056 2131 
L 4056 0 
L 2931 0 
L 2931 347 
L 2931 1631 
Q 2931 2084 2911 2256 
Q 2891 2428 2841 2509 
Q 2775 2619 2662 2680 
Q 2550 2741 2406 2741 
Q 2056 2741 1856 2470 
Q 1656 2200 1656 1722 
L 1656 0 
L 538 0 
L 538 3500 
L 1656 3500 
L 1656 2988 
Q 1909 3294 2193 3439 
Q 2478 3584 2822 3584 
Q 3428 3584 3742 3212 
Q 4056 2841 4056 2131 
z
" transform="scale(0.015625)"/>
      </defs>
      <use xlink:href="#DejaVuSans-Bold-50"/>
      <use xlink:href="#DejaVuSans-Bold-72" x="73.291016"/>
      <use xlink:href="#DejaVuSans-Bold-65" x="122.607422"/>
      <use xlink:href="#DejaVuSans-Bold-63" x="190.429688"/>
      <use xlink:href="#DejaVuSans-Bold-69" x="249.707031"/>
      <use xlink:href="#DejaVuSans-Bold-73" x="283.984375"/>
      <use xlink:href="#DejaVuSans-Bold-69" x="343.505859"/>
      <use xlink:href="#DejaVuSans-Bold-6f" x="377.783203"/>
      <use xlink:href="#DejaVuSans-Bold-6e" x="446.484375"/>
     </g>
    </g>
   </g>
   <g id="line2d_13">
    <path d="M 429.394517 343.485375 
L 429.394517 238.338205 
L 429.039426 238.471215 
L 429.039426 235.705334 
L 428.684335 235.837549 
L 428.684335 232.183936 
L 428.329244 232.315005 
L 428.329244 231.462282 
L 427.974153 231.593215 
L 427.974153 231.022565 
L 427.619063 231.153466 
L 427.619063 230.867444 
L 427.263972 230.998418 
L 427.263972 228.984404 
L 426.908881 229.114799 
L 426.908881 226.788097 
L 426.55379 226.917777 
L 426.55379 226.331809 
L 425.843608 226.591257 
L 425.843608 226.003187 
L 425.488517 226.132954 
L 425.488517 225.838184 
L 425.133426 225.968017 
L 425.133426 224.784318 
L 424.778335 224.913866 
L 424.778335 224.616779 
L 424.068153 224.876188 
L 424.068153 224.280279 
L 423.713063 224.410021 
L 423.713063 223.812184 
L 423.002881 224.071739 
L 423.002881 223.471719 
L 422.292699 223.731529 
L 422.292699 223.430635 
L 421.937608 223.560696 
L 421.937608 223.259251 
L 421.582517 223.389375 
L 421.582517 223.087376 
L 420.872335 223.347938 
L 420.872335 222.742149 
L 420.162153 223.002963 
L 420.162153 221.785159 
L 419.807063 221.915346 
L 419.807063 221.609672 
L 419.451972 221.73992 
L 419.451972 220.512293 
L 418.74179 220.772332 
L 418.74179 220.464055 
L 418.386699 220.594228 
L 418.386699 219.045462 
L 417.676517 219.305069 
L 417.676517 217.42999 
L 416.611244 217.818415 
L 416.611244 215.606999 
L 416.256153 215.735892 
L 416.256153 215.417969 
L 415.901063 215.546913 
L 415.901063 214.589897 
L 415.545972 214.718609 
L 415.545972 214.077946 
L 415.190881 214.206565 
L 415.190881 213.885375 
L 414.83579 214.014042 
L 414.83579 213.047166 
L 414.480699 213.175592 
L 414.480699 212.528307 
L 413.770517 212.78515 
L 413.770517 211.483572 
L 413.060335 211.740003 
L 413.060335 211.085676 
L 412.350153 211.342281 
L 412.350153 210.02648 
L 410.92979 210.539589 
L 410.92979 210.208779 
L 410.574699 210.33739 
L 410.574699 210.005923 
L 410.219608 210.134575 
L 410.219608 209.469814 
L 409.509426 209.727086 
L 409.509426 209.393632 
L 409.154335 209.522406 
L 409.154335 208.518504 
L 408.089063 208.904591 
L 408.089063 208.568452 
L 407.378881 208.826515 
L 407.378881 208.152042 
L 406.313608 208.539667 
L 406.313608 208.201164 
L 405.958517 208.330611 
L 405.958517 206.629387 
L 405.603426 206.758215 
L 405.603426 206.416216 
L 405.248335 206.545079 
L 405.248335 204.480833 
L 404.538153 204.73714 
L 404.538153 204.044055 
L 404.183063 204.172167 
L 404.183063 203.824635 
L 403.827972 203.952777 
L 403.827972 203.604524 
L 402.762699 203.98964 
L 402.762699 203.640316 
L 402.052517 203.897727 
L 402.052517 203.196715 
L 400.277063 203.842063 
L 400.277063 203.489837 
L 399.921972 203.619346 
L 399.921972 201.848866 
L 399.21179 202.106706 
L 399.21179 200.678617 
L 396.726153 201.582462 
L 396.726153 200.501433 
L 396.371063 200.63083 
L 396.371063 199.906838 
L 395.660881 200.165505 
L 395.660881 199.802245 
L 395.30579 199.931705 
L 395.30579 199.567661 
L 393.885426 200.086849 
L 393.885426 199.721441 
L 393.175244 199.981927 
L 393.175244 199.248533 
L 392.820153 199.378708 
L 392.820153 198.642506 
L 392.109972 198.902716 
L 392.109972 198.163291 
L 391.044699 198.554032 
L 391.044699 197.810956 
L 390.334517 198.071731 
L 390.334517 197.325375 
L 389.624335 197.58621 
L 389.624335 196.836546 
L 389.269244 196.966881 
L 389.269244 196.590903 
L 387.848881 197.11361 
L 387.848881 195.979394 
L 387.49379 196.109996 
L 387.49379 195.730438 
L 386.428517 196.122938 
L 386.428517 195.742107 
L 384.653063 196.399661 
L 384.653063 196.01712 
L 384.297972 196.149089 
L 384.297972 195.381621 
L 383.942881 195.513385 
L 383.942881 195.128452 
L 382.877608 195.52445 
L 382.877608 195.138205 
L 382.522517 195.270439 
L 382.522517 194.883313 
L 382.167426 195.015556 
L 382.167426 194.627544 
L 381.457244 194.892272 
L 381.457244 193.722886 
L 381.102153 193.854925 
L 381.102153 193.463557 
L 380.747063 193.5956 
L 380.747063 193.203328 
L 379.68179 193.600158 
L 379.68179 193.206524 
L 378.261426 193.737951 
L 378.261426 192.946792 
L 377.906335 193.079771 
L 377.906335 192.682921 
L 377.551244 192.815901 
L 377.551244 192.019646 
L 376.130881 192.552042 
L 376.130881 192.151924 
L 375.420699 192.419062 
L 375.420699 192.017764 
L 375.065608 192.151451 
L 375.065608 190.942569 
L 374.000335 191.342899 
L 374.000335 190.937781 
L 373.645244 191.071459 
L 373.645244 190.665375 
L 372.224881 191.201504 
L 372.224881 189.975941 
L 371.86979 190.109835 
L 371.86979 189.288618 
L 371.514699 189.422255 
L 371.514699 189.010285 
L 371.159608 189.143912 
L 371.159608 188.730945 
L 369.739244 189.266863 
L 369.739244 188.436648 
L 369.384153 188.570725 
L 369.384153 186.90017 
L 368.318881 187.30076 
L 368.318881 186.880425 
L 367.96379 187.014182 
L 367.96379 186.592813 
L 366.543426 187.129246 
L 366.543426 186.706039 
L 365.833244 186.975209 
L 365.833244 184.844706 
L 365.478153 184.978312 
L 365.478153 183.258509 
L 362.992517 184.192981 
L 362.992517 183.759059 
L 362.282335 184.027748 
L 362.282335 183.156318 
L 361.572153 183.424884 
L 361.572153 182.987362 
L 359.796699 183.661801 
L 359.796699 183.222007 
L 359.086517 183.493001 
L 359.086517 183.051787 
L 358.376335 183.323234 
L 358.376335 182.88059 
L 357.666153 183.152489 
L 357.666153 182.708408 
L 357.311063 182.844453 
L 357.311063 181.953132 
L 356.955972 182.088843 
L 356.955972 181.193483 
L 356.600881 181.328853 
L 356.600881 180.879572 
L 354.825426 181.558844 
L 354.825426 180.201164 
L 354.115244 180.472875 
L 354.115244 180.017926 
L 352.33979 180.700306 
L 352.33979 179.784588 
L 351.629608 180.058156 
L 351.629608 179.598307 
L 351.274517 179.735177 
L 351.274517 179.274099 
L 350.564335 179.548011 
L 350.564335 179.085375 
L 350.209244 179.222416 
L 350.209244 178.293733 
L 347.723608 179.256116 
L 347.723608 178.788083 
L 347.368517 178.926339 
L 347.368517 177.986783 
L 345.948153 178.53992 
L 345.948153 178.067377 
L 345.237972 178.344949 
L 345.237972 177.870771 
L 344.172699 178.288223 
L 344.172699 177.812055 
L 343.817608 177.95143 
L 343.817608 176.51605 
L 343.107426 176.793572 
L 343.107426 176.312452 
L 342.397244 176.590411 
L 342.397244 176.107597 
L 342.042153 176.246652 
L 342.042153 175.762488 
L 341.687063 175.901474 
L 341.687063 175.415954 
L 340.62179 175.833562 
L 340.62179 174.857338 
L 340.266699 174.996394 
L 340.266699 174.506395 
L 338.491244 175.204203 
L 338.491244 174.711344 
L 337.781063 174.991776 
L 337.781063 174.49714 
L 336.71579 174.918884 
L 336.71579 172.424358 
L 336.360699 172.563636 
L 336.360699 172.061171 
L 336.005608 172.200359 
L 336.005608 171.696439 
L 335.650517 171.835535 
L 335.650517 171.330151 
L 334.940335 171.608452 
L 334.940335 171.101204 
L 333.519972 171.659811 
L 333.519972 170.638873 
L 331.389426 171.481041 
L 331.389426 170.450847 
L 330.324153 170.87361 
L 330.324153 170.355604 
L 329.969063 170.496729 
L 329.969063 169.456491 
L 329.613972 169.597095 
L 329.613972 168.551456 
L 328.193608 169.1136 
L 328.193608 167.531393 
L 324.642699 168.945778 
L 324.642699 167.876406 
L 323.222335 168.447537 
L 323.222335 167.369799 
L 321.09179 168.23083 
L 321.09179 167.142778 
L 319.671426 167.7197 
L 319.671426 167.171973 
L 319.316335 167.316568 
L 319.316335 166.216409 
L 316.830699 167.231377 
L 316.830699 166.676094 
L 315.410335 167.261599 
L 315.410335 166.703111 
L 314.700153 166.996954 
L 314.700153 166.436195 
L 314.345063 166.583148 
L 314.345063 166.020586 
L 313.989972 166.167396 
L 313.989972 165.603022 
L 313.634881 165.749686 
L 313.634881 165.183488 
L 312.214517 165.771631 
L 312.214517 164.631218 
L 310.439063 165.369246 
L 310.439063 163.640771 
L 307.953426 164.67812 
L 307.953426 164.095544 
L 306.177972 164.844693 
L 306.177972 163.66999 
L 305.112699 164.120669 
L 305.112699 162.34294 
L 303.337244 163.093296 
L 303.337244 161.294071 
L 301.56179 162.045375 
L 301.56179 160.832743 
L 300.141426 161.436005 
L 300.141426 160.825098 
L 298.721063 161.432143 
L 298.721063 159.583085 
L 296.945608 160.341713 
L 296.945608 159.719221 
L 295.170153 160.484601 
L 295.170153 159.228713 
L 294.459972 159.53518 
L 294.459972 158.27029 
L 294.104881 158.422875 
L 294.104881 157.787331 
L 293.394699 158.092434 
L 293.394699 157.453961 
L 292.684517 157.759391 
L 292.684517 154.535309 
L 292.329426 154.685375 
L 292.329426 153.382457 
L 291.974335 153.53159 
L 291.974335 152.876864 
L 291.264153 153.174975 
L 291.264153 152.517151 
L 290.198881 152.965268 
L 290.198881 152.30363 
L 289.133608 152.7533 
L 289.133608 152.087804 
L 288.778517 152.237807 
L 288.778517 151.569813 
L 287.358153 152.171089 
L 287.358153 151.498454 
L 287.003063 151.649086 
L 287.003063 150.9739 
L 286.292881 151.274964 
L 286.292881 150.596486 
L 285.582699 150.897755 
L 285.582699 149.532272 
L 285.227608 149.68206 
L 285.227608 148.995748 
L 284.872517 149.145209 
L 284.872517 148.456249 
L 284.162335 148.754916 
L 284.162335 148.062534 
L 283.097062 148.511389 
L 283.097062 145.713223 
L 282.03179 146.156561 
L 282.03179 145.449731 
L 279.191063 146.644173 
L 279.191063 145.928928 
L 278.835972 146.079349 
L 278.835972 143.918804 
L 278.480881 144.067193 
L 278.480881 142.614753 
L 277.415608 143.057468 
L 277.415608 142.32555 
L 277.060517 142.47313 
L 277.060517 139.520566 
L 276.350335 139.810081 
L 276.350335 139.064756 
L 274.929972 139.645375 
L 274.929972 138.894277 
L 273.864699 139.331575 
L 273.864699 138.575524 
L 271.023972 139.753653 
L 271.023972 138.987947 
L 270.31379 139.285072 
L 270.31379 137.742909 
L 269.248517 138.186292 
L 269.248517 137.408805 
L 268.893426 137.556541 
L 268.893426 136.775698 
L 268.538335 136.922913 
L 268.538335 136.138688 
L 268.183244 136.285375 
L 268.183244 135.49774 
L 266.762881 136.085064 
L 266.762881 134.494423 
L 266.40779 134.640375 
L 266.40779 133.840305 
L 264.987426 134.424588 
L 264.987426 133.617867 
L 263.567063 134.205375 
L 263.567063 133.391893 
L 261.791608 134.131529 
L 261.791608 133.310094 
L 260.726335 133.756343 
L 260.726335 132.928994 
L 260.371244 133.077608 
L 260.371244 131.412648 
L 258.950881 132.003022 
L 258.950881 130.318162 
L 258.240699 130.611691 
L 258.240699 128.911118 
L 257.530517 129.201931 
L 257.530517 128.345076 
L 254.68979 129.518316 
L 254.68979 128.649011 
L 253.624517 129.093497 
L 253.624517 128.217578 
L 253.269426 128.365511 
L 253.269426 125.716092 
L 251.849063 126.297746 
L 251.849063 125.403447 
L 251.493972 125.548823 
L 251.493972 124.650142 
L 250.073608 125.231462 
L 250.073608 123.414171 
L 249.008335 123.84748 
L 249.008335 122.930015 
L 246.87779 123.802249 
L 246.87779 121.94099 
L 245.812517 122.375698 
L 245.812517 120.492569 
L 244.747244 120.92335 
L 244.747244 119.972332 
L 243.326881 120.548149 
L 243.326881 119.587752 
L 237.290335 122.105752 
L 237.290335 121.115621 
L 235.514881 121.879268 
L 235.514881 120.877344 
L 234.804699 121.183648 
L 234.804699 120.174606 
L 234.449608 120.326993 
L 234.449608 119.312402 
L 230.543608 121.009635 
L 230.543608 119.972332 
L 229.833426 120.285375 
L 229.833426 119.240445 
L 228.413063 119.866938 
L 228.413063 118.810676 
L 225.572335 120.079661 
L 225.572335 119.004393 
L 223.086699 120.135997 
L 223.086699 119.042963 
L 222.376517 119.368465 
L 222.376517 118.266965 
L 221.311244 118.754428 
L 221.311244 116.525544 
L 220.245972 117.007077 
L 220.245972 113.609572 
L 219.890881 113.765203 
L 219.890881 112.620859 
L 219.53579 112.77503 
L 219.53579 110.467193 
L 218.115426 111.073148 
L 218.115426 109.90288 
L 216.695063 110.510541 
L 216.695063 108.136373 
L 214.564517 109.040431 
L 214.564517 107.831321 
L 211.72379 109.056017 
L 211.72379 107.821927 
L 208.883063 109.07226 
L 208.883063 107.812136 
L 208.527972 107.96914 
L 208.527972 106.700469 
L 207.462699 107.168035 
L 207.462699 105.885375 
L 202.846517 107.955154 
L 202.846517 106.630203 
L 200.360881 107.780112 
L 200.360881 106.428089 
L 199.650699 106.758102 
L 199.650699 104.021416 
L 198.940517 104.342518 
L 198.940517 102.957498 
L 197.520153 103.597003 
L 197.520153 100.77992 
L 197.165063 100.935375 
L 197.165063 99.512529 
L 195.389608 100.285375 
L 195.389608 98.83816 
L 189.353063 101.565375 
L 186.867426 102.764695 
L 186.867426 99.66999 
L 185.802153 100.17503 
L 185.802153 98.602378 
L 184.38179 99.27313 
L 184.38179 97.674849 
L 184.026699 97.8408 
L 184.026699 94.607499 
L 182.961426 95.085375 
L 182.961426 93.441196 
L 182.606335 93.59795 
L 182.606335 91.939429 
L 182.251244 92.092604 
L 182.251244 90.419514 
L 176.56979 92.925375 
L 176.56979 89.392084 
L 176.214699 89.546913 
L 176.214699 87.758044 
L 175.859608 87.908601 
L 175.859608 86.102851 
L 175.149426 86.396124 
L 175.149426 84.567728 
L 174.794335 84.710293 
L 174.794335 82.864322 
L 172.66379 83.705509 
L 172.66379 81.812648 
L 172.308699 81.95024 
L 172.308699 80.038595 
L 169.467972 81.124399 
L 169.467972 79.149711 
L 169.112881 79.28327 
L 169.112881 77.288192 
L 168.047608 77.674699 
L 168.047608 75.645375 
L 163.786517 77.192838 
L 163.786517 75.062903 
L 158.460153 77.085375 
L 158.105063 77.228801 
L 158.105063 72.661279 
L 154.909244 73.845375 
L 154.909244 71.451902 
L 153.488881 71.968779 
L 153.488881 64.547444 
L 151.358335 65.170331 
L 151.358335 62.589375 
L 150.648153 62.782236 
L 150.648153 60.155645 
L 144.966699 61.636831 
L 141.060699 62.796144 
L 141.060699 59.79053 
L 139.285244 60.285375 
L 139.285244 54.022273 
L 133.248699 55.315963 
L 132.538517 55.485375 
L 132.538517 51.950046 
L 126.857063 53.101269 
L 121.88579 54.329171 
L 120.110335 54.83083 
L 120.110335 50.318963 
L 115.139063 51.423837 
L 110.877972 52.605375 
L 109.812699 52.944199 
L 109.812699 47.073494 
L 105.906699 47.805375 
L 105.906699 41.085375 
L 74.303608 41.085375 
L 74.303608 41.085375 
" clip-path="url(#peb354bf21b)" style="fill: none; stroke: #1f77b4; stroke-width: 2; stroke-linecap: square"/>
   </g>
   <g id="line2d_14">
    <path d="M 429.394517 343.485375 
L 429.394517 148.107597 
L 429.039426 148.195754 
L 429.039426 144.89433 
L 428.684335 144.980479 
L 428.684335 142.893375 
L 428.329244 142.978286 
L 428.329244 142.138007 
L 427.974153 142.222499 
L 427.974153 140.955953 
L 427.619063 141.039737 
L 427.619063 139.765947 
L 427.263972 139.849011 
L 427.263972 139.422696 
L 426.908881 139.505611 
L 426.908881 137.791974 
L 426.55379 137.873859 
L 426.55379 137.012093 
L 426.198699 137.093524 
L 426.198699 136.661246 
L 425.488517 136.823928 
L 425.488517 136.390315 
L 425.133426 136.471564 
L 425.133426 134.290854 
L 424.778335 134.370722 
L 424.778335 133.93203 
L 424.068153 134.091561 
L 424.068153 133.210676 
L 423.357972 133.369513 
L 423.357972 132.927308 
L 422.64779 133.086066 
L 422.64779 130.860375 
L 422.292699 130.938372 
L 422.292699 130.042033 
L 421.937608 130.119521 
L 421.937608 129.669856 
L 421.227426 129.824589 
L 421.227426 128.921595 
L 420.872335 128.99851 
L 420.872335 128.091691 
L 420.517244 128.168079 
L 420.517244 127.257407 
L 420.162153 127.333262 
L 420.162153 126.876388 
L 419.807063 126.952042 
L 419.807063 125.11511 
L 419.096881 125.264098 
L 419.096881 124.802145 
L 418.74179 124.876494 
L 418.74179 122.085375 
L 418.031608 122.230277 
L 418.031608 121.761472 
L 416.966335 121.978732 
L 416.966335 120.564043 
L 415.901063 120.779238 
L 415.901063 120.304887 
L 414.125608 120.664322 
L 414.125608 120.187282 
L 413.415426 120.331235 
L 413.415426 119.373069 
L 413.060335 119.444499 
L 413.060335 118.482084 
L 411.284881 118.837441 
L 411.284881 118.353022 
L 409.864517 118.638143 
L 409.864517 114.718089 
L 409.509426 114.786584 
L 409.509426 114.292079 
L 408.799244 114.428659 
L 408.799244 113.932434 
L 408.089063 114.068724 
L 408.089063 113.071879 
L 407.02379 113.274849 
L 407.02379 110.760163 
L 406.668699 110.826018 
L 406.668699 110.319812 
L 406.313608 110.385375 
L 406.313608 109.877792 
L 403.827972 110.337283 
L 403.827972 109.313291 
L 403.11779 109.443996 
L 403.11779 108.414358 
L 402.762699 108.479035 
L 402.762699 106.925837 
L 402.407608 106.989329 
L 402.407608 106.469159 
L 401.697426 106.595626 
L 401.697426 106.073565 
L 401.342335 106.136538 
L 401.342335 105.613018 
L 400.987244 105.675666 
L 400.987244 105.150681 
L 400.277063 105.275443 
L 400.277063 104.748533 
L 399.921972 104.810643 
L 399.921972 103.222361 
L 398.146517 103.527853 
L 398.146517 102.994036 
L 397.791426 103.05503 
L 397.791426 101.983302 
L 396.371063 102.224721 
L 396.371063 101.685375 
L 396.015972 101.745554 
L 396.015972 100.662688 
L 395.660881 100.722028 
L 395.660881 100.178496 
L 393.530335 100.534121 
L 393.530335 99.98658 
L 390.689608 100.463513 
L 390.689608 99.910907 
L 389.269244 100.150278 
L 389.269244 99.59454 
L 388.559063 99.713946 
L 388.559063 99.156059 
L 388.203972 99.215436 
L 388.203972 98.655897 
L 385.363244 99.131195 
L 385.363244 98.566367 
L 382.877608 98.985063 
L 382.877608 97.844499 
L 381.102153 98.141979 
L 381.102153 97.567222 
L 380.036881 97.745586 
L 380.036881 96.589172 
L 378.616517 96.824358 
L 378.616517 96.242109 
L 377.551244 96.418141 
L 377.551244 95.832979 
L 375.065608 96.244173 
L 375.065608 95.653796 
L 374.000335 95.830203 
L 374.000335 95.236831 
L 372.224881 95.530494 
L 372.224881 94.932932 
L 371.514699 95.050119 
L 371.514699 94.450081 
L 370.094335 94.683624 
L 370.094335 94.079899 
L 366.898517 94.607499 
L 366.898517 93.997003 
L 365.478153 94.232427 
L 365.478153 93.618114 
L 361.927244 94.209699 
L 361.927244 93.587743 
L 361.572153 93.647 
L 361.572153 93.023002 
L 356.24579 93.918478 
L 356.24579 93.283304 
L 354.470335 93.585375 
L 354.470335 92.945398 
L 353.405063 93.126305 
L 353.405063 91.191326 
L 351.984699 91.426289 
L 351.984699 90.123213 
L 351.274517 90.238732 
L 351.274517 89.583488 
L 350.919426 89.640747 
L 350.919426 88.983247 
L 349.854153 89.153702 
L 349.854153 88.492501 
L 348.43379 88.718788 
L 348.43379 88.053117 
L 345.593063 88.506364 
L 345.593063 87.833201 
L 345.237972 87.889728 
L 345.237972 87.214189 
L 344.882881 87.270102 
L 344.882881 86.592171 
L 337.425972 87.782262 
L 337.425972 87.086373 
L 337.070881 87.143802 
L 337.070881 86.445375 
L 336.005608 86.616115 
L 336.005608 85.913516 
L 335.650517 85.969903 
L 335.650517 85.26472 
L 333.519972 85.601111 
L 333.519972 84.889187 
L 331.744517 85.169262 
L 331.744517 84.451316 
L 331.389426 84.506913 
L 331.389426 83.063781 
L 331.034335 83.117807 
L 331.034335 82.392591 
L 329.613972 82.606619 
L 329.613972 81.876036 
L 328.90379 81.982124 
L 328.90379 80.511711 
L 328.193608 80.614787 
L 328.193608 79.874904 
L 325.707972 80.233592 
L 325.707972 79.485375 
L 325.352881 79.536236 
L 325.352881 78.031989 
L 315.765426 79.406036 
L 315.765426 78.624685 
L 313.634881 78.937948 
L 313.634881 78.148328 
L 310.439063 78.618802 
L 310.439063 77.817578 
L 310.083972 77.869533 
L 310.083972 77.064978 
L 309.37379 77.167193 
L 309.37379 76.358206 
L 299.786335 77.767032 
L 299.786335 76.925375 
L 299.431244 76.97855 
L 299.431244 76.13322 
L 295.880335 76.661846 
L 295.880335 74.939535 
L 294.104881 75.19757 
L 294.104881 74.326291 
L 292.684517 74.530536 
L 292.684517 73.651529 
L 289.84379 74.057338 
L 289.84379 73.16525 
L 286.292881 73.673648 
L 286.292881 72.765375 
L 282.741972 73.276343 
L 282.741972 72.351288 
L 278.835972 72.916954 
L 278.835972 71.973019 
L 277.060517 72.229561 
L 277.060517 70.317375 
L 266.052699 71.90998 
L 266.052699 70.89946 
L 264.987426 71.057764 
L 264.987426 70.038566 
L 263.211972 70.29754 
L 263.211972 68.230797 
L 262.856881 68.27962 
L 262.856881 67.238889 
L 261.436517 67.428751 
L 261.436517 66.377011 
L 253.979608 67.381027 
L 253.979608 66.285375 
L 252.914335 66.429375 
L 252.914335 65.323543 
L 251.138881 65.557051 
L 251.138881 64.436726 
L 249.008335 64.710375 
L 249.008335 63.573046 
L 245.102335 64.067775 
L 245.102335 62.901808 
L 240.131063 63.531561 
L 240.131063 62.32835 
L 234.094517 63.101649 
L 234.094517 61.85104 
L 229.833426 62.399912 
L 229.833426 61.111865 
L 226.637608 61.517807 
L 226.637608 60.198693 
L 220.245972 61.008199 
L 220.245972 59.628771 
L 219.53579 59.716655 
L 219.53579 58.32433 
L 215.274699 58.830118 
L 215.274699 57.391257 
L 214.209426 57.512042 
L 214.209426 56.055672 
L 205.687244 57.001164 
L 205.687244 55.44738 
L 199.295608 56.163491 
L 199.295608 54.525375 
L 189.708153 55.615105 
L 189.708153 53.837182 
L 187.222517 54.111837 
L 187.222517 52.285375 
L 186.512335 52.35494 
L 186.512335 50.505936 
L 186.157244 50.535375 
L 186.157244 48.669074 
L 175.149426 49.485375 
L 175.149426 47.407326 
L 172.66379 47.565375 
L 172.66379 45.420859 
L 163.076335 45.885375 
L 163.076335 43.494937 
L 146.031972 44.064685 
L 135.379244 44.581329 
L 135.379244 41.085375 
L 74.303608 41.085375 
L 74.303608 41.085375 
" clip-path="url(#peb354bf21b)" style="fill: none; stroke: #ff7f0e; stroke-width: 2; stroke-linecap: square"/>
   </g>
   <g id="patch_3">
    <path d="M 56.549063 358.605375 
L 56.549063 25.965375 
" style="fill: none; stroke: #000000; stroke-width: 0.8; stroke-linejoin: miter; stroke-linecap: square"/>
   </g>
   <g id="patch_4">
    <path d="M 447.149063 358.605375 
L 447.149063 25.965375 
" style="fill: none; stroke: #000000; stroke-width: 0.8; stroke-linejoin: miter; stroke-linecap: square"/>
   </g>
   <g id="patch_5">
    <path d="M 56.549063 358.605375 
L 447.149063 358.605375 
" style="fill: none; stroke: #000000; stroke-width: 0.8; stroke-linejoin: miter; stroke-linecap: square"/>
   </g>
   <g id="patch_6">
    <path d="M 56.549063 25.965375 
L 447.149063 25.965375 
" style="fill: none; stroke: #000000; stroke-width: 0.8; stroke-linejoin: miter; stroke-linecap: square"/>
   </g>
   <g id="text_15">
    <!-- FakeNewsNet: Precision-Recall -->
    <g transform="translate(105.815062 19.965375) scale(0.168 -0.168)">
     <defs>
      <path id="DejaVuSans-Bold-46" d="M 588 4666 
L 3834 4666 
L 3834 3756 
L 1791 3756 
L 1791 2888 
L 3713 2888 
L 3713 1978 
L 1791 1978 
L 1791 0 
L 588 0 
L 588 4666 
z
" transform="scale(0.015625)"/>
      <path id="DejaVuSans-Bold-6b" d="M 538 4863 
L 1656 4863 
L 1656 2216 
L 2944 3500 
L 4244 3500 
L 2534 1894 
L 4378 0 
L 3022 0 
L 1656 1459 
L 1656 0 
L 538 0 
L 538 4863 
z
" transform="scale(0.015625)"/>
      <path id="DejaVuSans-Bold-4e" d="M 588 4666 
L 1931 4666 
L 3628 1466 
L 3628 4666 
L 4769 4666 
L 4769 0 
L 3425 0 
L 1728 3200 
L 1728 0 
L 588 0 
L 588 4666 
z
" transform="scale(0.015625)"/>
      <path id="DejaVuSans-Bold-77" d="M 225 3500 
L 1313 3500 
L 1900 1088 
L 2491 3500 
L 3425 3500 
L 4013 1113 
L 4603 3500 
L 5691 3500 
L 4769 0 
L 3547 0 
L 2956 2406 
L 2369 0 
L 1147 0 
L 225 3500 
z
" transform="scale(0.015625)"/>
      <path id="DejaVuSans-Bold-74" d="M 1759 4494 
L 1759 3500 
L 2913 3500 
L 2913 2700 
L 1759 2700 
L 1759 1216 
Q 1759 972 1856 886 
Q 1953 800 2241 800 
L 2816 800 
L 2816 0 
L 1856 0 
Q 1194 0 917 276 
Q 641 553 641 1216 
L 641 2700 
L 84 2700 
L 84 3500 
L 641 3500 
L 641 4494 
L 1759 4494 
z
" transform="scale(0.015625)"/>
      <path id="DejaVuSans-Bold-3a" d="M 716 3500 
L 1844 3500 
L 1844 2291 
L 716 2291 
L 716 3500 
z
M 716 1209 
L 1844 1209 
L 1844 0 
L 716 0 
L 716 1209 
z
" transform="scale(0.015625)"/>
      <path id="DejaVuSans-Bold-20" transform="scale(0.015625)"/>
      <path id="DejaVuSans-Bold-2d" d="M 347 2297 
L 2309 2297 
L 2309 1388 
L 347 1388 
L 347 2297 
z
" transform="scale(0.015625)"/>
     </defs>
     <use xlink:href="#DejaVuSans-Bold-46"/>
     <use xlink:href="#DejaVuSans-Bold-61" x="62.435547"/>
     <use xlink:href="#DejaVuSans-Bold-6b" x="129.916016"/>
     <use xlink:href="#DejaVuSans-Bold-65" x="193.794922"/>
     <use xlink:href="#DejaVuSans-Bold-4e" x="261.617188"/>
     <use xlink:href="#DejaVuSans-Bold-65" x="345.308594"/>
     <use xlink:href="#DejaVuSans-Bold-77" x="413.130859"/>
     <use xlink:href="#DejaVuSans-Bold-73" x="505.513672"/>
     <use xlink:href="#DejaVuSans-Bold-4e" x="565.035156"/>
     <use xlink:href="#DejaVuSans-Bold-65" x="648.726562"/>
     <use xlink:href="#DejaVuSans-Bold-74" x="716.548828"/>
     <use xlink:href="#DejaVuSans-Bold-3a" x="764.351562"/>
     <use xlink:href="#DejaVuSans-Bold-20" x="804.341797"/>
     <use xlink:href="#DejaVuSans-Bold-50" x="839.15625"/>
     <use xlink:href="#DejaVuSans-Bold-72" x="912.447266"/>
     <use xlink:href="#DejaVuSans-Bold-65" x="961.763672"/>
     <use xlink:href="#DejaVuSans-Bold-63" x="1029.585938"/>
     <use xlink:href="#DejaVuSans-Bold-69" x="1088.863281"/>
     <use xlink:href="#DejaVuSans-Bold-73" x="1123.140625"/>
     <use xlink:href="#DejaVuSans-Bold-69" x="1182.662109"/>
     <use xlink:href="#DejaVuSans-Bold-6f" x="1216.939453"/>
     <use xlink:href="#DejaVuSans-Bold-6e" x="1285.640625"/>
     <use xlink:href="#DejaVuSans-Bold-2d" x="1356.832031"/>
     <use xlink:href="#DejaVuSans-Bold-52" x="1398.335938"/>
     <use xlink:href="#DejaVuSans-Bold-65" x="1475.337891"/>
     <use xlink:href="#DejaVuSans-Bold-63" x="1543.160156"/>
     <use xlink:href="#DejaVuSans-Bold-61" x="1602.4375"/>
     <use xlink:href="#DejaVuSans-Bold-6c" x="1669.917969"/>
     <use xlink:href="#DejaVuSans-Bold-6c" x="1704.195312"/>
    </g>
   </g>
   <g id="legend_1">
    <g id="patch_7">
     <path d="M 66.349063 351.605375 
L 246.835312 351.605375 
Q 249.635312 351.605375 249.635312 348.805375 
L 249.635312 290.492875 
Q 249.635312 287.692875 246.835312 287.692875 
L 66.349063 287.692875 
Q 63.549062 287.692875 63.549062 290.492875 
L 63.549062 348.805375 
Q 63.549062 351.605375 66.349063 351.605375 
z
" style="fill: #ffffff; opacity: 0.8; stroke: #cccccc; stroke-linejoin: miter"/>
    </g>
    <g id="text_16">
     <!-- Method -->
     <g transform="translate(130.995625 302.411) scale(0.12 -0.12)">
      <defs>
       <path id="DejaVuSans-Bold-4d" d="M 588 4666 
L 2119 4666 
L 3181 2169 
L 4250 4666 
L 5778 4666 
L 5778 0 
L 4641 0 
L 4641 3413 
L 3566 897 
L 2803 897 
L 1728 3413 
L 1728 0 
L 588 0 
L 588 4666 
z
" transform="scale(0.015625)"/>
       <path id="DejaVuSans-Bold-68" d="M 4056 2131 
L 4056 0 
L 2931 0 
L 2931 347 
L 2931 1625 
Q 2931 2084 2911 2256 
Q 2891 2428 2841 2509 
Q 2775 2619 2662 2680 
Q 2550 2741 2406 2741 
Q 2056 2741 1856 2470 
Q 1656 2200 1656 1722 
L 1656 0 
L 538 0 
L 538 4863 
L 1656 4863 
L 1656 2988 
Q 1909 3294 2193 3439 
Q 2478 3584 2822 3584 
Q 3428 3584 3742 3212 
Q 4056 2841 4056 2131 
z
" transform="scale(0.015625)"/>
       <path id="DejaVuSans-Bold-64" d="M 2919 2988 
L 2919 4863 
L 4044 4863 
L 4044 0 
L 2919 0 
L 2919 506 
Q 2688 197 2409 53 
Q 2131 -91 1766 -91 
Q 1119 -91 703 423 
Q 288 938 288 1747 
Q 288 2556 703 3070 
Q 1119 3584 1766 3584 
Q 2128 3584 2408 3439 
Q 2688 3294 2919 2988 
z
M 2181 722 
Q 2541 722 2730 984 
Q 2919 1247 2919 1747 
Q 2919 2247 2730 2509 
Q 2541 2772 2181 2772 
Q 1825 2772 1636 2509 
Q 1447 2247 1447 1747 
Q 1447 1247 1636 984 
Q 1825 722 2181 722 
z
" transform="scale(0.015625)"/>
      </defs>
      <use xlink:href="#DejaVuSans-Bold-4d"/>
      <use xlink:href="#DejaVuSans-Bold-65" x="99.511719"/>
      <use xlink:href="#DejaVuSans-Bold-74" x="167.333984"/>
      <use xlink:href="#DejaVuSans-Bold-68" x="215.136719"/>
      <use xlink:href="#DejaVuSans-Bold-6f" x="286.328125"/>
      <use xlink:href="#DejaVuSans-Bold-64" x="355.029297"/>
     </g>
    </g>
    <g id="line2d_15">
     <path d="M 69.149062 317.644438 
L 83.149062 317.644438 
L 97.149062 317.644438 
" style="fill: none; stroke: #1f77b4; stroke-width: 2; stroke-linecap: square"/>
    </g>
    <g id="text_17">
     <!-- BERT Baseline -->
     <g transform="translate(108.349063 322.544438) scale(0.14 -0.14)">
      <defs>
       <path id="DejaVuSans-Bold-42" d="M 2456 2859 
Q 2741 2859 2887 2984 
Q 3034 3109 3034 3353 
Q 3034 3594 2887 3720 
Q 2741 3847 2456 3847 
L 1791 3847 
L 1791 2859 
L 2456 2859 
z
M 2497 819 
Q 2859 819 3042 972 
Q 3225 1125 3225 1434 
Q 3225 1738 3044 1889 
Q 2863 2041 2497 2041 
L 1791 2041 
L 1791 819 
L 2497 819 
z
M 3616 2497 
Q 4003 2384 4215 2081 
Q 4428 1778 4428 1338 
Q 4428 663 3972 331 
Q 3516 0 2584 0 
L 588 0 
L 588 4666 
L 2394 4666 
Q 3366 4666 3802 4372 
Q 4238 4078 4238 3431 
Q 4238 3091 4078 2852 
Q 3919 2613 3616 2497 
z
" transform="scale(0.015625)"/>
       <path id="DejaVuSans-Bold-45" d="M 588 4666 
L 3834 4666 
L 3834 3756 
L 1791 3756 
L 1791 2888 
L 3713 2888 
L 3713 1978 
L 1791 1978 
L 1791 909 
L 3903 909 
L 3903 0 
L 588 0 
L 588 4666 
z
" transform="scale(0.015625)"/>
       <path id="DejaVuSans-Bold-54" d="M 31 4666 
L 4331 4666 
L 4331 3756 
L 2784 3756 
L 2784 0 
L 1581 0 
L 1581 3756 
L 31 3756 
L 31 4666 
z
" transform="scale(0.015625)"/>
      </defs>
      <use xlink:href="#DejaVuSans-Bold-42"/>
      <use xlink:href="#DejaVuSans-Bold-45" x="76.220703"/>
      <use xlink:href="#DejaVuSans-Bold-52" x="144.53125"/>
      <use xlink:href="#DejaVuSans-Bold-54" x="217.033203"/>
      <use xlink:href="#DejaVuSans-Bold-20" x="285.246094"/>
      <use xlink:href="#DejaVuSans-Bold-42" x="320.060547"/>
      <use xlink:href="#DejaVuSans-Bold-61" x="396.28125"/>
      <use xlink:href="#DejaVuSans-Bold-73" x="463.761719"/>
      <use xlink:href="#DejaVuSans-Bold-65" x="523.283203"/>
      <use xlink:href="#DejaVuSans-Bold-6c" x="591.105469"/>
      <use xlink:href="#DejaVuSans-Bold-69" x="625.382812"/>
      <use xlink:href="#DejaVuSans-Bold-6e" x="659.660156"/>
      <use xlink:href="#DejaVuSans-Bold-65" x="730.851562"/>
     </g>
    </g>
    <g id="line2d_16">
     <path d="M 69.149062 338.193813 
L 83.149062 338.193813 
L 97.149062 338.193813 
" style="fill: none; stroke: #ff7f0e; stroke-width: 2; stroke-linecap: square"/>
    </g>
    <g id="text_18">
     <!-- BERT + Proposed -->
     <g transform="translate(108.349063 343.093813) scale(0.14 -0.14)">
      <defs>
       <path id="DejaVuSans-Bold-2b" d="M 3053 4013 
L 3053 2375 
L 4684 2375 
L 4684 1638 
L 3053 1638 
L 3053 0 
L 2309 0 
L 2309 1638 
L 678 1638 
L 678 2375 
L 2309 2375 
L 2309 4013 
L 3053 4013 
z
" transform="scale(0.015625)"/>
       <path id="DejaVuSans-Bold-70" d="M 1656 506 
L 1656 -1331 
L 538 -1331 
L 538 3500 
L 1656 3500 
L 1656 2988 
Q 1888 3294 2169 3439 
Q 2450 3584 2816 3584 
Q 3463 3584 3878 3070 
Q 4294 2556 4294 1747 
Q 4294 938 3878 423 
Q 3463 -91 2816 -91 
Q 2450 -91 2169 54 
Q 1888 200 1656 506 
z
M 2400 2772 
Q 2041 2772 1848 2508 
Q 1656 2244 1656 1747 
Q 1656 1250 1848 986 
Q 2041 722 2400 722 
Q 2759 722 2948 984 
Q 3138 1247 3138 1747 
Q 3138 2247 2948 2509 
Q 2759 2772 2400 2772 
z
" transform="scale(0.015625)"/>
      </defs>
      <use xlink:href="#DejaVuSans-Bold-42"/>
      <use xlink:href="#DejaVuSans-Bold-45" x="76.220703"/>
      <use xlink:href="#DejaVuSans-Bold-52" x="144.53125"/>
      <use xlink:href="#DejaVuSans-Bold-54" x="217.033203"/>
      <use xlink:href="#DejaVuSans-Bold-20" x="285.246094"/>
      <use xlink:href="#DejaVuSans-Bold-2b" x="320.060547"/>
      <use xlink:href="#DejaVuSans-Bold-20" x="403.849609"/>
      <use xlink:href="#DejaVuSans-Bold-50" x="438.664062"/>
      <use xlink:href="#DejaVuSans-Bold-72" x="511.955078"/>
      <use xlink:href="#DejaVuSans-Bold-6f" x="561.271484"/>
      <use xlink:href="#DejaVuSans-Bold-70" x="629.972656"/>
      <use xlink:href="#DejaVuSans-Bold-6f" x="701.554688"/>
      <use xlink:href="#DejaVuSans-Bold-73" x="770.255859"/>
      <use xlink:href="#DejaVuSans-Bold-65" x="829.777344"/>
      <use xlink:href="#DejaVuSans-Bold-64" x="897.599609"/>
     </g>
    </g>
   </g>
  </g>
 </g>
 <defs>
  <clipPath id="peb354bf21b">
   <rect x="56.549063" y="25.965375" width="390.6" height="332.64"/>
  </clipPath>
 </defs>
</svg>
