<?xml version="1.0" encoding="utf-8" standalone="no"?>
<!DOCTYPE svg PUBLIC "-//W3C//DTD SVG 1.1//EN"
  "http://www.w3.org/Graphics/SVG/1.1/DTD/svg11.dtd">
<svg xmlns:xlink="http://www.w3.org/1999/xlink" width="247.308744pt" height="180.72pt" viewBox="0 0 247.308744 180.72" xmlns="http://www.w3.org/2000/svg" version="1.1">
 <metadata>
  <rdf:RDF xmlns:dc="http://purl.org/dc/elements/1.1/" xmlns:cc="http://creativecommons.org/ns#" xmlns:rdf="http://www.w3.org/1999/02/22-rdf-syntax-ns#">
   <cc:Work>
    <dc:type rdf:resource="http://purl.org/dc/dcmitype/StillImage"/>
    <dc:date>2025-05-09T18:38:28.669989</dc:date>
    <dc:format>image/svg+xml</dc:format>
    <dc:creator>
     <cc:Agent>
      <dc:title>Matplotlib v3.6.2, https://matplotlib.org/</dc:title>
     </cc:Agent>
    </dc:creator>
   </cc:Work>
  </rdf:RDF>
 </metadata>
 <defs>
  <style type="text/css">*{stroke-linejoin: round; stroke-linecap: butt}</style>
 </defs>
 <g id="figure_1">
  <g id="patch_1">
   <path d="M 0 180.72 
L 247.308744 180.72 
L 247.308744 0 
L 0 0 
z
" style="fill: #ffffff"/>
  </g>
  <g id="axes_1">
   <g id="patch_2">
    <path d="M 16.908744 173.52 
L 240.108744 173.52 
L 240.108744 7.2 
L 16.908744 7.2 
z
" style="fill: #ffffff"/>
   </g>
   <g id="PathCollection_1">
    <defs>
     <path id="m45478a9c12" d="M -3.535534 3.535534 
L 3.535534 -3.535534 
M -3.535534 -3.535534 
L 3.535534 3.535534 
" style="stroke: #6495ed; stroke-width: 1.5"/>
    </defs>
    <g clip-path="url(#pb08d366caf)">
     <use xlink:href="#m45478a9c12" x="54.108744" y="34.92" style="fill: #6495ed; stroke: #6495ed; stroke-width: 1.5"/>
     <use xlink:href="#m45478a9c12" x="72.708744" y="21.06" style="fill: #6495ed; stroke: #6495ed; stroke-width: 1.5"/>
     <use xlink:href="#m45478a9c12" x="91.308744" y="43.236" style="fill: #6495ed; stroke: #6495ed; stroke-width: 1.5"/>
     <use xlink:href="#m45478a9c12" x="65.268744" y="54.324" style="fill: #6495ed; stroke: #6495ed; stroke-width: 1.5"/>
     <use xlink:href="#m45478a9c12" x="80.148744" y="62.64" style="fill: #6495ed; stroke: #6495ed; stroke-width: 1.5"/>
     <use xlink:href="#m45478a9c12" x="46.668744" y="70.956" style="fill: #6495ed; stroke: #6495ed; stroke-width: 1.5"/>
     <use xlink:href="#m45478a9c12" x="102.468744" y="26.604" style="fill: #6495ed; stroke: #6495ed; stroke-width: 1.5"/>
     <use xlink:href="#m45478a9c12" x="61.548744" y="48.78" style="fill: #6495ed; stroke: #6495ed; stroke-width: 1.5"/>
     <use xlink:href="#m45478a9c12" x="83.868744" y="76.5" style="fill: #6495ed; stroke: #6495ed; stroke-width: 1.5"/>
     <use xlink:href="#m45478a9c12" x="109.908744" y="57.096" style="fill: #6495ed; stroke: #6495ed; stroke-width: 1.5"/>
    </g>
   </g>
   <g id="PathCollection_2">
    <defs>
     <path id="m3a9afdff04" d="M 0 3.535534 
C 0.937635 3.535534 1.836992 3.163008 2.5 2.5 
C 3.163008 1.836992 3.535534 0.937635 3.535534 0 
C 3.535534 -0.937635 3.163008 -1.836992 2.5 -2.5 
C 1.836992 -3.163008 0.937635 -3.535534 0 -3.535534 
C -0.937635 -3.535534 -1.836992 -3.163008 -2.5 -2.5 
C -3.163008 -1.836992 -3.535534 -0.937635 -3.535534 0 
C -3.535534 0.937635 -3.163008 1.836992 -2.5 2.5 
C -1.836992 3.163008 -0.937635 3.535534 0 3.535534 
z
" style="stroke: #6495ed"/>
    </defs>
    <g clip-path="url(#pb08d366caf)">
     <use xlink:href="#m3a9afdff04" x="147.108744" y="131.94" style="fill: #6495ed; stroke: #6495ed"/>
     <use xlink:href="#m3a9afdff04" x="165.708744" y="118.08" style="fill: #6495ed; stroke: #6495ed"/>
     <use xlink:href="#m3a9afdff04" x="184.308744" y="137.484" style="fill: #6495ed; stroke: #6495ed"/>
     <use xlink:href="#m3a9afdff04" x="139.668744" y="126.396" style="fill: #6495ed; stroke: #6495ed"/>
     <use xlink:href="#m3a9afdff04" x="154.548744" y="145.8" style="fill: #6495ed; stroke: #6495ed"/>
     <use xlink:href="#m3a9afdff04" x="191.748744" y="123.624" style="fill: #6495ed; stroke: #6495ed"/>
     <use xlink:href="#m3a9afdff04" x="176.868744" y="151.344" style="fill: #6495ed; stroke: #6495ed"/>
     <use xlink:href="#m3a9afdff04" x="128.508744" y="137.484" style="fill: #6495ed; stroke: #6495ed"/>
     <use xlink:href="#m3a9afdff04" x="202.908744" y="131.94" style="fill: #6495ed; stroke: #6495ed"/>
     <use xlink:href="#m3a9afdff04" x="158.268744" y="109.764" style="fill: #6495ed; stroke: #6495ed"/>
    </g>
   </g>
   <g id="matplotlib.axis_1"/>
   <g id="matplotlib.axis_2"/>
   <g id="patch_3">
    <path d="M 35.508744 173.52 
L 35.508744 7.2 
" style="fill: none; stroke: #000000; stroke-width: 1.5; stroke-linejoin: miter; stroke-linecap: square"/>
   </g>
   <g id="patch_4">
    <path d="M 16.908744 159.66 
L 240.108744 159.66 
" style="fill: none; stroke: #000000; stroke-width: 1.5; stroke-linejoin: miter; stroke-linecap: square"/>
   </g>
   <g id="patch_5">
    <path d="M 40.857663 159.66 
Q 124.790024 159.66 207.045334 159.66 
" style="fill: none; stroke: #000000; stroke-width: 1.5; stroke-linecap: round"/>
    <path d="M 203.045334 157.66 
L 207.045334 159.66 
L 203.045334 161.66 
" style="fill: none; stroke: #000000; stroke-width: 1.5; stroke-linecap: round"/>
   </g>
   <g id="patch_6">
    <path d="M 35.508744 155.859489 
Q 35.508744 86.201 35.508744 18.219562 
" style="fill: none; stroke: #000000; stroke-width: 1.5; stroke-linecap: round"/>
    <path d="M 33.508744 22.219562 
L 35.508744 18.219562 
L 37.508744 22.219562 
" style="fill: none; stroke: #000000; stroke-width: 1.5; stroke-linecap: round"/>
   </g>
   <g id="text_1">
    <!-- (a) -->
    <g transform="translate(7.2 34.541965) scale(0.14 -0.14)">
     <defs>
      <path id="DejaVuSans-Bold-28" d="M 2413 -844 
L 1484 -844 
Q 1006 -72 778 623 
Q 550 1319 550 2003 
Q 550 2688 779 3389 
Q 1009 4091 1484 4856 
L 2413 4856 
Q 2013 4116 1813 3408 
Q 1613 2700 1613 2009 
Q 1613 1319 1811 609 
Q 2009 -100 2413 -844 
z
" transform="scale(0.015625)"/>
      <path id="DejaVuSans-Bold-61" d="M 2106 1575 
Q 1756 1575 1579 1456 
Q 1403 1338 1403 1106 
Q 1403 894 1545 773 
Q 1688 653 1941 653 
Q 2256 653 2472 879 
Q 2688 1106 2688 1447 
L 2688 1575 
L 2106 1575 
z
M 3816 1997 
L 3816 0 
L 2688 0 
L 2688 519 
Q 2463 200 2181 54 
Q 1900 -91 1497 -91 
Q 953 -91 614 226 
Q 275 544 275 1050 
Q 275 1666 698 1953 
Q 1122 2241 2028 2241 
L 2688 2241 
L 2688 2328 
Q 2688 2594 2478 2717 
Q 2269 2841 1825 2841 
Q 1466 2841 1156 2769 
Q 847 2697 581 2553 
L 581 3406 
Q 941 3494 1303 3539 
Q 1666 3584 2028 3584 
Q 2975 3584 3395 3211 
Q 3816 2838 3816 1997 
z
" transform="scale(0.015625)"/>
      <path id="DejaVuSans-Bold-29" d="M 513 -844 
Q 913 -100 1113 609 
Q 1313 1319 1313 2009 
Q 1313 2700 1113 3408 
Q 913 4116 513 4856 
L 1441 4856 
Q 1916 4091 2145 3389 
Q 2375 2688 2375 2003 
Q 2375 1319 2147 623 
Q 1919 -72 1441 -844 
L 513 -844 
z
" transform="scale(0.015625)"/>
     </defs>
     <use xlink:href="#DejaVuSans-Bold-28"/>
     <use xlink:href="#DejaVuSans-Bold-61" x="45.703125"/>
     <use xlink:href="#DejaVuSans-Bold-29" x="113.183594"/>
    </g>
   </g>
  </g>
 </g>
 <defs>
  <clipPath id="pb08d366caf">
   <rect x="16.908744" y="7.2" width="223.2" height="166.32"/>
  </clipPath>
 </defs>
</svg>
