<?xml version="1.0" encoding="utf-8" standalone="no"?>
<!DOCTYPE svg PUBLIC "-//W3C//DTD SVG 1.1//EN"
  "http://www.w3.org/Graphics/SVG/1.1/DTD/svg11.dtd">
<svg xmlns:xlink="http://www.w3.org/1999/xlink" width="246.734525pt" height="180.72pt" viewBox="0 0 246.734525 180.72" xmlns="http://www.w3.org/2000/svg" version="1.1">
 <metadata>
  <rdf:RDF xmlns:dc="http://purl.org/dc/elements/1.1/" xmlns:cc="http://creativecommons.org/ns#" xmlns:rdf="http://www.w3.org/1999/02/22-rdf-syntax-ns#">
   <cc:Work>
    <dc:type rdf:resource="http://purl.org/dc/dcmitype/StillImage"/>
    <dc:date>2025-05-09T18:38:28.771988</dc:date>
    <dc:format>image/svg+xml</dc:format>
    <dc:creator>
     <cc:Agent>
      <dc:title>Matplotlib v3.6.2, https://matplotlib.org/</dc:title>
     </cc:Agent>
    </dc:creator>
   </cc:Work>
  </rdf:RDF>
 </metadata>
 <defs>
  <style type="text/css">*{stroke-linejoin: round; stroke-linecap: butt}</style>
 </defs>
 <g id="figure_1">
  <g id="patch_1">
   <path d="M 0 180.72 
L 246.734525 180.72 
L 246.734525 0 
L 0 0 
z
" style="fill: #ffffff"/>
  </g>
  <g id="axes_1">
   <g id="patch_2">
    <path d="M 16.334525 173.52 
L 239.534525 173.52 
L 239.534525 7.2 
L 16.334525 7.2 
z
" style="fill: #ffffff"/>
   </g>
   <g id="PathCollection_1">
    <defs>
     <path id="mb61d515c18" d="M -3.535534 3.535534 
L 3.535534 -3.535534 
M -3.535534 -3.535534 
L 3.535534 3.535534 
" style="stroke: #6495ed; stroke-width: 1.5"/>
    </defs>
    <g clip-path="url(#pe065efe64f)">
     <use xlink:href="#mb61d515c18" x="53.534525" y="34.92" style="fill: #6495ed; stroke: #6495ed; stroke-width: 1.5"/>
     <use xlink:href="#mb61d515c18" x="72.134525" y="21.06" style="fill: #6495ed; stroke: #6495ed; stroke-width: 1.5"/>
     <use xlink:href="#mb61d515c18" x="90.734525" y="43.236" style="fill: #6495ed; stroke: #6495ed; stroke-width: 1.5"/>
     <use xlink:href="#mb61d515c18" x="64.694525" y="54.324" style="fill: #6495ed; stroke: #6495ed; stroke-width: 1.5"/>
     <use xlink:href="#mb61d515c18" x="79.574525" y="62.64" style="fill: #6495ed; stroke: #6495ed; stroke-width: 1.5"/>
     <use xlink:href="#mb61d515c18" x="46.094525" y="70.956" style="fill: #6495ed; stroke: #6495ed; stroke-width: 1.5"/>
     <use xlink:href="#mb61d515c18" x="101.894525" y="26.604" style="fill: #6495ed; stroke: #6495ed; stroke-width: 1.5"/>
     <use xlink:href="#mb61d515c18" x="60.974525" y="48.78" style="fill: #6495ed; stroke: #6495ed; stroke-width: 1.5"/>
     <use xlink:href="#mb61d515c18" x="83.294525" y="76.5" style="fill: #6495ed; stroke: #6495ed; stroke-width: 1.5"/>
     <use xlink:href="#mb61d515c18" x="109.334525" y="57.096" style="fill: #6495ed; stroke: #6495ed; stroke-width: 1.5"/>
     <use xlink:href="#mb61d515c18" x="127.934525" y="90.36" style="fill: #6495ed; stroke: #6495ed; stroke-width: 1.5"/>
     <use xlink:href="#mb61d515c18" x="146.534525" y="104.22" style="fill: #6495ed; stroke: #6495ed; stroke-width: 1.5"/>
     <use xlink:href="#mb61d515c18" x="90.734525" y="82.044" style="fill: #6495ed; stroke: #6495ed; stroke-width: 1.5"/>
    </g>
   </g>
   <g id="PathCollection_2">
    <defs>
     <path id="m7fae469186" d="M 0 3.535534 
C 0.937635 3.535534 1.836992 3.163008 2.5 2.5 
C 3.163008 1.836992 3.535534 0.937635 3.535534 0 
C 3.535534 -0.937635 3.163008 -1.836992 2.5 -2.5 
C 1.836992 -3.163008 0.937635 -3.535534 0 -3.535534 
C -0.937635 -3.535534 -1.836992 -3.163008 -2.5 -2.5 
C -3.163008 -1.836992 -3.535534 -0.937635 -3.535534 0 
C -3.535534 0.937635 -3.163008 1.836992 -2.5 2.5 
C -1.836992 3.163008 -0.937635 3.535534 0 3.535534 
z
" style="stroke: #6495ed"/>
    </defs>
    <g clip-path="url(#pe065efe64f)">
     <use xlink:href="#m7fae469186" x="146.534525" y="131.94" style="fill: #6495ed; stroke: #6495ed"/>
     <use xlink:href="#m7fae469186" x="165.134525" y="118.08" style="fill: #6495ed; stroke: #6495ed"/>
     <use xlink:href="#m7fae469186" x="183.734525" y="137.484" style="fill: #6495ed; stroke: #6495ed"/>
     <use xlink:href="#m7fae469186" x="139.094525" y="126.396" style="fill: #6495ed; stroke: #6495ed"/>
     <use xlink:href="#m7fae469186" x="153.974525" y="145.8" style="fill: #6495ed; stroke: #6495ed"/>
     <use xlink:href="#m7fae469186" x="191.174525" y="123.624" style="fill: #6495ed; stroke: #6495ed"/>
     <use xlink:href="#m7fae469186" x="176.294525" y="151.344" style="fill: #6495ed; stroke: #6495ed"/>
     <use xlink:href="#m7fae469186" x="127.934525" y="137.484" style="fill: #6495ed; stroke: #6495ed"/>
     <use xlink:href="#m7fae469186" x="202.334525" y="131.94" style="fill: #6495ed; stroke: #6495ed"/>
     <use xlink:href="#m7fae469186" x="157.694525" y="109.764" style="fill: #6495ed; stroke: #6495ed"/>
     <use xlink:href="#m7fae469186" x="109.334525" y="98.676" style="fill: #6495ed; stroke: #6495ed"/>
     <use xlink:href="#m7fae469186" x="101.894525" y="109.764" style="fill: #6495ed; stroke: #6495ed"/>
     <use xlink:href="#m7fae469186" x="139.094525" y="76.5" style="fill: #6495ed; stroke: #6495ed"/>
     <use xlink:href="#m7fae469186" x="116.774525" y="62.64" style="fill: #6495ed; stroke: #6495ed"/>
    </g>
   </g>
   <g id="matplotlib.axis_1"/>
   <g id="matplotlib.axis_2"/>
   <g id="patch_3">
    <path d="M 34.934525 173.52 
L 34.934525 7.2 
" style="fill: none; stroke: #000000; stroke-width: 1.5; stroke-linejoin: miter; stroke-linecap: square"/>
   </g>
   <g id="patch_4">
    <path d="M 16.334525 159.66 
L 239.534525 159.66 
" style="fill: none; stroke: #000000; stroke-width: 1.5; stroke-linejoin: miter; stroke-linecap: square"/>
   </g>
   <g id="patch_5">
    <path d="M 40.283444 159.66 
Q 124.215805 159.66 206.471115 159.66 
" style="fill: none; stroke: #000000; stroke-width: 1.5; stroke-linecap: round"/>
    <path d="M 202.471115 157.66 
L 206.471115 159.66 
L 202.471115 161.66 
" style="fill: none; stroke: #000000; stroke-width: 1.5; stroke-linecap: round"/>
   </g>
   <g id="patch_6">
    <path d="M 34.934525 155.859489 
Q 34.934525 86.201 34.934525 18.219562 
" style="fill: none; stroke: #000000; stroke-width: 1.5; stroke-linecap: round"/>
    <path d="M 32.934525 22.219562 
L 34.934525 18.219562 
L 36.934525 22.219562 
" style="fill: none; stroke: #000000; stroke-width: 1.5; stroke-linecap: round"/>
   </g>
   <g id="text_1">
    <!-- (c) -->
    <g transform="translate(7.2 34.541965) scale(0.14 -0.14)">
     <defs>
      <path id="DejaVuSans-Bold-28" d="M 2413 -844 
L 1484 -844 
Q 1006 -72 778 623 
Q 550 1319 550 2003 
Q 550 2688 779 3389 
Q 1009 4091 1484 4856 
L 2413 4856 
Q 2013 4116 1813 3408 
Q 1613 2700 1613 2009 
Q 1613 1319 1811 609 
Q 2009 -100 2413 -844 
z
" transform="scale(0.015625)"/>
      <path id="DejaVuSans-Bold-63" d="M 3366 3391 
L 3366 2478 
Q 3138 2634 2908 2709 
Q 2678 2784 2431 2784 
Q 1963 2784 1702 2511 
Q 1441 2238 1441 1747 
Q 1441 1256 1702 982 
Q 1963 709 2431 709 
Q 2694 709 2930 787 
Q 3166 866 3366 1019 
L 3366 103 
Q 3103 6 2833 -42 
Q 2563 -91 2291 -91 
Q 1344 -91 809 395 
Q 275 881 275 1747 
Q 275 2613 809 3098 
Q 1344 3584 2291 3584 
Q 2566 3584 2833 3536 
Q 3100 3488 3366 3391 
z
" transform="scale(0.015625)"/>
      <path id="DejaVuSans-Bold-29" d="M 513 -844 
Q 913 -100 1113 609 
Q 1313 1319 1313 2009 
Q 1313 2700 1113 3408 
Q 913 4116 513 4856 
L 1441 4856 
Q 1916 4091 2145 3389 
Q 2375 2688 2375 2003 
Q 2375 1319 2147 623 
Q 1919 -72 1441 -844 
L 513 -844 
z
" transform="scale(0.015625)"/>
     </defs>
     <use xlink:href="#DejaVuSans-Bold-28"/>
     <use xlink:href="#DejaVuSans-Bold-63" x="45.703125"/>
     <use xlink:href="#DejaVuSans-Bold-29" x="104.980469"/>
    </g>
   </g>
  </g>
 </g>
 <defs>
  <clipPath id="pe065efe64f">
   <rect x="16.334525" y="7.2" width="223.2" height="166.32"/>
  </clipPath>
 </defs>
</svg>
