<?xml version="1.0" encoding="utf-8" standalone="no"?>
<!DOCTYPE svg PUBLIC "-//W3C//DTD SVG 1.1//EN"
  "http://www.w3.org/Graphics/SVG/1.1/DTD/svg11.dtd">
<svg xmlns:xlink="http://www.w3.org/1999/xlink" width="237.6pt" height="180.72pt" viewBox="0 0 237.6 180.72" xmlns="http://www.w3.org/2000/svg" version="1.1">
 <metadata>
  <rdf:RDF xmlns:dc="http://purl.org/dc/elements/1.1/" xmlns:cc="http://creativecommons.org/ns#" xmlns:rdf="http://www.w3.org/1999/02/22-rdf-syntax-ns#">
   <cc:Work>
    <dc:type rdf:resource="http://purl.org/dc/dcmitype/StillImage"/>
    <dc:date>2025-05-09T18:44:02.252248</dc:date>
    <dc:format>image/svg+xml</dc:format>
    <dc:creator>
     <cc:Agent>
      <dc:title>Matplotlib v3.6.2, https://matplotlib.org/</dc:title>
     </cc:Agent>
    </dc:creator>
   </cc:Work>
  </rdf:RDF>
 </metadata>
 <defs>
  <style type="text/css">*{stroke-linejoin: round; stroke-linecap: butt}</style>
 </defs>
 <g id="figure_1">
  <g id="patch_1">
   <path d="M 0 180.72 
L 237.6 180.72 
L 237.6 0 
L 0 0 
z
" style="fill: #ffffff"/>
  </g>
  <g id="axes_1">
   <g id="patch_2">
    <path d="M 7.2 173.52 
L 230.4 173.52 
L 230.4 7.2 
L 7.2 7.2 
z
" style="fill: #ffffff"/>
   </g>
   <g id="PathCollection_1">
    <defs>
     <path id="m8802b85eeb" d="M -3.535534 3.535534 
L 3.535534 -3.535534 
M -3.535534 -3.535534 
L 3.535534 3.535534 
" style="stroke: #6495ed; stroke-width: 1.5"/>
    </defs>
    <g clip-path="url(#pc6e7e1dfb9)">
     <use xlink:href="#m8802b85eeb" x="44.4" y="34.92" style="fill: #6495ed; stroke: #6495ed; stroke-width: 1.5"/>
     <use xlink:href="#m8802b85eeb" x="63" y="21.06" style="fill: #6495ed; stroke: #6495ed; stroke-width: 1.5"/>
     <use xlink:href="#m8802b85eeb" x="81.6" y="43.236" style="fill: #6495ed; stroke: #6495ed; stroke-width: 1.5"/>
     <use xlink:href="#m8802b85eeb" x="55.56" y="54.324" style="fill: #6495ed; stroke: #6495ed; stroke-width: 1.5"/>
     <use xlink:href="#m8802b85eeb" x="70.44" y="62.64" style="fill: #6495ed; stroke: #6495ed; stroke-width: 1.5"/>
     <use xlink:href="#m8802b85eeb" x="36.96" y="70.956" style="fill: #6495ed; stroke: #6495ed; stroke-width: 1.5"/>
     <use xlink:href="#m8802b85eeb" x="92.76" y="26.604" style="fill: #6495ed; stroke: #6495ed; stroke-width: 1.5"/>
     <use xlink:href="#m8802b85eeb" x="51.84" y="48.78" style="fill: #6495ed; stroke: #6495ed; stroke-width: 1.5"/>
     <use xlink:href="#m8802b85eeb" x="74.16" y="76.5" style="fill: #6495ed; stroke: #6495ed; stroke-width: 1.5"/>
     <use xlink:href="#m8802b85eeb" x="100.2" y="57.096" style="fill: #6495ed; stroke: #6495ed; stroke-width: 1.5"/>
     <use xlink:href="#m8802b85eeb" x="118.8" y="90.36" style="fill: #6495ed; stroke: #6495ed; stroke-width: 1.5"/>
     <use xlink:href="#m8802b85eeb" x="137.4" y="104.22" style="fill: #6495ed; stroke: #6495ed; stroke-width: 1.5"/>
     <use xlink:href="#m8802b85eeb" x="81.6" y="82.044" style="fill: #6495ed; stroke: #6495ed; stroke-width: 1.5"/>
    </g>
   </g>
   <g id="PathCollection_2">
    <defs>
     <path id="ma07c25c478" d="M 0 3.535534 
C 0.937635 3.535534 1.836992 3.163008 2.5 2.5 
C 3.163008 1.836992 3.535534 0.937635 3.535534 0 
C 3.535534 -0.937635 3.163008 -1.836992 2.5 -2.5 
C 1.836992 -3.163008 0.937635 -3.535534 0 -3.535534 
C -0.937635 -3.535534 -1.836992 -3.163008 -2.5 -2.5 
C -3.163008 -1.836992 -3.535534 -0.937635 -3.535534 0 
C -3.535534 0.937635 -3.163008 1.836992 -2.5 2.5 
C -1.836992 3.163008 -0.937635 3.535534 0 3.535534 
z
" style="stroke: #6495ed"/>
    </defs>
    <g clip-path="url(#pc6e7e1dfb9)">
     <use xlink:href="#ma07c25c478" x="137.4" y="131.94" style="fill: #6495ed; stroke: #6495ed"/>
     <use xlink:href="#ma07c25c478" x="156" y="118.08" style="fill: #6495ed; stroke: #6495ed"/>
     <use xlink:href="#ma07c25c478" x="174.6" y="137.484" style="fill: #6495ed; stroke: #6495ed"/>
     <use xlink:href="#ma07c25c478" x="129.96" y="126.396" style="fill: #6495ed; stroke: #6495ed"/>
     <use xlink:href="#ma07c25c478" x="144.84" y="145.8" style="fill: #6495ed; stroke: #6495ed"/>
     <use xlink:href="#ma07c25c478" x="182.04" y="123.624" style="fill: #6495ed; stroke: #6495ed"/>
     <use xlink:href="#ma07c25c478" x="167.16" y="151.344" style="fill: #6495ed; stroke: #6495ed"/>
     <use xlink:href="#ma07c25c478" x="118.8" y="137.484" style="fill: #6495ed; stroke: #6495ed"/>
     <use xlink:href="#ma07c25c478" x="193.2" y="131.94" style="fill: #6495ed; stroke: #6495ed"/>
     <use xlink:href="#ma07c25c478" x="148.56" y="109.764" style="fill: #6495ed; stroke: #6495ed"/>
     <use xlink:href="#ma07c25c478" x="100.2" y="98.676" style="fill: #6495ed; stroke: #6495ed"/>
     <use xlink:href="#ma07c25c478" x="92.76" y="109.764" style="fill: #6495ed; stroke: #6495ed"/>
     <use xlink:href="#ma07c25c478" x="129.96" y="76.5" style="fill: #6495ed; stroke: #6495ed"/>
     <use xlink:href="#ma07c25c478" x="107.64" y="62.64" style="fill: #6495ed; stroke: #6495ed"/>
    </g>
   </g>
   <g id="matplotlib.axis_1"/>
   <g id="matplotlib.axis_2"/>
   <g id="patch_3">
    <path d="M 25.8 173.52 
L 25.8 7.2 
" style="fill: none; stroke: #000000; stroke-width: 1.5; stroke-linejoin: miter; stroke-linecap: square"/>
   </g>
   <g id="patch_4">
    <path d="M 7.2 159.66 
L 230.4 159.66 
" style="fill: none; stroke: #000000; stroke-width: 1.5; stroke-linejoin: miter; stroke-linecap: square"/>
   </g>
   <g id="patch_5">
    <path d="M 31.148919 159.66 
Q 115.08128 159.66 197.33659 159.66 
" style="fill: none; stroke: #000000; stroke-width: 1.5; stroke-linecap: round"/>
    <path d="M 193.33659 157.66 
L 197.33659 159.66 
L 193.33659 161.66 
" style="fill: none; stroke: #000000; stroke-width: 1.5; stroke-linecap: round"/>
   </g>
   <g id="patch_6">
    <path d="M 25.8 155.859489 
Q 25.8 86.201 25.8 18.219562 
" style="fill: none; stroke: #000000; stroke-width: 1.5; stroke-linecap: round"/>
    <path d="M 23.8 22.219562 
L 25.8 18.219562 
L 27.8 22.219562 
" style="fill: none; stroke: #000000; stroke-width: 1.5; stroke-linecap: round"/>
   </g>
  </g>
 </g>
 <defs>
  <clipPath id="pc6e7e1dfb9">
   <rect x="7.2" y="7.2" width="223.2" height="166.32"/>
  </clipPath>
 </defs>
</svg>
