<?xml version="1.0" encoding="utf-8" standalone="no"?>
<!DOCTYPE svg PUBLIC "-//W3C//DTD SVG 1.1//EN"
  "http://www.w3.org/Graphics/SVG/1.1/DTD/svg11.dtd">
<svg xmlns:xlink="http://www.w3.org/1999/xlink" width="418.501875pt" height="428.242802pt" viewBox="0 0 418.501875 428.242802" xmlns="http://www.w3.org/2000/svg" version="1.1">
 <metadata>
  <rdf:RDF xmlns:dc="http://purl.org/dc/elements/1.1/" xmlns:cc="http://creativecommons.org/ns#" xmlns:rdf="http://www.w3.org/1999/02/22-rdf-syntax-ns#">
   <cc:Work>
    <dc:type rdf:resource="http://purl.org/dc/dcmitype/StillImage"/>
    <dc:date>2023-07-02T10:34:09.617569</dc:date>
    <dc:format>image/svg+xml</dc:format>
    <dc:creator>
     <cc:Agent>
      <dc:title>Matplotlib v3.7.1, https://matplotlib.org/</dc:title>
     </cc:Agent>
    </dc:creator>
   </cc:Work>
  </rdf:RDF>
 </metadata>
 <defs>
  <style type="text/css">*{stroke-linejoin: round; stroke-linecap: butt}</style>
 </defs>
 <g id="figure_1">
  <g id="patch_1">
   <path d="M 0 428.242802 
L 418.501875 428.242802 
L 418.501875 0 
L 0 0 
z
" style="fill: #ffffff"/>
  </g>
  <g id="axes_1">
   <g id="patch_2">
    <path d="M 78.661875 356.477812 
L 411.301875 356.477812 
L 411.301875 23.837812 
L 78.661875 23.837812 
z
" style="fill: #ffffff"/>
   </g>
   <g id="QuadMesh_1">
    <path d="M 78.661875 23.837812 
L 145.189875 23.837812 
L 145.189875 90.365812 
L 78.661875 90.365812 
L 78.661875 23.837812 
" clip-path="url(#p1d975e11fe)" style="fill: #7cc87c; stroke: #ffffff; stroke-width: 0.5"/>
    <path d="M 145.189875 23.837812 
L 211.717875 23.837812 
L 211.717875 90.365812 
L 145.189875 90.365812 
L 145.189875 23.837812 
" clip-path="url(#p1d975e11fe)" style="fill: #f5fbf2; stroke: #ffffff; stroke-width: 0.5"/>
    <path d="M 211.717875 23.837812 
L 278.245875 23.837812 
L 278.245875 90.365812 
L 211.717875 90.365812 
L 211.717875 23.837812 
" clip-path="url(#p1d975e11fe)" style="fill: #f7fcf5; stroke: #ffffff; stroke-width: 0.5"/>
    <path d="M 278.245875 23.837812 
L 344.773875 23.837812 
L 344.773875 90.365812 
L 278.245875 90.365812 
L 278.245875 23.837812 
" clip-path="url(#p1d975e11fe)" style="fill: #f5fbf3; stroke: #ffffff; stroke-width: 0.5"/>
    <path d="M 344.773875 23.837812 
L 411.301875 23.837812 
L 411.301875 90.365812 
L 344.773875 90.365812 
L 344.773875 23.837812 
" clip-path="url(#p1d975e11fe)" style="fill: #f6fcf4; stroke: #ffffff; stroke-width: 0.5"/>
    <path d="M 78.661875 90.365812 
L 145.189875 90.365812 
L 145.189875 156.893812 
L 78.661875 156.893812 
L 78.661875 90.365812 
" clip-path="url(#p1d975e11fe)" style="fill: #f7fcf5; stroke: #ffffff; stroke-width: 0.5"/>
    <path d="M 145.189875 90.365812 
L 211.717875 90.365812 
L 211.717875 156.893812 
L 145.189875 156.893812 
L 145.189875 90.365812 
" clip-path="url(#p1d975e11fe)" style="fill: #6dc072; stroke: #ffffff; stroke-width: 0.5"/>
    <path d="M 211.717875 90.365812 
L 278.245875 90.365812 
L 278.245875 156.893812 
L 211.717875 156.893812 
L 211.717875 90.365812 
" clip-path="url(#p1d975e11fe)" style="fill: #f7fcf5; stroke: #ffffff; stroke-width: 0.5"/>
    <path d="M 278.245875 90.365812 
L 344.773875 90.365812 
L 344.773875 156.893812 
L 278.245875 156.893812 
L 278.245875 90.365812 
" clip-path="url(#p1d975e11fe)" style="fill: #f5fbf2; stroke: #ffffff; stroke-width: 0.5"/>
    <path d="M 344.773875 90.365812 
L 411.301875 90.365812 
L 411.301875 156.893812 
L 344.773875 156.893812 
L 344.773875 90.365812 
" clip-path="url(#p1d975e11fe)" style="fill: #f4fbf1; stroke: #ffffff; stroke-width: 0.5"/>
    <path d="M 78.661875 156.893812 
L 145.189875 156.893812 
L 145.189875 223.421812 
L 78.661875 223.421812 
L 78.661875 156.893812 
" clip-path="url(#p1d975e11fe)" style="fill: #f6fcf4; stroke: #ffffff; stroke-width: 0.5"/>
    <path d="M 145.189875 156.893812 
L 211.717875 156.893812 
L 211.717875 223.421812 
L 145.189875 223.421812 
L 145.189875 156.893812 
" clip-path="url(#p1d975e11fe)" style="fill: #f7fcf5; stroke: #ffffff; stroke-width: 0.5"/>
    <path d="M 211.717875 156.893812 
L 278.245875 156.893812 
L 278.245875 223.421812 
L 211.717875 223.421812 
L 211.717875 156.893812 
" clip-path="url(#p1d975e11fe)" style="fill: #00441b; stroke: #ffffff; stroke-width: 0.5"/>
    <path d="M 278.245875 156.893812 
L 344.773875 156.893812 
L 344.773875 223.421812 
L 278.245875 223.421812 
L 278.245875 156.893812 
" clip-path="url(#p1d975e11fe)" style="fill: #f2faf0; stroke: #ffffff; stroke-width: 0.5"/>
    <path d="M 344.773875 156.893812 
L 411.301875 156.893812 
L 411.301875 223.421812 
L 344.773875 223.421812 
L 344.773875 156.893812 
" clip-path="url(#p1d975e11fe)" style="fill: #f2faef; stroke: #ffffff; stroke-width: 0.5"/>
    <path d="M 78.661875 223.421812 
L 145.189875 223.421812 
L 145.189875 289.949812 
L 78.661875 289.949812 
L 78.661875 223.421812 
" clip-path="url(#p1d975e11fe)" style="fill: #f1faee; stroke: #ffffff; stroke-width: 0.5"/>
    <path d="M 145.189875 223.421812 
L 211.717875 223.421812 
L 211.717875 289.949812 
L 145.189875 289.949812 
L 145.189875 223.421812 
" clip-path="url(#p1d975e11fe)" style="fill: #f2faf0; stroke: #ffffff; stroke-width: 0.5"/>
    <path d="M 211.717875 223.421812 
L 278.245875 223.421812 
L 278.245875 289.949812 
L 211.717875 289.949812 
L 211.717875 223.421812 
" clip-path="url(#p1d975e11fe)" style="fill: #f6fcf4; stroke: #ffffff; stroke-width: 0.5"/>
    <path d="M 278.245875 223.421812 
L 344.773875 223.421812 
L 344.773875 289.949812 
L 278.245875 289.949812 
L 278.245875 223.421812 
" clip-path="url(#p1d975e11fe)" style="fill: #56b567; stroke: #ffffff; stroke-width: 0.5"/>
    <path d="M 344.773875 223.421812 
L 411.301875 223.421812 
L 411.301875 289.949812 
L 344.773875 289.949812 
L 344.773875 223.421812 
" clip-path="url(#p1d975e11fe)" style="fill: #f0f9ed; stroke: #ffffff; stroke-width: 0.5"/>
    <path d="M 78.661875 289.949812 
L 145.189875 289.949812 
L 145.189875 356.477812 
L 78.661875 356.477812 
L 78.661875 289.949812 
" clip-path="url(#p1d975e11fe)" style="fill: #f2faf0; stroke: #ffffff; stroke-width: 0.5"/>
    <path d="M 145.189875 289.949812 
L 211.717875 289.949812 
L 211.717875 356.477812 
L 145.189875 356.477812 
L 145.189875 289.949812 
" clip-path="url(#p1d975e11fe)" style="fill: #f5fbf3; stroke: #ffffff; stroke-width: 0.5"/>
    <path d="M 211.717875 289.949812 
L 278.245875 289.949812 
L 278.245875 356.477812 
L 211.717875 356.477812 
L 211.717875 289.949812 
" clip-path="url(#p1d975e11fe)" style="fill: #f6fcf4; stroke: #ffffff; stroke-width: 0.5"/>
    <path d="M 278.245875 289.949812 
L 344.773875 289.949812 
L 344.773875 356.477812 
L 278.245875 356.477812 
L 278.245875 289.949812 
" clip-path="url(#p1d975e11fe)" style="fill: #f0f9ec; stroke: #ffffff; stroke-width: 0.5"/>
    <path d="M 344.773875 289.949812 
L 411.301875 289.949812 
L 411.301875 356.477812 
L 344.773875 356.477812 
L 344.773875 289.949812 
" clip-path="url(#p1d975e11fe)" style="fill: #45ad5f; stroke: #ffffff; stroke-width: 0.5"/>
   </g>
   <g id="matplotlib.axis_1">
    <g id="xtick_1">
     <g id="line2d_1">
      <defs>
       <path id="m74da0276b2" d="M 0 0 
L 0 3.5 
" style="stroke: #000000; stroke-width: 0.8"/>
      </defs>
      <g>
       <use xlink:href="#m74da0276b2" x="111.925875" y="356.477812" style="stroke: #000000; stroke-width: 0.8"/>
      </g>
     </g>
     <g id="text_1">
      <!-- Anger -->
      <g transform="translate(101.89656 392.645967) rotate(-45) scale(0.1 -0.1)">
       <defs>
        <path id="DejaVuSans-Bold-41" d="M 3419 850 
L 1538 850 
L 1241 0 
L 31 0 
L 1759 4666 
L 3194 4666 
L 4922 0 
L 3713 0 
L 3419 850 
z
M 1838 1716 
L 3116 1716 
L 2478 3572 
L 1838 1716 
z
" transform="scale(0.015625)"/>
        <path id="DejaVuSans-Bold-6e" d="M 4056 2131 
L 4056 0 
L 2931 0 
L 2931 347 
L 2931 1631 
Q 2931 2084 2911 2256 
Q 2891 2428 2841 2509 
Q 2775 2619 2662 2680 
Q 2550 2741 2406 2741 
Q 2056 2741 1856 2470 
Q 1656 2200 1656 1722 
L 1656 0 
L 538 0 
L 538 3500 
L 1656 3500 
L 1656 2988 
Q 1909 3294 2193 3439 
Q 2478 3584 2822 3584 
Q 3428 3584 3742 3212 
Q 4056 2841 4056 2131 
z
" transform="scale(0.015625)"/>
        <path id="DejaVuSans-Bold-67" d="M 2919 594 
Q 2688 288 2409 144 
Q 2131 0 1766 0 
Q 1125 0 706 504 
Q 288 1009 288 1791 
Q 288 2575 706 3076 
Q 1125 3578 1766 3578 
Q 2131 3578 2409 3434 
Q 2688 3291 2919 2981 
L 2919 3500 
L 4044 3500 
L 4044 353 
Q 4044 -491 3511 -936 
Q 2978 -1381 1966 -1381 
Q 1638 -1381 1331 -1331 
Q 1025 -1281 716 -1178 
L 716 -306 
Q 1009 -475 1290 -558 
Q 1572 -641 1856 -641 
Q 2406 -641 2662 -400 
Q 2919 -159 2919 353 
L 2919 594 
z
M 2181 2772 
Q 1834 2772 1640 2515 
Q 1447 2259 1447 1791 
Q 1447 1309 1634 1061 
Q 1822 813 2181 813 
Q 2531 813 2725 1069 
Q 2919 1325 2919 1791 
Q 2919 2259 2725 2515 
Q 2531 2772 2181 2772 
z
" transform="scale(0.015625)"/>
        <path id="DejaVuSans-Bold-65" d="M 4031 1759 
L 4031 1441 
L 1416 1441 
Q 1456 1047 1700 850 
Q 1944 653 2381 653 
Q 2734 653 3104 758 
Q 3475 863 3866 1075 
L 3866 213 
Q 3469 63 3072 -14 
Q 2675 -91 2278 -91 
Q 1328 -91 801 392 
Q 275 875 275 1747 
Q 275 2603 792 3093 
Q 1309 3584 2216 3584 
Q 3041 3584 3536 3087 
Q 4031 2591 4031 1759 
z
M 2881 2131 
Q 2881 2450 2695 2645 
Q 2509 2841 2209 2841 
Q 1884 2841 1681 2658 
Q 1478 2475 1428 2131 
L 2881 2131 
z
" transform="scale(0.015625)"/>
        <path id="DejaVuSans-Bold-72" d="M 3138 2547 
Q 2991 2616 2845 2648 
Q 2700 2681 2553 2681 
Q 2122 2681 1889 2404 
Q 1656 2128 1656 1613 
L 1656 0 
L 538 0 
L 538 3500 
L 1656 3500 
L 1656 2925 
Q 1872 3269 2151 3426 
Q 2431 3584 2822 3584 
Q 2878 3584 2943 3579 
Q 3009 3575 3134 3559 
L 3138 2547 
z
" transform="scale(0.015625)"/>
       </defs>
       <use xlink:href="#DejaVuSans-Bold-41"/>
       <use xlink:href="#DejaVuSans-Bold-6e" x="77.392578"/>
       <use xlink:href="#DejaVuSans-Bold-67" x="148.583984"/>
       <use xlink:href="#DejaVuSans-Bold-65" x="220.166016"/>
       <use xlink:href="#DejaVuSans-Bold-72" x="287.988281"/>
      </g>
     </g>
    </g>
    <g id="xtick_2">
     <g id="line2d_2">
      <g>
       <use xlink:href="#m74da0276b2" x="178.453875" y="356.477812" style="stroke: #000000; stroke-width: 0.8"/>
      </g>
     </g>
     <g id="text_2">
      <!-- Fear -->
      <g transform="translate(171.603778 386.453259) rotate(-45) scale(0.1 -0.1)">
       <defs>
        <path id="DejaVuSans-Bold-46" d="M 588 4666 
L 3834 4666 
L 3834 3756 
L 1791 3756 
L 1791 2888 
L 3713 2888 
L 3713 1978 
L 1791 1978 
L 1791 0 
L 588 0 
L 588 4666 
z
" transform="scale(0.015625)"/>
        <path id="DejaVuSans-Bold-61" d="M 2106 1575 
Q 1756 1575 1579 1456 
Q 1403 1338 1403 1106 
Q 1403 894 1545 773 
Q 1688 653 1941 653 
Q 2256 653 2472 879 
Q 2688 1106 2688 1447 
L 2688 1575 
L 2106 1575 
z
M 3816 1997 
L 3816 0 
L 2688 0 
L 2688 519 
Q 2463 200 2181 54 
Q 1900 -91 1497 -91 
Q 953 -91 614 226 
Q 275 544 275 1050 
Q 275 1666 698 1953 
Q 1122 2241 2028 2241 
L 2688 2241 
L 2688 2328 
Q 2688 2594 2478 2717 
Q 2269 2841 1825 2841 
Q 1466 2841 1156 2769 
Q 847 2697 581 2553 
L 581 3406 
Q 941 3494 1303 3539 
Q 1666 3584 2028 3584 
Q 2975 3584 3395 3211 
Q 3816 2838 3816 1997 
z
" transform="scale(0.015625)"/>
       </defs>
       <use xlink:href="#DejaVuSans-Bold-46"/>
       <use xlink:href="#DejaVuSans-Bold-65" x="64.310547"/>
       <use xlink:href="#DejaVuSans-Bold-61" x="132.132812"/>
       <use xlink:href="#DejaVuSans-Bold-72" x="199.613281"/>
      </g>
     </g>
    </g>
    <g id="xtick_3">
     <g id="line2d_3">
      <g>
       <use xlink:href="#m74da0276b2" x="244.981875" y="356.477812" style="stroke: #000000; stroke-width: 0.8"/>
      </g>
     </g>
     <g id="text_3">
      <!-- Joy -->
      <g transform="translate(240.828728 380.893632) rotate(-45) scale(0.1 -0.1)">
       <defs>
        <path id="DejaVuSans-Bold-4a" d="M 588 4666 
L 1791 4666 
L 1791 453 
Q 1791 -419 1317 -850 
Q 844 -1281 -116 -1281 
L -359 -1281 
L -359 -372 
L -172 -372 
Q 203 -372 395 -162 
Q 588 47 588 453 
L 588 4666 
z
" transform="scale(0.015625)"/>
        <path id="DejaVuSans-Bold-6f" d="M 2203 2784 
Q 1831 2784 1636 2517 
Q 1441 2250 1441 1747 
Q 1441 1244 1636 976 
Q 1831 709 2203 709 
Q 2569 709 2762 976 
Q 2956 1244 2956 1747 
Q 2956 2250 2762 2517 
Q 2569 2784 2203 2784 
z
M 2203 3584 
Q 3106 3584 3614 3096 
Q 4122 2609 4122 1747 
Q 4122 884 3614 396 
Q 3106 -91 2203 -91 
Q 1297 -91 786 396 
Q 275 884 275 1747 
Q 275 2609 786 3096 
Q 1297 3584 2203 3584 
z
" transform="scale(0.015625)"/>
        <path id="DejaVuSans-Bold-79" d="M 78 3500 
L 1197 3500 
L 2138 1125 
L 2938 3500 
L 4056 3500 
L 2584 -331 
Q 2363 -916 2067 -1148 
Q 1772 -1381 1288 -1381 
L 641 -1381 
L 641 -647 
L 991 -647 
Q 1275 -647 1404 -556 
Q 1534 -466 1606 -231 
L 1638 -134 
L 78 3500 
z
" transform="scale(0.015625)"/>
       </defs>
       <use xlink:href="#DejaVuSans-Bold-4a"/>
       <use xlink:href="#DejaVuSans-Bold-6f" x="37.207031"/>
       <use xlink:href="#DejaVuSans-Bold-79" x="105.908203"/>
      </g>
     </g>
    </g>
    <g id="xtick_4">
     <g id="line2d_4">
      <g>
       <use xlink:href="#m74da0276b2" x="311.509875" y="356.477812" style="stroke: #000000; stroke-width: 0.8"/>
      </g>
     </g>
     <g id="text_4">
      <!-- Neutral -->
      <g transform="translate(298.55601 398.660794) rotate(-45) scale(0.1 -0.1)">
       <defs>
        <path id="DejaVuSans-Bold-4e" d="M 588 4666 
L 1931 4666 
L 3628 1466 
L 3628 4666 
L 4769 4666 
L 4769 0 
L 3425 0 
L 1728 3200 
L 1728 0 
L 588 0 
L 588 4666 
z
" transform="scale(0.015625)"/>
        <path id="DejaVuSans-Bold-75" d="M 500 1363 
L 500 3500 
L 1625 3500 
L 1625 3150 
Q 1625 2866 1622 2436 
Q 1619 2006 1619 1863 
Q 1619 1441 1641 1255 
Q 1663 1069 1716 984 
Q 1784 875 1895 815 
Q 2006 756 2150 756 
Q 2500 756 2700 1025 
Q 2900 1294 2900 1772 
L 2900 3500 
L 4019 3500 
L 4019 0 
L 2900 0 
L 2900 506 
Q 2647 200 2364 54 
Q 2081 -91 1741 -91 
Q 1134 -91 817 281 
Q 500 653 500 1363 
z
" transform="scale(0.015625)"/>
        <path id="DejaVuSans-Bold-74" d="M 1759 4494 
L 1759 3500 
L 2913 3500 
L 2913 2700 
L 1759 2700 
L 1759 1216 
Q 1759 972 1856 886 
Q 1953 800 2241 800 
L 2816 800 
L 2816 0 
L 1856 0 
Q 1194 0 917 276 
Q 641 553 641 1216 
L 641 2700 
L 84 2700 
L 84 3500 
L 641 3500 
L 641 4494 
L 1759 4494 
z
" transform="scale(0.015625)"/>
        <path id="DejaVuSans-Bold-6c" d="M 538 4863 
L 1656 4863 
L 1656 0 
L 538 0 
L 538 4863 
z
" transform="scale(0.015625)"/>
       </defs>
       <use xlink:href="#DejaVuSans-Bold-4e"/>
       <use xlink:href="#DejaVuSans-Bold-65" x="83.691406"/>
       <use xlink:href="#DejaVuSans-Bold-75" x="151.513672"/>
       <use xlink:href="#DejaVuSans-Bold-74" x="222.705078"/>
       <use xlink:href="#DejaVuSans-Bold-72" x="270.507812"/>
       <use xlink:href="#DejaVuSans-Bold-61" x="319.824219"/>
       <use xlink:href="#DejaVuSans-Bold-6c" x="387.304688"/>
      </g>
     </g>
    </g>
    <g id="xtick_5">
     <g id="line2d_5">
      <g>
       <use xlink:href="#m74da0276b2" x="378.037875" y="356.477812" style="stroke: #000000; stroke-width: 0.8"/>
      </g>
     </g>
     <g id="text_5">
      <!-- Sadness -->
      <g transform="translate(363.402974 402.022866) rotate(-45) scale(0.1 -0.1)">
       <defs>
        <path id="DejaVuSans-Bold-53" d="M 3834 4519 
L 3834 3531 
Q 3450 3703 3084 3790 
Q 2719 3878 2394 3878 
Q 1963 3878 1756 3759 
Q 1550 3641 1550 3391 
Q 1550 3203 1689 3098 
Q 1828 2994 2194 2919 
L 2706 2816 
Q 3484 2659 3812 2340 
Q 4141 2022 4141 1434 
Q 4141 663 3683 286 
Q 3225 -91 2284 -91 
Q 1841 -91 1394 -6 
Q 947 78 500 244 
L 500 1259 
Q 947 1022 1364 901 
Q 1781 781 2169 781 
Q 2563 781 2772 912 
Q 2981 1044 2981 1288 
Q 2981 1506 2839 1625 
Q 2697 1744 2272 1838 
L 1806 1941 
Q 1106 2091 782 2419 
Q 459 2747 459 3303 
Q 459 4000 909 4375 
Q 1359 4750 2203 4750 
Q 2588 4750 2994 4692 
Q 3400 4634 3834 4519 
z
" transform="scale(0.015625)"/>
        <path id="DejaVuSans-Bold-64" d="M 2919 2988 
L 2919 4863 
L 4044 4863 
L 4044 0 
L 2919 0 
L 2919 506 
Q 2688 197 2409 53 
Q 2131 -91 1766 -91 
Q 1119 -91 703 423 
Q 288 938 288 1747 
Q 288 2556 703 3070 
Q 1119 3584 1766 3584 
Q 2128 3584 2408 3439 
Q 2688 3294 2919 2988 
z
M 2181 722 
Q 2541 722 2730 984 
Q 2919 1247 2919 1747 
Q 2919 2247 2730 2509 
Q 2541 2772 2181 2772 
Q 1825 2772 1636 2509 
Q 1447 2247 1447 1747 
Q 1447 1247 1636 984 
Q 1825 722 2181 722 
z
" transform="scale(0.015625)"/>
        <path id="DejaVuSans-Bold-73" d="M 3272 3391 
L 3272 2541 
Q 2913 2691 2578 2766 
Q 2244 2841 1947 2841 
Q 1628 2841 1473 2761 
Q 1319 2681 1319 2516 
Q 1319 2381 1436 2309 
Q 1553 2238 1856 2203 
L 2053 2175 
Q 2913 2066 3209 1816 
Q 3506 1566 3506 1031 
Q 3506 472 3093 190 
Q 2681 -91 1863 -91 
Q 1516 -91 1145 -36 
Q 775 19 384 128 
L 384 978 
Q 719 816 1070 734 
Q 1422 653 1784 653 
Q 2113 653 2278 743 
Q 2444 834 2444 1013 
Q 2444 1163 2330 1236 
Q 2216 1309 1875 1350 
L 1678 1375 
Q 931 1469 631 1722 
Q 331 1975 331 2491 
Q 331 3047 712 3315 
Q 1094 3584 1881 3584 
Q 2191 3584 2531 3537 
Q 2872 3491 3272 3391 
z
" transform="scale(0.015625)"/>
       </defs>
       <use xlink:href="#DejaVuSans-Bold-53"/>
       <use xlink:href="#DejaVuSans-Bold-61" x="72.021484"/>
       <use xlink:href="#DejaVuSans-Bold-64" x="139.501953"/>
       <use xlink:href="#DejaVuSans-Bold-6e" x="211.083984"/>
       <use xlink:href="#DejaVuSans-Bold-65" x="282.275391"/>
       <use xlink:href="#DejaVuSans-Bold-73" x="350.097656"/>
       <use xlink:href="#DejaVuSans-Bold-73" x="409.619141"/>
      </g>
     </g>
    </g>
    <g id="text_6">
     <!-- Predicted label -->
     <g transform="translate(185.268594 418.13124) scale(0.14 -0.14)">
      <defs>
       <path id="DejaVuSans-Bold-50" d="M 588 4666 
L 2584 4666 
Q 3475 4666 3951 4270 
Q 4428 3875 4428 3144 
Q 4428 2409 3951 2014 
Q 3475 1619 2584 1619 
L 1791 1619 
L 1791 0 
L 588 0 
L 588 4666 
z
M 1791 3794 
L 1791 2491 
L 2456 2491 
Q 2806 2491 2997 2661 
Q 3188 2831 3188 3144 
Q 3188 3456 2997 3625 
Q 2806 3794 2456 3794 
L 1791 3794 
z
" transform="scale(0.015625)"/>
       <path id="DejaVuSans-Bold-69" d="M 538 3500 
L 1656 3500 
L 1656 0 
L 538 0 
L 538 3500 
z
M 538 4863 
L 1656 4863 
L 1656 3950 
L 538 3950 
L 538 4863 
z
" transform="scale(0.015625)"/>
       <path id="DejaVuSans-Bold-63" d="M 3366 3391 
L 3366 2478 
Q 3138 2634 2908 2709 
Q 2678 2784 2431 2784 
Q 1963 2784 1702 2511 
Q 1441 2238 1441 1747 
Q 1441 1256 1702 982 
Q 1963 709 2431 709 
Q 2694 709 2930 787 
Q 3166 866 3366 1019 
L 3366 103 
Q 3103 6 2833 -42 
Q 2563 -91 2291 -91 
Q 1344 -91 809 395 
Q 275 881 275 1747 
Q 275 2613 809 3098 
Q 1344 3584 2291 3584 
Q 2566 3584 2833 3536 
Q 3100 3488 3366 3391 
z
" transform="scale(0.015625)"/>
       <path id="DejaVuSans-Bold-20" transform="scale(0.015625)"/>
       <path id="DejaVuSans-Bold-62" d="M 2400 722 
Q 2759 722 2948 984 
Q 3138 1247 3138 1747 
Q 3138 2247 2948 2509 
Q 2759 2772 2400 2772 
Q 2041 2772 1848 2508 
Q 1656 2244 1656 1747 
Q 1656 1250 1848 986 
Q 2041 722 2400 722 
z
M 1656 2988 
Q 1888 3294 2169 3439 
Q 2450 3584 2816 3584 
Q 3463 3584 3878 3070 
Q 4294 2556 4294 1747 
Q 4294 938 3878 423 
Q 3463 -91 2816 -91 
Q 2450 -91 2169 54 
Q 1888 200 1656 506 
L 1656 0 
L 538 0 
L 538 4863 
L 1656 4863 
L 1656 2988 
z
" transform="scale(0.015625)"/>
      </defs>
      <use xlink:href="#DejaVuSans-Bold-50"/>
      <use xlink:href="#DejaVuSans-Bold-72" x="73.291016"/>
      <use xlink:href="#DejaVuSans-Bold-65" x="122.607422"/>
      <use xlink:href="#DejaVuSans-Bold-64" x="190.429688"/>
      <use xlink:href="#DejaVuSans-Bold-69" x="262.011719"/>
      <use xlink:href="#DejaVuSans-Bold-63" x="296.289062"/>
      <use xlink:href="#DejaVuSans-Bold-74" x="355.566406"/>
      <use xlink:href="#DejaVuSans-Bold-65" x="403.369141"/>
      <use xlink:href="#DejaVuSans-Bold-64" x="471.191406"/>
      <use xlink:href="#DejaVuSans-Bold-20" x="542.773438"/>
      <use xlink:href="#DejaVuSans-Bold-6c" x="577.587891"/>
      <use xlink:href="#DejaVuSans-Bold-61" x="611.865234"/>
      <use xlink:href="#DejaVuSans-Bold-62" x="679.345703"/>
      <use xlink:href="#DejaVuSans-Bold-65" x="750.927734"/>
      <use xlink:href="#DejaVuSans-Bold-6c" x="818.75"/>
     </g>
    </g>
   </g>
   <g id="matplotlib.axis_2">
    <g id="ytick_1">
     <g id="line2d_6">
      <defs>
       <path id="m266f1b8bb3" d="M 0 0 
L -3.5 0 
" style="stroke: #000000; stroke-width: 0.8"/>
      </defs>
      <g>
       <use xlink:href="#m266f1b8bb3" x="78.661875" y="57.101812" style="stroke: #000000; stroke-width: 0.8"/>
      </g>
     </g>
     <g id="text_7">
      <!-- Anger -->
      <g transform="translate(37.932188 59.783062) scale(0.1 -0.1)">
       <use xlink:href="#DejaVuSans-Bold-41"/>
       <use xlink:href="#DejaVuSans-Bold-6e" x="77.392578"/>
       <use xlink:href="#DejaVuSans-Bold-67" x="148.583984"/>
       <use xlink:href="#DejaVuSans-Bold-65" x="220.166016"/>
       <use xlink:href="#DejaVuSans-Bold-72" x="287.988281"/>
      </g>
     </g>
    </g>
    <g id="ytick_2">
     <g id="line2d_7">
      <g>
       <use xlink:href="#m266f1b8bb3" x="78.661875" y="123.629812" style="stroke: #000000; stroke-width: 0.8"/>
      </g>
     </g>
     <g id="text_8">
      <!-- Fear -->
      <g transform="translate(46.768125 126.389187) scale(0.1 -0.1)">
       <use xlink:href="#DejaVuSans-Bold-46"/>
       <use xlink:href="#DejaVuSans-Bold-65" x="64.310547"/>
       <use xlink:href="#DejaVuSans-Bold-61" x="132.132812"/>
       <use xlink:href="#DejaVuSans-Bold-72" x="199.613281"/>
      </g>
     </g>
    </g>
    <g id="ytick_3">
     <g id="line2d_8">
      <g>
       <use xlink:href="#m266f1b8bb3" x="78.661875" y="190.157812" style="stroke: #000000; stroke-width: 0.8"/>
      </g>
     </g>
     <g id="text_9">
      <!-- Joy -->
      <g transform="translate(54.5525 192.839062) scale(0.1 -0.1)">
       <use xlink:href="#DejaVuSans-Bold-4a"/>
       <use xlink:href="#DejaVuSans-Bold-6f" x="37.207031"/>
       <use xlink:href="#DejaVuSans-Bold-79" x="105.908203"/>
      </g>
     </g>
    </g>
    <g id="ytick_4">
     <g id="line2d_9">
      <g>
       <use xlink:href="#m266f1b8bb3" x="78.661875" y="256.685812" style="stroke: #000000; stroke-width: 0.8"/>
      </g>
     </g>
     <g id="text_10">
      <!-- Neutral -->
      <g transform="translate(29.504063 259.445187) scale(0.1 -0.1)">
       <use xlink:href="#DejaVuSans-Bold-4e"/>
       <use xlink:href="#DejaVuSans-Bold-65" x="83.691406"/>
       <use xlink:href="#DejaVuSans-Bold-75" x="151.513672"/>
       <use xlink:href="#DejaVuSans-Bold-74" x="222.705078"/>
       <use xlink:href="#DejaVuSans-Bold-72" x="270.507812"/>
       <use xlink:href="#DejaVuSans-Bold-61" x="319.824219"/>
       <use xlink:href="#DejaVuSans-Bold-6c" x="387.304688"/>
      </g>
     </g>
    </g>
    <g id="ytick_5">
     <g id="line2d_10">
      <g>
       <use xlink:href="#m266f1b8bb3" x="78.661875" y="323.213812" style="stroke: #000000; stroke-width: 0.8"/>
      </g>
     </g>
     <g id="text_11">
      <!-- Sadness -->
      <g transform="translate(24.749375 325.973187) scale(0.1 -0.1)">
       <use xlink:href="#DejaVuSans-Bold-53"/>
       <use xlink:href="#DejaVuSans-Bold-61" x="72.021484"/>
       <use xlink:href="#DejaVuSans-Bold-64" x="139.501953"/>
       <use xlink:href="#DejaVuSans-Bold-6e" x="211.083984"/>
       <use xlink:href="#DejaVuSans-Bold-65" x="282.275391"/>
       <use xlink:href="#DejaVuSans-Bold-73" x="350.097656"/>
       <use xlink:href="#DejaVuSans-Bold-73" x="409.619141"/>
      </g>
     </g>
    </g>
    <g id="text_12">
     <!-- True label -->
     <g transform="translate(17.837813 229.064687) rotate(-90) scale(0.14 -0.14)">
      <defs>
       <path id="DejaVuSans-Bold-54" d="M 31 4666 
L 4331 4666 
L 4331 3756 
L 2784 3756 
L 2784 0 
L 1581 0 
L 1581 3756 
L 31 3756 
L 31 4666 
z
" transform="scale(0.015625)"/>
      </defs>
      <use xlink:href="#DejaVuSans-Bold-54"/>
      <use xlink:href="#DejaVuSans-Bold-72" x="57.212891"/>
      <use xlink:href="#DejaVuSans-Bold-75" x="106.529297"/>
      <use xlink:href="#DejaVuSans-Bold-65" x="177.720703"/>
      <use xlink:href="#DejaVuSans-Bold-20" x="245.542969"/>
      <use xlink:href="#DejaVuSans-Bold-6c" x="280.357422"/>
      <use xlink:href="#DejaVuSans-Bold-61" x="314.634766"/>
      <use xlink:href="#DejaVuSans-Bold-62" x="382.115234"/>
      <use xlink:href="#DejaVuSans-Bold-65" x="453.697266"/>
      <use xlink:href="#DejaVuSans-Bold-6c" x="521.519531"/>
     </g>
    </g>
   </g>
   <g id="text_13">
    <!-- 733 -->
    <g style="fill: #262626" transform="translate(97.314469 60.964937) scale(0.14 -0.14)">
     <defs>
      <path id="DejaVuSans-Bold-37" d="M 428 4666 
L 3944 4666 
L 3944 3988 
L 2125 0 
L 953 0 
L 2675 3781 
L 428 3781 
L 428 4666 
z
" transform="scale(0.015625)"/>
      <path id="DejaVuSans-Bold-33" d="M 2981 2516 
Q 3453 2394 3698 2092 
Q 3944 1791 3944 1325 
Q 3944 631 3412 270 
Q 2881 -91 1863 -91 
Q 1503 -91 1142 -33 
Q 781 25 428 141 
L 428 1069 
Q 766 900 1098 814 
Q 1431 728 1753 728 
Q 2231 728 2486 893 
Q 2741 1059 2741 1369 
Q 2741 1688 2480 1852 
Q 2219 2016 1709 2016 
L 1228 2016 
L 1228 2791 
L 1734 2791 
Q 2188 2791 2409 2933 
Q 2631 3075 2631 3366 
Q 2631 3634 2415 3781 
Q 2200 3928 1806 3928 
Q 1516 3928 1219 3862 
Q 922 3797 628 3669 
L 628 4550 
Q 984 4650 1334 4700 
Q 1684 4750 2022 4750 
Q 2931 4750 3382 4451 
Q 3834 4153 3834 3553 
Q 3834 3144 3618 2883 
Q 3403 2622 2981 2516 
z
" transform="scale(0.015625)"/>
     </defs>
     <use xlink:href="#DejaVuSans-Bold-37"/>
     <use xlink:href="#DejaVuSans-Bold-33" x="69.580078"/>
     <use xlink:href="#DejaVuSans-Bold-33" x="139.160156"/>
    </g>
   </g>
   <g id="text_14">
    <!--  68 -->
    <g style="fill: #262626" transform="translate(166.276063 60.964937) scale(0.14 -0.14)">
     <defs>
      <path id="DejaVuSans-Bold-36" d="M 2316 2303 
Q 2000 2303 1842 2098 
Q 1684 1894 1684 1484 
Q 1684 1075 1842 870 
Q 2000 666 2316 666 
Q 2634 666 2792 870 
Q 2950 1075 2950 1484 
Q 2950 1894 2792 2098 
Q 2634 2303 2316 2303 
z
M 3803 4544 
L 3803 3681 
Q 3506 3822 3243 3889 
Q 2981 3956 2731 3956 
Q 2194 3956 1894 3657 
Q 1594 3359 1544 2772 
Q 1750 2925 1990 3001 
Q 2231 3078 2516 3078 
Q 3231 3078 3670 2659 
Q 4109 2241 4109 1563 
Q 4109 813 3618 361 
Q 3128 -91 2303 -91 
Q 1394 -91 895 523 
Q 397 1138 397 2266 
Q 397 3422 980 4083 
Q 1563 4744 2578 4744 
Q 2900 4744 3203 4694 
Q 3506 4644 3803 4544 
z
" transform="scale(0.015625)"/>
      <path id="DejaVuSans-Bold-38" d="M 2228 2088 
Q 1891 2088 1709 1903 
Q 1528 1719 1528 1375 
Q 1528 1031 1709 848 
Q 1891 666 2228 666 
Q 2563 666 2741 848 
Q 2919 1031 2919 1375 
Q 2919 1722 2741 1905 
Q 2563 2088 2228 2088 
z
M 1350 2484 
Q 925 2613 709 2878 
Q 494 3144 494 3541 
Q 494 4131 934 4440 
Q 1375 4750 2228 4750 
Q 3075 4750 3515 4442 
Q 3956 4134 3956 3541 
Q 3956 3144 3739 2878 
Q 3522 2613 3097 2484 
Q 3572 2353 3814 2058 
Q 4056 1763 4056 1313 
Q 4056 619 3595 264 
Q 3134 -91 2228 -91 
Q 1319 -91 855 264 
Q 391 619 391 1313 
Q 391 1763 633 2058 
Q 875 2353 1350 2484 
z
M 1631 3419 
Q 1631 3141 1786 2991 
Q 1941 2841 2228 2841 
Q 2509 2841 2662 2991 
Q 2816 3141 2816 3419 
Q 2816 3697 2662 3845 
Q 2509 3994 2228 3994 
Q 1941 3994 1786 3844 
Q 1631 3694 1631 3419 
z
" transform="scale(0.015625)"/>
     </defs>
     <use xlink:href="#DejaVuSans-Bold-20"/>
     <use xlink:href="#DejaVuSans-Bold-36" x="34.814453"/>
     <use xlink:href="#DejaVuSans-Bold-38" x="104.394531"/>
    </g>
   </g>
   <g id="text_15">
    <!--  40 -->
    <g style="fill: #262626" transform="translate(232.804063 60.964937) scale(0.14 -0.14)">
     <defs>
      <path id="DejaVuSans-Bold-34" d="M 2356 3675 
L 1038 1722 
L 2356 1722 
L 2356 3675 
z
M 2156 4666 
L 3494 4666 
L 3494 1722 
L 4159 1722 
L 4159 850 
L 3494 850 
L 3494 0 
L 2356 0 
L 2356 850 
L 288 850 
L 288 1881 
L 2156 4666 
z
" transform="scale(0.015625)"/>
      <path id="DejaVuSans-Bold-30" d="M 2944 2338 
Q 2944 3213 2780 3570 
Q 2616 3928 2228 3928 
Q 1841 3928 1675 3570 
Q 1509 3213 1509 2338 
Q 1509 1453 1675 1090 
Q 1841 728 2228 728 
Q 2613 728 2778 1090 
Q 2944 1453 2944 2338 
z
M 4147 2328 
Q 4147 1169 3647 539 
Q 3147 -91 2228 -91 
Q 1306 -91 806 539 
Q 306 1169 306 2328 
Q 306 3491 806 4120 
Q 1306 4750 2228 4750 
Q 3147 4750 3647 4120 
Q 4147 3491 4147 2328 
z
" transform="scale(0.015625)"/>
     </defs>
     <use xlink:href="#DejaVuSans-Bold-20"/>
     <use xlink:href="#DejaVuSans-Bold-34" x="34.814453"/>
     <use xlink:href="#DejaVuSans-Bold-30" x="104.394531"/>
    </g>
   </g>
   <g id="text_16">
    <!--  62 -->
    <g style="fill: #262626" transform="translate(299.332063 60.964937) scale(0.14 -0.14)">
     <defs>
      <path id="DejaVuSans-Bold-32" d="M 1844 884 
L 3897 884 
L 3897 0 
L 506 0 
L 506 884 
L 2209 2388 
Q 2438 2594 2547 2791 
Q 2656 2988 2656 3200 
Q 2656 3528 2436 3728 
Q 2216 3928 1850 3928 
Q 1569 3928 1234 3808 
Q 900 3688 519 3450 
L 519 4475 
Q 925 4609 1322 4679 
Q 1719 4750 2100 4750 
Q 2938 4750 3402 4381 
Q 3866 4013 3866 3353 
Q 3866 2972 3669 2642 
Q 3472 2313 2841 1759 
L 1844 884 
z
" transform="scale(0.015625)"/>
     </defs>
     <use xlink:href="#DejaVuSans-Bold-20"/>
     <use xlink:href="#DejaVuSans-Bold-36" x="34.814453"/>
     <use xlink:href="#DejaVuSans-Bold-32" x="104.394531"/>
    </g>
   </g>
   <g id="text_17">
    <!--  55 -->
    <g style="fill: #262626" transform="translate(365.860063 60.964937) scale(0.14 -0.14)">
     <defs>
      <path id="DejaVuSans-Bold-35" d="M 678 4666 
L 3669 4666 
L 3669 3781 
L 1638 3781 
L 1638 3059 
Q 1775 3097 1914 3117 
Q 2053 3138 2203 3138 
Q 3056 3138 3531 2711 
Q 4006 2284 4006 1522 
Q 4006 766 3489 337 
Q 2972 -91 2053 -91 
Q 1656 -91 1267 -14 
Q 878 63 494 219 
L 494 1166 
Q 875 947 1217 837 
Q 1559 728 1863 728 
Q 2300 728 2551 942 
Q 2803 1156 2803 1522 
Q 2803 1891 2551 2103 
Q 2300 2316 1863 2316 
Q 1603 2316 1309 2248 
Q 1016 2181 678 2041 
L 678 4666 
z
" transform="scale(0.015625)"/>
     </defs>
     <use xlink:href="#DejaVuSans-Bold-20"/>
     <use xlink:href="#DejaVuSans-Bold-35" x="34.814453"/>
     <use xlink:href="#DejaVuSans-Bold-35" x="104.394531"/>
    </g>
   </g>
   <g id="text_18">
    <!--  44 -->
    <g style="fill: #262626" transform="translate(99.748063 127.492937) scale(0.14 -0.14)">
     <use xlink:href="#DejaVuSans-Bold-20"/>
     <use xlink:href="#DejaVuSans-Bold-34" x="34.814453"/>
     <use xlink:href="#DejaVuSans-Bold-34" x="104.394531"/>
    </g>
   </g>
   <g id="text_19">
    <!-- 793 -->
    <g style="fill: #262626" transform="translate(163.842469 127.492937) scale(0.14 -0.14)">
     <defs>
      <path id="DejaVuSans-Bold-39" d="M 641 103 
L 641 966 
Q 928 831 1190 764 
Q 1453 697 1709 697 
Q 2247 697 2547 995 
Q 2847 1294 2900 1881 
Q 2688 1725 2447 1647 
Q 2206 1569 1925 1569 
Q 1209 1569 770 1986 
Q 331 2403 331 3084 
Q 331 3838 820 4291 
Q 1309 4744 2131 4744 
Q 3044 4744 3544 4128 
Q 4044 3513 4044 2388 
Q 4044 1231 3459 570 
Q 2875 -91 1856 -91 
Q 1528 -91 1228 -42 
Q 928 6 641 103 
z
M 2125 2350 
Q 2441 2350 2600 2554 
Q 2759 2759 2759 3169 
Q 2759 3575 2600 3781 
Q 2441 3988 2125 3988 
Q 1809 3988 1650 3781 
Q 1491 3575 1491 3169 
Q 1491 2759 1650 2554 
Q 1809 2350 2125 2350 
z
" transform="scale(0.015625)"/>
     </defs>
     <use xlink:href="#DejaVuSans-Bold-37"/>
     <use xlink:href="#DejaVuSans-Bold-39" x="69.580078"/>
     <use xlink:href="#DejaVuSans-Bold-33" x="139.160156"/>
    </g>
   </g>
   <g id="text_20">
    <!--  45 -->
    <g style="fill: #262626" transform="translate(232.804063 127.492937) scale(0.14 -0.14)">
     <use xlink:href="#DejaVuSans-Bold-20"/>
     <use xlink:href="#DejaVuSans-Bold-34" x="34.814453"/>
     <use xlink:href="#DejaVuSans-Bold-35" x="104.394531"/>
    </g>
   </g>
   <g id="text_21">
    <!--  65 -->
    <g style="fill: #262626" transform="translate(299.332063 127.492937) scale(0.14 -0.14)">
     <use xlink:href="#DejaVuSans-Bold-20"/>
     <use xlink:href="#DejaVuSans-Bold-36" x="34.814453"/>
     <use xlink:href="#DejaVuSans-Bold-35" x="104.394531"/>
    </g>
   </g>
   <g id="text_22">
    <!--  77 -->
    <g style="fill: #262626" transform="translate(365.860063 127.492937) scale(0.14 -0.14)">
     <use xlink:href="#DejaVuSans-Bold-20"/>
     <use xlink:href="#DejaVuSans-Bold-37" x="34.814453"/>
     <use xlink:href="#DejaVuSans-Bold-37" x="104.394531"/>
    </g>
   </g>
   <g id="text_23">
    <!--  54 -->
    <g style="fill: #262626" transform="translate(99.748063 194.020937) scale(0.14 -0.14)">
     <use xlink:href="#DejaVuSans-Bold-20"/>
     <use xlink:href="#DejaVuSans-Bold-35" x="34.814453"/>
     <use xlink:href="#DejaVuSans-Bold-34" x="104.394531"/>
    </g>
   </g>
   <g id="text_24">
    <!--  45 -->
    <g style="fill: #262626" transform="translate(166.276063 194.020937) scale(0.14 -0.14)">
     <use xlink:href="#DejaVuSans-Bold-20"/>
     <use xlink:href="#DejaVuSans-Bold-34" x="34.814453"/>
     <use xlink:href="#DejaVuSans-Bold-35" x="104.394531"/>
    </g>
   </g>
   <g id="text_25">
    <!-- 1492 -->
    <g style="fill: #ffffff" transform="translate(225.5 194.020937) scale(0.14 -0.14)">
     <defs>
      <path id="DejaVuSans-Bold-31" d="M 750 831 
L 1813 831 
L 1813 3847 
L 722 3622 
L 722 4441 
L 1806 4666 
L 2950 4666 
L 2950 831 
L 4013 831 
L 4013 0 
L 750 0 
L 750 831 
z
" transform="scale(0.015625)"/>
     </defs>
     <use xlink:href="#DejaVuSans-Bold-31"/>
     <use xlink:href="#DejaVuSans-Bold-34" x="69.580078"/>
     <use xlink:href="#DejaVuSans-Bold-39" x="139.160156"/>
     <use xlink:href="#DejaVuSans-Bold-32" x="208.740234"/>
    </g>
   </g>
   <g id="text_26">
    <!--  87 -->
    <g style="fill: #262626" transform="translate(299.332063 194.020937) scale(0.14 -0.14)">
     <use xlink:href="#DejaVuSans-Bold-20"/>
     <use xlink:href="#DejaVuSans-Bold-38" x="34.814453"/>
     <use xlink:href="#DejaVuSans-Bold-37" x="104.394531"/>
    </g>
   </g>
   <g id="text_27">
    <!--  96 -->
    <g style="fill: #262626" transform="translate(365.860063 194.020937) scale(0.14 -0.14)">
     <use xlink:href="#DejaVuSans-Bold-20"/>
     <use xlink:href="#DejaVuSans-Bold-39" x="34.814453"/>
     <use xlink:href="#DejaVuSans-Bold-36" x="104.394531"/>
    </g>
   </g>
   <g id="text_28">
    <!-- 107 -->
    <g style="fill: #262626" transform="translate(97.314469 260.548937) scale(0.14 -0.14)">
     <use xlink:href="#DejaVuSans-Bold-31"/>
     <use xlink:href="#DejaVuSans-Bold-30" x="69.580078"/>
     <use xlink:href="#DejaVuSans-Bold-37" x="139.160156"/>
    </g>
   </g>
   <g id="text_29">
    <!--  91 -->
    <g style="fill: #262626" transform="translate(166.276063 260.548937) scale(0.14 -0.14)">
     <use xlink:href="#DejaVuSans-Bold-20"/>
     <use xlink:href="#DejaVuSans-Bold-39" x="34.814453"/>
     <use xlink:href="#DejaVuSans-Bold-31" x="104.394531"/>
    </g>
   </g>
   <g id="text_30">
    <!--  53 -->
    <g style="fill: #262626" transform="translate(232.804063 260.548937) scale(0.14 -0.14)">
     <use xlink:href="#DejaVuSans-Bold-20"/>
     <use xlink:href="#DejaVuSans-Bold-35" x="34.814453"/>
     <use xlink:href="#DejaVuSans-Bold-33" x="104.394531"/>
    </g>
   </g>
   <g id="text_31">
    <!-- 871 -->
    <g style="fill: #ffffff" transform="translate(296.898469 260.548937) scale(0.14 -0.14)">
     <use xlink:href="#DejaVuSans-Bold-38"/>
     <use xlink:href="#DejaVuSans-Bold-37" x="69.580078"/>
     <use xlink:href="#DejaVuSans-Bold-31" x="139.160156"/>
    </g>
   </g>
   <g id="text_32">
    <!-- 111 -->
    <g style="fill: #262626" transform="translate(363.426469 260.548937) scale(0.14 -0.14)">
     <use xlink:href="#DejaVuSans-Bold-31"/>
     <use xlink:href="#DejaVuSans-Bold-31" x="69.580078"/>
     <use xlink:href="#DejaVuSans-Bold-31" x="139.160156"/>
    </g>
   </g>
   <g id="text_33">
    <!--  90 -->
    <g style="fill: #262626" transform="translate(99.748063 327.076937) scale(0.14 -0.14)">
     <use xlink:href="#DejaVuSans-Bold-20"/>
     <use xlink:href="#DejaVuSans-Bold-39" x="34.814453"/>
     <use xlink:href="#DejaVuSans-Bold-30" x="104.394531"/>
    </g>
   </g>
   <g id="text_34">
    <!--  59 -->
    <g style="fill: #262626" transform="translate(166.276063 327.076937) scale(0.14 -0.14)">
     <use xlink:href="#DejaVuSans-Bold-20"/>
     <use xlink:href="#DejaVuSans-Bold-35" x="34.814453"/>
     <use xlink:href="#DejaVuSans-Bold-39" x="104.394531"/>
    </g>
   </g>
   <g id="text_35">
    <!--  48 -->
    <g style="fill: #262626" transform="translate(232.804063 327.076937) scale(0.14 -0.14)">
     <use xlink:href="#DejaVuSans-Bold-20"/>
     <use xlink:href="#DejaVuSans-Bold-34" x="34.814453"/>
     <use xlink:href="#DejaVuSans-Bold-38" x="104.394531"/>
    </g>
   </g>
   <g id="text_36">
    <!-- 117 -->
    <g style="fill: #262626" transform="translate(296.898469 327.076937) scale(0.14 -0.14)">
     <use xlink:href="#DejaVuSans-Bold-31"/>
     <use xlink:href="#DejaVuSans-Bold-31" x="69.580078"/>
     <use xlink:href="#DejaVuSans-Bold-37" x="139.160156"/>
    </g>
   </g>
   <g id="text_37">
    <!-- 933 -->
    <g style="fill: #ffffff" transform="translate(363.426469 327.076937) scale(0.14 -0.14)">
     <use xlink:href="#DejaVuSans-Bold-39"/>
     <use xlink:href="#DejaVuSans-Bold-33" x="69.580078"/>
     <use xlink:href="#DejaVuSans-Bold-33" x="139.160156"/>
    </g>
   </g>
   <g id="text_38">
    <!-- Model_2 -->
    <g transform="translate(212.677969 17.837812) scale(0.14 -0.14)">
     <defs>
      <path id="DejaVuSans-Bold-4d" d="M 588 4666 
L 2119 4666 
L 3181 2169 
L 4250 4666 
L 5778 4666 
L 5778 0 
L 4641 0 
L 4641 3413 
L 3566 897 
L 2803 897 
L 1728 3413 
L 1728 0 
L 588 0 
L 588 4666 
z
" transform="scale(0.015625)"/>
      <path id="DejaVuSans-Bold-5f" d="M 3200 -916 
L 3200 -1509 
L 0 -1509 
L 0 -916 
L 3200 -916 
z
" transform="scale(0.015625)"/>
     </defs>
     <use xlink:href="#DejaVuSans-Bold-4d"/>
     <use xlink:href="#DejaVuSans-Bold-6f" x="99.511719"/>
     <use xlink:href="#DejaVuSans-Bold-64" x="168.212891"/>
     <use xlink:href="#DejaVuSans-Bold-65" x="239.794922"/>
     <use xlink:href="#DejaVuSans-Bold-6c" x="307.617188"/>
     <use xlink:href="#DejaVuSans-Bold-5f" x="341.894531"/>
     <use xlink:href="#DejaVuSans-Bold-32" x="391.894531"/>
    </g>
   </g>
  </g>
 </g>
 <defs>
  <clipPath id="p1d975e11fe">
   <rect x="78.661875" y="23.837812" width="332.64" height="332.64"/>
  </clipPath>
 </defs>
</svg>
