<?xml version="1.0" encoding="utf-8" standalone="no"?>
<!DOCTYPE svg PUBLIC "-//W3C//DTD SVG 1.1//EN"
  "http://www.w3.org/Graphics/SVG/1.1/DTD/svg11.dtd">
<svg xmlns:xlink="http://www.w3.org/1999/xlink" width="447.263437pt" height="436.7075pt" viewBox="0 0 447.263437 436.7075" xmlns="http://www.w3.org/2000/svg" version="1.1">
 <metadata>
  <rdf:RDF xmlns:dc="http://purl.org/dc/elements/1.1/" xmlns:cc="http://creativecommons.org/ns#" xmlns:rdf="http://www.w3.org/1999/02/22-rdf-syntax-ns#">
   <cc:Work>
    <dc:type rdf:resource="http://purl.org/dc/dcmitype/StillImage"/>
    <dc:date>2023-07-04T13:37:07.949033</dc:date>
    <dc:format>image/svg+xml</dc:format>
    <dc:creator>
     <cc:Agent>
      <dc:title>Matplotlib v3.7.1, https://matplotlib.org/</dc:title>
     </cc:Agent>
    </dc:creator>
   </cc:Work>
  </rdf:RDF>
 </metadata>
 <defs>
  <style type="text/css">*{stroke-linejoin: round; stroke-linecap: butt}</style>
 </defs>
 <g id="figure_1">
  <g id="patch_1">
   <path d="M 0 436.7075 
L 447.263437 436.7075 
L 447.263437 0 
L 0 0 
z
" style="fill: #ffffff"/>
  </g>
  <g id="axes_1">
   <g id="patch_2">
    <path d="M 49.463437 395.28 
L 440.063438 395.28 
L 440.063438 7.2 
L 49.463437 7.2 
z
" style="fill: #ffffff"/>
   </g>
   <g id="PathCollection_1">
    <defs>
     <path id="mf2b716d3f9" d="M 0 5 
C 1.326016 5 2.597899 4.473168 3.535534 3.535534 
C 4.473168 2.597899 5 1.326016 5 0 
C 5 -1.326016 4.473168 -2.597899 3.535534 -3.535534 
C 2.597899 -4.473168 1.326016 -5 0 -5 
C -1.326016 -5 -2.597899 -4.473168 -3.535534 -3.535534 
C -4.473168 -2.597899 -5 -1.326016 -5 0 
C -5 1.326016 -4.473168 2.597899 -3.535534 3.535534 
C -2.597899 4.473168 -1.326016 5 0 5 
z
" style="stroke: #1f77b4"/>
    </defs>
    <g clip-path="url(#p07f710e693)">
     <use xlink:href="#mf2b716d3f9" x="89.922044" y="24.84" style="fill: #1f77b4; stroke: #1f77b4"/>
     <use xlink:href="#mf2b716d3f9" x="108.681344" y="87.333878" style="fill: #1f77b4; stroke: #1f77b4"/>
     <use xlink:href="#mf2b716d3f9" x="68.79952" y="42.986581" style="fill: #1f77b4; stroke: #1f77b4"/>
     <use xlink:href="#mf2b716d3f9" x="83.174352" y="95.293065" style="fill: #1f77b4; stroke: #1f77b4"/>
     <use xlink:href="#mf2b716d3f9" x="87.615662" y="83.819379" style="fill: #1f77b4; stroke: #1f77b4"/>
     <use xlink:href="#mf2b716d3f9" x="68.259438" y="63.263441" style="fill: #1f77b4; stroke: #1f77b4"/>
     <use xlink:href="#mf2b716d3f9" x="67.217983" y="156.916706" style="fill: #1f77b4; stroke: #1f77b4"/>
     <use xlink:href="#mf2b716d3f9" x="75.442759" y="85.448628" style="fill: #1f77b4; stroke: #1f77b4"/>
     <use xlink:href="#mf2b716d3f9" x="67.900574" y="36.45965" style="fill: #1f77b4; stroke: #1f77b4"/>
     <use xlink:href="#mf2b716d3f9" x="67.314251" y="115.889369" style="fill: #1f77b4; stroke: #1f77b4"/>
     <use xlink:href="#mf2b716d3f9" x="67.235407" y="168.961845" style="fill: #1f77b4; stroke: #1f77b4"/>
    </g>
   </g>
   <g id="PathCollection_2">
    <defs>
     <path id="m234e87e2ca" d="M -5 5 
L 5 -5 
M -5 -5 
L 5 5 
" style="stroke: #2ca02c; stroke-width: 1.5"/>
    </defs>
    <g clip-path="url(#p07f710e693)">
     <use xlink:href="#m234e87e2ca" x="367.026294" y="349.556749" style="fill: #2ca02c; stroke: #2ca02c; stroke-width: 1.5"/>
     <use xlink:href="#m234e87e2ca" x="344.392746" y="368.469497" style="fill: #2ca02c; stroke: #2ca02c; stroke-width: 1.5"/>
     <use xlink:href="#m234e87e2ca" x="351.231317" y="364.721475" style="fill: #2ca02c; stroke: #2ca02c; stroke-width: 1.5"/>
     <use xlink:href="#m234e87e2ca" x="419.847979" y="318.323621" style="fill: #2ca02c; stroke: #2ca02c; stroke-width: 1.5"/>
     <use xlink:href="#m234e87e2ca" x="376.823043" y="374.754135" style="fill: #2ca02c; stroke: #2ca02c; stroke-width: 1.5"/>
     <use xlink:href="#m234e87e2ca" x="398.589696" y="364.90343" style="fill: #2ca02c; stroke: #2ca02c; stroke-width: 1.5"/>
     <use xlink:href="#m234e87e2ca" x="385.447146" y="374.080472" style="fill: #2ca02c; stroke: #2ca02c; stroke-width: 1.5"/>
     <use xlink:href="#m234e87e2ca" x="399.555125" y="374.849" style="fill: #2ca02c; stroke: #2ca02c; stroke-width: 1.5"/>
     <use xlink:href="#m234e87e2ca" x="329.528896" y="377.64" style="fill: #2ca02c; stroke: #2ca02c; stroke-width: 1.5"/>
     <use xlink:href="#m234e87e2ca" x="374.79923" y="268.670611" style="fill: #2ca02c; stroke: #2ca02c; stroke-width: 1.5"/>
     <use xlink:href="#m234e87e2ca" x="392.607799" y="376.795344" style="fill: #2ca02c; stroke: #2ca02c; stroke-width: 1.5"/>
    </g>
   </g>
   <g id="PathCollection_3">
    <defs>
     <path id="md820f7be16" d="M 0 -5 
L -5 5 
L 5 5 
z
" style="stroke: #d62728"/>
    </defs>
    <g clip-path="url(#p07f710e693)">
     <use xlink:href="#md820f7be16" x="135.837795" y="259.698077" style="fill: #d62728; stroke: #d62728"/>
     <use xlink:href="#md820f7be16" x="142.977319" y="284.759274" style="fill: #d62728; stroke: #d62728"/>
     <use xlink:href="#md820f7be16" x="136.051897" y="229.001013" style="fill: #d62728; stroke: #d62728"/>
     <use xlink:href="#md820f7be16" x="72.980429" y="294.279568" style="fill: #d62728; stroke: #d62728"/>
     <use xlink:href="#md820f7be16" x="135.808705" y="336.807383" style="fill: #d62728; stroke: #d62728"/>
     <use xlink:href="#md820f7be16" x="134.613668" y="313.993165" style="fill: #d62728; stroke: #d62728"/>
     <use xlink:href="#md820f7be16" x="126.347498" y="282.979176" style="fill: #d62728; stroke: #d62728"/>
     <use xlink:href="#md820f7be16" x="74.88278" y="273.060425" style="fill: #d62728; stroke: #d62728"/>
     <use xlink:href="#md820f7be16" x="119.30063" y="339.015424" style="fill: #d62728; stroke: #d62728"/>
     <use xlink:href="#md820f7be16" x="111.455868" y="309.162469" style="fill: #d62728; stroke: #d62728"/>
     <use xlink:href="#md820f7be16" x="157.711034" y="311.292257" style="fill: #d62728; stroke: #d62728"/>
    </g>
   </g>
   <g id="PathCollection_4">
    <defs>
     <path id="mc1ea8f41bf" d="M -5 5 
L 5 5 
L 5 -5 
L -5 -5 
z
" style="stroke: #17becf"/>
    </defs>
    <g clip-path="url(#p07f710e693)">
     <use xlink:href="#mc1ea8f41bf" x="207.139099" y="165.181773" style="fill: #17becf; stroke: #17becf"/>
     <use xlink:href="#mc1ea8f41bf" x="190.336495" y="90.53521" style="fill: #17becf; stroke: #17becf"/>
     <use xlink:href="#mc1ea8f41bf" x="242.87734" y="102.370603" style="fill: #17becf; stroke: #17becf"/>
     <use xlink:href="#mc1ea8f41bf" x="171.302925" y="72.697149" style="fill: #17becf; stroke: #17becf"/>
     <use xlink:href="#mc1ea8f41bf" x="198.93812" y="80.788403" style="fill: #17becf; stroke: #17becf"/>
     <use xlink:href="#mc1ea8f41bf" x="206.07187" y="110.895529" style="fill: #17becf; stroke: #17becf"/>
     <use xlink:href="#mc1ea8f41bf" x="252.721987" y="129.554444" style="fill: #17becf; stroke: #17becf"/>
     <use xlink:href="#mc1ea8f41bf" x="200.962031" y="119.216526" style="fill: #17becf; stroke: #17becf"/>
     <use xlink:href="#mc1ea8f41bf" x="220.48204" y="50.052249" style="fill: #17becf; stroke: #17becf"/>
     <use xlink:href="#mc1ea8f41bf" x="251.201149" y="63.997885" style="fill: #17becf; stroke: #17becf"/>
     <use xlink:href="#mc1ea8f41bf" x="227.400125" y="145.002816" style="fill: #17becf; stroke: #17becf"/>
    </g>
   </g>
   <g id="PathCollection_5">
    <defs>
     <path id="m04f14ccdba" d="M 0 7.071068 
L 7.071068 0 
L 0 -7.071068 
L -7.071068 0 
z
" style="stroke: #ff7f0e"/>
    </defs>
    <g clip-path="url(#p07f710e693)">
     <use xlink:href="#m04f14ccdba" x="420.886038" y="214.224698" style="fill: #ff7f0e; stroke: #ff7f0e"/>
     <use xlink:href="#m04f14ccdba" x="421.911134" y="186.316193" style="fill: #ff7f0e; stroke: #ff7f0e"/>
     <use xlink:href="#m04f14ccdba" x="365.428764" y="88.814102" style="fill: #ff7f0e; stroke: #ff7f0e"/>
     <use xlink:href="#m04f14ccdba" x="400.909022" y="166.219359" style="fill: #ff7f0e; stroke: #ff7f0e"/>
     <use xlink:href="#m04f14ccdba" x="373.969649" y="188.920378" style="fill: #ff7f0e; stroke: #ff7f0e"/>
     <use xlink:href="#m04f14ccdba" x="422.169137" y="124.577177" style="fill: #ff7f0e; stroke: #ff7f0e"/>
     <use xlink:href="#m04f14ccdba" x="385.204021" y="145.144783" style="fill: #ff7f0e; stroke: #ff7f0e"/>
     <use xlink:href="#m04f14ccdba" x="422.124089" y="169.543643" style="fill: #ff7f0e; stroke: #ff7f0e"/>
     <use xlink:href="#m04f14ccdba" x="422.308892" y="91.752128" style="fill: #ff7f0e; stroke: #ff7f0e"/>
     <use xlink:href="#m04f14ccdba" x="421.083299" y="143.39185" style="fill: #ff7f0e; stroke: #ff7f0e"/>
     <use xlink:href="#m04f14ccdba" x="392.834902" y="122.18636" style="fill: #ff7f0e; stroke: #ff7f0e"/>
    </g>
   </g>
   <g id="matplotlib.axis_1">
    <g id="xtick_1">
     <g id="line2d_1">
      <path d="M 66.84553 395.28 
L 66.84553 7.2 
" clip-path="url(#p07f710e693)" style="fill: none; stroke: #b0b0b0; stroke-width: 0.8; stroke-linecap: square"/>
     </g>
     <g id="line2d_2">
      <defs>
       <path id="m886e8bf9f2" d="M 0 0 
L 0 3.5 
" style="stroke: #000000; stroke-width: 0.8"/>
      </defs>
      <g>
       <use xlink:href="#m886e8bf9f2" x="66.84553" y="395.28" style="stroke: #000000; stroke-width: 0.8"/>
      </g>
     </g>
     <g id="text_1">
      <!-- 0.0 -->
      <g transform="translate(57.988499 409.878437) scale(0.1 -0.1)">
       <defs>
        <path id="DejaVuSans-Bold-30" d="M 2944 2338 
Q 2944 3213 2780 3570 
Q 2616 3928 2228 3928 
Q 1841 3928 1675 3570 
Q 1509 3213 1509 2338 
Q 1509 1453 1675 1090 
Q 1841 728 2228 728 
Q 2613 728 2778 1090 
Q 2944 1453 2944 2338 
z
M 4147 2328 
Q 4147 1169 3647 539 
Q 3147 -91 2228 -91 
Q 1306 -91 806 539 
Q 306 1169 306 2328 
Q 306 3491 806 4120 
Q 1306 4750 2228 4750 
Q 3147 4750 3647 4120 
Q 4147 3491 4147 2328 
z
" transform="scale(0.015625)"/>
        <path id="DejaVuSans-Bold-2e" d="M 653 1209 
L 1778 1209 
L 1778 0 
L 653 0 
L 653 1209 
z
" transform="scale(0.015625)"/>
       </defs>
       <use xlink:href="#DejaVuSans-Bold-30"/>
       <use xlink:href="#DejaVuSans-Bold-2e" x="69.580078"/>
       <use xlink:href="#DejaVuSans-Bold-30" x="107.568359"/>
      </g>
     </g>
    </g>
    <g id="xtick_2">
     <g id="line2d_3">
      <path d="M 137.967774 395.28 
L 137.967774 7.2 
" clip-path="url(#p07f710e693)" style="fill: none; stroke: #b0b0b0; stroke-width: 0.8; stroke-linecap: square"/>
     </g>
     <g id="line2d_4">
      <g>
       <use xlink:href="#m886e8bf9f2" x="137.967774" y="395.28" style="stroke: #000000; stroke-width: 0.8"/>
      </g>
     </g>
     <g id="text_2">
      <!-- 0.2 -->
      <g transform="translate(129.110742 409.878437) scale(0.1 -0.1)">
       <defs>
        <path id="DejaVuSans-Bold-32" d="M 1844 884 
L 3897 884 
L 3897 0 
L 506 0 
L 506 884 
L 2209 2388 
Q 2438 2594 2547 2791 
Q 2656 2988 2656 3200 
Q 2656 3528 2436 3728 
Q 2216 3928 1850 3928 
Q 1569 3928 1234 3808 
Q 900 3688 519 3450 
L 519 4475 
Q 925 4609 1322 4679 
Q 1719 4750 2100 4750 
Q 2938 4750 3402 4381 
Q 3866 4013 3866 3353 
Q 3866 2972 3669 2642 
Q 3472 2313 2841 1759 
L 1844 884 
z
" transform="scale(0.015625)"/>
       </defs>
       <use xlink:href="#DejaVuSans-Bold-30"/>
       <use xlink:href="#DejaVuSans-Bold-2e" x="69.580078"/>
       <use xlink:href="#DejaVuSans-Bold-32" x="107.568359"/>
      </g>
     </g>
    </g>
    <g id="xtick_3">
     <g id="line2d_5">
      <path d="M 209.090017 395.28 
L 209.090017 7.2 
" clip-path="url(#p07f710e693)" style="fill: none; stroke: #b0b0b0; stroke-width: 0.8; stroke-linecap: square"/>
     </g>
     <g id="line2d_6">
      <g>
       <use xlink:href="#m886e8bf9f2" x="209.090017" y="395.28" style="stroke: #000000; stroke-width: 0.8"/>
      </g>
     </g>
     <g id="text_3">
      <!-- 0.4 -->
      <g transform="translate(200.232985 409.878437) scale(0.1 -0.1)">
       <defs>
        <path id="DejaVuSans-Bold-34" d="M 2356 3675 
L 1038 1722 
L 2356 1722 
L 2356 3675 
z
M 2156 4666 
L 3494 4666 
L 3494 1722 
L 4159 1722 
L 4159 850 
L 3494 850 
L 3494 0 
L 2356 0 
L 2356 850 
L 288 850 
L 288 1881 
L 2156 4666 
z
" transform="scale(0.015625)"/>
       </defs>
       <use xlink:href="#DejaVuSans-Bold-30"/>
       <use xlink:href="#DejaVuSans-Bold-2e" x="69.580078"/>
       <use xlink:href="#DejaVuSans-Bold-34" x="107.568359"/>
      </g>
     </g>
    </g>
    <g id="xtick_4">
     <g id="line2d_7">
      <path d="M 280.21226 395.28 
L 280.21226 7.2 
" clip-path="url(#p07f710e693)" style="fill: none; stroke: #b0b0b0; stroke-width: 0.8; stroke-linecap: square"/>
     </g>
     <g id="line2d_8">
      <g>
       <use xlink:href="#m886e8bf9f2" x="280.21226" y="395.28" style="stroke: #000000; stroke-width: 0.8"/>
      </g>
     </g>
     <g id="text_4">
      <!-- 0.6 -->
      <g transform="translate(271.355229 409.878437) scale(0.1 -0.1)">
       <defs>
        <path id="DejaVuSans-Bold-36" d="M 2316 2303 
Q 2000 2303 1842 2098 
Q 1684 1894 1684 1484 
Q 1684 1075 1842 870 
Q 2000 666 2316 666 
Q 2634 666 2792 870 
Q 2950 1075 2950 1484 
Q 2950 1894 2792 2098 
Q 2634 2303 2316 2303 
z
M 3803 4544 
L 3803 3681 
Q 3506 3822 3243 3889 
Q 2981 3956 2731 3956 
Q 2194 3956 1894 3657 
Q 1594 3359 1544 2772 
Q 1750 2925 1990 3001 
Q 2231 3078 2516 3078 
Q 3231 3078 3670 2659 
Q 4109 2241 4109 1563 
Q 4109 813 3618 361 
Q 3128 -91 2303 -91 
Q 1394 -91 895 523 
Q 397 1138 397 2266 
Q 397 3422 980 4083 
Q 1563 4744 2578 4744 
Q 2900 4744 3203 4694 
Q 3506 4644 3803 4544 
z
" transform="scale(0.015625)"/>
       </defs>
       <use xlink:href="#DejaVuSans-Bold-30"/>
       <use xlink:href="#DejaVuSans-Bold-2e" x="69.580078"/>
       <use xlink:href="#DejaVuSans-Bold-36" x="107.568359"/>
      </g>
     </g>
    </g>
    <g id="xtick_5">
     <g id="line2d_9">
      <path d="M 351.334503 395.28 
L 351.334503 7.2 
" clip-path="url(#p07f710e693)" style="fill: none; stroke: #b0b0b0; stroke-width: 0.8; stroke-linecap: square"/>
     </g>
     <g id="line2d_10">
      <g>
       <use xlink:href="#m886e8bf9f2" x="351.334503" y="395.28" style="stroke: #000000; stroke-width: 0.8"/>
      </g>
     </g>
     <g id="text_5">
      <!-- 0.8 -->
      <g transform="translate(342.477472 409.878437) scale(0.1 -0.1)">
       <defs>
        <path id="DejaVuSans-Bold-38" d="M 2228 2088 
Q 1891 2088 1709 1903 
Q 1528 1719 1528 1375 
Q 1528 1031 1709 848 
Q 1891 666 2228 666 
Q 2563 666 2741 848 
Q 2919 1031 2919 1375 
Q 2919 1722 2741 1905 
Q 2563 2088 2228 2088 
z
M 1350 2484 
Q 925 2613 709 2878 
Q 494 3144 494 3541 
Q 494 4131 934 4440 
Q 1375 4750 2228 4750 
Q 3075 4750 3515 4442 
Q 3956 4134 3956 3541 
Q 3956 3144 3739 2878 
Q 3522 2613 3097 2484 
Q 3572 2353 3814 2058 
Q 4056 1763 4056 1313 
Q 4056 619 3595 264 
Q 3134 -91 2228 -91 
Q 1319 -91 855 264 
Q 391 619 391 1313 
Q 391 1763 633 2058 
Q 875 2353 1350 2484 
z
M 1631 3419 
Q 1631 3141 1786 2991 
Q 1941 2841 2228 2841 
Q 2509 2841 2662 2991 
Q 2816 3141 2816 3419 
Q 2816 3697 2662 3845 
Q 2509 3994 2228 3994 
Q 1941 3994 1786 3844 
Q 1631 3694 1631 3419 
z
" transform="scale(0.015625)"/>
       </defs>
       <use xlink:href="#DejaVuSans-Bold-30"/>
       <use xlink:href="#DejaVuSans-Bold-2e" x="69.580078"/>
       <use xlink:href="#DejaVuSans-Bold-38" x="107.568359"/>
      </g>
     </g>
    </g>
    <g id="xtick_6">
     <g id="line2d_11">
      <path d="M 422.456746 395.28 
L 422.456746 7.2 
" clip-path="url(#p07f710e693)" style="fill: none; stroke: #b0b0b0; stroke-width: 0.8; stroke-linecap: square"/>
     </g>
     <g id="line2d_12">
      <g>
       <use xlink:href="#m886e8bf9f2" x="422.456746" y="395.28" style="stroke: #000000; stroke-width: 0.8"/>
      </g>
     </g>
     <g id="text_6">
      <!-- 1.0 -->
      <g transform="translate(413.599715 409.878437) scale(0.1 -0.1)">
       <defs>
        <path id="DejaVuSans-Bold-31" d="M 750 831 
L 1813 831 
L 1813 3847 
L 722 3622 
L 722 4441 
L 1806 4666 
L 2950 4666 
L 2950 831 
L 4013 831 
L 4013 0 
L 750 0 
L 750 831 
z
" transform="scale(0.015625)"/>
       </defs>
       <use xlink:href="#DejaVuSans-Bold-31"/>
       <use xlink:href="#DejaVuSans-Bold-2e" x="69.580078"/>
       <use xlink:href="#DejaVuSans-Bold-30" x="107.568359"/>
      </g>
     </g>
    </g>
    <g id="text_7">
     <!-- X1 -->
     <g transform="translate(234.496406 426.595937) scale(0.14 -0.14)">
      <defs>
       <path id="DejaVuSans-Bold-58" d="M 3188 2381 
L 4806 0 
L 3553 0 
L 2463 1594 
L 1381 0 
L 122 0 
L 1741 2381 
L 184 4666 
L 1441 4666 
L 2463 3163 
L 3481 4666 
L 4744 4666 
L 3188 2381 
z
" transform="scale(0.015625)"/>
      </defs>
      <use xlink:href="#DejaVuSans-Bold-58"/>
      <use xlink:href="#DejaVuSans-Bold-31" x="77.099609"/>
     </g>
    </g>
   </g>
   <g id="matplotlib.axis_2">
    <g id="ytick_1">
     <g id="line2d_13">
      <path d="M 49.463437 377.848708 
L 440.063438 377.848708 
" clip-path="url(#p07f710e693)" style="fill: none; stroke: #b0b0b0; stroke-width: 0.8; stroke-linecap: square"/>
     </g>
     <g id="line2d_14">
      <defs>
       <path id="ma77302183b" d="M 0 0 
L -3.5 0 
" style="stroke: #000000; stroke-width: 0.8"/>
      </defs>
      <g>
       <use xlink:href="#ma77302183b" x="49.463437" y="377.848708" style="stroke: #000000; stroke-width: 0.8"/>
      </g>
     </g>
     <g id="text_8">
      <!-- 0.0 -->
      <g transform="translate(24.749375 381.647927) scale(0.1 -0.1)">
       <use xlink:href="#DejaVuSans-Bold-30"/>
       <use xlink:href="#DejaVuSans-Bold-2e" x="69.580078"/>
       <use xlink:href="#DejaVuSans-Bold-30" x="107.568359"/>
      </g>
     </g>
    </g>
    <g id="ytick_2">
     <g id="line2d_15">
      <path d="M 49.463437 306.158762 
L 440.063438 306.158762 
" clip-path="url(#p07f710e693)" style="fill: none; stroke: #b0b0b0; stroke-width: 0.8; stroke-linecap: square"/>
     </g>
     <g id="line2d_16">
      <g>
       <use xlink:href="#ma77302183b" x="49.463437" y="306.158762" style="stroke: #000000; stroke-width: 0.8"/>
      </g>
     </g>
     <g id="text_9">
      <!-- 0.2 -->
      <g transform="translate(24.749375 309.957981) scale(0.1 -0.1)">
       <use xlink:href="#DejaVuSans-Bold-30"/>
       <use xlink:href="#DejaVuSans-Bold-2e" x="69.580078"/>
       <use xlink:href="#DejaVuSans-Bold-32" x="107.568359"/>
      </g>
     </g>
    </g>
    <g id="ytick_3">
     <g id="line2d_17">
      <path d="M 49.463437 234.468816 
L 440.063438 234.468816 
" clip-path="url(#p07f710e693)" style="fill: none; stroke: #b0b0b0; stroke-width: 0.8; stroke-linecap: square"/>
     </g>
     <g id="line2d_18">
      <g>
       <use xlink:href="#ma77302183b" x="49.463437" y="234.468816" style="stroke: #000000; stroke-width: 0.8"/>
      </g>
     </g>
     <g id="text_10">
      <!-- 0.4 -->
      <g transform="translate(24.749375 238.268035) scale(0.1 -0.1)">
       <use xlink:href="#DejaVuSans-Bold-30"/>
       <use xlink:href="#DejaVuSans-Bold-2e" x="69.580078"/>
       <use xlink:href="#DejaVuSans-Bold-34" x="107.568359"/>
      </g>
     </g>
    </g>
    <g id="ytick_4">
     <g id="line2d_19">
      <path d="M 49.463437 162.77887 
L 440.063438 162.77887 
" clip-path="url(#p07f710e693)" style="fill: none; stroke: #b0b0b0; stroke-width: 0.8; stroke-linecap: square"/>
     </g>
     <g id="line2d_20">
      <g>
       <use xlink:href="#ma77302183b" x="49.463437" y="162.77887" style="stroke: #000000; stroke-width: 0.8"/>
      </g>
     </g>
     <g id="text_11">
      <!-- 0.6 -->
      <g transform="translate(24.749375 166.578089) scale(0.1 -0.1)">
       <use xlink:href="#DejaVuSans-Bold-30"/>
       <use xlink:href="#DejaVuSans-Bold-2e" x="69.580078"/>
       <use xlink:href="#DejaVuSans-Bold-36" x="107.568359"/>
      </g>
     </g>
    </g>
    <g id="ytick_5">
     <g id="line2d_21">
      <path d="M 49.463437 91.088924 
L 440.063438 91.088924 
" clip-path="url(#p07f710e693)" style="fill: none; stroke: #b0b0b0; stroke-width: 0.8; stroke-linecap: square"/>
     </g>
     <g id="line2d_22">
      <g>
       <use xlink:href="#ma77302183b" x="49.463437" y="91.088924" style="stroke: #000000; stroke-width: 0.8"/>
      </g>
     </g>
     <g id="text_12">
      <!-- 0.8 -->
      <g transform="translate(24.749375 94.888143) scale(0.1 -0.1)">
       <use xlink:href="#DejaVuSans-Bold-30"/>
       <use xlink:href="#DejaVuSans-Bold-2e" x="69.580078"/>
       <use xlink:href="#DejaVuSans-Bold-38" x="107.568359"/>
      </g>
     </g>
    </g>
    <g id="ytick_6">
     <g id="line2d_23">
      <path d="M 49.463437 19.398978 
L 440.063438 19.398978 
" clip-path="url(#p07f710e693)" style="fill: none; stroke: #b0b0b0; stroke-width: 0.8; stroke-linecap: square"/>
     </g>
     <g id="line2d_24">
      <g>
       <use xlink:href="#ma77302183b" x="49.463437" y="19.398978" style="stroke: #000000; stroke-width: 0.8"/>
      </g>
     </g>
     <g id="text_13">
      <!-- 1.0 -->
      <g transform="translate(24.749375 23.198197) scale(0.1 -0.1)">
       <use xlink:href="#DejaVuSans-Bold-31"/>
       <use xlink:href="#DejaVuSans-Bold-2e" x="69.580078"/>
       <use xlink:href="#DejaVuSans-Bold-30" x="107.568359"/>
      </g>
     </g>
    </g>
    <g id="text_14">
     <!-- X2 -->
     <g transform="translate(17.837812 211.507031) rotate(-90) scale(0.14 -0.14)">
      <use xlink:href="#DejaVuSans-Bold-58"/>
      <use xlink:href="#DejaVuSans-Bold-32" x="77.099609"/>
     </g>
    </g>
   </g>
   <g id="line2d_25">
    <path d="M 89.922044 24.84 
L 108.681344 87.333878 
" clip-path="url(#p07f710e693)" style="fill: none; stroke: #1f77b4; stroke-width: 1.5; stroke-linecap: square"/>
   </g>
   <g id="line2d_26">
    <path d="M 67.900574 36.45965 
L 89.922044 24.84 
" clip-path="url(#p07f710e693)" style="fill: none; stroke: #1f77b4; stroke-width: 1.5; stroke-linecap: square"/>
   </g>
   <g id="line2d_27">
    <path d="M 67.235407 168.961845 
L 67.217983 156.916706 
" clip-path="url(#p07f710e693)" style="fill: none; stroke: #1f77b4; stroke-width: 1.5; stroke-linecap: square"/>
   </g>
   <g id="line2d_28">
    <path d="M 67.235407 168.961845 
L 108.681344 87.333878 
" clip-path="url(#p07f710e693)" style="fill: none; stroke: #1f77b4; stroke-width: 1.5; stroke-linecap: square"/>
   </g>
   <g id="line2d_29">
    <path d="M 67.314251 115.889369 
L 67.217983 156.916706 
" clip-path="url(#p07f710e693)" style="fill: none; stroke: #1f77b4; stroke-width: 1.5; stroke-linecap: square"/>
   </g>
   <g id="line2d_30">
    <path d="M 67.314251 115.889369 
L 67.900574 36.45965 
" clip-path="url(#p07f710e693)" style="fill: none; stroke: #1f77b4; stroke-width: 1.5; stroke-linecap: square"/>
   </g>
   <g id="line2d_31">
    <path d="M 374.79923 268.670611 
L 329.528896 377.64 
" clip-path="url(#p07f710e693)" style="fill: none; stroke: #2ca02c; stroke-width: 1.5; stroke-linecap: square"/>
   </g>
   <g id="line2d_32">
    <path d="M 374.79923 268.670611 
L 419.847979 318.323621 
" clip-path="url(#p07f710e693)" style="fill: none; stroke: #2ca02c; stroke-width: 1.5; stroke-linecap: square"/>
   </g>
   <g id="line2d_33">
    <path d="M 399.555125 374.849 
L 419.847979 318.323621 
" clip-path="url(#p07f710e693)" style="fill: none; stroke: #2ca02c; stroke-width: 1.5; stroke-linecap: square"/>
   </g>
   <g id="line2d_34">
    <path d="M 392.607799 376.795344 
L 329.528896 377.64 
" clip-path="url(#p07f710e693)" style="fill: none; stroke: #2ca02c; stroke-width: 1.5; stroke-linecap: square"/>
   </g>
   <g id="line2d_35">
    <path d="M 392.607799 376.795344 
L 399.555125 374.849 
" clip-path="url(#p07f710e693)" style="fill: none; stroke: #2ca02c; stroke-width: 1.5; stroke-linecap: square"/>
   </g>
   <g id="line2d_36">
    <path d="M 136.051897 229.001013 
L 157.711034 311.292257 
" clip-path="url(#p07f710e693)" style="fill: none; stroke: #d62728; stroke-width: 1.5; stroke-linecap: square"/>
   </g>
   <g id="line2d_37">
    <path d="M 119.30063 339.015424 
L 72.980429 294.279568 
" clip-path="url(#p07f710e693)" style="fill: none; stroke: #d62728; stroke-width: 1.5; stroke-linecap: square"/>
   </g>
   <g id="line2d_38">
    <path d="M 74.88278 273.060425 
L 72.980429 294.279568 
" clip-path="url(#p07f710e693)" style="fill: none; stroke: #d62728; stroke-width: 1.5; stroke-linecap: square"/>
   </g>
   <g id="line2d_39">
    <path d="M 74.88278 273.060425 
L 136.051897 229.001013 
" clip-path="url(#p07f710e693)" style="fill: none; stroke: #d62728; stroke-width: 1.5; stroke-linecap: square"/>
   </g>
   <g id="line2d_40">
    <path d="M 135.808705 336.807383 
L 157.711034 311.292257 
" clip-path="url(#p07f710e693)" style="fill: none; stroke: #d62728; stroke-width: 1.5; stroke-linecap: square"/>
   </g>
   <g id="line2d_41">
    <path d="M 135.808705 336.807383 
L 119.30063 339.015424 
" clip-path="url(#p07f710e693)" style="fill: none; stroke: #d62728; stroke-width: 1.5; stroke-linecap: square"/>
   </g>
   <g id="line2d_42">
    <path d="M 207.139099 165.181773 
L 171.302925 72.697149 
" clip-path="url(#p07f710e693)" style="fill: none; stroke: #17becf; stroke-width: 1.5; stroke-linecap: square"/>
   </g>
   <g id="line2d_43">
    <path d="M 207.139099 165.181773 
L 252.721987 129.554444 
" clip-path="url(#p07f710e693)" style="fill: none; stroke: #17becf; stroke-width: 1.5; stroke-linecap: square"/>
   </g>
   <g id="line2d_44">
    <path d="M 251.201149 63.997885 
L 252.721987 129.554444 
" clip-path="url(#p07f710e693)" style="fill: none; stroke: #17becf; stroke-width: 1.5; stroke-linecap: square"/>
   </g>
   <g id="line2d_45">
    <path d="M 220.48204 50.052249 
L 171.302925 72.697149 
" clip-path="url(#p07f710e693)" style="fill: none; stroke: #17becf; stroke-width: 1.5; stroke-linecap: square"/>
   </g>
   <g id="line2d_46">
    <path d="M 220.48204 50.052249 
L 251.201149 63.997885 
" clip-path="url(#p07f710e693)" style="fill: none; stroke: #17becf; stroke-width: 1.5; stroke-linecap: square"/>
   </g>
   <g id="line2d_47">
    <path d="M 422.308892 91.752128 
L 365.428764 88.814102 
" clip-path="url(#p07f710e693)" style="fill: none; stroke: #ff7f0e; stroke-width: 1.5; stroke-linecap: square"/>
   </g>
   <g id="line2d_48">
    <path d="M 373.969649 188.920378 
L 365.428764 88.814102 
" clip-path="url(#p07f710e693)" style="fill: none; stroke: #ff7f0e; stroke-width: 1.5; stroke-linecap: square"/>
   </g>
   <g id="line2d_49">
    <path d="M 373.969649 188.920378 
L 420.886038 214.224698 
" clip-path="url(#p07f710e693)" style="fill: none; stroke: #ff7f0e; stroke-width: 1.5; stroke-linecap: square"/>
   </g>
   <g id="line2d_50">
    <path d="M 422.124089 169.543643 
L 422.308892 91.752128 
" clip-path="url(#p07f710e693)" style="fill: none; stroke: #ff7f0e; stroke-width: 1.5; stroke-linecap: square"/>
   </g>
   <g id="line2d_51">
    <path d="M 421.911134 186.316193 
L 420.886038 214.224698 
" clip-path="url(#p07f710e693)" style="fill: none; stroke: #ff7f0e; stroke-width: 1.5; stroke-linecap: square"/>
   </g>
   <g id="line2d_52">
    <path d="M 421.911134 186.316193 
L 422.124089 169.543643 
" clip-path="url(#p07f710e693)" style="fill: none; stroke: #ff7f0e; stroke-width: 1.5; stroke-linecap: square"/>
   </g>
   <g id="patch_3">
    <path d="M 49.463437 395.28 
L 49.463437 7.2 
" style="fill: none; stroke: #000000; stroke-width: 0.8; stroke-linejoin: miter; stroke-linecap: square"/>
   </g>
   <g id="patch_4">
    <path d="M 440.063438 395.28 
L 440.063438 7.2 
" style="fill: none; stroke: #000000; stroke-width: 0.8; stroke-linejoin: miter; stroke-linecap: square"/>
   </g>
   <g id="patch_5">
    <path d="M 49.463438 395.28 
L 440.063437 395.28 
" style="fill: none; stroke: #000000; stroke-width: 0.8; stroke-linejoin: miter; stroke-linecap: square"/>
   </g>
   <g id="patch_6">
    <path d="M 49.463438 7.2 
L 440.063437 7.2 
" style="fill: none; stroke: #000000; stroke-width: 0.8; stroke-linejoin: miter; stroke-linecap: square"/>
   </g>
   <g id="legend_1">
    <g id="patch_7">
     <path d="M 324.63375 88.717188 
L 433.063438 88.717188 
Q 435.063438 88.717188 435.063438 86.717188 
L 435.063438 14.2 
Q 435.063438 12.2 433.063438 12.2 
L 324.63375 12.2 
Q 322.63375 12.2 322.63375 14.2 
L 322.63375 86.717188 
Q 322.63375 88.717188 324.63375 88.717188 
z
" style="fill: #ffffff; opacity: 0.8; stroke: #cccccc; stroke-linejoin: miter"/>
    </g>
    <g id="PathCollection_6">
     <g>
      <use xlink:href="#mf2b716d3f9" x="336.63375" y="21.173438" style="fill: #1f77b4; stroke: #1f77b4"/>
     </g>
    </g>
    <g id="text_15">
     <!-- Злість -->
     <g transform="translate(354.63375 23.798438) scale(0.1 -0.1)">
      <defs>
       <path id="DejaVuSans-Bold-417" d="M 3163 2516 
Q 3634 2394 3879 2092 
Q 4125 1791 4125 1325 
Q 4125 631 3594 270 
Q 3063 -91 1950 -91 
Q 1491 -91 1125 -31 
Q 759 28 422 141 
L 422 1069 
Q 759 900 1092 814 
Q 1425 728 1903 728 
Q 2413 728 2667 893 
Q 2922 1059 2922 1369 
Q 2922 1688 2661 1852 
Q 2400 2016 1797 2016 
L 1222 2016 
L 1222 2791 
L 1822 2791 
Q 2369 2791 2591 2933 
Q 2813 3075 2813 3366 
Q 2813 3634 2597 3781 
Q 2381 3928 1956 3928 
Q 1513 3928 1128 3851 
Q 744 3775 528 3669 
L 528 4550 
Q 738 4622 1198 4686 
Q 1659 4750 1953 4750 
Q 2975 4750 3495 4451 
Q 4016 4153 4016 3553 
Q 4016 3144 3800 2883 
Q 3584 2622 3163 2516 
z
" transform="scale(0.015625)"/>
       <path id="DejaVuSans-Bold-43b" d="M 353 0 
L 353 800 
Q 906 913 1031 1278 
Q 1125 1556 1125 2928 
L 1125 3500 
L 4150 3500 
L 4150 0 
L 3031 0 
L 3031 2700 
L 2244 2700 
L 2244 2584 
Q 2244 1213 2028 813 
Q 1591 0 353 0 
z
" transform="scale(0.015625)"/>
       <path id="DejaVuSans-Bold-456" d="M 538 3500 
L 1656 3500 
L 1656 0 
L 538 0 
L 538 3500 
z
M 538 4863 
L 1656 4863 
L 1656 3950 
L 538 3950 
L 538 4863 
z
" transform="scale(0.015625)"/>
       <path id="DejaVuSans-Bold-441" d="M 3366 3391 
L 3366 2478 
Q 3138 2634 2908 2709 
Q 2678 2784 2431 2784 
Q 1963 2784 1702 2511 
Q 1441 2238 1441 1747 
Q 1441 1256 1702 982 
Q 1963 709 2431 709 
Q 2694 709 2930 787 
Q 3166 866 3366 1019 
L 3366 103 
Q 3103 6 2833 -42 
Q 2563 -91 2291 -91 
Q 1344 -91 809 395 
Q 275 881 275 1747 
Q 275 2613 809 3098 
Q 1344 3584 2291 3584 
Q 2566 3584 2833 3536 
Q 3100 3488 3366 3391 
z
" transform="scale(0.015625)"/>
       <path id="DejaVuSans-Bold-442" d="M 25 3500 
L 3681 3500 
L 3681 2809 
L 2413 2809 
L 2413 0 
L 1297 0 
L 1297 2809 
L 25 2809 
L 25 3500 
z
" transform="scale(0.015625)"/>
       <path id="DejaVuSans-Bold-44c" d="M 2719 1094 
Q 2719 1291 2594 1388 
Q 2472 1481 2222 1481 
L 1656 1481 
L 1656 700 
L 2222 700 
Q 2469 700 2594 800 
Q 2719 897 2719 1094 
z
M 538 3500 
L 1656 3500 
L 1656 2172 
L 2291 2172 
Q 3000 2172 3381 1913 
Q 3766 1650 3766 1081 
Q 3766 513 3381 256 
Q 3000 0 2291 0 
L 538 0 
L 538 3500 
z
" transform="scale(0.015625)"/>
      </defs>
      <use xlink:href="#DejaVuSans-Bold-417"/>
      <use xlink:href="#DejaVuSans-Bold-43b" x="71.044922"/>
      <use xlink:href="#DejaVuSans-Bold-456" x="144.287109"/>
      <use xlink:href="#DejaVuSans-Bold-441" x="178.564453"/>
      <use xlink:href="#DejaVuSans-Bold-442" x="237.841797"/>
      <use xlink:href="#DejaVuSans-Bold-44c" x="295.800781"/>
     </g>
    </g>
    <g id="PathCollection_7">
     <g>
      <use xlink:href="#m234e87e2ca" x="336.63375" y="35.851563" style="fill: #2ca02c; stroke: #2ca02c; stroke-width: 1.5"/>
     </g>
    </g>
    <g id="text_16">
     <!-- Страх -->
     <g transform="translate(354.63375 38.476563) scale(0.1 -0.1)">
      <defs>
       <path id="DejaVuSans-Bold-421" d="M 4288 256 
Q 3956 84 3597 -3 
Q 3238 -91 2847 -91 
Q 1681 -91 1000 561 
Q 319 1213 319 2328 
Q 319 3447 1000 4098 
Q 1681 4750 2847 4750 
Q 3238 4750 3597 4662 
Q 3956 4575 4288 4403 
L 4288 3438 
Q 3953 3666 3628 3772 
Q 3303 3878 2944 3878 
Q 2300 3878 1931 3465 
Q 1563 3053 1563 2328 
Q 1563 1606 1931 1193 
Q 2300 781 2944 781 
Q 3303 781 3628 887 
Q 3953 994 4288 1222 
L 4288 256 
z
" transform="scale(0.015625)"/>
       <path id="DejaVuSans-Bold-440" d="M 1656 506 
L 1656 -1331 
L 538 -1331 
L 538 3500 
L 1656 3500 
L 1656 2988 
Q 1888 3294 2169 3439 
Q 2450 3584 2816 3584 
Q 3463 3584 3878 3070 
Q 4294 2556 4294 1747 
Q 4294 938 3878 423 
Q 3463 -91 2816 -91 
Q 2450 -91 2169 54 
Q 1888 200 1656 506 
z
M 2400 2772 
Q 2041 2772 1848 2508 
Q 1656 2244 1656 1747 
Q 1656 1250 1848 986 
Q 2041 722 2400 722 
Q 2759 722 2948 984 
Q 3138 1247 3138 1747 
Q 3138 2247 2948 2509 
Q 2759 2772 2400 2772 
z
" transform="scale(0.015625)"/>
       <path id="DejaVuSans-Bold-430" d="M 2106 1575 
Q 1756 1575 1579 1456 
Q 1403 1338 1403 1106 
Q 1403 894 1545 773 
Q 1688 653 1941 653 
Q 2256 653 2472 879 
Q 2688 1106 2688 1447 
L 2688 1575 
L 2106 1575 
z
M 3816 1997 
L 3816 0 
L 2688 0 
L 2688 519 
Q 2463 200 2181 54 
Q 1900 -91 1497 -91 
Q 953 -91 614 226 
Q 275 544 275 1050 
Q 275 1666 698 1953 
Q 1122 2241 2028 2241 
L 2688 2241 
L 2688 2328 
Q 2688 2594 2478 2717 
Q 2269 2841 1825 2841 
Q 1466 2841 1156 2769 
Q 847 2697 581 2553 
L 581 3406 
Q 941 3494 1303 3539 
Q 1666 3584 2028 3584 
Q 2975 3584 3395 3211 
Q 3816 2838 3816 1997 
z
" transform="scale(0.015625)"/>
       <path id="DejaVuSans-Bold-445" d="M 1422 1791 
L 159 3500 
L 1344 3500 
L 2059 2463 
L 2784 3500 
L 3969 3500 
L 2706 1797 
L 4031 0 
L 2847 0 
L 2059 1106 
L 1281 0 
L 97 0 
L 1422 1791 
z
" transform="scale(0.015625)"/>
      </defs>
      <use xlink:href="#DejaVuSans-Bold-421"/>
      <use xlink:href="#DejaVuSans-Bold-442" x="73.388672"/>
      <use xlink:href="#DejaVuSans-Bold-440" x="131.347656"/>
      <use xlink:href="#DejaVuSans-Bold-430" x="202.929688"/>
      <use xlink:href="#DejaVuSans-Bold-445" x="270.410156"/>
     </g>
    </g>
    <g id="PathCollection_8">
     <g>
      <use xlink:href="#md820f7be16" x="336.63375" y="50.529688" style="fill: #d62728; stroke: #d62728"/>
     </g>
    </g>
    <g id="text_17">
     <!-- Радість -->
     <g transform="translate(354.63375 53.154688) scale(0.1 -0.1)">
      <defs>
       <path id="DejaVuSans-Bold-420" d="M 588 4666 
L 2584 4666 
Q 3475 4666 3951 4270 
Q 4428 3875 4428 3144 
Q 4428 2409 3951 2014 
Q 3475 1619 2584 1619 
L 1791 1619 
L 1791 0 
L 588 0 
L 588 4666 
z
M 1791 3794 
L 1791 2491 
L 2456 2491 
Q 2806 2491 2997 2661 
Q 3188 2831 3188 3144 
Q 3188 3456 2997 3625 
Q 2806 3794 2456 3794 
L 1791 3794 
z
" transform="scale(0.015625)"/>
       <path id="DejaVuSans-Bold-434" d="M 547 800 
Q 903 919 1053 1314 
Q 1203 1709 1203 2838 
L 1203 3500 
L 4228 3500 
L 4228 800 
L 4809 800 
L 4809 -884 
L 4009 -884 
L 4009 0 
L 1159 0 
L 1159 -884 
L 359 -884 
L 359 800 
L 547 800 
z
M 3109 2700 
L 2322 2700 
L 2322 2603 
Q 2322 1456 2063 800 
L 3109 800 
L 3109 2700 
z
" transform="scale(0.015625)"/>
      </defs>
      <use xlink:href="#DejaVuSans-Bold-420"/>
      <use xlink:href="#DejaVuSans-Bold-430" x="73.291016"/>
      <use xlink:href="#DejaVuSans-Bold-434" x="140.771484"/>
      <use xlink:href="#DejaVuSans-Bold-456" x="221.533203"/>
      <use xlink:href="#DejaVuSans-Bold-441" x="255.810547"/>
      <use xlink:href="#DejaVuSans-Bold-442" x="315.087891"/>
      <use xlink:href="#DejaVuSans-Bold-44c" x="373.046875"/>
     </g>
    </g>
    <g id="PathCollection_9">
     <g>
      <use xlink:href="#mc1ea8f41bf" x="336.63375" y="65.25625" style="fill: #17becf; stroke: #17becf"/>
     </g>
    </g>
    <g id="text_18">
     <!-- Нейтральний -->
     <g transform="translate(354.63375 67.88125) scale(0.1 -0.1)">
      <defs>
       <path id="DejaVuSans-Bold-41d" d="M 588 4666 
L 1791 4666 
L 1791 2888 
L 3566 2888 
L 3566 4666 
L 4769 4666 
L 4769 0 
L 3566 0 
L 3566 1978 
L 1791 1978 
L 1791 0 
L 588 0 
L 588 4666 
z
" transform="scale(0.015625)"/>
       <path id="DejaVuSans-Bold-435" d="M 4031 1759 
L 4031 1441 
L 1416 1441 
Q 1456 1047 1700 850 
Q 1944 653 2381 653 
Q 2734 653 3104 758 
Q 3475 863 3866 1075 
L 3866 213 
Q 3469 63 3072 -14 
Q 2675 -91 2278 -91 
Q 1328 -91 801 392 
Q 275 875 275 1747 
Q 275 2603 792 3093 
Q 1309 3584 2216 3584 
Q 3041 3584 3536 3087 
Q 4031 2591 4031 1759 
z
M 2881 2131 
Q 2881 2450 2695 2645 
Q 2509 2841 2209 2841 
Q 1884 2841 1681 2658 
Q 1478 2475 1428 2131 
L 2881 2131 
z
" transform="scale(0.015625)"/>
       <path id="DejaVuSans-Bold-439" d="M 3947 3500 
L 3947 0 
L 2828 0 
L 2828 1863 
L 1700 0 
L 538 0 
L 538 3500 
L 1656 3500 
L 1656 1638 
L 2784 3500 
L 3947 3500 
z
M 1194 4894 
L 1641 4894 
Q 1675 4675 1829 4559 
Q 1984 4444 2244 4444 
Q 2503 4444 2658 4559 
Q 2813 4675 2847 4894 
L 3294 4894 
Q 3275 4444 3003 4205 
Q 2731 3966 2244 3966 
Q 1756 3966 1484 4205 
Q 1213 4444 1194 4894 
z
" transform="scale(0.015625)"/>
       <path id="DejaVuSans-Bold-43d" d="M 538 3500 
L 1656 3500 
L 1656 2169 
L 2766 2169 
L 2766 3500 
L 3884 3500 
L 3884 0 
L 2766 0 
L 2766 1478 
L 1656 1478 
L 1656 0 
L 538 0 
L 538 3500 
z
" transform="scale(0.015625)"/>
       <path id="DejaVuSans-Bold-438" d="M 3947 3500 
L 3947 0 
L 2828 0 
L 2828 1863 
L 1700 0 
L 538 0 
L 538 3500 
L 1656 3500 
L 1656 1638 
L 2784 3500 
L 3947 3500 
z
" transform="scale(0.015625)"/>
      </defs>
      <use xlink:href="#DejaVuSans-Bold-41d"/>
      <use xlink:href="#DejaVuSans-Bold-435" x="83.691406"/>
      <use xlink:href="#DejaVuSans-Bold-439" x="151.513672"/>
      <use xlink:href="#DejaVuSans-Bold-442" x="221.582031"/>
      <use xlink:href="#DejaVuSans-Bold-440" x="279.541016"/>
      <use xlink:href="#DejaVuSans-Bold-430" x="351.123047"/>
      <use xlink:href="#DejaVuSans-Bold-43b" x="418.603516"/>
      <use xlink:href="#DejaVuSans-Bold-44c" x="491.845703"/>
      <use xlink:href="#DejaVuSans-Bold-43d" x="555.078125"/>
      <use xlink:href="#DejaVuSans-Bold-438" x="624.169922"/>
      <use xlink:href="#DejaVuSans-Bold-439" x="694.238281"/>
     </g>
    </g>
    <g id="PathCollection_10">
     <g>
      <use xlink:href="#m04f14ccdba" x="336.63375" y="79.934375" style="fill: #ff7f0e; stroke: #ff7f0e"/>
     </g>
    </g>
    <g id="text_19">
     <!-- Сум -->
     <g transform="translate(354.63375 82.559375) scale(0.1 -0.1)">
      <defs>
       <path id="DejaVuSans-Bold-443" d="M 78 3500 
L 1197 3500 
L 2138 1125 
L 2938 3500 
L 4056 3500 
L 2584 -331 
Q 2363 -916 2067 -1148 
Q 1772 -1381 1288 -1381 
L 641 -1381 
L 641 -647 
L 991 -647 
Q 1275 -647 1404 -556 
Q 1534 -466 1606 -231 
L 1638 -134 
L 78 3500 
z
" transform="scale(0.015625)"/>
       <path id="DejaVuSans-Bold-43c" d="M 538 3500 
L 1825 3500 
L 2613 1750 
L 3400 3500 
L 4691 3500 
L 4691 0 
L 3575 0 
L 3575 1984 
L 2984 672 
L 2250 672 
L 1656 1984 
L 1656 0 
L 538 0 
L 538 3500 
z
" transform="scale(0.015625)"/>
      </defs>
      <use xlink:href="#DejaVuSans-Bold-421"/>
      <use xlink:href="#DejaVuSans-Bold-443" x="73.388672"/>
      <use xlink:href="#DejaVuSans-Bold-43c" x="138.574219"/>
     </g>
    </g>
   </g>
  </g>
 </g>
 <defs>
  <clipPath id="p07f710e693">
   <rect x="49.463437" y="7.2" width="390.6" height="388.08"/>
  </clipPath>
 </defs>
</svg>
