<?xml version="1.0" encoding="utf-8" standalone="no"?>
<!DOCTYPE svg PUBLIC "-//W3C//DTD SVG 1.1//EN"
  "http://www.w3.org/Graphics/SVG/1.1/DTD/svg11.dtd">
<svg xmlns:xlink="http://www.w3.org/1999/xlink" width="432.432813pt" height="348.498763pt" viewBox="0 0 432.432813 348.498763" xmlns="http://www.w3.org/2000/svg" version="1.1">
 <metadata>
  <rdf:RDF xmlns:dc="http://purl.org/dc/elements/1.1/" xmlns:cc="http://creativecommons.org/ns#" xmlns:rdf="http://www.w3.org/1999/02/22-rdf-syntax-ns#">
   <cc:Work>
    <dc:type rdf:resource="http://purl.org/dc/dcmitype/StillImage"/>
    <dc:date>2025-11-12T12:23:28.965575</dc:date>
    <dc:format>image/svg+xml</dc:format>
    <dc:creator>
     <cc:Agent>
      <dc:title>Matplotlib v3.10.5, https://matplotlib.org/</dc:title>
     </cc:Agent>
    </dc:creator>
   </cc:Work>
  </rdf:RDF>
 </metadata>
 <defs>
  <style type="text/css">*{stroke-linejoin: round; stroke-linecap: butt}</style>
 </defs>
 <g id="figure_1">
  <g id="patch_1">
   <path d="M 0 348.498763 
L 432.432813 348.498763 
L 432.432813 -0 
L 0 -0 
z
" style="fill: #ffffff"/>
  </g>
  <g id="axes_1">
   <g id="patch_2">
    <path d="M 56.952813 251.141813 
L 425.232813 251.141813 
L 425.232813 23.837812 
L 56.952813 23.837812 
z
" style="fill: #ffffff"/>
   </g>
   <g id="matplotlib.axis_1">
    <g id="xtick_1">
     <g id="line2d_1">
      <defs>
       <path id="m91debaa950" d="M 0 0 
L 0 3.5 
" style="stroke: #000000"/>
      </defs>
      <g>
       <use xlink:href="#m91debaa950" x="117.092813" y="251.141813" style="stroke: #000000"/>
      </g>
     </g>
     <g id="text_1">
      <!-- Thermal-only -->
      <g transform="translate(38.590252 291.359716) rotate(-18) scale(0.11 -0.11)">
       <defs>
        <path id="DejaVuSans-Bold-54" d="M 31 4666 
L 4331 4666 
L 4331 3756 
L 2784 3756 
L 2784 0 
L 1581 0 
L 1581 3756 
L 31 3756 
L 31 4666 
z
" transform="scale(0.015625)"/>
        <path id="DejaVuSans-Bold-68" d="M 4056 2131 
L 4056 0 
L 2931 0 
L 2931 347 
L 2931 1625 
Q 2931 2084 2911 2256 
Q 2891 2428 2841 2509 
Q 2775 2619 2662 2680 
Q 2550 2741 2406 2741 
Q 2056 2741 1856 2470 
Q 1656 2200 1656 1722 
L 1656 0 
L 538 0 
L 538 4863 
L 1656 4863 
L 1656 2988 
Q 1909 3294 2193 3439 
Q 2478 3584 2822 3584 
Q 3428 3584 3742 3212 
Q 4056 2841 4056 2131 
z
" transform="scale(0.015625)"/>
        <path id="DejaVuSans-Bold-65" d="M 4031 1759 
L 4031 1441 
L 1416 1441 
Q 1456 1047 1700 850 
Q 1944 653 2381 653 
Q 2734 653 3104 758 
Q 3475 863 3866 1075 
L 3866 213 
Q 3469 63 3072 -14 
Q 2675 -91 2278 -91 
Q 1328 -91 801 392 
Q 275 875 275 1747 
Q 275 2603 792 3093 
Q 1309 3584 2216 3584 
Q 3041 3584 3536 3087 
Q 4031 2591 4031 1759 
z
M 2881 2131 
Q 2881 2450 2695 2645 
Q 2509 2841 2209 2841 
Q 1884 2841 1681 2658 
Q 1478 2475 1428 2131 
L 2881 2131 
z
" transform="scale(0.015625)"/>
        <path id="DejaVuSans-Bold-72" d="M 3138 2547 
Q 2991 2616 2845 2648 
Q 2700 2681 2553 2681 
Q 2122 2681 1889 2404 
Q 1656 2128 1656 1613 
L 1656 0 
L 538 0 
L 538 3500 
L 1656 3500 
L 1656 2925 
Q 1872 3269 2151 3426 
Q 2431 3584 2822 3584 
Q 2878 3584 2943 3579 
Q 3009 3575 3134 3559 
L 3138 2547 
z
" transform="scale(0.015625)"/>
        <path id="DejaVuSans-Bold-6d" d="M 3781 2919 
Q 3994 3244 4286 3414 
Q 4578 3584 4928 3584 
Q 5531 3584 5847 3212 
Q 6163 2841 6163 2131 
L 6163 0 
L 5038 0 
L 5038 1825 
Q 5041 1866 5042 1909 
Q 5044 1953 5044 2034 
Q 5044 2406 4934 2573 
Q 4825 2741 4581 2741 
Q 4263 2741 4089 2478 
Q 3916 2216 3909 1719 
L 3909 0 
L 2784 0 
L 2784 1825 
Q 2784 2406 2684 2573 
Q 2584 2741 2328 2741 
Q 2006 2741 1831 2477 
Q 1656 2213 1656 1722 
L 1656 0 
L 531 0 
L 531 3500 
L 1656 3500 
L 1656 2988 
Q 1863 3284 2130 3434 
Q 2397 3584 2719 3584 
Q 3081 3584 3359 3409 
Q 3638 3234 3781 2919 
z
" transform="scale(0.015625)"/>
        <path id="DejaVuSans-Bold-61" d="M 2106 1575 
Q 1756 1575 1579 1456 
Q 1403 1338 1403 1106 
Q 1403 894 1545 773 
Q 1688 653 1941 653 
Q 2256 653 2472 879 
Q 2688 1106 2688 1447 
L 2688 1575 
L 2106 1575 
z
M 3816 1997 
L 3816 0 
L 2688 0 
L 2688 519 
Q 2463 200 2181 54 
Q 1900 -91 1497 -91 
Q 953 -91 614 226 
Q 275 544 275 1050 
Q 275 1666 698 1953 
Q 1122 2241 2028 2241 
L 2688 2241 
L 2688 2328 
Q 2688 2594 2478 2717 
Q 2269 2841 1825 2841 
Q 1466 2841 1156 2769 
Q 847 2697 581 2553 
L 581 3406 
Q 941 3494 1303 3539 
Q 1666 3584 2028 3584 
Q 2975 3584 3395 3211 
Q 3816 2838 3816 1997 
z
" transform="scale(0.015625)"/>
        <path id="DejaVuSans-Bold-6c" d="M 538 4863 
L 1656 4863 
L 1656 0 
L 538 0 
L 538 4863 
z
" transform="scale(0.015625)"/>
        <path id="DejaVuSans-Bold-2d" d="M 347 2297 
L 2309 2297 
L 2309 1388 
L 347 1388 
L 347 2297 
z
" transform="scale(0.015625)"/>
        <path id="DejaVuSans-Bold-6f" d="M 2203 2784 
Q 1831 2784 1636 2517 
Q 1441 2250 1441 1747 
Q 1441 1244 1636 976 
Q 1831 709 2203 709 
Q 2569 709 2762 976 
Q 2956 1244 2956 1747 
Q 2956 2250 2762 2517 
Q 2569 2784 2203 2784 
z
M 2203 3584 
Q 3106 3584 3614 3096 
Q 4122 2609 4122 1747 
Q 4122 884 3614 396 
Q 3106 -91 2203 -91 
Q 1297 -91 786 396 
Q 275 884 275 1747 
Q 275 2609 786 3096 
Q 1297 3584 2203 3584 
z
" transform="scale(0.015625)"/>
        <path id="DejaVuSans-Bold-6e" d="M 4056 2131 
L 4056 0 
L 2931 0 
L 2931 347 
L 2931 1631 
Q 2931 2084 2911 2256 
Q 2891 2428 2841 2509 
Q 2775 2619 2662 2680 
Q 2550 2741 2406 2741 
Q 2056 2741 1856 2470 
Q 1656 2200 1656 1722 
L 1656 0 
L 538 0 
L 538 3500 
L 1656 3500 
L 1656 2988 
Q 1909 3294 2193 3439 
Q 2478 3584 2822 3584 
Q 3428 3584 3742 3212 
Q 4056 2841 4056 2131 
z
" transform="scale(0.015625)"/>
        <path id="DejaVuSans-Bold-79" d="M 78 3500 
L 1197 3500 
L 2138 1125 
L 2938 3500 
L 4056 3500 
L 2584 -331 
Q 2363 -916 2067 -1148 
Q 1772 -1381 1288 -1381 
L 641 -1381 
L 641 -647 
L 991 -647 
Q 1275 -647 1404 -556 
Q 1534 -466 1606 -231 
L 1638 -134 
L 78 3500 
z
" transform="scale(0.015625)"/>
       </defs>
       <use xlink:href="#DejaVuSans-Bold-54"/>
       <use xlink:href="#DejaVuSans-Bold-68" transform="translate(68.212891 0)"/>
       <use xlink:href="#DejaVuSans-Bold-65" transform="translate(139.404297 0)"/>
       <use xlink:href="#DejaVuSans-Bold-72" transform="translate(207.226562 0)"/>
       <use xlink:href="#DejaVuSans-Bold-6d" transform="translate(256.542969 0)"/>
       <use xlink:href="#DejaVuSans-Bold-61" transform="translate(360.742188 0)"/>
       <use xlink:href="#DejaVuSans-Bold-6c" transform="translate(428.222656 0)"/>
       <use xlink:href="#DejaVuSans-Bold-2d" transform="translate(462.5 0)"/>
       <use xlink:href="#DejaVuSans-Bold-6f" transform="translate(504.003906 0)"/>
       <use xlink:href="#DejaVuSans-Bold-6e" transform="translate(572.705078 0)"/>
       <use xlink:href="#DejaVuSans-Bold-6c" transform="translate(643.896484 0)"/>
       <use xlink:href="#DejaVuSans-Bold-79" transform="translate(678.173828 0)"/>
      </g>
     </g>
    </g>
    <g id="xtick_2">
     <g id="line2d_2">
      <g>
       <use xlink:href="#m91debaa950" x="241.092813" y="251.141813" style="stroke: #000000"/>
      </g>
     </g>
     <g id="text_2">
      <!-- RGB-only -->
      <g transform="translate(186.361018 283.636126) rotate(-18) scale(0.11 -0.11)">
       <defs>
        <path id="DejaVuSans-Bold-52" d="M 2297 2597 
Q 2675 2597 2839 2737 
Q 3003 2878 3003 3200 
Q 3003 3519 2839 3656 
Q 2675 3794 2297 3794 
L 1791 3794 
L 1791 2597 
L 2297 2597 
z
M 1791 1766 
L 1791 0 
L 588 0 
L 588 4666 
L 2425 4666 
Q 3347 4666 3776 4356 
Q 4206 4047 4206 3378 
Q 4206 2916 3982 2619 
Q 3759 2322 3309 2181 
Q 3556 2125 3751 1926 
Q 3947 1728 4147 1325 
L 4800 0 
L 3519 0 
L 2950 1159 
Q 2778 1509 2601 1637 
Q 2425 1766 2131 1766 
L 1791 1766 
z
" transform="scale(0.015625)"/>
        <path id="DejaVuSans-Bold-47" d="M 4781 347 
Q 4331 128 3847 18 
Q 3363 -91 2847 -91 
Q 1681 -91 1000 561 
Q 319 1213 319 2328 
Q 319 3456 1012 4103 
Q 1706 4750 2913 4750 
Q 3378 4750 3804 4662 
Q 4231 4575 4609 4403 
L 4609 3438 
Q 4219 3659 3833 3768 
Q 3447 3878 3059 3878 
Q 2341 3878 1952 3476 
Q 1563 3075 1563 2328 
Q 1563 1588 1938 1184 
Q 2313 781 3003 781 
Q 3191 781 3352 804 
Q 3513 828 3641 878 
L 3641 1784 
L 2906 1784 
L 2906 2591 
L 4781 2591 
L 4781 347 
z
" transform="scale(0.015625)"/>
        <path id="DejaVuSans-Bold-42" d="M 2456 2859 
Q 2741 2859 2887 2984 
Q 3034 3109 3034 3353 
Q 3034 3594 2887 3720 
Q 2741 3847 2456 3847 
L 1791 3847 
L 1791 2859 
L 2456 2859 
z
M 2497 819 
Q 2859 819 3042 972 
Q 3225 1125 3225 1434 
Q 3225 1738 3044 1889 
Q 2863 2041 2497 2041 
L 1791 2041 
L 1791 819 
L 2497 819 
z
M 3616 2497 
Q 4003 2384 4215 2081 
Q 4428 1778 4428 1338 
Q 4428 663 3972 331 
Q 3516 0 2584 0 
L 588 0 
L 588 4666 
L 2394 4666 
Q 3366 4666 3802 4372 
Q 4238 4078 4238 3431 
Q 4238 3091 4078 2852 
Q 3919 2613 3616 2497 
z
" transform="scale(0.015625)"/>
       </defs>
       <use xlink:href="#DejaVuSans-Bold-52"/>
       <use xlink:href="#DejaVuSans-Bold-47" transform="translate(77.001953 0)"/>
       <use xlink:href="#DejaVuSans-Bold-42" transform="translate(159.082031 0)"/>
       <use xlink:href="#DejaVuSans-Bold-2d" transform="translate(235.302734 0)"/>
       <use xlink:href="#DejaVuSans-Bold-6f" transform="translate(276.806641 0)"/>
       <use xlink:href="#DejaVuSans-Bold-6e" transform="translate(345.507812 0)"/>
       <use xlink:href="#DejaVuSans-Bold-6c" transform="translate(416.699219 0)"/>
       <use xlink:href="#DejaVuSans-Bold-79" transform="translate(450.976562 0)"/>
      </g>
     </g>
    </g>
    <g id="xtick_3">
     <g id="line2d_3">
      <g>
       <use xlink:href="#m91debaa950" x="365.092813" y="251.141813" style="stroke: #000000"/>
      </g>
     </g>
     <g id="text_3">
      <!-- Ours (T+RGB, multi-palette, ra+ddup) -->
      <g transform="translate(139.616311 339.123073) rotate(-18) scale(0.11 -0.11)">
       <defs>
        <path id="DejaVuSans-Bold-4f" d="M 2719 3878 
Q 2169 3878 1866 3472 
Q 1563 3066 1563 2328 
Q 1563 1594 1866 1187 
Q 2169 781 2719 781 
Q 3272 781 3575 1187 
Q 3878 1594 3878 2328 
Q 3878 3066 3575 3472 
Q 3272 3878 2719 3878 
z
M 2719 4750 
Q 3844 4750 4481 4106 
Q 5119 3463 5119 2328 
Q 5119 1197 4481 553 
Q 3844 -91 2719 -91 
Q 1597 -91 958 553 
Q 319 1197 319 2328 
Q 319 3463 958 4106 
Q 1597 4750 2719 4750 
z
" transform="scale(0.015625)"/>
        <path id="DejaVuSans-Bold-75" d="M 500 1363 
L 500 3500 
L 1625 3500 
L 1625 3150 
Q 1625 2866 1622 2436 
Q 1619 2006 1619 1863 
Q 1619 1441 1641 1255 
Q 1663 1069 1716 984 
Q 1784 875 1895 815 
Q 2006 756 2150 756 
Q 2500 756 2700 1025 
Q 2900 1294 2900 1772 
L 2900 3500 
L 4019 3500 
L 4019 0 
L 2900 0 
L 2900 506 
Q 2647 200 2364 54 
Q 2081 -91 1741 -91 
Q 1134 -91 817 281 
Q 500 653 500 1363 
z
" transform="scale(0.015625)"/>
        <path id="DejaVuSans-Bold-73" d="M 3272 3391 
L 3272 2541 
Q 2913 2691 2578 2766 
Q 2244 2841 1947 2841 
Q 1628 2841 1473 2761 
Q 1319 2681 1319 2516 
Q 1319 2381 1436 2309 
Q 1553 2238 1856 2203 
L 2053 2175 
Q 2913 2066 3209 1816 
Q 3506 1566 3506 1031 
Q 3506 472 3093 190 
Q 2681 -91 1863 -91 
Q 1516 -91 1145 -36 
Q 775 19 384 128 
L 384 978 
Q 719 816 1070 734 
Q 1422 653 1784 653 
Q 2113 653 2278 743 
Q 2444 834 2444 1013 
Q 2444 1163 2330 1236 
Q 2216 1309 1875 1350 
L 1678 1375 
Q 931 1469 631 1722 
Q 331 1975 331 2491 
Q 331 3047 712 3315 
Q 1094 3584 1881 3584 
Q 2191 3584 2531 3537 
Q 2872 3491 3272 3391 
z
" transform="scale(0.015625)"/>
        <path id="DejaVuSans-Bold-20" transform="scale(0.015625)"/>
        <path id="DejaVuSans-Bold-28" d="M 2413 -844 
L 1484 -844 
Q 1006 -72 778 623 
Q 550 1319 550 2003 
Q 550 2688 779 3389 
Q 1009 4091 1484 4856 
L 2413 4856 
Q 2013 4116 1813 3408 
Q 1613 2700 1613 2009 
Q 1613 1319 1811 609 
Q 2009 -100 2413 -844 
z
" transform="scale(0.015625)"/>
        <path id="DejaVuSans-Bold-2b" d="M 3053 4013 
L 3053 2375 
L 4684 2375 
L 4684 1638 
L 3053 1638 
L 3053 0 
L 2309 0 
L 2309 1638 
L 678 1638 
L 678 2375 
L 2309 2375 
L 2309 4013 
L 3053 4013 
z
" transform="scale(0.015625)"/>
        <path id="DejaVuSans-Bold-2c" d="M 653 1209 
L 1778 1209 
L 1778 256 
L 1006 -909 
L 341 -909 
L 653 256 
L 653 1209 
z
" transform="scale(0.015625)"/>
        <path id="DejaVuSans-Bold-74" d="M 1759 4494 
L 1759 3500 
L 2913 3500 
L 2913 2700 
L 1759 2700 
L 1759 1216 
Q 1759 972 1856 886 
Q 1953 800 2241 800 
L 2816 800 
L 2816 0 
L 1856 0 
Q 1194 0 917 276 
Q 641 553 641 1216 
L 641 2700 
L 84 2700 
L 84 3500 
L 641 3500 
L 641 4494 
L 1759 4494 
z
" transform="scale(0.015625)"/>
        <path id="DejaVuSans-Bold-69" d="M 538 3500 
L 1656 3500 
L 1656 0 
L 538 0 
L 538 3500 
z
M 538 4863 
L 1656 4863 
L 1656 3950 
L 538 3950 
L 538 4863 
z
" transform="scale(0.015625)"/>
        <path id="DejaVuSans-Bold-70" d="M 1656 506 
L 1656 -1331 
L 538 -1331 
L 538 3500 
L 1656 3500 
L 1656 2988 
Q 1888 3294 2169 3439 
Q 2450 3584 2816 3584 
Q 3463 3584 3878 3070 
Q 4294 2556 4294 1747 
Q 4294 938 3878 423 
Q 3463 -91 2816 -91 
Q 2450 -91 2169 54 
Q 1888 200 1656 506 
z
M 2400 2772 
Q 2041 2772 1848 2508 
Q 1656 2244 1656 1747 
Q 1656 1250 1848 986 
Q 2041 722 2400 722 
Q 2759 722 2948 984 
Q 3138 1247 3138 1747 
Q 3138 2247 2948 2509 
Q 2759 2772 2400 2772 
z
" transform="scale(0.015625)"/>
        <path id="DejaVuSans-Bold-64" d="M 2919 2988 
L 2919 4863 
L 4044 4863 
L 4044 0 
L 2919 0 
L 2919 506 
Q 2688 197 2409 53 
Q 2131 -91 1766 -91 
Q 1119 -91 703 423 
Q 288 938 288 1747 
Q 288 2556 703 3070 
Q 1119 3584 1766 3584 
Q 2128 3584 2408 3439 
Q 2688 3294 2919 2988 
z
M 2181 722 
Q 2541 722 2730 984 
Q 2919 1247 2919 1747 
Q 2919 2247 2730 2509 
Q 2541 2772 2181 2772 
Q 1825 2772 1636 2509 
Q 1447 2247 1447 1747 
Q 1447 1247 1636 984 
Q 1825 722 2181 722 
z
" transform="scale(0.015625)"/>
        <path id="DejaVuSans-Bold-29" d="M 513 -844 
Q 913 -100 1113 609 
Q 1313 1319 1313 2009 
Q 1313 2700 1113 3408 
Q 913 4116 513 4856 
L 1441 4856 
Q 1916 4091 2145 3389 
Q 2375 2688 2375 2003 
Q 2375 1319 2147 623 
Q 1919 -72 1441 -844 
L 513 -844 
z
" transform="scale(0.015625)"/>
       </defs>
       <use xlink:href="#DejaVuSans-Bold-4f"/>
       <use xlink:href="#DejaVuSans-Bold-75" transform="translate(85.009766 0)"/>
       <use xlink:href="#DejaVuSans-Bold-72" transform="translate(156.201172 0)"/>
       <use xlink:href="#DejaVuSans-Bold-73" transform="translate(205.517578 0)"/>
       <use xlink:href="#DejaVuSans-Bold-20" transform="translate(265.039062 0)"/>
       <use xlink:href="#DejaVuSans-Bold-28" transform="translate(299.853516 0)"/>
       <use xlink:href="#DejaVuSans-Bold-54" transform="translate(345.556641 0)"/>
       <use xlink:href="#DejaVuSans-Bold-2b" transform="translate(413.769531 0)"/>
       <use xlink:href="#DejaVuSans-Bold-52" transform="translate(497.558594 0)"/>
       <use xlink:href="#DejaVuSans-Bold-47" transform="translate(574.560547 0)"/>
       <use xlink:href="#DejaVuSans-Bold-42" transform="translate(656.640625 0)"/>
       <use xlink:href="#DejaVuSans-Bold-2c" transform="translate(732.861328 0)"/>
       <use xlink:href="#DejaVuSans-Bold-20" transform="translate(770.849609 0)"/>
       <use xlink:href="#DejaVuSans-Bold-6d" transform="translate(805.664062 0)"/>
       <use xlink:href="#DejaVuSans-Bold-75" transform="translate(909.863281 0)"/>
       <use xlink:href="#DejaVuSans-Bold-6c" transform="translate(981.054688 0)"/>
       <use xlink:href="#DejaVuSans-Bold-74" transform="translate(1015.332031 0)"/>
       <use xlink:href="#DejaVuSans-Bold-69" transform="translate(1063.134766 0)"/>
       <use xlink:href="#DejaVuSans-Bold-2d" transform="translate(1097.412109 0)"/>
       <use xlink:href="#DejaVuSans-Bold-70" transform="translate(1138.916016 0)"/>
       <use xlink:href="#DejaVuSans-Bold-61" transform="translate(1210.498047 0)"/>
       <use xlink:href="#DejaVuSans-Bold-6c" transform="translate(1277.978516 0)"/>
       <use xlink:href="#DejaVuSans-Bold-65" transform="translate(1312.255859 0)"/>
       <use xlink:href="#DejaVuSans-Bold-74" transform="translate(1380.078125 0)"/>
       <use xlink:href="#DejaVuSans-Bold-74" transform="translate(1427.880859 0)"/>
       <use xlink:href="#DejaVuSans-Bold-65" transform="translate(1475.683594 0)"/>
       <use xlink:href="#DejaVuSans-Bold-2c" transform="translate(1543.505859 0)"/>
       <use xlink:href="#DejaVuSans-Bold-20" transform="translate(1581.494141 0)"/>
       <use xlink:href="#DejaVuSans-Bold-72" transform="translate(1616.308594 0)"/>
       <use xlink:href="#DejaVuSans-Bold-61" transform="translate(1665.625 0)"/>
       <use xlink:href="#DejaVuSans-Bold-2b" transform="translate(1733.105469 0)"/>
       <use xlink:href="#DejaVuSans-Bold-64" transform="translate(1816.894531 0)"/>
       <use xlink:href="#DejaVuSans-Bold-64" transform="translate(1888.476562 0)"/>
       <use xlink:href="#DejaVuSans-Bold-75" transform="translate(1960.058594 0)"/>
       <use xlink:href="#DejaVuSans-Bold-70" transform="translate(2031.25 0)"/>
       <use xlink:href="#DejaVuSans-Bold-29" transform="translate(2102.832031 0)"/>
      </g>
     </g>
    </g>
   </g>
   <g id="matplotlib.axis_2">
    <g id="ytick_1">
     <g id="line2d_4">
      <path d="M 56.952813 251.141813 
L 425.232813 251.141813 
" clip-path="url(#pb4f44eba0f)" style="fill: none; stroke: #bfbfbf; stroke-opacity: 0.6; stroke-width: 0.85; stroke-linecap: square"/>
     </g>
     <g id="line2d_5">
      <defs>
       <path id="m76e0fefe60" d="M 0 0 
L -3.5 0 
" style="stroke: #000000"/>
      </defs>
      <g>
       <use xlink:href="#m76e0fefe60" x="56.952813" y="251.141813" style="stroke: #000000"/>
      </g>
     </g>
     <g id="text_4">
      <!-- 0.00 -->
      <g transform="translate(22.81375 255.320953) scale(0.11 -0.11)">
       <defs>
        <path id="DejaVuSans-Bold-30" d="M 2944 2338 
Q 2944 3213 2780 3570 
Q 2616 3928 2228 3928 
Q 1841 3928 1675 3570 
Q 1509 3213 1509 2338 
Q 1509 1453 1675 1090 
Q 1841 728 2228 728 
Q 2613 728 2778 1090 
Q 2944 1453 2944 2338 
z
M 4147 2328 
Q 4147 1169 3647 539 
Q 3147 -91 2228 -91 
Q 1306 -91 806 539 
Q 306 1169 306 2328 
Q 306 3491 806 4120 
Q 1306 4750 2228 4750 
Q 3147 4750 3647 4120 
Q 4147 3491 4147 2328 
z
" transform="scale(0.015625)"/>
        <path id="DejaVuSans-Bold-2e" d="M 653 1209 
L 1778 1209 
L 1778 0 
L 653 0 
L 653 1209 
z
" transform="scale(0.015625)"/>
       </defs>
       <use xlink:href="#DejaVuSans-Bold-30"/>
       <use xlink:href="#DejaVuSans-Bold-2e" transform="translate(69.580078 0)"/>
       <use xlink:href="#DejaVuSans-Bold-30" transform="translate(107.568359 0)"/>
       <use xlink:href="#DejaVuSans-Bold-30" transform="translate(177.148438 0)"/>
      </g>
     </g>
    </g>
    <g id="ytick_2">
     <g id="line2d_6">
      <path d="M 56.952813 203.786812 
L 425.232813 203.786812 
" clip-path="url(#pb4f44eba0f)" style="fill: none; stroke: #bfbfbf; stroke-opacity: 0.6; stroke-width: 0.85; stroke-linecap: square"/>
     </g>
     <g id="line2d_7">
      <g>
       <use xlink:href="#m76e0fefe60" x="56.952813" y="203.786812" style="stroke: #000000"/>
      </g>
     </g>
     <g id="text_5">
      <!-- 0.05 -->
      <g transform="translate(22.81375 207.965953) scale(0.11 -0.11)">
       <defs>
        <path id="DejaVuSans-Bold-35" d="M 678 4666 
L 3669 4666 
L 3669 3781 
L 1638 3781 
L 1638 3059 
Q 1775 3097 1914 3117 
Q 2053 3138 2203 3138 
Q 3056 3138 3531 2711 
Q 4006 2284 4006 1522 
Q 4006 766 3489 337 
Q 2972 -91 2053 -91 
Q 1656 -91 1267 -14 
Q 878 63 494 219 
L 494 1166 
Q 875 947 1217 837 
Q 1559 728 1863 728 
Q 2300 728 2551 942 
Q 2803 1156 2803 1522 
Q 2803 1891 2551 2103 
Q 2300 2316 1863 2316 
Q 1603 2316 1309 2248 
Q 1016 2181 678 2041 
L 678 4666 
z
" transform="scale(0.015625)"/>
       </defs>
       <use xlink:href="#DejaVuSans-Bold-30"/>
       <use xlink:href="#DejaVuSans-Bold-2e" transform="translate(69.580078 0)"/>
       <use xlink:href="#DejaVuSans-Bold-30" transform="translate(107.568359 0)"/>
       <use xlink:href="#DejaVuSans-Bold-35" transform="translate(177.148438 0)"/>
      </g>
     </g>
    </g>
    <g id="ytick_3">
     <g id="line2d_8">
      <path d="M 56.952813 156.431812 
L 425.232813 156.431812 
" clip-path="url(#pb4f44eba0f)" style="fill: none; stroke: #bfbfbf; stroke-opacity: 0.6; stroke-width: 0.85; stroke-linecap: square"/>
     </g>
     <g id="line2d_9">
      <g>
       <use xlink:href="#m76e0fefe60" x="56.952813" y="156.431812" style="stroke: #000000"/>
      </g>
     </g>
     <g id="text_6">
      <!-- 0.10 -->
      <g transform="translate(22.81375 160.610953) scale(0.11 -0.11)">
       <defs>
        <path id="DejaVuSans-Bold-31" d="M 750 831 
L 1813 831 
L 1813 3847 
L 722 3622 
L 722 4441 
L 1806 4666 
L 2950 4666 
L 2950 831 
L 4013 831 
L 4013 0 
L 750 0 
L 750 831 
z
" transform="scale(0.015625)"/>
       </defs>
       <use xlink:href="#DejaVuSans-Bold-30"/>
       <use xlink:href="#DejaVuSans-Bold-2e" transform="translate(69.580078 0)"/>
       <use xlink:href="#DejaVuSans-Bold-31" transform="translate(107.568359 0)"/>
       <use xlink:href="#DejaVuSans-Bold-30" transform="translate(177.148438 0)"/>
      </g>
     </g>
    </g>
    <g id="ytick_4">
     <g id="line2d_10">
      <path d="M 56.952813 109.076812 
L 425.232813 109.076812 
" clip-path="url(#pb4f44eba0f)" style="fill: none; stroke: #bfbfbf; stroke-opacity: 0.6; stroke-width: 0.85; stroke-linecap: square"/>
     </g>
     <g id="line2d_11">
      <g>
       <use xlink:href="#m76e0fefe60" x="56.952813" y="109.076812" style="stroke: #000000"/>
      </g>
     </g>
     <g id="text_7">
      <!-- 0.15 -->
      <g transform="translate(22.81375 113.255953) scale(0.11 -0.11)">
       <use xlink:href="#DejaVuSans-Bold-30"/>
       <use xlink:href="#DejaVuSans-Bold-2e" transform="translate(69.580078 0)"/>
       <use xlink:href="#DejaVuSans-Bold-31" transform="translate(107.568359 0)"/>
       <use xlink:href="#DejaVuSans-Bold-35" transform="translate(177.148438 0)"/>
      </g>
     </g>
    </g>
    <g id="ytick_5">
     <g id="line2d_12">
      <path d="M 56.952813 61.721812 
L 425.232813 61.721812 
" clip-path="url(#pb4f44eba0f)" style="fill: none; stroke: #bfbfbf; stroke-opacity: 0.6; stroke-width: 0.85; stroke-linecap: square"/>
     </g>
     <g id="line2d_13">
      <g>
       <use xlink:href="#m76e0fefe60" x="56.952813" y="61.721812" style="stroke: #000000"/>
      </g>
     </g>
     <g id="text_8">
      <!-- 0.20 -->
      <g transform="translate(22.81375 65.900953) scale(0.11 -0.11)">
       <defs>
        <path id="DejaVuSans-Bold-32" d="M 1844 884 
L 3897 884 
L 3897 0 
L 506 0 
L 506 884 
L 2209 2388 
Q 2438 2594 2547 2791 
Q 2656 2988 2656 3200 
Q 2656 3528 2436 3728 
Q 2216 3928 1850 3928 
Q 1569 3928 1234 3808 
Q 900 3688 519 3450 
L 519 4475 
Q 925 4609 1322 4679 
Q 1719 4750 2100 4750 
Q 2938 4750 3402 4381 
Q 3866 4013 3866 3353 
Q 3866 2972 3669 2642 
Q 3472 2313 2841 1759 
L 1844 884 
z
" transform="scale(0.015625)"/>
       </defs>
       <use xlink:href="#DejaVuSans-Bold-30"/>
       <use xlink:href="#DejaVuSans-Bold-2e" transform="translate(69.580078 0)"/>
       <use xlink:href="#DejaVuSans-Bold-32" transform="translate(107.568359 0)"/>
       <use xlink:href="#DejaVuSans-Bold-30" transform="translate(177.148438 0)"/>
      </g>
     </g>
    </g>
    <g id="text_9">
     <!-- Fraction of predictions -->
     <g transform="translate(16.318125 214.119188) rotate(-90) scale(0.12 -0.12)">
      <defs>
       <path id="DejaVuSans-Bold-46" d="M 588 4666 
L 3834 4666 
L 3834 3756 
L 1791 3756 
L 1791 2888 
L 3713 2888 
L 3713 1978 
L 1791 1978 
L 1791 0 
L 588 0 
L 588 4666 
z
" transform="scale(0.015625)"/>
       <path id="DejaVuSans-Bold-63" d="M 3366 3391 
L 3366 2478 
Q 3138 2634 2908 2709 
Q 2678 2784 2431 2784 
Q 1963 2784 1702 2511 
Q 1441 2238 1441 1747 
Q 1441 1256 1702 982 
Q 1963 709 2431 709 
Q 2694 709 2930 787 
Q 3166 866 3366 1019 
L 3366 103 
Q 3103 6 2833 -42 
Q 2563 -91 2291 -91 
Q 1344 -91 809 395 
Q 275 881 275 1747 
Q 275 2613 809 3098 
Q 1344 3584 2291 3584 
Q 2566 3584 2833 3536 
Q 3100 3488 3366 3391 
z
" transform="scale(0.015625)"/>
       <path id="DejaVuSans-Bold-66" d="M 2841 4863 
L 2841 4128 
L 2222 4128 
Q 1984 4128 1890 4042 
Q 1797 3956 1797 3744 
L 1797 3500 
L 2753 3500 
L 2753 2700 
L 1797 2700 
L 1797 0 
L 678 0 
L 678 2700 
L 122 2700 
L 122 3500 
L 678 3500 
L 678 3744 
Q 678 4316 997 4589 
Q 1316 4863 1984 4863 
L 2841 4863 
z
" transform="scale(0.015625)"/>
      </defs>
      <use xlink:href="#DejaVuSans-Bold-46"/>
      <use xlink:href="#DejaVuSans-Bold-72" transform="translate(61.935547 0)"/>
      <use xlink:href="#DejaVuSans-Bold-61" transform="translate(111.251953 0)"/>
      <use xlink:href="#DejaVuSans-Bold-63" transform="translate(178.732422 0)"/>
      <use xlink:href="#DejaVuSans-Bold-74" transform="translate(238.009766 0)"/>
      <use xlink:href="#DejaVuSans-Bold-69" transform="translate(285.8125 0)"/>
      <use xlink:href="#DejaVuSans-Bold-6f" transform="translate(320.089844 0)"/>
      <use xlink:href="#DejaVuSans-Bold-6e" transform="translate(388.791016 0)"/>
      <use xlink:href="#DejaVuSans-Bold-20" transform="translate(459.982422 0)"/>
      <use xlink:href="#DejaVuSans-Bold-6f" transform="translate(494.796875 0)"/>
      <use xlink:href="#DejaVuSans-Bold-66" transform="translate(563.498047 0)"/>
      <use xlink:href="#DejaVuSans-Bold-20" transform="translate(607.003906 0)"/>
      <use xlink:href="#DejaVuSans-Bold-70" transform="translate(641.818359 0)"/>
      <use xlink:href="#DejaVuSans-Bold-72" transform="translate(713.400391 0)"/>
      <use xlink:href="#DejaVuSans-Bold-65" transform="translate(762.716797 0)"/>
      <use xlink:href="#DejaVuSans-Bold-64" transform="translate(830.539062 0)"/>
      <use xlink:href="#DejaVuSans-Bold-69" transform="translate(902.121094 0)"/>
      <use xlink:href="#DejaVuSans-Bold-63" transform="translate(936.398438 0)"/>
      <use xlink:href="#DejaVuSans-Bold-74" transform="translate(995.675781 0)"/>
      <use xlink:href="#DejaVuSans-Bold-69" transform="translate(1043.478516 0)"/>
      <use xlink:href="#DejaVuSans-Bold-6f" transform="translate(1077.755859 0)"/>
      <use xlink:href="#DejaVuSans-Bold-6e" transform="translate(1146.457031 0)"/>
      <use xlink:href="#DejaVuSans-Bold-73" transform="translate(1217.648438 0)"/>
     </g>
    </g>
   </g>
   <g id="patch_3">
    <path d="M 73.692813 251.141813 
L 117.092813 251.141813 
L 117.092813 61.721812 
L 73.692813 61.721812 
z
" clip-path="url(#pb4f44eba0f)" style="fill: #8c564b; stroke: #404040; stroke-width: 0.9; stroke-linejoin: miter"/>
   </g>
   <g id="patch_4">
    <path d="M 197.692813 251.141813 
L 241.092813 251.141813 
L 241.092813 80.663812 
L 197.692813 80.663812 
z
" clip-path="url(#pb4f44eba0f)" style="fill: #8c564b; stroke: #404040; stroke-width: 0.9; stroke-linejoin: miter"/>
   </g>
   <g id="patch_5">
    <path d="M 321.692813 251.141813 
L 365.092813 251.141813 
L 365.092813 90.134812 
L 321.692813 90.134812 
z
" clip-path="url(#pb4f44eba0f)" style="fill: #8c564b; stroke: #404040; stroke-width: 0.9; stroke-linejoin: miter"/>
   </g>
   <g id="patch_6">
    <path d="M 117.092813 251.141813 
L 160.492813 251.141813 
L 160.492813 194.315812 
L 117.092813 194.315812 
z
" clip-path="url(#pb4f44eba0f)" style="fill: #e377c2; stroke: #404040; stroke-width: 0.9; stroke-linejoin: miter"/>
   </g>
   <g id="patch_7">
    <path d="M 241.092813 251.141813 
L 284.492813 251.141813 
L 284.492813 184.844812 
L 241.092813 184.844812 
z
" clip-path="url(#pb4f44eba0f)" style="fill: #e377c2; stroke: #404040; stroke-width: 0.9; stroke-linejoin: miter"/>
   </g>
   <g id="patch_8">
    <path d="M 365.092813 251.141813 
L 408.492813 251.141813 
L 408.492813 203.786812 
L 365.092813 203.786812 
z
" clip-path="url(#pb4f44eba0f)" style="fill: #e377c2; stroke: #404040; stroke-width: 0.9; stroke-linejoin: miter"/>
   </g>
   <g id="patch_9">
    <path d="M 56.952813 251.141813 
L 56.952813 23.837812 
" style="fill: none; stroke: #595959; stroke-width: 1.05; stroke-linejoin: miter; stroke-linecap: square"/>
   </g>
   <g id="patch_10">
    <path d="M 425.232813 251.141813 
L 425.232813 23.837812 
" style="fill: none; stroke: #595959; stroke-width: 1.05; stroke-linejoin: miter; stroke-linecap: square"/>
   </g>
   <g id="patch_11">
    <path d="M 56.952813 251.141813 
L 425.232813 251.141813 
" style="fill: none; stroke: #595959; stroke-width: 1.05; stroke-linejoin: miter; stroke-linecap: square"/>
   </g>
   <g id="patch_12">
    <path d="M 56.952813 23.837812 
L 425.232813 23.837812 
" style="fill: none; stroke: #595959; stroke-width: 1.05; stroke-linejoin: miter; stroke-linecap: square"/>
   </g>
   <g id="text_10">
    <!-- STHS-277: Duplicate false positives -->
    <g transform="translate(100.489063 17.837812) scale(0.14 -0.14)">
     <defs>
      <path id="DejaVuSans-Bold-53" d="M 3834 4519 
L 3834 3531 
Q 3450 3703 3084 3790 
Q 2719 3878 2394 3878 
Q 1963 3878 1756 3759 
Q 1550 3641 1550 3391 
Q 1550 3203 1689 3098 
Q 1828 2994 2194 2919 
L 2706 2816 
Q 3484 2659 3812 2340 
Q 4141 2022 4141 1434 
Q 4141 663 3683 286 
Q 3225 -91 2284 -91 
Q 1841 -91 1394 -6 
Q 947 78 500 244 
L 500 1259 
Q 947 1022 1364 901 
Q 1781 781 2169 781 
Q 2563 781 2772 912 
Q 2981 1044 2981 1288 
Q 2981 1506 2839 1625 
Q 2697 1744 2272 1838 
L 1806 1941 
Q 1106 2091 782 2419 
Q 459 2747 459 3303 
Q 459 4000 909 4375 
Q 1359 4750 2203 4750 
Q 2588 4750 2994 4692 
Q 3400 4634 3834 4519 
z
" transform="scale(0.015625)"/>
      <path id="DejaVuSans-Bold-48" d="M 588 4666 
L 1791 4666 
L 1791 2888 
L 3566 2888 
L 3566 4666 
L 4769 4666 
L 4769 0 
L 3566 0 
L 3566 1978 
L 1791 1978 
L 1791 0 
L 588 0 
L 588 4666 
z
" transform="scale(0.015625)"/>
      <path id="DejaVuSans-Bold-37" d="M 428 4666 
L 3944 4666 
L 3944 3988 
L 2125 0 
L 953 0 
L 2675 3781 
L 428 3781 
L 428 4666 
z
" transform="scale(0.015625)"/>
      <path id="DejaVuSans-Bold-3a" d="M 716 3500 
L 1844 3500 
L 1844 2291 
L 716 2291 
L 716 3500 
z
M 716 1209 
L 1844 1209 
L 1844 0 
L 716 0 
L 716 1209 
z
" transform="scale(0.015625)"/>
      <path id="DejaVuSans-Bold-44" d="M 1791 3756 
L 1791 909 
L 2222 909 
Q 2959 909 3348 1275 
Q 3738 1641 3738 2338 
Q 3738 3031 3350 3393 
Q 2963 3756 2222 3756 
L 1791 3756 
z
M 588 4666 
L 1856 4666 
Q 2919 4666 3439 4514 
Q 3959 4363 4331 4000 
Q 4659 3684 4818 3271 
Q 4978 2859 4978 2338 
Q 4978 1809 4818 1395 
Q 4659 981 4331 666 
Q 3956 303 3431 151 
Q 2906 0 1856 0 
L 588 0 
L 588 4666 
z
" transform="scale(0.015625)"/>
      <path id="DejaVuSans-Bold-76" d="M 97 3500 
L 1216 3500 
L 2088 1081 
L 2956 3500 
L 4078 3500 
L 2700 0 
L 1472 0 
L 97 3500 
z
" transform="scale(0.015625)"/>
     </defs>
     <use xlink:href="#DejaVuSans-Bold-53"/>
     <use xlink:href="#DejaVuSans-Bold-54" transform="translate(72.021484 0)"/>
     <use xlink:href="#DejaVuSans-Bold-48" transform="translate(140.234375 0)"/>
     <use xlink:href="#DejaVuSans-Bold-53" transform="translate(223.925781 0)"/>
     <use xlink:href="#DejaVuSans-Bold-2d" transform="translate(295.947266 0)"/>
     <use xlink:href="#DejaVuSans-Bold-32" transform="translate(337.451172 0)"/>
     <use xlink:href="#DejaVuSans-Bold-37" transform="translate(407.03125 0)"/>
     <use xlink:href="#DejaVuSans-Bold-37" transform="translate(476.611328 0)"/>
     <use xlink:href="#DejaVuSans-Bold-3a" transform="translate(546.191406 0)"/>
     <use xlink:href="#DejaVuSans-Bold-20" transform="translate(586.181641 0)"/>
     <use xlink:href="#DejaVuSans-Bold-44" transform="translate(620.996094 0)"/>
     <use xlink:href="#DejaVuSans-Bold-75" transform="translate(704.003906 0)"/>
     <use xlink:href="#DejaVuSans-Bold-70" transform="translate(775.195312 0)"/>
     <use xlink:href="#DejaVuSans-Bold-6c" transform="translate(846.777344 0)"/>
     <use xlink:href="#DejaVuSans-Bold-69" transform="translate(881.054688 0)"/>
     <use xlink:href="#DejaVuSans-Bold-63" transform="translate(915.332031 0)"/>
     <use xlink:href="#DejaVuSans-Bold-61" transform="translate(974.609375 0)"/>
     <use xlink:href="#DejaVuSans-Bold-74" transform="translate(1042.089844 0)"/>
     <use xlink:href="#DejaVuSans-Bold-65" transform="translate(1089.892578 0)"/>
     <use xlink:href="#DejaVuSans-Bold-20" transform="translate(1157.714844 0)"/>
     <use xlink:href="#DejaVuSans-Bold-66" transform="translate(1192.529297 0)"/>
     <use xlink:href="#DejaVuSans-Bold-61" transform="translate(1236.035156 0)"/>
     <use xlink:href="#DejaVuSans-Bold-6c" transform="translate(1303.515625 0)"/>
     <use xlink:href="#DejaVuSans-Bold-73" transform="translate(1337.792969 0)"/>
     <use xlink:href="#DejaVuSans-Bold-65" transform="translate(1397.314453 0)"/>
     <use xlink:href="#DejaVuSans-Bold-20" transform="translate(1465.136719 0)"/>
     <use xlink:href="#DejaVuSans-Bold-70" transform="translate(1499.951172 0)"/>
     <use xlink:href="#DejaVuSans-Bold-6f" transform="translate(1571.533203 0)"/>
     <use xlink:href="#DejaVuSans-Bold-73" transform="translate(1640.234375 0)"/>
     <use xlink:href="#DejaVuSans-Bold-69" transform="translate(1699.755859 0)"/>
     <use xlink:href="#DejaVuSans-Bold-74" transform="translate(1734.033203 0)"/>
     <use xlink:href="#DejaVuSans-Bold-69" transform="translate(1781.835938 0)"/>
     <use xlink:href="#DejaVuSans-Bold-76" transform="translate(1816.113281 0)"/>
     <use xlink:href="#DejaVuSans-Bold-65" transform="translate(1881.298828 0)"/>
     <use xlink:href="#DejaVuSans-Bold-73" transform="translate(1949.121094 0)"/>
    </g>
   </g>
   <g id="legend_1">
    <g id="patch_13">
     <path d="M 215.902656 66.899062 
L 416.832813 66.899062 
Q 419.232813 66.899062 419.232813 64.499062 
L 419.232813 32.237812 
Q 419.232813 29.837812 416.832813 29.837812 
L 215.902656 29.837812 
Q 213.502656 29.837812 213.502656 32.237812 
L 213.502656 64.499062 
Q 213.502656 66.899062 215.902656 66.899062 
z
" style="fill: #ffffff; opacity: 0.92; stroke: #adadad; stroke-width: 0.85; stroke-linejoin: miter"/>
    </g>
    <g id="patch_14">
     <path d="M 218.302656 43.037812 
L 242.302656 43.037812 
L 242.302656 34.637812 
L 218.302656 34.637812 
z
" style="fill: #8c564b; stroke: #404040; stroke-width: 0.9; stroke-linejoin: miter"/>
    </g>
    <g id="text_11">
     <!-- Duplicate FP (raw) -->
     <g transform="translate(251.902656 43.037812) scale(0.11 -0.11)">
      <defs>
       <path id="DejaVuSans-Bold-50" d="M 588 4666 
L 2584 4666 
Q 3475 4666 3951 4270 
Q 4428 3875 4428 3144 
Q 4428 2409 3951 2014 
Q 3475 1619 2584 1619 
L 1791 1619 
L 1791 0 
L 588 0 
L 588 4666 
z
M 1791 3794 
L 1791 2491 
L 2456 2491 
Q 2806 2491 2997 2661 
Q 3188 2831 3188 3144 
Q 3188 3456 2997 3625 
Q 2806 3794 2456 3794 
L 1791 3794 
z
" transform="scale(0.015625)"/>
       <path id="DejaVuSans-Bold-77" d="M 225 3500 
L 1313 3500 
L 1900 1088 
L 2491 3500 
L 3425 3500 
L 4013 1113 
L 4603 3500 
L 5691 3500 
L 4769 0 
L 3547 0 
L 2956 2406 
L 2369 0 
L 1147 0 
L 225 3500 
z
" transform="scale(0.015625)"/>
      </defs>
      <use xlink:href="#DejaVuSans-Bold-44"/>
      <use xlink:href="#DejaVuSans-Bold-75" transform="translate(83.007812 0)"/>
      <use xlink:href="#DejaVuSans-Bold-70" transform="translate(154.199219 0)"/>
      <use xlink:href="#DejaVuSans-Bold-6c" transform="translate(225.78125 0)"/>
      <use xlink:href="#DejaVuSans-Bold-69" transform="translate(260.058594 0)"/>
      <use xlink:href="#DejaVuSans-Bold-63" transform="translate(294.335938 0)"/>
      <use xlink:href="#DejaVuSans-Bold-61" transform="translate(353.613281 0)"/>
      <use xlink:href="#DejaVuSans-Bold-74" transform="translate(421.09375 0)"/>
      <use xlink:href="#DejaVuSans-Bold-65" transform="translate(468.896484 0)"/>
      <use xlink:href="#DejaVuSans-Bold-20" transform="translate(536.71875 0)"/>
      <use xlink:href="#DejaVuSans-Bold-46" transform="translate(571.533203 0)"/>
      <use xlink:href="#DejaVuSans-Bold-50" transform="translate(639.84375 0)"/>
      <use xlink:href="#DejaVuSans-Bold-20" transform="translate(713.134766 0)"/>
      <use xlink:href="#DejaVuSans-Bold-28" transform="translate(747.949219 0)"/>
      <use xlink:href="#DejaVuSans-Bold-72" transform="translate(793.652344 0)"/>
      <use xlink:href="#DejaVuSans-Bold-61" transform="translate(842.96875 0)"/>
      <use xlink:href="#DejaVuSans-Bold-77" transform="translate(910.449219 0)"/>
      <use xlink:href="#DejaVuSans-Bold-29" transform="translate(1002.832031 0)"/>
     </g>
    </g>
    <g id="patch_15">
     <path d="M 218.302656 59.725469 
L 242.302656 59.725469 
L 242.302656 51.325469 
L 218.302656 51.325469 
z
" style="fill: #e377c2; stroke: #404040; stroke-width: 0.9; stroke-linejoin: miter"/>
    </g>
    <g id="text_12">
     <!-- Duplicate FP (geo de-dup) -->
     <g transform="translate(251.902656 59.725469) scale(0.11 -0.11)">
      <defs>
       <path id="DejaVuSans-Bold-67" d="M 2919 594 
Q 2688 288 2409 144 
Q 2131 0 1766 0 
Q 1125 0 706 504 
Q 288 1009 288 1791 
Q 288 2575 706 3076 
Q 1125 3578 1766 3578 
Q 2131 3578 2409 3434 
Q 2688 3291 2919 2981 
L 2919 3500 
L 4044 3500 
L 4044 353 
Q 4044 -491 3511 -936 
Q 2978 -1381 1966 -1381 
Q 1638 -1381 1331 -1331 
Q 1025 -1281 716 -1178 
L 716 -306 
Q 1009 -475 1290 -558 
Q 1572 -641 1856 -641 
Q 2406 -641 2662 -400 
Q 2919 -159 2919 353 
L 2919 594 
z
M 2181 2772 
Q 1834 2772 1640 2515 
Q 1447 2259 1447 1791 
Q 1447 1309 1634 1061 
Q 1822 813 2181 813 
Q 2531 813 2725 1069 
Q 2919 1325 2919 1791 
Q 2919 2259 2725 2515 
Q 2531 2772 2181 2772 
z
" transform="scale(0.015625)"/>
      </defs>
      <use xlink:href="#DejaVuSans-Bold-44"/>
      <use xlink:href="#DejaVuSans-Bold-75" transform="translate(83.007812 0)"/>
      <use xlink:href="#DejaVuSans-Bold-70" transform="translate(154.199219 0)"/>
      <use xlink:href="#DejaVuSans-Bold-6c" transform="translate(225.78125 0)"/>
      <use xlink:href="#DejaVuSans-Bold-69" transform="translate(260.058594 0)"/>
      <use xlink:href="#DejaVuSans-Bold-63" transform="translate(294.335938 0)"/>
      <use xlink:href="#DejaVuSans-Bold-61" transform="translate(353.613281 0)"/>
      <use xlink:href="#DejaVuSans-Bold-74" transform="translate(421.09375 0)"/>
      <use xlink:href="#DejaVuSans-Bold-65" transform="translate(468.896484 0)"/>
      <use xlink:href="#DejaVuSans-Bold-20" transform="translate(536.71875 0)"/>
      <use xlink:href="#DejaVuSans-Bold-46" transform="translate(571.533203 0)"/>
      <use xlink:href="#DejaVuSans-Bold-50" transform="translate(639.84375 0)"/>
      <use xlink:href="#DejaVuSans-Bold-20" transform="translate(713.134766 0)"/>
      <use xlink:href="#DejaVuSans-Bold-28" transform="translate(747.949219 0)"/>
      <use xlink:href="#DejaVuSans-Bold-67" transform="translate(793.652344 0)"/>
      <use xlink:href="#DejaVuSans-Bold-65" transform="translate(865.234375 0)"/>
      <use xlink:href="#DejaVuSans-Bold-6f" transform="translate(933.056641 0)"/>
      <use xlink:href="#DejaVuSans-Bold-20" transform="translate(1001.757812 0)"/>
      <use xlink:href="#DejaVuSans-Bold-64" transform="translate(1036.572266 0)"/>
      <use xlink:href="#DejaVuSans-Bold-65" transform="translate(1108.154297 0)"/>
      <use xlink:href="#DejaVuSans-Bold-2d" transform="translate(1175.976562 0)"/>
      <use xlink:href="#DejaVuSans-Bold-64" transform="translate(1217.480469 0)"/>
      <use xlink:href="#DejaVuSans-Bold-75" transform="translate(1289.0625 0)"/>
      <use xlink:href="#DejaVuSans-Bold-70" transform="translate(1360.253906 0)"/>
      <use xlink:href="#DejaVuSans-Bold-29" transform="translate(1431.835938 0)"/>
     </g>
    </g>
   </g>
  </g>
 </g>
 <defs>
  <clipPath id="pb4f44eba0f">
   <rect x="56.952813" y="23.837812" width="368.28" height="227.304"/>
  </clipPath>
 </defs>
</svg>
