<?xml version="1.0" encoding="utf-8" standalone="no"?>
<!DOCTYPE svg PUBLIC "-//W3C//DTD SVG 1.1//EN"
  "http://www.w3.org/Graphics/SVG/1.1/DTD/svg11.dtd">
<svg xmlns:xlink="http://www.w3.org/1999/xlink" width="490.319687pt" height="307.030375pt" viewBox="0 0 490.319687 307.030375" xmlns="http://www.w3.org/2000/svg" version="1.1">
 <metadata>
  <rdf:RDF xmlns:dc="http://purl.org/dc/elements/1.1/" xmlns:cc="http://creativecommons.org/ns#" xmlns:rdf="http://www.w3.org/1999/02/22-rdf-syntax-ns#">
   <cc:Work>
    <dc:type rdf:resource="http://purl.org/dc/dcmitype/StillImage"/>
    <dc:date>2025-11-20T12:53:05.909386</dc:date>
    <dc:format>image/svg+xml</dc:format>
    <dc:creator>
     <cc:Agent>
      <dc:title>Matplotlib v3.10.5, https://matplotlib.org/</dc:title>
     </cc:Agent>
    </dc:creator>
   </cc:Work>
  </rdf:RDF>
 </metadata>
 <defs>
  <style type="text/css">*{stroke-linejoin: round; stroke-linecap: butt}</style>
 </defs>
 <g id="figure_1">
  <g id="patch_1">
   <path d="M 0 307.030375 
L 490.319687 307.030375 
L 490.319687 0 
L 0 0 
z
" style="fill: #ffffff"/>
  </g>
  <g id="axes_1">
   <g id="patch_2">
    <path d="M 59.039688 276.813187 
L 483.119687 276.813187 
L 483.119687 32.877187 
L 59.039688 32.877187 
z
" style="fill: #fdfdfb"/>
   </g>
   <g id="matplotlib.axis_1">
    <g id="xtick_1">
     <g id="line2d_1">
      <defs>
       <path id="m840ab3cd59" d="M 0 0 
L 0 5 
" style="stroke: #1f2937; stroke-width: 1.05"/>
      </defs>
      <g>
       <use xlink:href="#m840ab3cd59" x="85.492971" y="276.813187" style="fill: #1f2937; stroke: #1f2937; stroke-width: 1.05"/>
      </g>
     </g>
     <g id="text_1">
      <!-- C1 -->
      <g transform="translate(75.483986 296.710844) scale(0.15 -0.15)">
       <defs>
        <path id="DejaVuSans-43" d="M 4122 4306 
L 4122 3641 
Q 3803 3938 3442 4084 
Q 3081 4231 2675 4231 
Q 1875 4231 1450 3742 
Q 1025 3253 1025 2328 
Q 1025 1406 1450 917 
Q 1875 428 2675 428 
Q 3081 428 3442 575 
Q 3803 722 4122 1019 
L 4122 359 
Q 3791 134 3420 21 
Q 3050 -91 2638 -91 
Q 1578 -91 968 557 
Q 359 1206 359 2328 
Q 359 3453 968 4101 
Q 1578 4750 2638 4750 
Q 3056 4750 3426 4639 
Q 3797 4528 4122 4306 
z
" transform="scale(0.015625)"/>
        <path id="DejaVuSans-31" d="M 794 531 
L 1825 531 
L 1825 4091 
L 703 3866 
L 703 4441 
L 1819 4666 
L 2450 4666 
L 2450 531 
L 3481 531 
L 3481 0 
L 794 0 
L 794 531 
z
" transform="scale(0.015625)"/>
       </defs>
       <use xlink:href="#DejaVuSans-43"/>
       <use xlink:href="#DejaVuSans-31" transform="translate(69.824219 0)"/>
      </g>
     </g>
    </g>
    <g id="xtick_2">
     <g id="line2d_2">
      <g>
       <use xlink:href="#m840ab3cd59" x="126.734463" y="276.813187" style="fill: #1f2937; stroke: #1f2937; stroke-width: 1.05"/>
      </g>
     </g>
     <g id="text_2">
      <!-- C2 -->
      <g transform="translate(116.725479 296.710844) scale(0.15 -0.15)">
       <defs>
        <path id="DejaVuSans-32" d="M 1228 531 
L 3431 531 
L 3431 0 
L 469 0 
L 469 531 
Q 828 903 1448 1529 
Q 2069 2156 2228 2338 
Q 2531 2678 2651 2914 
Q 2772 3150 2772 3378 
Q 2772 3750 2511 3984 
Q 2250 4219 1831 4219 
Q 1534 4219 1204 4116 
Q 875 4013 500 3803 
L 500 4441 
Q 881 4594 1212 4672 
Q 1544 4750 1819 4750 
Q 2544 4750 2975 4387 
Q 3406 4025 3406 3419 
Q 3406 3131 3298 2873 
Q 3191 2616 2906 2266 
Q 2828 2175 2409 1742 
Q 1991 1309 1228 531 
z
" transform="scale(0.015625)"/>
       </defs>
       <use xlink:href="#DejaVuSans-43"/>
       <use xlink:href="#DejaVuSans-32" transform="translate(69.824219 0)"/>
      </g>
     </g>
    </g>
    <g id="xtick_3">
     <g id="line2d_3">
      <g>
       <use xlink:href="#m840ab3cd59" x="167.975956" y="276.813187" style="fill: #1f2937; stroke: #1f2937; stroke-width: 1.05"/>
      </g>
     </g>
     <g id="text_3">
      <!-- C3 -->
      <g transform="translate(157.966972 296.710844) scale(0.15 -0.15)">
       <defs>
        <path id="DejaVuSans-33" d="M 2597 2516 
Q 3050 2419 3304 2112 
Q 3559 1806 3559 1356 
Q 3559 666 3084 287 
Q 2609 -91 1734 -91 
Q 1441 -91 1130 -33 
Q 819 25 488 141 
L 488 750 
Q 750 597 1062 519 
Q 1375 441 1716 441 
Q 2309 441 2620 675 
Q 2931 909 2931 1356 
Q 2931 1769 2642 2001 
Q 2353 2234 1838 2234 
L 1294 2234 
L 1294 2753 
L 1863 2753 
Q 2328 2753 2575 2939 
Q 2822 3125 2822 3475 
Q 2822 3834 2567 4026 
Q 2313 4219 1838 4219 
Q 1578 4219 1281 4162 
Q 984 4106 628 3988 
L 628 4550 
Q 988 4650 1302 4700 
Q 1616 4750 1894 4750 
Q 2613 4750 3031 4423 
Q 3450 4097 3450 3541 
Q 3450 3153 3228 2886 
Q 3006 2619 2597 2516 
z
" transform="scale(0.015625)"/>
       </defs>
       <use xlink:href="#DejaVuSans-43"/>
       <use xlink:href="#DejaVuSans-33" transform="translate(69.824219 0)"/>
      </g>
     </g>
    </g>
    <g id="xtick_4">
     <g id="line2d_4">
      <g>
       <use xlink:href="#m840ab3cd59" x="209.217449" y="276.813187" style="fill: #1f2937; stroke: #1f2937; stroke-width: 1.05"/>
      </g>
     </g>
     <g id="text_4">
      <!-- C4 -->
      <g transform="translate(199.208464 296.710844) scale(0.15 -0.15)">
       <defs>
        <path id="DejaVuSans-34" d="M 2419 4116 
L 825 1625 
L 2419 1625 
L 2419 4116 
z
M 2253 4666 
L 3047 4666 
L 3047 1625 
L 3713 1625 
L 3713 1100 
L 3047 1100 
L 3047 0 
L 2419 0 
L 2419 1100 
L 313 1100 
L 313 1709 
L 2253 4666 
z
" transform="scale(0.015625)"/>
       </defs>
       <use xlink:href="#DejaVuSans-43"/>
       <use xlink:href="#DejaVuSans-34" transform="translate(69.824219 0)"/>
      </g>
     </g>
    </g>
    <g id="xtick_5">
     <g id="line2d_5">
      <g>
       <use xlink:href="#m840ab3cd59" x="250.458941" y="276.813187" style="fill: #1f2937; stroke: #1f2937; stroke-width: 1.05"/>
      </g>
     </g>
     <g id="text_5">
      <!-- C5 -->
      <g transform="translate(240.449957 296.710844) scale(0.15 -0.15)">
       <defs>
        <path id="DejaVuSans-35" d="M 691 4666 
L 3169 4666 
L 3169 4134 
L 1269 4134 
L 1269 2991 
Q 1406 3038 1543 3061 
Q 1681 3084 1819 3084 
Q 2600 3084 3056 2656 
Q 3513 2228 3513 1497 
Q 3513 744 3044 326 
Q 2575 -91 1722 -91 
Q 1428 -91 1123 -41 
Q 819 9 494 109 
L 494 744 
Q 775 591 1075 516 
Q 1375 441 1709 441 
Q 2250 441 2565 725 
Q 2881 1009 2881 1497 
Q 2881 1984 2565 2268 
Q 2250 2553 1709 2553 
Q 1456 2553 1204 2497 
Q 953 2441 691 2322 
L 691 4666 
z
" transform="scale(0.015625)"/>
       </defs>
       <use xlink:href="#DejaVuSans-43"/>
       <use xlink:href="#DejaVuSans-35" transform="translate(69.824219 0)"/>
      </g>
     </g>
    </g>
    <g id="xtick_6">
     <g id="line2d_6">
      <g>
       <use xlink:href="#m840ab3cd59" x="291.700434" y="276.813187" style="fill: #1f2937; stroke: #1f2937; stroke-width: 1.05"/>
      </g>
     </g>
     <g id="text_6">
      <!-- C6 -->
      <g transform="translate(281.691449 296.710844) scale(0.15 -0.15)">
       <defs>
        <path id="DejaVuSans-36" d="M 2113 2584 
Q 1688 2584 1439 2293 
Q 1191 2003 1191 1497 
Q 1191 994 1439 701 
Q 1688 409 2113 409 
Q 2538 409 2786 701 
Q 3034 994 3034 1497 
Q 3034 2003 2786 2293 
Q 2538 2584 2113 2584 
z
M 3366 4563 
L 3366 3988 
Q 3128 4100 2886 4159 
Q 2644 4219 2406 4219 
Q 1781 4219 1451 3797 
Q 1122 3375 1075 2522 
Q 1259 2794 1537 2939 
Q 1816 3084 2150 3084 
Q 2853 3084 3261 2657 
Q 3669 2231 3669 1497 
Q 3669 778 3244 343 
Q 2819 -91 2113 -91 
Q 1303 -91 875 529 
Q 447 1150 447 2328 
Q 447 3434 972 4092 
Q 1497 4750 2381 4750 
Q 2619 4750 2861 4703 
Q 3103 4656 3366 4563 
z
" transform="scale(0.015625)"/>
       </defs>
       <use xlink:href="#DejaVuSans-43"/>
       <use xlink:href="#DejaVuSans-36" transform="translate(69.824219 0)"/>
      </g>
     </g>
    </g>
    <g id="xtick_7">
     <g id="line2d_7">
      <g>
       <use xlink:href="#m840ab3cd59" x="332.941926" y="276.813187" style="fill: #1f2937; stroke: #1f2937; stroke-width: 1.05"/>
      </g>
     </g>
     <g id="text_7">
      <!-- C7 -->
      <g transform="translate(322.932942 296.710844) scale(0.15 -0.15)">
       <defs>
        <path id="DejaVuSans-37" d="M 525 4666 
L 3525 4666 
L 3525 4397 
L 1831 0 
L 1172 0 
L 2766 4134 
L 525 4134 
L 525 4666 
z
" transform="scale(0.015625)"/>
       </defs>
       <use xlink:href="#DejaVuSans-43"/>
       <use xlink:href="#DejaVuSans-37" transform="translate(69.824219 0)"/>
      </g>
     </g>
    </g>
    <g id="xtick_8">
     <g id="line2d_8">
      <g>
       <use xlink:href="#m840ab3cd59" x="374.183419" y="276.813187" style="fill: #1f2937; stroke: #1f2937; stroke-width: 1.05"/>
      </g>
     </g>
     <g id="text_8">
      <!-- C8 -->
      <g transform="translate(364.174435 296.710844) scale(0.15 -0.15)">
       <defs>
        <path id="DejaVuSans-38" d="M 2034 2216 
Q 1584 2216 1326 1975 
Q 1069 1734 1069 1313 
Q 1069 891 1326 650 
Q 1584 409 2034 409 
Q 2484 409 2743 651 
Q 3003 894 3003 1313 
Q 3003 1734 2745 1975 
Q 2488 2216 2034 2216 
z
M 1403 2484 
Q 997 2584 770 2862 
Q 544 3141 544 3541 
Q 544 4100 942 4425 
Q 1341 4750 2034 4750 
Q 2731 4750 3128 4425 
Q 3525 4100 3525 3541 
Q 3525 3141 3298 2862 
Q 3072 2584 2669 2484 
Q 3125 2378 3379 2068 
Q 3634 1759 3634 1313 
Q 3634 634 3220 271 
Q 2806 -91 2034 -91 
Q 1263 -91 848 271 
Q 434 634 434 1313 
Q 434 1759 690 2068 
Q 947 2378 1403 2484 
z
M 1172 3481 
Q 1172 3119 1398 2916 
Q 1625 2713 2034 2713 
Q 2441 2713 2670 2916 
Q 2900 3119 2900 3481 
Q 2900 3844 2670 4047 
Q 2441 4250 2034 4250 
Q 1625 4250 1398 4047 
Q 1172 3844 1172 3481 
z
" transform="scale(0.015625)"/>
       </defs>
       <use xlink:href="#DejaVuSans-43"/>
       <use xlink:href="#DejaVuSans-38" transform="translate(69.824219 0)"/>
      </g>
     </g>
    </g>
    <g id="xtick_9">
     <g id="line2d_9">
      <g>
       <use xlink:href="#m840ab3cd59" x="415.424912" y="276.813187" style="fill: #1f2937; stroke: #1f2937; stroke-width: 1.05"/>
      </g>
     </g>
     <g id="text_9">
      <!-- C9 -->
      <g transform="translate(405.415927 296.710844) scale(0.15 -0.15)">
       <defs>
        <path id="DejaVuSans-39" d="M 703 97 
L 703 672 
Q 941 559 1184 500 
Q 1428 441 1663 441 
Q 2288 441 2617 861 
Q 2947 1281 2994 2138 
Q 2813 1869 2534 1725 
Q 2256 1581 1919 1581 
Q 1219 1581 811 2004 
Q 403 2428 403 3163 
Q 403 3881 828 4315 
Q 1253 4750 1959 4750 
Q 2769 4750 3195 4129 
Q 3622 3509 3622 2328 
Q 3622 1225 3098 567 
Q 2575 -91 1691 -91 
Q 1453 -91 1209 -44 
Q 966 3 703 97 
z
M 1959 2075 
Q 2384 2075 2632 2365 
Q 2881 2656 2881 3163 
Q 2881 3666 2632 3958 
Q 2384 4250 1959 4250 
Q 1534 4250 1286 3958 
Q 1038 3666 1038 3163 
Q 1038 2656 1286 2365 
Q 1534 2075 1959 2075 
z
" transform="scale(0.015625)"/>
       </defs>
       <use xlink:href="#DejaVuSans-43"/>
       <use xlink:href="#DejaVuSans-39" transform="translate(69.824219 0)"/>
      </g>
     </g>
    </g>
    <g id="xtick_10">
     <g id="line2d_10">
      <g>
       <use xlink:href="#m840ab3cd59" x="456.666404" y="276.813187" style="fill: #1f2937; stroke: #1f2937; stroke-width: 1.05"/>
      </g>
     </g>
     <g id="text_10">
      <!-- C10 -->
      <g transform="translate(441.885545 296.710844) scale(0.15 -0.15)">
       <defs>
        <path id="DejaVuSans-30" d="M 2034 4250 
Q 1547 4250 1301 3770 
Q 1056 3291 1056 2328 
Q 1056 1369 1301 889 
Q 1547 409 2034 409 
Q 2525 409 2770 889 
Q 3016 1369 3016 2328 
Q 3016 3291 2770 3770 
Q 2525 4250 2034 4250 
z
M 2034 4750 
Q 2819 4750 3233 4129 
Q 3647 3509 3647 2328 
Q 3647 1150 3233 529 
Q 2819 -91 2034 -91 
Q 1250 -91 836 529 
Q 422 1150 422 2328 
Q 422 3509 836 4129 
Q 1250 4750 2034 4750 
z
" transform="scale(0.015625)"/>
       </defs>
       <use xlink:href="#DejaVuSans-43"/>
       <use xlink:href="#DejaVuSans-31" transform="translate(69.824219 0)"/>
       <use xlink:href="#DejaVuSans-30" transform="translate(133.447266 0)"/>
      </g>
     </g>
    </g>
   </g>
   <g id="matplotlib.axis_2">
    <g id="ytick_1">
     <g id="line2d_11">
      <path d="M 59.039688 276.813187 
L 483.119687 276.813187 
" clip-path="url(#p27116fc08c)" style="fill: none; stroke: #b7bfcc; stroke-opacity: 0.65; stroke-width: 0.95; stroke-linecap: square"/>
     </g>
     <g id="line2d_12">
      <defs>
       <path id="m4fc862ec51" d="M 0 0 
L -5 0 
" style="stroke: #1f2937; stroke-width: 1.05"/>
      </defs>
      <g>
       <use xlink:href="#m4fc862ec51" x="59.039688" y="276.813187" style="fill: #1f2937; stroke: #1f2937; stroke-width: 1.05"/>
      </g>
     </g>
     <g id="text_11">
      <!-- 0.0 -->
      <g transform="translate(26.685 282.512016) scale(0.15 -0.15)">
       <defs>
        <path id="DejaVuSans-2e" d="M 684 794 
L 1344 794 
L 1344 0 
L 684 0 
L 684 794 
z
" transform="scale(0.015625)"/>
       </defs>
       <use xlink:href="#DejaVuSans-30"/>
       <use xlink:href="#DejaVuSans-2e" transform="translate(63.623047 0)"/>
       <use xlink:href="#DejaVuSans-30" transform="translate(95.410156 0)"/>
      </g>
     </g>
    </g>
    <g id="ytick_2">
     <g id="line2d_13">
      <path d="M 59.039688 228.982599 
L 483.119687 228.982599 
" clip-path="url(#p27116fc08c)" style="fill: none; stroke: #b7bfcc; stroke-opacity: 0.65; stroke-width: 0.95; stroke-linecap: square"/>
     </g>
     <g id="line2d_14">
      <g>
       <use xlink:href="#m4fc862ec51" x="59.039688" y="228.982599" style="fill: #1f2937; stroke: #1f2937; stroke-width: 1.05"/>
      </g>
     </g>
     <g id="text_12">
      <!-- 0.2 -->
      <g transform="translate(26.685 234.681427) scale(0.15 -0.15)">
       <use xlink:href="#DejaVuSans-30"/>
       <use xlink:href="#DejaVuSans-2e" transform="translate(63.623047 0)"/>
       <use xlink:href="#DejaVuSans-32" transform="translate(95.410156 0)"/>
      </g>
     </g>
    </g>
    <g id="ytick_3">
     <g id="line2d_15">
      <path d="M 59.039688 181.152011 
L 483.119687 181.152011 
" clip-path="url(#p27116fc08c)" style="fill: none; stroke: #b7bfcc; stroke-opacity: 0.65; stroke-width: 0.95; stroke-linecap: square"/>
     </g>
     <g id="line2d_16">
      <g>
       <use xlink:href="#m4fc862ec51" x="59.039688" y="181.152011" style="fill: #1f2937; stroke: #1f2937; stroke-width: 1.05"/>
      </g>
     </g>
     <g id="text_13">
      <!-- 0.4 -->
      <g transform="translate(26.685 186.850839) scale(0.15 -0.15)">
       <use xlink:href="#DejaVuSans-30"/>
       <use xlink:href="#DejaVuSans-2e" transform="translate(63.623047 0)"/>
       <use xlink:href="#DejaVuSans-34" transform="translate(95.410156 0)"/>
      </g>
     </g>
    </g>
    <g id="ytick_4">
     <g id="line2d_17">
      <path d="M 59.039688 133.321423 
L 483.119687 133.321423 
" clip-path="url(#p27116fc08c)" style="fill: none; stroke: #b7bfcc; stroke-opacity: 0.65; stroke-width: 0.95; stroke-linecap: square"/>
     </g>
     <g id="line2d_18">
      <g>
       <use xlink:href="#m4fc862ec51" x="59.039688" y="133.321423" style="fill: #1f2937; stroke: #1f2937; stroke-width: 1.05"/>
      </g>
     </g>
     <g id="text_14">
      <!-- 0.6 -->
      <g transform="translate(26.685 139.020251) scale(0.15 -0.15)">
       <use xlink:href="#DejaVuSans-30"/>
       <use xlink:href="#DejaVuSans-2e" transform="translate(63.623047 0)"/>
       <use xlink:href="#DejaVuSans-36" transform="translate(95.410156 0)"/>
      </g>
     </g>
    </g>
    <g id="ytick_5">
     <g id="line2d_19">
      <path d="M 59.039688 85.490835 
L 483.119687 85.490835 
" clip-path="url(#p27116fc08c)" style="fill: none; stroke: #b7bfcc; stroke-opacity: 0.65; stroke-width: 0.95; stroke-linecap: square"/>
     </g>
     <g id="line2d_20">
      <g>
       <use xlink:href="#m4fc862ec51" x="59.039688" y="85.490835" style="fill: #1f2937; stroke: #1f2937; stroke-width: 1.05"/>
      </g>
     </g>
     <g id="text_15">
      <!-- 0.8 -->
      <g transform="translate(26.685 91.189663) scale(0.15 -0.15)">
       <use xlink:href="#DejaVuSans-30"/>
       <use xlink:href="#DejaVuSans-2e" transform="translate(63.623047 0)"/>
       <use xlink:href="#DejaVuSans-38" transform="translate(95.410156 0)"/>
      </g>
     </g>
    </g>
    <g id="ytick_6">
     <g id="line2d_21">
      <path d="M 59.039688 37.660246 
L 483.119687 37.660246 
" clip-path="url(#p27116fc08c)" style="fill: none; stroke: #b7bfcc; stroke-opacity: 0.65; stroke-width: 0.95; stroke-linecap: square"/>
     </g>
     <g id="line2d_22">
      <g>
       <use xlink:href="#m4fc862ec51" x="59.039688" y="37.660246" style="fill: #1f2937; stroke: #1f2937; stroke-width: 1.05"/>
      </g>
     </g>
     <g id="text_16">
      <!-- 1.0 -->
      <g transform="translate(26.685 43.359074) scale(0.15 -0.15)">
       <use xlink:href="#DejaVuSans-31"/>
       <use xlink:href="#DejaVuSans-2e" transform="translate(63.623047 0)"/>
       <use xlink:href="#DejaVuSans-30" transform="translate(95.410156 0)"/>
      </g>
     </g>
    </g>
    <g id="text_17">
     <!-- AP@0.5 (IoU threshold = 0.5) -->
     <g style="fill: #0f172a" transform="translate(19.3575 286.678937) rotate(-90) scale(0.16 -0.16)">
      <defs>
       <path id="DejaVuSans-Bold-41" d="M 3419 850 
L 1538 850 
L 1241 0 
L 31 0 
L 1759 4666 
L 3194 4666 
L 4922 0 
L 3713 0 
L 3419 850 
z
M 1838 1716 
L 3116 1716 
L 2478 3572 
L 1838 1716 
z
" transform="scale(0.015625)"/>
       <path id="DejaVuSans-Bold-50" d="M 588 4666 
L 2584 4666 
Q 3475 4666 3951 4270 
Q 4428 3875 4428 3144 
Q 4428 2409 3951 2014 
Q 3475 1619 2584 1619 
L 1791 1619 
L 1791 0 
L 588 0 
L 588 4666 
z
M 1791 3794 
L 1791 2491 
L 2456 2491 
Q 2806 2491 2997 2661 
Q 3188 2831 3188 3144 
Q 3188 3456 2997 3625 
Q 2806 3794 2456 3794 
L 1791 3794 
z
" transform="scale(0.015625)"/>
       <path id="DejaVuSans-Bold-40" d="M 2597 1684 
Q 2597 1300 2761 1078 
Q 2925 856 3206 856 
Q 3484 856 3650 1079 
Q 3816 1303 3816 1684 
Q 3816 2063 3648 2283 
Q 3481 2503 3200 2503 
Q 2925 2503 2761 2283 
Q 2597 2063 2597 1684 
z
M 3878 744 
Q 3784 522 3576 398 
Q 3369 275 3091 275 
Q 2553 275 2217 664 
Q 1881 1053 1881 1678 
Q 1881 2303 2218 2693 
Q 2556 3084 3091 3084 
Q 3369 3084 3576 2959 
Q 3784 2834 3878 2613 
L 3878 3022 
L 4531 3022 
L 4531 856 
Q 4919 916 5141 1230 
Q 5363 1544 5363 2034 
Q 5363 2347 5272 2620 
Q 5181 2894 4997 3122 
Q 4700 3503 4254 3709 
Q 3809 3916 3291 3916 
Q 2928 3916 2597 3820 
Q 2266 3725 1984 3541 
Q 1522 3234 1264 2748 
Q 1006 2263 1006 1697 
Q 1006 1231 1173 823 
Q 1341 416 1656 103 
Q 1969 -203 2373 -364 
Q 2778 -525 3238 -525 
Q 3631 -525 4025 -378 
Q 4419 -231 4697 19 
L 5031 -488 
Q 4641 -791 4180 -952 
Q 3719 -1113 3244 -1113 
Q 2666 -1113 2153 -908 
Q 1641 -703 1241 -313 
Q 841 78 631 592 
Q 422 1106 422 1697 
Q 422 2266 634 2781 
Q 847 3297 1241 3688 
Q 1634 4075 2157 4287 
Q 2681 4500 3244 4500 
Q 3944 4500 4516 4233 
Q 5088 3966 5472 3463 
Q 5706 3156 5826 2798 
Q 5947 2441 5947 2047 
Q 5947 1200 5437 731 
Q 4928 263 4000 263 
L 3878 263 
L 3878 744 
z
" transform="scale(0.015625)"/>
       <path id="DejaVuSans-Bold-30" d="M 2944 2338 
Q 2944 3213 2780 3570 
Q 2616 3928 2228 3928 
Q 1841 3928 1675 3570 
Q 1509 3213 1509 2338 
Q 1509 1453 1675 1090 
Q 1841 728 2228 728 
Q 2613 728 2778 1090 
Q 2944 1453 2944 2338 
z
M 4147 2328 
Q 4147 1169 3647 539 
Q 3147 -91 2228 -91 
Q 1306 -91 806 539 
Q 306 1169 306 2328 
Q 306 3491 806 4120 
Q 1306 4750 2228 4750 
Q 3147 4750 3647 4120 
Q 4147 3491 4147 2328 
z
" transform="scale(0.015625)"/>
       <path id="DejaVuSans-Bold-2e" d="M 653 1209 
L 1778 1209 
L 1778 0 
L 653 0 
L 653 1209 
z
" transform="scale(0.015625)"/>
       <path id="DejaVuSans-Bold-35" d="M 678 4666 
L 3669 4666 
L 3669 3781 
L 1638 3781 
L 1638 3059 
Q 1775 3097 1914 3117 
Q 2053 3138 2203 3138 
Q 3056 3138 3531 2711 
Q 4006 2284 4006 1522 
Q 4006 766 3489 337 
Q 2972 -91 2053 -91 
Q 1656 -91 1267 -14 
Q 878 63 494 219 
L 494 1166 
Q 875 947 1217 837 
Q 1559 728 1863 728 
Q 2300 728 2551 942 
Q 2803 1156 2803 1522 
Q 2803 1891 2551 2103 
Q 2300 2316 1863 2316 
Q 1603 2316 1309 2248 
Q 1016 2181 678 2041 
L 678 4666 
z
" transform="scale(0.015625)"/>
       <path id="DejaVuSans-Bold-20" transform="scale(0.015625)"/>
       <path id="DejaVuSans-Bold-28" d="M 2413 -844 
L 1484 -844 
Q 1006 -72 778 623 
Q 550 1319 550 2003 
Q 550 2688 779 3389 
Q 1009 4091 1484 4856 
L 2413 4856 
Q 2013 4116 1813 3408 
Q 1613 2700 1613 2009 
Q 1613 1319 1811 609 
Q 2009 -100 2413 -844 
z
" transform="scale(0.015625)"/>
       <path id="DejaVuSans-Bold-49" d="M 588 4666 
L 1791 4666 
L 1791 0 
L 588 0 
L 588 4666 
z
" transform="scale(0.015625)"/>
       <path id="DejaVuSans-Bold-6f" d="M 2203 2784 
Q 1831 2784 1636 2517 
Q 1441 2250 1441 1747 
Q 1441 1244 1636 976 
Q 1831 709 2203 709 
Q 2569 709 2762 976 
Q 2956 1244 2956 1747 
Q 2956 2250 2762 2517 
Q 2569 2784 2203 2784 
z
M 2203 3584 
Q 3106 3584 3614 3096 
Q 4122 2609 4122 1747 
Q 4122 884 3614 396 
Q 3106 -91 2203 -91 
Q 1297 -91 786 396 
Q 275 884 275 1747 
Q 275 2609 786 3096 
Q 1297 3584 2203 3584 
z
" transform="scale(0.015625)"/>
       <path id="DejaVuSans-Bold-55" d="M 588 4666 
L 1791 4666 
L 1791 1869 
Q 1791 1291 1980 1042 
Q 2169 794 2597 794 
Q 3028 794 3217 1042 
Q 3406 1291 3406 1869 
L 3406 4666 
L 4609 4666 
L 4609 1869 
Q 4609 878 4112 393 
Q 3616 -91 2597 -91 
Q 1581 -91 1084 393 
Q 588 878 588 1869 
L 588 4666 
z
" transform="scale(0.015625)"/>
       <path id="DejaVuSans-Bold-74" d="M 1759 4494 
L 1759 3500 
L 2913 3500 
L 2913 2700 
L 1759 2700 
L 1759 1216 
Q 1759 972 1856 886 
Q 1953 800 2241 800 
L 2816 800 
L 2816 0 
L 1856 0 
Q 1194 0 917 276 
Q 641 553 641 1216 
L 641 2700 
L 84 2700 
L 84 3500 
L 641 3500 
L 641 4494 
L 1759 4494 
z
" transform="scale(0.015625)"/>
       <path id="DejaVuSans-Bold-68" d="M 4056 2131 
L 4056 0 
L 2931 0 
L 2931 347 
L 2931 1625 
Q 2931 2084 2911 2256 
Q 2891 2428 2841 2509 
Q 2775 2619 2662 2680 
Q 2550 2741 2406 2741 
Q 2056 2741 1856 2470 
Q 1656 2200 1656 1722 
L 1656 0 
L 538 0 
L 538 4863 
L 1656 4863 
L 1656 2988 
Q 1909 3294 2193 3439 
Q 2478 3584 2822 3584 
Q 3428 3584 3742 3212 
Q 4056 2841 4056 2131 
z
" transform="scale(0.015625)"/>
       <path id="DejaVuSans-Bold-72" d="M 3138 2547 
Q 2991 2616 2845 2648 
Q 2700 2681 2553 2681 
Q 2122 2681 1889 2404 
Q 1656 2128 1656 1613 
L 1656 0 
L 538 0 
L 538 3500 
L 1656 3500 
L 1656 2925 
Q 1872 3269 2151 3426 
Q 2431 3584 2822 3584 
Q 2878 3584 2943 3579 
Q 3009 3575 3134 3559 
L 3138 2547 
z
" transform="scale(0.015625)"/>
       <path id="DejaVuSans-Bold-65" d="M 4031 1759 
L 4031 1441 
L 1416 1441 
Q 1456 1047 1700 850 
Q 1944 653 2381 653 
Q 2734 653 3104 758 
Q 3475 863 3866 1075 
L 3866 213 
Q 3469 63 3072 -14 
Q 2675 -91 2278 -91 
Q 1328 -91 801 392 
Q 275 875 275 1747 
Q 275 2603 792 3093 
Q 1309 3584 2216 3584 
Q 3041 3584 3536 3087 
Q 4031 2591 4031 1759 
z
M 2881 2131 
Q 2881 2450 2695 2645 
Q 2509 2841 2209 2841 
Q 1884 2841 1681 2658 
Q 1478 2475 1428 2131 
L 2881 2131 
z
" transform="scale(0.015625)"/>
       <path id="DejaVuSans-Bold-73" d="M 3272 3391 
L 3272 2541 
Q 2913 2691 2578 2766 
Q 2244 2841 1947 2841 
Q 1628 2841 1473 2761 
Q 1319 2681 1319 2516 
Q 1319 2381 1436 2309 
Q 1553 2238 1856 2203 
L 2053 2175 
Q 2913 2066 3209 1816 
Q 3506 1566 3506 1031 
Q 3506 472 3093 190 
Q 2681 -91 1863 -91 
Q 1516 -91 1145 -36 
Q 775 19 384 128 
L 384 978 
Q 719 816 1070 734 
Q 1422 653 1784 653 
Q 2113 653 2278 743 
Q 2444 834 2444 1013 
Q 2444 1163 2330 1236 
Q 2216 1309 1875 1350 
L 1678 1375 
Q 931 1469 631 1722 
Q 331 1975 331 2491 
Q 331 3047 712 3315 
Q 1094 3584 1881 3584 
Q 2191 3584 2531 3537 
Q 2872 3491 3272 3391 
z
" transform="scale(0.015625)"/>
       <path id="DejaVuSans-Bold-6c" d="M 538 4863 
L 1656 4863 
L 1656 0 
L 538 0 
L 538 4863 
z
" transform="scale(0.015625)"/>
       <path id="DejaVuSans-Bold-64" d="M 2919 2988 
L 2919 4863 
L 4044 4863 
L 4044 0 
L 2919 0 
L 2919 506 
Q 2688 197 2409 53 
Q 2131 -91 1766 -91 
Q 1119 -91 703 423 
Q 288 938 288 1747 
Q 288 2556 703 3070 
Q 1119 3584 1766 3584 
Q 2128 3584 2408 3439 
Q 2688 3294 2919 2988 
z
M 2181 722 
Q 2541 722 2730 984 
Q 2919 1247 2919 1747 
Q 2919 2247 2730 2509 
Q 2541 2772 2181 2772 
Q 1825 2772 1636 2509 
Q 1447 2247 1447 1747 
Q 1447 1247 1636 984 
Q 1825 722 2181 722 
z
" transform="scale(0.015625)"/>
       <path id="DejaVuSans-Bold-3d" d="M 678 3084 
L 4684 3084 
L 4684 2350 
L 678 2350 
L 678 3084 
z
M 678 1663 
L 4684 1663 
L 4684 922 
L 678 922 
L 678 1663 
z
" transform="scale(0.015625)"/>
       <path id="DejaVuSans-Bold-29" d="M 513 -844 
Q 913 -100 1113 609 
Q 1313 1319 1313 2009 
Q 1313 2700 1113 3408 
Q 913 4116 513 4856 
L 1441 4856 
Q 1916 4091 2145 3389 
Q 2375 2688 2375 2003 
Q 2375 1319 2147 623 
Q 1919 -72 1441 -844 
L 513 -844 
z
" transform="scale(0.015625)"/>
      </defs>
      <use xlink:href="#DejaVuSans-Bold-41"/>
      <use xlink:href="#DejaVuSans-Bold-50" transform="translate(77.392578 0)"/>
      <use xlink:href="#DejaVuSans-Bold-40" transform="translate(150.683594 0)"/>
      <use xlink:href="#DejaVuSans-Bold-30" transform="translate(250.683594 0)"/>
      <use xlink:href="#DejaVuSans-Bold-2e" transform="translate(320.263672 0)"/>
      <use xlink:href="#DejaVuSans-Bold-35" transform="translate(358.251953 0)"/>
      <use xlink:href="#DejaVuSans-Bold-20" transform="translate(427.832031 0)"/>
      <use xlink:href="#DejaVuSans-Bold-28" transform="translate(462.646484 0)"/>
      <use xlink:href="#DejaVuSans-Bold-49" transform="translate(508.349609 0)"/>
      <use xlink:href="#DejaVuSans-Bold-6f" transform="translate(545.556641 0)"/>
      <use xlink:href="#DejaVuSans-Bold-55" transform="translate(614.257812 0)"/>
      <use xlink:href="#DejaVuSans-Bold-20" transform="translate(695.458984 0)"/>
      <use xlink:href="#DejaVuSans-Bold-74" transform="translate(730.273438 0)"/>
      <use xlink:href="#DejaVuSans-Bold-68" transform="translate(778.076172 0)"/>
      <use xlink:href="#DejaVuSans-Bold-72" transform="translate(849.267578 0)"/>
      <use xlink:href="#DejaVuSans-Bold-65" transform="translate(898.583984 0)"/>
      <use xlink:href="#DejaVuSans-Bold-73" transform="translate(966.40625 0)"/>
      <use xlink:href="#DejaVuSans-Bold-68" transform="translate(1025.927734 0)"/>
      <use xlink:href="#DejaVuSans-Bold-6f" transform="translate(1097.119141 0)"/>
      <use xlink:href="#DejaVuSans-Bold-6c" transform="translate(1165.820312 0)"/>
      <use xlink:href="#DejaVuSans-Bold-64" transform="translate(1200.097656 0)"/>
      <use xlink:href="#DejaVuSans-Bold-20" transform="translate(1271.679688 0)"/>
      <use xlink:href="#DejaVuSans-Bold-3d" transform="translate(1306.494141 0)"/>
      <use xlink:href="#DejaVuSans-Bold-20" transform="translate(1390.283203 0)"/>
      <use xlink:href="#DejaVuSans-Bold-30" transform="translate(1425.097656 0)"/>
      <use xlink:href="#DejaVuSans-Bold-2e" transform="translate(1494.677734 0)"/>
      <use xlink:href="#DejaVuSans-Bold-35" transform="translate(1532.666016 0)"/>
      <use xlink:href="#DejaVuSans-Bold-29" transform="translate(1602.246094 0)"/>
     </g>
    </g>
   </g>
   <g id="patch_3">
    <path d="M 71.041952 276.813187 
L 80.148073 276.813187 
L 80.148073 109.406129 
L 71.041952 109.406129 
z
" clip-path="url(#p27116fc08c)" style="fill: #1f77b4; stroke: #1f2937; stroke-width: 1.05; stroke-linejoin: miter"/>
   </g>
   <g id="patch_4">
    <path d="M 112.283444 276.813187 
L 121.389566 276.813187 
L 121.389566 99.840011 
L 112.283444 99.840011 
z
" clip-path="url(#p27116fc08c)" style="fill: #1f77b4; stroke: #1f2937; stroke-width: 1.05; stroke-linejoin: miter"/>
   </g>
   <g id="patch_5">
    <path d="M 153.524937 276.813187 
L 162.631058 276.813187 
L 162.631058 97.448482 
L 153.524937 97.448482 
z
" clip-path="url(#p27116fc08c)" style="fill: #1f77b4; stroke: #1f2937; stroke-width: 1.05; stroke-linejoin: miter"/>
   </g>
   <g id="patch_6">
    <path d="M 194.76643 276.813187 
L 203.872551 276.813187 
L 203.872551 92.665423 
L 194.76643 92.665423 
z
" clip-path="url(#p27116fc08c)" style="fill: #1f77b4; stroke: #1f2937; stroke-width: 1.05; stroke-linejoin: miter"/>
   </g>
   <g id="patch_7">
    <path d="M 236.007922 276.813187 
L 245.114044 276.813187 
L 245.114044 87.882364 
L 236.007922 87.882364 
z
" clip-path="url(#p27116fc08c)" style="fill: #1f77b4; stroke: #1f2937; stroke-width: 1.05; stroke-linejoin: miter"/>
   </g>
   <g id="patch_8">
    <path d="M 277.249415 276.813187 
L 286.355536 276.813187 
L 286.355536 83.099305 
L 277.249415 83.099305 
z
" clip-path="url(#p27116fc08c)" style="fill: #1f77b4; stroke: #1f2937; stroke-width: 1.05; stroke-linejoin: miter"/>
   </g>
   <g id="patch_9">
    <path d="M 318.490907 276.813187 
L 327.597029 276.813187 
L 327.597029 90.273893 
L 318.490907 90.273893 
z
" clip-path="url(#p27116fc08c)" style="fill: #1f77b4; stroke: #1f2937; stroke-width: 1.05; stroke-linejoin: miter"/>
   </g>
   <g id="patch_10">
    <path d="M 359.7324 276.813187 
L 368.838522 276.813187 
L 368.838522 85.490835 
L 359.7324 85.490835 
z
" clip-path="url(#p27116fc08c)" style="fill: #1f77b4; stroke: #1f2937; stroke-width: 1.05; stroke-linejoin: miter"/>
   </g>
   <g id="patch_11">
    <path d="M 400.973893 276.813187 
L 410.080014 276.813187 
L 410.080014 95.056952 
L 400.973893 95.056952 
z
" clip-path="url(#p27116fc08c)" style="fill: #1f77b4; stroke: #1f2937; stroke-width: 1.05; stroke-linejoin: miter"/>
   </g>
   <g id="patch_12">
    <path d="M 442.215385 276.813187 
L 451.321507 276.813187 
L 451.321507 99.840011 
L 442.215385 99.840011 
z
" clip-path="url(#p27116fc08c)" style="fill: #1f77b4; stroke: #1f2937; stroke-width: 1.05; stroke-linejoin: miter"/>
   </g>
   <g id="patch_13">
    <path d="M 80.93991 276.813187 
L 90.046031 276.813187 
L 90.046031 133.321423 
L 80.93991 133.321423 
z
" clip-path="url(#p27116fc08c)" style="fill: #ff7f0e; stroke: #1f2937; stroke-width: 1.05; stroke-linejoin: miter"/>
   </g>
   <g id="patch_14">
    <path d="M 122.181403 276.813187 
L 131.287524 276.813187 
L 131.287524 118.972246 
L 122.181403 118.972246 
z
" clip-path="url(#p27116fc08c)" style="fill: #ff7f0e; stroke: #1f2937; stroke-width: 1.05; stroke-linejoin: miter"/>
   </g>
   <g id="patch_15">
    <path d="M 163.422895 276.813187 
L 172.529017 276.813187 
L 172.529017 128.538364 
L 163.422895 128.538364 
z
" clip-path="url(#p27116fc08c)" style="fill: #ff7f0e; stroke: #1f2937; stroke-width: 1.05; stroke-linejoin: miter"/>
   </g>
   <g id="patch_16">
    <path d="M 204.664388 276.813187 
L 213.770509 276.813187 
L 213.770509 114.189187 
L 204.664388 114.189187 
z
" clip-path="url(#p27116fc08c)" style="fill: #ff7f0e; stroke: #1f2937; stroke-width: 1.05; stroke-linejoin: miter"/>
   </g>
   <g id="patch_17">
    <path d="M 245.90588 276.813187 
L 255.012002 276.813187 
L 255.012002 109.406129 
L 245.90588 109.406129 
z
" clip-path="url(#p27116fc08c)" style="fill: #ff7f0e; stroke: #1f2937; stroke-width: 1.05; stroke-linejoin: miter"/>
   </g>
   <g id="patch_18">
    <path d="M 287.147373 276.813187 
L 296.253495 276.813187 
L 296.253495 107.014599 
L 287.147373 107.014599 
z
" clip-path="url(#p27116fc08c)" style="fill: #ff7f0e; stroke: #1f2937; stroke-width: 1.05; stroke-linejoin: miter"/>
   </g>
   <g id="patch_19">
    <path d="M 328.388866 276.813187 
L 337.494987 276.813187 
L 337.494987 116.580717 
L 328.388866 116.580717 
z
" clip-path="url(#p27116fc08c)" style="fill: #ff7f0e; stroke: #1f2937; stroke-width: 1.05; stroke-linejoin: miter"/>
   </g>
   <g id="patch_20">
    <path d="M 369.630358 276.813187 
L 378.73648 276.813187 
L 378.73648 121.363776 
L 369.630358 121.363776 
z
" clip-path="url(#p27116fc08c)" style="fill: #ff7f0e; stroke: #1f2937; stroke-width: 1.05; stroke-linejoin: miter"/>
   </g>
   <g id="patch_21">
    <path d="M 410.871851 276.813187 
L 419.977972 276.813187 
L 419.977972 126.146835 
L 410.871851 126.146835 
z
" clip-path="url(#p27116fc08c)" style="fill: #ff7f0e; stroke: #1f2937; stroke-width: 1.05; stroke-linejoin: miter"/>
   </g>
   <g id="patch_22">
    <path d="M 452.113344 276.813187 
L 461.219465 276.813187 
L 461.219465 130.929893 
L 452.113344 130.929893 
z
" clip-path="url(#p27116fc08c)" style="fill: #ff7f0e; stroke: #1f2937; stroke-width: 1.05; stroke-linejoin: miter"/>
   </g>
   <g id="patch_23">
    <path d="M 90.837868 276.813187 
L 99.94399 276.813187 
L 99.94399 71.141658 
L 90.837868 71.141658 
z
" clip-path="url(#p27116fc08c)" style="fill: #2ca02c; stroke: #1f2937; stroke-width: 1.05; stroke-linejoin: miter"/>
   </g>
   <g id="patch_24">
    <path d="M 132.079361 276.813187 
L 141.185482 276.813187 
L 141.185482 63.96707 
L 132.079361 63.96707 
z
" clip-path="url(#p27116fc08c)" style="fill: #2ca02c; stroke: #1f2937; stroke-width: 1.05; stroke-linejoin: miter"/>
   </g>
   <g id="patch_25">
    <path d="M 173.320853 276.813187 
L 182.426975 276.813187 
L 182.426975 61.57554 
L 173.320853 61.57554 
z
" clip-path="url(#p27116fc08c)" style="fill: #2ca02c; stroke: #1f2937; stroke-width: 1.05; stroke-linejoin: miter"/>
   </g>
   <g id="patch_26">
    <path d="M 214.562346 276.813187 
L 223.668468 276.813187 
L 223.668468 59.184011 
L 214.562346 59.184011 
z
" clip-path="url(#p27116fc08c)" style="fill: #2ca02c; stroke: #1f2937; stroke-width: 1.05; stroke-linejoin: miter"/>
   </g>
   <g id="patch_27">
    <path d="M 255.803839 276.813187 
L 264.90996 276.813187 
L 264.90996 56.792482 
L 255.803839 56.792482 
z
" clip-path="url(#p27116fc08c)" style="fill: #2ca02c; stroke: #1f2937; stroke-width: 1.05; stroke-linejoin: miter"/>
   </g>
   <g id="patch_28">
    <path d="M 297.045331 276.813187 
L 306.151453 276.813187 
L 306.151453 54.400952 
L 297.045331 54.400952 
z
" clip-path="url(#p27116fc08c)" style="fill: #2ca02c; stroke: #1f2937; stroke-width: 1.05; stroke-linejoin: miter"/>
   </g>
   <g id="patch_29">
    <path d="M 338.286824 276.813187 
L 347.392945 276.813187 
L 347.392945 61.57554 
L 338.286824 61.57554 
z
" clip-path="url(#p27116fc08c)" style="fill: #2ca02c; stroke: #1f2937; stroke-width: 1.05; stroke-linejoin: miter"/>
   </g>
   <g id="patch_30">
    <path d="M 379.528317 276.813187 
L 388.634438 276.813187 
L 388.634438 59.184011 
L 379.528317 59.184011 
z
" clip-path="url(#p27116fc08c)" style="fill: #2ca02c; stroke: #1f2937; stroke-width: 1.05; stroke-linejoin: miter"/>
   </g>
   <g id="patch_31">
    <path d="M 420.769809 276.813187 
L 429.875931 276.813187 
L 429.875931 66.358599 
L 420.769809 66.358599 
z
" clip-path="url(#p27116fc08c)" style="fill: #2ca02c; stroke: #1f2937; stroke-width: 1.05; stroke-linejoin: miter"/>
   </g>
   <g id="patch_32">
    <path d="M 462.011302 276.813187 
L 471.117423 276.813187 
L 471.117423 68.750129 
L 462.011302 68.750129 
z
" clip-path="url(#p27116fc08c)" style="fill: #2ca02c; stroke: #1f2937; stroke-width: 1.05; stroke-linejoin: miter"/>
   </g>
   <g id="patch_33">
    <path d="M 59.039688 276.813187 
L 59.039688 32.877187 
" style="fill: none; stroke: #1f2937; stroke-width: 1.2; stroke-linejoin: miter; stroke-linecap: square"/>
   </g>
   <g id="patch_34">
    <path d="M 483.119687 276.813187 
L 483.119687 32.877187 
" style="fill: none; stroke: #1f2937; stroke-width: 1.2; stroke-linejoin: miter; stroke-linecap: square"/>
   </g>
   <g id="patch_35">
    <path d="M 59.039688 276.813187 
L 483.119687 276.813187 
" style="fill: none; stroke: #1f2937; stroke-width: 1.2; stroke-linejoin: miter; stroke-linecap: square"/>
   </g>
   <g id="patch_36">
    <path d="M 59.039688 32.877187 
L 483.119687 32.877187 
" style="fill: none; stroke: #1f2937; stroke-width: 1.2; stroke-linejoin: miter; stroke-linecap: square"/>
   </g>
   <g id="text_18">
    <!-- PVF-10 per-class AP@0.5 -->
    <g style="fill: #0f172a" transform="translate(144.694375 20.877187) scale(0.18 -0.18)">
     <defs>
      <path id="DejaVuSans-Bold-56" d="M 31 4666 
L 1241 4666 
L 2478 1222 
L 3713 4666 
L 4922 4666 
L 3194 0 
L 1759 0 
L 31 4666 
z
" transform="scale(0.015625)"/>
      <path id="DejaVuSans-Bold-46" d="M 588 4666 
L 3834 4666 
L 3834 3756 
L 1791 3756 
L 1791 2888 
L 3713 2888 
L 3713 1978 
L 1791 1978 
L 1791 0 
L 588 0 
L 588 4666 
z
" transform="scale(0.015625)"/>
      <path id="DejaVuSans-Bold-2d" d="M 347 2297 
L 2309 2297 
L 2309 1388 
L 347 1388 
L 347 2297 
z
" transform="scale(0.015625)"/>
      <path id="DejaVuSans-Bold-31" d="M 750 831 
L 1813 831 
L 1813 3847 
L 722 3622 
L 722 4441 
L 1806 4666 
L 2950 4666 
L 2950 831 
L 4013 831 
L 4013 0 
L 750 0 
L 750 831 
z
" transform="scale(0.015625)"/>
      <path id="DejaVuSans-Bold-70" d="M 1656 506 
L 1656 -1331 
L 538 -1331 
L 538 3500 
L 1656 3500 
L 1656 2988 
Q 1888 3294 2169 3439 
Q 2450 3584 2816 3584 
Q 3463 3584 3878 3070 
Q 4294 2556 4294 1747 
Q 4294 938 3878 423 
Q 3463 -91 2816 -91 
Q 2450 -91 2169 54 
Q 1888 200 1656 506 
z
M 2400 2772 
Q 2041 2772 1848 2508 
Q 1656 2244 1656 1747 
Q 1656 1250 1848 986 
Q 2041 722 2400 722 
Q 2759 722 2948 984 
Q 3138 1247 3138 1747 
Q 3138 2247 2948 2509 
Q 2759 2772 2400 2772 
z
" transform="scale(0.015625)"/>
      <path id="DejaVuSans-Bold-63" d="M 3366 3391 
L 3366 2478 
Q 3138 2634 2908 2709 
Q 2678 2784 2431 2784 
Q 1963 2784 1702 2511 
Q 1441 2238 1441 1747 
Q 1441 1256 1702 982 
Q 1963 709 2431 709 
Q 2694 709 2930 787 
Q 3166 866 3366 1019 
L 3366 103 
Q 3103 6 2833 -42 
Q 2563 -91 2291 -91 
Q 1344 -91 809 395 
Q 275 881 275 1747 
Q 275 2613 809 3098 
Q 1344 3584 2291 3584 
Q 2566 3584 2833 3536 
Q 3100 3488 3366 3391 
z
" transform="scale(0.015625)"/>
      <path id="DejaVuSans-Bold-61" d="M 2106 1575 
Q 1756 1575 1579 1456 
Q 1403 1338 1403 1106 
Q 1403 894 1545 773 
Q 1688 653 1941 653 
Q 2256 653 2472 879 
Q 2688 1106 2688 1447 
L 2688 1575 
L 2106 1575 
z
M 3816 1997 
L 3816 0 
L 2688 0 
L 2688 519 
Q 2463 200 2181 54 
Q 1900 -91 1497 -91 
Q 953 -91 614 226 
Q 275 544 275 1050 
Q 275 1666 698 1953 
Q 1122 2241 2028 2241 
L 2688 2241 
L 2688 2328 
Q 2688 2594 2478 2717 
Q 2269 2841 1825 2841 
Q 1466 2841 1156 2769 
Q 847 2697 581 2553 
L 581 3406 
Q 941 3494 1303 3539 
Q 1666 3584 2028 3584 
Q 2975 3584 3395 3211 
Q 3816 2838 3816 1997 
z
" transform="scale(0.015625)"/>
     </defs>
     <use xlink:href="#DejaVuSans-Bold-50"/>
     <use xlink:href="#DejaVuSans-Bold-56" transform="translate(73.291016 0)"/>
     <use xlink:href="#DejaVuSans-Bold-46" transform="translate(150.683594 0)"/>
     <use xlink:href="#DejaVuSans-Bold-2d" transform="translate(215.869141 0)"/>
     <use xlink:href="#DejaVuSans-Bold-31" transform="translate(257.373047 0)"/>
     <use xlink:href="#DejaVuSans-Bold-30" transform="translate(326.953125 0)"/>
     <use xlink:href="#DejaVuSans-Bold-20" transform="translate(396.533203 0)"/>
     <use xlink:href="#DejaVuSans-Bold-70" transform="translate(431.347656 0)"/>
     <use xlink:href="#DejaVuSans-Bold-65" transform="translate(502.929688 0)"/>
     <use xlink:href="#DejaVuSans-Bold-72" transform="translate(570.751953 0)"/>
     <use xlink:href="#DejaVuSans-Bold-2d" transform="translate(620.068359 0)"/>
     <use xlink:href="#DejaVuSans-Bold-63" transform="translate(661.572266 0)"/>
     <use xlink:href="#DejaVuSans-Bold-6c" transform="translate(720.849609 0)"/>
     <use xlink:href="#DejaVuSans-Bold-61" transform="translate(755.126953 0)"/>
     <use xlink:href="#DejaVuSans-Bold-73" transform="translate(822.607422 0)"/>
     <use xlink:href="#DejaVuSans-Bold-73" transform="translate(882.128906 0)"/>
     <use xlink:href="#DejaVuSans-Bold-20" transform="translate(941.650391 0)"/>
     <use xlink:href="#DejaVuSans-Bold-41" transform="translate(976.464844 0)"/>
     <use xlink:href="#DejaVuSans-Bold-50" transform="translate(1053.857422 0)"/>
     <use xlink:href="#DejaVuSans-Bold-40" transform="translate(1127.148438 0)"/>
     <use xlink:href="#DejaVuSans-Bold-30" transform="translate(1227.148438 0)"/>
     <use xlink:href="#DejaVuSans-Bold-2e" transform="translate(1296.728516 0)"/>
     <use xlink:href="#DejaVuSans-Bold-35" transform="translate(1334.716797 0)"/>
    </g>
   </g>
   <g id="legend_1">
    <g id="patch_37">
     <path d="M 296.149687 268.813187 
L 471.919687 268.813187 
Q 475.119687 268.813187 475.119687 265.613187 
L 475.119687 196.508187 
Q 475.119687 193.308187 471.919687 193.308187 
L 296.149687 193.308187 
Q 292.949687 193.308187 292.949687 196.508187 
L 292.949687 265.613187 
Q 292.949687 268.813187 296.149687 268.813187 
z
" style="fill: #f8fafc; opacity: 0.92; stroke: #1f2937; stroke-width: 0.95; stroke-linejoin: miter"/>
    </g>
    <g id="patch_38">
     <path d="M 299.349687 211.865687 
L 331.349687 211.865687 
L 331.349687 200.665687 
L 299.349687 200.665687 
z
" style="fill: #1f77b4; stroke: #1f2937; stroke-width: 1.05; stroke-linejoin: miter"/>
    </g>
    <g id="text_19">
     <!-- Thermal-only -->
     <g transform="translate(344.149687 211.865687) scale(0.16 -0.16)">
      <defs>
       <path id="DejaVuSans-Bold-54" d="M 31 4666 
L 4331 4666 
L 4331 3756 
L 2784 3756 
L 2784 0 
L 1581 0 
L 1581 3756 
L 31 3756 
L 31 4666 
z
" transform="scale(0.015625)"/>
       <path id="DejaVuSans-Bold-6d" d="M 3781 2919 
Q 3994 3244 4286 3414 
Q 4578 3584 4928 3584 
Q 5531 3584 5847 3212 
Q 6163 2841 6163 2131 
L 6163 0 
L 5038 0 
L 5038 1825 
Q 5041 1866 5042 1909 
Q 5044 1953 5044 2034 
Q 5044 2406 4934 2573 
Q 4825 2741 4581 2741 
Q 4263 2741 4089 2478 
Q 3916 2216 3909 1719 
L 3909 0 
L 2784 0 
L 2784 1825 
Q 2784 2406 2684 2573 
Q 2584 2741 2328 2741 
Q 2006 2741 1831 2477 
Q 1656 2213 1656 1722 
L 1656 0 
L 531 0 
L 531 3500 
L 1656 3500 
L 1656 2988 
Q 1863 3284 2130 3434 
Q 2397 3584 2719 3584 
Q 3081 3584 3359 3409 
Q 3638 3234 3781 2919 
z
" transform="scale(0.015625)"/>
       <path id="DejaVuSans-Bold-6e" d="M 4056 2131 
L 4056 0 
L 2931 0 
L 2931 347 
L 2931 1631 
Q 2931 2084 2911 2256 
Q 2891 2428 2841 2509 
Q 2775 2619 2662 2680 
Q 2550 2741 2406 2741 
Q 2056 2741 1856 2470 
Q 1656 2200 1656 1722 
L 1656 0 
L 538 0 
L 538 3500 
L 1656 3500 
L 1656 2988 
Q 1909 3294 2193 3439 
Q 2478 3584 2822 3584 
Q 3428 3584 3742 3212 
Q 4056 2841 4056 2131 
z
" transform="scale(0.015625)"/>
       <path id="DejaVuSans-Bold-79" d="M 78 3500 
L 1197 3500 
L 2138 1125 
L 2938 3500 
L 4056 3500 
L 2584 -331 
Q 2363 -916 2067 -1148 
Q 1772 -1381 1288 -1381 
L 641 -1381 
L 641 -647 
L 991 -647 
Q 1275 -647 1404 -556 
Q 1534 -466 1606 -231 
L 1638 -134 
L 78 3500 
z
" transform="scale(0.015625)"/>
      </defs>
      <use xlink:href="#DejaVuSans-Bold-54"/>
      <use xlink:href="#DejaVuSans-Bold-68" transform="translate(68.212891 0)"/>
      <use xlink:href="#DejaVuSans-Bold-65" transform="translate(139.404297 0)"/>
      <use xlink:href="#DejaVuSans-Bold-72" transform="translate(207.226562 0)"/>
      <use xlink:href="#DejaVuSans-Bold-6d" transform="translate(256.542969 0)"/>
      <use xlink:href="#DejaVuSans-Bold-61" transform="translate(360.742188 0)"/>
      <use xlink:href="#DejaVuSans-Bold-6c" transform="translate(428.222656 0)"/>
      <use xlink:href="#DejaVuSans-Bold-2d" transform="translate(462.5 0)"/>
      <use xlink:href="#DejaVuSans-Bold-6f" transform="translate(504.003906 0)"/>
      <use xlink:href="#DejaVuSans-Bold-6e" transform="translate(572.705078 0)"/>
      <use xlink:href="#DejaVuSans-Bold-6c" transform="translate(643.896484 0)"/>
      <use xlink:href="#DejaVuSans-Bold-79" transform="translate(678.173828 0)"/>
     </g>
    </g>
    <g id="patch_39">
     <path d="M 299.349687 235.475687 
L 331.349687 235.475687 
L 331.349687 224.275687 
L 299.349687 224.275687 
z
" style="fill: #ff7f0e; stroke: #1f2937; stroke-width: 1.05; stroke-linejoin: miter"/>
    </g>
    <g id="text_20">
     <!-- RGB-only -->
     <g transform="translate(344.149687 235.475687) scale(0.16 -0.16)">
      <defs>
       <path id="DejaVuSans-Bold-52" d="M 2297 2597 
Q 2675 2597 2839 2737 
Q 3003 2878 3003 3200 
Q 3003 3519 2839 3656 
Q 2675 3794 2297 3794 
L 1791 3794 
L 1791 2597 
L 2297 2597 
z
M 1791 1766 
L 1791 0 
L 588 0 
L 588 4666 
L 2425 4666 
Q 3347 4666 3776 4356 
Q 4206 4047 4206 3378 
Q 4206 2916 3982 2619 
Q 3759 2322 3309 2181 
Q 3556 2125 3751 1926 
Q 3947 1728 4147 1325 
L 4800 0 
L 3519 0 
L 2950 1159 
Q 2778 1509 2601 1637 
Q 2425 1766 2131 1766 
L 1791 1766 
z
" transform="scale(0.015625)"/>
       <path id="DejaVuSans-Bold-47" d="M 4781 347 
Q 4331 128 3847 18 
Q 3363 -91 2847 -91 
Q 1681 -91 1000 561 
Q 319 1213 319 2328 
Q 319 3456 1012 4103 
Q 1706 4750 2913 4750 
Q 3378 4750 3804 4662 
Q 4231 4575 4609 4403 
L 4609 3438 
Q 4219 3659 3833 3768 
Q 3447 3878 3059 3878 
Q 2341 3878 1952 3476 
Q 1563 3075 1563 2328 
Q 1563 1588 1938 1184 
Q 2313 781 3003 781 
Q 3191 781 3352 804 
Q 3513 828 3641 878 
L 3641 1784 
L 2906 1784 
L 2906 2591 
L 4781 2591 
L 4781 347 
z
" transform="scale(0.015625)"/>
       <path id="DejaVuSans-Bold-42" d="M 2456 2859 
Q 2741 2859 2887 2984 
Q 3034 3109 3034 3353 
Q 3034 3594 2887 3720 
Q 2741 3847 2456 3847 
L 1791 3847 
L 1791 2859 
L 2456 2859 
z
M 2497 819 
Q 2859 819 3042 972 
Q 3225 1125 3225 1434 
Q 3225 1738 3044 1889 
Q 2863 2041 2497 2041 
L 1791 2041 
L 1791 819 
L 2497 819 
z
M 3616 2497 
Q 4003 2384 4215 2081 
Q 4428 1778 4428 1338 
Q 4428 663 3972 331 
Q 3516 0 2584 0 
L 588 0 
L 588 4666 
L 2394 4666 
Q 3366 4666 3802 4372 
Q 4238 4078 4238 3431 
Q 4238 3091 4078 2852 
Q 3919 2613 3616 2497 
z
" transform="scale(0.015625)"/>
      </defs>
      <use xlink:href="#DejaVuSans-Bold-52"/>
      <use xlink:href="#DejaVuSans-Bold-47" transform="translate(77.001953 0)"/>
      <use xlink:href="#DejaVuSans-Bold-42" transform="translate(159.082031 0)"/>
      <use xlink:href="#DejaVuSans-Bold-2d" transform="translate(235.302734 0)"/>
      <use xlink:href="#DejaVuSans-Bold-6f" transform="translate(276.806641 0)"/>
      <use xlink:href="#DejaVuSans-Bold-6e" transform="translate(345.507812 0)"/>
      <use xlink:href="#DejaVuSans-Bold-6c" transform="translate(416.699219 0)"/>
      <use xlink:href="#DejaVuSans-Bold-79" transform="translate(450.976562 0)"/>
     </g>
    </g>
    <g id="patch_40">
     <path d="M 299.349687 259.085687 
L 331.349687 259.085687 
L 331.349687 247.885687 
L 299.349687 247.885687 
z
" style="fill: #2ca02c; stroke: #1f2937; stroke-width: 1.05; stroke-linejoin: miter"/>
    </g>
    <g id="text_21">
     <!-- Ours (T+RGB) -->
     <g transform="translate(344.149687 259.085687) scale(0.16 -0.16)">
      <defs>
       <path id="DejaVuSans-Bold-4f" d="M 2719 3878 
Q 2169 3878 1866 3472 
Q 1563 3066 1563 2328 
Q 1563 1594 1866 1187 
Q 2169 781 2719 781 
Q 3272 781 3575 1187 
Q 3878 1594 3878 2328 
Q 3878 3066 3575 3472 
Q 3272 3878 2719 3878 
z
M 2719 4750 
Q 3844 4750 4481 4106 
Q 5119 3463 5119 2328 
Q 5119 1197 4481 553 
Q 3844 -91 2719 -91 
Q 1597 -91 958 553 
Q 319 1197 319 2328 
Q 319 3463 958 4106 
Q 1597 4750 2719 4750 
z
" transform="scale(0.015625)"/>
       <path id="DejaVuSans-Bold-75" d="M 500 1363 
L 500 3500 
L 1625 3500 
L 1625 3150 
Q 1625 2866 1622 2436 
Q 1619 2006 1619 1863 
Q 1619 1441 1641 1255 
Q 1663 1069 1716 984 
Q 1784 875 1895 815 
Q 2006 756 2150 756 
Q 2500 756 2700 1025 
Q 2900 1294 2900 1772 
L 2900 3500 
L 4019 3500 
L 4019 0 
L 2900 0 
L 2900 506 
Q 2647 200 2364 54 
Q 2081 -91 1741 -91 
Q 1134 -91 817 281 
Q 500 653 500 1363 
z
" transform="scale(0.015625)"/>
       <path id="DejaVuSans-Bold-2b" d="M 3053 4013 
L 3053 2375 
L 4684 2375 
L 4684 1638 
L 3053 1638 
L 3053 0 
L 2309 0 
L 2309 1638 
L 678 1638 
L 678 2375 
L 2309 2375 
L 2309 4013 
L 3053 4013 
z
" transform="scale(0.015625)"/>
      </defs>
      <use xlink:href="#DejaVuSans-Bold-4f"/>
      <use xlink:href="#DejaVuSans-Bold-75" transform="translate(85.009766 0)"/>
      <use xlink:href="#DejaVuSans-Bold-72" transform="translate(156.201172 0)"/>
      <use xlink:href="#DejaVuSans-Bold-73" transform="translate(205.517578 0)"/>
      <use xlink:href="#DejaVuSans-Bold-20" transform="translate(265.039062 0)"/>
      <use xlink:href="#DejaVuSans-Bold-28" transform="translate(299.853516 0)"/>
      <use xlink:href="#DejaVuSans-Bold-54" transform="translate(345.556641 0)"/>
      <use xlink:href="#DejaVuSans-Bold-2b" transform="translate(413.769531 0)"/>
      <use xlink:href="#DejaVuSans-Bold-52" transform="translate(497.558594 0)"/>
      <use xlink:href="#DejaVuSans-Bold-47" transform="translate(574.560547 0)"/>
      <use xlink:href="#DejaVuSans-Bold-42" transform="translate(656.640625 0)"/>
      <use xlink:href="#DejaVuSans-Bold-29" transform="translate(732.861328 0)"/>
     </g>
    </g>
   </g>
  </g>
 </g>
 <defs>
  <clipPath id="p27116fc08c">
   <rect x="59.039688" y="32.877187" width="424.08" height="243.936"/>
  </clipPath>
 </defs>
</svg>
