<?xml version="1.0" encoding="utf-8" standalone="no"?>
<!DOCTYPE svg PUBLIC "-//W3C//DTD SVG 1.1//EN"
  "http://www.w3.org/Graphics/SVG/1.1/DTD/svg11.dtd">
<svg xmlns:xlink="http://www.w3.org/1999/xlink" width="480.579219pt" height="292.61975pt" viewBox="0 0 480.579219 292.61975" xmlns="http://www.w3.org/2000/svg" version="1.1">
 <metadata>
  <rdf:RDF xmlns:dc="http://purl.org/dc/elements/1.1/" xmlns:cc="http://creativecommons.org/ns#" xmlns:rdf="http://www.w3.org/1999/02/22-rdf-syntax-ns#">
   <cc:Work>
    <dc:type rdf:resource="http://purl.org/dc/dcmitype/StillImage"/>
    <dc:date>2025-11-14T18:31:40.679109</dc:date>
    <dc:format>image/svg+xml</dc:format>
    <dc:creator>
     <cc:Agent>
      <dc:title>Matplotlib v3.10.5, https://matplotlib.org/</dc:title>
     </cc:Agent>
    </dc:creator>
   </cc:Work>
  </rdf:RDF>
 </metadata>
 <defs>
  <style type="text/css">*{stroke-linejoin: round; stroke-linecap: butt}</style>
 </defs>
 <g id="figure_1">
  <g id="patch_1">
   <path d="M 0 292.61975 
L 480.579219 292.61975 
L 480.579219 0 
L 0 0 
z
" style="fill: #ffffff"/>
  </g>
  <g id="axes_1">
   <g id="patch_2">
    <path d="M 49.299219 267.773812 
L 473.379219 267.773812 
L 473.379219 23.837812 
L 49.299219 23.837812 
z
" style="fill: #ffffff"/>
   </g>
   <g id="matplotlib.axis_1">
    <g id="xtick_1">
     <g id="line2d_1">
      <defs>
       <path id="m99f691c539" d="M 0 0 
L 0 3.5 
" style="stroke: #000000"/>
      </defs>
      <g>
       <use xlink:href="#m99f691c539" x="82.50111" y="267.773812" style="stroke: #000000"/>
      </g>
     </g>
     <g id="text_1">
      <!-- C1 -->
      <g transform="translate(74.637829 283.132094) scale(0.11 -0.11)">
       <defs>
        <path id="DejaVuSans-Bold-43" d="M 4288 256 
Q 3956 84 3597 -3 
Q 3238 -91 2847 -91 
Q 1681 -91 1000 561 
Q 319 1213 319 2328 
Q 319 3447 1000 4098 
Q 1681 4750 2847 4750 
Q 3238 4750 3597 4662 
Q 3956 4575 4288 4403 
L 4288 3438 
Q 3953 3666 3628 3772 
Q 3303 3878 2944 3878 
Q 2300 3878 1931 3465 
Q 1563 3053 1563 2328 
Q 1563 1606 1931 1193 
Q 2300 781 2944 781 
Q 3303 781 3628 887 
Q 3953 994 4288 1222 
L 4288 256 
z
" transform="scale(0.015625)"/>
        <path id="DejaVuSans-Bold-31" d="M 750 831 
L 1813 831 
L 1813 3847 
L 722 3622 
L 722 4441 
L 1806 4666 
L 2950 4666 
L 2950 831 
L 4013 831 
L 4013 0 
L 750 0 
L 750 831 
z
" transform="scale(0.015625)"/>
       </defs>
       <use xlink:href="#DejaVuSans-Bold-43"/>
       <use xlink:href="#DejaVuSans-Bold-31" transform="translate(73.388672 0)"/>
      </g>
     </g>
    </g>
    <g id="xtick_2">
     <g id="line2d_2">
      <g>
       <use xlink:href="#m99f691c539" x="122.242912" y="267.773812" style="stroke: #000000"/>
      </g>
     </g>
     <g id="text_2">
      <!-- C2 -->
      <g transform="translate(114.379631 283.132094) scale(0.11 -0.11)">
       <defs>
        <path id="DejaVuSans-Bold-32" d="M 1844 884 
L 3897 884 
L 3897 0 
L 506 0 
L 506 884 
L 2209 2388 
Q 2438 2594 2547 2791 
Q 2656 2988 2656 3200 
Q 2656 3528 2436 3728 
Q 2216 3928 1850 3928 
Q 1569 3928 1234 3808 
Q 900 3688 519 3450 
L 519 4475 
Q 925 4609 1322 4679 
Q 1719 4750 2100 4750 
Q 2938 4750 3402 4381 
Q 3866 4013 3866 3353 
Q 3866 2972 3669 2642 
Q 3472 2313 2841 1759 
L 1844 884 
z
" transform="scale(0.015625)"/>
       </defs>
       <use xlink:href="#DejaVuSans-Bold-43"/>
       <use xlink:href="#DejaVuSans-Bold-32" transform="translate(73.388672 0)"/>
      </g>
     </g>
    </g>
    <g id="xtick_3">
     <g id="line2d_3">
      <g>
       <use xlink:href="#m99f691c539" x="161.984714" y="267.773812" style="stroke: #000000"/>
      </g>
     </g>
     <g id="text_3">
      <!-- C3 -->
      <g transform="translate(154.121433 283.132094) scale(0.11 -0.11)">
       <defs>
        <path id="DejaVuSans-Bold-33" d="M 2981 2516 
Q 3453 2394 3698 2092 
Q 3944 1791 3944 1325 
Q 3944 631 3412 270 
Q 2881 -91 1863 -91 
Q 1503 -91 1142 -33 
Q 781 25 428 141 
L 428 1069 
Q 766 900 1098 814 
Q 1431 728 1753 728 
Q 2231 728 2486 893 
Q 2741 1059 2741 1369 
Q 2741 1688 2480 1852 
Q 2219 2016 1709 2016 
L 1228 2016 
L 1228 2791 
L 1734 2791 
Q 2188 2791 2409 2933 
Q 2631 3075 2631 3366 
Q 2631 3634 2415 3781 
Q 2200 3928 1806 3928 
Q 1516 3928 1219 3862 
Q 922 3797 628 3669 
L 628 4550 
Q 984 4650 1334 4700 
Q 1684 4750 2022 4750 
Q 2931 4750 3382 4451 
Q 3834 4153 3834 3553 
Q 3834 3144 3618 2883 
Q 3403 2622 2981 2516 
z
" transform="scale(0.015625)"/>
       </defs>
       <use xlink:href="#DejaVuSans-Bold-43"/>
       <use xlink:href="#DejaVuSans-Bold-33" transform="translate(73.388672 0)"/>
      </g>
     </g>
    </g>
    <g id="xtick_4">
     <g id="line2d_4">
      <g>
       <use xlink:href="#m99f691c539" x="201.726516" y="267.773812" style="stroke: #000000"/>
      </g>
     </g>
     <g id="text_4">
      <!-- C4 -->
      <g transform="translate(193.863235 283.132094) scale(0.11 -0.11)">
       <defs>
        <path id="DejaVuSans-Bold-34" d="M 2356 3675 
L 1038 1722 
L 2356 1722 
L 2356 3675 
z
M 2156 4666 
L 3494 4666 
L 3494 1722 
L 4159 1722 
L 4159 850 
L 3494 850 
L 3494 0 
L 2356 0 
L 2356 850 
L 288 850 
L 288 1881 
L 2156 4666 
z
" transform="scale(0.015625)"/>
       </defs>
       <use xlink:href="#DejaVuSans-Bold-43"/>
       <use xlink:href="#DejaVuSans-Bold-34" transform="translate(73.388672 0)"/>
      </g>
     </g>
    </g>
    <g id="xtick_5">
     <g id="line2d_5">
      <g>
       <use xlink:href="#m99f691c539" x="241.468318" y="267.773812" style="stroke: #000000"/>
      </g>
     </g>
     <g id="text_5">
      <!-- C5 -->
      <g transform="translate(233.605037 283.132094) scale(0.11 -0.11)">
       <defs>
        <path id="DejaVuSans-Bold-35" d="M 678 4666 
L 3669 4666 
L 3669 3781 
L 1638 3781 
L 1638 3059 
Q 1775 3097 1914 3117 
Q 2053 3138 2203 3138 
Q 3056 3138 3531 2711 
Q 4006 2284 4006 1522 
Q 4006 766 3489 337 
Q 2972 -91 2053 -91 
Q 1656 -91 1267 -14 
Q 878 63 494 219 
L 494 1166 
Q 875 947 1217 837 
Q 1559 728 1863 728 
Q 2300 728 2551 942 
Q 2803 1156 2803 1522 
Q 2803 1891 2551 2103 
Q 2300 2316 1863 2316 
Q 1603 2316 1309 2248 
Q 1016 2181 678 2041 
L 678 4666 
z
" transform="scale(0.015625)"/>
       </defs>
       <use xlink:href="#DejaVuSans-Bold-43"/>
       <use xlink:href="#DejaVuSans-Bold-35" transform="translate(73.388672 0)"/>
      </g>
     </g>
    </g>
    <g id="xtick_6">
     <g id="line2d_6">
      <g>
       <use xlink:href="#m99f691c539" x="281.21012" y="267.773812" style="stroke: #000000"/>
      </g>
     </g>
     <g id="text_6">
      <!-- C6 -->
      <g transform="translate(273.346838 283.132094) scale(0.11 -0.11)">
       <defs>
        <path id="DejaVuSans-Bold-36" d="M 2316 2303 
Q 2000 2303 1842 2098 
Q 1684 1894 1684 1484 
Q 1684 1075 1842 870 
Q 2000 666 2316 666 
Q 2634 666 2792 870 
Q 2950 1075 2950 1484 
Q 2950 1894 2792 2098 
Q 2634 2303 2316 2303 
z
M 3803 4544 
L 3803 3681 
Q 3506 3822 3243 3889 
Q 2981 3956 2731 3956 
Q 2194 3956 1894 3657 
Q 1594 3359 1544 2772 
Q 1750 2925 1990 3001 
Q 2231 3078 2516 3078 
Q 3231 3078 3670 2659 
Q 4109 2241 4109 1563 
Q 4109 813 3618 361 
Q 3128 -91 2303 -91 
Q 1394 -91 895 523 
Q 397 1138 397 2266 
Q 397 3422 980 4083 
Q 1563 4744 2578 4744 
Q 2900 4744 3203 4694 
Q 3506 4644 3803 4544 
z
" transform="scale(0.015625)"/>
       </defs>
       <use xlink:href="#DejaVuSans-Bold-43"/>
       <use xlink:href="#DejaVuSans-Bold-36" transform="translate(73.388672 0)"/>
      </g>
     </g>
    </g>
    <g id="xtick_7">
     <g id="line2d_7">
      <g>
       <use xlink:href="#m99f691c539" x="320.951922" y="267.773812" style="stroke: #000000"/>
      </g>
     </g>
     <g id="text_7">
      <!-- C7 -->
      <g transform="translate(313.08864 283.132094) scale(0.11 -0.11)">
       <defs>
        <path id="DejaVuSans-Bold-37" d="M 428 4666 
L 3944 4666 
L 3944 3988 
L 2125 0 
L 953 0 
L 2675 3781 
L 428 3781 
L 428 4666 
z
" transform="scale(0.015625)"/>
       </defs>
       <use xlink:href="#DejaVuSans-Bold-43"/>
       <use xlink:href="#DejaVuSans-Bold-37" transform="translate(73.388672 0)"/>
      </g>
     </g>
    </g>
    <g id="xtick_8">
     <g id="line2d_8">
      <g>
       <use xlink:href="#m99f691c539" x="360.693724" y="267.773812" style="stroke: #000000"/>
      </g>
     </g>
     <g id="text_8">
      <!-- C8 -->
      <g transform="translate(352.830442 283.132094) scale(0.11 -0.11)">
       <defs>
        <path id="DejaVuSans-Bold-38" d="M 2228 2088 
Q 1891 2088 1709 1903 
Q 1528 1719 1528 1375 
Q 1528 1031 1709 848 
Q 1891 666 2228 666 
Q 2563 666 2741 848 
Q 2919 1031 2919 1375 
Q 2919 1722 2741 1905 
Q 2563 2088 2228 2088 
z
M 1350 2484 
Q 925 2613 709 2878 
Q 494 3144 494 3541 
Q 494 4131 934 4440 
Q 1375 4750 2228 4750 
Q 3075 4750 3515 4442 
Q 3956 4134 3956 3541 
Q 3956 3144 3739 2878 
Q 3522 2613 3097 2484 
Q 3572 2353 3814 2058 
Q 4056 1763 4056 1313 
Q 4056 619 3595 264 
Q 3134 -91 2228 -91 
Q 1319 -91 855 264 
Q 391 619 391 1313 
Q 391 1763 633 2058 
Q 875 2353 1350 2484 
z
M 1631 3419 
Q 1631 3141 1786 2991 
Q 1941 2841 2228 2841 
Q 2509 2841 2662 2991 
Q 2816 3141 2816 3419 
Q 2816 3697 2662 3845 
Q 2509 3994 2228 3994 
Q 1941 3994 1786 3844 
Q 1631 3694 1631 3419 
z
" transform="scale(0.015625)"/>
       </defs>
       <use xlink:href="#DejaVuSans-Bold-43"/>
       <use xlink:href="#DejaVuSans-Bold-38" transform="translate(73.388672 0)"/>
      </g>
     </g>
    </g>
    <g id="xtick_9">
     <g id="line2d_9">
      <g>
       <use xlink:href="#m99f691c539" x="400.435526" y="267.773812" style="stroke: #000000"/>
      </g>
     </g>
     <g id="text_9">
      <!-- C9 -->
      <g transform="translate(392.572244 283.132094) scale(0.11 -0.11)">
       <defs>
        <path id="DejaVuSans-Bold-39" d="M 641 103 
L 641 966 
Q 928 831 1190 764 
Q 1453 697 1709 697 
Q 2247 697 2547 995 
Q 2847 1294 2900 1881 
Q 2688 1725 2447 1647 
Q 2206 1569 1925 1569 
Q 1209 1569 770 1986 
Q 331 2403 331 3084 
Q 331 3838 820 4291 
Q 1309 4744 2131 4744 
Q 3044 4744 3544 4128 
Q 4044 3513 4044 2388 
Q 4044 1231 3459 570 
Q 2875 -91 1856 -91 
Q 1528 -91 1228 -42 
Q 928 6 641 103 
z
M 2125 2350 
Q 2441 2350 2600 2554 
Q 2759 2759 2759 3169 
Q 2759 3575 2600 3781 
Q 2441 3988 2125 3988 
Q 1809 3988 1650 3781 
Q 1491 3575 1491 3169 
Q 1491 2759 1650 2554 
Q 1809 2350 2125 2350 
z
" transform="scale(0.015625)"/>
       </defs>
       <use xlink:href="#DejaVuSans-Bold-43"/>
       <use xlink:href="#DejaVuSans-Bold-39" transform="translate(73.388672 0)"/>
      </g>
     </g>
    </g>
    <g id="xtick_10">
     <g id="line2d_10">
      <g>
       <use xlink:href="#m99f691c539" x="440.177328" y="267.773812" style="stroke: #000000"/>
      </g>
     </g>
     <g id="text_10">
      <!-- C10 -->
      <g transform="translate(428.48725 283.132094) scale(0.11 -0.11)">
       <defs>
        <path id="DejaVuSans-Bold-30" d="M 2944 2338 
Q 2944 3213 2780 3570 
Q 2616 3928 2228 3928 
Q 1841 3928 1675 3570 
Q 1509 3213 1509 2338 
Q 1509 1453 1675 1090 
Q 1841 728 2228 728 
Q 2613 728 2778 1090 
Q 2944 1453 2944 2338 
z
M 4147 2328 
Q 4147 1169 3647 539 
Q 3147 -91 2228 -91 
Q 1306 -91 806 539 
Q 306 1169 306 2328 
Q 306 3491 806 4120 
Q 1306 4750 2228 4750 
Q 3147 4750 3647 4120 
Q 4147 3491 4147 2328 
z
" transform="scale(0.015625)"/>
       </defs>
       <use xlink:href="#DejaVuSans-Bold-43"/>
       <use xlink:href="#DejaVuSans-Bold-31" transform="translate(73.388672 0)"/>
       <use xlink:href="#DejaVuSans-Bold-30" transform="translate(142.96875 0)"/>
      </g>
     </g>
    </g>
   </g>
   <g id="matplotlib.axis_2">
    <g id="ytick_1">
     <g id="line2d_11">
      <path d="M 49.299219 267.773812 
L 473.379219 267.773812 
" clip-path="url(#p6379cf77ec)" style="fill: none; stroke: #bfbfbf; stroke-opacity: 0.6; stroke-width: 0.85; stroke-linecap: square"/>
     </g>
     <g id="line2d_12">
      <defs>
       <path id="mc6074b4404" d="M 0 0 
L -3.5 0 
" style="stroke: #000000"/>
      </defs>
      <g>
       <use xlink:href="#mc6074b4404" x="49.299219" y="267.773812" style="stroke: #000000"/>
      </g>
     </g>
     <g id="text_11">
      <!-- 0.0 -->
      <g transform="translate(22.81375 271.952953) scale(0.11 -0.11)">
       <defs>
        <path id="DejaVuSans-Bold-2e" d="M 653 1209 
L 1778 1209 
L 1778 0 
L 653 0 
L 653 1209 
z
" transform="scale(0.015625)"/>
       </defs>
       <use xlink:href="#DejaVuSans-Bold-30"/>
       <use xlink:href="#DejaVuSans-Bold-2e" transform="translate(69.580078 0)"/>
       <use xlink:href="#DejaVuSans-Bold-30" transform="translate(107.568359 0)"/>
      </g>
     </g>
    </g>
    <g id="ytick_2">
     <g id="line2d_13">
      <path d="M 49.299219 219.943224 
L 473.379219 219.943224 
" clip-path="url(#p6379cf77ec)" style="fill: none; stroke: #bfbfbf; stroke-opacity: 0.6; stroke-width: 0.85; stroke-linecap: square"/>
     </g>
     <g id="line2d_14">
      <g>
       <use xlink:href="#mc6074b4404" x="49.299219" y="219.943224" style="stroke: #000000"/>
      </g>
     </g>
     <g id="text_12">
      <!-- 0.2 -->
      <g transform="translate(22.81375 224.122365) scale(0.11 -0.11)">
       <use xlink:href="#DejaVuSans-Bold-30"/>
       <use xlink:href="#DejaVuSans-Bold-2e" transform="translate(69.580078 0)"/>
       <use xlink:href="#DejaVuSans-Bold-32" transform="translate(107.568359 0)"/>
      </g>
     </g>
    </g>
    <g id="ytick_3">
     <g id="line2d_15">
      <path d="M 49.299219 172.112636 
L 473.379219 172.112636 
" clip-path="url(#p6379cf77ec)" style="fill: none; stroke: #bfbfbf; stroke-opacity: 0.6; stroke-width: 0.85; stroke-linecap: square"/>
     </g>
     <g id="line2d_16">
      <g>
       <use xlink:href="#mc6074b4404" x="49.299219" y="172.112636" style="stroke: #000000"/>
      </g>
     </g>
     <g id="text_13">
      <!-- 0.4 -->
      <g transform="translate(22.81375 176.291777) scale(0.11 -0.11)">
       <use xlink:href="#DejaVuSans-Bold-30"/>
       <use xlink:href="#DejaVuSans-Bold-2e" transform="translate(69.580078 0)"/>
       <use xlink:href="#DejaVuSans-Bold-34" transform="translate(107.568359 0)"/>
      </g>
     </g>
    </g>
    <g id="ytick_4">
     <g id="line2d_17">
      <path d="M 49.299219 124.282048 
L 473.379219 124.282048 
" clip-path="url(#p6379cf77ec)" style="fill: none; stroke: #bfbfbf; stroke-opacity: 0.6; stroke-width: 0.85; stroke-linecap: square"/>
     </g>
     <g id="line2d_18">
      <g>
       <use xlink:href="#mc6074b4404" x="49.299219" y="124.282048" style="stroke: #000000"/>
      </g>
     </g>
     <g id="text_14">
      <!-- 0.6 -->
      <g transform="translate(22.81375 128.461188) scale(0.11 -0.11)">
       <use xlink:href="#DejaVuSans-Bold-30"/>
       <use xlink:href="#DejaVuSans-Bold-2e" transform="translate(69.580078 0)"/>
       <use xlink:href="#DejaVuSans-Bold-36" transform="translate(107.568359 0)"/>
      </g>
     </g>
    </g>
    <g id="ytick_5">
     <g id="line2d_19">
      <path d="M 49.299219 76.45146 
L 473.379219 76.45146 
" clip-path="url(#p6379cf77ec)" style="fill: none; stroke: #bfbfbf; stroke-opacity: 0.6; stroke-width: 0.85; stroke-linecap: square"/>
     </g>
     <g id="line2d_20">
      <g>
       <use xlink:href="#mc6074b4404" x="49.299219" y="76.45146" style="stroke: #000000"/>
      </g>
     </g>
     <g id="text_15">
      <!-- 0.8 -->
      <g transform="translate(22.81375 80.6306) scale(0.11 -0.11)">
       <use xlink:href="#DejaVuSans-Bold-30"/>
       <use xlink:href="#DejaVuSans-Bold-2e" transform="translate(69.580078 0)"/>
       <use xlink:href="#DejaVuSans-Bold-38" transform="translate(107.568359 0)"/>
      </g>
     </g>
    </g>
    <g id="ytick_6">
     <g id="line2d_21">
      <path d="M 49.299219 28.620871 
L 473.379219 28.620871 
" clip-path="url(#p6379cf77ec)" style="fill: none; stroke: #bfbfbf; stroke-opacity: 0.6; stroke-width: 0.85; stroke-linecap: square"/>
     </g>
     <g id="line2d_22">
      <g>
       <use xlink:href="#mc6074b4404" x="49.299219" y="28.620871" style="stroke: #000000"/>
      </g>
     </g>
     <g id="text_16">
      <!-- 1.0 -->
      <g transform="translate(22.81375 32.800012) scale(0.11 -0.11)">
       <use xlink:href="#DejaVuSans-Bold-31"/>
       <use xlink:href="#DejaVuSans-Bold-2e" transform="translate(69.580078 0)"/>
       <use xlink:href="#DejaVuSans-Bold-30" transform="translate(107.568359 0)"/>
      </g>
     </g>
    </g>
    <g id="text_17">
     <!-- AP@0.5 -->
     <g transform="translate(16.318125 171.4755) rotate(-90) scale(0.12 -0.12)">
      <defs>
       <path id="DejaVuSans-Bold-41" d="M 3419 850 
L 1538 850 
L 1241 0 
L 31 0 
L 1759 4666 
L 3194 4666 
L 4922 0 
L 3713 0 
L 3419 850 
z
M 1838 1716 
L 3116 1716 
L 2478 3572 
L 1838 1716 
z
" transform="scale(0.015625)"/>
       <path id="DejaVuSans-Bold-50" d="M 588 4666 
L 2584 4666 
Q 3475 4666 3951 4270 
Q 4428 3875 4428 3144 
Q 4428 2409 3951 2014 
Q 3475 1619 2584 1619 
L 1791 1619 
L 1791 0 
L 588 0 
L 588 4666 
z
M 1791 3794 
L 1791 2491 
L 2456 2491 
Q 2806 2491 2997 2661 
Q 3188 2831 3188 3144 
Q 3188 3456 2997 3625 
Q 2806 3794 2456 3794 
L 1791 3794 
z
" transform="scale(0.015625)"/>
       <path id="DejaVuSans-Bold-40" d="M 2597 1684 
Q 2597 1300 2761 1078 
Q 2925 856 3206 856 
Q 3484 856 3650 1079 
Q 3816 1303 3816 1684 
Q 3816 2063 3648 2283 
Q 3481 2503 3200 2503 
Q 2925 2503 2761 2283 
Q 2597 2063 2597 1684 
z
M 3878 744 
Q 3784 522 3576 398 
Q 3369 275 3091 275 
Q 2553 275 2217 664 
Q 1881 1053 1881 1678 
Q 1881 2303 2218 2693 
Q 2556 3084 3091 3084 
Q 3369 3084 3576 2959 
Q 3784 2834 3878 2613 
L 3878 3022 
L 4531 3022 
L 4531 856 
Q 4919 916 5141 1230 
Q 5363 1544 5363 2034 
Q 5363 2347 5272 2620 
Q 5181 2894 4997 3122 
Q 4700 3503 4254 3709 
Q 3809 3916 3291 3916 
Q 2928 3916 2597 3820 
Q 2266 3725 1984 3541 
Q 1522 3234 1264 2748 
Q 1006 2263 1006 1697 
Q 1006 1231 1173 823 
Q 1341 416 1656 103 
Q 1969 -203 2373 -364 
Q 2778 -525 3238 -525 
Q 3631 -525 4025 -378 
Q 4419 -231 4697 19 
L 5031 -488 
Q 4641 -791 4180 -952 
Q 3719 -1113 3244 -1113 
Q 2666 -1113 2153 -908 
Q 1641 -703 1241 -313 
Q 841 78 631 592 
Q 422 1106 422 1697 
Q 422 2266 634 2781 
Q 847 3297 1241 3688 
Q 1634 4075 2157 4287 
Q 2681 4500 3244 4500 
Q 3944 4500 4516 4233 
Q 5088 3966 5472 3463 
Q 5706 3156 5826 2798 
Q 5947 2441 5947 2047 
Q 5947 1200 5437 731 
Q 4928 263 4000 263 
L 3878 263 
L 3878 744 
z
" transform="scale(0.015625)"/>
      </defs>
      <use xlink:href="#DejaVuSans-Bold-41"/>
      <use xlink:href="#DejaVuSans-Bold-50" transform="translate(77.392578 0)"/>
      <use xlink:href="#DejaVuSans-Bold-40" transform="translate(150.683594 0)"/>
      <use xlink:href="#DejaVuSans-Bold-30" transform="translate(250.683594 0)"/>
      <use xlink:href="#DejaVuSans-Bold-2e" transform="translate(320.263672 0)"/>
      <use xlink:href="#DejaVuSans-Bold-35" transform="translate(358.251953 0)"/>
     </g>
    </g>
   </g>
   <g id="patch_3">
    <path d="M 68.575582 267.773812 
L 77.350572 267.773812 
L 77.350572 100.366754 
L 68.575582 100.366754 
z
" clip-path="url(#p6379cf77ec)" style="fill: #1f77b4; stroke: #404040; stroke-width: 0.9; stroke-linejoin: miter"/>
   </g>
   <g id="patch_4">
    <path d="M 108.317384 267.773812 
L 117.092374 267.773812 
L 117.092374 90.800636 
L 108.317384 90.800636 
z
" clip-path="url(#p6379cf77ec)" style="fill: #1f77b4; stroke: #404040; stroke-width: 0.9; stroke-linejoin: miter"/>
   </g>
   <g id="patch_5">
    <path d="M 148.059186 267.773812 
L 156.834176 267.773812 
L 156.834176 88.409107 
L 148.059186 88.409107 
z
" clip-path="url(#p6379cf77ec)" style="fill: #1f77b4; stroke: #404040; stroke-width: 0.9; stroke-linejoin: miter"/>
   </g>
   <g id="patch_6">
    <path d="M 187.800988 267.773812 
L 196.575978 267.773812 
L 196.575978 83.626048 
L 187.800988 83.626048 
z
" clip-path="url(#p6379cf77ec)" style="fill: #1f77b4; stroke: #404040; stroke-width: 0.9; stroke-linejoin: miter"/>
   </g>
   <g id="patch_7">
    <path d="M 227.54279 267.773812 
L 236.31778 267.773812 
L 236.31778 78.842989 
L 227.54279 78.842989 
z
" clip-path="url(#p6379cf77ec)" style="fill: #1f77b4; stroke: #404040; stroke-width: 0.9; stroke-linejoin: miter"/>
   </g>
   <g id="patch_8">
    <path d="M 267.284592 267.773812 
L 276.059582 267.773812 
L 276.059582 74.05993 
L 267.284592 74.05993 
z
" clip-path="url(#p6379cf77ec)" style="fill: #1f77b4; stroke: #404040; stroke-width: 0.9; stroke-linejoin: miter"/>
   </g>
   <g id="patch_9">
    <path d="M 307.026394 267.773812 
L 315.801384 267.773812 
L 315.801384 81.234518 
L 307.026394 81.234518 
z
" clip-path="url(#p6379cf77ec)" style="fill: #1f77b4; stroke: #404040; stroke-width: 0.9; stroke-linejoin: miter"/>
   </g>
   <g id="patch_10">
    <path d="M 346.768196 267.773812 
L 355.543186 267.773812 
L 355.543186 76.45146 
L 346.768196 76.45146 
z
" clip-path="url(#p6379cf77ec)" style="fill: #1f77b4; stroke: #404040; stroke-width: 0.9; stroke-linejoin: miter"/>
   </g>
   <g id="patch_11">
    <path d="M 386.509998 267.773812 
L 395.284988 267.773812 
L 395.284988 86.017577 
L 386.509998 86.017577 
z
" clip-path="url(#p6379cf77ec)" style="fill: #1f77b4; stroke: #404040; stroke-width: 0.9; stroke-linejoin: miter"/>
   </g>
   <g id="patch_12">
    <path d="M 426.2518 267.773812 
L 435.02679 267.773812 
L 435.02679 90.800636 
L 426.2518 90.800636 
z
" clip-path="url(#p6379cf77ec)" style="fill: #1f77b4; stroke: #404040; stroke-width: 0.9; stroke-linejoin: miter"/>
   </g>
   <g id="patch_13">
    <path d="M 78.113615 267.773812 
L 86.888605 267.773812 
L 86.888605 124.282048 
L 78.113615 124.282048 
z
" clip-path="url(#p6379cf77ec)" style="fill: #ff7f0e; stroke: #404040; stroke-width: 0.9; stroke-linejoin: miter"/>
   </g>
   <g id="patch_14">
    <path d="M 117.855417 267.773812 
L 126.630407 267.773812 
L 126.630407 109.932871 
L 117.855417 109.932871 
z
" clip-path="url(#p6379cf77ec)" style="fill: #ff7f0e; stroke: #404040; stroke-width: 0.9; stroke-linejoin: miter"/>
   </g>
   <g id="patch_15">
    <path d="M 157.597219 267.773812 
L 166.372209 267.773812 
L 166.372209 119.498989 
L 157.597219 119.498989 
z
" clip-path="url(#p6379cf77ec)" style="fill: #ff7f0e; stroke: #404040; stroke-width: 0.9; stroke-linejoin: miter"/>
   </g>
   <g id="patch_16">
    <path d="M 197.339021 267.773812 
L 206.114011 267.773812 
L 206.114011 105.149812 
L 197.339021 105.149812 
z
" clip-path="url(#p6379cf77ec)" style="fill: #ff7f0e; stroke: #404040; stroke-width: 0.9; stroke-linejoin: miter"/>
   </g>
   <g id="patch_17">
    <path d="M 237.080823 267.773812 
L 245.855813 267.773812 
L 245.855813 100.366754 
L 237.080823 100.366754 
z
" clip-path="url(#p6379cf77ec)" style="fill: #ff7f0e; stroke: #404040; stroke-width: 0.9; stroke-linejoin: miter"/>
   </g>
   <g id="patch_18">
    <path d="M 276.822625 267.773812 
L 285.597615 267.773812 
L 285.597615 97.975224 
L 276.822625 97.975224 
z
" clip-path="url(#p6379cf77ec)" style="fill: #ff7f0e; stroke: #404040; stroke-width: 0.9; stroke-linejoin: miter"/>
   </g>
   <g id="patch_19">
    <path d="M 316.564427 267.773812 
L 325.339417 267.773812 
L 325.339417 107.541342 
L 316.564427 107.541342 
z
" clip-path="url(#p6379cf77ec)" style="fill: #ff7f0e; stroke: #404040; stroke-width: 0.9; stroke-linejoin: miter"/>
   </g>
   <g id="patch_20">
    <path d="M 356.306229 267.773812 
L 365.081219 267.773812 
L 365.081219 112.324401 
L 356.306229 112.324401 
z
" clip-path="url(#p6379cf77ec)" style="fill: #ff7f0e; stroke: #404040; stroke-width: 0.9; stroke-linejoin: miter"/>
   </g>
   <g id="patch_21">
    <path d="M 396.048031 267.773812 
L 404.823021 267.773812 
L 404.823021 117.10746 
L 396.048031 117.10746 
z
" clip-path="url(#p6379cf77ec)" style="fill: #ff7f0e; stroke: #404040; stroke-width: 0.9; stroke-linejoin: miter"/>
   </g>
   <g id="patch_22">
    <path d="M 435.789833 267.773812 
L 444.564823 267.773812 
L 444.564823 121.890518 
L 435.789833 121.890518 
z
" clip-path="url(#p6379cf77ec)" style="fill: #ff7f0e; stroke: #404040; stroke-width: 0.9; stroke-linejoin: miter"/>
   </g>
   <g id="patch_23">
    <path d="M 87.651647 267.773812 
L 96.426637 267.773812 
L 96.426637 62.102283 
L 87.651647 62.102283 
z
" clip-path="url(#p6379cf77ec)" style="fill: #2ca02c; stroke: #404040; stroke-width: 0.9; stroke-linejoin: miter"/>
   </g>
   <g id="patch_24">
    <path d="M 127.393449 267.773812 
L 136.168439 267.773812 
L 136.168439 54.927695 
L 127.393449 54.927695 
z
" clip-path="url(#p6379cf77ec)" style="fill: #2ca02c; stroke: #404040; stroke-width: 0.9; stroke-linejoin: miter"/>
   </g>
   <g id="patch_25">
    <path d="M 167.135251 267.773812 
L 175.910241 267.773812 
L 175.910241 52.536165 
L 167.135251 52.536165 
z
" clip-path="url(#p6379cf77ec)" style="fill: #2ca02c; stroke: #404040; stroke-width: 0.9; stroke-linejoin: miter"/>
   </g>
   <g id="patch_26">
    <path d="M 206.877053 267.773812 
L 215.652043 267.773812 
L 215.652043 50.144636 
L 206.877053 50.144636 
z
" clip-path="url(#p6379cf77ec)" style="fill: #2ca02c; stroke: #404040; stroke-width: 0.9; stroke-linejoin: miter"/>
   </g>
   <g id="patch_27">
    <path d="M 246.618855 267.773812 
L 255.393845 267.773812 
L 255.393845 47.753107 
L 246.618855 47.753107 
z
" clip-path="url(#p6379cf77ec)" style="fill: #2ca02c; stroke: #404040; stroke-width: 0.9; stroke-linejoin: miter"/>
   </g>
   <g id="patch_28">
    <path d="M 286.360657 267.773812 
L 295.135647 267.773812 
L 295.135647 45.361577 
L 286.360657 45.361577 
z
" clip-path="url(#p6379cf77ec)" style="fill: #2ca02c; stroke: #404040; stroke-width: 0.9; stroke-linejoin: miter"/>
   </g>
   <g id="patch_29">
    <path d="M 326.102459 267.773812 
L 334.877449 267.773812 
L 334.877449 52.536165 
L 326.102459 52.536165 
z
" clip-path="url(#p6379cf77ec)" style="fill: #2ca02c; stroke: #404040; stroke-width: 0.9; stroke-linejoin: miter"/>
   </g>
   <g id="patch_30">
    <path d="M 365.844261 267.773812 
L 374.619251 267.773812 
L 374.619251 50.144636 
L 365.844261 50.144636 
z
" clip-path="url(#p6379cf77ec)" style="fill: #2ca02c; stroke: #404040; stroke-width: 0.9; stroke-linejoin: miter"/>
   </g>
   <g id="patch_31">
    <path d="M 405.586063 267.773812 
L 414.361053 267.773812 
L 414.361053 57.319224 
L 405.586063 57.319224 
z
" clip-path="url(#p6379cf77ec)" style="fill: #2ca02c; stroke: #404040; stroke-width: 0.9; stroke-linejoin: miter"/>
   </g>
   <g id="patch_32">
    <path d="M 445.327865 267.773812 
L 454.102855 267.773812 
L 454.102855 59.710754 
L 445.327865 59.710754 
z
" clip-path="url(#p6379cf77ec)" style="fill: #2ca02c; stroke: #404040; stroke-width: 0.9; stroke-linejoin: miter"/>
   </g>
   <g id="patch_33">
    <path d="M 49.299219 267.773812 
L 49.299219 23.837812 
" style="fill: none; stroke: #595959; stroke-width: 1.05; stroke-linejoin: miter; stroke-linecap: square"/>
   </g>
   <g id="patch_34">
    <path d="M 473.379219 267.773812 
L 473.379219 23.837812 
" style="fill: none; stroke: #595959; stroke-width: 1.05; stroke-linejoin: miter; stroke-linecap: square"/>
   </g>
   <g id="patch_35">
    <path d="M 49.299219 267.773812 
L 473.379219 267.773812 
" style="fill: none; stroke: #595959; stroke-width: 1.05; stroke-linejoin: miter; stroke-linecap: square"/>
   </g>
   <g id="patch_36">
    <path d="M 49.299219 23.837812 
L 473.379219 23.837812 
" style="fill: none; stroke: #595959; stroke-width: 1.05; stroke-linejoin: miter; stroke-linecap: square"/>
   </g>
   <g id="text_18">
    <!-- PVF-10 per-class AP@0.5 -->
    <g transform="translate(163.039531 17.837812) scale(0.14 -0.14)">
     <defs>
      <path id="DejaVuSans-Bold-56" d="M 31 4666 
L 1241 4666 
L 2478 1222 
L 3713 4666 
L 4922 4666 
L 3194 0 
L 1759 0 
L 31 4666 
z
" transform="scale(0.015625)"/>
      <path id="DejaVuSans-Bold-46" d="M 588 4666 
L 3834 4666 
L 3834 3756 
L 1791 3756 
L 1791 2888 
L 3713 2888 
L 3713 1978 
L 1791 1978 
L 1791 0 
L 588 0 
L 588 4666 
z
" transform="scale(0.015625)"/>
      <path id="DejaVuSans-Bold-2d" d="M 347 2297 
L 2309 2297 
L 2309 1388 
L 347 1388 
L 347 2297 
z
" transform="scale(0.015625)"/>
      <path id="DejaVuSans-Bold-20" transform="scale(0.015625)"/>
      <path id="DejaVuSans-Bold-70" d="M 1656 506 
L 1656 -1331 
L 538 -1331 
L 538 3500 
L 1656 3500 
L 1656 2988 
Q 1888 3294 2169 3439 
Q 2450 3584 2816 3584 
Q 3463 3584 3878 3070 
Q 4294 2556 4294 1747 
Q 4294 938 3878 423 
Q 3463 -91 2816 -91 
Q 2450 -91 2169 54 
Q 1888 200 1656 506 
z
M 2400 2772 
Q 2041 2772 1848 2508 
Q 1656 2244 1656 1747 
Q 1656 1250 1848 986 
Q 2041 722 2400 722 
Q 2759 722 2948 984 
Q 3138 1247 3138 1747 
Q 3138 2247 2948 2509 
Q 2759 2772 2400 2772 
z
" transform="scale(0.015625)"/>
      <path id="DejaVuSans-Bold-65" d="M 4031 1759 
L 4031 1441 
L 1416 1441 
Q 1456 1047 1700 850 
Q 1944 653 2381 653 
Q 2734 653 3104 758 
Q 3475 863 3866 1075 
L 3866 213 
Q 3469 63 3072 -14 
Q 2675 -91 2278 -91 
Q 1328 -91 801 392 
Q 275 875 275 1747 
Q 275 2603 792 3093 
Q 1309 3584 2216 3584 
Q 3041 3584 3536 3087 
Q 4031 2591 4031 1759 
z
M 2881 2131 
Q 2881 2450 2695 2645 
Q 2509 2841 2209 2841 
Q 1884 2841 1681 2658 
Q 1478 2475 1428 2131 
L 2881 2131 
z
" transform="scale(0.015625)"/>
      <path id="DejaVuSans-Bold-72" d="M 3138 2547 
Q 2991 2616 2845 2648 
Q 2700 2681 2553 2681 
Q 2122 2681 1889 2404 
Q 1656 2128 1656 1613 
L 1656 0 
L 538 0 
L 538 3500 
L 1656 3500 
L 1656 2925 
Q 1872 3269 2151 3426 
Q 2431 3584 2822 3584 
Q 2878 3584 2943 3579 
Q 3009 3575 3134 3559 
L 3138 2547 
z
" transform="scale(0.015625)"/>
      <path id="DejaVuSans-Bold-63" d="M 3366 3391 
L 3366 2478 
Q 3138 2634 2908 2709 
Q 2678 2784 2431 2784 
Q 1963 2784 1702 2511 
Q 1441 2238 1441 1747 
Q 1441 1256 1702 982 
Q 1963 709 2431 709 
Q 2694 709 2930 787 
Q 3166 866 3366 1019 
L 3366 103 
Q 3103 6 2833 -42 
Q 2563 -91 2291 -91 
Q 1344 -91 809 395 
Q 275 881 275 1747 
Q 275 2613 809 3098 
Q 1344 3584 2291 3584 
Q 2566 3584 2833 3536 
Q 3100 3488 3366 3391 
z
" transform="scale(0.015625)"/>
      <path id="DejaVuSans-Bold-6c" d="M 538 4863 
L 1656 4863 
L 1656 0 
L 538 0 
L 538 4863 
z
" transform="scale(0.015625)"/>
      <path id="DejaVuSans-Bold-61" d="M 2106 1575 
Q 1756 1575 1579 1456 
Q 1403 1338 1403 1106 
Q 1403 894 1545 773 
Q 1688 653 1941 653 
Q 2256 653 2472 879 
Q 2688 1106 2688 1447 
L 2688 1575 
L 2106 1575 
z
M 3816 1997 
L 3816 0 
L 2688 0 
L 2688 519 
Q 2463 200 2181 54 
Q 1900 -91 1497 -91 
Q 953 -91 614 226 
Q 275 544 275 1050 
Q 275 1666 698 1953 
Q 1122 2241 2028 2241 
L 2688 2241 
L 2688 2328 
Q 2688 2594 2478 2717 
Q 2269 2841 1825 2841 
Q 1466 2841 1156 2769 
Q 847 2697 581 2553 
L 581 3406 
Q 941 3494 1303 3539 
Q 1666 3584 2028 3584 
Q 2975 3584 3395 3211 
Q 3816 2838 3816 1997 
z
" transform="scale(0.015625)"/>
      <path id="DejaVuSans-Bold-73" d="M 3272 3391 
L 3272 2541 
Q 2913 2691 2578 2766 
Q 2244 2841 1947 2841 
Q 1628 2841 1473 2761 
Q 1319 2681 1319 2516 
Q 1319 2381 1436 2309 
Q 1553 2238 1856 2203 
L 2053 2175 
Q 2913 2066 3209 1816 
Q 3506 1566 3506 1031 
Q 3506 472 3093 190 
Q 2681 -91 1863 -91 
Q 1516 -91 1145 -36 
Q 775 19 384 128 
L 384 978 
Q 719 816 1070 734 
Q 1422 653 1784 653 
Q 2113 653 2278 743 
Q 2444 834 2444 1013 
Q 2444 1163 2330 1236 
Q 2216 1309 1875 1350 
L 1678 1375 
Q 931 1469 631 1722 
Q 331 1975 331 2491 
Q 331 3047 712 3315 
Q 1094 3584 1881 3584 
Q 2191 3584 2531 3537 
Q 2872 3491 3272 3391 
z
" transform="scale(0.015625)"/>
     </defs>
     <use xlink:href="#DejaVuSans-Bold-50"/>
     <use xlink:href="#DejaVuSans-Bold-56" transform="translate(73.291016 0)"/>
     <use xlink:href="#DejaVuSans-Bold-46" transform="translate(150.683594 0)"/>
     <use xlink:href="#DejaVuSans-Bold-2d" transform="translate(215.869141 0)"/>
     <use xlink:href="#DejaVuSans-Bold-31" transform="translate(257.373047 0)"/>
     <use xlink:href="#DejaVuSans-Bold-30" transform="translate(326.953125 0)"/>
     <use xlink:href="#DejaVuSans-Bold-20" transform="translate(396.533203 0)"/>
     <use xlink:href="#DejaVuSans-Bold-70" transform="translate(431.347656 0)"/>
     <use xlink:href="#DejaVuSans-Bold-65" transform="translate(502.929688 0)"/>
     <use xlink:href="#DejaVuSans-Bold-72" transform="translate(570.751953 0)"/>
     <use xlink:href="#DejaVuSans-Bold-2d" transform="translate(620.068359 0)"/>
     <use xlink:href="#DejaVuSans-Bold-63" transform="translate(661.572266 0)"/>
     <use xlink:href="#DejaVuSans-Bold-6c" transform="translate(720.849609 0)"/>
     <use xlink:href="#DejaVuSans-Bold-61" transform="translate(755.126953 0)"/>
     <use xlink:href="#DejaVuSans-Bold-73" transform="translate(822.607422 0)"/>
     <use xlink:href="#DejaVuSans-Bold-73" transform="translate(882.128906 0)"/>
     <use xlink:href="#DejaVuSans-Bold-20" transform="translate(941.650391 0)"/>
     <use xlink:href="#DejaVuSans-Bold-41" transform="translate(976.464844 0)"/>
     <use xlink:href="#DejaVuSans-Bold-50" transform="translate(1053.857422 0)"/>
     <use xlink:href="#DejaVuSans-Bold-40" transform="translate(1127.148438 0)"/>
     <use xlink:href="#DejaVuSans-Bold-30" transform="translate(1227.148438 0)"/>
     <use xlink:href="#DejaVuSans-Bold-2e" transform="translate(1296.728516 0)"/>
     <use xlink:href="#DejaVuSans-Bold-35" transform="translate(1334.716797 0)"/>
    </g>
   </g>
   <g id="legend_1">
    <g id="patch_37">
     <path d="M 340.937344 261.773812 
L 464.979219 261.773812 
Q 467.379219 261.773812 467.379219 259.373812 
L 467.379219 210.338969 
Q 467.379219 207.938969 464.979219 207.938969 
L 340.937344 207.938969 
Q 338.537344 207.938969 338.537344 210.338969 
L 338.537344 259.373812 
Q 338.537344 261.773812 340.937344 261.773812 
z
" style="fill: #ffffff; opacity: 0.92; stroke: #adadad; stroke-width: 0.85; stroke-linejoin: miter"/>
    </g>
    <g id="patch_38">
     <path d="M 343.337344 221.138969 
L 367.337344 221.138969 
L 367.337344 212.738969 
L 343.337344 212.738969 
z
" style="fill: #1f77b4; stroke: #404040; stroke-width: 0.9; stroke-linejoin: miter"/>
    </g>
    <g id="text_19">
     <!-- Thermal-only -->
     <g transform="translate(376.937344 221.138969) scale(0.11 -0.11)">
      <defs>
       <path id="DejaVuSans-Bold-54" d="M 31 4666 
L 4331 4666 
L 4331 3756 
L 2784 3756 
L 2784 0 
L 1581 0 
L 1581 3756 
L 31 3756 
L 31 4666 
z
" transform="scale(0.015625)"/>
       <path id="DejaVuSans-Bold-68" d="M 4056 2131 
L 4056 0 
L 2931 0 
L 2931 347 
L 2931 1625 
Q 2931 2084 2911 2256 
Q 2891 2428 2841 2509 
Q 2775 2619 2662 2680 
Q 2550 2741 2406 2741 
Q 2056 2741 1856 2470 
Q 1656 2200 1656 1722 
L 1656 0 
L 538 0 
L 538 4863 
L 1656 4863 
L 1656 2988 
Q 1909 3294 2193 3439 
Q 2478 3584 2822 3584 
Q 3428 3584 3742 3212 
Q 4056 2841 4056 2131 
z
" transform="scale(0.015625)"/>
       <path id="DejaVuSans-Bold-6d" d="M 3781 2919 
Q 3994 3244 4286 3414 
Q 4578 3584 4928 3584 
Q 5531 3584 5847 3212 
Q 6163 2841 6163 2131 
L 6163 0 
L 5038 0 
L 5038 1825 
Q 5041 1866 5042 1909 
Q 5044 1953 5044 2034 
Q 5044 2406 4934 2573 
Q 4825 2741 4581 2741 
Q 4263 2741 4089 2478 
Q 3916 2216 3909 1719 
L 3909 0 
L 2784 0 
L 2784 1825 
Q 2784 2406 2684 2573 
Q 2584 2741 2328 2741 
Q 2006 2741 1831 2477 
Q 1656 2213 1656 1722 
L 1656 0 
L 531 0 
L 531 3500 
L 1656 3500 
L 1656 2988 
Q 1863 3284 2130 3434 
Q 2397 3584 2719 3584 
Q 3081 3584 3359 3409 
Q 3638 3234 3781 2919 
z
" transform="scale(0.015625)"/>
       <path id="DejaVuSans-Bold-6f" d="M 2203 2784 
Q 1831 2784 1636 2517 
Q 1441 2250 1441 1747 
Q 1441 1244 1636 976 
Q 1831 709 2203 709 
Q 2569 709 2762 976 
Q 2956 1244 2956 1747 
Q 2956 2250 2762 2517 
Q 2569 2784 2203 2784 
z
M 2203 3584 
Q 3106 3584 3614 3096 
Q 4122 2609 4122 1747 
Q 4122 884 3614 396 
Q 3106 -91 2203 -91 
Q 1297 -91 786 396 
Q 275 884 275 1747 
Q 275 2609 786 3096 
Q 1297 3584 2203 3584 
z
" transform="scale(0.015625)"/>
       <path id="DejaVuSans-Bold-6e" d="M 4056 2131 
L 4056 0 
L 2931 0 
L 2931 347 
L 2931 1631 
Q 2931 2084 2911 2256 
Q 2891 2428 2841 2509 
Q 2775 2619 2662 2680 
Q 2550 2741 2406 2741 
Q 2056 2741 1856 2470 
Q 1656 2200 1656 1722 
L 1656 0 
L 538 0 
L 538 3500 
L 1656 3500 
L 1656 2988 
Q 1909 3294 2193 3439 
Q 2478 3584 2822 3584 
Q 3428 3584 3742 3212 
Q 4056 2841 4056 2131 
z
" transform="scale(0.015625)"/>
       <path id="DejaVuSans-Bold-79" d="M 78 3500 
L 1197 3500 
L 2138 1125 
L 2938 3500 
L 4056 3500 
L 2584 -331 
Q 2363 -916 2067 -1148 
Q 1772 -1381 1288 -1381 
L 641 -1381 
L 641 -647 
L 991 -647 
Q 1275 -647 1404 -556 
Q 1534 -466 1606 -231 
L 1638 -134 
L 78 3500 
z
" transform="scale(0.015625)"/>
      </defs>
      <use xlink:href="#DejaVuSans-Bold-54"/>
      <use xlink:href="#DejaVuSans-Bold-68" transform="translate(68.212891 0)"/>
      <use xlink:href="#DejaVuSans-Bold-65" transform="translate(139.404297 0)"/>
      <use xlink:href="#DejaVuSans-Bold-72" transform="translate(207.226562 0)"/>
      <use xlink:href="#DejaVuSans-Bold-6d" transform="translate(256.542969 0)"/>
      <use xlink:href="#DejaVuSans-Bold-61" transform="translate(360.742188 0)"/>
      <use xlink:href="#DejaVuSans-Bold-6c" transform="translate(428.222656 0)"/>
      <use xlink:href="#DejaVuSans-Bold-2d" transform="translate(462.5 0)"/>
      <use xlink:href="#DejaVuSans-Bold-6f" transform="translate(504.003906 0)"/>
      <use xlink:href="#DejaVuSans-Bold-6e" transform="translate(572.705078 0)"/>
      <use xlink:href="#DejaVuSans-Bold-6c" transform="translate(643.896484 0)"/>
      <use xlink:href="#DejaVuSans-Bold-79" transform="translate(678.173828 0)"/>
     </g>
    </g>
    <g id="patch_39">
     <path d="M 343.337344 237.912562 
L 367.337344 237.912562 
L 367.337344 229.512562 
L 343.337344 229.512562 
z
" style="fill: #ff7f0e; stroke: #404040; stroke-width: 0.9; stroke-linejoin: miter"/>
    </g>
    <g id="text_20">
     <!-- RGB-only -->
     <g transform="translate(376.937344 237.912562) scale(0.11 -0.11)">
      <defs>
       <path id="DejaVuSans-Bold-52" d="M 2297 2597 
Q 2675 2597 2839 2737 
Q 3003 2878 3003 3200 
Q 3003 3519 2839 3656 
Q 2675 3794 2297 3794 
L 1791 3794 
L 1791 2597 
L 2297 2597 
z
M 1791 1766 
L 1791 0 
L 588 0 
L 588 4666 
L 2425 4666 
Q 3347 4666 3776 4356 
Q 4206 4047 4206 3378 
Q 4206 2916 3982 2619 
Q 3759 2322 3309 2181 
Q 3556 2125 3751 1926 
Q 3947 1728 4147 1325 
L 4800 0 
L 3519 0 
L 2950 1159 
Q 2778 1509 2601 1637 
Q 2425 1766 2131 1766 
L 1791 1766 
z
" transform="scale(0.015625)"/>
       <path id="DejaVuSans-Bold-47" d="M 4781 347 
Q 4331 128 3847 18 
Q 3363 -91 2847 -91 
Q 1681 -91 1000 561 
Q 319 1213 319 2328 
Q 319 3456 1012 4103 
Q 1706 4750 2913 4750 
Q 3378 4750 3804 4662 
Q 4231 4575 4609 4403 
L 4609 3438 
Q 4219 3659 3833 3768 
Q 3447 3878 3059 3878 
Q 2341 3878 1952 3476 
Q 1563 3075 1563 2328 
Q 1563 1588 1938 1184 
Q 2313 781 3003 781 
Q 3191 781 3352 804 
Q 3513 828 3641 878 
L 3641 1784 
L 2906 1784 
L 2906 2591 
L 4781 2591 
L 4781 347 
z
" transform="scale(0.015625)"/>
       <path id="DejaVuSans-Bold-42" d="M 2456 2859 
Q 2741 2859 2887 2984 
Q 3034 3109 3034 3353 
Q 3034 3594 2887 3720 
Q 2741 3847 2456 3847 
L 1791 3847 
L 1791 2859 
L 2456 2859 
z
M 2497 819 
Q 2859 819 3042 972 
Q 3225 1125 3225 1434 
Q 3225 1738 3044 1889 
Q 2863 2041 2497 2041 
L 1791 2041 
L 1791 819 
L 2497 819 
z
M 3616 2497 
Q 4003 2384 4215 2081 
Q 4428 1778 4428 1338 
Q 4428 663 3972 331 
Q 3516 0 2584 0 
L 588 0 
L 588 4666 
L 2394 4666 
Q 3366 4666 3802 4372 
Q 4238 4078 4238 3431 
Q 4238 3091 4078 2852 
Q 3919 2613 3616 2497 
z
" transform="scale(0.015625)"/>
      </defs>
      <use xlink:href="#DejaVuSans-Bold-52"/>
      <use xlink:href="#DejaVuSans-Bold-47" transform="translate(77.001953 0)"/>
      <use xlink:href="#DejaVuSans-Bold-42" transform="translate(159.082031 0)"/>
      <use xlink:href="#DejaVuSans-Bold-2d" transform="translate(235.302734 0)"/>
      <use xlink:href="#DejaVuSans-Bold-6f" transform="translate(276.806641 0)"/>
      <use xlink:href="#DejaVuSans-Bold-6e" transform="translate(345.507812 0)"/>
      <use xlink:href="#DejaVuSans-Bold-6c" transform="translate(416.699219 0)"/>
      <use xlink:href="#DejaVuSans-Bold-79" transform="translate(450.976562 0)"/>
     </g>
    </g>
    <g id="patch_40">
     <path d="M 343.337344 254.686156 
L 367.337344 254.686156 
L 367.337344 246.286156 
L 343.337344 246.286156 
z
" style="fill: #2ca02c; stroke: #404040; stroke-width: 0.9; stroke-linejoin: miter"/>
    </g>
    <g id="text_21">
     <!-- Ours (T+RGB) -->
     <g transform="translate(376.937344 254.686156) scale(0.11 -0.11)">
      <defs>
       <path id="DejaVuSans-Bold-4f" d="M 2719 3878 
Q 2169 3878 1866 3472 
Q 1563 3066 1563 2328 
Q 1563 1594 1866 1187 
Q 2169 781 2719 781 
Q 3272 781 3575 1187 
Q 3878 1594 3878 2328 
Q 3878 3066 3575 3472 
Q 3272 3878 2719 3878 
z
M 2719 4750 
Q 3844 4750 4481 4106 
Q 5119 3463 5119 2328 
Q 5119 1197 4481 553 
Q 3844 -91 2719 -91 
Q 1597 -91 958 553 
Q 319 1197 319 2328 
Q 319 3463 958 4106 
Q 1597 4750 2719 4750 
z
" transform="scale(0.015625)"/>
       <path id="DejaVuSans-Bold-75" d="M 500 1363 
L 500 3500 
L 1625 3500 
L 1625 3150 
Q 1625 2866 1622 2436 
Q 1619 2006 1619 1863 
Q 1619 1441 1641 1255 
Q 1663 1069 1716 984 
Q 1784 875 1895 815 
Q 2006 756 2150 756 
Q 2500 756 2700 1025 
Q 2900 1294 2900 1772 
L 2900 3500 
L 4019 3500 
L 4019 0 
L 2900 0 
L 2900 506 
Q 2647 200 2364 54 
Q 2081 -91 1741 -91 
Q 1134 -91 817 281 
Q 500 653 500 1363 
z
" transform="scale(0.015625)"/>
       <path id="DejaVuSans-Bold-28" d="M 2413 -844 
L 1484 -844 
Q 1006 -72 778 623 
Q 550 1319 550 2003 
Q 550 2688 779 3389 
Q 1009 4091 1484 4856 
L 2413 4856 
Q 2013 4116 1813 3408 
Q 1613 2700 1613 2009 
Q 1613 1319 1811 609 
Q 2009 -100 2413 -844 
z
" transform="scale(0.015625)"/>
       <path id="DejaVuSans-Bold-2b" d="M 3053 4013 
L 3053 2375 
L 4684 2375 
L 4684 1638 
L 3053 1638 
L 3053 0 
L 2309 0 
L 2309 1638 
L 678 1638 
L 678 2375 
L 2309 2375 
L 2309 4013 
L 3053 4013 
z
" transform="scale(0.015625)"/>
       <path id="DejaVuSans-Bold-29" d="M 513 -844 
Q 913 -100 1113 609 
Q 1313 1319 1313 2009 
Q 1313 2700 1113 3408 
Q 913 4116 513 4856 
L 1441 4856 
Q 1916 4091 2145 3389 
Q 2375 2688 2375 2003 
Q 2375 1319 2147 623 
Q 1919 -72 1441 -844 
L 513 -844 
z
" transform="scale(0.015625)"/>
      </defs>
      <use xlink:href="#DejaVuSans-Bold-4f"/>
      <use xlink:href="#DejaVuSans-Bold-75" transform="translate(85.009766 0)"/>
      <use xlink:href="#DejaVuSans-Bold-72" transform="translate(156.201172 0)"/>
      <use xlink:href="#DejaVuSans-Bold-73" transform="translate(205.517578 0)"/>
      <use xlink:href="#DejaVuSans-Bold-20" transform="translate(265.039062 0)"/>
      <use xlink:href="#DejaVuSans-Bold-28" transform="translate(299.853516 0)"/>
      <use xlink:href="#DejaVuSans-Bold-54" transform="translate(345.556641 0)"/>
      <use xlink:href="#DejaVuSans-Bold-2b" transform="translate(413.769531 0)"/>
      <use xlink:href="#DejaVuSans-Bold-52" transform="translate(497.558594 0)"/>
      <use xlink:href="#DejaVuSans-Bold-47" transform="translate(574.560547 0)"/>
      <use xlink:href="#DejaVuSans-Bold-42" transform="translate(656.640625 0)"/>
      <use xlink:href="#DejaVuSans-Bold-29" transform="translate(732.861328 0)"/>
     </g>
    </g>
   </g>
  </g>
 </g>
 <defs>
  <clipPath id="p6379cf77ec">
   <rect x="49.299219" y="23.837812" width="424.08" height="243.936"/>
  </clipPath>
 </defs>
</svg>
