<?xml version="1.0" encoding="utf-8" standalone="no"?>
<!DOCTYPE svg PUBLIC "-//W3C//DTD SVG 1.1//EN"
  "http://www.w3.org/Graphics/SVG/1.1/DTD/svg11.dtd">
<svg xmlns:xlink="http://www.w3.org/1999/xlink" width="412.967031pt" height="304.339375pt" viewBox="0 0 412.967031 304.339375" xmlns="http://www.w3.org/2000/svg" version="1.1">
 <metadata>
  <rdf:RDF xmlns:dc="http://purl.org/dc/elements/1.1/" xmlns:cc="http://creativecommons.org/ns#" xmlns:rdf="http://www.w3.org/1999/02/22-rdf-syntax-ns#">
   <cc:Work>
    <dc:type rdf:resource="http://purl.org/dc/dcmitype/StillImage"/>
    <dc:date>2025-11-20T12:53:04.794622</dc:date>
    <dc:format>image/svg+xml</dc:format>
    <dc:creator>
     <cc:Agent>
      <dc:title>Matplotlib v3.10.5, https://matplotlib.org/</dc:title>
     </cc:Agent>
    </dc:creator>
   </cc:Work>
  </rdf:RDF>
 </metadata>
 <defs>
  <style type="text/css">*{stroke-linejoin: round; stroke-linecap: butt}</style>
 </defs>
 <g id="figure_1">
  <g id="patch_1">
   <path d="M 0 304.339375 
L 412.967031 304.339375 
L 412.967031 0 
L 0 0 
z
" style="fill: #ffffff"/>
  </g>
  <g id="axes_1">
   <g id="patch_2">
    <path d="M 59.039688 254.637188 
L 393.839688 254.637188 
L 393.839688 32.877187 
L 59.039688 32.877187 
z
" style="fill: #fdfdfb"/>
   </g>
   <g id="matplotlib.axis_1">
    <g id="xtick_1">
     <g id="line2d_1">
      <path d="M 59.039688 254.637188 
L 59.039688 32.877187 
" clip-path="url(#p554b4e2427)" style="fill: none; stroke: #b7bfcc; stroke-opacity: 0.65; stroke-width: 0.95; stroke-linecap: square"/>
     </g>
     <g id="line2d_2">
      <defs>
       <path id="m0449a42b3d" d="M 0 0 
L 0 5 
" style="stroke: #1f2937; stroke-width: 1.05"/>
      </defs>
      <g>
       <use xlink:href="#m0449a42b3d" x="59.039688" y="254.637188" style="fill: #1f2937; stroke: #1f2937; stroke-width: 1.05"/>
      </g>
     </g>
     <g id="text_1">
      <!-- 0.0 -->
      <g transform="translate(47.112344 274.534844) scale(0.15 -0.15)">
       <defs>
        <path id="DejaVuSans-30" d="M 2034 4250 
Q 1547 4250 1301 3770 
Q 1056 3291 1056 2328 
Q 1056 1369 1301 889 
Q 1547 409 2034 409 
Q 2525 409 2770 889 
Q 3016 1369 3016 2328 
Q 3016 3291 2770 3770 
Q 2525 4250 2034 4250 
z
M 2034 4750 
Q 2819 4750 3233 4129 
Q 3647 3509 3647 2328 
Q 3647 1150 3233 529 
Q 2819 -91 2034 -91 
Q 1250 -91 836 529 
Q 422 1150 422 2328 
Q 422 3509 836 4129 
Q 1250 4750 2034 4750 
z
" transform="scale(0.015625)"/>
        <path id="DejaVuSans-2e" d="M 684 794 
L 1344 794 
L 1344 0 
L 684 0 
L 684 794 
z
" transform="scale(0.015625)"/>
       </defs>
       <use xlink:href="#DejaVuSans-30"/>
       <use xlink:href="#DejaVuSans-2e" transform="translate(63.623047 0)"/>
       <use xlink:href="#DejaVuSans-30" transform="translate(95.410156 0)"/>
      </g>
     </g>
    </g>
    <g id="xtick_2">
     <g id="line2d_3">
      <path d="M 125.999688 254.637188 
L 125.999688 32.877187 
" clip-path="url(#p554b4e2427)" style="fill: none; stroke: #b7bfcc; stroke-opacity: 0.65; stroke-width: 0.95; stroke-linecap: square"/>
     </g>
     <g id="line2d_4">
      <g>
       <use xlink:href="#m0449a42b3d" x="125.999688" y="254.637188" style="fill: #1f2937; stroke: #1f2937; stroke-width: 1.05"/>
      </g>
     </g>
     <g id="text_2">
      <!-- 0.2 -->
      <g transform="translate(114.072344 274.534844) scale(0.15 -0.15)">
       <defs>
        <path id="DejaVuSans-32" d="M 1228 531 
L 3431 531 
L 3431 0 
L 469 0 
L 469 531 
Q 828 903 1448 1529 
Q 2069 2156 2228 2338 
Q 2531 2678 2651 2914 
Q 2772 3150 2772 3378 
Q 2772 3750 2511 3984 
Q 2250 4219 1831 4219 
Q 1534 4219 1204 4116 
Q 875 4013 500 3803 
L 500 4441 
Q 881 4594 1212 4672 
Q 1544 4750 1819 4750 
Q 2544 4750 2975 4387 
Q 3406 4025 3406 3419 
Q 3406 3131 3298 2873 
Q 3191 2616 2906 2266 
Q 2828 2175 2409 1742 
Q 1991 1309 1228 531 
z
" transform="scale(0.015625)"/>
       </defs>
       <use xlink:href="#DejaVuSans-30"/>
       <use xlink:href="#DejaVuSans-2e" transform="translate(63.623047 0)"/>
       <use xlink:href="#DejaVuSans-32" transform="translate(95.410156 0)"/>
      </g>
     </g>
    </g>
    <g id="xtick_3">
     <g id="line2d_5">
      <path d="M 192.959688 254.637188 
L 192.959688 32.877187 
" clip-path="url(#p554b4e2427)" style="fill: none; stroke: #b7bfcc; stroke-opacity: 0.65; stroke-width: 0.95; stroke-linecap: square"/>
     </g>
     <g id="line2d_6">
      <g>
       <use xlink:href="#m0449a42b3d" x="192.959688" y="254.637188" style="fill: #1f2937; stroke: #1f2937; stroke-width: 1.05"/>
      </g>
     </g>
     <g id="text_3">
      <!-- 0.4 -->
      <g transform="translate(181.032344 274.534844) scale(0.15 -0.15)">
       <defs>
        <path id="DejaVuSans-34" d="M 2419 4116 
L 825 1625 
L 2419 1625 
L 2419 4116 
z
M 2253 4666 
L 3047 4666 
L 3047 1625 
L 3713 1625 
L 3713 1100 
L 3047 1100 
L 3047 0 
L 2419 0 
L 2419 1100 
L 313 1100 
L 313 1709 
L 2253 4666 
z
" transform="scale(0.015625)"/>
       </defs>
       <use xlink:href="#DejaVuSans-30"/>
       <use xlink:href="#DejaVuSans-2e" transform="translate(63.623047 0)"/>
       <use xlink:href="#DejaVuSans-34" transform="translate(95.410156 0)"/>
      </g>
     </g>
    </g>
    <g id="xtick_4">
     <g id="line2d_7">
      <path d="M 259.919688 254.637188 
L 259.919688 32.877187 
" clip-path="url(#p554b4e2427)" style="fill: none; stroke: #b7bfcc; stroke-opacity: 0.65; stroke-width: 0.95; stroke-linecap: square"/>
     </g>
     <g id="line2d_8">
      <g>
       <use xlink:href="#m0449a42b3d" x="259.919688" y="254.637188" style="fill: #1f2937; stroke: #1f2937; stroke-width: 1.05"/>
      </g>
     </g>
     <g id="text_4">
      <!-- 0.6 -->
      <g transform="translate(247.992344 274.534844) scale(0.15 -0.15)">
       <defs>
        <path id="DejaVuSans-36" d="M 2113 2584 
Q 1688 2584 1439 2293 
Q 1191 2003 1191 1497 
Q 1191 994 1439 701 
Q 1688 409 2113 409 
Q 2538 409 2786 701 
Q 3034 994 3034 1497 
Q 3034 2003 2786 2293 
Q 2538 2584 2113 2584 
z
M 3366 4563 
L 3366 3988 
Q 3128 4100 2886 4159 
Q 2644 4219 2406 4219 
Q 1781 4219 1451 3797 
Q 1122 3375 1075 2522 
Q 1259 2794 1537 2939 
Q 1816 3084 2150 3084 
Q 2853 3084 3261 2657 
Q 3669 2231 3669 1497 
Q 3669 778 3244 343 
Q 2819 -91 2113 -91 
Q 1303 -91 875 529 
Q 447 1150 447 2328 
Q 447 3434 972 4092 
Q 1497 4750 2381 4750 
Q 2619 4750 2861 4703 
Q 3103 4656 3366 4563 
z
" transform="scale(0.015625)"/>
       </defs>
       <use xlink:href="#DejaVuSans-30"/>
       <use xlink:href="#DejaVuSans-2e" transform="translate(63.623047 0)"/>
       <use xlink:href="#DejaVuSans-36" transform="translate(95.410156 0)"/>
      </g>
     </g>
    </g>
    <g id="xtick_5">
     <g id="line2d_9">
      <path d="M 326.879688 254.637188 
L 326.879688 32.877187 
" clip-path="url(#p554b4e2427)" style="fill: none; stroke: #b7bfcc; stroke-opacity: 0.65; stroke-width: 0.95; stroke-linecap: square"/>
     </g>
     <g id="line2d_10">
      <g>
       <use xlink:href="#m0449a42b3d" x="326.879688" y="254.637188" style="fill: #1f2937; stroke: #1f2937; stroke-width: 1.05"/>
      </g>
     </g>
     <g id="text_5">
      <!-- 0.8 -->
      <g transform="translate(314.952344 274.534844) scale(0.15 -0.15)">
       <defs>
        <path id="DejaVuSans-38" d="M 2034 2216 
Q 1584 2216 1326 1975 
Q 1069 1734 1069 1313 
Q 1069 891 1326 650 
Q 1584 409 2034 409 
Q 2484 409 2743 651 
Q 3003 894 3003 1313 
Q 3003 1734 2745 1975 
Q 2488 2216 2034 2216 
z
M 1403 2484 
Q 997 2584 770 2862 
Q 544 3141 544 3541 
Q 544 4100 942 4425 
Q 1341 4750 2034 4750 
Q 2731 4750 3128 4425 
Q 3525 4100 3525 3541 
Q 3525 3141 3298 2862 
Q 3072 2584 2669 2484 
Q 3125 2378 3379 2068 
Q 3634 1759 3634 1313 
Q 3634 634 3220 271 
Q 2806 -91 2034 -91 
Q 1263 -91 848 271 
Q 434 634 434 1313 
Q 434 1759 690 2068 
Q 947 2378 1403 2484 
z
M 1172 3481 
Q 1172 3119 1398 2916 
Q 1625 2713 2034 2713 
Q 2441 2713 2670 2916 
Q 2900 3119 2900 3481 
Q 2900 3844 2670 4047 
Q 2441 4250 2034 4250 
Q 1625 4250 1398 4047 
Q 1172 3844 1172 3481 
z
" transform="scale(0.015625)"/>
       </defs>
       <use xlink:href="#DejaVuSans-30"/>
       <use xlink:href="#DejaVuSans-2e" transform="translate(63.623047 0)"/>
       <use xlink:href="#DejaVuSans-38" transform="translate(95.410156 0)"/>
      </g>
     </g>
    </g>
    <g id="xtick_6">
     <g id="line2d_11">
      <path d="M 393.839688 254.637188 
L 393.839688 32.877187 
" clip-path="url(#p554b4e2427)" style="fill: none; stroke: #b7bfcc; stroke-opacity: 0.65; stroke-width: 0.95; stroke-linecap: square"/>
     </g>
     <g id="line2d_12">
      <g>
       <use xlink:href="#m0449a42b3d" x="393.839688" y="254.637188" style="fill: #1f2937; stroke: #1f2937; stroke-width: 1.05"/>
      </g>
     </g>
     <g id="text_6">
      <!-- 1.0 -->
      <g transform="translate(381.912344 274.534844) scale(0.15 -0.15)">
       <defs>
        <path id="DejaVuSans-31" d="M 794 531 
L 1825 531 
L 1825 4091 
L 703 3866 
L 703 4441 
L 1819 4666 
L 2450 4666 
L 2450 531 
L 3481 531 
L 3481 0 
L 794 0 
L 794 531 
z
" transform="scale(0.015625)"/>
       </defs>
       <use xlink:href="#DejaVuSans-31"/>
       <use xlink:href="#DejaVuSans-2e" transform="translate(63.623047 0)"/>
       <use xlink:href="#DejaVuSans-30" transform="translate(95.410156 0)"/>
      </g>
     </g>
    </g>
    <g id="xtick_7">
     <g id="line2d_13">
      <path d="M 75.779688 254.637188 
L 75.779688 32.877187 
" clip-path="url(#p554b4e2427)" style="fill: none; stroke: #d4d9e1; stroke-opacity: 0.5; stroke-width: 0.7; stroke-linecap: square"/>
     </g>
     <g id="line2d_14">
      <defs>
       <path id="mf044ee1176" d="M 0 0 
L 0 2 
" style="stroke: #000000; stroke-width: 0.6"/>
      </defs>
      <g>
       <use xlink:href="#mf044ee1176" x="75.779688" y="254.637188" style="stroke: #000000; stroke-width: 0.6"/>
      </g>
     </g>
    </g>
    <g id="xtick_8">
     <g id="line2d_15">
      <path d="M 92.519688 254.637188 
L 92.519688 32.877187 
" clip-path="url(#p554b4e2427)" style="fill: none; stroke: #d4d9e1; stroke-opacity: 0.5; stroke-width: 0.7; stroke-linecap: square"/>
     </g>
     <g id="line2d_16">
      <g>
       <use xlink:href="#mf044ee1176" x="92.519688" y="254.637188" style="stroke: #000000; stroke-width: 0.6"/>
      </g>
     </g>
    </g>
    <g id="xtick_9">
     <g id="line2d_17">
      <path d="M 109.259688 254.637188 
L 109.259688 32.877187 
" clip-path="url(#p554b4e2427)" style="fill: none; stroke: #d4d9e1; stroke-opacity: 0.5; stroke-width: 0.7; stroke-linecap: square"/>
     </g>
     <g id="line2d_18">
      <g>
       <use xlink:href="#mf044ee1176" x="109.259688" y="254.637188" style="stroke: #000000; stroke-width: 0.6"/>
      </g>
     </g>
    </g>
    <g id="xtick_10">
     <g id="line2d_19">
      <path d="M 142.739688 254.637188 
L 142.739688 32.877187 
" clip-path="url(#p554b4e2427)" style="fill: none; stroke: #d4d9e1; stroke-opacity: 0.5; stroke-width: 0.7; stroke-linecap: square"/>
     </g>
     <g id="line2d_20">
      <g>
       <use xlink:href="#mf044ee1176" x="142.739688" y="254.637188" style="stroke: #000000; stroke-width: 0.6"/>
      </g>
     </g>
    </g>
    <g id="xtick_11">
     <g id="line2d_21">
      <path d="M 159.479688 254.637188 
L 159.479688 32.877187 
" clip-path="url(#p554b4e2427)" style="fill: none; stroke: #d4d9e1; stroke-opacity: 0.5; stroke-width: 0.7; stroke-linecap: square"/>
     </g>
     <g id="line2d_22">
      <g>
       <use xlink:href="#mf044ee1176" x="159.479688" y="254.637188" style="stroke: #000000; stroke-width: 0.6"/>
      </g>
     </g>
    </g>
    <g id="xtick_12">
     <g id="line2d_23">
      <path d="M 176.219688 254.637188 
L 176.219688 32.877187 
" clip-path="url(#p554b4e2427)" style="fill: none; stroke: #d4d9e1; stroke-opacity: 0.5; stroke-width: 0.7; stroke-linecap: square"/>
     </g>
     <g id="line2d_24">
      <g>
       <use xlink:href="#mf044ee1176" x="176.219688" y="254.637188" style="stroke: #000000; stroke-width: 0.6"/>
      </g>
     </g>
    </g>
    <g id="xtick_13">
     <g id="line2d_25">
      <path d="M 209.699688 254.637188 
L 209.699688 32.877187 
" clip-path="url(#p554b4e2427)" style="fill: none; stroke: #d4d9e1; stroke-opacity: 0.5; stroke-width: 0.7; stroke-linecap: square"/>
     </g>
     <g id="line2d_26">
      <g>
       <use xlink:href="#mf044ee1176" x="209.699688" y="254.637188" style="stroke: #000000; stroke-width: 0.6"/>
      </g>
     </g>
    </g>
    <g id="xtick_14">
     <g id="line2d_27">
      <path d="M 226.439688 254.637188 
L 226.439688 32.877187 
" clip-path="url(#p554b4e2427)" style="fill: none; stroke: #d4d9e1; stroke-opacity: 0.5; stroke-width: 0.7; stroke-linecap: square"/>
     </g>
     <g id="line2d_28">
      <g>
       <use xlink:href="#mf044ee1176" x="226.439688" y="254.637188" style="stroke: #000000; stroke-width: 0.6"/>
      </g>
     </g>
    </g>
    <g id="xtick_15">
     <g id="line2d_29">
      <path d="M 243.179688 254.637188 
L 243.179688 32.877187 
" clip-path="url(#p554b4e2427)" style="fill: none; stroke: #d4d9e1; stroke-opacity: 0.5; stroke-width: 0.7; stroke-linecap: square"/>
     </g>
     <g id="line2d_30">
      <g>
       <use xlink:href="#mf044ee1176" x="243.179688" y="254.637188" style="stroke: #000000; stroke-width: 0.6"/>
      </g>
     </g>
    </g>
    <g id="xtick_16">
     <g id="line2d_31">
      <path d="M 276.659688 254.637188 
L 276.659688 32.877187 
" clip-path="url(#p554b4e2427)" style="fill: none; stroke: #d4d9e1; stroke-opacity: 0.5; stroke-width: 0.7; stroke-linecap: square"/>
     </g>
     <g id="line2d_32">
      <g>
       <use xlink:href="#mf044ee1176" x="276.659688" y="254.637188" style="stroke: #000000; stroke-width: 0.6"/>
      </g>
     </g>
    </g>
    <g id="xtick_17">
     <g id="line2d_33">
      <path d="M 293.399688 254.637188 
L 293.399688 32.877187 
" clip-path="url(#p554b4e2427)" style="fill: none; stroke: #d4d9e1; stroke-opacity: 0.5; stroke-width: 0.7; stroke-linecap: square"/>
     </g>
     <g id="line2d_34">
      <g>
       <use xlink:href="#mf044ee1176" x="293.399688" y="254.637188" style="stroke: #000000; stroke-width: 0.6"/>
      </g>
     </g>
    </g>
    <g id="xtick_18">
     <g id="line2d_35">
      <path d="M 310.139688 254.637188 
L 310.139688 32.877187 
" clip-path="url(#p554b4e2427)" style="fill: none; stroke: #d4d9e1; stroke-opacity: 0.5; stroke-width: 0.7; stroke-linecap: square"/>
     </g>
     <g id="line2d_36">
      <g>
       <use xlink:href="#mf044ee1176" x="310.139688" y="254.637188" style="stroke: #000000; stroke-width: 0.6"/>
      </g>
     </g>
    </g>
    <g id="xtick_19">
     <g id="line2d_37">
      <path d="M 343.619688 254.637188 
L 343.619688 32.877187 
" clip-path="url(#p554b4e2427)" style="fill: none; stroke: #d4d9e1; stroke-opacity: 0.5; stroke-width: 0.7; stroke-linecap: square"/>
     </g>
     <g id="line2d_38">
      <g>
       <use xlink:href="#mf044ee1176" x="343.619688" y="254.637188" style="stroke: #000000; stroke-width: 0.6"/>
      </g>
     </g>
    </g>
    <g id="xtick_20">
     <g id="line2d_39">
      <path d="M 360.359688 254.637188 
L 360.359688 32.877187 
" clip-path="url(#p554b4e2427)" style="fill: none; stroke: #d4d9e1; stroke-opacity: 0.5; stroke-width: 0.7; stroke-linecap: square"/>
     </g>
     <g id="line2d_40">
      <g>
       <use xlink:href="#mf044ee1176" x="360.359688" y="254.637188" style="stroke: #000000; stroke-width: 0.6"/>
      </g>
     </g>
    </g>
    <g id="xtick_21">
     <g id="line2d_41">
      <path d="M 377.099688 254.637188 
L 377.099688 32.877187 
" clip-path="url(#p554b4e2427)" style="fill: none; stroke: #d4d9e1; stroke-opacity: 0.5; stroke-width: 0.7; stroke-linecap: square"/>
     </g>
     <g id="line2d_42">
      <g>
       <use xlink:href="#mf044ee1176" x="377.099688" y="254.637188" style="stroke: #000000; stroke-width: 0.6"/>
      </g>
     </g>
    </g>
    <g id="text_7">
     <!-- Recall -->
     <g style="fill: #0f172a" transform="translate(199.227188 293.811875) scale(0.16 -0.16)">
      <defs>
       <path id="DejaVuSans-Bold-52" d="M 2297 2597 
Q 2675 2597 2839 2737 
Q 3003 2878 3003 3200 
Q 3003 3519 2839 3656 
Q 2675 3794 2297 3794 
L 1791 3794 
L 1791 2597 
L 2297 2597 
z
M 1791 1766 
L 1791 0 
L 588 0 
L 588 4666 
L 2425 4666 
Q 3347 4666 3776 4356 
Q 4206 4047 4206 3378 
Q 4206 2916 3982 2619 
Q 3759 2322 3309 2181 
Q 3556 2125 3751 1926 
Q 3947 1728 4147 1325 
L 4800 0 
L 3519 0 
L 2950 1159 
Q 2778 1509 2601 1637 
Q 2425 1766 2131 1766 
L 1791 1766 
z
" transform="scale(0.015625)"/>
       <path id="DejaVuSans-Bold-65" d="M 4031 1759 
L 4031 1441 
L 1416 1441 
Q 1456 1047 1700 850 
Q 1944 653 2381 653 
Q 2734 653 3104 758 
Q 3475 863 3866 1075 
L 3866 213 
Q 3469 63 3072 -14 
Q 2675 -91 2278 -91 
Q 1328 -91 801 392 
Q 275 875 275 1747 
Q 275 2603 792 3093 
Q 1309 3584 2216 3584 
Q 3041 3584 3536 3087 
Q 4031 2591 4031 1759 
z
M 2881 2131 
Q 2881 2450 2695 2645 
Q 2509 2841 2209 2841 
Q 1884 2841 1681 2658 
Q 1478 2475 1428 2131 
L 2881 2131 
z
" transform="scale(0.015625)"/>
       <path id="DejaVuSans-Bold-63" d="M 3366 3391 
L 3366 2478 
Q 3138 2634 2908 2709 
Q 2678 2784 2431 2784 
Q 1963 2784 1702 2511 
Q 1441 2238 1441 1747 
Q 1441 1256 1702 982 
Q 1963 709 2431 709 
Q 2694 709 2930 787 
Q 3166 866 3366 1019 
L 3366 103 
Q 3103 6 2833 -42 
Q 2563 -91 2291 -91 
Q 1344 -91 809 395 
Q 275 881 275 1747 
Q 275 2613 809 3098 
Q 1344 3584 2291 3584 
Q 2566 3584 2833 3536 
Q 3100 3488 3366 3391 
z
" transform="scale(0.015625)"/>
       <path id="DejaVuSans-Bold-61" d="M 2106 1575 
Q 1756 1575 1579 1456 
Q 1403 1338 1403 1106 
Q 1403 894 1545 773 
Q 1688 653 1941 653 
Q 2256 653 2472 879 
Q 2688 1106 2688 1447 
L 2688 1575 
L 2106 1575 
z
M 3816 1997 
L 3816 0 
L 2688 0 
L 2688 519 
Q 2463 200 2181 54 
Q 1900 -91 1497 -91 
Q 953 -91 614 226 
Q 275 544 275 1050 
Q 275 1666 698 1953 
Q 1122 2241 2028 2241 
L 2688 2241 
L 2688 2328 
Q 2688 2594 2478 2717 
Q 2269 2841 1825 2841 
Q 1466 2841 1156 2769 
Q 847 2697 581 2553 
L 581 3406 
Q 941 3494 1303 3539 
Q 1666 3584 2028 3584 
Q 2975 3584 3395 3211 
Q 3816 2838 3816 1997 
z
" transform="scale(0.015625)"/>
       <path id="DejaVuSans-Bold-6c" d="M 538 4863 
L 1656 4863 
L 1656 0 
L 538 0 
L 538 4863 
z
" transform="scale(0.015625)"/>
      </defs>
      <use xlink:href="#DejaVuSans-Bold-52"/>
      <use xlink:href="#DejaVuSans-Bold-65" transform="translate(77.001953 0)"/>
      <use xlink:href="#DejaVuSans-Bold-63" transform="translate(144.824219 0)"/>
      <use xlink:href="#DejaVuSans-Bold-61" transform="translate(204.101562 0)"/>
      <use xlink:href="#DejaVuSans-Bold-6c" transform="translate(271.582031 0)"/>
      <use xlink:href="#DejaVuSans-Bold-6c" transform="translate(305.859375 0)"/>
     </g>
    </g>
   </g>
   <g id="matplotlib.axis_2">
    <g id="ytick_1">
     <g id="line2d_43">
      <path d="M 59.039688 254.637188 
L 393.839688 254.637188 
" clip-path="url(#p554b4e2427)" style="fill: none; stroke: #b7bfcc; stroke-opacity: 0.65; stroke-width: 0.95; stroke-linecap: square"/>
     </g>
     <g id="line2d_44">
      <defs>
       <path id="m016e73ee22" d="M 0 0 
L -5 0 
" style="stroke: #1f2937; stroke-width: 1.05"/>
      </defs>
      <g>
       <use xlink:href="#m016e73ee22" x="59.039688" y="254.637188" style="fill: #1f2937; stroke: #1f2937; stroke-width: 1.05"/>
      </g>
     </g>
     <g id="text_8">
      <!-- 0.4 -->
      <g transform="translate(26.685 260.336016) scale(0.15 -0.15)">
       <use xlink:href="#DejaVuSans-30"/>
       <use xlink:href="#DejaVuSans-2e" transform="translate(63.623047 0)"/>
       <use xlink:href="#DejaVuSans-34" transform="translate(95.410156 0)"/>
      </g>
     </g>
    </g>
    <g id="ytick_2">
     <g id="line2d_45">
      <path d="M 59.039688 218.869446 
L 393.839688 218.869446 
" clip-path="url(#p554b4e2427)" style="fill: none; stroke: #b7bfcc; stroke-opacity: 0.65; stroke-width: 0.95; stroke-linecap: square"/>
     </g>
     <g id="line2d_46">
      <g>
       <use xlink:href="#m016e73ee22" x="59.039688" y="218.869446" style="fill: #1f2937; stroke: #1f2937; stroke-width: 1.05"/>
      </g>
     </g>
     <g id="text_9">
      <!-- 0.5 -->
      <g transform="translate(26.685 224.568274) scale(0.15 -0.15)">
       <defs>
        <path id="DejaVuSans-35" d="M 691 4666 
L 3169 4666 
L 3169 4134 
L 1269 4134 
L 1269 2991 
Q 1406 3038 1543 3061 
Q 1681 3084 1819 3084 
Q 2600 3084 3056 2656 
Q 3513 2228 3513 1497 
Q 3513 744 3044 326 
Q 2575 -91 1722 -91 
Q 1428 -91 1123 -41 
Q 819 9 494 109 
L 494 744 
Q 775 591 1075 516 
Q 1375 441 1709 441 
Q 2250 441 2565 725 
Q 2881 1009 2881 1497 
Q 2881 1984 2565 2268 
Q 2250 2553 1709 2553 
Q 1456 2553 1204 2497 
Q 953 2441 691 2322 
L 691 4666 
z
" transform="scale(0.015625)"/>
       </defs>
       <use xlink:href="#DejaVuSans-30"/>
       <use xlink:href="#DejaVuSans-2e" transform="translate(63.623047 0)"/>
       <use xlink:href="#DejaVuSans-35" transform="translate(95.410156 0)"/>
      </g>
     </g>
    </g>
    <g id="ytick_3">
     <g id="line2d_47">
      <path d="M 59.039688 183.101704 
L 393.839688 183.101704 
" clip-path="url(#p554b4e2427)" style="fill: none; stroke: #b7bfcc; stroke-opacity: 0.65; stroke-width: 0.95; stroke-linecap: square"/>
     </g>
     <g id="line2d_48">
      <g>
       <use xlink:href="#m016e73ee22" x="59.039688" y="183.101704" style="fill: #1f2937; stroke: #1f2937; stroke-width: 1.05"/>
      </g>
     </g>
     <g id="text_10">
      <!-- 0.6 -->
      <g transform="translate(26.685 188.800532) scale(0.15 -0.15)">
       <use xlink:href="#DejaVuSans-30"/>
       <use xlink:href="#DejaVuSans-2e" transform="translate(63.623047 0)"/>
       <use xlink:href="#DejaVuSans-36" transform="translate(95.410156 0)"/>
      </g>
     </g>
    </g>
    <g id="ytick_4">
     <g id="line2d_49">
      <path d="M 59.039688 147.333962 
L 393.839688 147.333962 
" clip-path="url(#p554b4e2427)" style="fill: none; stroke: #b7bfcc; stroke-opacity: 0.65; stroke-width: 0.95; stroke-linecap: square"/>
     </g>
     <g id="line2d_50">
      <g>
       <use xlink:href="#m016e73ee22" x="59.039688" y="147.333962" style="fill: #1f2937; stroke: #1f2937; stroke-width: 1.05"/>
      </g>
     </g>
     <g id="text_11">
      <!-- 0.7 -->
      <g transform="translate(26.685 153.03279) scale(0.15 -0.15)">
       <defs>
        <path id="DejaVuSans-37" d="M 525 4666 
L 3525 4666 
L 3525 4397 
L 1831 0 
L 1172 0 
L 2766 4134 
L 525 4134 
L 525 4666 
z
" transform="scale(0.015625)"/>
       </defs>
       <use xlink:href="#DejaVuSans-30"/>
       <use xlink:href="#DejaVuSans-2e" transform="translate(63.623047 0)"/>
       <use xlink:href="#DejaVuSans-37" transform="translate(95.410156 0)"/>
      </g>
     </g>
    </g>
    <g id="ytick_5">
     <g id="line2d_51">
      <path d="M 59.039688 111.56622 
L 393.839688 111.56622 
" clip-path="url(#p554b4e2427)" style="fill: none; stroke: #b7bfcc; stroke-opacity: 0.65; stroke-width: 0.95; stroke-linecap: square"/>
     </g>
     <g id="line2d_52">
      <g>
       <use xlink:href="#m016e73ee22" x="59.039688" y="111.56622" style="fill: #1f2937; stroke: #1f2937; stroke-width: 1.05"/>
      </g>
     </g>
     <g id="text_12">
      <!-- 0.8 -->
      <g transform="translate(26.685 117.265048) scale(0.15 -0.15)">
       <use xlink:href="#DejaVuSans-30"/>
       <use xlink:href="#DejaVuSans-2e" transform="translate(63.623047 0)"/>
       <use xlink:href="#DejaVuSans-38" transform="translate(95.410156 0)"/>
      </g>
     </g>
    </g>
    <g id="ytick_6">
     <g id="line2d_53">
      <path d="M 59.039688 75.798478 
L 393.839688 75.798478 
" clip-path="url(#p554b4e2427)" style="fill: none; stroke: #b7bfcc; stroke-opacity: 0.65; stroke-width: 0.95; stroke-linecap: square"/>
     </g>
     <g id="line2d_54">
      <g>
       <use xlink:href="#m016e73ee22" x="59.039688" y="75.798478" style="fill: #1f2937; stroke: #1f2937; stroke-width: 1.05"/>
      </g>
     </g>
     <g id="text_13">
      <!-- 0.9 -->
      <g transform="translate(26.685 81.497306) scale(0.15 -0.15)">
       <defs>
        <path id="DejaVuSans-39" d="M 703 97 
L 703 672 
Q 941 559 1184 500 
Q 1428 441 1663 441 
Q 2288 441 2617 861 
Q 2947 1281 2994 2138 
Q 2813 1869 2534 1725 
Q 2256 1581 1919 1581 
Q 1219 1581 811 2004 
Q 403 2428 403 3163 
Q 403 3881 828 4315 
Q 1253 4750 1959 4750 
Q 2769 4750 3195 4129 
Q 3622 3509 3622 2328 
Q 3622 1225 3098 567 
Q 2575 -91 1691 -91 
Q 1453 -91 1209 -44 
Q 966 3 703 97 
z
M 1959 2075 
Q 2384 2075 2632 2365 
Q 2881 2656 2881 3163 
Q 2881 3666 2632 3958 
Q 2384 4250 1959 4250 
Q 1534 4250 1286 3958 
Q 1038 3666 1038 3163 
Q 1038 2656 1286 2365 
Q 1534 2075 1959 2075 
z
" transform="scale(0.015625)"/>
       </defs>
       <use xlink:href="#DejaVuSans-30"/>
       <use xlink:href="#DejaVuSans-2e" transform="translate(63.623047 0)"/>
       <use xlink:href="#DejaVuSans-39" transform="translate(95.410156 0)"/>
      </g>
     </g>
    </g>
    <g id="ytick_7">
     <g id="line2d_55">
      <path d="M 59.039688 40.030736 
L 393.839688 40.030736 
" clip-path="url(#p554b4e2427)" style="fill: none; stroke: #b7bfcc; stroke-opacity: 0.65; stroke-width: 0.95; stroke-linecap: square"/>
     </g>
     <g id="line2d_56">
      <g>
       <use xlink:href="#m016e73ee22" x="59.039688" y="40.030736" style="fill: #1f2937; stroke: #1f2937; stroke-width: 1.05"/>
      </g>
     </g>
     <g id="text_14">
      <!-- 1.0 -->
      <g transform="translate(26.685 45.729564) scale(0.15 -0.15)">
       <use xlink:href="#DejaVuSans-31"/>
       <use xlink:href="#DejaVuSans-2e" transform="translate(63.623047 0)"/>
       <use xlink:href="#DejaVuSans-30" transform="translate(95.410156 0)"/>
      </g>
     </g>
    </g>
    <g id="ytick_8">
     <g id="line2d_57">
      <path d="M 59.039688 247.483639 
L 393.839688 247.483639 
" clip-path="url(#p554b4e2427)" style="fill: none; stroke: #d4d9e1; stroke-opacity: 0.5; stroke-width: 0.7; stroke-linecap: square"/>
     </g>
     <g id="line2d_58">
      <defs>
       <path id="me8297499a8" d="M 0 0 
L -2 0 
" style="stroke: #000000; stroke-width: 0.6"/>
      </defs>
      <g>
       <use xlink:href="#me8297499a8" x="59.039688" y="247.483639" style="stroke: #000000; stroke-width: 0.6"/>
      </g>
     </g>
    </g>
    <g id="ytick_9">
     <g id="line2d_59">
      <path d="M 59.039688 240.330091 
L 393.839688 240.330091 
" clip-path="url(#p554b4e2427)" style="fill: none; stroke: #d4d9e1; stroke-opacity: 0.5; stroke-width: 0.7; stroke-linecap: square"/>
     </g>
     <g id="line2d_60">
      <g>
       <use xlink:href="#me8297499a8" x="59.039688" y="240.330091" style="stroke: #000000; stroke-width: 0.6"/>
      </g>
     </g>
    </g>
    <g id="ytick_10">
     <g id="line2d_61">
      <path d="M 59.039688 233.176542 
L 393.839688 233.176542 
" clip-path="url(#p554b4e2427)" style="fill: none; stroke: #d4d9e1; stroke-opacity: 0.5; stroke-width: 0.7; stroke-linecap: square"/>
     </g>
     <g id="line2d_62">
      <g>
       <use xlink:href="#me8297499a8" x="59.039688" y="233.176542" style="stroke: #000000; stroke-width: 0.6"/>
      </g>
     </g>
    </g>
    <g id="ytick_11">
     <g id="line2d_63">
      <path d="M 59.039688 226.022994 
L 393.839688 226.022994 
" clip-path="url(#p554b4e2427)" style="fill: none; stroke: #d4d9e1; stroke-opacity: 0.5; stroke-width: 0.7; stroke-linecap: square"/>
     </g>
     <g id="line2d_64">
      <g>
       <use xlink:href="#me8297499a8" x="59.039688" y="226.022994" style="stroke: #000000; stroke-width: 0.6"/>
      </g>
     </g>
    </g>
    <g id="ytick_12">
     <g id="line2d_65">
      <path d="M 59.039688 211.715897 
L 393.839688 211.715897 
" clip-path="url(#p554b4e2427)" style="fill: none; stroke: #d4d9e1; stroke-opacity: 0.5; stroke-width: 0.7; stroke-linecap: square"/>
     </g>
     <g id="line2d_66">
      <g>
       <use xlink:href="#me8297499a8" x="59.039688" y="211.715897" style="stroke: #000000; stroke-width: 0.6"/>
      </g>
     </g>
    </g>
    <g id="ytick_13">
     <g id="line2d_67">
      <path d="M 59.039688 204.562349 
L 393.839688 204.562349 
" clip-path="url(#p554b4e2427)" style="fill: none; stroke: #d4d9e1; stroke-opacity: 0.5; stroke-width: 0.7; stroke-linecap: square"/>
     </g>
     <g id="line2d_68">
      <g>
       <use xlink:href="#me8297499a8" x="59.039688" y="204.562349" style="stroke: #000000; stroke-width: 0.6"/>
      </g>
     </g>
    </g>
    <g id="ytick_14">
     <g id="line2d_69">
      <path d="M 59.039688 197.4088 
L 393.839688 197.4088 
" clip-path="url(#p554b4e2427)" style="fill: none; stroke: #d4d9e1; stroke-opacity: 0.5; stroke-width: 0.7; stroke-linecap: square"/>
     </g>
     <g id="line2d_70">
      <g>
       <use xlink:href="#me8297499a8" x="59.039688" y="197.4088" style="stroke: #000000; stroke-width: 0.6"/>
      </g>
     </g>
    </g>
    <g id="ytick_15">
     <g id="line2d_71">
      <path d="M 59.039688 190.255252 
L 393.839688 190.255252 
" clip-path="url(#p554b4e2427)" style="fill: none; stroke: #d4d9e1; stroke-opacity: 0.5; stroke-width: 0.7; stroke-linecap: square"/>
     </g>
     <g id="line2d_72">
      <g>
       <use xlink:href="#me8297499a8" x="59.039688" y="190.255252" style="stroke: #000000; stroke-width: 0.6"/>
      </g>
     </g>
    </g>
    <g id="ytick_16">
     <g id="line2d_73">
      <path d="M 59.039688 175.948155 
L 393.839688 175.948155 
" clip-path="url(#p554b4e2427)" style="fill: none; stroke: #d4d9e1; stroke-opacity: 0.5; stroke-width: 0.7; stroke-linecap: square"/>
     </g>
     <g id="line2d_74">
      <g>
       <use xlink:href="#me8297499a8" x="59.039688" y="175.948155" style="stroke: #000000; stroke-width: 0.6"/>
      </g>
     </g>
    </g>
    <g id="ytick_17">
     <g id="line2d_75">
      <path d="M 59.039688 168.794607 
L 393.839688 168.794607 
" clip-path="url(#p554b4e2427)" style="fill: none; stroke: #d4d9e1; stroke-opacity: 0.5; stroke-width: 0.7; stroke-linecap: square"/>
     </g>
     <g id="line2d_76">
      <g>
       <use xlink:href="#me8297499a8" x="59.039688" y="168.794607" style="stroke: #000000; stroke-width: 0.6"/>
      </g>
     </g>
    </g>
    <g id="ytick_18">
     <g id="line2d_77">
      <path d="M 59.039688 161.641058 
L 393.839688 161.641058 
" clip-path="url(#p554b4e2427)" style="fill: none; stroke: #d4d9e1; stroke-opacity: 0.5; stroke-width: 0.7; stroke-linecap: square"/>
     </g>
     <g id="line2d_78">
      <g>
       <use xlink:href="#me8297499a8" x="59.039688" y="161.641058" style="stroke: #000000; stroke-width: 0.6"/>
      </g>
     </g>
    </g>
    <g id="ytick_19">
     <g id="line2d_79">
      <path d="M 59.039688 154.48751 
L 393.839688 154.48751 
" clip-path="url(#p554b4e2427)" style="fill: none; stroke: #d4d9e1; stroke-opacity: 0.5; stroke-width: 0.7; stroke-linecap: square"/>
     </g>
     <g id="line2d_80">
      <g>
       <use xlink:href="#me8297499a8" x="59.039688" y="154.48751" style="stroke: #000000; stroke-width: 0.6"/>
      </g>
     </g>
    </g>
    <g id="ytick_20">
     <g id="line2d_81">
      <path d="M 59.039688 140.180413 
L 393.839688 140.180413 
" clip-path="url(#p554b4e2427)" style="fill: none; stroke: #d4d9e1; stroke-opacity: 0.5; stroke-width: 0.7; stroke-linecap: square"/>
     </g>
     <g id="line2d_82">
      <g>
       <use xlink:href="#me8297499a8" x="59.039688" y="140.180413" style="stroke: #000000; stroke-width: 0.6"/>
      </g>
     </g>
    </g>
    <g id="ytick_21">
     <g id="line2d_83">
      <path d="M 59.039688 133.026865 
L 393.839688 133.026865 
" clip-path="url(#p554b4e2427)" style="fill: none; stroke: #d4d9e1; stroke-opacity: 0.5; stroke-width: 0.7; stroke-linecap: square"/>
     </g>
     <g id="line2d_84">
      <g>
       <use xlink:href="#me8297499a8" x="59.039688" y="133.026865" style="stroke: #000000; stroke-width: 0.6"/>
      </g>
     </g>
    </g>
    <g id="ytick_22">
     <g id="line2d_85">
      <path d="M 59.039688 125.873317 
L 393.839688 125.873317 
" clip-path="url(#p554b4e2427)" style="fill: none; stroke: #d4d9e1; stroke-opacity: 0.5; stroke-width: 0.7; stroke-linecap: square"/>
     </g>
     <g id="line2d_86">
      <g>
       <use xlink:href="#me8297499a8" x="59.039688" y="125.873317" style="stroke: #000000; stroke-width: 0.6"/>
      </g>
     </g>
    </g>
    <g id="ytick_23">
     <g id="line2d_87">
      <path d="M 59.039688 118.719768 
L 393.839688 118.719768 
" clip-path="url(#p554b4e2427)" style="fill: none; stroke: #d4d9e1; stroke-opacity: 0.5; stroke-width: 0.7; stroke-linecap: square"/>
     </g>
     <g id="line2d_88">
      <g>
       <use xlink:href="#me8297499a8" x="59.039688" y="118.719768" style="stroke: #000000; stroke-width: 0.6"/>
      </g>
     </g>
    </g>
    <g id="ytick_24">
     <g id="line2d_89">
      <path d="M 59.039688 104.412671 
L 393.839688 104.412671 
" clip-path="url(#p554b4e2427)" style="fill: none; stroke: #d4d9e1; stroke-opacity: 0.5; stroke-width: 0.7; stroke-linecap: square"/>
     </g>
     <g id="line2d_90">
      <g>
       <use xlink:href="#me8297499a8" x="59.039688" y="104.412671" style="stroke: #000000; stroke-width: 0.6"/>
      </g>
     </g>
    </g>
    <g id="ytick_25">
     <g id="line2d_91">
      <path d="M 59.039688 97.259123 
L 393.839688 97.259123 
" clip-path="url(#p554b4e2427)" style="fill: none; stroke: #d4d9e1; stroke-opacity: 0.5; stroke-width: 0.7; stroke-linecap: square"/>
     </g>
     <g id="line2d_92">
      <g>
       <use xlink:href="#me8297499a8" x="59.039688" y="97.259123" style="stroke: #000000; stroke-width: 0.6"/>
      </g>
     </g>
    </g>
    <g id="ytick_26">
     <g id="line2d_93">
      <path d="M 59.039688 90.105575 
L 393.839688 90.105575 
" clip-path="url(#p554b4e2427)" style="fill: none; stroke: #d4d9e1; stroke-opacity: 0.5; stroke-width: 0.7; stroke-linecap: square"/>
     </g>
     <g id="line2d_94">
      <g>
       <use xlink:href="#me8297499a8" x="59.039688" y="90.105575" style="stroke: #000000; stroke-width: 0.6"/>
      </g>
     </g>
    </g>
    <g id="ytick_27">
     <g id="line2d_95">
      <path d="M 59.039688 82.952026 
L 393.839688 82.952026 
" clip-path="url(#p554b4e2427)" style="fill: none; stroke: #d4d9e1; stroke-opacity: 0.5; stroke-width: 0.7; stroke-linecap: square"/>
     </g>
     <g id="line2d_96">
      <g>
       <use xlink:href="#me8297499a8" x="59.039688" y="82.952026" style="stroke: #000000; stroke-width: 0.6"/>
      </g>
     </g>
    </g>
    <g id="ytick_28">
     <g id="line2d_97">
      <path d="M 59.039688 68.644929 
L 393.839688 68.644929 
" clip-path="url(#p554b4e2427)" style="fill: none; stroke: #d4d9e1; stroke-opacity: 0.5; stroke-width: 0.7; stroke-linecap: square"/>
     </g>
     <g id="line2d_98">
      <g>
       <use xlink:href="#me8297499a8" x="59.039688" y="68.644929" style="stroke: #000000; stroke-width: 0.6"/>
      </g>
     </g>
    </g>
    <g id="ytick_29">
     <g id="line2d_99">
      <path d="M 59.039688 61.491381 
L 393.839688 61.491381 
" clip-path="url(#p554b4e2427)" style="fill: none; stroke: #d4d9e1; stroke-opacity: 0.5; stroke-width: 0.7; stroke-linecap: square"/>
     </g>
     <g id="line2d_100">
      <g>
       <use xlink:href="#me8297499a8" x="59.039688" y="61.491381" style="stroke: #000000; stroke-width: 0.6"/>
      </g>
     </g>
    </g>
    <g id="ytick_30">
     <g id="line2d_101">
      <path d="M 59.039688 54.337833 
L 393.839688 54.337833 
" clip-path="url(#p554b4e2427)" style="fill: none; stroke: #d4d9e1; stroke-opacity: 0.5; stroke-width: 0.7; stroke-linecap: square"/>
     </g>
     <g id="line2d_102">
      <g>
       <use xlink:href="#me8297499a8" x="59.039688" y="54.337833" style="stroke: #000000; stroke-width: 0.6"/>
      </g>
     </g>
    </g>
    <g id="ytick_31">
     <g id="line2d_103">
      <path d="M 59.039688 47.184284 
L 393.839688 47.184284 
" clip-path="url(#p554b4e2427)" style="fill: none; stroke: #d4d9e1; stroke-opacity: 0.5; stroke-width: 0.7; stroke-linecap: square"/>
     </g>
     <g id="line2d_104">
      <g>
       <use xlink:href="#me8297499a8" x="59.039688" y="47.184284" style="stroke: #000000; stroke-width: 0.6"/>
      </g>
     </g>
    </g>
    <g id="ytick_32">
     <g id="line2d_105">
      <path d="M 59.039688 32.877187 
L 393.839688 32.877187 
" clip-path="url(#p554b4e2427)" style="fill: none; stroke: #d4d9e1; stroke-opacity: 0.5; stroke-width: 0.7; stroke-linecap: square"/>
     </g>
     <g id="line2d_106">
      <g>
       <use xlink:href="#me8297499a8" x="59.039688" y="32.877187" style="stroke: #000000; stroke-width: 0.6"/>
      </g>
     </g>
    </g>
    <g id="text_15">
     <!-- Precision -->
     <g style="fill: #0f172a" transform="translate(19.3575 185.172187) rotate(-90) scale(0.16 -0.16)">
      <defs>
       <path id="DejaVuSans-Bold-50" d="M 588 4666 
L 2584 4666 
Q 3475 4666 3951 4270 
Q 4428 3875 4428 3144 
Q 4428 2409 3951 2014 
Q 3475 1619 2584 1619 
L 1791 1619 
L 1791 0 
L 588 0 
L 588 4666 
z
M 1791 3794 
L 1791 2491 
L 2456 2491 
Q 2806 2491 2997 2661 
Q 3188 2831 3188 3144 
Q 3188 3456 2997 3625 
Q 2806 3794 2456 3794 
L 1791 3794 
z
" transform="scale(0.015625)"/>
       <path id="DejaVuSans-Bold-72" d="M 3138 2547 
Q 2991 2616 2845 2648 
Q 2700 2681 2553 2681 
Q 2122 2681 1889 2404 
Q 1656 2128 1656 1613 
L 1656 0 
L 538 0 
L 538 3500 
L 1656 3500 
L 1656 2925 
Q 1872 3269 2151 3426 
Q 2431 3584 2822 3584 
Q 2878 3584 2943 3579 
Q 3009 3575 3134 3559 
L 3138 2547 
z
" transform="scale(0.015625)"/>
       <path id="DejaVuSans-Bold-69" d="M 538 3500 
L 1656 3500 
L 1656 0 
L 538 0 
L 538 3500 
z
M 538 4863 
L 1656 4863 
L 1656 3950 
L 538 3950 
L 538 4863 
z
" transform="scale(0.015625)"/>
       <path id="DejaVuSans-Bold-73" d="M 3272 3391 
L 3272 2541 
Q 2913 2691 2578 2766 
Q 2244 2841 1947 2841 
Q 1628 2841 1473 2761 
Q 1319 2681 1319 2516 
Q 1319 2381 1436 2309 
Q 1553 2238 1856 2203 
L 2053 2175 
Q 2913 2066 3209 1816 
Q 3506 1566 3506 1031 
Q 3506 472 3093 190 
Q 2681 -91 1863 -91 
Q 1516 -91 1145 -36 
Q 775 19 384 128 
L 384 978 
Q 719 816 1070 734 
Q 1422 653 1784 653 
Q 2113 653 2278 743 
Q 2444 834 2444 1013 
Q 2444 1163 2330 1236 
Q 2216 1309 1875 1350 
L 1678 1375 
Q 931 1469 631 1722 
Q 331 1975 331 2491 
Q 331 3047 712 3315 
Q 1094 3584 1881 3584 
Q 2191 3584 2531 3537 
Q 2872 3491 3272 3391 
z
" transform="scale(0.015625)"/>
       <path id="DejaVuSans-Bold-6f" d="M 2203 2784 
Q 1831 2784 1636 2517 
Q 1441 2250 1441 1747 
Q 1441 1244 1636 976 
Q 1831 709 2203 709 
Q 2569 709 2762 976 
Q 2956 1244 2956 1747 
Q 2956 2250 2762 2517 
Q 2569 2784 2203 2784 
z
M 2203 3584 
Q 3106 3584 3614 3096 
Q 4122 2609 4122 1747 
Q 4122 884 3614 396 
Q 3106 -91 2203 -91 
Q 1297 -91 786 396 
Q 275 884 275 1747 
Q 275 2609 786 3096 
Q 1297 3584 2203 3584 
z
" transform="scale(0.015625)"/>
       <path id="DejaVuSans-Bold-6e" d="M 4056 2131 
L 4056 0 
L 2931 0 
L 2931 347 
L 2931 1631 
Q 2931 2084 2911 2256 
Q 2891 2428 2841 2509 
Q 2775 2619 2662 2680 
Q 2550 2741 2406 2741 
Q 2056 2741 1856 2470 
Q 1656 2200 1656 1722 
L 1656 0 
L 538 0 
L 538 3500 
L 1656 3500 
L 1656 2988 
Q 1909 3294 2193 3439 
Q 2478 3584 2822 3584 
Q 3428 3584 3742 3212 
Q 4056 2841 4056 2131 
z
" transform="scale(0.015625)"/>
      </defs>
      <use xlink:href="#DejaVuSans-Bold-50"/>
      <use xlink:href="#DejaVuSans-Bold-72" transform="translate(73.291016 0)"/>
      <use xlink:href="#DejaVuSans-Bold-65" transform="translate(122.607422 0)"/>
      <use xlink:href="#DejaVuSans-Bold-63" transform="translate(190.429688 0)"/>
      <use xlink:href="#DejaVuSans-Bold-69" transform="translate(249.707031 0)"/>
      <use xlink:href="#DejaVuSans-Bold-73" transform="translate(283.984375 0)"/>
      <use xlink:href="#DejaVuSans-Bold-69" transform="translate(343.505859 0)"/>
      <use xlink:href="#DejaVuSans-Bold-6f" transform="translate(377.783203 0)"/>
      <use xlink:href="#DejaVuSans-Bold-6e" transform="translate(446.484375 0)"/>
     </g>
    </g>
   </g>
   <g id="line2d_107">
    <path d="M 59.039688 40.030736 
L 62.404512 40.246962 
L 67.451748 40.885445 
L 72.498984 41.760545 
L 79.228632 43.208598 
L 85.95828 44.923374 
L 92.687929 46.868406 
L 99.417577 49.019087 
L 107.829637 51.969522 
L 116.241698 55.186629 
L 124.653758 58.649895 
L 133.065818 62.342925 
L 141.477878 66.252221 
L 151.572351 71.212968 
L 161.666823 76.452243 
L 171.761296 81.955957 
L 181.855768 87.711966 
L 191.95024 93.709659 
L 202.044713 99.939664 
L 213.821597 107.490513 
L 225.598481 115.334373 
L 237.375366 123.460681 
L 249.15225 131.859941 
L 260.929135 140.523555 
L 272.706019 149.443689 
L 284.482904 158.613169 
L 297.9422 169.389446 
L 311.401497 180.47372 
L 324.860793 191.857659 
L 338.32009 203.533572 
L 351.779386 215.494334 
L 365.238682 227.733315 
L 378.697979 240.244329 
L 393.839688 254.637188 
L 393.839688 254.637188 
" clip-path="url(#p554b4e2427)" style="fill: none; stroke: #1f77b4; stroke-opacity: 0.96; stroke-width: 3; stroke-linecap: square"/>
    <defs>
     <path id="m2408d0a2e6" d="M 0 2.75 
C 0.729309 2.75 1.428845 2.460243 1.944544 1.944544 
C 2.460243 1.428845 2.75 0.729309 2.75 0 
C 2.75 -0.729309 2.460243 -1.428845 1.944544 -1.944544 
C 1.428845 -2.460243 0.729309 -2.75 0 -2.75 
C -0.729309 -2.75 -1.428845 -2.460243 -1.944544 -1.944544 
C -2.460243 -1.428845 -2.75 -0.729309 -2.75 0 
C -2.75 0.729309 -2.460243 1.428845 -1.944544 1.944544 
C -1.428845 2.460243 -0.729309 2.75 0 2.75 
z
" style="stroke: #ffffff; stroke-opacity: 0.96"/>
    </defs>
    <g clip-path="url(#p554b4e2427)">
     <use xlink:href="#m2408d0a2e6" x="59.039688" y="40.030736" style="fill: #1f77b4; fill-opacity: 0.96; stroke: #ffffff; stroke-opacity: 0.96"/>
     <use xlink:href="#m2408d0a2e6" x="102.782401" y="50.165723" style="fill: #1f77b4; fill-opacity: 0.96; stroke: #ffffff; stroke-opacity: 0.96"/>
     <use xlink:href="#m2408d0a2e6" x="146.525115" y="68.696807" style="fill: #1f77b4; fill-opacity: 0.96; stroke: #ffffff; stroke-opacity: 0.96"/>
     <use xlink:href="#m2408d0a2e6" x="190.267828" y="92.693671" style="fill: #1f77b4; fill-opacity: 0.96; stroke: #ffffff; stroke-opacity: 0.96"/>
     <use xlink:href="#m2408d0a2e6" x="234.010542" y="121.110629" style="fill: #1f77b4; fill-opacity: 0.96; stroke: #ffffff; stroke-opacity: 0.96"/>
     <use xlink:href="#m2408d0a2e6" x="277.753255" y="153.343331" style="fill: #1f77b4; fill-opacity: 0.96; stroke: #ffffff; stroke-opacity: 0.96"/>
     <use xlink:href="#m2408d0a2e6" x="321.495969" y="188.984011" style="fill: #1f77b4; fill-opacity: 0.96; stroke: #ffffff; stroke-opacity: 0.96"/>
     <use xlink:href="#m2408d0a2e6" x="365.238682" y="227.733315" style="fill: #1f77b4; fill-opacity: 0.96; stroke: #ffffff; stroke-opacity: 0.96"/>
    </g>
   </g>
   <g id="line2d_108">
    <path d="M 59.039688 57.914607 
L 62.404512 58.130833 
L 67.451748 58.769316 
L 72.498984 59.644416 
L 79.228632 61.092469 
L 85.95828 62.807245 
L 92.687929 64.752277 
L 99.417577 66.902958 
L 107.829637 69.853393 
L 116.241698 73.0705 
L 124.653758 76.533766 
L 133.065818 80.226796 
L 141.477878 84.136092 
L 151.572351 89.096838 
L 161.666823 94.336114 
L 171.761296 99.839828 
L 181.855768 105.595837 
L 191.95024 111.59353 
L 202.044713 117.823535 
L 213.821597 125.374384 
L 225.598481 133.218244 
L 237.375366 141.344552 
L 249.15225 149.743812 
L 260.929135 158.407426 
L 272.706019 167.32756 
L 284.482904 176.49704 
L 297.9422 187.273317 
L 311.401497 198.357591 
L 324.860793 209.74153 
L 338.32009 221.417443 
L 351.779386 233.378205 
L 365.238682 245.617186 
L 378.697979 258.1282 
L 393.839688 272.521058 
L 393.839688 272.521058 
" clip-path="url(#p554b4e2427)" style="fill: none; stroke: #ff7f0e; stroke-opacity: 0.96; stroke-width: 3; stroke-linecap: square"/>
    <defs>
     <path id="m9bb57173b7" d="M 0 2.75 
C 0.729309 2.75 1.428845 2.460243 1.944544 1.944544 
C 2.460243 1.428845 2.75 0.729309 2.75 0 
C 2.75 -0.729309 2.460243 -1.428845 1.944544 -1.944544 
C 1.428845 -2.460243 0.729309 -2.75 0 -2.75 
C -0.729309 -2.75 -1.428845 -2.460243 -1.944544 -1.944544 
C -2.460243 -1.428845 -2.75 -0.729309 -2.75 0 
C -2.75 0.729309 -2.460243 1.428845 -1.944544 1.944544 
C -1.428845 2.460243 -0.729309 2.75 0 2.75 
z
" style="stroke: #ffffff; stroke-opacity: 0.96"/>
    </defs>
    <g clip-path="url(#p554b4e2427)">
     <use xlink:href="#m9bb57173b7" x="59.039688" y="57.914607" style="fill: #ff7f0e; fill-opacity: 0.96; stroke: #ffffff; stroke-opacity: 0.96"/>
     <use xlink:href="#m9bb57173b7" x="102.782401" y="68.049594" style="fill: #ff7f0e; fill-opacity: 0.96; stroke: #ffffff; stroke-opacity: 0.96"/>
     <use xlink:href="#m9bb57173b7" x="146.525115" y="86.580678" style="fill: #ff7f0e; fill-opacity: 0.96; stroke: #ffffff; stroke-opacity: 0.96"/>
     <use xlink:href="#m9bb57173b7" x="190.267828" y="110.577542" style="fill: #ff7f0e; fill-opacity: 0.96; stroke: #ffffff; stroke-opacity: 0.96"/>
     <use xlink:href="#m9bb57173b7" x="234.010542" y="138.9945" style="fill: #ff7f0e; fill-opacity: 0.96; stroke: #ffffff; stroke-opacity: 0.96"/>
     <use xlink:href="#m9bb57173b7" x="277.753255" y="171.227202" style="fill: #ff7f0e; fill-opacity: 0.96; stroke: #ffffff; stroke-opacity: 0.96"/>
     <use xlink:href="#m9bb57173b7" x="321.495969" y="206.867882" style="fill: #ff7f0e; fill-opacity: 0.96; stroke: #ffffff; stroke-opacity: 0.96"/>
     <use xlink:href="#m9bb57173b7" x="365.238682" y="245.617186" style="fill: #ff7f0e; fill-opacity: 0.96; stroke: #ffffff; stroke-opacity: 0.96"/>
    </g>
   </g>
   <g id="line2d_109">
    <path d="M 59.039688 40.030736 
L 173.443708 40.030736 
L 176.808532 41.881829 
L 186.903004 47.759923 
L 196.997476 53.874876 
L 207.091949 60.217845 
L 218.868833 67.89564 
L 230.645718 75.861776 
L 242.422602 84.106171 
L 254.199486 92.619731 
L 265.976371 101.394201 
L 277.753255 110.422041 
L 291.212552 121.040969 
L 304.671848 131.97233 
L 318.131145 143.207435 
L 331.590441 154.738286 
L 345.049738 166.557482 
L 358.509034 178.658154 
L 371.968331 191.033899 
L 387.110039 205.277976 
L 393.839688 211.715897 
L 393.839688 211.715897 
" clip-path="url(#p554b4e2427)" style="fill: none; stroke: #2ca02c; stroke-opacity: 0.96; stroke-width: 3; stroke-linecap: square"/>
    <defs>
     <path id="m2b8586d10c" d="M 0 2.75 
C 0.729309 2.75 1.428845 2.460243 1.944544 1.944544 
C 2.460243 1.428845 2.75 0.729309 2.75 0 
C 2.75 -0.729309 2.460243 -1.428845 1.944544 -1.944544 
C 1.428845 -2.460243 0.729309 -2.75 0 -2.75 
C -0.729309 -2.75 -1.428845 -2.460243 -1.944544 -1.944544 
C -2.460243 -1.428845 -2.75 -0.729309 -2.75 0 
C -2.75 0.729309 -2.460243 1.428845 -1.944544 1.944544 
C -1.428845 2.460243 -0.729309 2.75 0 2.75 
z
" style="stroke: #ffffff; stroke-opacity: 0.96"/>
    </defs>
    <g clip-path="url(#p554b4e2427)">
     <use xlink:href="#m2b8586d10c" x="59.039688" y="40.030736" style="fill: #2ca02c; fill-opacity: 0.96; stroke: #ffffff; stroke-opacity: 0.96"/>
     <use xlink:href="#m2b8586d10c" x="102.782401" y="40.030736" style="fill: #2ca02c; fill-opacity: 0.96; stroke: #ffffff; stroke-opacity: 0.96"/>
     <use xlink:href="#m2b8586d10c" x="146.525115" y="40.030736" style="fill: #2ca02c; fill-opacity: 0.96; stroke: #ffffff; stroke-opacity: 0.96"/>
     <use xlink:href="#m2b8586d10c" x="190.267828" y="49.772381" style="fill: #2ca02c; fill-opacity: 0.96; stroke: #ffffff; stroke-opacity: 0.96"/>
     <use xlink:href="#m2b8586d10c" x="234.010542" y="78.189339" style="fill: #2ca02c; fill-opacity: 0.96; stroke: #ffffff; stroke-opacity: 0.96"/>
     <use xlink:href="#m2b8586d10c" x="277.753255" y="110.422041" style="fill: #2ca02c; fill-opacity: 0.96; stroke: #ffffff; stroke-opacity: 0.96"/>
     <use xlink:href="#m2b8586d10c" x="321.495969" y="146.062721" style="fill: #2ca02c; fill-opacity: 0.96; stroke: #ffffff; stroke-opacity: 0.96"/>
     <use xlink:href="#m2b8586d10c" x="365.238682" y="184.812025" style="fill: #2ca02c; fill-opacity: 0.96; stroke: #ffffff; stroke-opacity: 0.96"/>
    </g>
   </g>
   <g id="patch_3">
    <path d="M 59.039688 254.637188 
L 59.039688 32.877187 
" style="fill: none; stroke: #1f2937; stroke-width: 1.2; stroke-linejoin: miter; stroke-linecap: square"/>
   </g>
   <g id="patch_4">
    <path d="M 393.839688 254.637188 
L 393.839688 32.877187 
" style="fill: none; stroke: #1f2937; stroke-width: 1.2; stroke-linejoin: miter; stroke-linecap: square"/>
   </g>
   <g id="patch_5">
    <path d="M 59.039688 254.637188 
L 393.839688 254.637188 
" style="fill: none; stroke: #1f2937; stroke-width: 1.2; stroke-linejoin: miter; stroke-linecap: square"/>
   </g>
   <g id="patch_6">
    <path d="M 59.039688 32.877187 
L 393.839688 32.877187 
" style="fill: none; stroke: #1f2937; stroke-width: 1.2; stroke-linejoin: miter; stroke-linecap: square"/>
   </g>
   <g id="text_16">
    <!-- PVF-10: Precision vs. recall -->
    <g style="fill: #0f172a" transform="translate(88.397969 20.877187) scale(0.18 -0.18)">
     <defs>
      <path id="DejaVuSans-Bold-56" d="M 31 4666 
L 1241 4666 
L 2478 1222 
L 3713 4666 
L 4922 4666 
L 3194 0 
L 1759 0 
L 31 4666 
z
" transform="scale(0.015625)"/>
      <path id="DejaVuSans-Bold-46" d="M 588 4666 
L 3834 4666 
L 3834 3756 
L 1791 3756 
L 1791 2888 
L 3713 2888 
L 3713 1978 
L 1791 1978 
L 1791 0 
L 588 0 
L 588 4666 
z
" transform="scale(0.015625)"/>
      <path id="DejaVuSans-Bold-2d" d="M 347 2297 
L 2309 2297 
L 2309 1388 
L 347 1388 
L 347 2297 
z
" transform="scale(0.015625)"/>
      <path id="DejaVuSans-Bold-31" d="M 750 831 
L 1813 831 
L 1813 3847 
L 722 3622 
L 722 4441 
L 1806 4666 
L 2950 4666 
L 2950 831 
L 4013 831 
L 4013 0 
L 750 0 
L 750 831 
z
" transform="scale(0.015625)"/>
      <path id="DejaVuSans-Bold-30" d="M 2944 2338 
Q 2944 3213 2780 3570 
Q 2616 3928 2228 3928 
Q 1841 3928 1675 3570 
Q 1509 3213 1509 2338 
Q 1509 1453 1675 1090 
Q 1841 728 2228 728 
Q 2613 728 2778 1090 
Q 2944 1453 2944 2338 
z
M 4147 2328 
Q 4147 1169 3647 539 
Q 3147 -91 2228 -91 
Q 1306 -91 806 539 
Q 306 1169 306 2328 
Q 306 3491 806 4120 
Q 1306 4750 2228 4750 
Q 3147 4750 3647 4120 
Q 4147 3491 4147 2328 
z
" transform="scale(0.015625)"/>
      <path id="DejaVuSans-Bold-3a" d="M 716 3500 
L 1844 3500 
L 1844 2291 
L 716 2291 
L 716 3500 
z
M 716 1209 
L 1844 1209 
L 1844 0 
L 716 0 
L 716 1209 
z
" transform="scale(0.015625)"/>
      <path id="DejaVuSans-Bold-20" transform="scale(0.015625)"/>
      <path id="DejaVuSans-Bold-76" d="M 97 3500 
L 1216 3500 
L 2088 1081 
L 2956 3500 
L 4078 3500 
L 2700 0 
L 1472 0 
L 97 3500 
z
" transform="scale(0.015625)"/>
      <path id="DejaVuSans-Bold-2e" d="M 653 1209 
L 1778 1209 
L 1778 0 
L 653 0 
L 653 1209 
z
" transform="scale(0.015625)"/>
     </defs>
     <use xlink:href="#DejaVuSans-Bold-50"/>
     <use xlink:href="#DejaVuSans-Bold-56" transform="translate(73.291016 0)"/>
     <use xlink:href="#DejaVuSans-Bold-46" transform="translate(150.683594 0)"/>
     <use xlink:href="#DejaVuSans-Bold-2d" transform="translate(215.869141 0)"/>
     <use xlink:href="#DejaVuSans-Bold-31" transform="translate(257.373047 0)"/>
     <use xlink:href="#DejaVuSans-Bold-30" transform="translate(326.953125 0)"/>
     <use xlink:href="#DejaVuSans-Bold-3a" transform="translate(396.533203 0)"/>
     <use xlink:href="#DejaVuSans-Bold-20" transform="translate(436.523438 0)"/>
     <use xlink:href="#DejaVuSans-Bold-50" transform="translate(471.337891 0)"/>
     <use xlink:href="#DejaVuSans-Bold-72" transform="translate(544.628906 0)"/>
     <use xlink:href="#DejaVuSans-Bold-65" transform="translate(593.945312 0)"/>
     <use xlink:href="#DejaVuSans-Bold-63" transform="translate(661.767578 0)"/>
     <use xlink:href="#DejaVuSans-Bold-69" transform="translate(721.044922 0)"/>
     <use xlink:href="#DejaVuSans-Bold-73" transform="translate(755.322266 0)"/>
     <use xlink:href="#DejaVuSans-Bold-69" transform="translate(814.84375 0)"/>
     <use xlink:href="#DejaVuSans-Bold-6f" transform="translate(849.121094 0)"/>
     <use xlink:href="#DejaVuSans-Bold-6e" transform="translate(917.822266 0)"/>
     <use xlink:href="#DejaVuSans-Bold-20" transform="translate(989.013672 0)"/>
     <use xlink:href="#DejaVuSans-Bold-76" transform="translate(1023.828125 0)"/>
     <use xlink:href="#DejaVuSans-Bold-73" transform="translate(1089.013672 0)"/>
     <use xlink:href="#DejaVuSans-Bold-2e" transform="translate(1148.535156 0)"/>
     <use xlink:href="#DejaVuSans-Bold-20" transform="translate(1186.523438 0)"/>
     <use xlink:href="#DejaVuSans-Bold-72" transform="translate(1221.337891 0)"/>
     <use xlink:href="#DejaVuSans-Bold-65" transform="translate(1270.654297 0)"/>
     <use xlink:href="#DejaVuSans-Bold-63" transform="translate(1338.476562 0)"/>
     <use xlink:href="#DejaVuSans-Bold-61" transform="translate(1397.753906 0)"/>
     <use xlink:href="#DejaVuSans-Bold-6c" transform="translate(1465.234375 0)"/>
     <use xlink:href="#DejaVuSans-Bold-6c" transform="translate(1499.511719 0)"/>
    </g>
   </g>
   <g id="legend_1">
    <g id="patch_7">
     <path d="M 70.239688 246.637188 
L 246.009688 246.637188 
Q 249.209688 246.637188 249.209688 243.437188 
L 249.209688 174.332188 
Q 249.209688 171.132188 246.009688 171.132188 
L 70.239688 171.132188 
Q 67.039688 171.132188 67.039688 174.332188 
L 67.039688 243.437188 
Q 67.039688 246.637188 70.239688 246.637188 
z
" style="fill: #f8fafc; opacity: 0.92; stroke: #1f2937; stroke-width: 0.95; stroke-linejoin: miter"/>
    </g>
    <g id="line2d_110">
     <path d="M 73.439688 184.089688 
L 89.439688 184.089688 
L 105.439688 184.089688 
" style="fill: none; stroke: #1f77b4; stroke-opacity: 0.96; stroke-width: 3; stroke-linecap: square"/>
     <g>
      <use xlink:href="#m2408d0a2e6" x="89.439688" y="184.089688" style="fill: #1f77b4; fill-opacity: 0.96; stroke: #ffffff; stroke-opacity: 0.96"/>
     </g>
    </g>
    <g id="text_17">
     <!-- Thermal-only -->
     <g transform="translate(118.239688 189.689688) scale(0.16 -0.16)">
      <defs>
       <path id="DejaVuSans-Bold-54" d="M 31 4666 
L 4331 4666 
L 4331 3756 
L 2784 3756 
L 2784 0 
L 1581 0 
L 1581 3756 
L 31 3756 
L 31 4666 
z
" transform="scale(0.015625)"/>
       <path id="DejaVuSans-Bold-68" d="M 4056 2131 
L 4056 0 
L 2931 0 
L 2931 347 
L 2931 1625 
Q 2931 2084 2911 2256 
Q 2891 2428 2841 2509 
Q 2775 2619 2662 2680 
Q 2550 2741 2406 2741 
Q 2056 2741 1856 2470 
Q 1656 2200 1656 1722 
L 1656 0 
L 538 0 
L 538 4863 
L 1656 4863 
L 1656 2988 
Q 1909 3294 2193 3439 
Q 2478 3584 2822 3584 
Q 3428 3584 3742 3212 
Q 4056 2841 4056 2131 
z
" transform="scale(0.015625)"/>
       <path id="DejaVuSans-Bold-6d" d="M 3781 2919 
Q 3994 3244 4286 3414 
Q 4578 3584 4928 3584 
Q 5531 3584 5847 3212 
Q 6163 2841 6163 2131 
L 6163 0 
L 5038 0 
L 5038 1825 
Q 5041 1866 5042 1909 
Q 5044 1953 5044 2034 
Q 5044 2406 4934 2573 
Q 4825 2741 4581 2741 
Q 4263 2741 4089 2478 
Q 3916 2216 3909 1719 
L 3909 0 
L 2784 0 
L 2784 1825 
Q 2784 2406 2684 2573 
Q 2584 2741 2328 2741 
Q 2006 2741 1831 2477 
Q 1656 2213 1656 1722 
L 1656 0 
L 531 0 
L 531 3500 
L 1656 3500 
L 1656 2988 
Q 1863 3284 2130 3434 
Q 2397 3584 2719 3584 
Q 3081 3584 3359 3409 
Q 3638 3234 3781 2919 
z
" transform="scale(0.015625)"/>
       <path id="DejaVuSans-Bold-79" d="M 78 3500 
L 1197 3500 
L 2138 1125 
L 2938 3500 
L 4056 3500 
L 2584 -331 
Q 2363 -916 2067 -1148 
Q 1772 -1381 1288 -1381 
L 641 -1381 
L 641 -647 
L 991 -647 
Q 1275 -647 1404 -556 
Q 1534 -466 1606 -231 
L 1638 -134 
L 78 3500 
z
" transform="scale(0.015625)"/>
      </defs>
      <use xlink:href="#DejaVuSans-Bold-54"/>
      <use xlink:href="#DejaVuSans-Bold-68" transform="translate(68.212891 0)"/>
      <use xlink:href="#DejaVuSans-Bold-65" transform="translate(139.404297 0)"/>
      <use xlink:href="#DejaVuSans-Bold-72" transform="translate(207.226562 0)"/>
      <use xlink:href="#DejaVuSans-Bold-6d" transform="translate(256.542969 0)"/>
      <use xlink:href="#DejaVuSans-Bold-61" transform="translate(360.742188 0)"/>
      <use xlink:href="#DejaVuSans-Bold-6c" transform="translate(428.222656 0)"/>
      <use xlink:href="#DejaVuSans-Bold-2d" transform="translate(462.5 0)"/>
      <use xlink:href="#DejaVuSans-Bold-6f" transform="translate(504.003906 0)"/>
      <use xlink:href="#DejaVuSans-Bold-6e" transform="translate(572.705078 0)"/>
      <use xlink:href="#DejaVuSans-Bold-6c" transform="translate(643.896484 0)"/>
      <use xlink:href="#DejaVuSans-Bold-79" transform="translate(678.173828 0)"/>
     </g>
    </g>
    <g id="line2d_111">
     <path d="M 73.439688 207.699688 
L 89.439688 207.699688 
L 105.439688 207.699688 
" style="fill: none; stroke: #ff7f0e; stroke-opacity: 0.96; stroke-width: 3; stroke-linecap: square"/>
     <g>
      <use xlink:href="#m9bb57173b7" x="89.439688" y="207.699688" style="fill: #ff7f0e; fill-opacity: 0.96; stroke: #ffffff; stroke-opacity: 0.96"/>
     </g>
    </g>
    <g id="text_18">
     <!-- RGB-only -->
     <g transform="translate(118.239688 213.299688) scale(0.16 -0.16)">
      <defs>
       <path id="DejaVuSans-Bold-47" d="M 4781 347 
Q 4331 128 3847 18 
Q 3363 -91 2847 -91 
Q 1681 -91 1000 561 
Q 319 1213 319 2328 
Q 319 3456 1012 4103 
Q 1706 4750 2913 4750 
Q 3378 4750 3804 4662 
Q 4231 4575 4609 4403 
L 4609 3438 
Q 4219 3659 3833 3768 
Q 3447 3878 3059 3878 
Q 2341 3878 1952 3476 
Q 1563 3075 1563 2328 
Q 1563 1588 1938 1184 
Q 2313 781 3003 781 
Q 3191 781 3352 804 
Q 3513 828 3641 878 
L 3641 1784 
L 2906 1784 
L 2906 2591 
L 4781 2591 
L 4781 347 
z
" transform="scale(0.015625)"/>
       <path id="DejaVuSans-Bold-42" d="M 2456 2859 
Q 2741 2859 2887 2984 
Q 3034 3109 3034 3353 
Q 3034 3594 2887 3720 
Q 2741 3847 2456 3847 
L 1791 3847 
L 1791 2859 
L 2456 2859 
z
M 2497 819 
Q 2859 819 3042 972 
Q 3225 1125 3225 1434 
Q 3225 1738 3044 1889 
Q 2863 2041 2497 2041 
L 1791 2041 
L 1791 819 
L 2497 819 
z
M 3616 2497 
Q 4003 2384 4215 2081 
Q 4428 1778 4428 1338 
Q 4428 663 3972 331 
Q 3516 0 2584 0 
L 588 0 
L 588 4666 
L 2394 4666 
Q 3366 4666 3802 4372 
Q 4238 4078 4238 3431 
Q 4238 3091 4078 2852 
Q 3919 2613 3616 2497 
z
" transform="scale(0.015625)"/>
      </defs>
      <use xlink:href="#DejaVuSans-Bold-52"/>
      <use xlink:href="#DejaVuSans-Bold-47" transform="translate(77.001953 0)"/>
      <use xlink:href="#DejaVuSans-Bold-42" transform="translate(159.082031 0)"/>
      <use xlink:href="#DejaVuSans-Bold-2d" transform="translate(235.302734 0)"/>
      <use xlink:href="#DejaVuSans-Bold-6f" transform="translate(276.806641 0)"/>
      <use xlink:href="#DejaVuSans-Bold-6e" transform="translate(345.507812 0)"/>
      <use xlink:href="#DejaVuSans-Bold-6c" transform="translate(416.699219 0)"/>
      <use xlink:href="#DejaVuSans-Bold-79" transform="translate(450.976562 0)"/>
     </g>
    </g>
    <g id="line2d_112">
     <path d="M 73.439688 231.309688 
L 89.439688 231.309688 
L 105.439688 231.309688 
" style="fill: none; stroke: #2ca02c; stroke-opacity: 0.96; stroke-width: 3; stroke-linecap: square"/>
     <g>
      <use xlink:href="#m2b8586d10c" x="89.439688" y="231.309688" style="fill: #2ca02c; fill-opacity: 0.96; stroke: #ffffff; stroke-opacity: 0.96"/>
     </g>
    </g>
    <g id="text_19">
     <!-- Ours (T+RGB) -->
     <g transform="translate(118.239688 236.909688) scale(0.16 -0.16)">
      <defs>
       <path id="DejaVuSans-Bold-4f" d="M 2719 3878 
Q 2169 3878 1866 3472 
Q 1563 3066 1563 2328 
Q 1563 1594 1866 1187 
Q 2169 781 2719 781 
Q 3272 781 3575 1187 
Q 3878 1594 3878 2328 
Q 3878 3066 3575 3472 
Q 3272 3878 2719 3878 
z
M 2719 4750 
Q 3844 4750 4481 4106 
Q 5119 3463 5119 2328 
Q 5119 1197 4481 553 
Q 3844 -91 2719 -91 
Q 1597 -91 958 553 
Q 319 1197 319 2328 
Q 319 3463 958 4106 
Q 1597 4750 2719 4750 
z
" transform="scale(0.015625)"/>
       <path id="DejaVuSans-Bold-75" d="M 500 1363 
L 500 3500 
L 1625 3500 
L 1625 3150 
Q 1625 2866 1622 2436 
Q 1619 2006 1619 1863 
Q 1619 1441 1641 1255 
Q 1663 1069 1716 984 
Q 1784 875 1895 815 
Q 2006 756 2150 756 
Q 2500 756 2700 1025 
Q 2900 1294 2900 1772 
L 2900 3500 
L 4019 3500 
L 4019 0 
L 2900 0 
L 2900 506 
Q 2647 200 2364 54 
Q 2081 -91 1741 -91 
Q 1134 -91 817 281 
Q 500 653 500 1363 
z
" transform="scale(0.015625)"/>
       <path id="DejaVuSans-Bold-28" d="M 2413 -844 
L 1484 -844 
Q 1006 -72 778 623 
Q 550 1319 550 2003 
Q 550 2688 779 3389 
Q 1009 4091 1484 4856 
L 2413 4856 
Q 2013 4116 1813 3408 
Q 1613 2700 1613 2009 
Q 1613 1319 1811 609 
Q 2009 -100 2413 -844 
z
" transform="scale(0.015625)"/>
       <path id="DejaVuSans-Bold-2b" d="M 3053 4013 
L 3053 2375 
L 4684 2375 
L 4684 1638 
L 3053 1638 
L 3053 0 
L 2309 0 
L 2309 1638 
L 678 1638 
L 678 2375 
L 2309 2375 
L 2309 4013 
L 3053 4013 
z
" transform="scale(0.015625)"/>
       <path id="DejaVuSans-Bold-29" d="M 513 -844 
Q 913 -100 1113 609 
Q 1313 1319 1313 2009 
Q 1313 2700 1113 3408 
Q 913 4116 513 4856 
L 1441 4856 
Q 1916 4091 2145 3389 
Q 2375 2688 2375 2003 
Q 2375 1319 2147 623 
Q 1919 -72 1441 -844 
L 513 -844 
z
" transform="scale(0.015625)"/>
      </defs>
      <use xlink:href="#DejaVuSans-Bold-4f"/>
      <use xlink:href="#DejaVuSans-Bold-75" transform="translate(85.009766 0)"/>
      <use xlink:href="#DejaVuSans-Bold-72" transform="translate(156.201172 0)"/>
      <use xlink:href="#DejaVuSans-Bold-73" transform="translate(205.517578 0)"/>
      <use xlink:href="#DejaVuSans-Bold-20" transform="translate(265.039062 0)"/>
      <use xlink:href="#DejaVuSans-Bold-28" transform="translate(299.853516 0)"/>
      <use xlink:href="#DejaVuSans-Bold-54" transform="translate(345.556641 0)"/>
      <use xlink:href="#DejaVuSans-Bold-2b" transform="translate(413.769531 0)"/>
      <use xlink:href="#DejaVuSans-Bold-52" transform="translate(497.558594 0)"/>
      <use xlink:href="#DejaVuSans-Bold-47" transform="translate(574.560547 0)"/>
      <use xlink:href="#DejaVuSans-Bold-42" transform="translate(656.640625 0)"/>
      <use xlink:href="#DejaVuSans-Bold-29" transform="translate(732.861328 0)"/>
     </g>
    </g>
   </g>
  </g>
 </g>
 <defs>
  <clipPath id="p554b4e2427">
   <rect x="59.039688" y="32.877187" width="334.8" height="221.76"/>
  </clipPath>
 </defs>
</svg>
