<?xml version="1.0" encoding="utf-8" standalone="no"?>
<!DOCTYPE svg PUBLIC "-//W3C//DTD SVG 1.1//EN"
  "http://www.w3.org/Graphics/SVG/1.1/DTD/svg11.dtd">
<svg xmlns:xlink="http://www.w3.org/1999/xlink" width="398.053906pt" height="286.0575pt" viewBox="0 0 398.053906 286.0575" xmlns="http://www.w3.org/2000/svg" version="1.1">
 <metadata>
  <rdf:RDF xmlns:dc="http://purl.org/dc/elements/1.1/" xmlns:cc="http://creativecommons.org/ns#" xmlns:rdf="http://www.w3.org/1999/02/22-rdf-syntax-ns#">
   <cc:Work>
    <dc:type rdf:resource="http://purl.org/dc/dcmitype/StillImage"/>
    <dc:date>2025-11-15T11:31:21.493922</dc:date>
    <dc:format>image/svg+xml</dc:format>
    <dc:creator>
     <cc:Agent>
      <dc:title>Matplotlib v3.10.6, https://matplotlib.org/</dc:title>
     </cc:Agent>
    </dc:creator>
   </cc:Work>
  </rdf:RDF>
 </metadata>
 <defs>
  <style type="text/css">*{stroke-linejoin: round; stroke-linecap: butt}</style>
 </defs>
 <g id="figure_1">
  <g id="patch_1">
   <path d="M 0 286.0575 
L 398.053906 286.0575 
L 398.053906 0 
L 0 0 
z
" style="fill: #ffffff"/>
  </g>
  <g id="axes_1">
   <g id="patch_2">
    <path d="M 47.307188 245.597813 
L 382.107188 245.597813 
L 382.107188 23.837812 
L 47.307188 23.837812 
z
" style="fill: #ffffff"/>
   </g>
   <g id="matplotlib.axis_1">
    <g id="xtick_1">
     <g id="line2d_1">
      <path d="M 47.307188 245.597813 
L 47.307188 23.837812 
" clip-path="url(#pacb9725490)" style="fill: none; stroke: #bfbfbf; stroke-opacity: 0.6; stroke-width: 0.85; stroke-linecap: square"/>
     </g>
     <g id="line2d_2">
      <defs>
       <path id="m21e4110000" d="M 0 0 
L 0 3.5 
" style="stroke: #000000"/>
      </defs>
      <g>
       <use xlink:href="#m21e4110000" x="47.307188" y="245.597813" style="stroke: #000000"/>
      </g>
     </g>
     <g id="text_1">
      <!-- 0.0 -->
      <g transform="translate(38.560469 260.956094) scale(0.11 -0.11)">
       <defs>
        <path id="DejaVuSans-30" d="M 2034 4250 
Q 1547 4250 1301 3770 
Q 1056 3291 1056 2328 
Q 1056 1369 1301 889 
Q 1547 409 2034 409 
Q 2525 409 2770 889 
Q 3016 1369 3016 2328 
Q 3016 3291 2770 3770 
Q 2525 4250 2034 4250 
z
M 2034 4750 
Q 2819 4750 3233 4129 
Q 3647 3509 3647 2328 
Q 3647 1150 3233 529 
Q 2819 -91 2034 -91 
Q 1250 -91 836 529 
Q 422 1150 422 2328 
Q 422 3509 836 4129 
Q 1250 4750 2034 4750 
z
" transform="scale(0.015625)"/>
        <path id="DejaVuSans-2e" d="M 684 794 
L 1344 794 
L 1344 0 
L 684 0 
L 684 794 
z
" transform="scale(0.015625)"/>
       </defs>
       <use xlink:href="#DejaVuSans-30"/>
       <use xlink:href="#DejaVuSans-2e" transform="translate(63.623047 0)"/>
       <use xlink:href="#DejaVuSans-30" transform="translate(95.410156 0)"/>
      </g>
     </g>
    </g>
    <g id="xtick_2">
     <g id="line2d_3">
      <path d="M 114.267188 245.597813 
L 114.267188 23.837812 
" clip-path="url(#pacb9725490)" style="fill: none; stroke: #bfbfbf; stroke-opacity: 0.6; stroke-width: 0.85; stroke-linecap: square"/>
     </g>
     <g id="line2d_4">
      <g>
       <use xlink:href="#m21e4110000" x="114.267188" y="245.597813" style="stroke: #000000"/>
      </g>
     </g>
     <g id="text_2">
      <!-- 0.2 -->
      <g transform="translate(105.520469 260.956094) scale(0.11 -0.11)">
       <defs>
        <path id="DejaVuSans-32" d="M 1228 531 
L 3431 531 
L 3431 0 
L 469 0 
L 469 531 
Q 828 903 1448 1529 
Q 2069 2156 2228 2338 
Q 2531 2678 2651 2914 
Q 2772 3150 2772 3378 
Q 2772 3750 2511 3984 
Q 2250 4219 1831 4219 
Q 1534 4219 1204 4116 
Q 875 4013 500 3803 
L 500 4441 
Q 881 4594 1212 4672 
Q 1544 4750 1819 4750 
Q 2544 4750 2975 4387 
Q 3406 4025 3406 3419 
Q 3406 3131 3298 2873 
Q 3191 2616 2906 2266 
Q 2828 2175 2409 1742 
Q 1991 1309 1228 531 
z
" transform="scale(0.015625)"/>
       </defs>
       <use xlink:href="#DejaVuSans-30"/>
       <use xlink:href="#DejaVuSans-2e" transform="translate(63.623047 0)"/>
       <use xlink:href="#DejaVuSans-32" transform="translate(95.410156 0)"/>
      </g>
     </g>
    </g>
    <g id="xtick_3">
     <g id="line2d_5">
      <path d="M 181.227188 245.597813 
L 181.227188 23.837812 
" clip-path="url(#pacb9725490)" style="fill: none; stroke: #bfbfbf; stroke-opacity: 0.6; stroke-width: 0.85; stroke-linecap: square"/>
     </g>
     <g id="line2d_6">
      <g>
       <use xlink:href="#m21e4110000" x="181.227188" y="245.597813" style="stroke: #000000"/>
      </g>
     </g>
     <g id="text_3">
      <!-- 0.4 -->
      <g transform="translate(172.480469 260.956094) scale(0.11 -0.11)">
       <defs>
        <path id="DejaVuSans-34" d="M 2419 4116 
L 825 1625 
L 2419 1625 
L 2419 4116 
z
M 2253 4666 
L 3047 4666 
L 3047 1625 
L 3713 1625 
L 3713 1100 
L 3047 1100 
L 3047 0 
L 2419 0 
L 2419 1100 
L 313 1100 
L 313 1709 
L 2253 4666 
z
" transform="scale(0.015625)"/>
       </defs>
       <use xlink:href="#DejaVuSans-30"/>
       <use xlink:href="#DejaVuSans-2e" transform="translate(63.623047 0)"/>
       <use xlink:href="#DejaVuSans-34" transform="translate(95.410156 0)"/>
      </g>
     </g>
    </g>
    <g id="xtick_4">
     <g id="line2d_7">
      <path d="M 248.187188 245.597813 
L 248.187188 23.837812 
" clip-path="url(#pacb9725490)" style="fill: none; stroke: #bfbfbf; stroke-opacity: 0.6; stroke-width: 0.85; stroke-linecap: square"/>
     </g>
     <g id="line2d_8">
      <g>
       <use xlink:href="#m21e4110000" x="248.187188" y="245.597813" style="stroke: #000000"/>
      </g>
     </g>
     <g id="text_4">
      <!-- 0.6 -->
      <g transform="translate(239.440469 260.956094) scale(0.11 -0.11)">
       <defs>
        <path id="DejaVuSans-36" d="M 2113 2584 
Q 1688 2584 1439 2293 
Q 1191 2003 1191 1497 
Q 1191 994 1439 701 
Q 1688 409 2113 409 
Q 2538 409 2786 701 
Q 3034 994 3034 1497 
Q 3034 2003 2786 2293 
Q 2538 2584 2113 2584 
z
M 3366 4563 
L 3366 3988 
Q 3128 4100 2886 4159 
Q 2644 4219 2406 4219 
Q 1781 4219 1451 3797 
Q 1122 3375 1075 2522 
Q 1259 2794 1537 2939 
Q 1816 3084 2150 3084 
Q 2853 3084 3261 2657 
Q 3669 2231 3669 1497 
Q 3669 778 3244 343 
Q 2819 -91 2113 -91 
Q 1303 -91 875 529 
Q 447 1150 447 2328 
Q 447 3434 972 4092 
Q 1497 4750 2381 4750 
Q 2619 4750 2861 4703 
Q 3103 4656 3366 4563 
z
" transform="scale(0.015625)"/>
       </defs>
       <use xlink:href="#DejaVuSans-30"/>
       <use xlink:href="#DejaVuSans-2e" transform="translate(63.623047 0)"/>
       <use xlink:href="#DejaVuSans-36" transform="translate(95.410156 0)"/>
      </g>
     </g>
    </g>
    <g id="xtick_5">
     <g id="line2d_9">
      <path d="M 315.147188 245.597813 
L 315.147188 23.837812 
" clip-path="url(#pacb9725490)" style="fill: none; stroke: #bfbfbf; stroke-opacity: 0.6; stroke-width: 0.85; stroke-linecap: square"/>
     </g>
     <g id="line2d_10">
      <g>
       <use xlink:href="#m21e4110000" x="315.147188" y="245.597813" style="stroke: #000000"/>
      </g>
     </g>
     <g id="text_5">
      <!-- 0.8 -->
      <g transform="translate(306.400469 260.956094) scale(0.11 -0.11)">
       <defs>
        <path id="DejaVuSans-38" d="M 2034 2216 
Q 1584 2216 1326 1975 
Q 1069 1734 1069 1313 
Q 1069 891 1326 650 
Q 1584 409 2034 409 
Q 2484 409 2743 651 
Q 3003 894 3003 1313 
Q 3003 1734 2745 1975 
Q 2488 2216 2034 2216 
z
M 1403 2484 
Q 997 2584 770 2862 
Q 544 3141 544 3541 
Q 544 4100 942 4425 
Q 1341 4750 2034 4750 
Q 2731 4750 3128 4425 
Q 3525 4100 3525 3541 
Q 3525 3141 3298 2862 
Q 3072 2584 2669 2484 
Q 3125 2378 3379 2068 
Q 3634 1759 3634 1313 
Q 3634 634 3220 271 
Q 2806 -91 2034 -91 
Q 1263 -91 848 271 
Q 434 634 434 1313 
Q 434 1759 690 2068 
Q 947 2378 1403 2484 
z
M 1172 3481 
Q 1172 3119 1398 2916 
Q 1625 2713 2034 2713 
Q 2441 2713 2670 2916 
Q 2900 3119 2900 3481 
Q 2900 3844 2670 4047 
Q 2441 4250 2034 4250 
Q 1625 4250 1398 4047 
Q 1172 3844 1172 3481 
z
" transform="scale(0.015625)"/>
       </defs>
       <use xlink:href="#DejaVuSans-30"/>
       <use xlink:href="#DejaVuSans-2e" transform="translate(63.623047 0)"/>
       <use xlink:href="#DejaVuSans-38" transform="translate(95.410156 0)"/>
      </g>
     </g>
    </g>
    <g id="xtick_6">
     <g id="line2d_11">
      <path d="M 382.107188 245.597813 
L 382.107188 23.837812 
" clip-path="url(#pacb9725490)" style="fill: none; stroke: #bfbfbf; stroke-opacity: 0.6; stroke-width: 0.85; stroke-linecap: square"/>
     </g>
     <g id="line2d_12">
      <g>
       <use xlink:href="#m21e4110000" x="382.107188" y="245.597813" style="stroke: #000000"/>
      </g>
     </g>
     <g id="text_6">
      <!-- 1.0 -->
      <g transform="translate(373.360469 260.956094) scale(0.11 -0.11)">
       <defs>
        <path id="DejaVuSans-31" d="M 794 531 
L 1825 531 
L 1825 4091 
L 703 3866 
L 703 4441 
L 1819 4666 
L 2450 4666 
L 2450 531 
L 3481 531 
L 3481 0 
L 794 0 
L 794 531 
z
" transform="scale(0.015625)"/>
       </defs>
       <use xlink:href="#DejaVuSans-31"/>
       <use xlink:href="#DejaVuSans-2e" transform="translate(63.623047 0)"/>
       <use xlink:href="#DejaVuSans-30" transform="translate(95.410156 0)"/>
      </g>
     </g>
    </g>
    <g id="xtick_7">
     <g id="line2d_13">
      <path d="M 64.047188 245.597813 
L 64.047188 23.837812 
" clip-path="url(#pacb9725490)" style="fill: none; stroke: #dedede; stroke-opacity: 0.4; stroke-width: 0.6; stroke-linecap: square"/>
     </g>
     <g id="line2d_14">
      <defs>
       <path id="m8e955acbb3" d="M 0 0 
L 0 2 
" style="stroke: #000000; stroke-width: 0.6"/>
      </defs>
      <g>
       <use xlink:href="#m8e955acbb3" x="64.047188" y="245.597813" style="stroke: #000000; stroke-width: 0.6"/>
      </g>
     </g>
    </g>
    <g id="xtick_8">
     <g id="line2d_15">
      <path d="M 80.787188 245.597813 
L 80.787188 23.837812 
" clip-path="url(#pacb9725490)" style="fill: none; stroke: #dedede; stroke-opacity: 0.4; stroke-width: 0.6; stroke-linecap: square"/>
     </g>
     <g id="line2d_16">
      <g>
       <use xlink:href="#m8e955acbb3" x="80.787188" y="245.597813" style="stroke: #000000; stroke-width: 0.6"/>
      </g>
     </g>
    </g>
    <g id="xtick_9">
     <g id="line2d_17">
      <path d="M 97.527188 245.597813 
L 97.527188 23.837812 
" clip-path="url(#pacb9725490)" style="fill: none; stroke: #dedede; stroke-opacity: 0.4; stroke-width: 0.6; stroke-linecap: square"/>
     </g>
     <g id="line2d_18">
      <g>
       <use xlink:href="#m8e955acbb3" x="97.527188" y="245.597813" style="stroke: #000000; stroke-width: 0.6"/>
      </g>
     </g>
    </g>
    <g id="xtick_10">
     <g id="line2d_19">
      <path d="M 131.007188 245.597813 
L 131.007188 23.837812 
" clip-path="url(#pacb9725490)" style="fill: none; stroke: #dedede; stroke-opacity: 0.4; stroke-width: 0.6; stroke-linecap: square"/>
     </g>
     <g id="line2d_20">
      <g>
       <use xlink:href="#m8e955acbb3" x="131.007188" y="245.597813" style="stroke: #000000; stroke-width: 0.6"/>
      </g>
     </g>
    </g>
    <g id="xtick_11">
     <g id="line2d_21">
      <path d="M 147.747188 245.597813 
L 147.747188 23.837812 
" clip-path="url(#pacb9725490)" style="fill: none; stroke: #dedede; stroke-opacity: 0.4; stroke-width: 0.6; stroke-linecap: square"/>
     </g>
     <g id="line2d_22">
      <g>
       <use xlink:href="#m8e955acbb3" x="147.747188" y="245.597813" style="stroke: #000000; stroke-width: 0.6"/>
      </g>
     </g>
    </g>
    <g id="xtick_12">
     <g id="line2d_23">
      <path d="M 164.487188 245.597813 
L 164.487188 23.837812 
" clip-path="url(#pacb9725490)" style="fill: none; stroke: #dedede; stroke-opacity: 0.4; stroke-width: 0.6; stroke-linecap: square"/>
     </g>
     <g id="line2d_24">
      <g>
       <use xlink:href="#m8e955acbb3" x="164.487188" y="245.597813" style="stroke: #000000; stroke-width: 0.6"/>
      </g>
     </g>
    </g>
    <g id="xtick_13">
     <g id="line2d_25">
      <path d="M 197.967187 245.597813 
L 197.967187 23.837812 
" clip-path="url(#pacb9725490)" style="fill: none; stroke: #dedede; stroke-opacity: 0.4; stroke-width: 0.6; stroke-linecap: square"/>
     </g>
     <g id="line2d_26">
      <g>
       <use xlink:href="#m8e955acbb3" x="197.967187" y="245.597813" style="stroke: #000000; stroke-width: 0.6"/>
      </g>
     </g>
    </g>
    <g id="xtick_14">
     <g id="line2d_27">
      <path d="M 214.707188 245.597813 
L 214.707188 23.837812 
" clip-path="url(#pacb9725490)" style="fill: none; stroke: #dedede; stroke-opacity: 0.4; stroke-width: 0.6; stroke-linecap: square"/>
     </g>
     <g id="line2d_28">
      <g>
       <use xlink:href="#m8e955acbb3" x="214.707188" y="245.597813" style="stroke: #000000; stroke-width: 0.6"/>
      </g>
     </g>
    </g>
    <g id="xtick_15">
     <g id="line2d_29">
      <path d="M 231.447188 245.597813 
L 231.447188 23.837812 
" clip-path="url(#pacb9725490)" style="fill: none; stroke: #dedede; stroke-opacity: 0.4; stroke-width: 0.6; stroke-linecap: square"/>
     </g>
     <g id="line2d_30">
      <g>
       <use xlink:href="#m8e955acbb3" x="231.447188" y="245.597813" style="stroke: #000000; stroke-width: 0.6"/>
      </g>
     </g>
    </g>
    <g id="xtick_16">
     <g id="line2d_31">
      <path d="M 264.927188 245.597813 
L 264.927188 23.837812 
" clip-path="url(#pacb9725490)" style="fill: none; stroke: #dedede; stroke-opacity: 0.4; stroke-width: 0.6; stroke-linecap: square"/>
     </g>
     <g id="line2d_32">
      <g>
       <use xlink:href="#m8e955acbb3" x="264.927188" y="245.597813" style="stroke: #000000; stroke-width: 0.6"/>
      </g>
     </g>
    </g>
    <g id="xtick_17">
     <g id="line2d_33">
      <path d="M 281.667188 245.597813 
L 281.667188 23.837812 
" clip-path="url(#pacb9725490)" style="fill: none; stroke: #dedede; stroke-opacity: 0.4; stroke-width: 0.6; stroke-linecap: square"/>
     </g>
     <g id="line2d_34">
      <g>
       <use xlink:href="#m8e955acbb3" x="281.667188" y="245.597813" style="stroke: #000000; stroke-width: 0.6"/>
      </g>
     </g>
    </g>
    <g id="xtick_18">
     <g id="line2d_35">
      <path d="M 298.407188 245.597813 
L 298.407188 23.837812 
" clip-path="url(#pacb9725490)" style="fill: none; stroke: #dedede; stroke-opacity: 0.4; stroke-width: 0.6; stroke-linecap: square"/>
     </g>
     <g id="line2d_36">
      <g>
       <use xlink:href="#m8e955acbb3" x="298.407188" y="245.597813" style="stroke: #000000; stroke-width: 0.6"/>
      </g>
     </g>
    </g>
    <g id="xtick_19">
     <g id="line2d_37">
      <path d="M 331.887188 245.597813 
L 331.887188 23.837812 
" clip-path="url(#pacb9725490)" style="fill: none; stroke: #dedede; stroke-opacity: 0.4; stroke-width: 0.6; stroke-linecap: square"/>
     </g>
     <g id="line2d_38">
      <g>
       <use xlink:href="#m8e955acbb3" x="331.887188" y="245.597813" style="stroke: #000000; stroke-width: 0.6"/>
      </g>
     </g>
    </g>
    <g id="xtick_20">
     <g id="line2d_39">
      <path d="M 348.627187 245.597813 
L 348.627187 23.837812 
" clip-path="url(#pacb9725490)" style="fill: none; stroke: #dedede; stroke-opacity: 0.4; stroke-width: 0.6; stroke-linecap: square"/>
     </g>
     <g id="line2d_40">
      <g>
       <use xlink:href="#m8e955acbb3" x="348.627187" y="245.597813" style="stroke: #000000; stroke-width: 0.6"/>
      </g>
     </g>
    </g>
    <g id="xtick_21">
     <g id="line2d_41">
      <path d="M 365.367188 245.597813 
L 365.367188 23.837812 
" clip-path="url(#pacb9725490)" style="fill: none; stroke: #dedede; stroke-opacity: 0.4; stroke-width: 0.6; stroke-linecap: square"/>
     </g>
     <g id="line2d_42">
      <g>
       <use xlink:href="#m8e955acbb3" x="365.367188" y="245.597813" style="stroke: #000000; stroke-width: 0.6"/>
      </g>
     </g>
    </g>
    <g id="text_7">
     <!-- Recall -->
     <g transform="translate(194.297812 276.361875) scale(0.12 -0.12)">
      <defs>
       <path id="DejaVuSans-Bold-52" d="M 2297 2597 
Q 2675 2597 2839 2737 
Q 3003 2878 3003 3200 
Q 3003 3519 2839 3656 
Q 2675 3794 2297 3794 
L 1791 3794 
L 1791 2597 
L 2297 2597 
z
M 1791 1766 
L 1791 0 
L 588 0 
L 588 4666 
L 2425 4666 
Q 3347 4666 3776 4356 
Q 4206 4047 4206 3378 
Q 4206 2916 3982 2619 
Q 3759 2322 3309 2181 
Q 3556 2125 3751 1926 
Q 3947 1728 4147 1325 
L 4800 0 
L 3519 0 
L 2950 1159 
Q 2778 1509 2601 1637 
Q 2425 1766 2131 1766 
L 1791 1766 
z
" transform="scale(0.015625)"/>
       <path id="DejaVuSans-Bold-65" d="M 4031 1759 
L 4031 1441 
L 1416 1441 
Q 1456 1047 1700 850 
Q 1944 653 2381 653 
Q 2734 653 3104 758 
Q 3475 863 3866 1075 
L 3866 213 
Q 3469 63 3072 -14 
Q 2675 -91 2278 -91 
Q 1328 -91 801 392 
Q 275 875 275 1747 
Q 275 2603 792 3093 
Q 1309 3584 2216 3584 
Q 3041 3584 3536 3087 
Q 4031 2591 4031 1759 
z
M 2881 2131 
Q 2881 2450 2695 2645 
Q 2509 2841 2209 2841 
Q 1884 2841 1681 2658 
Q 1478 2475 1428 2131 
L 2881 2131 
z
" transform="scale(0.015625)"/>
       <path id="DejaVuSans-Bold-63" d="M 3366 3391 
L 3366 2478 
Q 3138 2634 2908 2709 
Q 2678 2784 2431 2784 
Q 1963 2784 1702 2511 
Q 1441 2238 1441 1747 
Q 1441 1256 1702 982 
Q 1963 709 2431 709 
Q 2694 709 2930 787 
Q 3166 866 3366 1019 
L 3366 103 
Q 3103 6 2833 -42 
Q 2563 -91 2291 -91 
Q 1344 -91 809 395 
Q 275 881 275 1747 
Q 275 2613 809 3098 
Q 1344 3584 2291 3584 
Q 2566 3584 2833 3536 
Q 3100 3488 3366 3391 
z
" transform="scale(0.015625)"/>
       <path id="DejaVuSans-Bold-61" d="M 2106 1575 
Q 1756 1575 1579 1456 
Q 1403 1338 1403 1106 
Q 1403 894 1545 773 
Q 1688 653 1941 653 
Q 2256 653 2472 879 
Q 2688 1106 2688 1447 
L 2688 1575 
L 2106 1575 
z
M 3816 1997 
L 3816 0 
L 2688 0 
L 2688 519 
Q 2463 200 2181 54 
Q 1900 -91 1497 -91 
Q 953 -91 614 226 
Q 275 544 275 1050 
Q 275 1666 698 1953 
Q 1122 2241 2028 2241 
L 2688 2241 
L 2688 2328 
Q 2688 2594 2478 2717 
Q 2269 2841 1825 2841 
Q 1466 2841 1156 2769 
Q 847 2697 581 2553 
L 581 3406 
Q 941 3494 1303 3539 
Q 1666 3584 2028 3584 
Q 2975 3584 3395 3211 
Q 3816 2838 3816 1997 
z
" transform="scale(0.015625)"/>
       <path id="DejaVuSans-Bold-6c" d="M 538 4863 
L 1656 4863 
L 1656 0 
L 538 0 
L 538 4863 
z
" transform="scale(0.015625)"/>
      </defs>
      <use xlink:href="#DejaVuSans-Bold-52"/>
      <use xlink:href="#DejaVuSans-Bold-65" transform="translate(77.001953 0)"/>
      <use xlink:href="#DejaVuSans-Bold-63" transform="translate(144.824219 0)"/>
      <use xlink:href="#DejaVuSans-Bold-61" transform="translate(204.101562 0)"/>
      <use xlink:href="#DejaVuSans-Bold-6c" transform="translate(271.582031 0)"/>
      <use xlink:href="#DejaVuSans-Bold-6c" transform="translate(305.859375 0)"/>
     </g>
    </g>
   </g>
   <g id="matplotlib.axis_2">
    <g id="ytick_1">
     <g id="line2d_43">
      <path d="M 47.307188 245.597813 
L 382.107188 245.597813 
" clip-path="url(#pacb9725490)" style="fill: none; stroke: #bfbfbf; stroke-opacity: 0.6; stroke-width: 0.85; stroke-linecap: square"/>
     </g>
     <g id="line2d_44">
      <defs>
       <path id="ma514ef9934" d="M 0 0 
L -3.5 0 
" style="stroke: #000000"/>
      </defs>
      <g>
       <use xlink:href="#ma514ef9934" x="47.307188" y="245.597813" style="stroke: #000000"/>
      </g>
     </g>
     <g id="text_8">
      <!-- 0.4 -->
      <g transform="translate(22.81375 249.776953) scale(0.11 -0.11)">
       <use xlink:href="#DejaVuSans-30"/>
       <use xlink:href="#DejaVuSans-2e" transform="translate(63.623047 0)"/>
       <use xlink:href="#DejaVuSans-34" transform="translate(95.410156 0)"/>
      </g>
     </g>
    </g>
    <g id="ytick_2">
     <g id="line2d_45">
      <path d="M 47.307188 209.830071 
L 382.107188 209.830071 
" clip-path="url(#pacb9725490)" style="fill: none; stroke: #bfbfbf; stroke-opacity: 0.6; stroke-width: 0.85; stroke-linecap: square"/>
     </g>
     <g id="line2d_46">
      <g>
       <use xlink:href="#ma514ef9934" x="47.307188" y="209.830071" style="stroke: #000000"/>
      </g>
     </g>
     <g id="text_9">
      <!-- 0.5 -->
      <g transform="translate(22.81375 214.009211) scale(0.11 -0.11)">
       <defs>
        <path id="DejaVuSans-35" d="M 691 4666 
L 3169 4666 
L 3169 4134 
L 1269 4134 
L 1269 2991 
Q 1406 3038 1543 3061 
Q 1681 3084 1819 3084 
Q 2600 3084 3056 2656 
Q 3513 2228 3513 1497 
Q 3513 744 3044 326 
Q 2575 -91 1722 -91 
Q 1428 -91 1123 -41 
Q 819 9 494 109 
L 494 744 
Q 775 591 1075 516 
Q 1375 441 1709 441 
Q 2250 441 2565 725 
Q 2881 1009 2881 1497 
Q 2881 1984 2565 2268 
Q 2250 2553 1709 2553 
Q 1456 2553 1204 2497 
Q 953 2441 691 2322 
L 691 4666 
z
" transform="scale(0.015625)"/>
       </defs>
       <use xlink:href="#DejaVuSans-30"/>
       <use xlink:href="#DejaVuSans-2e" transform="translate(63.623047 0)"/>
       <use xlink:href="#DejaVuSans-35" transform="translate(95.410156 0)"/>
      </g>
     </g>
    </g>
    <g id="ytick_3">
     <g id="line2d_47">
      <path d="M 47.307188 174.062329 
L 382.107188 174.062329 
" clip-path="url(#pacb9725490)" style="fill: none; stroke: #bfbfbf; stroke-opacity: 0.6; stroke-width: 0.85; stroke-linecap: square"/>
     </g>
     <g id="line2d_48">
      <g>
       <use xlink:href="#ma514ef9934" x="47.307188" y="174.062329" style="stroke: #000000"/>
      </g>
     </g>
     <g id="text_10">
      <!-- 0.6 -->
      <g transform="translate(22.81375 178.241469) scale(0.11 -0.11)">
       <use xlink:href="#DejaVuSans-30"/>
       <use xlink:href="#DejaVuSans-2e" transform="translate(63.623047 0)"/>
       <use xlink:href="#DejaVuSans-36" transform="translate(95.410156 0)"/>
      </g>
     </g>
    </g>
    <g id="ytick_4">
     <g id="line2d_49">
      <path d="M 47.307188 138.294587 
L 382.107188 138.294587 
" clip-path="url(#pacb9725490)" style="fill: none; stroke: #bfbfbf; stroke-opacity: 0.6; stroke-width: 0.85; stroke-linecap: square"/>
     </g>
     <g id="line2d_50">
      <g>
       <use xlink:href="#ma514ef9934" x="47.307188" y="138.294587" style="stroke: #000000"/>
      </g>
     </g>
     <g id="text_11">
      <!-- 0.7 -->
      <g transform="translate(22.81375 142.473727) scale(0.11 -0.11)">
       <defs>
        <path id="DejaVuSans-37" d="M 525 4666 
L 3525 4666 
L 3525 4397 
L 1831 0 
L 1172 0 
L 2766 4134 
L 525 4134 
L 525 4666 
z
" transform="scale(0.015625)"/>
       </defs>
       <use xlink:href="#DejaVuSans-30"/>
       <use xlink:href="#DejaVuSans-2e" transform="translate(63.623047 0)"/>
       <use xlink:href="#DejaVuSans-37" transform="translate(95.410156 0)"/>
      </g>
     </g>
    </g>
    <g id="ytick_5">
     <g id="line2d_51">
      <path d="M 47.307188 102.526845 
L 382.107188 102.526845 
" clip-path="url(#pacb9725490)" style="fill: none; stroke: #bfbfbf; stroke-opacity: 0.6; stroke-width: 0.85; stroke-linecap: square"/>
     </g>
     <g id="line2d_52">
      <g>
       <use xlink:href="#ma514ef9934" x="47.307188" y="102.526845" style="stroke: #000000"/>
      </g>
     </g>
     <g id="text_12">
      <!-- 0.8 -->
      <g transform="translate(22.81375 106.705985) scale(0.11 -0.11)">
       <use xlink:href="#DejaVuSans-30"/>
       <use xlink:href="#DejaVuSans-2e" transform="translate(63.623047 0)"/>
       <use xlink:href="#DejaVuSans-38" transform="translate(95.410156 0)"/>
      </g>
     </g>
    </g>
    <g id="ytick_6">
     <g id="line2d_53">
      <path d="M 47.307188 66.759103 
L 382.107188 66.759103 
" clip-path="url(#pacb9725490)" style="fill: none; stroke: #bfbfbf; stroke-opacity: 0.6; stroke-width: 0.85; stroke-linecap: square"/>
     </g>
     <g id="line2d_54">
      <g>
       <use xlink:href="#ma514ef9934" x="47.307188" y="66.759103" style="stroke: #000000"/>
      </g>
     </g>
     <g id="text_13">
      <!-- 0.9 -->
      <g transform="translate(22.81375 70.938243) scale(0.11 -0.11)">
       <defs>
        <path id="DejaVuSans-39" d="M 703 97 
L 703 672 
Q 941 559 1184 500 
Q 1428 441 1663 441 
Q 2288 441 2617 861 
Q 2947 1281 2994 2138 
Q 2813 1869 2534 1725 
Q 2256 1581 1919 1581 
Q 1219 1581 811 2004 
Q 403 2428 403 3163 
Q 403 3881 828 4315 
Q 1253 4750 1959 4750 
Q 2769 4750 3195 4129 
Q 3622 3509 3622 2328 
Q 3622 1225 3098 567 
Q 2575 -91 1691 -91 
Q 1453 -91 1209 -44 
Q 966 3 703 97 
z
M 1959 2075 
Q 2384 2075 2632 2365 
Q 2881 2656 2881 3163 
Q 2881 3666 2632 3958 
Q 2384 4250 1959 4250 
Q 1534 4250 1286 3958 
Q 1038 3666 1038 3163 
Q 1038 2656 1286 2365 
Q 1534 2075 1959 2075 
z
" transform="scale(0.015625)"/>
       </defs>
       <use xlink:href="#DejaVuSans-30"/>
       <use xlink:href="#DejaVuSans-2e" transform="translate(63.623047 0)"/>
       <use xlink:href="#DejaVuSans-39" transform="translate(95.410156 0)"/>
      </g>
     </g>
    </g>
    <g id="ytick_7">
     <g id="line2d_55">
      <path d="M 47.307188 30.991361 
L 382.107188 30.991361 
" clip-path="url(#pacb9725490)" style="fill: none; stroke: #bfbfbf; stroke-opacity: 0.6; stroke-width: 0.85; stroke-linecap: square"/>
     </g>
     <g id="line2d_56">
      <g>
       <use xlink:href="#ma514ef9934" x="47.307188" y="30.991361" style="stroke: #000000"/>
      </g>
     </g>
     <g id="text_14">
      <!-- 1.0 -->
      <g transform="translate(22.81375 35.170502) scale(0.11 -0.11)">
       <use xlink:href="#DejaVuSans-31"/>
       <use xlink:href="#DejaVuSans-2e" transform="translate(63.623047 0)"/>
       <use xlink:href="#DejaVuSans-30" transform="translate(95.410156 0)"/>
      </g>
     </g>
    </g>
    <g id="ytick_8">
     <g id="line2d_57">
      <path d="M 47.307188 238.444264 
L 382.107188 238.444264 
" clip-path="url(#pacb9725490)" style="fill: none; stroke: #dedede; stroke-opacity: 0.4; stroke-width: 0.6; stroke-linecap: square"/>
     </g>
     <g id="line2d_58">
      <defs>
       <path id="m7d5b14527c" d="M 0 0 
L -2 0 
" style="stroke: #000000; stroke-width: 0.6"/>
      </defs>
      <g>
       <use xlink:href="#m7d5b14527c" x="47.307188" y="238.444264" style="stroke: #000000; stroke-width: 0.6"/>
      </g>
     </g>
    </g>
    <g id="ytick_9">
     <g id="line2d_59">
      <path d="M 47.307188 231.290716 
L 382.107188 231.290716 
" clip-path="url(#pacb9725490)" style="fill: none; stroke: #dedede; stroke-opacity: 0.4; stroke-width: 0.6; stroke-linecap: square"/>
     </g>
     <g id="line2d_60">
      <g>
       <use xlink:href="#m7d5b14527c" x="47.307188" y="231.290716" style="stroke: #000000; stroke-width: 0.6"/>
      </g>
     </g>
    </g>
    <g id="ytick_10">
     <g id="line2d_61">
      <path d="M 47.307188 224.137167 
L 382.107188 224.137167 
" clip-path="url(#pacb9725490)" style="fill: none; stroke: #dedede; stroke-opacity: 0.4; stroke-width: 0.6; stroke-linecap: square"/>
     </g>
     <g id="line2d_62">
      <g>
       <use xlink:href="#m7d5b14527c" x="47.307188" y="224.137167" style="stroke: #000000; stroke-width: 0.6"/>
      </g>
     </g>
    </g>
    <g id="ytick_11">
     <g id="line2d_63">
      <path d="M 47.307188 216.983619 
L 382.107188 216.983619 
" clip-path="url(#pacb9725490)" style="fill: none; stroke: #dedede; stroke-opacity: 0.4; stroke-width: 0.6; stroke-linecap: square"/>
     </g>
     <g id="line2d_64">
      <g>
       <use xlink:href="#m7d5b14527c" x="47.307188" y="216.983619" style="stroke: #000000; stroke-width: 0.6"/>
      </g>
     </g>
    </g>
    <g id="ytick_12">
     <g id="line2d_65">
      <path d="M 47.307188 202.676522 
L 382.107188 202.676522 
" clip-path="url(#pacb9725490)" style="fill: none; stroke: #dedede; stroke-opacity: 0.4; stroke-width: 0.6; stroke-linecap: square"/>
     </g>
     <g id="line2d_66">
      <g>
       <use xlink:href="#m7d5b14527c" x="47.307188" y="202.676522" style="stroke: #000000; stroke-width: 0.6"/>
      </g>
     </g>
    </g>
    <g id="ytick_13">
     <g id="line2d_67">
      <path d="M 47.307188 195.522974 
L 382.107188 195.522974 
" clip-path="url(#pacb9725490)" style="fill: none; stroke: #dedede; stroke-opacity: 0.4; stroke-width: 0.6; stroke-linecap: square"/>
     </g>
     <g id="line2d_68">
      <g>
       <use xlink:href="#m7d5b14527c" x="47.307188" y="195.522974" style="stroke: #000000; stroke-width: 0.6"/>
      </g>
     </g>
    </g>
    <g id="ytick_14">
     <g id="line2d_69">
      <path d="M 47.307188 188.369425 
L 382.107188 188.369425 
" clip-path="url(#pacb9725490)" style="fill: none; stroke: #dedede; stroke-opacity: 0.4; stroke-width: 0.6; stroke-linecap: square"/>
     </g>
     <g id="line2d_70">
      <g>
       <use xlink:href="#m7d5b14527c" x="47.307188" y="188.369425" style="stroke: #000000; stroke-width: 0.6"/>
      </g>
     </g>
    </g>
    <g id="ytick_15">
     <g id="line2d_71">
      <path d="M 47.307188 181.215877 
L 382.107188 181.215877 
" clip-path="url(#pacb9725490)" style="fill: none; stroke: #dedede; stroke-opacity: 0.4; stroke-width: 0.6; stroke-linecap: square"/>
     </g>
     <g id="line2d_72">
      <g>
       <use xlink:href="#m7d5b14527c" x="47.307188" y="181.215877" style="stroke: #000000; stroke-width: 0.6"/>
      </g>
     </g>
    </g>
    <g id="ytick_16">
     <g id="line2d_73">
      <path d="M 47.307188 166.90878 
L 382.107188 166.90878 
" clip-path="url(#pacb9725490)" style="fill: none; stroke: #dedede; stroke-opacity: 0.4; stroke-width: 0.6; stroke-linecap: square"/>
     </g>
     <g id="line2d_74">
      <g>
       <use xlink:href="#m7d5b14527c" x="47.307188" y="166.90878" style="stroke: #000000; stroke-width: 0.6"/>
      </g>
     </g>
    </g>
    <g id="ytick_17">
     <g id="line2d_75">
      <path d="M 47.307188 159.755232 
L 382.107188 159.755232 
" clip-path="url(#pacb9725490)" style="fill: none; stroke: #dedede; stroke-opacity: 0.4; stroke-width: 0.6; stroke-linecap: square"/>
     </g>
     <g id="line2d_76">
      <g>
       <use xlink:href="#m7d5b14527c" x="47.307188" y="159.755232" style="stroke: #000000; stroke-width: 0.6"/>
      </g>
     </g>
    </g>
    <g id="ytick_18">
     <g id="line2d_77">
      <path d="M 47.307188 152.601683 
L 382.107188 152.601683 
" clip-path="url(#pacb9725490)" style="fill: none; stroke: #dedede; stroke-opacity: 0.4; stroke-width: 0.6; stroke-linecap: square"/>
     </g>
     <g id="line2d_78">
      <g>
       <use xlink:href="#m7d5b14527c" x="47.307188" y="152.601683" style="stroke: #000000; stroke-width: 0.6"/>
      </g>
     </g>
    </g>
    <g id="ytick_19">
     <g id="line2d_79">
      <path d="M 47.307188 145.448135 
L 382.107188 145.448135 
" clip-path="url(#pacb9725490)" style="fill: none; stroke: #dedede; stroke-opacity: 0.4; stroke-width: 0.6; stroke-linecap: square"/>
     </g>
     <g id="line2d_80">
      <g>
       <use xlink:href="#m7d5b14527c" x="47.307188" y="145.448135" style="stroke: #000000; stroke-width: 0.6"/>
      </g>
     </g>
    </g>
    <g id="ytick_20">
     <g id="line2d_81">
      <path d="M 47.307188 131.141038 
L 382.107188 131.141038 
" clip-path="url(#pacb9725490)" style="fill: none; stroke: #dedede; stroke-opacity: 0.4; stroke-width: 0.6; stroke-linecap: square"/>
     </g>
     <g id="line2d_82">
      <g>
       <use xlink:href="#m7d5b14527c" x="47.307188" y="131.141038" style="stroke: #000000; stroke-width: 0.6"/>
      </g>
     </g>
    </g>
    <g id="ytick_21">
     <g id="line2d_83">
      <path d="M 47.307188 123.98749 
L 382.107188 123.98749 
" clip-path="url(#pacb9725490)" style="fill: none; stroke: #dedede; stroke-opacity: 0.4; stroke-width: 0.6; stroke-linecap: square"/>
     </g>
     <g id="line2d_84">
      <g>
       <use xlink:href="#m7d5b14527c" x="47.307188" y="123.98749" style="stroke: #000000; stroke-width: 0.6"/>
      </g>
     </g>
    </g>
    <g id="ytick_22">
     <g id="line2d_85">
      <path d="M 47.307188 116.833942 
L 382.107188 116.833942 
" clip-path="url(#pacb9725490)" style="fill: none; stroke: #dedede; stroke-opacity: 0.4; stroke-width: 0.6; stroke-linecap: square"/>
     </g>
     <g id="line2d_86">
      <g>
       <use xlink:href="#m7d5b14527c" x="47.307188" y="116.833942" style="stroke: #000000; stroke-width: 0.6"/>
      </g>
     </g>
    </g>
    <g id="ytick_23">
     <g id="line2d_87">
      <path d="M 47.307188 109.680393 
L 382.107188 109.680393 
" clip-path="url(#pacb9725490)" style="fill: none; stroke: #dedede; stroke-opacity: 0.4; stroke-width: 0.6; stroke-linecap: square"/>
     </g>
     <g id="line2d_88">
      <g>
       <use xlink:href="#m7d5b14527c" x="47.307188" y="109.680393" style="stroke: #000000; stroke-width: 0.6"/>
      </g>
     </g>
    </g>
    <g id="ytick_24">
     <g id="line2d_89">
      <path d="M 47.307188 95.373296 
L 382.107188 95.373296 
" clip-path="url(#pacb9725490)" style="fill: none; stroke: #dedede; stroke-opacity: 0.4; stroke-width: 0.6; stroke-linecap: square"/>
     </g>
     <g id="line2d_90">
      <g>
       <use xlink:href="#m7d5b14527c" x="47.307188" y="95.373296" style="stroke: #000000; stroke-width: 0.6"/>
      </g>
     </g>
    </g>
    <g id="ytick_25">
     <g id="line2d_91">
      <path d="M 47.307188 88.219748 
L 382.107188 88.219748 
" clip-path="url(#pacb9725490)" style="fill: none; stroke: #dedede; stroke-opacity: 0.4; stroke-width: 0.6; stroke-linecap: square"/>
     </g>
     <g id="line2d_92">
      <g>
       <use xlink:href="#m7d5b14527c" x="47.307188" y="88.219748" style="stroke: #000000; stroke-width: 0.6"/>
      </g>
     </g>
    </g>
    <g id="ytick_26">
     <g id="line2d_93">
      <path d="M 47.307188 81.0662 
L 382.107188 81.0662 
" clip-path="url(#pacb9725490)" style="fill: none; stroke: #dedede; stroke-opacity: 0.4; stroke-width: 0.6; stroke-linecap: square"/>
     </g>
     <g id="line2d_94">
      <g>
       <use xlink:href="#m7d5b14527c" x="47.307188" y="81.0662" style="stroke: #000000; stroke-width: 0.6"/>
      </g>
     </g>
    </g>
    <g id="ytick_27">
     <g id="line2d_95">
      <path d="M 47.307188 73.912651 
L 382.107188 73.912651 
" clip-path="url(#pacb9725490)" style="fill: none; stroke: #dedede; stroke-opacity: 0.4; stroke-width: 0.6; stroke-linecap: square"/>
     </g>
     <g id="line2d_96">
      <g>
       <use xlink:href="#m7d5b14527c" x="47.307188" y="73.912651" style="stroke: #000000; stroke-width: 0.6"/>
      </g>
     </g>
    </g>
    <g id="ytick_28">
     <g id="line2d_97">
      <path d="M 47.307188 59.605554 
L 382.107188 59.605554 
" clip-path="url(#pacb9725490)" style="fill: none; stroke: #dedede; stroke-opacity: 0.4; stroke-width: 0.6; stroke-linecap: square"/>
     </g>
     <g id="line2d_98">
      <g>
       <use xlink:href="#m7d5b14527c" x="47.307188" y="59.605554" style="stroke: #000000; stroke-width: 0.6"/>
      </g>
     </g>
    </g>
    <g id="ytick_29">
     <g id="line2d_99">
      <path d="M 47.307188 52.452006 
L 382.107188 52.452006 
" clip-path="url(#pacb9725490)" style="fill: none; stroke: #dedede; stroke-opacity: 0.4; stroke-width: 0.6; stroke-linecap: square"/>
     </g>
     <g id="line2d_100">
      <g>
       <use xlink:href="#m7d5b14527c" x="47.307188" y="52.452006" style="stroke: #000000; stroke-width: 0.6"/>
      </g>
     </g>
    </g>
    <g id="ytick_30">
     <g id="line2d_101">
      <path d="M 47.307188 45.298458 
L 382.107188 45.298458 
" clip-path="url(#pacb9725490)" style="fill: none; stroke: #dedede; stroke-opacity: 0.4; stroke-width: 0.6; stroke-linecap: square"/>
     </g>
     <g id="line2d_102">
      <g>
       <use xlink:href="#m7d5b14527c" x="47.307188" y="45.298458" style="stroke: #000000; stroke-width: 0.6"/>
      </g>
     </g>
    </g>
    <g id="ytick_31">
     <g id="line2d_103">
      <path d="M 47.307188 38.144909 
L 382.107188 38.144909 
" clip-path="url(#pacb9725490)" style="fill: none; stroke: #dedede; stroke-opacity: 0.4; stroke-width: 0.6; stroke-linecap: square"/>
     </g>
     <g id="line2d_104">
      <g>
       <use xlink:href="#m7d5b14527c" x="47.307188" y="38.144909" style="stroke: #000000; stroke-width: 0.6"/>
      </g>
     </g>
    </g>
    <g id="ytick_32">
     <g id="line2d_105">
      <path d="M 47.307188 23.837812 
L 382.107188 23.837812 
" clip-path="url(#pacb9725490)" style="fill: none; stroke: #dedede; stroke-opacity: 0.4; stroke-width: 0.6; stroke-linecap: square"/>
     </g>
     <g id="line2d_106">
      <g>
       <use xlink:href="#m7d5b14527c" x="47.307188" y="23.837812" style="stroke: #000000; stroke-width: 0.6"/>
      </g>
     </g>
    </g>
    <g id="text_15">
     <!-- Precision -->
     <g transform="translate(16.318125 165.779062) rotate(-90) scale(0.12 -0.12)">
      <defs>
       <path id="DejaVuSans-Bold-50" d="M 588 4666 
L 2584 4666 
Q 3475 4666 3951 4270 
Q 4428 3875 4428 3144 
Q 4428 2409 3951 2014 
Q 3475 1619 2584 1619 
L 1791 1619 
L 1791 0 
L 588 0 
L 588 4666 
z
M 1791 3794 
L 1791 2491 
L 2456 2491 
Q 2806 2491 2997 2661 
Q 3188 2831 3188 3144 
Q 3188 3456 2997 3625 
Q 2806 3794 2456 3794 
L 1791 3794 
z
" transform="scale(0.015625)"/>
       <path id="DejaVuSans-Bold-72" d="M 3138 2547 
Q 2991 2616 2845 2648 
Q 2700 2681 2553 2681 
Q 2122 2681 1889 2404 
Q 1656 2128 1656 1613 
L 1656 0 
L 538 0 
L 538 3500 
L 1656 3500 
L 1656 2925 
Q 1872 3269 2151 3426 
Q 2431 3584 2822 3584 
Q 2878 3584 2943 3579 
Q 3009 3575 3134 3559 
L 3138 2547 
z
" transform="scale(0.015625)"/>
       <path id="DejaVuSans-Bold-69" d="M 538 3500 
L 1656 3500 
L 1656 0 
L 538 0 
L 538 3500 
z
M 538 4863 
L 1656 4863 
L 1656 3950 
L 538 3950 
L 538 4863 
z
" transform="scale(0.015625)"/>
       <path id="DejaVuSans-Bold-73" d="M 3272 3391 
L 3272 2541 
Q 2913 2691 2578 2766 
Q 2244 2841 1947 2841 
Q 1628 2841 1473 2761 
Q 1319 2681 1319 2516 
Q 1319 2381 1436 2309 
Q 1553 2238 1856 2203 
L 2053 2175 
Q 2913 2066 3209 1816 
Q 3506 1566 3506 1031 
Q 3506 472 3093 190 
Q 2681 -91 1863 -91 
Q 1516 -91 1145 -36 
Q 775 19 384 128 
L 384 978 
Q 719 816 1070 734 
Q 1422 653 1784 653 
Q 2113 653 2278 743 
Q 2444 834 2444 1013 
Q 2444 1163 2330 1236 
Q 2216 1309 1875 1350 
L 1678 1375 
Q 931 1469 631 1722 
Q 331 1975 331 2491 
Q 331 3047 712 3315 
Q 1094 3584 1881 3584 
Q 2191 3584 2531 3537 
Q 2872 3491 3272 3391 
z
" transform="scale(0.015625)"/>
       <path id="DejaVuSans-Bold-6f" d="M 2203 2784 
Q 1831 2784 1636 2517 
Q 1441 2250 1441 1747 
Q 1441 1244 1636 976 
Q 1831 709 2203 709 
Q 2569 709 2762 976 
Q 2956 1244 2956 1747 
Q 2956 2250 2762 2517 
Q 2569 2784 2203 2784 
z
M 2203 3584 
Q 3106 3584 3614 3096 
Q 4122 2609 4122 1747 
Q 4122 884 3614 396 
Q 3106 -91 2203 -91 
Q 1297 -91 786 396 
Q 275 884 275 1747 
Q 275 2609 786 3096 
Q 1297 3584 2203 3584 
z
" transform="scale(0.015625)"/>
       <path id="DejaVuSans-Bold-6e" d="M 4056 2131 
L 4056 0 
L 2931 0 
L 2931 347 
L 2931 1631 
Q 2931 2084 2911 2256 
Q 2891 2428 2841 2509 
Q 2775 2619 2662 2680 
Q 2550 2741 2406 2741 
Q 2056 2741 1856 2470 
Q 1656 2200 1656 1722 
L 1656 0 
L 538 0 
L 538 3500 
L 1656 3500 
L 1656 2988 
Q 1909 3294 2193 3439 
Q 2478 3584 2822 3584 
Q 3428 3584 3742 3212 
Q 4056 2841 4056 2131 
z
" transform="scale(0.015625)"/>
      </defs>
      <use xlink:href="#DejaVuSans-Bold-50"/>
      <use xlink:href="#DejaVuSans-Bold-72" transform="translate(73.291016 0)"/>
      <use xlink:href="#DejaVuSans-Bold-65" transform="translate(122.607422 0)"/>
      <use xlink:href="#DejaVuSans-Bold-63" transform="translate(190.429688 0)"/>
      <use xlink:href="#DejaVuSans-Bold-69" transform="translate(249.707031 0)"/>
      <use xlink:href="#DejaVuSans-Bold-73" transform="translate(283.984375 0)"/>
      <use xlink:href="#DejaVuSans-Bold-69" transform="translate(343.505859 0)"/>
      <use xlink:href="#DejaVuSans-Bold-6f" transform="translate(377.783203 0)"/>
      <use xlink:href="#DejaVuSans-Bold-6e" transform="translate(446.484375 0)"/>
     </g>
    </g>
   </g>
   <g id="line2d_107">
    <path d="M 47.307188 30.991361 
L 80.955429 30.991361 
L 82.637841 31.194666 
L 89.367489 33.393747 
L 97.779549 36.399415 
L 106.19161 39.667241 
L 114.60367 43.177664 
L 123.01573 46.91495 
L 131.427791 50.866077 
L 141.522263 55.874323 
L 151.616735 61.158591 
L 161.711208 66.705152 
L 171.80568 72.502141 
L 181.900152 78.539174 
L 191.994625 84.80706 
L 203.771509 92.40046 
L 215.548394 100.28529 
L 227.325278 108.45115 
L 239.102162 116.888682 
L 250.879047 125.589405 
L 262.655931 134.545585 
L 276.115228 145.084958 
L 289.574524 155.939053 
L 303.033821 167.098998 
L 316.493117 178.556628 
L 329.952414 190.304402 
L 343.41171 202.335322 
L 356.871007 214.642875 
L 372.012715 228.811976 
L 382.107188 238.444264 
L 382.107188 238.444264 
" clip-path="url(#pacb9725490)" style="fill: none; stroke: #1f77b4; stroke-width: 2.6; stroke-linecap: square"/>
   </g>
   <g id="line2d_108">
    <path d="M 47.307188 59.605554 
L 50.672012 59.821781 
L 55.719248 60.460263 
L 60.766484 61.335363 
L 67.496132 62.783416 
L 74.22578 64.498193 
L 80.955429 66.443225 
L 87.685077 68.593905 
L 96.097137 71.54434 
L 104.509198 74.761448 
L 112.921258 78.224714 
L 121.333318 81.917743 
L 129.745378 85.827039 
L 139.839851 90.787786 
L 149.934323 96.027061 
L 160.028796 101.530776 
L 170.123268 107.286784 
L 180.21774 113.284478 
L 190.312213 119.514482 
L 202.089097 127.065331 
L 213.865981 134.909191 
L 225.642866 143.035499 
L 237.41975 151.434759 
L 249.196635 160.098373 
L 260.973519 169.018508 
L 272.750404 178.187987 
L 286.2097 188.964264 
L 299.668997 200.048538 
L 313.128293 211.432477 
L 326.58759 223.108391 
L 340.046886 235.069153 
L 353.506182 247.308134 
L 366.965479 259.819148 
L 382.107188 274.212006 
L 382.107188 274.212006 
" clip-path="url(#pacb9725490)" style="fill: none; stroke: #ff7f0e; stroke-width: 2.6; stroke-linecap: square"/>
   </g>
   <g id="line2d_109">
    <path d="M 47.307188 30.991361 
L 148.251911 30.991361 
L 149.934323 31.645126 
L 160.028796 37.14884 
L 170.123268 42.904849 
L 180.21774 48.902542 
L 190.312213 55.132547 
L 202.089097 62.683396 
L 213.865981 70.527256 
L 225.642866 78.653564 
L 237.41975 87.052824 
L 249.196635 95.716438 
L 260.973519 104.636572 
L 272.750404 113.806052 
L 286.2097 124.582329 
L 299.668997 135.666603 
L 313.128293 147.050542 
L 326.58759 158.726455 
L 340.046886 170.687217 
L 353.506182 182.926199 
L 366.965479 195.437212 
L 382.107188 209.830071 
L 382.107188 209.830071 
" clip-path="url(#pacb9725490)" style="fill: none; stroke: #2ca02c; stroke-width: 2.6; stroke-linecap: square"/>
   </g>
   <g id="patch_3">
    <path d="M 47.307188 245.597813 
L 47.307188 23.837812 
" style="fill: none; stroke: #595959; stroke-width: 1.05; stroke-linejoin: miter; stroke-linecap: square"/>
   </g>
   <g id="patch_4">
    <path d="M 382.107188 245.597813 
L 382.107188 23.837812 
" style="fill: none; stroke: #595959; stroke-width: 1.05; stroke-linejoin: miter; stroke-linecap: square"/>
   </g>
   <g id="patch_5">
    <path d="M 47.307188 245.597813 
L 382.107188 245.597813 
" style="fill: none; stroke: #595959; stroke-width: 1.05; stroke-linejoin: miter; stroke-linecap: square"/>
   </g>
   <g id="patch_6">
    <path d="M 47.307188 23.837812 
L 382.107188 23.837812 
" style="fill: none; stroke: #595959; stroke-width: 1.05; stroke-linejoin: miter; stroke-linecap: square"/>
   </g>
   <g id="text_16">
    <!-- STHS-277: Precision-Recall -->
    <g transform="translate(108.285312 17.837812) scale(0.14 -0.14)">
     <defs>
      <path id="DejaVuSans-Bold-53" d="M 3834 4519 
L 3834 3531 
Q 3450 3703 3084 3790 
Q 2719 3878 2394 3878 
Q 1963 3878 1756 3759 
Q 1550 3641 1550 3391 
Q 1550 3203 1689 3098 
Q 1828 2994 2194 2919 
L 2706 2816 
Q 3484 2659 3812 2340 
Q 4141 2022 4141 1434 
Q 4141 663 3683 286 
Q 3225 -91 2284 -91 
Q 1841 -91 1394 -6 
Q 947 78 500 244 
L 500 1259 
Q 947 1022 1364 901 
Q 1781 781 2169 781 
Q 2563 781 2772 912 
Q 2981 1044 2981 1288 
Q 2981 1506 2839 1625 
Q 2697 1744 2272 1838 
L 1806 1941 
Q 1106 2091 782 2419 
Q 459 2747 459 3303 
Q 459 4000 909 4375 
Q 1359 4750 2203 4750 
Q 2588 4750 2994 4692 
Q 3400 4634 3834 4519 
z
" transform="scale(0.015625)"/>
      <path id="DejaVuSans-Bold-54" d="M 31 4666 
L 4331 4666 
L 4331 3756 
L 2784 3756 
L 2784 0 
L 1581 0 
L 1581 3756 
L 31 3756 
L 31 4666 
z
" transform="scale(0.015625)"/>
      <path id="DejaVuSans-Bold-48" d="M 588 4666 
L 1791 4666 
L 1791 2888 
L 3566 2888 
L 3566 4666 
L 4769 4666 
L 4769 0 
L 3566 0 
L 3566 1978 
L 1791 1978 
L 1791 0 
L 588 0 
L 588 4666 
z
" transform="scale(0.015625)"/>
      <path id="DejaVuSans-Bold-2d" d="M 347 2297 
L 2309 2297 
L 2309 1388 
L 347 1388 
L 347 2297 
z
" transform="scale(0.015625)"/>
      <path id="DejaVuSans-Bold-32" d="M 1844 884 
L 3897 884 
L 3897 0 
L 506 0 
L 506 884 
L 2209 2388 
Q 2438 2594 2547 2791 
Q 2656 2988 2656 3200 
Q 2656 3528 2436 3728 
Q 2216 3928 1850 3928 
Q 1569 3928 1234 3808 
Q 900 3688 519 3450 
L 519 4475 
Q 925 4609 1322 4679 
Q 1719 4750 2100 4750 
Q 2938 4750 3402 4381 
Q 3866 4013 3866 3353 
Q 3866 2972 3669 2642 
Q 3472 2313 2841 1759 
L 1844 884 
z
" transform="scale(0.015625)"/>
      <path id="DejaVuSans-Bold-37" d="M 428 4666 
L 3944 4666 
L 3944 3988 
L 2125 0 
L 953 0 
L 2675 3781 
L 428 3781 
L 428 4666 
z
" transform="scale(0.015625)"/>
      <path id="DejaVuSans-Bold-3a" d="M 716 3500 
L 1844 3500 
L 1844 2291 
L 716 2291 
L 716 3500 
z
M 716 1209 
L 1844 1209 
L 1844 0 
L 716 0 
L 716 1209 
z
" transform="scale(0.015625)"/>
      <path id="DejaVuSans-Bold-20" transform="scale(0.015625)"/>
     </defs>
     <use xlink:href="#DejaVuSans-Bold-53"/>
     <use xlink:href="#DejaVuSans-Bold-54" transform="translate(72.021484 0)"/>
     <use xlink:href="#DejaVuSans-Bold-48" transform="translate(140.234375 0)"/>
     <use xlink:href="#DejaVuSans-Bold-53" transform="translate(223.925781 0)"/>
     <use xlink:href="#DejaVuSans-Bold-2d" transform="translate(295.947266 0)"/>
     <use xlink:href="#DejaVuSans-Bold-32" transform="translate(337.451172 0)"/>
     <use xlink:href="#DejaVuSans-Bold-37" transform="translate(407.03125 0)"/>
     <use xlink:href="#DejaVuSans-Bold-37" transform="translate(476.611328 0)"/>
     <use xlink:href="#DejaVuSans-Bold-3a" transform="translate(546.191406 0)"/>
     <use xlink:href="#DejaVuSans-Bold-20" transform="translate(586.181641 0)"/>
     <use xlink:href="#DejaVuSans-Bold-50" transform="translate(620.996094 0)"/>
     <use xlink:href="#DejaVuSans-Bold-72" transform="translate(694.287109 0)"/>
     <use xlink:href="#DejaVuSans-Bold-65" transform="translate(743.603516 0)"/>
     <use xlink:href="#DejaVuSans-Bold-63" transform="translate(811.425781 0)"/>
     <use xlink:href="#DejaVuSans-Bold-69" transform="translate(870.703125 0)"/>
     <use xlink:href="#DejaVuSans-Bold-73" transform="translate(904.980469 0)"/>
     <use xlink:href="#DejaVuSans-Bold-69" transform="translate(964.501953 0)"/>
     <use xlink:href="#DejaVuSans-Bold-6f" transform="translate(998.779297 0)"/>
     <use xlink:href="#DejaVuSans-Bold-6e" transform="translate(1067.480469 0)"/>
     <use xlink:href="#DejaVuSans-Bold-2d" transform="translate(1138.671875 0)"/>
     <use xlink:href="#DejaVuSans-Bold-52" transform="translate(1180.175781 0)"/>
     <use xlink:href="#DejaVuSans-Bold-65" transform="translate(1257.177734 0)"/>
     <use xlink:href="#DejaVuSans-Bold-63" transform="translate(1325 0)"/>
     <use xlink:href="#DejaVuSans-Bold-61" transform="translate(1384.277344 0)"/>
     <use xlink:href="#DejaVuSans-Bold-6c" transform="translate(1451.757812 0)"/>
     <use xlink:href="#DejaVuSans-Bold-6c" transform="translate(1486.035156 0)"/>
    </g>
   </g>
   <g id="legend_1">
    <g id="patch_7">
     <path d="M 55.707188 239.597813 
L 179.749063 239.597813 
Q 182.149063 239.597813 182.149063 237.197812 
L 182.149063 188.162969 
Q 182.149063 185.762969 179.749063 185.762969 
L 55.707188 185.762969 
Q 53.307188 185.762969 53.307188 188.162969 
L 53.307188 237.197812 
Q 53.307188 239.597813 55.707188 239.597813 
z
" style="fill: #ffffff; opacity: 0.92; stroke: #adadad; stroke-width: 0.85; stroke-linejoin: miter"/>
    </g>
    <g id="line2d_110">
     <path d="M 58.107188 194.762969 
L 70.107188 194.762969 
L 82.107188 194.762969 
" style="fill: none; stroke: #1f77b4; stroke-width: 2.6; stroke-linecap: square"/>
    </g>
    <g id="text_17">
     <!-- Thermal-only -->
     <g transform="translate(91.707188 198.962969) scale(0.11 -0.11)">
      <defs>
       <path id="DejaVuSans-Bold-68" d="M 4056 2131 
L 4056 0 
L 2931 0 
L 2931 347 
L 2931 1625 
Q 2931 2084 2911 2256 
Q 2891 2428 2841 2509 
Q 2775 2619 2662 2680 
Q 2550 2741 2406 2741 
Q 2056 2741 1856 2470 
Q 1656 2200 1656 1722 
L 1656 0 
L 538 0 
L 538 4863 
L 1656 4863 
L 1656 2988 
Q 1909 3294 2193 3439 
Q 2478 3584 2822 3584 
Q 3428 3584 3742 3212 
Q 4056 2841 4056 2131 
z
" transform="scale(0.015625)"/>
       <path id="DejaVuSans-Bold-6d" d="M 3781 2919 
Q 3994 3244 4286 3414 
Q 4578 3584 4928 3584 
Q 5531 3584 5847 3212 
Q 6163 2841 6163 2131 
L 6163 0 
L 5038 0 
L 5038 1825 
Q 5041 1866 5042 1909 
Q 5044 1953 5044 2034 
Q 5044 2406 4934 2573 
Q 4825 2741 4581 2741 
Q 4263 2741 4089 2478 
Q 3916 2216 3909 1719 
L 3909 0 
L 2784 0 
L 2784 1825 
Q 2784 2406 2684 2573 
Q 2584 2741 2328 2741 
Q 2006 2741 1831 2477 
Q 1656 2213 1656 1722 
L 1656 0 
L 531 0 
L 531 3500 
L 1656 3500 
L 1656 2988 
Q 1863 3284 2130 3434 
Q 2397 3584 2719 3584 
Q 3081 3584 3359 3409 
Q 3638 3234 3781 2919 
z
" transform="scale(0.015625)"/>
       <path id="DejaVuSans-Bold-79" d="M 78 3500 
L 1197 3500 
L 2138 1125 
L 2938 3500 
L 4056 3500 
L 2584 -331 
Q 2363 -916 2067 -1148 
Q 1772 -1381 1288 -1381 
L 641 -1381 
L 641 -647 
L 991 -647 
Q 1275 -647 1404 -556 
Q 1534 -466 1606 -231 
L 1638 -134 
L 78 3500 
z
" transform="scale(0.015625)"/>
      </defs>
      <use xlink:href="#DejaVuSans-Bold-54"/>
      <use xlink:href="#DejaVuSans-Bold-68" transform="translate(68.212891 0)"/>
      <use xlink:href="#DejaVuSans-Bold-65" transform="translate(139.404297 0)"/>
      <use xlink:href="#DejaVuSans-Bold-72" transform="translate(207.226562 0)"/>
      <use xlink:href="#DejaVuSans-Bold-6d" transform="translate(256.542969 0)"/>
      <use xlink:href="#DejaVuSans-Bold-61" transform="translate(360.742188 0)"/>
      <use xlink:href="#DejaVuSans-Bold-6c" transform="translate(428.222656 0)"/>
      <use xlink:href="#DejaVuSans-Bold-2d" transform="translate(462.5 0)"/>
      <use xlink:href="#DejaVuSans-Bold-6f" transform="translate(504.003906 0)"/>
      <use xlink:href="#DejaVuSans-Bold-6e" transform="translate(572.705078 0)"/>
      <use xlink:href="#DejaVuSans-Bold-6c" transform="translate(643.896484 0)"/>
      <use xlink:href="#DejaVuSans-Bold-79" transform="translate(678.173828 0)"/>
     </g>
    </g>
    <g id="line2d_111">
     <path d="M 58.107188 211.536563 
L 70.107188 211.536563 
L 82.107188 211.536563 
" style="fill: none; stroke: #ff7f0e; stroke-width: 2.6; stroke-linecap: square"/>
    </g>
    <g id="text_18">
     <!-- RGB-only -->
     <g transform="translate(91.707188 215.736563) scale(0.11 -0.11)">
      <defs>
       <path id="DejaVuSans-Bold-47" d="M 4781 347 
Q 4331 128 3847 18 
Q 3363 -91 2847 -91 
Q 1681 -91 1000 561 
Q 319 1213 319 2328 
Q 319 3456 1012 4103 
Q 1706 4750 2913 4750 
Q 3378 4750 3804 4662 
Q 4231 4575 4609 4403 
L 4609 3438 
Q 4219 3659 3833 3768 
Q 3447 3878 3059 3878 
Q 2341 3878 1952 3476 
Q 1563 3075 1563 2328 
Q 1563 1588 1938 1184 
Q 2313 781 3003 781 
Q 3191 781 3352 804 
Q 3513 828 3641 878 
L 3641 1784 
L 2906 1784 
L 2906 2591 
L 4781 2591 
L 4781 347 
z
" transform="scale(0.015625)"/>
       <path id="DejaVuSans-Bold-42" d="M 2456 2859 
Q 2741 2859 2887 2984 
Q 3034 3109 3034 3353 
Q 3034 3594 2887 3720 
Q 2741 3847 2456 3847 
L 1791 3847 
L 1791 2859 
L 2456 2859 
z
M 2497 819 
Q 2859 819 3042 972 
Q 3225 1125 3225 1434 
Q 3225 1738 3044 1889 
Q 2863 2041 2497 2041 
L 1791 2041 
L 1791 819 
L 2497 819 
z
M 3616 2497 
Q 4003 2384 4215 2081 
Q 4428 1778 4428 1338 
Q 4428 663 3972 331 
Q 3516 0 2584 0 
L 588 0 
L 588 4666 
L 2394 4666 
Q 3366 4666 3802 4372 
Q 4238 4078 4238 3431 
Q 4238 3091 4078 2852 
Q 3919 2613 3616 2497 
z
" transform="scale(0.015625)"/>
      </defs>
      <use xlink:href="#DejaVuSans-Bold-52"/>
      <use xlink:href="#DejaVuSans-Bold-47" transform="translate(77.001953 0)"/>
      <use xlink:href="#DejaVuSans-Bold-42" transform="translate(159.082031 0)"/>
      <use xlink:href="#DejaVuSans-Bold-2d" transform="translate(235.302734 0)"/>
      <use xlink:href="#DejaVuSans-Bold-6f" transform="translate(276.806641 0)"/>
      <use xlink:href="#DejaVuSans-Bold-6e" transform="translate(345.507812 0)"/>
      <use xlink:href="#DejaVuSans-Bold-6c" transform="translate(416.699219 0)"/>
      <use xlink:href="#DejaVuSans-Bold-79" transform="translate(450.976562 0)"/>
     </g>
    </g>
    <g id="line2d_112">
     <path d="M 58.107188 228.310156 
L 70.107188 228.310156 
L 82.107188 228.310156 
" style="fill: none; stroke: #2ca02c; stroke-width: 2.6; stroke-linecap: square"/>
    </g>
    <g id="text_19">
     <!-- Ours (T+RGB) -->
     <g transform="translate(91.707188 232.510156) scale(0.11 -0.11)">
      <defs>
       <path id="DejaVuSans-Bold-4f" d="M 2719 3878 
Q 2169 3878 1866 3472 
Q 1563 3066 1563 2328 
Q 1563 1594 1866 1187 
Q 2169 781 2719 781 
Q 3272 781 3575 1187 
Q 3878 1594 3878 2328 
Q 3878 3066 3575 3472 
Q 3272 3878 2719 3878 
z
M 2719 4750 
Q 3844 4750 4481 4106 
Q 5119 3463 5119 2328 
Q 5119 1197 4481 553 
Q 3844 -91 2719 -91 
Q 1597 -91 958 553 
Q 319 1197 319 2328 
Q 319 3463 958 4106 
Q 1597 4750 2719 4750 
z
" transform="scale(0.015625)"/>
       <path id="DejaVuSans-Bold-75" d="M 500 1363 
L 500 3500 
L 1625 3500 
L 1625 3150 
Q 1625 2866 1622 2436 
Q 1619 2006 1619 1863 
Q 1619 1441 1641 1255 
Q 1663 1069 1716 984 
Q 1784 875 1895 815 
Q 2006 756 2150 756 
Q 2500 756 2700 1025 
Q 2900 1294 2900 1772 
L 2900 3500 
L 4019 3500 
L 4019 0 
L 2900 0 
L 2900 506 
Q 2647 200 2364 54 
Q 2081 -91 1741 -91 
Q 1134 -91 817 281 
Q 500 653 500 1363 
z
" transform="scale(0.015625)"/>
       <path id="DejaVuSans-Bold-28" d="M 2413 -844 
L 1484 -844 
Q 1006 -72 778 623 
Q 550 1319 550 2003 
Q 550 2688 779 3389 
Q 1009 4091 1484 4856 
L 2413 4856 
Q 2013 4116 1813 3408 
Q 1613 2700 1613 2009 
Q 1613 1319 1811 609 
Q 2009 -100 2413 -844 
z
" transform="scale(0.015625)"/>
       <path id="DejaVuSans-Bold-2b" d="M 3053 4013 
L 3053 2375 
L 4684 2375 
L 4684 1638 
L 3053 1638 
L 3053 0 
L 2309 0 
L 2309 1638 
L 678 1638 
L 678 2375 
L 2309 2375 
L 2309 4013 
L 3053 4013 
z
" transform="scale(0.015625)"/>
       <path id="DejaVuSans-Bold-29" d="M 513 -844 
Q 913 -100 1113 609 
Q 1313 1319 1313 2009 
Q 1313 2700 1113 3408 
Q 913 4116 513 4856 
L 1441 4856 
Q 1916 4091 2145 3389 
Q 2375 2688 2375 2003 
Q 2375 1319 2147 623 
Q 1919 -72 1441 -844 
L 513 -844 
z
" transform="scale(0.015625)"/>
      </defs>
      <use xlink:href="#DejaVuSans-Bold-4f"/>
      <use xlink:href="#DejaVuSans-Bold-75" transform="translate(85.009766 0)"/>
      <use xlink:href="#DejaVuSans-Bold-72" transform="translate(156.201172 0)"/>
      <use xlink:href="#DejaVuSans-Bold-73" transform="translate(205.517578 0)"/>
      <use xlink:href="#DejaVuSans-Bold-20" transform="translate(265.039062 0)"/>
      <use xlink:href="#DejaVuSans-Bold-28" transform="translate(299.853516 0)"/>
      <use xlink:href="#DejaVuSans-Bold-54" transform="translate(345.556641 0)"/>
      <use xlink:href="#DejaVuSans-Bold-2b" transform="translate(413.769531 0)"/>
      <use xlink:href="#DejaVuSans-Bold-52" transform="translate(497.558594 0)"/>
      <use xlink:href="#DejaVuSans-Bold-47" transform="translate(574.560547 0)"/>
      <use xlink:href="#DejaVuSans-Bold-42" transform="translate(656.640625 0)"/>
      <use xlink:href="#DejaVuSans-Bold-29" transform="translate(732.861328 0)"/>
     </g>
    </g>
   </g>
  </g>
 </g>
 <defs>
  <clipPath id="pacb9725490">
   <rect x="47.307188" y="23.837812" width="334.8" height="221.76"/>
  </clipPath>
 </defs>
</svg>
