<?xml version="1.0" encoding="utf-8" standalone="no"?>
<!DOCTYPE svg PUBLIC "-//W3C//DTD SVG 1.1//EN"
  "http://www.w3.org/Graphics/SVG/1.1/DTD/svg11.dtd">
<svg xmlns:xlink="http://www.w3.org/1999/xlink" width="443.561719pt" height="270.529688pt" viewBox="0 0 443.561719 270.529688" xmlns="http://www.w3.org/2000/svg" version="1.1">
 <metadata>
  <rdf:RDF xmlns:dc="http://purl.org/dc/elements/1.1/" xmlns:cc="http://creativecommons.org/ns#" xmlns:rdf="http://www.w3.org/1999/02/22-rdf-syntax-ns#">
   <cc:Work>
    <dc:type rdf:resource="http://purl.org/dc/dcmitype/StillImage"/>
    <dc:date>2025-11-14T18:31:41.407403</dc:date>
    <dc:format>image/svg+xml</dc:format>
    <dc:creator>
     <cc:Agent>
      <dc:title>Matplotlib v3.10.5, https://matplotlib.org/</dc:title>
     </cc:Agent>
    </dc:creator>
   </cc:Work>
  </rdf:RDF>
 </metadata>
 <defs>
  <style type="text/css">*{stroke-linejoin: round; stroke-linecap: butt}</style>
 </defs>
 <g id="figure_1">
  <g id="patch_1">
   <path d="M 0 270.529688 
L 443.561719 270.529688 
L 443.561719 0 
L 0 0 
z
" style="fill: #ffffff"/>
  </g>
  <g id="axes_1">
   <g id="patch_2">
    <path d="M 68.081719 245.597813 
L 436.361719 245.597813 
L 436.361719 23.837813 
L 68.081719 23.837813 
z
" style="fill: #ffffff"/>
   </g>
   <g id="matplotlib.axis_1">
    <g id="xtick_1">
     <g id="line2d_1">
      <defs>
       <path id="ma74ece794d" d="M 0 0 
L 0 3.5 
" style="stroke: #000000"/>
      </defs>
      <g>
       <use xlink:href="#ma74ece794d" x="153.751131" y="245.597813" style="stroke: #000000"/>
      </g>
     </g>
     <g id="text_1">
      <!-- Raw (all frames) -->
      <g transform="translate(102.832302 260.956094) scale(0.11 -0.11)">
       <defs>
        <path id="DejaVuSans-Bold-52" d="M 2297 2597 
Q 2675 2597 2839 2737 
Q 3003 2878 3003 3200 
Q 3003 3519 2839 3656 
Q 2675 3794 2297 3794 
L 1791 3794 
L 1791 2597 
L 2297 2597 
z
M 1791 1766 
L 1791 0 
L 588 0 
L 588 4666 
L 2425 4666 
Q 3347 4666 3776 4356 
Q 4206 4047 4206 3378 
Q 4206 2916 3982 2619 
Q 3759 2322 3309 2181 
Q 3556 2125 3751 1926 
Q 3947 1728 4147 1325 
L 4800 0 
L 3519 0 
L 2950 1159 
Q 2778 1509 2601 1637 
Q 2425 1766 2131 1766 
L 1791 1766 
z
" transform="scale(0.015625)"/>
        <path id="DejaVuSans-Bold-61" d="M 2106 1575 
Q 1756 1575 1579 1456 
Q 1403 1338 1403 1106 
Q 1403 894 1545 773 
Q 1688 653 1941 653 
Q 2256 653 2472 879 
Q 2688 1106 2688 1447 
L 2688 1575 
L 2106 1575 
z
M 3816 1997 
L 3816 0 
L 2688 0 
L 2688 519 
Q 2463 200 2181 54 
Q 1900 -91 1497 -91 
Q 953 -91 614 226 
Q 275 544 275 1050 
Q 275 1666 698 1953 
Q 1122 2241 2028 2241 
L 2688 2241 
L 2688 2328 
Q 2688 2594 2478 2717 
Q 2269 2841 1825 2841 
Q 1466 2841 1156 2769 
Q 847 2697 581 2553 
L 581 3406 
Q 941 3494 1303 3539 
Q 1666 3584 2028 3584 
Q 2975 3584 3395 3211 
Q 3816 2838 3816 1997 
z
" transform="scale(0.015625)"/>
        <path id="DejaVuSans-Bold-77" d="M 225 3500 
L 1313 3500 
L 1900 1088 
L 2491 3500 
L 3425 3500 
L 4013 1113 
L 4603 3500 
L 5691 3500 
L 4769 0 
L 3547 0 
L 2956 2406 
L 2369 0 
L 1147 0 
L 225 3500 
z
" transform="scale(0.015625)"/>
        <path id="DejaVuSans-Bold-20" transform="scale(0.015625)"/>
        <path id="DejaVuSans-Bold-28" d="M 2413 -844 
L 1484 -844 
Q 1006 -72 778 623 
Q 550 1319 550 2003 
Q 550 2688 779 3389 
Q 1009 4091 1484 4856 
L 2413 4856 
Q 2013 4116 1813 3408 
Q 1613 2700 1613 2009 
Q 1613 1319 1811 609 
Q 2009 -100 2413 -844 
z
" transform="scale(0.015625)"/>
        <path id="DejaVuSans-Bold-6c" d="M 538 4863 
L 1656 4863 
L 1656 0 
L 538 0 
L 538 4863 
z
" transform="scale(0.015625)"/>
        <path id="DejaVuSans-Bold-66" d="M 2841 4863 
L 2841 4128 
L 2222 4128 
Q 1984 4128 1890 4042 
Q 1797 3956 1797 3744 
L 1797 3500 
L 2753 3500 
L 2753 2700 
L 1797 2700 
L 1797 0 
L 678 0 
L 678 2700 
L 122 2700 
L 122 3500 
L 678 3500 
L 678 3744 
Q 678 4316 997 4589 
Q 1316 4863 1984 4863 
L 2841 4863 
z
" transform="scale(0.015625)"/>
        <path id="DejaVuSans-Bold-72" d="M 3138 2547 
Q 2991 2616 2845 2648 
Q 2700 2681 2553 2681 
Q 2122 2681 1889 2404 
Q 1656 2128 1656 1613 
L 1656 0 
L 538 0 
L 538 3500 
L 1656 3500 
L 1656 2925 
Q 1872 3269 2151 3426 
Q 2431 3584 2822 3584 
Q 2878 3584 2943 3579 
Q 3009 3575 3134 3559 
L 3138 2547 
z
" transform="scale(0.015625)"/>
        <path id="DejaVuSans-Bold-6d" d="M 3781 2919 
Q 3994 3244 4286 3414 
Q 4578 3584 4928 3584 
Q 5531 3584 5847 3212 
Q 6163 2841 6163 2131 
L 6163 0 
L 5038 0 
L 5038 1825 
Q 5041 1866 5042 1909 
Q 5044 1953 5044 2034 
Q 5044 2406 4934 2573 
Q 4825 2741 4581 2741 
Q 4263 2741 4089 2478 
Q 3916 2216 3909 1719 
L 3909 0 
L 2784 0 
L 2784 1825 
Q 2784 2406 2684 2573 
Q 2584 2741 2328 2741 
Q 2006 2741 1831 2477 
Q 1656 2213 1656 1722 
L 1656 0 
L 531 0 
L 531 3500 
L 1656 3500 
L 1656 2988 
Q 1863 3284 2130 3434 
Q 2397 3584 2719 3584 
Q 3081 3584 3359 3409 
Q 3638 3234 3781 2919 
z
" transform="scale(0.015625)"/>
        <path id="DejaVuSans-Bold-65" d="M 4031 1759 
L 4031 1441 
L 1416 1441 
Q 1456 1047 1700 850 
Q 1944 653 2381 653 
Q 2734 653 3104 758 
Q 3475 863 3866 1075 
L 3866 213 
Q 3469 63 3072 -14 
Q 2675 -91 2278 -91 
Q 1328 -91 801 392 
Q 275 875 275 1747 
Q 275 2603 792 3093 
Q 1309 3584 2216 3584 
Q 3041 3584 3536 3087 
Q 4031 2591 4031 1759 
z
M 2881 2131 
Q 2881 2450 2695 2645 
Q 2509 2841 2209 2841 
Q 1884 2841 1681 2658 
Q 1478 2475 1428 2131 
L 2881 2131 
z
" transform="scale(0.015625)"/>
        <path id="DejaVuSans-Bold-73" d="M 3272 3391 
L 3272 2541 
Q 2913 2691 2578 2766 
Q 2244 2841 1947 2841 
Q 1628 2841 1473 2761 
Q 1319 2681 1319 2516 
Q 1319 2381 1436 2309 
Q 1553 2238 1856 2203 
L 2053 2175 
Q 2913 2066 3209 1816 
Q 3506 1566 3506 1031 
Q 3506 472 3093 190 
Q 2681 -91 1863 -91 
Q 1516 -91 1145 -36 
Q 775 19 384 128 
L 384 978 
Q 719 816 1070 734 
Q 1422 653 1784 653 
Q 2113 653 2278 743 
Q 2444 834 2444 1013 
Q 2444 1163 2330 1236 
Q 2216 1309 1875 1350 
L 1678 1375 
Q 931 1469 631 1722 
Q 331 1975 331 2491 
Q 331 3047 712 3315 
Q 1094 3584 1881 3584 
Q 2191 3584 2531 3537 
Q 2872 3491 3272 3391 
z
" transform="scale(0.015625)"/>
        <path id="DejaVuSans-Bold-29" d="M 513 -844 
Q 913 -100 1113 609 
Q 1313 1319 1313 2009 
Q 1313 2700 1113 3408 
Q 913 4116 513 4856 
L 1441 4856 
Q 1916 4091 2145 3389 
Q 2375 2688 2375 2003 
Q 2375 1319 2147 623 
Q 1919 -72 1441 -844 
L 513 -844 
z
" transform="scale(0.015625)"/>
       </defs>
       <use xlink:href="#DejaVuSans-Bold-52"/>
       <use xlink:href="#DejaVuSans-Bold-61" transform="translate(77.001953 0)"/>
       <use xlink:href="#DejaVuSans-Bold-77" transform="translate(144.482422 0)"/>
       <use xlink:href="#DejaVuSans-Bold-20" transform="translate(236.865234 0)"/>
       <use xlink:href="#DejaVuSans-Bold-28" transform="translate(271.679688 0)"/>
       <use xlink:href="#DejaVuSans-Bold-61" transform="translate(317.382812 0)"/>
       <use xlink:href="#DejaVuSans-Bold-6c" transform="translate(384.863281 0)"/>
       <use xlink:href="#DejaVuSans-Bold-6c" transform="translate(419.140625 0)"/>
       <use xlink:href="#DejaVuSans-Bold-20" transform="translate(453.417969 0)"/>
       <use xlink:href="#DejaVuSans-Bold-66" transform="translate(488.232422 0)"/>
       <use xlink:href="#DejaVuSans-Bold-72" transform="translate(531.738281 0)"/>
       <use xlink:href="#DejaVuSans-Bold-61" transform="translate(581.054688 0)"/>
       <use xlink:href="#DejaVuSans-Bold-6d" transform="translate(648.535156 0)"/>
       <use xlink:href="#DejaVuSans-Bold-65" transform="translate(752.734375 0)"/>
       <use xlink:href="#DejaVuSans-Bold-73" transform="translate(820.556641 0)"/>
       <use xlink:href="#DejaVuSans-Bold-29" transform="translate(880.078125 0)"/>
      </g>
     </g>
    </g>
    <g id="xtick_2">
     <g id="line2d_2">
      <g>
       <use xlink:href="#ma74ece794d" x="350.692307" y="245.597813" style="stroke: #000000"/>
      </g>
     </g>
     <g id="text_2">
      <!-- Relevance-only -->
      <g transform="translate(303.460198 260.956094) scale(0.11 -0.11)">
       <defs>
        <path id="DejaVuSans-Bold-76" d="M 97 3500 
L 1216 3500 
L 2088 1081 
L 2956 3500 
L 4078 3500 
L 2700 0 
L 1472 0 
L 97 3500 
z
" transform="scale(0.015625)"/>
        <path id="DejaVuSans-Bold-6e" d="M 4056 2131 
L 4056 0 
L 2931 0 
L 2931 347 
L 2931 1631 
Q 2931 2084 2911 2256 
Q 2891 2428 2841 2509 
Q 2775 2619 2662 2680 
Q 2550 2741 2406 2741 
Q 2056 2741 1856 2470 
Q 1656 2200 1656 1722 
L 1656 0 
L 538 0 
L 538 3500 
L 1656 3500 
L 1656 2988 
Q 1909 3294 2193 3439 
Q 2478 3584 2822 3584 
Q 3428 3584 3742 3212 
Q 4056 2841 4056 2131 
z
" transform="scale(0.015625)"/>
        <path id="DejaVuSans-Bold-63" d="M 3366 3391 
L 3366 2478 
Q 3138 2634 2908 2709 
Q 2678 2784 2431 2784 
Q 1963 2784 1702 2511 
Q 1441 2238 1441 1747 
Q 1441 1256 1702 982 
Q 1963 709 2431 709 
Q 2694 709 2930 787 
Q 3166 866 3366 1019 
L 3366 103 
Q 3103 6 2833 -42 
Q 2563 -91 2291 -91 
Q 1344 -91 809 395 
Q 275 881 275 1747 
Q 275 2613 809 3098 
Q 1344 3584 2291 3584 
Q 2566 3584 2833 3536 
Q 3100 3488 3366 3391 
z
" transform="scale(0.015625)"/>
        <path id="DejaVuSans-Bold-2d" d="M 347 2297 
L 2309 2297 
L 2309 1388 
L 347 1388 
L 347 2297 
z
" transform="scale(0.015625)"/>
        <path id="DejaVuSans-Bold-6f" d="M 2203 2784 
Q 1831 2784 1636 2517 
Q 1441 2250 1441 1747 
Q 1441 1244 1636 976 
Q 1831 709 2203 709 
Q 2569 709 2762 976 
Q 2956 1244 2956 1747 
Q 2956 2250 2762 2517 
Q 2569 2784 2203 2784 
z
M 2203 3584 
Q 3106 3584 3614 3096 
Q 4122 2609 4122 1747 
Q 4122 884 3614 396 
Q 3106 -91 2203 -91 
Q 1297 -91 786 396 
Q 275 884 275 1747 
Q 275 2609 786 3096 
Q 1297 3584 2203 3584 
z
" transform="scale(0.015625)"/>
        <path id="DejaVuSans-Bold-79" d="M 78 3500 
L 1197 3500 
L 2138 1125 
L 2938 3500 
L 4056 3500 
L 2584 -331 
Q 2363 -916 2067 -1148 
Q 1772 -1381 1288 -1381 
L 641 -1381 
L 641 -647 
L 991 -647 
Q 1275 -647 1404 -556 
Q 1534 -466 1606 -231 
L 1638 -134 
L 78 3500 
z
" transform="scale(0.015625)"/>
       </defs>
       <use xlink:href="#DejaVuSans-Bold-52"/>
       <use xlink:href="#DejaVuSans-Bold-65" transform="translate(77.001953 0)"/>
       <use xlink:href="#DejaVuSans-Bold-6c" transform="translate(144.824219 0)"/>
       <use xlink:href="#DejaVuSans-Bold-65" transform="translate(179.101562 0)"/>
       <use xlink:href="#DejaVuSans-Bold-76" transform="translate(246.923828 0)"/>
       <use xlink:href="#DejaVuSans-Bold-61" transform="translate(312.109375 0)"/>
       <use xlink:href="#DejaVuSans-Bold-6e" transform="translate(379.589844 0)"/>
       <use xlink:href="#DejaVuSans-Bold-63" transform="translate(450.78125 0)"/>
       <use xlink:href="#DejaVuSans-Bold-65" transform="translate(510.058594 0)"/>
       <use xlink:href="#DejaVuSans-Bold-2d" transform="translate(577.880859 0)"/>
       <use xlink:href="#DejaVuSans-Bold-6f" transform="translate(619.384766 0)"/>
       <use xlink:href="#DejaVuSans-Bold-6e" transform="translate(688.085938 0)"/>
       <use xlink:href="#DejaVuSans-Bold-6c" transform="translate(759.277344 0)"/>
       <use xlink:href="#DejaVuSans-Bold-79" transform="translate(793.554688 0)"/>
      </g>
     </g>
    </g>
   </g>
   <g id="matplotlib.axis_2">
    <g id="ytick_1">
     <g id="line2d_3">
      <path d="M 68.081719 245.597813 
L 436.361719 245.597813 
" clip-path="url(#pc93f14b179)" style="fill: none; stroke: #bfbfbf; stroke-opacity: 0.6; stroke-width: 0.85; stroke-linecap: square"/>
     </g>
     <g id="line2d_4">
      <defs>
       <path id="mdb80bf5883" d="M 0 0 
L -3.5 0 
" style="stroke: #000000"/>
      </defs>
      <g>
       <use xlink:href="#mdb80bf5883" x="68.081719" y="245.597813" style="stroke: #000000"/>
      </g>
     </g>
     <g id="text_3">
      <!-- 0 -->
      <g transform="translate(53.428125 249.776953) scale(0.11 -0.11)">
       <defs>
        <path id="DejaVuSans-Bold-30" d="M 2944 2338 
Q 2944 3213 2780 3570 
Q 2616 3928 2228 3928 
Q 1841 3928 1675 3570 
Q 1509 3213 1509 2338 
Q 1509 1453 1675 1090 
Q 1841 728 2228 728 
Q 2613 728 2778 1090 
Q 2944 1453 2944 2338 
z
M 4147 2328 
Q 4147 1169 3647 539 
Q 3147 -91 2228 -91 
Q 1306 -91 806 539 
Q 306 1169 306 2328 
Q 306 3491 806 4120 
Q 1306 4750 2228 4750 
Q 3147 4750 3647 4120 
Q 4147 3491 4147 2328 
z
" transform="scale(0.015625)"/>
       </defs>
       <use xlink:href="#DejaVuSans-Bold-30"/>
      </g>
     </g>
    </g>
    <g id="ytick_2">
     <g id="line2d_5">
      <path d="M 68.081719 216.466778 
L 436.361719 216.466778 
" clip-path="url(#pc93f14b179)" style="fill: none; stroke: #bfbfbf; stroke-opacity: 0.6; stroke-width: 0.85; stroke-linecap: square"/>
     </g>
     <g id="line2d_6">
      <g>
       <use xlink:href="#mdb80bf5883" x="68.081719" y="216.466778" style="stroke: #000000"/>
      </g>
     </g>
     <g id="text_4">
      <!-- 2000 -->
      <g transform="translate(30.467344 220.645919) scale(0.11 -0.11)">
       <defs>
        <path id="DejaVuSans-Bold-32" d="M 1844 884 
L 3897 884 
L 3897 0 
L 506 0 
L 506 884 
L 2209 2388 
Q 2438 2594 2547 2791 
Q 2656 2988 2656 3200 
Q 2656 3528 2436 3728 
Q 2216 3928 1850 3928 
Q 1569 3928 1234 3808 
Q 900 3688 519 3450 
L 519 4475 
Q 925 4609 1322 4679 
Q 1719 4750 2100 4750 
Q 2938 4750 3402 4381 
Q 3866 4013 3866 3353 
Q 3866 2972 3669 2642 
Q 3472 2313 2841 1759 
L 1844 884 
z
" transform="scale(0.015625)"/>
       </defs>
       <use xlink:href="#DejaVuSans-Bold-32"/>
       <use xlink:href="#DejaVuSans-Bold-30" transform="translate(69.580078 0)"/>
       <use xlink:href="#DejaVuSans-Bold-30" transform="translate(139.160156 0)"/>
       <use xlink:href="#DejaVuSans-Bold-30" transform="translate(208.740234 0)"/>
      </g>
     </g>
    </g>
    <g id="ytick_3">
     <g id="line2d_7">
      <path d="M 68.081719 187.335744 
L 436.361719 187.335744 
" clip-path="url(#pc93f14b179)" style="fill: none; stroke: #bfbfbf; stroke-opacity: 0.6; stroke-width: 0.85; stroke-linecap: square"/>
     </g>
     <g id="line2d_8">
      <g>
       <use xlink:href="#mdb80bf5883" x="68.081719" y="187.335744" style="stroke: #000000"/>
      </g>
     </g>
     <g id="text_5">
      <!-- 4000 -->
      <g transform="translate(30.467344 191.514884) scale(0.11 -0.11)">
       <defs>
        <path id="DejaVuSans-Bold-34" d="M 2356 3675 
L 1038 1722 
L 2356 1722 
L 2356 3675 
z
M 2156 4666 
L 3494 4666 
L 3494 1722 
L 4159 1722 
L 4159 850 
L 3494 850 
L 3494 0 
L 2356 0 
L 2356 850 
L 288 850 
L 288 1881 
L 2156 4666 
z
" transform="scale(0.015625)"/>
       </defs>
       <use xlink:href="#DejaVuSans-Bold-34"/>
       <use xlink:href="#DejaVuSans-Bold-30" transform="translate(69.580078 0)"/>
       <use xlink:href="#DejaVuSans-Bold-30" transform="translate(139.160156 0)"/>
       <use xlink:href="#DejaVuSans-Bold-30" transform="translate(208.740234 0)"/>
      </g>
     </g>
    </g>
    <g id="ytick_4">
     <g id="line2d_9">
      <path d="M 68.081719 158.204709 
L 436.361719 158.204709 
" clip-path="url(#pc93f14b179)" style="fill: none; stroke: #bfbfbf; stroke-opacity: 0.6; stroke-width: 0.85; stroke-linecap: square"/>
     </g>
     <g id="line2d_10">
      <g>
       <use xlink:href="#mdb80bf5883" x="68.081719" y="158.204709" style="stroke: #000000"/>
      </g>
     </g>
     <g id="text_6">
      <!-- 6000 -->
      <g transform="translate(30.467344 162.38385) scale(0.11 -0.11)">
       <defs>
        <path id="DejaVuSans-Bold-36" d="M 2316 2303 
Q 2000 2303 1842 2098 
Q 1684 1894 1684 1484 
Q 1684 1075 1842 870 
Q 2000 666 2316 666 
Q 2634 666 2792 870 
Q 2950 1075 2950 1484 
Q 2950 1894 2792 2098 
Q 2634 2303 2316 2303 
z
M 3803 4544 
L 3803 3681 
Q 3506 3822 3243 3889 
Q 2981 3956 2731 3956 
Q 2194 3956 1894 3657 
Q 1594 3359 1544 2772 
Q 1750 2925 1990 3001 
Q 2231 3078 2516 3078 
Q 3231 3078 3670 2659 
Q 4109 2241 4109 1563 
Q 4109 813 3618 361 
Q 3128 -91 2303 -91 
Q 1394 -91 895 523 
Q 397 1138 397 2266 
Q 397 3422 980 4083 
Q 1563 4744 2578 4744 
Q 2900 4744 3203 4694 
Q 3506 4644 3803 4544 
z
" transform="scale(0.015625)"/>
       </defs>
       <use xlink:href="#DejaVuSans-Bold-36"/>
       <use xlink:href="#DejaVuSans-Bold-30" transform="translate(69.580078 0)"/>
       <use xlink:href="#DejaVuSans-Bold-30" transform="translate(139.160156 0)"/>
       <use xlink:href="#DejaVuSans-Bold-30" transform="translate(208.740234 0)"/>
      </g>
     </g>
    </g>
    <g id="ytick_5">
     <g id="line2d_11">
      <path d="M 68.081719 129.073675 
L 436.361719 129.073675 
" clip-path="url(#pc93f14b179)" style="fill: none; stroke: #bfbfbf; stroke-opacity: 0.6; stroke-width: 0.85; stroke-linecap: square"/>
     </g>
     <g id="line2d_12">
      <g>
       <use xlink:href="#mdb80bf5883" x="68.081719" y="129.073675" style="stroke: #000000"/>
      </g>
     </g>
     <g id="text_7">
      <!-- 8000 -->
      <g transform="translate(30.467344 133.252815) scale(0.11 -0.11)">
       <defs>
        <path id="DejaVuSans-Bold-38" d="M 2228 2088 
Q 1891 2088 1709 1903 
Q 1528 1719 1528 1375 
Q 1528 1031 1709 848 
Q 1891 666 2228 666 
Q 2563 666 2741 848 
Q 2919 1031 2919 1375 
Q 2919 1722 2741 1905 
Q 2563 2088 2228 2088 
z
M 1350 2484 
Q 925 2613 709 2878 
Q 494 3144 494 3541 
Q 494 4131 934 4440 
Q 1375 4750 2228 4750 
Q 3075 4750 3515 4442 
Q 3956 4134 3956 3541 
Q 3956 3144 3739 2878 
Q 3522 2613 3097 2484 
Q 3572 2353 3814 2058 
Q 4056 1763 4056 1313 
Q 4056 619 3595 264 
Q 3134 -91 2228 -91 
Q 1319 -91 855 264 
Q 391 619 391 1313 
Q 391 1763 633 2058 
Q 875 2353 1350 2484 
z
M 1631 3419 
Q 1631 3141 1786 2991 
Q 1941 2841 2228 2841 
Q 2509 2841 2662 2991 
Q 2816 3141 2816 3419 
Q 2816 3697 2662 3845 
Q 2509 3994 2228 3994 
Q 1941 3994 1786 3844 
Q 1631 3694 1631 3419 
z
" transform="scale(0.015625)"/>
       </defs>
       <use xlink:href="#DejaVuSans-Bold-38"/>
       <use xlink:href="#DejaVuSans-Bold-30" transform="translate(69.580078 0)"/>
       <use xlink:href="#DejaVuSans-Bold-30" transform="translate(139.160156 0)"/>
       <use xlink:href="#DejaVuSans-Bold-30" transform="translate(208.740234 0)"/>
      </g>
     </g>
    </g>
    <g id="ytick_6">
     <g id="line2d_13">
      <path d="M 68.081719 99.94264 
L 436.361719 99.94264 
" clip-path="url(#pc93f14b179)" style="fill: none; stroke: #bfbfbf; stroke-opacity: 0.6; stroke-width: 0.85; stroke-linecap: square"/>
     </g>
     <g id="line2d_14">
      <g>
       <use xlink:href="#mdb80bf5883" x="68.081719" y="99.94264" style="stroke: #000000"/>
      </g>
     </g>
     <g id="text_8">
      <!-- 10000 -->
      <g transform="translate(22.81375 104.121781) scale(0.11 -0.11)">
       <defs>
        <path id="DejaVuSans-Bold-31" d="M 750 831 
L 1813 831 
L 1813 3847 
L 722 3622 
L 722 4441 
L 1806 4666 
L 2950 4666 
L 2950 831 
L 4013 831 
L 4013 0 
L 750 0 
L 750 831 
z
" transform="scale(0.015625)"/>
       </defs>
       <use xlink:href="#DejaVuSans-Bold-31"/>
       <use xlink:href="#DejaVuSans-Bold-30" transform="translate(69.580078 0)"/>
       <use xlink:href="#DejaVuSans-Bold-30" transform="translate(139.160156 0)"/>
       <use xlink:href="#DejaVuSans-Bold-30" transform="translate(208.740234 0)"/>
       <use xlink:href="#DejaVuSans-Bold-30" transform="translate(278.320312 0)"/>
      </g>
     </g>
    </g>
    <g id="ytick_7">
     <g id="line2d_15">
      <path d="M 68.081719 70.811606 
L 436.361719 70.811606 
" clip-path="url(#pc93f14b179)" style="fill: none; stroke: #bfbfbf; stroke-opacity: 0.6; stroke-width: 0.85; stroke-linecap: square"/>
     </g>
     <g id="line2d_16">
      <g>
       <use xlink:href="#mdb80bf5883" x="68.081719" y="70.811606" style="stroke: #000000"/>
      </g>
     </g>
     <g id="text_9">
      <!-- 12000 -->
      <g transform="translate(22.81375 74.990746) scale(0.11 -0.11)">
       <use xlink:href="#DejaVuSans-Bold-31"/>
       <use xlink:href="#DejaVuSans-Bold-32" transform="translate(69.580078 0)"/>
       <use xlink:href="#DejaVuSans-Bold-30" transform="translate(139.160156 0)"/>
       <use xlink:href="#DejaVuSans-Bold-30" transform="translate(208.740234 0)"/>
       <use xlink:href="#DejaVuSans-Bold-30" transform="translate(278.320312 0)"/>
      </g>
     </g>
    </g>
    <g id="ytick_8">
     <g id="line2d_17">
      <path d="M 68.081719 41.680571 
L 436.361719 41.680571 
" clip-path="url(#pc93f14b179)" style="fill: none; stroke: #bfbfbf; stroke-opacity: 0.6; stroke-width: 0.85; stroke-linecap: square"/>
     </g>
     <g id="line2d_18">
      <g>
       <use xlink:href="#mdb80bf5883" x="68.081719" y="41.680571" style="stroke: #000000"/>
      </g>
     </g>
     <g id="text_10">
      <!-- 14000 -->
      <g transform="translate(22.81375 45.859712) scale(0.11 -0.11)">
       <use xlink:href="#DejaVuSans-Bold-31"/>
       <use xlink:href="#DejaVuSans-Bold-34" transform="translate(69.580078 0)"/>
       <use xlink:href="#DejaVuSans-Bold-30" transform="translate(139.160156 0)"/>
       <use xlink:href="#DejaVuSans-Bold-30" transform="translate(208.740234 0)"/>
       <use xlink:href="#DejaVuSans-Bold-30" transform="translate(278.320312 0)"/>
      </g>
     </g>
    </g>
    <g id="text_11">
     <!-- kB per minute -->
     <g transform="translate(16.318125 182.570625) rotate(-90) scale(0.12 -0.12)">
      <defs>
       <path id="DejaVuSans-Bold-6b" d="M 538 4863 
L 1656 4863 
L 1656 2216 
L 2944 3500 
L 4244 3500 
L 2534 1894 
L 4378 0 
L 3022 0 
L 1656 1459 
L 1656 0 
L 538 0 
L 538 4863 
z
" transform="scale(0.015625)"/>
       <path id="DejaVuSans-Bold-42" d="M 2456 2859 
Q 2741 2859 2887 2984 
Q 3034 3109 3034 3353 
Q 3034 3594 2887 3720 
Q 2741 3847 2456 3847 
L 1791 3847 
L 1791 2859 
L 2456 2859 
z
M 2497 819 
Q 2859 819 3042 972 
Q 3225 1125 3225 1434 
Q 3225 1738 3044 1889 
Q 2863 2041 2497 2041 
L 1791 2041 
L 1791 819 
L 2497 819 
z
M 3616 2497 
Q 4003 2384 4215 2081 
Q 4428 1778 4428 1338 
Q 4428 663 3972 331 
Q 3516 0 2584 0 
L 588 0 
L 588 4666 
L 2394 4666 
Q 3366 4666 3802 4372 
Q 4238 4078 4238 3431 
Q 4238 3091 4078 2852 
Q 3919 2613 3616 2497 
z
" transform="scale(0.015625)"/>
       <path id="DejaVuSans-Bold-70" d="M 1656 506 
L 1656 -1331 
L 538 -1331 
L 538 3500 
L 1656 3500 
L 1656 2988 
Q 1888 3294 2169 3439 
Q 2450 3584 2816 3584 
Q 3463 3584 3878 3070 
Q 4294 2556 4294 1747 
Q 4294 938 3878 423 
Q 3463 -91 2816 -91 
Q 2450 -91 2169 54 
Q 1888 200 1656 506 
z
M 2400 2772 
Q 2041 2772 1848 2508 
Q 1656 2244 1656 1747 
Q 1656 1250 1848 986 
Q 2041 722 2400 722 
Q 2759 722 2948 984 
Q 3138 1247 3138 1747 
Q 3138 2247 2948 2509 
Q 2759 2772 2400 2772 
z
" transform="scale(0.015625)"/>
       <path id="DejaVuSans-Bold-69" d="M 538 3500 
L 1656 3500 
L 1656 0 
L 538 0 
L 538 3500 
z
M 538 4863 
L 1656 4863 
L 1656 3950 
L 538 3950 
L 538 4863 
z
" transform="scale(0.015625)"/>
       <path id="DejaVuSans-Bold-75" d="M 500 1363 
L 500 3500 
L 1625 3500 
L 1625 3150 
Q 1625 2866 1622 2436 
Q 1619 2006 1619 1863 
Q 1619 1441 1641 1255 
Q 1663 1069 1716 984 
Q 1784 875 1895 815 
Q 2006 756 2150 756 
Q 2500 756 2700 1025 
Q 2900 1294 2900 1772 
L 2900 3500 
L 4019 3500 
L 4019 0 
L 2900 0 
L 2900 506 
Q 2647 200 2364 54 
Q 2081 -91 1741 -91 
Q 1134 -91 817 281 
Q 500 653 500 1363 
z
" transform="scale(0.015625)"/>
       <path id="DejaVuSans-Bold-74" d="M 1759 4494 
L 1759 3500 
L 2913 3500 
L 2913 2700 
L 1759 2700 
L 1759 1216 
Q 1759 972 1856 886 
Q 1953 800 2241 800 
L 2816 800 
L 2816 0 
L 1856 0 
Q 1194 0 917 276 
Q 641 553 641 1216 
L 641 2700 
L 84 2700 
L 84 3500 
L 641 3500 
L 641 4494 
L 1759 4494 
z
" transform="scale(0.015625)"/>
      </defs>
      <use xlink:href="#DejaVuSans-Bold-6b"/>
      <use xlink:href="#DejaVuSans-Bold-42" transform="translate(66.503906 0)"/>
      <use xlink:href="#DejaVuSans-Bold-20" transform="translate(142.724609 0)"/>
      <use xlink:href="#DejaVuSans-Bold-70" transform="translate(177.539062 0)"/>
      <use xlink:href="#DejaVuSans-Bold-65" transform="translate(249.121094 0)"/>
      <use xlink:href="#DejaVuSans-Bold-72" transform="translate(316.943359 0)"/>
      <use xlink:href="#DejaVuSans-Bold-20" transform="translate(366.259766 0)"/>
      <use xlink:href="#DejaVuSans-Bold-6d" transform="translate(401.074219 0)"/>
      <use xlink:href="#DejaVuSans-Bold-69" transform="translate(505.273438 0)"/>
      <use xlink:href="#DejaVuSans-Bold-6e" transform="translate(539.550781 0)"/>
      <use xlink:href="#DejaVuSans-Bold-75" transform="translate(610.742188 0)"/>
      <use xlink:href="#DejaVuSans-Bold-74" transform="translate(681.933594 0)"/>
      <use xlink:href="#DejaVuSans-Bold-65" transform="translate(729.736328 0)"/>
     </g>
    </g>
   </g>
   <g id="patch_3">
    <path d="M 84.821719 245.597813 
L 153.751131 245.597813 
L 153.751131 34.397813 
L 84.821719 34.397813 
z
" clip-path="url(#pc93f14b179)" style="fill: #7f7f7f; stroke: #404040; stroke-width: 0.9; stroke-linejoin: miter"/>
   </g>
   <g id="patch_4">
    <path d="M 281.762895 245.597813 
L 350.692307 245.597813 
L 350.692307 166.944019 
L 281.762895 166.944019 
z
" clip-path="url(#pc93f14b179)" style="fill: #7f7f7f; stroke: #404040; stroke-width: 0.9; stroke-linejoin: miter"/>
   </g>
   <g id="patch_5">
    <path d="M 153.751131 245.597813 
L 222.680542 245.597813 
L 222.680542 53.332985 
L 153.751131 53.332985 
z
" clip-path="url(#pc93f14b179)" style="fill: #bcbd22; stroke: #404040; stroke-width: 0.9; stroke-linejoin: miter"/>
   </g>
   <g id="patch_6">
    <path d="M 350.692307 245.597813 
L 419.621719 245.597813 
L 419.621719 182.966088 
L 350.692307 182.966088 
z
" clip-path="url(#pc93f14b179)" style="fill: #bcbd22; stroke: #404040; stroke-width: 0.9; stroke-linejoin: miter"/>
   </g>
   <g id="patch_7">
    <path d="M 68.081719 245.597813 
L 68.081719 23.837813 
" style="fill: none; stroke: #595959; stroke-width: 1.05; stroke-linejoin: miter; stroke-linecap: square"/>
   </g>
   <g id="patch_8">
    <path d="M 436.361719 245.597813 
L 436.361719 23.837813 
" style="fill: none; stroke: #595959; stroke-width: 1.05; stroke-linejoin: miter; stroke-linecap: square"/>
   </g>
   <g id="patch_9">
    <path d="M 68.081719 245.597813 
L 436.361719 245.597813 
" style="fill: none; stroke: #595959; stroke-width: 1.05; stroke-linejoin: miter; stroke-linecap: square"/>
   </g>
   <g id="patch_10">
    <path d="M 68.081719 23.837813 
L 436.361719 23.837813 
" style="fill: none; stroke: #595959; stroke-width: 1.05; stroke-linejoin: miter; stroke-linecap: square"/>
   </g>
   <g id="text_12">
    <!-- Bandwidth impact of relevance-only telemetry -->
    <g transform="translate(68.617188 17.837813) scale(0.14 -0.14)">
     <defs>
      <path id="DejaVuSans-Bold-64" d="M 2919 2988 
L 2919 4863 
L 4044 4863 
L 4044 0 
L 2919 0 
L 2919 506 
Q 2688 197 2409 53 
Q 2131 -91 1766 -91 
Q 1119 -91 703 423 
Q 288 938 288 1747 
Q 288 2556 703 3070 
Q 1119 3584 1766 3584 
Q 2128 3584 2408 3439 
Q 2688 3294 2919 2988 
z
M 2181 722 
Q 2541 722 2730 984 
Q 2919 1247 2919 1747 
Q 2919 2247 2730 2509 
Q 2541 2772 2181 2772 
Q 1825 2772 1636 2509 
Q 1447 2247 1447 1747 
Q 1447 1247 1636 984 
Q 1825 722 2181 722 
z
" transform="scale(0.015625)"/>
      <path id="DejaVuSans-Bold-68" d="M 4056 2131 
L 4056 0 
L 2931 0 
L 2931 347 
L 2931 1625 
Q 2931 2084 2911 2256 
Q 2891 2428 2841 2509 
Q 2775 2619 2662 2680 
Q 2550 2741 2406 2741 
Q 2056 2741 1856 2470 
Q 1656 2200 1656 1722 
L 1656 0 
L 538 0 
L 538 4863 
L 1656 4863 
L 1656 2988 
Q 1909 3294 2193 3439 
Q 2478 3584 2822 3584 
Q 3428 3584 3742 3212 
Q 4056 2841 4056 2131 
z
" transform="scale(0.015625)"/>
     </defs>
     <use xlink:href="#DejaVuSans-Bold-42"/>
     <use xlink:href="#DejaVuSans-Bold-61" transform="translate(76.220703 0)"/>
     <use xlink:href="#DejaVuSans-Bold-6e" transform="translate(143.701172 0)"/>
     <use xlink:href="#DejaVuSans-Bold-64" transform="translate(214.892578 0)"/>
     <use xlink:href="#DejaVuSans-Bold-77" transform="translate(286.474609 0)"/>
     <use xlink:href="#DejaVuSans-Bold-69" transform="translate(378.857422 0)"/>
     <use xlink:href="#DejaVuSans-Bold-64" transform="translate(413.134766 0)"/>
     <use xlink:href="#DejaVuSans-Bold-74" transform="translate(484.716797 0)"/>
     <use xlink:href="#DejaVuSans-Bold-68" transform="translate(532.519531 0)"/>
     <use xlink:href="#DejaVuSans-Bold-20" transform="translate(603.710938 0)"/>
     <use xlink:href="#DejaVuSans-Bold-69" transform="translate(638.525391 0)"/>
     <use xlink:href="#DejaVuSans-Bold-6d" transform="translate(672.802734 0)"/>
     <use xlink:href="#DejaVuSans-Bold-70" transform="translate(777.001953 0)"/>
     <use xlink:href="#DejaVuSans-Bold-61" transform="translate(848.583984 0)"/>
     <use xlink:href="#DejaVuSans-Bold-63" transform="translate(916.064453 0)"/>
     <use xlink:href="#DejaVuSans-Bold-74" transform="translate(975.341797 0)"/>
     <use xlink:href="#DejaVuSans-Bold-20" transform="translate(1023.144531 0)"/>
     <use xlink:href="#DejaVuSans-Bold-6f" transform="translate(1057.958984 0)"/>
     <use xlink:href="#DejaVuSans-Bold-66" transform="translate(1126.660156 0)"/>
     <use xlink:href="#DejaVuSans-Bold-20" transform="translate(1170.166016 0)"/>
     <use xlink:href="#DejaVuSans-Bold-72" transform="translate(1204.980469 0)"/>
     <use xlink:href="#DejaVuSans-Bold-65" transform="translate(1254.296875 0)"/>
     <use xlink:href="#DejaVuSans-Bold-6c" transform="translate(1322.119141 0)"/>
     <use xlink:href="#DejaVuSans-Bold-65" transform="translate(1356.396484 0)"/>
     <use xlink:href="#DejaVuSans-Bold-76" transform="translate(1424.21875 0)"/>
     <use xlink:href="#DejaVuSans-Bold-61" transform="translate(1489.404297 0)"/>
     <use xlink:href="#DejaVuSans-Bold-6e" transform="translate(1556.884766 0)"/>
     <use xlink:href="#DejaVuSans-Bold-63" transform="translate(1628.076172 0)"/>
     <use xlink:href="#DejaVuSans-Bold-65" transform="translate(1687.353516 0)"/>
     <use xlink:href="#DejaVuSans-Bold-2d" transform="translate(1755.175781 0)"/>
     <use xlink:href="#DejaVuSans-Bold-6f" transform="translate(1796.679688 0)"/>
     <use xlink:href="#DejaVuSans-Bold-6e" transform="translate(1865.380859 0)"/>
     <use xlink:href="#DejaVuSans-Bold-6c" transform="translate(1936.572266 0)"/>
     <use xlink:href="#DejaVuSans-Bold-79" transform="translate(1970.849609 0)"/>
     <use xlink:href="#DejaVuSans-Bold-20" transform="translate(2036.035156 0)"/>
     <use xlink:href="#DejaVuSans-Bold-74" transform="translate(2070.849609 0)"/>
     <use xlink:href="#DejaVuSans-Bold-65" transform="translate(2118.652344 0)"/>
     <use xlink:href="#DejaVuSans-Bold-6c" transform="translate(2186.474609 0)"/>
     <use xlink:href="#DejaVuSans-Bold-65" transform="translate(2220.751953 0)"/>
     <use xlink:href="#DejaVuSans-Bold-6d" transform="translate(2288.574219 0)"/>
     <use xlink:href="#DejaVuSans-Bold-65" transform="translate(2392.773438 0)"/>
     <use xlink:href="#DejaVuSans-Bold-74" transform="translate(2460.595703 0)"/>
     <use xlink:href="#DejaVuSans-Bold-72" transform="translate(2508.398438 0)"/>
     <use xlink:href="#DejaVuSans-Bold-79" transform="translate(2557.714844 0)"/>
    </g>
   </g>
   <g id="legend_1">
    <g id="patch_11">
     <path d="M 329.482813 66.813125 
L 427.961719 66.813125 
Q 430.361719 66.813125 430.361719 64.413125 
L 430.361719 32.237813 
Q 430.361719 29.837813 427.961719 29.837813 
L 329.482813 29.837813 
Q 327.082813 29.837813 327.082813 32.237813 
L 327.082813 64.413125 
Q 327.082813 66.813125 329.482813 66.813125 
z
" style="fill: #ffffff; opacity: 0.92; stroke: #adadad; stroke-width: 0.85; stroke-linejoin: miter"/>
    </g>
    <g id="patch_12">
     <path d="M 331.882813 43.037813 
L 355.882813 43.037813 
L 355.882813 34.637813 
L 331.882813 34.637813 
z
" style="fill: #7f7f7f; stroke: #404040; stroke-width: 0.9; stroke-linejoin: miter"/>
    </g>
    <g id="text_13">
     <!-- PVF-10 -->
     <g transform="translate(365.482813 43.037813) scale(0.11 -0.11)">
      <defs>
       <path id="DejaVuSans-Bold-50" d="M 588 4666 
L 2584 4666 
Q 3475 4666 3951 4270 
Q 4428 3875 4428 3144 
Q 4428 2409 3951 2014 
Q 3475 1619 2584 1619 
L 1791 1619 
L 1791 0 
L 588 0 
L 588 4666 
z
M 1791 3794 
L 1791 2491 
L 2456 2491 
Q 2806 2491 2997 2661 
Q 3188 2831 3188 3144 
Q 3188 3456 2997 3625 
Q 2806 3794 2456 3794 
L 1791 3794 
z
" transform="scale(0.015625)"/>
       <path id="DejaVuSans-Bold-56" d="M 31 4666 
L 1241 4666 
L 2478 1222 
L 3713 4666 
L 4922 4666 
L 3194 0 
L 1759 0 
L 31 4666 
z
" transform="scale(0.015625)"/>
       <path id="DejaVuSans-Bold-46" d="M 588 4666 
L 3834 4666 
L 3834 3756 
L 1791 3756 
L 1791 2888 
L 3713 2888 
L 3713 1978 
L 1791 1978 
L 1791 0 
L 588 0 
L 588 4666 
z
" transform="scale(0.015625)"/>
      </defs>
      <use xlink:href="#DejaVuSans-Bold-50"/>
      <use xlink:href="#DejaVuSans-Bold-56" transform="translate(73.291016 0)"/>
      <use xlink:href="#DejaVuSans-Bold-46" transform="translate(150.683594 0)"/>
      <use xlink:href="#DejaVuSans-Bold-2d" transform="translate(215.869141 0)"/>
      <use xlink:href="#DejaVuSans-Bold-31" transform="translate(257.373047 0)"/>
      <use xlink:href="#DejaVuSans-Bold-30" transform="translate(326.953125 0)"/>
     </g>
    </g>
    <g id="patch_13">
     <path d="M 331.882813 59.725469 
L 355.882813 59.725469 
L 355.882813 51.325469 
L 331.882813 51.325469 
z
" style="fill: #bcbd22; stroke: #404040; stroke-width: 0.9; stroke-linejoin: miter"/>
    </g>
    <g id="text_14">
     <!-- STHS-277 -->
     <g transform="translate(365.482813 59.725469) scale(0.11 -0.11)">
      <defs>
       <path id="DejaVuSans-Bold-53" d="M 3834 4519 
L 3834 3531 
Q 3450 3703 3084 3790 
Q 2719 3878 2394 3878 
Q 1963 3878 1756 3759 
Q 1550 3641 1550 3391 
Q 1550 3203 1689 3098 
Q 1828 2994 2194 2919 
L 2706 2816 
Q 3484 2659 3812 2340 
Q 4141 2022 4141 1434 
Q 4141 663 3683 286 
Q 3225 -91 2284 -91 
Q 1841 -91 1394 -6 
Q 947 78 500 244 
L 500 1259 
Q 947 1022 1364 901 
Q 1781 781 2169 781 
Q 2563 781 2772 912 
Q 2981 1044 2981 1288 
Q 2981 1506 2839 1625 
Q 2697 1744 2272 1838 
L 1806 1941 
Q 1106 2091 782 2419 
Q 459 2747 459 3303 
Q 459 4000 909 4375 
Q 1359 4750 2203 4750 
Q 2588 4750 2994 4692 
Q 3400 4634 3834 4519 
z
" transform="scale(0.015625)"/>
       <path id="DejaVuSans-Bold-54" d="M 31 4666 
L 4331 4666 
L 4331 3756 
L 2784 3756 
L 2784 0 
L 1581 0 
L 1581 3756 
L 31 3756 
L 31 4666 
z
" transform="scale(0.015625)"/>
       <path id="DejaVuSans-Bold-48" d="M 588 4666 
L 1791 4666 
L 1791 2888 
L 3566 2888 
L 3566 4666 
L 4769 4666 
L 4769 0 
L 3566 0 
L 3566 1978 
L 1791 1978 
L 1791 0 
L 588 0 
L 588 4666 
z
" transform="scale(0.015625)"/>
       <path id="DejaVuSans-Bold-37" d="M 428 4666 
L 3944 4666 
L 3944 3988 
L 2125 0 
L 953 0 
L 2675 3781 
L 428 3781 
L 428 4666 
z
" transform="scale(0.015625)"/>
      </defs>
      <use xlink:href="#DejaVuSans-Bold-53"/>
      <use xlink:href="#DejaVuSans-Bold-54" transform="translate(72.021484 0)"/>
      <use xlink:href="#DejaVuSans-Bold-48" transform="translate(140.234375 0)"/>
      <use xlink:href="#DejaVuSans-Bold-53" transform="translate(223.925781 0)"/>
      <use xlink:href="#DejaVuSans-Bold-2d" transform="translate(295.947266 0)"/>
      <use xlink:href="#DejaVuSans-Bold-32" transform="translate(337.451172 0)"/>
      <use xlink:href="#DejaVuSans-Bold-37" transform="translate(407.03125 0)"/>
      <use xlink:href="#DejaVuSans-Bold-37" transform="translate(476.611328 0)"/>
     </g>
    </g>
   </g>
  </g>
 </g>
 <defs>
  <clipPath id="pc93f14b179">
   <rect x="68.081719" y="23.837813" width="368.28" height="221.76"/>
  </clipPath>
 </defs>
</svg>
