<?xml version="1.0" encoding="utf-8" standalone="no"?>
<!DOCTYPE svg PUBLIC "-//W3C//DTD SVG 1.1//EN"
  "http://www.w3.org/Graphics/SVG/1.1/DTD/svg11.dtd">
<svg xmlns:xlink="http://www.w3.org/1999/xlink" width="556.927812pt" height="370.614375pt" viewBox="0 0 556.927812 370.614375" xmlns="http://www.w3.org/2000/svg" version="1.1">
 <metadata>
  <rdf:RDF xmlns:dc="http://purl.org/dc/elements/1.1/" xmlns:cc="http://creativecommons.org/ns#" xmlns:rdf="http://www.w3.org/1999/02/22-rdf-syntax-ns#">
   <cc:Work>
    <dc:type rdf:resource="http://purl.org/dc/dcmitype/StillImage"/>
    <dc:date>2023-07-07T18:43:59.099928</dc:date>
    <dc:format>image/svg+xml</dc:format>
    <dc:creator>
     <cc:Agent>
      <dc:title>Matplotlib v3.7.1, https://matplotlib.org/</dc:title>
     </cc:Agent>
    </dc:creator>
   </cc:Work>
  </rdf:RDF>
 </metadata>
 <defs>
  <style type="text/css">*{stroke-linejoin: round; stroke-linecap: butt}</style>
 </defs>
 <g id="figure_1">
  <g id="patch_1">
   <path d="M 0 370.614375 
L 556.927812 370.614375 
L 556.927812 0 
L 0 0 
z
" style="fill: #ffffff"/>
  </g>
  <g id="axes_1">
   <g id="patch_2">
    <path d="M 47.527812 284.4 
L 549.727813 284.4 
L 549.727813 7.2 
L 47.527812 7.2 
z
" style="fill: #ffffff"/>
   </g>
   <g id="PathCollection_1">
    <defs>
     <path id="m791340d3a7" d="M 0 3.535534 
C 0.937635 3.535534 1.836992 3.163008 2.5 2.5 
C 3.163008 1.836992 3.535534 0.937635 3.535534 0 
C 3.535534 -0.937635 3.163008 -1.836992 2.5 -2.5 
C 1.836992 -3.163008 0.937635 -3.535534 0 -3.535534 
C -0.937635 -3.535534 -1.836992 -3.163008 -2.5 -2.5 
C -3.163008 -1.836992 -3.535534 -0.937635 -3.535534 0 
C -3.535534 0.937635 -3.163008 1.836992 -2.5 2.5 
C -1.836992 3.163008 -0.937635 3.535534 0 3.535534 
z
" style="stroke: #1f77b4"/>
    </defs>
    <g clip-path="url(#p709f2b2077)">
     <use xlink:href="#m791340d3a7" x="99.533871" y="19.8" style="fill: #1f77b4; stroke: #1f77b4"/>
     <use xlink:href="#m791340d3a7" x="123.642933" y="64.412093" style="fill: #1f77b4; stroke: #1f77b4"/>
     <use xlink:href="#m791340d3a7" x="72.387644" y="32.75418" style="fill: #1f77b4; stroke: #1f77b4"/>
     <use xlink:href="#m791340d3a7" x="90.861879" y="70.093865" style="fill: #1f77b4; stroke: #1f77b4"/>
     <use xlink:href="#m791340d3a7" x="96.569757" y="61.90322" style="fill: #1f77b4; stroke: #1f77b4"/>
     <use xlink:href="#m791340d3a7" x="71.693541" y="47.229089" style="fill: #1f77b4; stroke: #1f77b4"/>
     <use xlink:href="#m791340d3a7" x="70.355085" y="114.084728" style="fill: #1f77b4; stroke: #1f77b4"/>
     <use xlink:href="#m791340d3a7" x="80.925396" y="63.066282" style="fill: #1f77b4; stroke: #1f77b4"/>
     <use xlink:href="#m791340d3a7" x="71.232337" y="28.094843" style="fill: #1f77b4; stroke: #1f77b4"/>
     <use xlink:href="#m791340d3a7" x="70.478807" y="84.796813" style="fill: #1f77b4; stroke: #1f77b4"/>
     <use xlink:href="#m791340d3a7" x="70.377478" y="122.683312" style="fill: #1f77b4; stroke: #1f77b4"/>
    </g>
   </g>
   <g id="PathCollection_2">
    <defs>
     <path id="m6737d6a2a6" d="M -3.535534 3.535534 
L 3.535534 -3.535534 
M -3.535534 -3.535534 
L 3.535534 3.535534 
" style="stroke: #2ca02c; stroke-width: 1.5"/>
    </defs>
    <g clip-path="url(#p709f2b2077)">
     <use xlink:href="#m6737d6a2a6" x="455.662479" y="251.603405" style="fill: #2ca02c; stroke: #2ca02c; stroke-width: 1.5"/>
     <use xlink:href="#m6737d6a2a6" x="426.574314" y="265.104524" style="fill: #2ca02c; stroke: #2ca02c; stroke-width: 1.5"/>
     <use xlink:href="#m6737d6a2a6" x="435.363103" y="262.428949" style="fill: #2ca02c; stroke: #2ca02c; stroke-width: 1.5"/>
     <use xlink:href="#m6737d6a2a6" x="523.547806" y="229.307218" style="fill: #2ca02c; stroke: #2ca02c; stroke-width: 1.5"/>
     <use xlink:href="#m6737d6a2a6" x="468.253055" y="269.590897" style="fill: #2ca02c; stroke: #2ca02c; stroke-width: 1.5"/>
     <use xlink:href="#m6737d6a2a6" x="496.227105" y="262.558839" style="fill: #2ca02c; stroke: #2ca02c; stroke-width: 1.5"/>
     <use xlink:href="#m6737d6a2a6" x="479.336573" y="269.109994" style="fill: #2ca02c; stroke: #2ca02c; stroke-width: 1.5"/>
     <use xlink:href="#m6737d6a2a6" x="497.467854" y="269.658618" style="fill: #2ca02c; stroke: #2ca02c; stroke-width: 1.5"/>
     <use xlink:href="#m6737d6a2a6" x="407.471603" y="271.651011" style="fill: #2ca02c; stroke: #2ca02c; stroke-width: 1.5"/>
     <use xlink:href="#m6737d6a2a6" x="465.652093" y="193.861751" style="fill: #2ca02c; stroke: #2ca02c; stroke-width: 1.5"/>
     <use xlink:href="#m6737d6a2a6" x="488.539295" y="271.048042" style="fill: #2ca02c; stroke: #2ca02c; stroke-width: 1.5"/>
    </g>
   </g>
   <g id="PathCollection_3">
    <defs>
     <path id="m8619f2dae2" d="M 0 -3.535534 
L -3.535534 3.535534 
L 3.535534 3.535534 
z
" style="stroke: #d62728"/>
    </defs>
    <g clip-path="url(#p709f2b2077)">
     <use xlink:href="#m8619f2dae2" x="158.543838" y="187.456587" style="fill: #d62728; stroke: #d62728"/>
     <use xlink:href="#m8619f2dae2" x="167.719405" y="205.346859" style="fill: #d62728; stroke: #d62728"/>
     <use xlink:href="#m8619f2dae2" x="158.818997" y="165.543077" style="fill: #d62728; stroke: #d62728"/>
     <use xlink:href="#m8619f2dae2" x="77.760861" y="212.143049" style="fill: #d62728; stroke: #d62728"/>
     <use xlink:href="#m8619f2dae2" x="158.506452" y="242.502099" style="fill: #d62728; stroke: #d62728"/>
     <use xlink:href="#m8619f2dae2" x="156.970616" y="226.215864" style="fill: #d62728; stroke: #d62728"/>
     <use xlink:href="#m8619f2dae2" x="146.347106" y="204.076112" style="fill: #d62728; stroke: #d62728"/>
     <use xlink:href="#m8619f2dae2" x="80.205723" y="196.995479" style="fill: #d62728; stroke: #d62728"/>
     <use xlink:href="#m8619f2dae2" x="137.290618" y="244.07834" style="fill: #d62728; stroke: #d62728"/>
     <use xlink:href="#m8619f2dae2" x="127.208694" y="222.767407" style="fill: #d62728; stroke: #d62728"/>
     <use xlink:href="#m8619f2dae2" x="186.654868" y="224.287785" style="fill: #d62728; stroke: #d62728"/>
    </g>
   </g>
   <g id="PathCollection_4">
    <defs>
     <path id="m669f812532" d="M -3.535534 3.535534 
L 3.535534 3.535534 
L 3.535534 -3.535534 
L -3.535534 -3.535534 
z
" style="stroke: #17becf"/>
    </defs>
    <g clip-path="url(#p709f2b2077)">
     <use xlink:href="#m669f812532" x="250.178787" y="119.984856" style="fill: #17becf; stroke: #17becf"/>
     <use xlink:href="#m669f812532" x="228.584431" y="66.697406" style="fill: #17becf; stroke: #17becf"/>
     <use xlink:href="#m669f812532" x="296.10883" y="75.146261" style="fill: #17becf; stroke: #17becf"/>
     <use xlink:href="#m669f812532" x="204.122884" y="53.963467" style="fill: #17becf; stroke: #17becf"/>
     <use xlink:href="#m669f812532" x="239.63906" y="59.739518" style="fill: #17becf; stroke: #17becf"/>
     <use xlink:href="#m669f812532" x="248.807207" y="81.231893" style="fill: #17becf; stroke: #17becf"/>
     <use xlink:href="#m669f812532" x="308.760965" y="94.55181" style="fill: #17becf; stroke: #17becf"/>
     <use xlink:href="#m669f812532" x="242.240148" y="87.171948" style="fill: #17becf; stroke: #17becf"/>
     <use xlink:href="#m669f812532" x="267.326857" y="37.798102" style="fill: #17becf; stroke: #17becf"/>
     <use xlink:href="#m669f812532" x="306.806416" y="47.753382" style="fill: #17becf; stroke: #17becf"/>
     <use xlink:href="#m669f812532" x="276.217836" y="105.579838" style="fill: #17becf; stroke: #17becf"/>
    </g>
   </g>
   <g id="PathCollection_5">
    <defs>
     <path id="m10a6202e28" d="M 0 5 
L 5 0 
L 0 -5 
L -5 0 
z
" style="stroke: #ff7f0e"/>
    </defs>
    <g clip-path="url(#p709f2b2077)">
     <use xlink:href="#m10a6202e28" x="524.881898" y="154.994806" style="fill: #ff7f0e; stroke: #ff7f0e"/>
     <use xlink:href="#m10a6202e28" x="526.19933" y="135.071946" style="fill: #ff7f0e; stroke: #ff7f0e"/>
     <use xlink:href="#m10a6202e28" x="453.609366" y="65.46877" style="fill: #ff7f0e; stroke: #ff7f0e"/>
     <use xlink:href="#m10a6202e28" x="499.207853" y="120.725551" style="fill: #ff7f0e; stroke: #ff7f0e"/>
     <use xlink:href="#m10a6202e28" x="464.585933" y="136.930978" style="fill: #ff7f0e; stroke: #ff7f0e"/>
     <use xlink:href="#m10a6202e28" x="526.53091" y="90.998721" style="fill: #ff7f0e; stroke: #ff7f0e"/>
     <use xlink:href="#m10a6202e28" x="479.024114" y="105.681183" style="fill: #ff7f0e; stroke: #ff7f0e"/>
     <use xlink:href="#m10a6202e28" x="526.473016" y="123.098636" style="fill: #ff7f0e; stroke: #ff7f0e"/>
     <use xlink:href="#m10a6202e28" x="526.710521" y="67.56612" style="fill: #ff7f0e; stroke: #ff7f0e"/>
     <use xlink:href="#m10a6202e28" x="525.135414" y="104.429828" style="fill: #ff7f0e; stroke: #ff7f0e"/>
     <use xlink:href="#m10a6202e28" x="488.831163" y="89.292004" style="fill: #ff7f0e; stroke: #ff7f0e"/>
    </g>
   </g>
   <g id="PathCollection_6">
    <defs>
     <path id="m47a45ba6da" d="M 0 5 
L 3 0 
L 0 -5 
L -3 0 
z
" style="stroke: #000000"/>
    </defs>
    <g clip-path="url(#p709f2b2077)">
     <use xlink:href="#m47a45ba6da" x="161.281241" y="271.8" style="stroke: #000000"/>
     <use xlink:href="#m47a45ba6da" x="222.217791" y="254.741057" style="stroke: #000000"/>
     <use xlink:href="#m47a45ba6da" x="283.154341" y="237.682114" style="stroke: #000000"/>
     <use xlink:href="#m47a45ba6da" x="344.090891" y="220.623171" style="stroke: #000000"/>
     <use xlink:href="#m47a45ba6da" x="405.02744" y="203.564228" style="stroke: #000000"/>
     <use xlink:href="#m47a45ba6da" x="465.96399" y="186.505285" style="stroke: #000000"/>
     <use xlink:href="#m47a45ba6da" x="526.90054" y="169.446341" style="stroke: #000000"/>
    </g>
   </g>
   <g id="matplotlib.axis_1">
    <g id="xtick_1">
     <g id="line2d_1">
      <path d="M 69.876417 284.4 
L 69.876417 7.2 
" clip-path="url(#p709f2b2077)" style="fill: none; stroke: #b0b0b0; stroke-width: 0.8; stroke-linecap: square"/>
     </g>
     <g id="line2d_2">
      <defs>
       <path id="m4a9cb30655" d="M 0 0 
L 0 3.5 
" style="stroke: #000000; stroke-width: 0.8"/>
      </defs>
      <g>
       <use xlink:href="#m4a9cb30655" x="69.876417" y="284.4" style="stroke: #000000; stroke-width: 0.8"/>
      </g>
     </g>
     <g id="text_1">
      <!-- 0.0 -->
      <g transform="translate(61.019386 298.998438) scale(0.1 -0.1)">
       <defs>
        <path id="DejaVuSans-Bold-30" d="M 2944 2338 
Q 2944 3213 2780 3570 
Q 2616 3928 2228 3928 
Q 1841 3928 1675 3570 
Q 1509 3213 1509 2338 
Q 1509 1453 1675 1090 
Q 1841 728 2228 728 
Q 2613 728 2778 1090 
Q 2944 1453 2944 2338 
z
M 4147 2328 
Q 4147 1169 3647 539 
Q 3147 -91 2228 -91 
Q 1306 -91 806 539 
Q 306 1169 306 2328 
Q 306 3491 806 4120 
Q 1306 4750 2228 4750 
Q 3147 4750 3647 4120 
Q 4147 3491 4147 2328 
z
" transform="scale(0.015625)"/>
        <path id="DejaVuSans-Bold-2e" d="M 653 1209 
L 1778 1209 
L 1778 0 
L 653 0 
L 653 1209 
z
" transform="scale(0.015625)"/>
       </defs>
       <use xlink:href="#DejaVuSans-Bold-30"/>
       <use xlink:href="#DejaVuSans-Bold-2e" x="69.580078"/>
       <use xlink:href="#DejaVuSans-Bold-30" x="107.568359"/>
      </g>
     </g>
    </g>
    <g id="xtick_2">
     <g id="line2d_3">
      <path d="M 161.281241 284.4 
L 161.281241 7.2 
" clip-path="url(#p709f2b2077)" style="fill: none; stroke: #b0b0b0; stroke-width: 0.8; stroke-linecap: square"/>
     </g>
     <g id="line2d_4">
      <g>
       <use xlink:href="#m4a9cb30655" x="161.281241" y="284.4" style="stroke: #000000; stroke-width: 0.8"/>
      </g>
     </g>
     <g id="text_2">
      <!-- 0.2 -->
      <g transform="translate(152.42421 298.998438) scale(0.1 -0.1)">
       <defs>
        <path id="DejaVuSans-Bold-32" d="M 1844 884 
L 3897 884 
L 3897 0 
L 506 0 
L 506 884 
L 2209 2388 
Q 2438 2594 2547 2791 
Q 2656 2988 2656 3200 
Q 2656 3528 2436 3728 
Q 2216 3928 1850 3928 
Q 1569 3928 1234 3808 
Q 900 3688 519 3450 
L 519 4475 
Q 925 4609 1322 4679 
Q 1719 4750 2100 4750 
Q 2938 4750 3402 4381 
Q 3866 4013 3866 3353 
Q 3866 2972 3669 2642 
Q 3472 2313 2841 1759 
L 1844 884 
z
" transform="scale(0.015625)"/>
       </defs>
       <use xlink:href="#DejaVuSans-Bold-30"/>
       <use xlink:href="#DejaVuSans-Bold-2e" x="69.580078"/>
       <use xlink:href="#DejaVuSans-Bold-32" x="107.568359"/>
      </g>
     </g>
    </g>
    <g id="xtick_3">
     <g id="line2d_5">
      <path d="M 252.686066 284.4 
L 252.686066 7.2 
" clip-path="url(#p709f2b2077)" style="fill: none; stroke: #b0b0b0; stroke-width: 0.8; stroke-linecap: square"/>
     </g>
     <g id="line2d_6">
      <g>
       <use xlink:href="#m4a9cb30655" x="252.686066" y="284.4" style="stroke: #000000; stroke-width: 0.8"/>
      </g>
     </g>
     <g id="text_3">
      <!-- 0.4 -->
      <g transform="translate(243.829035 298.998438) scale(0.1 -0.1)">
       <defs>
        <path id="DejaVuSans-Bold-34" d="M 2356 3675 
L 1038 1722 
L 2356 1722 
L 2356 3675 
z
M 2156 4666 
L 3494 4666 
L 3494 1722 
L 4159 1722 
L 4159 850 
L 3494 850 
L 3494 0 
L 2356 0 
L 2356 850 
L 288 850 
L 288 1881 
L 2156 4666 
z
" transform="scale(0.015625)"/>
       </defs>
       <use xlink:href="#DejaVuSans-Bold-30"/>
       <use xlink:href="#DejaVuSans-Bold-2e" x="69.580078"/>
       <use xlink:href="#DejaVuSans-Bold-34" x="107.568359"/>
      </g>
     </g>
    </g>
    <g id="xtick_4">
     <g id="line2d_7">
      <path d="M 344.090891 284.4 
L 344.090891 7.2 
" clip-path="url(#p709f2b2077)" style="fill: none; stroke: #b0b0b0; stroke-width: 0.8; stroke-linecap: square"/>
     </g>
     <g id="line2d_8">
      <g>
       <use xlink:href="#m4a9cb30655" x="344.090891" y="284.4" style="stroke: #000000; stroke-width: 0.8"/>
      </g>
     </g>
     <g id="text_4">
      <!-- 0.6 -->
      <g transform="translate(335.233859 298.998438) scale(0.1 -0.1)">
       <defs>
        <path id="DejaVuSans-Bold-36" d="M 2316 2303 
Q 2000 2303 1842 2098 
Q 1684 1894 1684 1484 
Q 1684 1075 1842 870 
Q 2000 666 2316 666 
Q 2634 666 2792 870 
Q 2950 1075 2950 1484 
Q 2950 1894 2792 2098 
Q 2634 2303 2316 2303 
z
M 3803 4544 
L 3803 3681 
Q 3506 3822 3243 3889 
Q 2981 3956 2731 3956 
Q 2194 3956 1894 3657 
Q 1594 3359 1544 2772 
Q 1750 2925 1990 3001 
Q 2231 3078 2516 3078 
Q 3231 3078 3670 2659 
Q 4109 2241 4109 1563 
Q 4109 813 3618 361 
Q 3128 -91 2303 -91 
Q 1394 -91 895 523 
Q 397 1138 397 2266 
Q 397 3422 980 4083 
Q 1563 4744 2578 4744 
Q 2900 4744 3203 4694 
Q 3506 4644 3803 4544 
z
" transform="scale(0.015625)"/>
       </defs>
       <use xlink:href="#DejaVuSans-Bold-30"/>
       <use xlink:href="#DejaVuSans-Bold-2e" x="69.580078"/>
       <use xlink:href="#DejaVuSans-Bold-36" x="107.568359"/>
      </g>
     </g>
    </g>
    <g id="xtick_5">
     <g id="line2d_9">
      <path d="M 435.495715 284.4 
L 435.495715 7.2 
" clip-path="url(#p709f2b2077)" style="fill: none; stroke: #b0b0b0; stroke-width: 0.8; stroke-linecap: square"/>
     </g>
     <g id="line2d_10">
      <g>
       <use xlink:href="#m4a9cb30655" x="435.495715" y="284.4" style="stroke: #000000; stroke-width: 0.8"/>
      </g>
     </g>
     <g id="text_5">
      <!-- 0.8 -->
      <g transform="translate(426.638684 298.998438) scale(0.1 -0.1)">
       <defs>
        <path id="DejaVuSans-Bold-38" d="M 2228 2088 
Q 1891 2088 1709 1903 
Q 1528 1719 1528 1375 
Q 1528 1031 1709 848 
Q 1891 666 2228 666 
Q 2563 666 2741 848 
Q 2919 1031 2919 1375 
Q 2919 1722 2741 1905 
Q 2563 2088 2228 2088 
z
M 1350 2484 
Q 925 2613 709 2878 
Q 494 3144 494 3541 
Q 494 4131 934 4440 
Q 1375 4750 2228 4750 
Q 3075 4750 3515 4442 
Q 3956 4134 3956 3541 
Q 3956 3144 3739 2878 
Q 3522 2613 3097 2484 
Q 3572 2353 3814 2058 
Q 4056 1763 4056 1313 
Q 4056 619 3595 264 
Q 3134 -91 2228 -91 
Q 1319 -91 855 264 
Q 391 619 391 1313 
Q 391 1763 633 2058 
Q 875 2353 1350 2484 
z
M 1631 3419 
Q 1631 3141 1786 2991 
Q 1941 2841 2228 2841 
Q 2509 2841 2662 2991 
Q 2816 3141 2816 3419 
Q 2816 3697 2662 3845 
Q 2509 3994 2228 3994 
Q 1941 3994 1786 3844 
Q 1631 3694 1631 3419 
z
" transform="scale(0.015625)"/>
       </defs>
       <use xlink:href="#DejaVuSans-Bold-30"/>
       <use xlink:href="#DejaVuSans-Bold-2e" x="69.580078"/>
       <use xlink:href="#DejaVuSans-Bold-38" x="107.568359"/>
      </g>
     </g>
    </g>
    <g id="xtick_6">
     <g id="line2d_11">
      <path d="M 526.90054 284.4 
L 526.90054 7.2 
" clip-path="url(#p709f2b2077)" style="fill: none; stroke: #b0b0b0; stroke-width: 0.8; stroke-linecap: square"/>
     </g>
     <g id="line2d_12">
      <g>
       <use xlink:href="#m4a9cb30655" x="526.90054" y="284.4" style="stroke: #000000; stroke-width: 0.8"/>
      </g>
     </g>
     <g id="text_6">
      <!-- 1.0 -->
      <g transform="translate(518.043509 298.998438) scale(0.1 -0.1)">
       <defs>
        <path id="DejaVuSans-Bold-31" d="M 750 831 
L 1813 831 
L 1813 3847 
L 722 3622 
L 722 4441 
L 1806 4666 
L 2950 4666 
L 2950 831 
L 4013 831 
L 4013 0 
L 750 0 
L 750 831 
z
" transform="scale(0.015625)"/>
       </defs>
       <use xlink:href="#DejaVuSans-Bold-31"/>
       <use xlink:href="#DejaVuSans-Bold-2e" x="69.580078"/>
       <use xlink:href="#DejaVuSans-Bold-30" x="107.568359"/>
      </g>
     </g>
    </g>
    <g id="text_7">
     <!-- X1 -->
     <g transform="translate(289.8275 314.19625) scale(0.12 -0.12)">
      <defs>
       <path id="DejaVuSans-Bold-58" d="M 3188 2381 
L 4806 0 
L 3553 0 
L 2463 1594 
L 1381 0 
L 122 0 
L 1741 2381 
L 184 4666 
L 1441 4666 
L 2463 3163 
L 3481 4666 
L 4744 4666 
L 3188 2381 
z
" transform="scale(0.015625)"/>
      </defs>
      <use xlink:href="#DejaVuSans-Bold-58"/>
      <use xlink:href="#DejaVuSans-Bold-31" x="77.099609"/>
     </g>
    </g>
   </g>
   <g id="matplotlib.axis_2">
    <g id="ytick_1">
     <g id="line2d_13">
      <path d="M 47.527812 271.8 
L 549.727813 271.8 
" clip-path="url(#p709f2b2077)" style="fill: none; stroke: #b0b0b0; stroke-width: 0.8; stroke-linecap: square"/>
     </g>
     <g id="line2d_14">
      <defs>
       <path id="m5d66a253be" d="M 0 0 
L -3.5 0 
" style="stroke: #000000; stroke-width: 0.8"/>
      </defs>
      <g>
       <use xlink:href="#m5d66a253be" x="47.527812" y="271.8" style="stroke: #000000; stroke-width: 0.8"/>
      </g>
     </g>
     <g id="text_8">
      <!-- 0.0 -->
      <g transform="translate(22.81375 275.599219) scale(0.1 -0.1)">
       <use xlink:href="#DejaVuSans-Bold-30"/>
       <use xlink:href="#DejaVuSans-Bold-2e" x="69.580078"/>
       <use xlink:href="#DejaVuSans-Bold-30" x="107.568359"/>
      </g>
     </g>
    </g>
    <g id="ytick_2">
     <g id="line2d_15">
      <path d="M 47.527812 220.623171 
L 549.727813 220.623171 
" clip-path="url(#p709f2b2077)" style="fill: none; stroke: #b0b0b0; stroke-width: 0.8; stroke-linecap: square"/>
     </g>
     <g id="line2d_16">
      <g>
       <use xlink:href="#m5d66a253be" x="47.527812" y="220.623171" style="stroke: #000000; stroke-width: 0.8"/>
      </g>
     </g>
     <g id="text_9">
      <!-- 0.2 -->
      <g transform="translate(22.81375 224.422389) scale(0.1 -0.1)">
       <use xlink:href="#DejaVuSans-Bold-30"/>
       <use xlink:href="#DejaVuSans-Bold-2e" x="69.580078"/>
       <use xlink:href="#DejaVuSans-Bold-32" x="107.568359"/>
      </g>
     </g>
    </g>
    <g id="ytick_3">
     <g id="line2d_17">
      <path d="M 47.527812 169.446341 
L 549.727813 169.446341 
" clip-path="url(#p709f2b2077)" style="fill: none; stroke: #b0b0b0; stroke-width: 0.8; stroke-linecap: square"/>
     </g>
     <g id="line2d_18">
      <g>
       <use xlink:href="#m5d66a253be" x="47.527812" y="169.446341" style="stroke: #000000; stroke-width: 0.8"/>
      </g>
     </g>
     <g id="text_10">
      <!-- 0.4 -->
      <g transform="translate(22.81375 173.24556) scale(0.1 -0.1)">
       <use xlink:href="#DejaVuSans-Bold-30"/>
       <use xlink:href="#DejaVuSans-Bold-2e" x="69.580078"/>
       <use xlink:href="#DejaVuSans-Bold-34" x="107.568359"/>
      </g>
     </g>
    </g>
    <g id="ytick_4">
     <g id="line2d_19">
      <path d="M 47.527812 118.269512 
L 549.727813 118.269512 
" clip-path="url(#p709f2b2077)" style="fill: none; stroke: #b0b0b0; stroke-width: 0.8; stroke-linecap: square"/>
     </g>
     <g id="line2d_20">
      <g>
       <use xlink:href="#m5d66a253be" x="47.527812" y="118.269512" style="stroke: #000000; stroke-width: 0.8"/>
      </g>
     </g>
     <g id="text_11">
      <!-- 0.6 -->
      <g transform="translate(22.81375 122.068731) scale(0.1 -0.1)">
       <use xlink:href="#DejaVuSans-Bold-30"/>
       <use xlink:href="#DejaVuSans-Bold-2e" x="69.580078"/>
       <use xlink:href="#DejaVuSans-Bold-36" x="107.568359"/>
      </g>
     </g>
    </g>
    <g id="ytick_5">
     <g id="line2d_21">
      <path d="M 47.527812 67.092683 
L 549.727813 67.092683 
" clip-path="url(#p709f2b2077)" style="fill: none; stroke: #b0b0b0; stroke-width: 0.8; stroke-linecap: square"/>
     </g>
     <g id="line2d_22">
      <g>
       <use xlink:href="#m5d66a253be" x="47.527812" y="67.092683" style="stroke: #000000; stroke-width: 0.8"/>
      </g>
     </g>
     <g id="text_12">
      <!-- 0.8 -->
      <g transform="translate(22.81375 70.891902) scale(0.1 -0.1)">
       <use xlink:href="#DejaVuSans-Bold-30"/>
       <use xlink:href="#DejaVuSans-Bold-2e" x="69.580078"/>
       <use xlink:href="#DejaVuSans-Bold-38" x="107.568359"/>
      </g>
     </g>
    </g>
    <g id="ytick_6">
     <g id="line2d_23">
      <path d="M 47.527812 15.915854 
L 549.727813 15.915854 
" clip-path="url(#p709f2b2077)" style="fill: none; stroke: #b0b0b0; stroke-width: 0.8; stroke-linecap: square"/>
     </g>
     <g id="line2d_24">
      <g>
       <use xlink:href="#m5d66a253be" x="47.527812" y="15.915854" style="stroke: #000000; stroke-width: 0.8"/>
      </g>
     </g>
     <g id="text_13">
      <!-- 1.0 -->
      <g transform="translate(22.81375 19.715072) scale(0.1 -0.1)">
       <use xlink:href="#DejaVuSans-Bold-31"/>
       <use xlink:href="#DejaVuSans-Bold-2e" x="69.580078"/>
       <use xlink:href="#DejaVuSans-Bold-30" x="107.568359"/>
      </g>
     </g>
    </g>
    <g id="text_14">
     <!-- X2 -->
     <g transform="translate(16.318125 154.600313) rotate(-90) scale(0.12 -0.12)">
      <use xlink:href="#DejaVuSans-Bold-58"/>
      <use xlink:href="#DejaVuSans-Bold-32" x="77.099609"/>
     </g>
    </g>
   </g>
   <g id="line2d_25">
    <path d="M 99.533871 19.8 
L 123.642933 64.412093 
" clip-path="url(#p709f2b2077)" style="fill: none; stroke: #1f77b4; stroke-width: 1.5; stroke-linecap: square"/>
   </g>
   <g id="line2d_26">
    <path d="M 71.232337 28.094843 
L 99.533871 19.8 
" clip-path="url(#p709f2b2077)" style="fill: none; stroke: #1f77b4; stroke-width: 1.5; stroke-linecap: square"/>
   </g>
   <g id="line2d_27">
    <path d="M 70.377478 122.683312 
L 70.355085 114.084728 
" clip-path="url(#p709f2b2077)" style="fill: none; stroke: #1f77b4; stroke-width: 1.5; stroke-linecap: square"/>
   </g>
   <g id="line2d_28">
    <path d="M 70.377478 122.683312 
L 123.642933 64.412093 
" clip-path="url(#p709f2b2077)" style="fill: none; stroke: #1f77b4; stroke-width: 1.5; stroke-linecap: square"/>
   </g>
   <g id="line2d_29">
    <path d="M 70.478807 84.796813 
L 70.355085 114.084728 
" clip-path="url(#p709f2b2077)" style="fill: none; stroke: #1f77b4; stroke-width: 1.5; stroke-linecap: square"/>
   </g>
   <g id="line2d_30">
    <path d="M 70.478807 84.796813 
L 71.232337 28.094843 
" clip-path="url(#p709f2b2077)" style="fill: none; stroke: #1f77b4; stroke-width: 1.5; stroke-linecap: square"/>
   </g>
   <g id="line2d_31">
    <path d="M 465.652093 193.861751 
L 407.471603 271.651011 
" clip-path="url(#p709f2b2077)" style="fill: none; stroke: #2ca02c; stroke-width: 1.5; stroke-linecap: square"/>
   </g>
   <g id="line2d_32">
    <path d="M 465.652093 193.861751 
L 523.547806 229.307218 
" clip-path="url(#p709f2b2077)" style="fill: none; stroke: #2ca02c; stroke-width: 1.5; stroke-linecap: square"/>
   </g>
   <g id="line2d_33">
    <path d="M 497.467854 269.658618 
L 523.547806 229.307218 
" clip-path="url(#p709f2b2077)" style="fill: none; stroke: #2ca02c; stroke-width: 1.5; stroke-linecap: square"/>
   </g>
   <g id="line2d_34">
    <path d="M 488.539295 271.048042 
L 407.471603 271.651011 
" clip-path="url(#p709f2b2077)" style="fill: none; stroke: #2ca02c; stroke-width: 1.5; stroke-linecap: square"/>
   </g>
   <g id="line2d_35">
    <path d="M 488.539295 271.048042 
L 497.467854 269.658618 
" clip-path="url(#p709f2b2077)" style="fill: none; stroke: #2ca02c; stroke-width: 1.5; stroke-linecap: square"/>
   </g>
   <g id="line2d_36">
    <path d="M 158.818997 165.543077 
L 186.654868 224.287785 
" clip-path="url(#p709f2b2077)" style="fill: none; stroke: #d62728; stroke-width: 1.5; stroke-linecap: square"/>
   </g>
   <g id="line2d_37">
    <path d="M 137.290618 244.07834 
L 77.760861 212.143049 
" clip-path="url(#p709f2b2077)" style="fill: none; stroke: #d62728; stroke-width: 1.5; stroke-linecap: square"/>
   </g>
   <g id="line2d_38">
    <path d="M 80.205723 196.995479 
L 77.760861 212.143049 
" clip-path="url(#p709f2b2077)" style="fill: none; stroke: #d62728; stroke-width: 1.5; stroke-linecap: square"/>
   </g>
   <g id="line2d_39">
    <path d="M 80.205723 196.995479 
L 158.818997 165.543077 
" clip-path="url(#p709f2b2077)" style="fill: none; stroke: #d62728; stroke-width: 1.5; stroke-linecap: square"/>
   </g>
   <g id="line2d_40">
    <path d="M 158.506452 242.502099 
L 186.654868 224.287785 
" clip-path="url(#p709f2b2077)" style="fill: none; stroke: #d62728; stroke-width: 1.5; stroke-linecap: square"/>
   </g>
   <g id="line2d_41">
    <path d="M 158.506452 242.502099 
L 137.290618 244.07834 
" clip-path="url(#p709f2b2077)" style="fill: none; stroke: #d62728; stroke-width: 1.5; stroke-linecap: square"/>
   </g>
   <g id="line2d_42">
    <path d="M 250.178787 119.984856 
L 204.122884 53.963467 
" clip-path="url(#p709f2b2077)" style="fill: none; stroke: #17becf; stroke-width: 1.5; stroke-linecap: square"/>
   </g>
   <g id="line2d_43">
    <path d="M 250.178787 119.984856 
L 308.760965 94.55181 
" clip-path="url(#p709f2b2077)" style="fill: none; stroke: #17becf; stroke-width: 1.5; stroke-linecap: square"/>
   </g>
   <g id="line2d_44">
    <path d="M 306.806416 47.753382 
L 308.760965 94.55181 
" clip-path="url(#p709f2b2077)" style="fill: none; stroke: #17becf; stroke-width: 1.5; stroke-linecap: square"/>
   </g>
   <g id="line2d_45">
    <path d="M 267.326857 37.798102 
L 204.122884 53.963467 
" clip-path="url(#p709f2b2077)" style="fill: none; stroke: #17becf; stroke-width: 1.5; stroke-linecap: square"/>
   </g>
   <g id="line2d_46">
    <path d="M 267.326857 37.798102 
L 306.806416 47.753382 
" clip-path="url(#p709f2b2077)" style="fill: none; stroke: #17becf; stroke-width: 1.5; stroke-linecap: square"/>
   </g>
   <g id="line2d_47">
    <path d="M 526.710521 67.56612 
L 453.609366 65.46877 
" clip-path="url(#p709f2b2077)" style="fill: none; stroke: #ff7f0e; stroke-width: 1.5; stroke-linecap: square"/>
   </g>
   <g id="line2d_48">
    <path d="M 464.585933 136.930978 
L 453.609366 65.46877 
" clip-path="url(#p709f2b2077)" style="fill: none; stroke: #ff7f0e; stroke-width: 1.5; stroke-linecap: square"/>
   </g>
   <g id="line2d_49">
    <path d="M 464.585933 136.930978 
L 524.881898 154.994806 
" clip-path="url(#p709f2b2077)" style="fill: none; stroke: #ff7f0e; stroke-width: 1.5; stroke-linecap: square"/>
   </g>
   <g id="line2d_50">
    <path d="M 526.473016 123.098636 
L 526.710521 67.56612 
" clip-path="url(#p709f2b2077)" style="fill: none; stroke: #ff7f0e; stroke-width: 1.5; stroke-linecap: square"/>
   </g>
   <g id="line2d_51">
    <path d="M 526.19933 135.071946 
L 524.881898 154.994806 
" clip-path="url(#p709f2b2077)" style="fill: none; stroke: #ff7f0e; stroke-width: 1.5; stroke-linecap: square"/>
   </g>
   <g id="line2d_52">
    <path d="M 526.19933 135.071946 
L 526.473016 123.098636 
" clip-path="url(#p709f2b2077)" style="fill: none; stroke: #ff7f0e; stroke-width: 1.5; stroke-linecap: square"/>
   </g>
   <g id="line2d_53">
    <path d="M 161.281241 271.8 
L 526.90054 169.446341 
" clip-path="url(#p709f2b2077)" style="fill: none; stroke-dasharray: 7.4,3.2; stroke-dashoffset: 0; stroke: #000000; stroke-width: 2"/>
   </g>
   <g id="patch_3">
    <path d="M 47.527812 284.4 
L 47.527812 7.2 
" style="fill: none; stroke: #000000; stroke-width: 0.8; stroke-linejoin: miter; stroke-linecap: square"/>
   </g>
   <g id="patch_4">
    <path d="M 549.727813 284.4 
L 549.727813 7.2 
" style="fill: none; stroke: #000000; stroke-width: 0.8; stroke-linejoin: miter; stroke-linecap: square"/>
   </g>
   <g id="patch_5">
    <path d="M 47.527812 284.4 
L 549.727813 284.4 
" style="fill: none; stroke: #000000; stroke-width: 0.8; stroke-linejoin: miter; stroke-linecap: square"/>
   </g>
   <g id="patch_6">
    <path d="M 47.527812 7.2 
L 549.727813 7.2 
" style="fill: none; stroke: #000000; stroke-width: 0.8; stroke-linejoin: miter; stroke-linecap: square"/>
   </g>
   <g id="legend_1">
    <g id="patch_7">
     <path d="M 161.295 363.414375 
L 435.960625 363.414375 
Q 437.960625 363.414375 437.960625 361.414375 
L 437.960625 332.98 
Q 437.960625 330.98 435.960625 330.98 
L 161.295 330.98 
Q 159.295 330.98 159.295 332.98 
L 159.295 361.414375 
Q 159.295 363.414375 161.295 363.414375 
z
" style="fill: #ffffff; opacity: 0.8; stroke: #cccccc; stroke-linejoin: miter"/>
    </g>
    <g id="PathCollection_7">
     <g>
      <use xlink:href="#m791340d3a7" x="173.295" y="339.953438" style="fill: #1f77b4; stroke: #1f77b4"/>
     </g>
    </g>
    <g id="text_15">
     <!-- Anger -->
     <g transform="translate(191.295 342.578438) scale(0.1 -0.1)">
      <defs>
       <path id="DejaVuSans-Bold-41" d="M 3419 850 
L 1538 850 
L 1241 0 
L 31 0 
L 1759 4666 
L 3194 4666 
L 4922 0 
L 3713 0 
L 3419 850 
z
M 1838 1716 
L 3116 1716 
L 2478 3572 
L 1838 1716 
z
" transform="scale(0.015625)"/>
       <path id="DejaVuSans-Bold-6e" d="M 4056 2131 
L 4056 0 
L 2931 0 
L 2931 347 
L 2931 1631 
Q 2931 2084 2911 2256 
Q 2891 2428 2841 2509 
Q 2775 2619 2662 2680 
Q 2550 2741 2406 2741 
Q 2056 2741 1856 2470 
Q 1656 2200 1656 1722 
L 1656 0 
L 538 0 
L 538 3500 
L 1656 3500 
L 1656 2988 
Q 1909 3294 2193 3439 
Q 2478 3584 2822 3584 
Q 3428 3584 3742 3212 
Q 4056 2841 4056 2131 
z
" transform="scale(0.015625)"/>
       <path id="DejaVuSans-Bold-67" d="M 2919 594 
Q 2688 288 2409 144 
Q 2131 0 1766 0 
Q 1125 0 706 504 
Q 288 1009 288 1791 
Q 288 2575 706 3076 
Q 1125 3578 1766 3578 
Q 2131 3578 2409 3434 
Q 2688 3291 2919 2981 
L 2919 3500 
L 4044 3500 
L 4044 353 
Q 4044 -491 3511 -936 
Q 2978 -1381 1966 -1381 
Q 1638 -1381 1331 -1331 
Q 1025 -1281 716 -1178 
L 716 -306 
Q 1009 -475 1290 -558 
Q 1572 -641 1856 -641 
Q 2406 -641 2662 -400 
Q 2919 -159 2919 353 
L 2919 594 
z
M 2181 2772 
Q 1834 2772 1640 2515 
Q 1447 2259 1447 1791 
Q 1447 1309 1634 1061 
Q 1822 813 2181 813 
Q 2531 813 2725 1069 
Q 2919 1325 2919 1791 
Q 2919 2259 2725 2515 
Q 2531 2772 2181 2772 
z
" transform="scale(0.015625)"/>
       <path id="DejaVuSans-Bold-65" d="M 4031 1759 
L 4031 1441 
L 1416 1441 
Q 1456 1047 1700 850 
Q 1944 653 2381 653 
Q 2734 653 3104 758 
Q 3475 863 3866 1075 
L 3866 213 
Q 3469 63 3072 -14 
Q 2675 -91 2278 -91 
Q 1328 -91 801 392 
Q 275 875 275 1747 
Q 275 2603 792 3093 
Q 1309 3584 2216 3584 
Q 3041 3584 3536 3087 
Q 4031 2591 4031 1759 
z
M 2881 2131 
Q 2881 2450 2695 2645 
Q 2509 2841 2209 2841 
Q 1884 2841 1681 2658 
Q 1478 2475 1428 2131 
L 2881 2131 
z
" transform="scale(0.015625)"/>
       <path id="DejaVuSans-Bold-72" d="M 3138 2547 
Q 2991 2616 2845 2648 
Q 2700 2681 2553 2681 
Q 2122 2681 1889 2404 
Q 1656 2128 1656 1613 
L 1656 0 
L 538 0 
L 538 3500 
L 1656 3500 
L 1656 2925 
Q 1872 3269 2151 3426 
Q 2431 3584 2822 3584 
Q 2878 3584 2943 3579 
Q 3009 3575 3134 3559 
L 3138 2547 
z
" transform="scale(0.015625)"/>
      </defs>
      <use xlink:href="#DejaVuSans-Bold-41"/>
      <use xlink:href="#DejaVuSans-Bold-6e" x="77.392578"/>
      <use xlink:href="#DejaVuSans-Bold-67" x="148.583984"/>
      <use xlink:href="#DejaVuSans-Bold-65" x="220.166016"/>
      <use xlink:href="#DejaVuSans-Bold-72" x="287.988281"/>
     </g>
    </g>
    <g id="PathCollection_8">
     <g>
      <use xlink:href="#m6737d6a2a6" x="173.295" y="354.709687" style="fill: #2ca02c; stroke: #2ca02c; stroke-width: 1.5"/>
     </g>
    </g>
    <g id="text_16">
     <!-- Fear -->
     <g transform="translate(191.295 357.334687) scale(0.1 -0.1)">
      <defs>
       <path id="DejaVuSans-Bold-46" d="M 588 4666 
L 3834 4666 
L 3834 3756 
L 1791 3756 
L 1791 2888 
L 3713 2888 
L 3713 1978 
L 1791 1978 
L 1791 0 
L 588 0 
L 588 4666 
z
" transform="scale(0.015625)"/>
       <path id="DejaVuSans-Bold-61" d="M 2106 1575 
Q 1756 1575 1579 1456 
Q 1403 1338 1403 1106 
Q 1403 894 1545 773 
Q 1688 653 1941 653 
Q 2256 653 2472 879 
Q 2688 1106 2688 1447 
L 2688 1575 
L 2106 1575 
z
M 3816 1997 
L 3816 0 
L 2688 0 
L 2688 519 
Q 2463 200 2181 54 
Q 1900 -91 1497 -91 
Q 953 -91 614 226 
Q 275 544 275 1050 
Q 275 1666 698 1953 
Q 1122 2241 2028 2241 
L 2688 2241 
L 2688 2328 
Q 2688 2594 2478 2717 
Q 2269 2841 1825 2841 
Q 1466 2841 1156 2769 
Q 847 2697 581 2553 
L 581 3406 
Q 941 3494 1303 3539 
Q 1666 3584 2028 3584 
Q 2975 3584 3395 3211 
Q 3816 2838 3816 1997 
z
" transform="scale(0.015625)"/>
      </defs>
      <use xlink:href="#DejaVuSans-Bold-46"/>
      <use xlink:href="#DejaVuSans-Bold-65" x="64.310547"/>
      <use xlink:href="#DejaVuSans-Bold-61" x="132.132812"/>
      <use xlink:href="#DejaVuSans-Bold-72" x="199.613281"/>
     </g>
    </g>
    <g id="PathCollection_9">
     <g>
      <use xlink:href="#m8619f2dae2" x="255.024687" y="339.953438" style="fill: #d62728; stroke: #d62728"/>
     </g>
    </g>
    <g id="text_17">
     <!-- Joy -->
     <g transform="translate(273.024688 342.578438) scale(0.1 -0.1)">
      <defs>
       <path id="DejaVuSans-Bold-4a" d="M 588 4666 
L 1791 4666 
L 1791 453 
Q 1791 -419 1317 -850 
Q 844 -1281 -116 -1281 
L -359 -1281 
L -359 -372 
L -172 -372 
Q 203 -372 395 -162 
Q 588 47 588 453 
L 588 4666 
z
" transform="scale(0.015625)"/>
       <path id="DejaVuSans-Bold-6f" d="M 2203 2784 
Q 1831 2784 1636 2517 
Q 1441 2250 1441 1747 
Q 1441 1244 1636 976 
Q 1831 709 2203 709 
Q 2569 709 2762 976 
Q 2956 1244 2956 1747 
Q 2956 2250 2762 2517 
Q 2569 2784 2203 2784 
z
M 2203 3584 
Q 3106 3584 3614 3096 
Q 4122 2609 4122 1747 
Q 4122 884 3614 396 
Q 3106 -91 2203 -91 
Q 1297 -91 786 396 
Q 275 884 275 1747 
Q 275 2609 786 3096 
Q 1297 3584 2203 3584 
z
" transform="scale(0.015625)"/>
       <path id="DejaVuSans-Bold-79" d="M 78 3500 
L 1197 3500 
L 2138 1125 
L 2938 3500 
L 4056 3500 
L 2584 -331 
Q 2363 -916 2067 -1148 
Q 1772 -1381 1288 -1381 
L 641 -1381 
L 641 -647 
L 991 -647 
Q 1275 -647 1404 -556 
Q 1534 -466 1606 -231 
L 1638 -134 
L 78 3500 
z
" transform="scale(0.015625)"/>
      </defs>
      <use xlink:href="#DejaVuSans-Bold-4a"/>
      <use xlink:href="#DejaVuSans-Bold-6f" x="37.207031"/>
      <use xlink:href="#DejaVuSans-Bold-79" x="105.908203"/>
     </g>
    </g>
    <g id="PathCollection_10">
     <g>
      <use xlink:href="#m669f812532" x="255.024687" y="354.709687" style="fill: #17becf; stroke: #17becf"/>
     </g>
    </g>
    <g id="text_18">
     <!-- Neutral -->
     <g transform="translate(273.024688 357.334687) scale(0.1 -0.1)">
      <defs>
       <path id="DejaVuSans-Bold-4e" d="M 588 4666 
L 1931 4666 
L 3628 1466 
L 3628 4666 
L 4769 4666 
L 4769 0 
L 3425 0 
L 1728 3200 
L 1728 0 
L 588 0 
L 588 4666 
z
" transform="scale(0.015625)"/>
       <path id="DejaVuSans-Bold-75" d="M 500 1363 
L 500 3500 
L 1625 3500 
L 1625 3150 
Q 1625 2866 1622 2436 
Q 1619 2006 1619 1863 
Q 1619 1441 1641 1255 
Q 1663 1069 1716 984 
Q 1784 875 1895 815 
Q 2006 756 2150 756 
Q 2500 756 2700 1025 
Q 2900 1294 2900 1772 
L 2900 3500 
L 4019 3500 
L 4019 0 
L 2900 0 
L 2900 506 
Q 2647 200 2364 54 
Q 2081 -91 1741 -91 
Q 1134 -91 817 281 
Q 500 653 500 1363 
z
" transform="scale(0.015625)"/>
       <path id="DejaVuSans-Bold-74" d="M 1759 4494 
L 1759 3500 
L 2913 3500 
L 2913 2700 
L 1759 2700 
L 1759 1216 
Q 1759 972 1856 886 
Q 1953 800 2241 800 
L 2816 800 
L 2816 0 
L 1856 0 
Q 1194 0 917 276 
Q 641 553 641 1216 
L 641 2700 
L 84 2700 
L 84 3500 
L 641 3500 
L 641 4494 
L 1759 4494 
z
" transform="scale(0.015625)"/>
       <path id="DejaVuSans-Bold-6c" d="M 538 4863 
L 1656 4863 
L 1656 0 
L 538 0 
L 538 4863 
z
" transform="scale(0.015625)"/>
      </defs>
      <use xlink:href="#DejaVuSans-Bold-4e"/>
      <use xlink:href="#DejaVuSans-Bold-65" x="83.691406"/>
      <use xlink:href="#DejaVuSans-Bold-75" x="151.513672"/>
      <use xlink:href="#DejaVuSans-Bold-74" x="222.705078"/>
      <use xlink:href="#DejaVuSans-Bold-72" x="270.507812"/>
      <use xlink:href="#DejaVuSans-Bold-61" x="319.824219"/>
      <use xlink:href="#DejaVuSans-Bold-6c" x="387.304688"/>
     </g>
    </g>
    <g id="PathCollection_11">
     <g>
      <use xlink:href="#m10a6202e28" x="345.1825" y="339.953438" style="fill: #ff7f0e; stroke: #ff7f0e"/>
     </g>
    </g>
    <g id="text_19">
     <!-- Sadness -->
     <g transform="translate(363.1825 342.578438) scale(0.1 -0.1)">
      <defs>
       <path id="DejaVuSans-Bold-53" d="M 3834 4519 
L 3834 3531 
Q 3450 3703 3084 3790 
Q 2719 3878 2394 3878 
Q 1963 3878 1756 3759 
Q 1550 3641 1550 3391 
Q 1550 3203 1689 3098 
Q 1828 2994 2194 2919 
L 2706 2816 
Q 3484 2659 3812 2340 
Q 4141 2022 4141 1434 
Q 4141 663 3683 286 
Q 3225 -91 2284 -91 
Q 1841 -91 1394 -6 
Q 947 78 500 244 
L 500 1259 
Q 947 1022 1364 901 
Q 1781 781 2169 781 
Q 2563 781 2772 912 
Q 2981 1044 2981 1288 
Q 2981 1506 2839 1625 
Q 2697 1744 2272 1838 
L 1806 1941 
Q 1106 2091 782 2419 
Q 459 2747 459 3303 
Q 459 4000 909 4375 
Q 1359 4750 2203 4750 
Q 2588 4750 2994 4692 
Q 3400 4634 3834 4519 
z
" transform="scale(0.015625)"/>
       <path id="DejaVuSans-Bold-64" d="M 2919 2988 
L 2919 4863 
L 4044 4863 
L 4044 0 
L 2919 0 
L 2919 506 
Q 2688 197 2409 53 
Q 2131 -91 1766 -91 
Q 1119 -91 703 423 
Q 288 938 288 1747 
Q 288 2556 703 3070 
Q 1119 3584 1766 3584 
Q 2128 3584 2408 3439 
Q 2688 3294 2919 2988 
z
M 2181 722 
Q 2541 722 2730 984 
Q 2919 1247 2919 1747 
Q 2919 2247 2730 2509 
Q 2541 2772 2181 2772 
Q 1825 2772 1636 2509 
Q 1447 2247 1447 1747 
Q 1447 1247 1636 984 
Q 1825 722 2181 722 
z
" transform="scale(0.015625)"/>
       <path id="DejaVuSans-Bold-73" d="M 3272 3391 
L 3272 2541 
Q 2913 2691 2578 2766 
Q 2244 2841 1947 2841 
Q 1628 2841 1473 2761 
Q 1319 2681 1319 2516 
Q 1319 2381 1436 2309 
Q 1553 2238 1856 2203 
L 2053 2175 
Q 2913 2066 3209 1816 
Q 3506 1566 3506 1031 
Q 3506 472 3093 190 
Q 2681 -91 1863 -91 
Q 1516 -91 1145 -36 
Q 775 19 384 128 
L 384 978 
Q 719 816 1070 734 
Q 1422 653 1784 653 
Q 2113 653 2278 743 
Q 2444 834 2444 1013 
Q 2444 1163 2330 1236 
Q 2216 1309 1875 1350 
L 1678 1375 
Q 931 1469 631 1722 
Q 331 1975 331 2491 
Q 331 3047 712 3315 
Q 1094 3584 1881 3584 
Q 2191 3584 2531 3537 
Q 2872 3491 3272 3391 
z
" transform="scale(0.015625)"/>
      </defs>
      <use xlink:href="#DejaVuSans-Bold-53"/>
      <use xlink:href="#DejaVuSans-Bold-61" x="72.021484"/>
      <use xlink:href="#DejaVuSans-Bold-64" x="139.501953"/>
      <use xlink:href="#DejaVuSans-Bold-6e" x="211.083984"/>
      <use xlink:href="#DejaVuSans-Bold-65" x="282.275391"/>
      <use xlink:href="#DejaVuSans-Bold-73" x="350.097656"/>
      <use xlink:href="#DejaVuSans-Bold-73" x="409.619141"/>
     </g>
    </g>
    <g id="line2d_54">
     <path d="M 335.1825 353.756562 
L 345.1825 353.756562 
L 355.1825 353.756562 
" style="fill: none; stroke-dasharray: 7.4,3.2; stroke-dashoffset: 0; stroke: #000000; stroke-width: 2"/>
    </g>
    <g id="text_20">
     <!-- Dividing line -->
     <g transform="translate(363.1825 357.256562) scale(0.1 -0.1)">
      <defs>
       <path id="DejaVuSans-Bold-44" d="M 1791 3756 
L 1791 909 
L 2222 909 
Q 2959 909 3348 1275 
Q 3738 1641 3738 2338 
Q 3738 3031 3350 3393 
Q 2963 3756 2222 3756 
L 1791 3756 
z
M 588 4666 
L 1856 4666 
Q 2919 4666 3439 4514 
Q 3959 4363 4331 4000 
Q 4659 3684 4818 3271 
Q 4978 2859 4978 2338 
Q 4978 1809 4818 1395 
Q 4659 981 4331 666 
Q 3956 303 3431 151 
Q 2906 0 1856 0 
L 588 0 
L 588 4666 
z
" transform="scale(0.015625)"/>
       <path id="DejaVuSans-Bold-69" d="M 538 3500 
L 1656 3500 
L 1656 0 
L 538 0 
L 538 3500 
z
M 538 4863 
L 1656 4863 
L 1656 3950 
L 538 3950 
L 538 4863 
z
" transform="scale(0.015625)"/>
       <path id="DejaVuSans-Bold-76" d="M 97 3500 
L 1216 3500 
L 2088 1081 
L 2956 3500 
L 4078 3500 
L 2700 0 
L 1472 0 
L 97 3500 
z
" transform="scale(0.015625)"/>
       <path id="DejaVuSans-Bold-20" transform="scale(0.015625)"/>
      </defs>
      <use xlink:href="#DejaVuSans-Bold-44"/>
      <use xlink:href="#DejaVuSans-Bold-69" x="83.007812"/>
      <use xlink:href="#DejaVuSans-Bold-76" x="117.285156"/>
      <use xlink:href="#DejaVuSans-Bold-69" x="182.470703"/>
      <use xlink:href="#DejaVuSans-Bold-64" x="216.748047"/>
      <use xlink:href="#DejaVuSans-Bold-69" x="288.330078"/>
      <use xlink:href="#DejaVuSans-Bold-6e" x="322.607422"/>
      <use xlink:href="#DejaVuSans-Bold-67" x="393.798828"/>
      <use xlink:href="#DejaVuSans-Bold-20" x="465.380859"/>
      <use xlink:href="#DejaVuSans-Bold-6c" x="500.195312"/>
      <use xlink:href="#DejaVuSans-Bold-69" x="534.472656"/>
      <use xlink:href="#DejaVuSans-Bold-6e" x="568.75"/>
      <use xlink:href="#DejaVuSans-Bold-65" x="639.941406"/>
     </g>
    </g>
   </g>
  </g>
 </g>
 <defs>
  <clipPath id="p709f2b2077">
   <rect x="47.527812" y="7.2" width="502.2" height="277.2"/>
  </clipPath>
 </defs>
</svg>
