<?xml version="1.0" encoding="utf-8" standalone="no"?>
<!DOCTYPE svg PUBLIC "-//W3C//DTD SVG 1.1//EN"
  "http://www.w3.org/Graphics/SVG/1.1/DTD/svg11.dtd">
<svg xmlns:xlink="http://www.w3.org/1999/xlink" width="569.715625pt" height="282.456094pt" viewBox="0 0 569.715625 282.456094" xmlns="http://www.w3.org/2000/svg" version="1.1">
 <metadata>
  <rdf:RDF xmlns:dc="http://purl.org/dc/elements/1.1/" xmlns:cc="http://creativecommons.org/ns#" xmlns:rdf="http://www.w3.org/1999/02/22-rdf-syntax-ns#">
   <cc:Work>
    <dc:type rdf:resource="http://purl.org/dc/dcmitype/StillImage"/>
    <dc:date>2023-08-17T13:41:26.119570</dc:date>
    <dc:format>image/svg+xml</dc:format>
    <dc:creator>
     <cc:Agent>
      <dc:title>Matplotlib v3.7.1, https://matplotlib.org/</dc:title>
     </cc:Agent>
    </dc:creator>
   </cc:Work>
  </rdf:RDF>
 </metadata>
 <defs>
  <style type="text/css">*{stroke-linejoin: round; stroke-linecap: butt}</style>
 </defs>
 <g id="figure_1">
  <g id="patch_1">
   <path d="M 0 282.456094 
L 569.715625 282.456094 
L 569.715625 0 
L 0 0 
z
" style="fill: #ffffff"/>
  </g>
  <g id="axes_1">
   <g id="patch_2">
    <path d="M 54.485625 243.111219 
L 562.515625 243.111219 
L 562.515625 10.999219 
L 54.485625 10.999219 
z
" style="fill: #ffffff"/>
   </g>
   <g id="matplotlib.axis_1">
    <g id="xtick_1">
     <g id="line2d_1">
      <defs>
       <path id="m6b2d69c799" d="M 0 0 
L 0 3.5 
" style="stroke: #000000; stroke-width: 0.8"/>
      </defs>
      <g>
       <use xlink:href="#m6b2d69c799" x="100.67017" y="243.111219" style="stroke: #000000; stroke-width: 0.8"/>
      </g>
     </g>
     <g id="text_1">
      <!-- Sunny (the Sun is  -->
      <g transform="translate(38.827045 259.229344) scale(0.12 -0.12)">
       <defs>
        <path id="DejaVuSans-Bold-53" d="M 3834 4519 
L 3834 3531 
Q 3450 3703 3084 3790 
Q 2719 3878 2394 3878 
Q 1963 3878 1756 3759 
Q 1550 3641 1550 3391 
Q 1550 3203 1689 3098 
Q 1828 2994 2194 2919 
L 2706 2816 
Q 3484 2659 3812 2340 
Q 4141 2022 4141 1434 
Q 4141 663 3683 286 
Q 3225 -91 2284 -91 
Q 1841 -91 1394 -6 
Q 947 78 500 244 
L 500 1259 
Q 947 1022 1364 901 
Q 1781 781 2169 781 
Q 2563 781 2772 912 
Q 2981 1044 2981 1288 
Q 2981 1506 2839 1625 
Q 2697 1744 2272 1838 
L 1806 1941 
Q 1106 2091 782 2419 
Q 459 2747 459 3303 
Q 459 4000 909 4375 
Q 1359 4750 2203 4750 
Q 2588 4750 2994 4692 
Q 3400 4634 3834 4519 
z
" transform="scale(0.015625)"/>
        <path id="DejaVuSans-Bold-75" d="M 500 1363 
L 500 3500 
L 1625 3500 
L 1625 3150 
Q 1625 2866 1622 2436 
Q 1619 2006 1619 1863 
Q 1619 1441 1641 1255 
Q 1663 1069 1716 984 
Q 1784 875 1895 815 
Q 2006 756 2150 756 
Q 2500 756 2700 1025 
Q 2900 1294 2900 1772 
L 2900 3500 
L 4019 3500 
L 4019 0 
L 2900 0 
L 2900 506 
Q 2647 200 2364 54 
Q 2081 -91 1741 -91 
Q 1134 -91 817 281 
Q 500 653 500 1363 
z
" transform="scale(0.015625)"/>
        <path id="DejaVuSans-Bold-6e" d="M 4056 2131 
L 4056 0 
L 2931 0 
L 2931 347 
L 2931 1631 
Q 2931 2084 2911 2256 
Q 2891 2428 2841 2509 
Q 2775 2619 2662 2680 
Q 2550 2741 2406 2741 
Q 2056 2741 1856 2470 
Q 1656 2200 1656 1722 
L 1656 0 
L 538 0 
L 538 3500 
L 1656 3500 
L 1656 2988 
Q 1909 3294 2193 3439 
Q 2478 3584 2822 3584 
Q 3428 3584 3742 3212 
Q 4056 2841 4056 2131 
z
" transform="scale(0.015625)"/>
        <path id="DejaVuSans-Bold-79" d="M 78 3500 
L 1197 3500 
L 2138 1125 
L 2938 3500 
L 4056 3500 
L 2584 -331 
Q 2363 -916 2067 -1148 
Q 1772 -1381 1288 -1381 
L 641 -1381 
L 641 -647 
L 991 -647 
Q 1275 -647 1404 -556 
Q 1534 -466 1606 -231 
L 1638 -134 
L 78 3500 
z
" transform="scale(0.015625)"/>
        <path id="DejaVuSans-Bold-20" transform="scale(0.015625)"/>
        <path id="DejaVuSans-Bold-28" d="M 2413 -844 
L 1484 -844 
Q 1006 -72 778 623 
Q 550 1319 550 2003 
Q 550 2688 779 3389 
Q 1009 4091 1484 4856 
L 2413 4856 
Q 2013 4116 1813 3408 
Q 1613 2700 1613 2009 
Q 1613 1319 1811 609 
Q 2009 -100 2413 -844 
z
" transform="scale(0.015625)"/>
        <path id="DejaVuSans-Bold-74" d="M 1759 4494 
L 1759 3500 
L 2913 3500 
L 2913 2700 
L 1759 2700 
L 1759 1216 
Q 1759 972 1856 886 
Q 1953 800 2241 800 
L 2816 800 
L 2816 0 
L 1856 0 
Q 1194 0 917 276 
Q 641 553 641 1216 
L 641 2700 
L 84 2700 
L 84 3500 
L 641 3500 
L 641 4494 
L 1759 4494 
z
" transform="scale(0.015625)"/>
        <path id="DejaVuSans-Bold-68" d="M 4056 2131 
L 4056 0 
L 2931 0 
L 2931 347 
L 2931 1625 
Q 2931 2084 2911 2256 
Q 2891 2428 2841 2509 
Q 2775 2619 2662 2680 
Q 2550 2741 2406 2741 
Q 2056 2741 1856 2470 
Q 1656 2200 1656 1722 
L 1656 0 
L 538 0 
L 538 4863 
L 1656 4863 
L 1656 2988 
Q 1909 3294 2193 3439 
Q 2478 3584 2822 3584 
Q 3428 3584 3742 3212 
Q 4056 2841 4056 2131 
z
" transform="scale(0.015625)"/>
        <path id="DejaVuSans-Bold-65" d="M 4031 1759 
L 4031 1441 
L 1416 1441 
Q 1456 1047 1700 850 
Q 1944 653 2381 653 
Q 2734 653 3104 758 
Q 3475 863 3866 1075 
L 3866 213 
Q 3469 63 3072 -14 
Q 2675 -91 2278 -91 
Q 1328 -91 801 392 
Q 275 875 275 1747 
Q 275 2603 792 3093 
Q 1309 3584 2216 3584 
Q 3041 3584 3536 3087 
Q 4031 2591 4031 1759 
z
M 2881 2131 
Q 2881 2450 2695 2645 
Q 2509 2841 2209 2841 
Q 1884 2841 1681 2658 
Q 1478 2475 1428 2131 
L 2881 2131 
z
" transform="scale(0.015625)"/>
        <path id="DejaVuSans-Bold-69" d="M 538 3500 
L 1656 3500 
L 1656 0 
L 538 0 
L 538 3500 
z
M 538 4863 
L 1656 4863 
L 1656 3950 
L 538 3950 
L 538 4863 
z
" transform="scale(0.015625)"/>
        <path id="DejaVuSans-Bold-73" d="M 3272 3391 
L 3272 2541 
Q 2913 2691 2578 2766 
Q 2244 2841 1947 2841 
Q 1628 2841 1473 2761 
Q 1319 2681 1319 2516 
Q 1319 2381 1436 2309 
Q 1553 2238 1856 2203 
L 2053 2175 
Q 2913 2066 3209 1816 
Q 3506 1566 3506 1031 
Q 3506 472 3093 190 
Q 2681 -91 1863 -91 
Q 1516 -91 1145 -36 
Q 775 19 384 128 
L 384 978 
Q 719 816 1070 734 
Q 1422 653 1784 653 
Q 2113 653 2278 743 
Q 2444 834 2444 1013 
Q 2444 1163 2330 1236 
Q 2216 1309 1875 1350 
L 1678 1375 
Q 931 1469 631 1722 
Q 331 1975 331 2491 
Q 331 3047 712 3315 
Q 1094 3584 1881 3584 
Q 2191 3584 2531 3537 
Q 2872 3491 3272 3391 
z
" transform="scale(0.015625)"/>
       </defs>
       <use xlink:href="#DejaVuSans-Bold-53"/>
       <use xlink:href="#DejaVuSans-Bold-75" x="72.021484"/>
       <use xlink:href="#DejaVuSans-Bold-6e" x="143.212891"/>
       <use xlink:href="#DejaVuSans-Bold-6e" x="214.404297"/>
       <use xlink:href="#DejaVuSans-Bold-79" x="285.595703"/>
       <use xlink:href="#DejaVuSans-Bold-20" x="350.78125"/>
       <use xlink:href="#DejaVuSans-Bold-28" x="385.595703"/>
       <use xlink:href="#DejaVuSans-Bold-74" x="431.298828"/>
       <use xlink:href="#DejaVuSans-Bold-68" x="479.101562"/>
       <use xlink:href="#DejaVuSans-Bold-65" x="550.292969"/>
       <use xlink:href="#DejaVuSans-Bold-20" x="618.115234"/>
       <use xlink:href="#DejaVuSans-Bold-53" x="652.929688"/>
       <use xlink:href="#DejaVuSans-Bold-75" x="724.951172"/>
       <use xlink:href="#DejaVuSans-Bold-6e" x="796.142578"/>
       <use xlink:href="#DejaVuSans-Bold-20" x="867.333984"/>
       <use xlink:href="#DejaVuSans-Bold-69" x="902.148438"/>
       <use xlink:href="#DejaVuSans-Bold-73" x="936.425781"/>
       <use xlink:href="#DejaVuSans-Bold-20" x="995.947266"/>
      </g>
      <!--  at its zenith) -->
      <g transform="translate(55.22017 272.760469) scale(0.12 -0.12)">
       <defs>
        <path id="DejaVuSans-Bold-61" d="M 2106 1575 
Q 1756 1575 1579 1456 
Q 1403 1338 1403 1106 
Q 1403 894 1545 773 
Q 1688 653 1941 653 
Q 2256 653 2472 879 
Q 2688 1106 2688 1447 
L 2688 1575 
L 2106 1575 
z
M 3816 1997 
L 3816 0 
L 2688 0 
L 2688 519 
Q 2463 200 2181 54 
Q 1900 -91 1497 -91 
Q 953 -91 614 226 
Q 275 544 275 1050 
Q 275 1666 698 1953 
Q 1122 2241 2028 2241 
L 2688 2241 
L 2688 2328 
Q 2688 2594 2478 2717 
Q 2269 2841 1825 2841 
Q 1466 2841 1156 2769 
Q 847 2697 581 2553 
L 581 3406 
Q 941 3494 1303 3539 
Q 1666 3584 2028 3584 
Q 2975 3584 3395 3211 
Q 3816 2838 3816 1997 
z
" transform="scale(0.015625)"/>
        <path id="DejaVuSans-Bold-7a" d="M 366 3500 
L 3419 3500 
L 3419 2719 
L 1575 800 
L 3419 800 
L 3419 0 
L 288 0 
L 288 781 
L 2131 2700 
L 366 2700 
L 366 3500 
z
" transform="scale(0.015625)"/>
        <path id="DejaVuSans-Bold-29" d="M 513 -844 
Q 913 -100 1113 609 
Q 1313 1319 1313 2009 
Q 1313 2700 1113 3408 
Q 913 4116 513 4856 
L 1441 4856 
Q 1916 4091 2145 3389 
Q 2375 2688 2375 2003 
Q 2375 1319 2147 623 
Q 1919 -72 1441 -844 
L 513 -844 
z
" transform="scale(0.015625)"/>
       </defs>
       <use xlink:href="#DejaVuSans-Bold-20"/>
       <use xlink:href="#DejaVuSans-Bold-61" x="34.814453"/>
       <use xlink:href="#DejaVuSans-Bold-74" x="102.294922"/>
       <use xlink:href="#DejaVuSans-Bold-20" x="150.097656"/>
       <use xlink:href="#DejaVuSans-Bold-69" x="184.912109"/>
       <use xlink:href="#DejaVuSans-Bold-74" x="219.189453"/>
       <use xlink:href="#DejaVuSans-Bold-73" x="266.992188"/>
       <use xlink:href="#DejaVuSans-Bold-20" x="326.513672"/>
       <use xlink:href="#DejaVuSans-Bold-7a" x="361.328125"/>
       <use xlink:href="#DejaVuSans-Bold-65" x="419.53125"/>
       <use xlink:href="#DejaVuSans-Bold-6e" x="487.353516"/>
       <use xlink:href="#DejaVuSans-Bold-69" x="558.544922"/>
       <use xlink:href="#DejaVuSans-Bold-74" x="592.822266"/>
       <use xlink:href="#DejaVuSans-Bold-68" x="640.625"/>
       <use xlink:href="#DejaVuSans-Bold-29" x="711.816406"/>
      </g>
     </g>
    </g>
    <g id="xtick_2">
     <g id="line2d_2">
      <g>
       <use xlink:href="#m6b2d69c799" x="285.408352" y="243.111219" style="stroke: #000000; stroke-width: 0.8"/>
      </g>
     </g>
     <g id="text_2">
      <!-- Cloudy -->
      <g transform="translate(262.348665 259.229344) scale(0.12 -0.12)">
       <defs>
        <path id="DejaVuSans-Bold-43" d="M 4288 256 
Q 3956 84 3597 -3 
Q 3238 -91 2847 -91 
Q 1681 -91 1000 561 
Q 319 1213 319 2328 
Q 319 3447 1000 4098 
Q 1681 4750 2847 4750 
Q 3238 4750 3597 4662 
Q 3956 4575 4288 4403 
L 4288 3438 
Q 3953 3666 3628 3772 
Q 3303 3878 2944 3878 
Q 2300 3878 1931 3465 
Q 1563 3053 1563 2328 
Q 1563 1606 1931 1193 
Q 2300 781 2944 781 
Q 3303 781 3628 887 
Q 3953 994 4288 1222 
L 4288 256 
z
" transform="scale(0.015625)"/>
        <path id="DejaVuSans-Bold-6c" d="M 538 4863 
L 1656 4863 
L 1656 0 
L 538 0 
L 538 4863 
z
" transform="scale(0.015625)"/>
        <path id="DejaVuSans-Bold-6f" d="M 2203 2784 
Q 1831 2784 1636 2517 
Q 1441 2250 1441 1747 
Q 1441 1244 1636 976 
Q 1831 709 2203 709 
Q 2569 709 2762 976 
Q 2956 1244 2956 1747 
Q 2956 2250 2762 2517 
Q 2569 2784 2203 2784 
z
M 2203 3584 
Q 3106 3584 3614 3096 
Q 4122 2609 4122 1747 
Q 4122 884 3614 396 
Q 3106 -91 2203 -91 
Q 1297 -91 786 396 
Q 275 884 275 1747 
Q 275 2609 786 3096 
Q 1297 3584 2203 3584 
z
" transform="scale(0.015625)"/>
        <path id="DejaVuSans-Bold-64" d="M 2919 2988 
L 2919 4863 
L 4044 4863 
L 4044 0 
L 2919 0 
L 2919 506 
Q 2688 197 2409 53 
Q 2131 -91 1766 -91 
Q 1119 -91 703 423 
Q 288 938 288 1747 
Q 288 2556 703 3070 
Q 1119 3584 1766 3584 
Q 2128 3584 2408 3439 
Q 2688 3294 2919 2988 
z
M 2181 722 
Q 2541 722 2730 984 
Q 2919 1247 2919 1747 
Q 2919 2247 2730 2509 
Q 2541 2772 2181 2772 
Q 1825 2772 1636 2509 
Q 1447 2247 1447 1747 
Q 1447 1247 1636 984 
Q 1825 722 2181 722 
z
" transform="scale(0.015625)"/>
       </defs>
       <use xlink:href="#DejaVuSans-Bold-43"/>
       <use xlink:href="#DejaVuSans-Bold-6c" x="73.388672"/>
       <use xlink:href="#DejaVuSans-Bold-6f" x="107.666016"/>
       <use xlink:href="#DejaVuSans-Bold-75" x="176.367188"/>
       <use xlink:href="#DejaVuSans-Bold-64" x="247.558594"/>
       <use xlink:href="#DejaVuSans-Bold-79" x="319.140625"/>
      </g>
     </g>
    </g>
    <g id="xtick_3">
     <g id="line2d_3">
      <g>
       <use xlink:href="#m6b2d69c799" x="470.146534" y="243.111219" style="stroke: #000000; stroke-width: 0.8"/>
      </g>
     </g>
     <g id="text_3">
      <!-- Sunny (high shade) -->
      <g transform="translate(404.289034 259.229344) scale(0.12 -0.12)">
       <defs>
        <path id="DejaVuSans-Bold-67" d="M 2919 594 
Q 2688 288 2409 144 
Q 2131 0 1766 0 
Q 1125 0 706 504 
Q 288 1009 288 1791 
Q 288 2575 706 3076 
Q 1125 3578 1766 3578 
Q 2131 3578 2409 3434 
Q 2688 3291 2919 2981 
L 2919 3500 
L 4044 3500 
L 4044 353 
Q 4044 -491 3511 -936 
Q 2978 -1381 1966 -1381 
Q 1638 -1381 1331 -1331 
Q 1025 -1281 716 -1178 
L 716 -306 
Q 1009 -475 1290 -558 
Q 1572 -641 1856 -641 
Q 2406 -641 2662 -400 
Q 2919 -159 2919 353 
L 2919 594 
z
M 2181 2772 
Q 1834 2772 1640 2515 
Q 1447 2259 1447 1791 
Q 1447 1309 1634 1061 
Q 1822 813 2181 813 
Q 2531 813 2725 1069 
Q 2919 1325 2919 1791 
Q 2919 2259 2725 2515 
Q 2531 2772 2181 2772 
z
" transform="scale(0.015625)"/>
       </defs>
       <use xlink:href="#DejaVuSans-Bold-53"/>
       <use xlink:href="#DejaVuSans-Bold-75" x="72.021484"/>
       <use xlink:href="#DejaVuSans-Bold-6e" x="143.212891"/>
       <use xlink:href="#DejaVuSans-Bold-6e" x="214.404297"/>
       <use xlink:href="#DejaVuSans-Bold-79" x="285.595703"/>
       <use xlink:href="#DejaVuSans-Bold-20" x="350.78125"/>
       <use xlink:href="#DejaVuSans-Bold-28" x="385.595703"/>
       <use xlink:href="#DejaVuSans-Bold-68" x="431.298828"/>
       <use xlink:href="#DejaVuSans-Bold-69" x="502.490234"/>
       <use xlink:href="#DejaVuSans-Bold-67" x="536.767578"/>
       <use xlink:href="#DejaVuSans-Bold-68" x="608.349609"/>
       <use xlink:href="#DejaVuSans-Bold-20" x="679.541016"/>
       <use xlink:href="#DejaVuSans-Bold-73" x="714.355469"/>
       <use xlink:href="#DejaVuSans-Bold-68" x="773.876953"/>
       <use xlink:href="#DejaVuSans-Bold-61" x="845.068359"/>
       <use xlink:href="#DejaVuSans-Bold-64" x="912.548828"/>
       <use xlink:href="#DejaVuSans-Bold-65" x="984.130859"/>
       <use xlink:href="#DejaVuSans-Bold-29" x="1051.953125"/>
      </g>
     </g>
    </g>
   </g>
   <g id="matplotlib.axis_2">
    <g id="ytick_1">
     <g id="line2d_4">
      <path d="M 54.485625 243.111219 
L 562.515625 243.111219 
" clip-path="url(#pb9b8408e1c)" style="fill: none; stroke-dasharray: 2.59,1.12; stroke-dashoffset: 0; stroke: #b0b0b0; stroke-opacity: 0.6; stroke-width: 0.7"/>
     </g>
     <g id="line2d_5">
      <defs>
       <path id="m33cc9f9eb6" d="M 0 0 
L -3.5 0 
" style="stroke: #000000; stroke-width: 0.8"/>
      </defs>
      <g>
       <use xlink:href="#m33cc9f9eb6" x="54.485625" y="243.111219" style="stroke: #000000; stroke-width: 0.8"/>
      </g>
     </g>
     <g id="text_4">
      <!-- 0.05 -->
      <g transform="translate(22.81375 246.910438) scale(0.1 -0.1)">
       <defs>
        <path id="DejaVuSans-Bold-30" d="M 2944 2338 
Q 2944 3213 2780 3570 
Q 2616 3928 2228 3928 
Q 1841 3928 1675 3570 
Q 1509 3213 1509 2338 
Q 1509 1453 1675 1090 
Q 1841 728 2228 728 
Q 2613 728 2778 1090 
Q 2944 1453 2944 2338 
z
M 4147 2328 
Q 4147 1169 3647 539 
Q 3147 -91 2228 -91 
Q 1306 -91 806 539 
Q 306 1169 306 2328 
Q 306 3491 806 4120 
Q 1306 4750 2228 4750 
Q 3147 4750 3647 4120 
Q 4147 3491 4147 2328 
z
" transform="scale(0.015625)"/>
        <path id="DejaVuSans-Bold-2e" d="M 653 1209 
L 1778 1209 
L 1778 0 
L 653 0 
L 653 1209 
z
" transform="scale(0.015625)"/>
        <path id="DejaVuSans-Bold-35" d="M 678 4666 
L 3669 4666 
L 3669 3781 
L 1638 3781 
L 1638 3059 
Q 1775 3097 1914 3117 
Q 2053 3138 2203 3138 
Q 3056 3138 3531 2711 
Q 4006 2284 4006 1522 
Q 4006 766 3489 337 
Q 2972 -91 2053 -91 
Q 1656 -91 1267 -14 
Q 878 63 494 219 
L 494 1166 
Q 875 947 1217 837 
Q 1559 728 1863 728 
Q 2300 728 2551 942 
Q 2803 1156 2803 1522 
Q 2803 1891 2551 2103 
Q 2300 2316 1863 2316 
Q 1603 2316 1309 2248 
Q 1016 2181 678 2041 
L 678 4666 
z
" transform="scale(0.015625)"/>
       </defs>
       <use xlink:href="#DejaVuSans-Bold-30"/>
       <use xlink:href="#DejaVuSans-Bold-2e" x="69.580078"/>
       <use xlink:href="#DejaVuSans-Bold-30" x="107.568359"/>
       <use xlink:href="#DejaVuSans-Bold-35" x="177.148438"/>
      </g>
     </g>
    </g>
    <g id="ytick_2">
     <g id="line2d_6">
      <path d="M 54.485625 196.688819 
L 562.515625 196.688819 
" clip-path="url(#pb9b8408e1c)" style="fill: none; stroke-dasharray: 2.59,1.12; stroke-dashoffset: 0; stroke: #b0b0b0; stroke-opacity: 0.6; stroke-width: 0.7"/>
     </g>
     <g id="line2d_7">
      <g>
       <use xlink:href="#m33cc9f9eb6" x="54.485625" y="196.688819" style="stroke: #000000; stroke-width: 0.8"/>
      </g>
     </g>
     <g id="text_5">
      <!-- 0.10 -->
      <g transform="translate(22.81375 200.488038) scale(0.1 -0.1)">
       <defs>
        <path id="DejaVuSans-Bold-31" d="M 750 831 
L 1813 831 
L 1813 3847 
L 722 3622 
L 722 4441 
L 1806 4666 
L 2950 4666 
L 2950 831 
L 4013 831 
L 4013 0 
L 750 0 
L 750 831 
z
" transform="scale(0.015625)"/>
       </defs>
       <use xlink:href="#DejaVuSans-Bold-30"/>
       <use xlink:href="#DejaVuSans-Bold-2e" x="69.580078"/>
       <use xlink:href="#DejaVuSans-Bold-31" x="107.568359"/>
       <use xlink:href="#DejaVuSans-Bold-30" x="177.148438"/>
      </g>
     </g>
    </g>
    <g id="ytick_3">
     <g id="line2d_8">
      <path d="M 54.485625 150.266419 
L 562.515625 150.266419 
" clip-path="url(#pb9b8408e1c)" style="fill: none; stroke-dasharray: 2.59,1.12; stroke-dashoffset: 0; stroke: #b0b0b0; stroke-opacity: 0.6; stroke-width: 0.7"/>
     </g>
     <g id="line2d_9">
      <g>
       <use xlink:href="#m33cc9f9eb6" x="54.485625" y="150.266419" style="stroke: #000000; stroke-width: 0.8"/>
      </g>
     </g>
     <g id="text_6">
      <!-- 0.15 -->
      <g transform="translate(22.81375 154.065638) scale(0.1 -0.1)">
       <use xlink:href="#DejaVuSans-Bold-30"/>
       <use xlink:href="#DejaVuSans-Bold-2e" x="69.580078"/>
       <use xlink:href="#DejaVuSans-Bold-31" x="107.568359"/>
       <use xlink:href="#DejaVuSans-Bold-35" x="177.148438"/>
      </g>
     </g>
    </g>
    <g id="ytick_4">
     <g id="line2d_10">
      <path d="M 54.485625 103.844019 
L 562.515625 103.844019 
" clip-path="url(#pb9b8408e1c)" style="fill: none; stroke-dasharray: 2.59,1.12; stroke-dashoffset: 0; stroke: #b0b0b0; stroke-opacity: 0.6; stroke-width: 0.7"/>
     </g>
     <g id="line2d_11">
      <g>
       <use xlink:href="#m33cc9f9eb6" x="54.485625" y="103.844019" style="stroke: #000000; stroke-width: 0.8"/>
      </g>
     </g>
     <g id="text_7">
      <!-- 0.20 -->
      <g transform="translate(22.81375 107.643238) scale(0.1 -0.1)">
       <defs>
        <path id="DejaVuSans-Bold-32" d="M 1844 884 
L 3897 884 
L 3897 0 
L 506 0 
L 506 884 
L 2209 2388 
Q 2438 2594 2547 2791 
Q 2656 2988 2656 3200 
Q 2656 3528 2436 3728 
Q 2216 3928 1850 3928 
Q 1569 3928 1234 3808 
Q 900 3688 519 3450 
L 519 4475 
Q 925 4609 1322 4679 
Q 1719 4750 2100 4750 
Q 2938 4750 3402 4381 
Q 3866 4013 3866 3353 
Q 3866 2972 3669 2642 
Q 3472 2313 2841 1759 
L 1844 884 
z
" transform="scale(0.015625)"/>
       </defs>
       <use xlink:href="#DejaVuSans-Bold-30"/>
       <use xlink:href="#DejaVuSans-Bold-2e" x="69.580078"/>
       <use xlink:href="#DejaVuSans-Bold-32" x="107.568359"/>
       <use xlink:href="#DejaVuSans-Bold-30" x="177.148438"/>
      </g>
     </g>
    </g>
    <g id="ytick_5">
     <g id="line2d_12">
      <path d="M 54.485625 57.421619 
L 562.515625 57.421619 
" clip-path="url(#pb9b8408e1c)" style="fill: none; stroke-dasharray: 2.59,1.12; stroke-dashoffset: 0; stroke: #b0b0b0; stroke-opacity: 0.6; stroke-width: 0.7"/>
     </g>
     <g id="line2d_13">
      <g>
       <use xlink:href="#m33cc9f9eb6" x="54.485625" y="57.421619" style="stroke: #000000; stroke-width: 0.8"/>
      </g>
     </g>
     <g id="text_8">
      <!-- 0.25 -->
      <g transform="translate(22.81375 61.220838) scale(0.1 -0.1)">
       <use xlink:href="#DejaVuSans-Bold-30"/>
       <use xlink:href="#DejaVuSans-Bold-2e" x="69.580078"/>
       <use xlink:href="#DejaVuSans-Bold-32" x="107.568359"/>
       <use xlink:href="#DejaVuSans-Bold-35" x="177.148438"/>
      </g>
     </g>
    </g>
    <g id="ytick_6">
     <g id="line2d_14">
      <path d="M 54.485625 10.999219 
L 562.515625 10.999219 
" clip-path="url(#pb9b8408e1c)" style="fill: none; stroke-dasharray: 2.59,1.12; stroke-dashoffset: 0; stroke: #b0b0b0; stroke-opacity: 0.6; stroke-width: 0.7"/>
     </g>
     <g id="line2d_15">
      <g>
       <use xlink:href="#m33cc9f9eb6" x="54.485625" y="10.999219" style="stroke: #000000; stroke-width: 0.8"/>
      </g>
     </g>
     <g id="text_9">
      <!-- 0.30 -->
      <g transform="translate(22.81375 14.798438) scale(0.1 -0.1)">
       <defs>
        <path id="DejaVuSans-Bold-33" d="M 2981 2516 
Q 3453 2394 3698 2092 
Q 3944 1791 3944 1325 
Q 3944 631 3412 270 
Q 2881 -91 1863 -91 
Q 1503 -91 1142 -33 
Q 781 25 428 141 
L 428 1069 
Q 766 900 1098 814 
Q 1431 728 1753 728 
Q 2231 728 2486 893 
Q 2741 1059 2741 1369 
Q 2741 1688 2480 1852 
Q 2219 2016 1709 2016 
L 1228 2016 
L 1228 2791 
L 1734 2791 
Q 2188 2791 2409 2933 
Q 2631 3075 2631 3366 
Q 2631 3634 2415 3781 
Q 2200 3928 1806 3928 
Q 1516 3928 1219 3862 
Q 922 3797 628 3669 
L 628 4550 
Q 984 4650 1334 4700 
Q 1684 4750 2022 4750 
Q 2931 4750 3382 4451 
Q 3834 4153 3834 3553 
Q 3834 3144 3618 2883 
Q 3403 2622 2981 2516 
z
" transform="scale(0.015625)"/>
       </defs>
       <use xlink:href="#DejaVuSans-Bold-30"/>
       <use xlink:href="#DejaVuSans-Bold-2e" x="69.580078"/>
       <use xlink:href="#DejaVuSans-Bold-33" x="107.568359"/>
       <use xlink:href="#DejaVuSans-Bold-30" x="177.148438"/>
      </g>
     </g>
    </g>
    <g id="text_10">
     <!-- Values -->
     <g transform="translate(16.318125 149.386469) rotate(-90) scale(0.12 -0.12)">
      <defs>
       <path id="DejaVuSans-Bold-56" d="M 31 4666 
L 1241 4666 
L 2478 1222 
L 3713 4666 
L 4922 4666 
L 3194 0 
L 1759 0 
L 31 4666 
z
" transform="scale(0.015625)"/>
      </defs>
      <use xlink:href="#DejaVuSans-Bold-56"/>
      <use xlink:href="#DejaVuSans-Bold-61" x="71.892578"/>
      <use xlink:href="#DejaVuSans-Bold-6c" x="139.373047"/>
      <use xlink:href="#DejaVuSans-Bold-75" x="173.650391"/>
      <use xlink:href="#DejaVuSans-Bold-65" x="244.841797"/>
      <use xlink:href="#DejaVuSans-Bold-73" x="312.664062"/>
     </g>
    </g>
   </g>
   <g id="patch_3">
    <path d="M 77.577898 289.533619 
L 123.762443 289.533619 
L 123.762443 215.257779 
L 77.577898 215.257779 
z
" clip-path="url(#pb9b8408e1c)" style="fill: #fadbd8"/>
   </g>
   <g id="patch_4">
    <path d="M 262.31608 289.533619 
L 308.500625 289.533619 
L 308.500625 159.550899 
L 262.31608 159.550899 
z
" clip-path="url(#pb9b8408e1c)" style="fill: #fadbd8"/>
   </g>
   <g id="patch_5">
    <path d="M 447.054261 289.533619 
L 493.238807 289.533619 
L 493.238807 85.275059 
L 447.054261 85.275059 
z
" clip-path="url(#pb9b8408e1c)" style="fill: #fadbd8"/>
   </g>
   <g id="patch_6">
    <path d="M 123.762443 289.533619 
L 169.946989 289.533619 
L 169.946989 187.404339 
L 123.762443 187.404339 
z
" clip-path="url(#pb9b8408e1c)" style="fill: #f08080"/>
   </g>
   <g id="patch_7">
    <path d="M 308.500625 289.533619 
L 354.68517 289.533619 
L 354.68517 122.412979 
L 308.500625 122.412979 
z
" clip-path="url(#pb9b8408e1c)" style="fill: #f08080"/>
   </g>
   <g id="patch_8">
    <path d="M 493.238807 289.533619 
L 539.423352 289.533619 
L 539.423352 48.137139 
L 493.238807 48.137139 
z
" clip-path="url(#pb9b8408e1c)" style="fill: #f08080"/>
   </g>
   <g id="patch_9">
    <path d="M 54.485625 243.111219 
L 54.485625 10.999219 
" style="fill: none; stroke: #000000; stroke-width: 0.8; stroke-linejoin: miter; stroke-linecap: square"/>
   </g>
   <g id="patch_10">
    <path d="M 562.515625 243.111219 
L 562.515625 10.999219 
" style="fill: none; stroke: #000000; stroke-width: 0.8; stroke-linejoin: miter; stroke-linecap: square"/>
   </g>
   <g id="patch_11">
    <path d="M 54.485625 243.111219 
L 562.515625 243.111219 
" style="fill: none; stroke: #000000; stroke-width: 0.8; stroke-linejoin: miter; stroke-linecap: square"/>
   </g>
   <g id="patch_12">
    <path d="M 54.485625 10.999219 
L 562.515625 10.999219 
" style="fill: none; stroke: #000000; stroke-width: 0.8; stroke-linejoin: miter; stroke-linecap: square"/>
   </g>
   <g id="text_11">
    <!-- 0.08 -->
    <g transform="translate(88.334233 210.178091) scale(0.1 -0.1)">
     <defs>
      <path id="DejaVuSans-Bold-38" d="M 2228 2088 
Q 1891 2088 1709 1903 
Q 1528 1719 1528 1375 
Q 1528 1031 1709 848 
Q 1891 666 2228 666 
Q 2563 666 2741 848 
Q 2919 1031 2919 1375 
Q 2919 1722 2741 1905 
Q 2563 2088 2228 2088 
z
M 1350 2484 
Q 925 2613 709 2878 
Q 494 3144 494 3541 
Q 494 4131 934 4440 
Q 1375 4750 2228 4750 
Q 3075 4750 3515 4442 
Q 3956 4134 3956 3541 
Q 3956 3144 3739 2878 
Q 3522 2613 3097 2484 
Q 3572 2353 3814 2058 
Q 4056 1763 4056 1313 
Q 4056 619 3595 264 
Q 3134 -91 2228 -91 
Q 1319 -91 855 264 
Q 391 619 391 1313 
Q 391 1763 633 2058 
Q 875 2353 1350 2484 
z
M 1631 3419 
Q 1631 3141 1786 2991 
Q 1941 2841 2228 2841 
Q 2509 2841 2662 2991 
Q 2816 3141 2816 3419 
Q 2816 3697 2662 3845 
Q 2509 3994 2228 3994 
Q 1941 3994 1786 3844 
Q 1631 3694 1631 3419 
z
" transform="scale(0.015625)"/>
     </defs>
     <use xlink:href="#DejaVuSans-Bold-30"/>
     <use xlink:href="#DejaVuSans-Bold-2e" x="69.580078"/>
     <use xlink:href="#DejaVuSans-Bold-30" x="107.568359"/>
     <use xlink:href="#DejaVuSans-Bold-38" x="177.148438"/>
    </g>
   </g>
   <g id="text_12">
    <!-- 0.14 -->
    <g transform="translate(273.072415 154.471211) scale(0.1 -0.1)">
     <defs>
      <path id="DejaVuSans-Bold-34" d="M 2356 3675 
L 1038 1722 
L 2356 1722 
L 2356 3675 
z
M 2156 4666 
L 3494 4666 
L 3494 1722 
L 4159 1722 
L 4159 850 
L 3494 850 
L 3494 0 
L 2356 0 
L 2356 850 
L 288 850 
L 288 1881 
L 2156 4666 
z
" transform="scale(0.015625)"/>
     </defs>
     <use xlink:href="#DejaVuSans-Bold-30"/>
     <use xlink:href="#DejaVuSans-Bold-2e" x="69.580078"/>
     <use xlink:href="#DejaVuSans-Bold-31" x="107.568359"/>
     <use xlink:href="#DejaVuSans-Bold-34" x="177.148438"/>
    </g>
   </g>
   <g id="text_13">
    <!-- 0.22 -->
    <g transform="translate(457.810597 80.195371) scale(0.1 -0.1)">
     <use xlink:href="#DejaVuSans-Bold-30"/>
     <use xlink:href="#DejaVuSans-Bold-2e" x="69.580078"/>
     <use xlink:href="#DejaVuSans-Bold-32" x="107.568359"/>
     <use xlink:href="#DejaVuSans-Bold-32" x="177.148438"/>
    </g>
   </g>
   <g id="text_14">
    <!-- 0.11 -->
    <g transform="translate(134.518778 182.324651) scale(0.1 -0.1)">
     <use xlink:href="#DejaVuSans-Bold-30"/>
     <use xlink:href="#DejaVuSans-Bold-2e" x="69.580078"/>
     <use xlink:href="#DejaVuSans-Bold-31" x="107.568359"/>
     <use xlink:href="#DejaVuSans-Bold-31" x="177.148438"/>
    </g>
   </g>
   <g id="text_15">
    <!-- 0.18 -->
    <g transform="translate(319.25696 117.333291) scale(0.1 -0.1)">
     <use xlink:href="#DejaVuSans-Bold-30"/>
     <use xlink:href="#DejaVuSans-Bold-2e" x="69.580078"/>
     <use xlink:href="#DejaVuSans-Bold-31" x="107.568359"/>
     <use xlink:href="#DejaVuSans-Bold-38" x="177.148438"/>
    </g>
   </g>
   <g id="text_16">
    <!-- 0.26 -->
    <g transform="translate(503.995142 43.057451) scale(0.1 -0.1)">
     <defs>
      <path id="DejaVuSans-Bold-36" d="M 2316 2303 
Q 2000 2303 1842 2098 
Q 1684 1894 1684 1484 
Q 1684 1075 1842 870 
Q 2000 666 2316 666 
Q 2634 666 2792 870 
Q 2950 1075 2950 1484 
Q 2950 1894 2792 2098 
Q 2634 2303 2316 2303 
z
M 3803 4544 
L 3803 3681 
Q 3506 3822 3243 3889 
Q 2981 3956 2731 3956 
Q 2194 3956 1894 3657 
Q 1594 3359 1544 2772 
Q 1750 2925 1990 3001 
Q 2231 3078 2516 3078 
Q 3231 3078 3670 2659 
Q 4109 2241 4109 1563 
Q 4109 813 3618 361 
Q 3128 -91 2303 -91 
Q 1394 -91 895 523 
Q 397 1138 397 2266 
Q 397 3422 980 4083 
Q 1563 4744 2578 4744 
Q 2900 4744 3203 4694 
Q 3506 4644 3803 4544 
z
" transform="scale(0.015625)"/>
     </defs>
     <use xlink:href="#DejaVuSans-Bold-30"/>
     <use xlink:href="#DejaVuSans-Bold-2e" x="69.580078"/>
     <use xlink:href="#DejaVuSans-Bold-32" x="107.568359"/>
     <use xlink:href="#DejaVuSans-Bold-36" x="177.148438"/>
    </g>
   </g>
   <g id="legend_1">
    <g id="patch_13">
     <path d="M 233.644062 38.212969 
L 383.357187 38.212969 
Q 385.757187 38.212969 385.757187 35.812969 
L 385.757187 19.399219 
Q 385.757187 16.999219 383.357187 16.999219 
L 233.644062 16.999219 
Q 231.244062 16.999219 231.244062 19.399219 
L 231.244062 35.812969 
Q 231.244062 38.212969 233.644062 38.212969 
z
" style="fill: #ffffff; opacity: 0.8; stroke: #cccccc; stroke-linejoin: miter"/>
    </g>
    <g id="patch_14">
     <path d="M 236.044062 30.917344 
L 260.044062 30.917344 
L 260.044062 22.517344 
L 236.044062 22.517344 
z
" style="fill: #fadbd8"/>
    </g>
    <g id="text_17">
     <!-- FPR -->
     <g transform="translate(269.644062 30.917344) scale(0.12 -0.12)">
      <defs>
       <path id="DejaVuSans-Bold-46" d="M 588 4666 
L 3834 4666 
L 3834 3756 
L 1791 3756 
L 1791 2888 
L 3713 2888 
L 3713 1978 
L 1791 1978 
L 1791 0 
L 588 0 
L 588 4666 
z
" transform="scale(0.015625)"/>
       <path id="DejaVuSans-Bold-50" d="M 588 4666 
L 2584 4666 
Q 3475 4666 3951 4270 
Q 4428 3875 4428 3144 
Q 4428 2409 3951 2014 
Q 3475 1619 2584 1619 
L 1791 1619 
L 1791 0 
L 588 0 
L 588 4666 
z
M 1791 3794 
L 1791 2491 
L 2456 2491 
Q 2806 2491 2997 2661 
Q 3188 2831 3188 3144 
Q 3188 3456 2997 3625 
Q 2806 3794 2456 3794 
L 1791 3794 
z
" transform="scale(0.015625)"/>
       <path id="DejaVuSans-Bold-52" d="M 2297 2597 
Q 2675 2597 2839 2737 
Q 3003 2878 3003 3200 
Q 3003 3519 2839 3656 
Q 2675 3794 2297 3794 
L 1791 3794 
L 1791 2597 
L 2297 2597 
z
M 1791 1766 
L 1791 0 
L 588 0 
L 588 4666 
L 2425 4666 
Q 3347 4666 3776 4356 
Q 4206 4047 4206 3378 
Q 4206 2916 3982 2619 
Q 3759 2322 3309 2181 
Q 3556 2125 3751 1926 
Q 3947 1728 4147 1325 
L 4800 0 
L 3519 0 
L 2950 1159 
Q 2778 1509 2601 1637 
Q 2425 1766 2131 1766 
L 1791 1766 
z
" transform="scale(0.015625)"/>
      </defs>
      <use xlink:href="#DejaVuSans-Bold-46"/>
      <use xlink:href="#DejaVuSans-Bold-50" x="68.310547"/>
      <use xlink:href="#DejaVuSans-Bold-52" x="141.601562"/>
     </g>
    </g>
    <g id="patch_15">
     <path d="M 319.877187 30.917344 
L 343.877187 30.917344 
L 343.877187 22.517344 
L 319.877187 22.517344 
z
" style="fill: #f08080"/>
    </g>
    <g id="text_18">
     <!-- FNR -->
     <g transform="translate(353.477187 30.917344) scale(0.12 -0.12)">
      <defs>
       <path id="DejaVuSans-Bold-4e" d="M 588 4666 
L 1931 4666 
L 3628 1466 
L 3628 4666 
L 4769 4666 
L 4769 0 
L 3425 0 
L 1728 3200 
L 1728 0 
L 588 0 
L 588 4666 
z
" transform="scale(0.015625)"/>
      </defs>
      <use xlink:href="#DejaVuSans-Bold-46"/>
      <use xlink:href="#DejaVuSans-Bold-4e" x="68.310547"/>
      <use xlink:href="#DejaVuSans-Bold-52" x="152.001953"/>
     </g>
    </g>
   </g>
  </g>
 </g>
 <defs>
  <clipPath id="pb9b8408e1c">
   <rect x="54.485625" y="10.999219" width="508.03" height="232.112"/>
  </clipPath>
 </defs>
</svg>
