<?xml version="1.0" encoding="utf-8" standalone="no"?>
<!DOCTYPE svg PUBLIC "-//W3C//DTD SVG 1.1//EN"
  "http://www.w3.org/Graphics/SVG/1.1/DTD/svg11.dtd">
<svg xmlns:xlink="http://www.w3.org/1999/xlink" width="403.355625pt" height="287.025313pt" viewBox="0 0 403.355625 287.025313" xmlns="http://www.w3.org/2000/svg" version="1.1">
 <metadata>
  <rdf:RDF xmlns:dc="http://purl.org/dc/elements/1.1/" xmlns:cc="http://creativecommons.org/ns#" xmlns:rdf="http://www.w3.org/1999/02/22-rdf-syntax-ns#">
   <cc:Work>
    <dc:type rdf:resource="http://purl.org/dc/dcmitype/StillImage"/>
    <dc:date>2023-08-16T17:35:30.437849</dc:date>
    <dc:format>image/svg+xml</dc:format>
    <dc:creator>
     <cc:Agent>
      <dc:title>Matplotlib v3.7.1, https://matplotlib.org/</dc:title>
     </cc:Agent>
    </dc:creator>
   </cc:Work>
  </rdf:RDF>
 </metadata>
 <defs>
  <style type="text/css">*{stroke-linejoin: round; stroke-linecap: butt}</style>
 </defs>
 <g id="figure_1">
  <g id="patch_1">
   <path d="M -0 287.025313 
L 403.355625 287.025313 
L 403.355625 0 
L -0 0 
z
" style="fill: #ffffff"/>
  </g>
  <g id="axes_1">
   <g id="patch_2">
    <path d="M 61.355625 245.597813 
L 396.155625 245.597813 
L 396.155625 23.837813 
L 61.355625 23.837813 
z
" style="fill: #ffffff"/>
   </g>
   <g id="matplotlib.axis_1">
    <g id="xtick_1">
     <g id="line2d_1">
      <path d="M 66.078509 245.597813 
L 66.078509 23.837813 
" clip-path="url(#p96adf46011)" style="fill: none; stroke-dasharray: 1.85,0.8; stroke-dashoffset: 0; stroke: #808080; stroke-width: 0.5"/>
     </g>
     <g id="line2d_2">
      <defs>
       <path id="m30610de5e5" d="M 0 0 
L 0 3.5 
" style="stroke: #000000; stroke-width: 0.8"/>
      </defs>
      <g>
       <use xlink:href="#m30610de5e5" x="66.078509" y="245.597813" style="stroke: #000000; stroke-width: 0.8"/>
      </g>
     </g>
     <g id="text_1">
      <!-- 0 -->
      <g transform="translate(62.599603 260.19625) scale(0.1 -0.1)">
       <defs>
        <path id="DejaVuSans-Bold-30" d="M 2944 2338 
Q 2944 3213 2780 3570 
Q 2616 3928 2228 3928 
Q 1841 3928 1675 3570 
Q 1509 3213 1509 2338 
Q 1509 1453 1675 1090 
Q 1841 728 2228 728 
Q 2613 728 2778 1090 
Q 2944 1453 2944 2338 
z
M 4147 2328 
Q 4147 1169 3647 539 
Q 3147 -91 2228 -91 
Q 1306 -91 806 539 
Q 306 1169 306 2328 
Q 306 3491 806 4120 
Q 1306 4750 2228 4750 
Q 3147 4750 3647 4120 
Q 4147 3491 4147 2328 
z
" transform="scale(0.015625)"/>
       </defs>
       <use xlink:href="#DejaVuSans-Bold-30"/>
      </g>
     </g>
    </g>
    <g id="xtick_2">
     <g id="line2d_3">
      <path d="M 118.554998 245.597813 
L 118.554998 23.837813 
" clip-path="url(#p96adf46011)" style="fill: none; stroke-dasharray: 1.85,0.8; stroke-dashoffset: 0; stroke: #808080; stroke-width: 0.5"/>
     </g>
     <g id="line2d_4">
      <g>
       <use xlink:href="#m30610de5e5" x="118.554998" y="245.597813" style="stroke: #000000; stroke-width: 0.8"/>
      </g>
     </g>
     <g id="text_2">
      <!-- 5 -->
      <g transform="translate(115.076092 260.19625) scale(0.1 -0.1)">
       <defs>
        <path id="DejaVuSans-Bold-35" d="M 678 4666 
L 3669 4666 
L 3669 3781 
L 1638 3781 
L 1638 3059 
Q 1775 3097 1914 3117 
Q 2053 3138 2203 3138 
Q 3056 3138 3531 2711 
Q 4006 2284 4006 1522 
Q 4006 766 3489 337 
Q 2972 -91 2053 -91 
Q 1656 -91 1267 -14 
Q 878 63 494 219 
L 494 1166 
Q 875 947 1217 837 
Q 1559 728 1863 728 
Q 2300 728 2551 942 
Q 2803 1156 2803 1522 
Q 2803 1891 2551 2103 
Q 2300 2316 1863 2316 
Q 1603 2316 1309 2248 
Q 1016 2181 678 2041 
L 678 4666 
z
" transform="scale(0.015625)"/>
       </defs>
       <use xlink:href="#DejaVuSans-Bold-35"/>
      </g>
     </g>
    </g>
    <g id="xtick_3">
     <g id="line2d_5">
      <path d="M 171.031487 245.597813 
L 171.031487 23.837813 
" clip-path="url(#p96adf46011)" style="fill: none; stroke-dasharray: 1.85,0.8; stroke-dashoffset: 0; stroke: #808080; stroke-width: 0.5"/>
     </g>
     <g id="line2d_6">
      <g>
       <use xlink:href="#m30610de5e5" x="171.031487" y="245.597813" style="stroke: #000000; stroke-width: 0.8"/>
      </g>
     </g>
     <g id="text_3">
      <!-- 10 -->
      <g transform="translate(164.073675 260.19625) scale(0.1 -0.1)">
       <defs>
        <path id="DejaVuSans-Bold-31" d="M 750 831 
L 1813 831 
L 1813 3847 
L 722 3622 
L 722 4441 
L 1806 4666 
L 2950 4666 
L 2950 831 
L 4013 831 
L 4013 0 
L 750 0 
L 750 831 
z
" transform="scale(0.015625)"/>
       </defs>
       <use xlink:href="#DejaVuSans-Bold-31"/>
       <use xlink:href="#DejaVuSans-Bold-30" x="69.580078"/>
      </g>
     </g>
    </g>
    <g id="xtick_4">
     <g id="line2d_7">
      <path d="M 223.507976 245.597813 
L 223.507976 23.837813 
" clip-path="url(#p96adf46011)" style="fill: none; stroke-dasharray: 1.85,0.8; stroke-dashoffset: 0; stroke: #808080; stroke-width: 0.5"/>
     </g>
     <g id="line2d_8">
      <g>
       <use xlink:href="#m30610de5e5" x="223.507976" y="245.597813" style="stroke: #000000; stroke-width: 0.8"/>
      </g>
     </g>
     <g id="text_4">
      <!-- 15 -->
      <g transform="translate(216.550164 260.19625) scale(0.1 -0.1)">
       <use xlink:href="#DejaVuSans-Bold-31"/>
       <use xlink:href="#DejaVuSans-Bold-35" x="69.580078"/>
      </g>
     </g>
    </g>
    <g id="xtick_5">
     <g id="line2d_9">
      <path d="M 275.984465 245.597813 
L 275.984465 23.837813 
" clip-path="url(#p96adf46011)" style="fill: none; stroke-dasharray: 1.85,0.8; stroke-dashoffset: 0; stroke: #808080; stroke-width: 0.5"/>
     </g>
     <g id="line2d_10">
      <g>
       <use xlink:href="#m30610de5e5" x="275.984465" y="245.597813" style="stroke: #000000; stroke-width: 0.8"/>
      </g>
     </g>
     <g id="text_5">
      <!-- 20 -->
      <g transform="translate(269.026653 260.19625) scale(0.1 -0.1)">
       <defs>
        <path id="DejaVuSans-Bold-32" d="M 1844 884 
L 3897 884 
L 3897 0 
L 506 0 
L 506 884 
L 2209 2388 
Q 2438 2594 2547 2791 
Q 2656 2988 2656 3200 
Q 2656 3528 2436 3728 
Q 2216 3928 1850 3928 
Q 1569 3928 1234 3808 
Q 900 3688 519 3450 
L 519 4475 
Q 925 4609 1322 4679 
Q 1719 4750 2100 4750 
Q 2938 4750 3402 4381 
Q 3866 4013 3866 3353 
Q 3866 2972 3669 2642 
Q 3472 2313 2841 1759 
L 1844 884 
z
" transform="scale(0.015625)"/>
       </defs>
       <use xlink:href="#DejaVuSans-Bold-32"/>
       <use xlink:href="#DejaVuSans-Bold-30" x="69.580078"/>
      </g>
     </g>
    </g>
    <g id="xtick_6">
     <g id="line2d_11">
      <path d="M 328.460954 245.597813 
L 328.460954 23.837813 
" clip-path="url(#p96adf46011)" style="fill: none; stroke-dasharray: 1.85,0.8; stroke-dashoffset: 0; stroke: #808080; stroke-width: 0.5"/>
     </g>
     <g id="line2d_12">
      <g>
       <use xlink:href="#m30610de5e5" x="328.460954" y="245.597813" style="stroke: #000000; stroke-width: 0.8"/>
      </g>
     </g>
     <g id="text_6">
      <!-- 25 -->
      <g transform="translate(321.503142 260.19625) scale(0.1 -0.1)">
       <use xlink:href="#DejaVuSans-Bold-32"/>
       <use xlink:href="#DejaVuSans-Bold-35" x="69.580078"/>
      </g>
     </g>
    </g>
    <g id="xtick_7">
     <g id="line2d_13">
      <path d="M 380.937443 245.597813 
L 380.937443 23.837813 
" clip-path="url(#p96adf46011)" style="fill: none; stroke-dasharray: 1.85,0.8; stroke-dashoffset: 0; stroke: #808080; stroke-width: 0.5"/>
     </g>
     <g id="line2d_14">
      <g>
       <use xlink:href="#m30610de5e5" x="380.937443" y="245.597813" style="stroke: #000000; stroke-width: 0.8"/>
      </g>
     </g>
     <g id="text_7">
      <!-- 30 -->
      <g transform="translate(373.979631 260.19625) scale(0.1 -0.1)">
       <defs>
        <path id="DejaVuSans-Bold-33" d="M 2981 2516 
Q 3453 2394 3698 2092 
Q 3944 1791 3944 1325 
Q 3944 631 3412 270 
Q 2881 -91 1863 -91 
Q 1503 -91 1142 -33 
Q 781 25 428 141 
L 428 1069 
Q 766 900 1098 814 
Q 1431 728 1753 728 
Q 2231 728 2486 893 
Q 2741 1059 2741 1369 
Q 2741 1688 2480 1852 
Q 2219 2016 1709 2016 
L 1228 2016 
L 1228 2791 
L 1734 2791 
Q 2188 2791 2409 2933 
Q 2631 3075 2631 3366 
Q 2631 3634 2415 3781 
Q 2200 3928 1806 3928 
Q 1516 3928 1219 3862 
Q 922 3797 628 3669 
L 628 4550 
Q 984 4650 1334 4700 
Q 1684 4750 2022 4750 
Q 2931 4750 3382 4451 
Q 3834 4153 3834 3553 
Q 3834 3144 3618 2883 
Q 3403 2622 2981 2516 
z
" transform="scale(0.015625)"/>
       </defs>
       <use xlink:href="#DejaVuSans-Bold-33"/>
       <use xlink:href="#DejaVuSans-Bold-30" x="69.580078"/>
      </g>
     </g>
    </g>
    <g id="text_8">
     <!-- Number of epochs -->
     <g transform="translate(156.815312 276.91375) scale(0.14 -0.14)">
      <defs>
       <path id="DejaVuSans-Bold-4e" d="M 588 4666 
L 1931 4666 
L 3628 1466 
L 3628 4666 
L 4769 4666 
L 4769 0 
L 3425 0 
L 1728 3200 
L 1728 0 
L 588 0 
L 588 4666 
z
" transform="scale(0.015625)"/>
       <path id="DejaVuSans-Bold-75" d="M 500 1363 
L 500 3500 
L 1625 3500 
L 1625 3150 
Q 1625 2866 1622 2436 
Q 1619 2006 1619 1863 
Q 1619 1441 1641 1255 
Q 1663 1069 1716 984 
Q 1784 875 1895 815 
Q 2006 756 2150 756 
Q 2500 756 2700 1025 
Q 2900 1294 2900 1772 
L 2900 3500 
L 4019 3500 
L 4019 0 
L 2900 0 
L 2900 506 
Q 2647 200 2364 54 
Q 2081 -91 1741 -91 
Q 1134 -91 817 281 
Q 500 653 500 1363 
z
" transform="scale(0.015625)"/>
       <path id="DejaVuSans-Bold-6d" d="M 3781 2919 
Q 3994 3244 4286 3414 
Q 4578 3584 4928 3584 
Q 5531 3584 5847 3212 
Q 6163 2841 6163 2131 
L 6163 0 
L 5038 0 
L 5038 1825 
Q 5041 1866 5042 1909 
Q 5044 1953 5044 2034 
Q 5044 2406 4934 2573 
Q 4825 2741 4581 2741 
Q 4263 2741 4089 2478 
Q 3916 2216 3909 1719 
L 3909 0 
L 2784 0 
L 2784 1825 
Q 2784 2406 2684 2573 
Q 2584 2741 2328 2741 
Q 2006 2741 1831 2477 
Q 1656 2213 1656 1722 
L 1656 0 
L 531 0 
L 531 3500 
L 1656 3500 
L 1656 2988 
Q 1863 3284 2130 3434 
Q 2397 3584 2719 3584 
Q 3081 3584 3359 3409 
Q 3638 3234 3781 2919 
z
" transform="scale(0.015625)"/>
       <path id="DejaVuSans-Bold-62" d="M 2400 722 
Q 2759 722 2948 984 
Q 3138 1247 3138 1747 
Q 3138 2247 2948 2509 
Q 2759 2772 2400 2772 
Q 2041 2772 1848 2508 
Q 1656 2244 1656 1747 
Q 1656 1250 1848 986 
Q 2041 722 2400 722 
z
M 1656 2988 
Q 1888 3294 2169 3439 
Q 2450 3584 2816 3584 
Q 3463 3584 3878 3070 
Q 4294 2556 4294 1747 
Q 4294 938 3878 423 
Q 3463 -91 2816 -91 
Q 2450 -91 2169 54 
Q 1888 200 1656 506 
L 1656 0 
L 538 0 
L 538 4863 
L 1656 4863 
L 1656 2988 
z
" transform="scale(0.015625)"/>
       <path id="DejaVuSans-Bold-65" d="M 4031 1759 
L 4031 1441 
L 1416 1441 
Q 1456 1047 1700 850 
Q 1944 653 2381 653 
Q 2734 653 3104 758 
Q 3475 863 3866 1075 
L 3866 213 
Q 3469 63 3072 -14 
Q 2675 -91 2278 -91 
Q 1328 -91 801 392 
Q 275 875 275 1747 
Q 275 2603 792 3093 
Q 1309 3584 2216 3584 
Q 3041 3584 3536 3087 
Q 4031 2591 4031 1759 
z
M 2881 2131 
Q 2881 2450 2695 2645 
Q 2509 2841 2209 2841 
Q 1884 2841 1681 2658 
Q 1478 2475 1428 2131 
L 2881 2131 
z
" transform="scale(0.015625)"/>
       <path id="DejaVuSans-Bold-72" d="M 3138 2547 
Q 2991 2616 2845 2648 
Q 2700 2681 2553 2681 
Q 2122 2681 1889 2404 
Q 1656 2128 1656 1613 
L 1656 0 
L 538 0 
L 538 3500 
L 1656 3500 
L 1656 2925 
Q 1872 3269 2151 3426 
Q 2431 3584 2822 3584 
Q 2878 3584 2943 3579 
Q 3009 3575 3134 3559 
L 3138 2547 
z
" transform="scale(0.015625)"/>
       <path id="DejaVuSans-Bold-20" transform="scale(0.015625)"/>
       <path id="DejaVuSans-Bold-6f" d="M 2203 2784 
Q 1831 2784 1636 2517 
Q 1441 2250 1441 1747 
Q 1441 1244 1636 976 
Q 1831 709 2203 709 
Q 2569 709 2762 976 
Q 2956 1244 2956 1747 
Q 2956 2250 2762 2517 
Q 2569 2784 2203 2784 
z
M 2203 3584 
Q 3106 3584 3614 3096 
Q 4122 2609 4122 1747 
Q 4122 884 3614 396 
Q 3106 -91 2203 -91 
Q 1297 -91 786 396 
Q 275 884 275 1747 
Q 275 2609 786 3096 
Q 1297 3584 2203 3584 
z
" transform="scale(0.015625)"/>
       <path id="DejaVuSans-Bold-66" d="M 2841 4863 
L 2841 4128 
L 2222 4128 
Q 1984 4128 1890 4042 
Q 1797 3956 1797 3744 
L 1797 3500 
L 2753 3500 
L 2753 2700 
L 1797 2700 
L 1797 0 
L 678 0 
L 678 2700 
L 122 2700 
L 122 3500 
L 678 3500 
L 678 3744 
Q 678 4316 997 4589 
Q 1316 4863 1984 4863 
L 2841 4863 
z
" transform="scale(0.015625)"/>
       <path id="DejaVuSans-Bold-70" d="M 1656 506 
L 1656 -1331 
L 538 -1331 
L 538 3500 
L 1656 3500 
L 1656 2988 
Q 1888 3294 2169 3439 
Q 2450 3584 2816 3584 
Q 3463 3584 3878 3070 
Q 4294 2556 4294 1747 
Q 4294 938 3878 423 
Q 3463 -91 2816 -91 
Q 2450 -91 2169 54 
Q 1888 200 1656 506 
z
M 2400 2772 
Q 2041 2772 1848 2508 
Q 1656 2244 1656 1747 
Q 1656 1250 1848 986 
Q 2041 722 2400 722 
Q 2759 722 2948 984 
Q 3138 1247 3138 1747 
Q 3138 2247 2948 2509 
Q 2759 2772 2400 2772 
z
" transform="scale(0.015625)"/>
       <path id="DejaVuSans-Bold-63" d="M 3366 3391 
L 3366 2478 
Q 3138 2634 2908 2709 
Q 2678 2784 2431 2784 
Q 1963 2784 1702 2511 
Q 1441 2238 1441 1747 
Q 1441 1256 1702 982 
Q 1963 709 2431 709 
Q 2694 709 2930 787 
Q 3166 866 3366 1019 
L 3366 103 
Q 3103 6 2833 -42 
Q 2563 -91 2291 -91 
Q 1344 -91 809 395 
Q 275 881 275 1747 
Q 275 2613 809 3098 
Q 1344 3584 2291 3584 
Q 2566 3584 2833 3536 
Q 3100 3488 3366 3391 
z
" transform="scale(0.015625)"/>
       <path id="DejaVuSans-Bold-68" d="M 4056 2131 
L 4056 0 
L 2931 0 
L 2931 347 
L 2931 1625 
Q 2931 2084 2911 2256 
Q 2891 2428 2841 2509 
Q 2775 2619 2662 2680 
Q 2550 2741 2406 2741 
Q 2056 2741 1856 2470 
Q 1656 2200 1656 1722 
L 1656 0 
L 538 0 
L 538 4863 
L 1656 4863 
L 1656 2988 
Q 1909 3294 2193 3439 
Q 2478 3584 2822 3584 
Q 3428 3584 3742 3212 
Q 4056 2841 4056 2131 
z
" transform="scale(0.015625)"/>
       <path id="DejaVuSans-Bold-73" d="M 3272 3391 
L 3272 2541 
Q 2913 2691 2578 2766 
Q 2244 2841 1947 2841 
Q 1628 2841 1473 2761 
Q 1319 2681 1319 2516 
Q 1319 2381 1436 2309 
Q 1553 2238 1856 2203 
L 2053 2175 
Q 2913 2066 3209 1816 
Q 3506 1566 3506 1031 
Q 3506 472 3093 190 
Q 2681 -91 1863 -91 
Q 1516 -91 1145 -36 
Q 775 19 384 128 
L 384 978 
Q 719 816 1070 734 
Q 1422 653 1784 653 
Q 2113 653 2278 743 
Q 2444 834 2444 1013 
Q 2444 1163 2330 1236 
Q 2216 1309 1875 1350 
L 1678 1375 
Q 931 1469 631 1722 
Q 331 1975 331 2491 
Q 331 3047 712 3315 
Q 1094 3584 1881 3584 
Q 2191 3584 2531 3537 
Q 2872 3491 3272 3391 
z
" transform="scale(0.015625)"/>
      </defs>
      <use xlink:href="#DejaVuSans-Bold-4e"/>
      <use xlink:href="#DejaVuSans-Bold-75" x="83.691406"/>
      <use xlink:href="#DejaVuSans-Bold-6d" x="154.882812"/>
      <use xlink:href="#DejaVuSans-Bold-62" x="259.082031"/>
      <use xlink:href="#DejaVuSans-Bold-65" x="330.664062"/>
      <use xlink:href="#DejaVuSans-Bold-72" x="398.486328"/>
      <use xlink:href="#DejaVuSans-Bold-20" x="447.802734"/>
      <use xlink:href="#DejaVuSans-Bold-6f" x="482.617188"/>
      <use xlink:href="#DejaVuSans-Bold-66" x="551.318359"/>
      <use xlink:href="#DejaVuSans-Bold-20" x="594.824219"/>
      <use xlink:href="#DejaVuSans-Bold-65" x="629.638672"/>
      <use xlink:href="#DejaVuSans-Bold-70" x="697.460938"/>
      <use xlink:href="#DejaVuSans-Bold-6f" x="769.042969"/>
      <use xlink:href="#DejaVuSans-Bold-63" x="837.744141"/>
      <use xlink:href="#DejaVuSans-Bold-68" x="897.021484"/>
      <use xlink:href="#DejaVuSans-Bold-73" x="968.212891"/>
     </g>
    </g>
   </g>
   <g id="matplotlib.axis_2">
    <g id="ytick_1">
     <g id="line2d_15">
      <path d="M 61.355625 216.917813 
L 396.155625 216.917813 
" clip-path="url(#p96adf46011)" style="fill: none; stroke-dasharray: 1.85,0.8; stroke-dashoffset: 0; stroke: #808080; stroke-width: 0.5"/>
     </g>
     <g id="line2d_16">
      <defs>
       <path id="m7474367ecb" d="M 0 0 
L -3.5 0 
" style="stroke: #000000; stroke-width: 0.8"/>
      </defs>
      <g>
       <use xlink:href="#m7474367ecb" x="61.355625" y="216.917813" style="stroke: #000000; stroke-width: 0.8"/>
      </g>
     </g>
     <g id="text_9">
      <!-- 0.15 -->
      <g transform="translate(24.749375 221.476875) scale(0.12 -0.12)">
       <defs>
        <path id="DejaVuSans-Bold-2e" d="M 653 1209 
L 1778 1209 
L 1778 0 
L 653 0 
L 653 1209 
z
" transform="scale(0.015625)"/>
       </defs>
       <use xlink:href="#DejaVuSans-Bold-30"/>
       <use xlink:href="#DejaVuSans-Bold-2e" x="69.580078"/>
       <use xlink:href="#DejaVuSans-Bold-31" x="107.568359"/>
       <use xlink:href="#DejaVuSans-Bold-35" x="177.148438"/>
      </g>
     </g>
    </g>
    <g id="ytick_2">
     <g id="line2d_17">
      <path d="M 61.355625 186.917813 
L 396.155625 186.917813 
" clip-path="url(#p96adf46011)" style="fill: none; stroke-dasharray: 1.85,0.8; stroke-dashoffset: 0; stroke: #808080; stroke-width: 0.5"/>
     </g>
     <g id="line2d_18">
      <g>
       <use xlink:href="#m7474367ecb" x="61.355625" y="186.917813" style="stroke: #000000; stroke-width: 0.8"/>
      </g>
     </g>
     <g id="text_10">
      <!-- 0.20 -->
      <g transform="translate(24.749375 191.476875) scale(0.12 -0.12)">
       <use xlink:href="#DejaVuSans-Bold-30"/>
       <use xlink:href="#DejaVuSans-Bold-2e" x="69.580078"/>
       <use xlink:href="#DejaVuSans-Bold-32" x="107.568359"/>
       <use xlink:href="#DejaVuSans-Bold-30" x="177.148438"/>
      </g>
     </g>
    </g>
    <g id="ytick_3">
     <g id="line2d_19">
      <path d="M 61.355625 156.917813 
L 396.155625 156.917813 
" clip-path="url(#p96adf46011)" style="fill: none; stroke-dasharray: 1.85,0.8; stroke-dashoffset: 0; stroke: #808080; stroke-width: 0.5"/>
     </g>
     <g id="line2d_20">
      <g>
       <use xlink:href="#m7474367ecb" x="61.355625" y="156.917813" style="stroke: #000000; stroke-width: 0.8"/>
      </g>
     </g>
     <g id="text_11">
      <!-- 0.25 -->
      <g transform="translate(24.749375 161.476875) scale(0.12 -0.12)">
       <use xlink:href="#DejaVuSans-Bold-30"/>
       <use xlink:href="#DejaVuSans-Bold-2e" x="69.580078"/>
       <use xlink:href="#DejaVuSans-Bold-32" x="107.568359"/>
       <use xlink:href="#DejaVuSans-Bold-35" x="177.148438"/>
      </g>
     </g>
    </g>
    <g id="ytick_4">
     <g id="line2d_21">
      <path d="M 61.355625 126.917812 
L 396.155625 126.917812 
" clip-path="url(#p96adf46011)" style="fill: none; stroke-dasharray: 1.85,0.8; stroke-dashoffset: 0; stroke: #808080; stroke-width: 0.5"/>
     </g>
     <g id="line2d_22">
      <g>
       <use xlink:href="#m7474367ecb" x="61.355625" y="126.917812" style="stroke: #000000; stroke-width: 0.8"/>
      </g>
     </g>
     <g id="text_12">
      <!-- 0.30 -->
      <g transform="translate(24.749375 131.476875) scale(0.12 -0.12)">
       <use xlink:href="#DejaVuSans-Bold-30"/>
       <use xlink:href="#DejaVuSans-Bold-2e" x="69.580078"/>
       <use xlink:href="#DejaVuSans-Bold-33" x="107.568359"/>
       <use xlink:href="#DejaVuSans-Bold-30" x="177.148438"/>
      </g>
     </g>
    </g>
    <g id="ytick_5">
     <g id="line2d_23">
      <path d="M 61.355625 96.917813 
L 396.155625 96.917813 
" clip-path="url(#p96adf46011)" style="fill: none; stroke-dasharray: 1.85,0.8; stroke-dashoffset: 0; stroke: #808080; stroke-width: 0.5"/>
     </g>
     <g id="line2d_24">
      <g>
       <use xlink:href="#m7474367ecb" x="61.355625" y="96.917813" style="stroke: #000000; stroke-width: 0.8"/>
      </g>
     </g>
     <g id="text_13">
      <!-- 0.35 -->
      <g transform="translate(24.749375 101.476875) scale(0.12 -0.12)">
       <use xlink:href="#DejaVuSans-Bold-30"/>
       <use xlink:href="#DejaVuSans-Bold-2e" x="69.580078"/>
       <use xlink:href="#DejaVuSans-Bold-33" x="107.568359"/>
       <use xlink:href="#DejaVuSans-Bold-35" x="177.148438"/>
      </g>
     </g>
    </g>
    <g id="ytick_6">
     <g id="line2d_25">
      <path d="M 61.355625 66.917813 
L 396.155625 66.917813 
" clip-path="url(#p96adf46011)" style="fill: none; stroke-dasharray: 1.85,0.8; stroke-dashoffset: 0; stroke: #808080; stroke-width: 0.5"/>
     </g>
     <g id="line2d_26">
      <g>
       <use xlink:href="#m7474367ecb" x="61.355625" y="66.917813" style="stroke: #000000; stroke-width: 0.8"/>
      </g>
     </g>
     <g id="text_14">
      <!-- 0.40 -->
      <g transform="translate(24.749375 71.476875) scale(0.12 -0.12)">
       <defs>
        <path id="DejaVuSans-Bold-34" d="M 2356 3675 
L 1038 1722 
L 2356 1722 
L 2356 3675 
z
M 2156 4666 
L 3494 4666 
L 3494 1722 
L 4159 1722 
L 4159 850 
L 3494 850 
L 3494 0 
L 2356 0 
L 2356 850 
L 288 850 
L 288 1881 
L 2156 4666 
z
" transform="scale(0.015625)"/>
       </defs>
       <use xlink:href="#DejaVuSans-Bold-30"/>
       <use xlink:href="#DejaVuSans-Bold-2e" x="69.580078"/>
       <use xlink:href="#DejaVuSans-Bold-34" x="107.568359"/>
       <use xlink:href="#DejaVuSans-Bold-30" x="177.148438"/>
      </g>
     </g>
    </g>
    <g id="ytick_7">
     <g id="line2d_27">
      <path d="M 61.355625 36.917812 
L 396.155625 36.917812 
" clip-path="url(#p96adf46011)" style="fill: none; stroke-dasharray: 1.85,0.8; stroke-dashoffset: 0; stroke: #808080; stroke-width: 0.5"/>
     </g>
     <g id="line2d_28">
      <g>
       <use xlink:href="#m7474367ecb" x="61.355625" y="36.917812" style="stroke: #000000; stroke-width: 0.8"/>
      </g>
     </g>
     <g id="text_15">
      <!-- 0.45 -->
      <g transform="translate(24.749375 41.476875) scale(0.12 -0.12)">
       <use xlink:href="#DejaVuSans-Bold-30"/>
       <use xlink:href="#DejaVuSans-Bold-2e" x="69.580078"/>
       <use xlink:href="#DejaVuSans-Bold-34" x="107.568359"/>
       <use xlink:href="#DejaVuSans-Bold-35" x="177.148438"/>
      </g>
     </g>
    </g>
    <g id="text_16">
     <!-- Loss value -->
     <g transform="translate(17.837813 176.174219) rotate(-90) scale(0.14 -0.14)">
      <defs>
       <path id="DejaVuSans-Bold-4c" d="M 588 4666 
L 1791 4666 
L 1791 909 
L 3903 909 
L 3903 0 
L 588 0 
L 588 4666 
z
" transform="scale(0.015625)"/>
       <path id="DejaVuSans-Bold-76" d="M 97 3500 
L 1216 3500 
L 2088 1081 
L 2956 3500 
L 4078 3500 
L 2700 0 
L 1472 0 
L 97 3500 
z
" transform="scale(0.015625)"/>
       <path id="DejaVuSans-Bold-61" d="M 2106 1575 
Q 1756 1575 1579 1456 
Q 1403 1338 1403 1106 
Q 1403 894 1545 773 
Q 1688 653 1941 653 
Q 2256 653 2472 879 
Q 2688 1106 2688 1447 
L 2688 1575 
L 2106 1575 
z
M 3816 1997 
L 3816 0 
L 2688 0 
L 2688 519 
Q 2463 200 2181 54 
Q 1900 -91 1497 -91 
Q 953 -91 614 226 
Q 275 544 275 1050 
Q 275 1666 698 1953 
Q 1122 2241 2028 2241 
L 2688 2241 
L 2688 2328 
Q 2688 2594 2478 2717 
Q 2269 2841 1825 2841 
Q 1466 2841 1156 2769 
Q 847 2697 581 2553 
L 581 3406 
Q 941 3494 1303 3539 
Q 1666 3584 2028 3584 
Q 2975 3584 3395 3211 
Q 3816 2838 3816 1997 
z
" transform="scale(0.015625)"/>
       <path id="DejaVuSans-Bold-6c" d="M 538 4863 
L 1656 4863 
L 1656 0 
L 538 0 
L 538 4863 
z
" transform="scale(0.015625)"/>
      </defs>
      <use xlink:href="#DejaVuSans-Bold-4c"/>
      <use xlink:href="#DejaVuSans-Bold-6f" x="63.720703"/>
      <use xlink:href="#DejaVuSans-Bold-73" x="132.421875"/>
      <use xlink:href="#DejaVuSans-Bold-73" x="191.943359"/>
      <use xlink:href="#DejaVuSans-Bold-20" x="251.464844"/>
      <use xlink:href="#DejaVuSans-Bold-76" x="286.279297"/>
      <use xlink:href="#DejaVuSans-Bold-61" x="351.464844"/>
      <use xlink:href="#DejaVuSans-Bold-6c" x="418.945312"/>
      <use xlink:href="#DejaVuSans-Bold-75" x="453.222656"/>
      <use xlink:href="#DejaVuSans-Bold-65" x="524.414062"/>
     </g>
    </g>
   </g>
   <g id="line2d_29">
    <path d="M 76.573807 80.717813 
L 87.069105 151.517813 
L 97.564402 171.317813 
L 108.0597 191.717813 
L 118.554998 203.117813 
L 129.050296 212.117813 
L 139.545594 216.917813 
L 150.040891 219.317813 
L 160.536189 223.517813 
L 171.031487 224.717813 
L 181.526785 225.917813 
L 192.022083 226.517813 
L 202.51738 227.717813 
L 213.012678 228.017813 
L 223.507976 227.717813 
L 234.003274 228.317813 
L 244.498572 229.517813 
L 254.99387 229.697813 
L 265.489167 230.117813 
L 275.984465 229.817813 
L 286.479763 231.917813 
L 296.975061 232.517813 
L 307.470359 231.317813 
L 317.965656 232.517813 
L 328.460954 232.517813 
L 338.956252 233.117813 
L 349.45155 234.317813 
L 359.946848 235.517813 
L 370.442145 234.917813 
L 380.937443 234.917813 
" clip-path="url(#p96adf46011)" style="fill: none; stroke: #0000ff; stroke-width: 1.5; stroke-linecap: square"/>
    <defs>
     <path id="m85860d5abe" d="M -2 2 
L 2 -2 
M -2 -2 
L 2 2 
" style="stroke: #0000ff"/>
    </defs>
    <g clip-path="url(#p96adf46011)">
     <use xlink:href="#m85860d5abe" x="76.573807" y="80.717813" style="fill: #0000ff; stroke: #0000ff"/>
     <use xlink:href="#m85860d5abe" x="87.069105" y="151.517813" style="fill: #0000ff; stroke: #0000ff"/>
     <use xlink:href="#m85860d5abe" x="97.564402" y="171.317813" style="fill: #0000ff; stroke: #0000ff"/>
     <use xlink:href="#m85860d5abe" x="108.0597" y="191.717813" style="fill: #0000ff; stroke: #0000ff"/>
     <use xlink:href="#m85860d5abe" x="118.554998" y="203.117813" style="fill: #0000ff; stroke: #0000ff"/>
     <use xlink:href="#m85860d5abe" x="129.050296" y="212.117813" style="fill: #0000ff; stroke: #0000ff"/>
     <use xlink:href="#m85860d5abe" x="139.545594" y="216.917813" style="fill: #0000ff; stroke: #0000ff"/>
     <use xlink:href="#m85860d5abe" x="150.040891" y="219.317813" style="fill: #0000ff; stroke: #0000ff"/>
     <use xlink:href="#m85860d5abe" x="160.536189" y="223.517813" style="fill: #0000ff; stroke: #0000ff"/>
     <use xlink:href="#m85860d5abe" x="171.031487" y="224.717813" style="fill: #0000ff; stroke: #0000ff"/>
     <use xlink:href="#m85860d5abe" x="181.526785" y="225.917813" style="fill: #0000ff; stroke: #0000ff"/>
     <use xlink:href="#m85860d5abe" x="192.022083" y="226.517813" style="fill: #0000ff; stroke: #0000ff"/>
     <use xlink:href="#m85860d5abe" x="202.51738" y="227.717813" style="fill: #0000ff; stroke: #0000ff"/>
     <use xlink:href="#m85860d5abe" x="213.012678" y="228.017813" style="fill: #0000ff; stroke: #0000ff"/>
     <use xlink:href="#m85860d5abe" x="223.507976" y="227.717813" style="fill: #0000ff; stroke: #0000ff"/>
     <use xlink:href="#m85860d5abe" x="234.003274" y="228.317813" style="fill: #0000ff; stroke: #0000ff"/>
     <use xlink:href="#m85860d5abe" x="244.498572" y="229.517813" style="fill: #0000ff; stroke: #0000ff"/>
     <use xlink:href="#m85860d5abe" x="254.99387" y="229.697813" style="fill: #0000ff; stroke: #0000ff"/>
     <use xlink:href="#m85860d5abe" x="265.489167" y="230.117813" style="fill: #0000ff; stroke: #0000ff"/>
     <use xlink:href="#m85860d5abe" x="275.984465" y="229.817813" style="fill: #0000ff; stroke: #0000ff"/>
     <use xlink:href="#m85860d5abe" x="286.479763" y="231.917813" style="fill: #0000ff; stroke: #0000ff"/>
     <use xlink:href="#m85860d5abe" x="296.975061" y="232.517813" style="fill: #0000ff; stroke: #0000ff"/>
     <use xlink:href="#m85860d5abe" x="307.470359" y="231.317813" style="fill: #0000ff; stroke: #0000ff"/>
     <use xlink:href="#m85860d5abe" x="317.965656" y="232.517813" style="fill: #0000ff; stroke: #0000ff"/>
     <use xlink:href="#m85860d5abe" x="328.460954" y="232.517813" style="fill: #0000ff; stroke: #0000ff"/>
     <use xlink:href="#m85860d5abe" x="338.956252" y="233.117813" style="fill: #0000ff; stroke: #0000ff"/>
     <use xlink:href="#m85860d5abe" x="349.45155" y="234.317813" style="fill: #0000ff; stroke: #0000ff"/>
     <use xlink:href="#m85860d5abe" x="359.946848" y="235.517813" style="fill: #0000ff; stroke: #0000ff"/>
     <use xlink:href="#m85860d5abe" x="370.442145" y="234.917813" style="fill: #0000ff; stroke: #0000ff"/>
     <use xlink:href="#m85860d5abe" x="380.937443" y="234.917813" style="fill: #0000ff; stroke: #0000ff"/>
    </g>
   </g>
   <g id="line2d_30">
    <path d="M 76.573807 33.917813 
L 87.069105 102.317813 
L 97.564402 135.917813 
L 108.0597 159.917813 
L 118.554998 175.517813 
L 129.050296 185.717813 
L 139.545594 193.517813 
L 150.040891 198.317813 
L 160.536189 200.117813 
L 171.031487 203.717813 
L 181.526785 206.117813 
L 192.022083 208.517813 
L 202.51738 210.317813 
L 213.012678 212.117813 
L 223.507976 215.717813 
L 234.003274 216.617813 
L 244.498572 217.517813 
L 254.99387 219.317813 
L 265.489167 219.917813 
L 275.984465 220.517813 
L 286.479763 221.717813 
L 296.975061 222.317813 
L 307.470359 224.717813 
L 317.965656 225.317813 
L 328.460954 225.917813 
L 338.956252 227.117813 
L 349.45155 227.117813 
L 359.946848 228.317813 
L 370.442145 228.317813 
L 380.937443 228.617813 
" clip-path="url(#p96adf46011)" style="fill: none; stroke-dasharray: 5.55,2.4; stroke-dashoffset: 0; stroke: #008000; stroke-width: 1.5"/>
    <defs>
     <path id="m7d6944c698" d="M 0 2.828427 
L 2.828427 0 
L 0 -2.828427 
L -2.828427 0 
z
" style="stroke: #008000; stroke-linejoin: miter"/>
    </defs>
    <g clip-path="url(#p96adf46011)">
     <use xlink:href="#m7d6944c698" x="76.573807" y="33.917813" style="fill: #008000; stroke: #008000; stroke-linejoin: miter"/>
     <use xlink:href="#m7d6944c698" x="87.069105" y="102.317813" style="fill: #008000; stroke: #008000; stroke-linejoin: miter"/>
     <use xlink:href="#m7d6944c698" x="97.564402" y="135.917813" style="fill: #008000; stroke: #008000; stroke-linejoin: miter"/>
     <use xlink:href="#m7d6944c698" x="108.0597" y="159.917813" style="fill: #008000; stroke: #008000; stroke-linejoin: miter"/>
     <use xlink:href="#m7d6944c698" x="118.554998" y="175.517813" style="fill: #008000; stroke: #008000; stroke-linejoin: miter"/>
     <use xlink:href="#m7d6944c698" x="129.050296" y="185.717813" style="fill: #008000; stroke: #008000; stroke-linejoin: miter"/>
     <use xlink:href="#m7d6944c698" x="139.545594" y="193.517813" style="fill: #008000; stroke: #008000; stroke-linejoin: miter"/>
     <use xlink:href="#m7d6944c698" x="150.040891" y="198.317813" style="fill: #008000; stroke: #008000; stroke-linejoin: miter"/>
     <use xlink:href="#m7d6944c698" x="160.536189" y="200.117813" style="fill: #008000; stroke: #008000; stroke-linejoin: miter"/>
     <use xlink:href="#m7d6944c698" x="171.031487" y="203.717813" style="fill: #008000; stroke: #008000; stroke-linejoin: miter"/>
     <use xlink:href="#m7d6944c698" x="181.526785" y="206.117813" style="fill: #008000; stroke: #008000; stroke-linejoin: miter"/>
     <use xlink:href="#m7d6944c698" x="192.022083" y="208.517813" style="fill: #008000; stroke: #008000; stroke-linejoin: miter"/>
     <use xlink:href="#m7d6944c698" x="202.51738" y="210.317813" style="fill: #008000; stroke: #008000; stroke-linejoin: miter"/>
     <use xlink:href="#m7d6944c698" x="213.012678" y="212.117813" style="fill: #008000; stroke: #008000; stroke-linejoin: miter"/>
     <use xlink:href="#m7d6944c698" x="223.507976" y="215.717813" style="fill: #008000; stroke: #008000; stroke-linejoin: miter"/>
     <use xlink:href="#m7d6944c698" x="234.003274" y="216.617813" style="fill: #008000; stroke: #008000; stroke-linejoin: miter"/>
     <use xlink:href="#m7d6944c698" x="244.498572" y="217.517813" style="fill: #008000; stroke: #008000; stroke-linejoin: miter"/>
     <use xlink:href="#m7d6944c698" x="254.99387" y="219.317813" style="fill: #008000; stroke: #008000; stroke-linejoin: miter"/>
     <use xlink:href="#m7d6944c698" x="265.489167" y="219.917813" style="fill: #008000; stroke: #008000; stroke-linejoin: miter"/>
     <use xlink:href="#m7d6944c698" x="275.984465" y="220.517813" style="fill: #008000; stroke: #008000; stroke-linejoin: miter"/>
     <use xlink:href="#m7d6944c698" x="286.479763" y="221.717813" style="fill: #008000; stroke: #008000; stroke-linejoin: miter"/>
     <use xlink:href="#m7d6944c698" x="296.975061" y="222.317813" style="fill: #008000; stroke: #008000; stroke-linejoin: miter"/>
     <use xlink:href="#m7d6944c698" x="307.470359" y="224.717813" style="fill: #008000; stroke: #008000; stroke-linejoin: miter"/>
     <use xlink:href="#m7d6944c698" x="317.965656" y="225.317813" style="fill: #008000; stroke: #008000; stroke-linejoin: miter"/>
     <use xlink:href="#m7d6944c698" x="328.460954" y="225.917813" style="fill: #008000; stroke: #008000; stroke-linejoin: miter"/>
     <use xlink:href="#m7d6944c698" x="338.956252" y="227.117813" style="fill: #008000; stroke: #008000; stroke-linejoin: miter"/>
     <use xlink:href="#m7d6944c698" x="349.45155" y="227.117813" style="fill: #008000; stroke: #008000; stroke-linejoin: miter"/>
     <use xlink:href="#m7d6944c698" x="359.946848" y="228.317813" style="fill: #008000; stroke: #008000; stroke-linejoin: miter"/>
     <use xlink:href="#m7d6944c698" x="370.442145" y="228.317813" style="fill: #008000; stroke: #008000; stroke-linejoin: miter"/>
     <use xlink:href="#m7d6944c698" x="380.937443" y="228.617813" style="fill: #008000; stroke: #008000; stroke-linejoin: miter"/>
    </g>
   </g>
   <g id="patch_3">
    <path d="M 61.355625 245.597813 
L 61.355625 23.837813 
" style="fill: none; stroke: #000000; stroke-width: 0.8; stroke-linejoin: miter; stroke-linecap: square"/>
   </g>
   <g id="patch_4">
    <path d="M 396.155625 245.597813 
L 396.155625 23.837813 
" style="fill: none; stroke: #000000; stroke-width: 0.8; stroke-linejoin: miter; stroke-linecap: square"/>
   </g>
   <g id="patch_5">
    <path d="M 61.355625 245.597813 
L 396.155625 245.597813 
" style="fill: none; stroke: #000000; stroke-width: 0.8; stroke-linejoin: miter; stroke-linecap: square"/>
   </g>
   <g id="patch_6">
    <path d="M 61.355625 23.837813 
L 396.155625 23.837813 
" style="fill: none; stroke: #000000; stroke-width: 0.8; stroke-linejoin: miter; stroke-linecap: square"/>
   </g>
   <g id="text_17">
    <!-- Loss learning curves -->
    <g transform="translate(147.518437 17.837813) scale(0.14 -0.14)">
     <defs>
      <path id="DejaVuSans-Bold-6e" d="M 4056 2131 
L 4056 0 
L 2931 0 
L 2931 347 
L 2931 1631 
Q 2931 2084 2911 2256 
Q 2891 2428 2841 2509 
Q 2775 2619 2662 2680 
Q 2550 2741 2406 2741 
Q 2056 2741 1856 2470 
Q 1656 2200 1656 1722 
L 1656 0 
L 538 0 
L 538 3500 
L 1656 3500 
L 1656 2988 
Q 1909 3294 2193 3439 
Q 2478 3584 2822 3584 
Q 3428 3584 3742 3212 
Q 4056 2841 4056 2131 
z
" transform="scale(0.015625)"/>
      <path id="DejaVuSans-Bold-69" d="M 538 3500 
L 1656 3500 
L 1656 0 
L 538 0 
L 538 3500 
z
M 538 4863 
L 1656 4863 
L 1656 3950 
L 538 3950 
L 538 4863 
z
" transform="scale(0.015625)"/>
      <path id="DejaVuSans-Bold-67" d="M 2919 594 
Q 2688 288 2409 144 
Q 2131 0 1766 0 
Q 1125 0 706 504 
Q 288 1009 288 1791 
Q 288 2575 706 3076 
Q 1125 3578 1766 3578 
Q 2131 3578 2409 3434 
Q 2688 3291 2919 2981 
L 2919 3500 
L 4044 3500 
L 4044 353 
Q 4044 -491 3511 -936 
Q 2978 -1381 1966 -1381 
Q 1638 -1381 1331 -1331 
Q 1025 -1281 716 -1178 
L 716 -306 
Q 1009 -475 1290 -558 
Q 1572 -641 1856 -641 
Q 2406 -641 2662 -400 
Q 2919 -159 2919 353 
L 2919 594 
z
M 2181 2772 
Q 1834 2772 1640 2515 
Q 1447 2259 1447 1791 
Q 1447 1309 1634 1061 
Q 1822 813 2181 813 
Q 2531 813 2725 1069 
Q 2919 1325 2919 1791 
Q 2919 2259 2725 2515 
Q 2531 2772 2181 2772 
z
" transform="scale(0.015625)"/>
     </defs>
     <use xlink:href="#DejaVuSans-Bold-4c"/>
     <use xlink:href="#DejaVuSans-Bold-6f" x="63.720703"/>
     <use xlink:href="#DejaVuSans-Bold-73" x="132.421875"/>
     <use xlink:href="#DejaVuSans-Bold-73" x="191.943359"/>
     <use xlink:href="#DejaVuSans-Bold-20" x="251.464844"/>
     <use xlink:href="#DejaVuSans-Bold-6c" x="286.279297"/>
     <use xlink:href="#DejaVuSans-Bold-65" x="320.556641"/>
     <use xlink:href="#DejaVuSans-Bold-61" x="388.378906"/>
     <use xlink:href="#DejaVuSans-Bold-72" x="455.859375"/>
     <use xlink:href="#DejaVuSans-Bold-6e" x="505.175781"/>
     <use xlink:href="#DejaVuSans-Bold-69" x="576.367188"/>
     <use xlink:href="#DejaVuSans-Bold-6e" x="610.644531"/>
     <use xlink:href="#DejaVuSans-Bold-67" x="681.835938"/>
     <use xlink:href="#DejaVuSans-Bold-20" x="753.417969"/>
     <use xlink:href="#DejaVuSans-Bold-63" x="788.232422"/>
     <use xlink:href="#DejaVuSans-Bold-75" x="847.509766"/>
     <use xlink:href="#DejaVuSans-Bold-72" x="918.701172"/>
     <use xlink:href="#DejaVuSans-Bold-76" x="968.017578"/>
     <use xlink:href="#DejaVuSans-Bold-65" x="1033.203125"/>
     <use xlink:href="#DejaVuSans-Bold-73" x="1101.025391"/>
    </g>
   </g>
   <g id="legend_1">
    <g id="patch_7">
     <path d="M 261.9 76.245938 
L 386.355625 76.245938 
Q 389.155625 76.245938 389.155625 73.445938 
L 389.155625 33.637813 
Q 389.155625 30.837813 386.355625 30.837813 
L 261.9 30.837813 
Q 259.1 30.837813 259.1 33.637813 
L 259.1 73.445938 
Q 259.1 76.245938 261.9 76.245938 
z
" style="fill: #ffffff; opacity: 0.8; stroke: #cccccc; stroke-linejoin: miter"/>
    </g>
    <g id="line2d_31">
     <path d="M 264.7 42.175625 
L 278.7 42.175625 
L 292.7 42.175625 
" style="fill: none; stroke: #0000ff; stroke-width: 1.5; stroke-linecap: square"/>
     <g>
      <use xlink:href="#m85860d5abe" x="278.7" y="42.175625" style="fill: #0000ff; stroke: #0000ff"/>
     </g>
    </g>
    <g id="text_18">
     <!-- Training -->
     <g transform="translate(303.9 47.075625) scale(0.14 -0.14)">
      <defs>
       <path id="DejaVuSans-Bold-54" d="M 31 4666 
L 4331 4666 
L 4331 3756 
L 2784 3756 
L 2784 0 
L 1581 0 
L 1581 3756 
L 31 3756 
L 31 4666 
z
" transform="scale(0.015625)"/>
      </defs>
      <use xlink:href="#DejaVuSans-Bold-54"/>
      <use xlink:href="#DejaVuSans-Bold-72" x="57.212891"/>
      <use xlink:href="#DejaVuSans-Bold-61" x="106.529297"/>
      <use xlink:href="#DejaVuSans-Bold-69" x="174.009766"/>
      <use xlink:href="#DejaVuSans-Bold-6e" x="208.287109"/>
      <use xlink:href="#DejaVuSans-Bold-69" x="279.478516"/>
      <use xlink:href="#DejaVuSans-Bold-6e" x="313.755859"/>
      <use xlink:href="#DejaVuSans-Bold-67" x="384.947266"/>
     </g>
    </g>
    <g id="line2d_32">
     <path d="M 264.7 62.834375 
L 278.7 62.834375 
L 292.7 62.834375 
" style="fill: none; stroke-dasharray: 5.55,2.4; stroke-dashoffset: 0; stroke: #008000; stroke-width: 1.5"/>
     <g>
      <use xlink:href="#m7d6944c698" x="278.7" y="62.834375" style="fill: #008000; stroke: #008000; stroke-linejoin: miter"/>
     </g>
    </g>
    <g id="text_19">
     <!-- Validation -->
     <g transform="translate(303.9 67.734375) scale(0.14 -0.14)">
      <defs>
       <path id="DejaVuSans-Bold-56" d="M 31 4666 
L 1241 4666 
L 2478 1222 
L 3713 4666 
L 4922 4666 
L 3194 0 
L 1759 0 
L 31 4666 
z
" transform="scale(0.015625)"/>
       <path id="DejaVuSans-Bold-64" d="M 2919 2988 
L 2919 4863 
L 4044 4863 
L 4044 0 
L 2919 0 
L 2919 506 
Q 2688 197 2409 53 
Q 2131 -91 1766 -91 
Q 1119 -91 703 423 
Q 288 938 288 1747 
Q 288 2556 703 3070 
Q 1119 3584 1766 3584 
Q 2128 3584 2408 3439 
Q 2688 3294 2919 2988 
z
M 2181 722 
Q 2541 722 2730 984 
Q 2919 1247 2919 1747 
Q 2919 2247 2730 2509 
Q 2541 2772 2181 2772 
Q 1825 2772 1636 2509 
Q 1447 2247 1447 1747 
Q 1447 1247 1636 984 
Q 1825 722 2181 722 
z
" transform="scale(0.015625)"/>
       <path id="DejaVuSans-Bold-74" d="M 1759 4494 
L 1759 3500 
L 2913 3500 
L 2913 2700 
L 1759 2700 
L 1759 1216 
Q 1759 972 1856 886 
Q 1953 800 2241 800 
L 2816 800 
L 2816 0 
L 1856 0 
Q 1194 0 917 276 
Q 641 553 641 1216 
L 641 2700 
L 84 2700 
L 84 3500 
L 641 3500 
L 641 4494 
L 1759 4494 
z
" transform="scale(0.015625)"/>
      </defs>
      <use xlink:href="#DejaVuSans-Bold-56"/>
      <use xlink:href="#DejaVuSans-Bold-61" x="71.892578"/>
      <use xlink:href="#DejaVuSans-Bold-6c" x="139.373047"/>
      <use xlink:href="#DejaVuSans-Bold-69" x="173.650391"/>
      <use xlink:href="#DejaVuSans-Bold-64" x="207.927734"/>
      <use xlink:href="#DejaVuSans-Bold-61" x="279.509766"/>
      <use xlink:href="#DejaVuSans-Bold-74" x="346.990234"/>
      <use xlink:href="#DejaVuSans-Bold-69" x="394.792969"/>
      <use xlink:href="#DejaVuSans-Bold-6f" x="429.070312"/>
      <use xlink:href="#DejaVuSans-Bold-6e" x="497.771484"/>
     </g>
    </g>
   </g>
  </g>
 </g>
 <defs>
  <clipPath id="p96adf46011">
   <rect x="61.355625" y="23.837813" width="334.8" height="221.76"/>
  </clipPath>
 </defs>
</svg>
