<?xml version="1.0" encoding="utf-8" standalone="no"?>
<!DOCTYPE svg PUBLIC "-//W3C//DTD SVG 1.1//EN"
  "http://www.w3.org/Graphics/SVG/1.1/DTD/svg11.dtd">
<svg xmlns:xlink="http://www.w3.org/1999/xlink" width="389.527812pt" height="322.623375pt" viewBox="0 0 389.527812 322.623375" xmlns="http://www.w3.org/2000/svg" version="1.1">
 <metadata>
  <rdf:RDF xmlns:dc="http://purl.org/dc/elements/1.1/" xmlns:cc="http://creativecommons.org/ns#" xmlns:rdf="http://www.w3.org/1999/02/22-rdf-syntax-ns#">
   <cc:Work>
    <dc:type rdf:resource="http://purl.org/dc/dcmitype/StillImage"/>
    <dc:date>2023-06-07T09:41:01.495892</dc:date>
    <dc:format>image/svg+xml</dc:format>
    <dc:creator>
     <cc:Agent>
      <dc:title>Matplotlib v3.7.1, https://matplotlib.org/</dc:title>
     </cc:Agent>
    </dc:creator>
   </cc:Work>
  </rdf:RDF>
 </metadata>
 <defs>
  <style type="text/css">*{stroke-linejoin: round; stroke-linecap: butt}</style>
 </defs>
 <g id="figure_1">
  <g id="patch_1">
   <path d="M 0 322.623375 
L 389.527812 322.623375 
L 389.527812 0 
L 0 0 
z
" style="fill: #ffffff"/>
  </g>
  <g id="axes_1">
   <g id="patch_2">
    <path d="M 47.527813 244.246875 
L 382.327812 244.246875 
L 382.327812 22.486875 
L 47.527813 22.486875 
z
" style="fill: #ffffff"/>
   </g>
   <g id="patch_3">
    <path d="M 55.897813 244.246875 
L 69.289812 244.246875 
L 69.289812 45.028721 
L 55.897813 45.028721 
z
" clip-path="url(#pa4c3c795a1)" style="fill: #ddeed9"/>
   </g>
   <g id="patch_4">
    <path d="M 139.597813 244.246875 
L 152.989812 244.246875 
L 152.989812 33.046875 
L 139.597813 33.046875 
z
" clip-path="url(#pa4c3c795a1)" style="fill: #ddeed9"/>
   </g>
   <g id="patch_5">
    <path d="M 223.297812 244.246875 
L 236.689812 244.246875 
L 236.689812 39.212698 
L 223.297812 39.212698 
z
" clip-path="url(#pa4c3c795a1)" style="fill: #ddeed9"/>
   </g>
   <g id="patch_6">
    <path d="M 306.997813 244.246875 
L 320.389813 244.246875 
L 320.389813 77.075098 
L 306.997813 77.075098 
z
" clip-path="url(#pa4c3c795a1)" style="fill: #ddeed9"/>
   </g>
   <g id="patch_7">
    <path d="M 69.289813 244.246875 
L 82.681813 244.246875 
L 82.681813 37.197818 
L 69.289813 37.197818 
z
" clip-path="url(#pa4c3c795a1)" style="fill: #b3d7ae"/>
   </g>
   <g id="patch_8">
    <path d="M 152.989812 244.246875 
L 166.381812 244.246875 
L 166.381812 33.046875 
L 152.989812 33.046875 
z
" clip-path="url(#pa4c3c795a1)" style="fill: #b3d7ae"/>
   </g>
   <g id="patch_9">
    <path d="M 236.689813 244.246875 
L 250.081813 244.246875 
L 250.081813 35.142945 
L 236.689813 35.142945 
z
" clip-path="url(#pa4c3c795a1)" style="fill: #b3d7ae"/>
   </g>
   <g id="patch_10">
    <path d="M 320.389813 244.246875 
L 333.781813 244.246875 
L 333.781813 80.936035 
L 320.389813 80.936035 
z
" clip-path="url(#pa4c3c795a1)" style="fill: #b3d7ae"/>
   </g>
   <g id="patch_11">
    <path d="M 82.681813 244.246875 
L 96.073813 244.246875 
L 96.073813 33.046875 
L 82.681813 33.046875 
z
" clip-path="url(#pa4c3c795a1)" style="fill: #7dba7f"/>
   </g>
   <g id="patch_12">
    <path d="M 166.381813 244.246875 
L 179.773813 244.246875 
L 179.773813 34.74054 
L 166.381813 34.74054 
z
" clip-path="url(#pa4c3c795a1)" style="fill: #7dba7f"/>
   </g>
   <g id="patch_13">
    <path d="M 250.081813 244.246875 
L 263.473813 244.246875 
L 263.473813 33.897117 
L 250.081813 33.897117 
z
" clip-path="url(#pa4c3c795a1)" style="fill: #7dba7f"/>
   </g>
   <g id="patch_14">
    <path d="M 333.781813 244.246875 
L 347.173812 244.246875 
L 347.173812 78.260473 
L 333.781813 78.260473 
z
" clip-path="url(#pa4c3c795a1)" style="fill: #7dba7f"/>
   </g>
   <g id="patch_15">
    <path d="M 96.073813 244.246875 
L 109.465812 244.246875 
L 109.465812 41.813055 
L 96.073813 41.813055 
z
" clip-path="url(#pa4c3c795a1)" style="fill: #44935b"/>
   </g>
   <g id="patch_16">
    <path d="M 179.773812 244.246875 
L 193.165812 244.246875 
L 193.165812 33.046875 
L 179.773812 33.046875 
z
" clip-path="url(#pa4c3c795a1)" style="fill: #44935b"/>
   </g>
   <g id="patch_17">
    <path d="M 263.473813 244.246875 
L 276.865813 244.246875 
L 276.865813 37.522856 
L 263.473813 37.522856 
z
" clip-path="url(#pa4c3c795a1)" style="fill: #44935b"/>
   </g>
   <g id="patch_18">
    <path d="M 347.173812 244.246875 
L 360.565812 244.246875 
L 360.565812 74.805951 
L 347.173812 74.805951 
z
" clip-path="url(#pa4c3c795a1)" style="fill: #44935b"/>
   </g>
   <g id="patch_19">
    <path d="M 109.465812 244.246875 
L 122.857812 244.246875 
L 122.857812 33.046875 
L 109.465812 33.046875 
z
" clip-path="url(#pa4c3c795a1)" style="fill: #196937"/>
   </g>
   <g id="patch_20">
    <path d="M 193.165813 244.246875 
L 206.557813 244.246875 
L 206.557813 33.724341 
L 193.165813 33.724341 
z
" clip-path="url(#pa4c3c795a1)" style="fill: #196937"/>
   </g>
   <g id="patch_21">
    <path d="M 276.865813 244.246875 
L 290.257812 244.246875 
L 290.257812 33.386152 
L 276.865813 33.386152 
z
" clip-path="url(#pa4c3c795a1)" style="fill: #196937"/>
   </g>
   <g id="patch_22">
    <path d="M 360.565812 244.246875 
L 373.957812 244.246875 
L 373.957812 74.060858 
L 360.565812 74.060858 
z
" clip-path="url(#pa4c3c795a1)" style="fill: #196937"/>
   </g>
   <g id="matplotlib.axis_1">
    <g id="xtick_1">
     <g id="line2d_1">
      <defs>
       <path id="md33cd29306" d="M 0 0 
L 0 3.5 
" style="stroke: #000000; stroke-width: 0.8"/>
      </defs>
      <g>
       <use xlink:href="#md33cd29306" x="89.377813" y="244.246875" style="stroke: #000000; stroke-width: 0.8"/>
      </g>
     </g>
     <g id="text_1">
      <!-- Precision -->
      <g transform="translate(63.493437 258.845313) scale(0.1 -0.1)">
       <defs>
        <path id="DejaVuSans-Bold-50" d="M 588 4666 
L 2584 4666 
Q 3475 4666 3951 4270 
Q 4428 3875 4428 3144 
Q 4428 2409 3951 2014 
Q 3475 1619 2584 1619 
L 1791 1619 
L 1791 0 
L 588 0 
L 588 4666 
z
M 1791 3794 
L 1791 2491 
L 2456 2491 
Q 2806 2491 2997 2661 
Q 3188 2831 3188 3144 
Q 3188 3456 2997 3625 
Q 2806 3794 2456 3794 
L 1791 3794 
z
" transform="scale(0.015625)"/>
        <path id="DejaVuSans-Bold-72" d="M 3138 2547 
Q 2991 2616 2845 2648 
Q 2700 2681 2553 2681 
Q 2122 2681 1889 2404 
Q 1656 2128 1656 1613 
L 1656 0 
L 538 0 
L 538 3500 
L 1656 3500 
L 1656 2925 
Q 1872 3269 2151 3426 
Q 2431 3584 2822 3584 
Q 2878 3584 2943 3579 
Q 3009 3575 3134 3559 
L 3138 2547 
z
" transform="scale(0.015625)"/>
        <path id="DejaVuSans-Bold-65" d="M 4031 1759 
L 4031 1441 
L 1416 1441 
Q 1456 1047 1700 850 
Q 1944 653 2381 653 
Q 2734 653 3104 758 
Q 3475 863 3866 1075 
L 3866 213 
Q 3469 63 3072 -14 
Q 2675 -91 2278 -91 
Q 1328 -91 801 392 
Q 275 875 275 1747 
Q 275 2603 792 3093 
Q 1309 3584 2216 3584 
Q 3041 3584 3536 3087 
Q 4031 2591 4031 1759 
z
M 2881 2131 
Q 2881 2450 2695 2645 
Q 2509 2841 2209 2841 
Q 1884 2841 1681 2658 
Q 1478 2475 1428 2131 
L 2881 2131 
z
" transform="scale(0.015625)"/>
        <path id="DejaVuSans-Bold-63" d="M 3366 3391 
L 3366 2478 
Q 3138 2634 2908 2709 
Q 2678 2784 2431 2784 
Q 1963 2784 1702 2511 
Q 1441 2238 1441 1747 
Q 1441 1256 1702 982 
Q 1963 709 2431 709 
Q 2694 709 2930 787 
Q 3166 866 3366 1019 
L 3366 103 
Q 3103 6 2833 -42 
Q 2563 -91 2291 -91 
Q 1344 -91 809 395 
Q 275 881 275 1747 
Q 275 2613 809 3098 
Q 1344 3584 2291 3584 
Q 2566 3584 2833 3536 
Q 3100 3488 3366 3391 
z
" transform="scale(0.015625)"/>
        <path id="DejaVuSans-Bold-69" d="M 538 3500 
L 1656 3500 
L 1656 0 
L 538 0 
L 538 3500 
z
M 538 4863 
L 1656 4863 
L 1656 3950 
L 538 3950 
L 538 4863 
z
" transform="scale(0.015625)"/>
        <path id="DejaVuSans-Bold-73" d="M 3272 3391 
L 3272 2541 
Q 2913 2691 2578 2766 
Q 2244 2841 1947 2841 
Q 1628 2841 1473 2761 
Q 1319 2681 1319 2516 
Q 1319 2381 1436 2309 
Q 1553 2238 1856 2203 
L 2053 2175 
Q 2913 2066 3209 1816 
Q 3506 1566 3506 1031 
Q 3506 472 3093 190 
Q 2681 -91 1863 -91 
Q 1516 -91 1145 -36 
Q 775 19 384 128 
L 384 978 
Q 719 816 1070 734 
Q 1422 653 1784 653 
Q 2113 653 2278 743 
Q 2444 834 2444 1013 
Q 2444 1163 2330 1236 
Q 2216 1309 1875 1350 
L 1678 1375 
Q 931 1469 631 1722 
Q 331 1975 331 2491 
Q 331 3047 712 3315 
Q 1094 3584 1881 3584 
Q 2191 3584 2531 3537 
Q 2872 3491 3272 3391 
z
" transform="scale(0.015625)"/>
        <path id="DejaVuSans-Bold-6f" d="M 2203 2784 
Q 1831 2784 1636 2517 
Q 1441 2250 1441 1747 
Q 1441 1244 1636 976 
Q 1831 709 2203 709 
Q 2569 709 2762 976 
Q 2956 1244 2956 1747 
Q 2956 2250 2762 2517 
Q 2569 2784 2203 2784 
z
M 2203 3584 
Q 3106 3584 3614 3096 
Q 4122 2609 4122 1747 
Q 4122 884 3614 396 
Q 3106 -91 2203 -91 
Q 1297 -91 786 396 
Q 275 884 275 1747 
Q 275 2609 786 3096 
Q 1297 3584 2203 3584 
z
" transform="scale(0.015625)"/>
        <path id="DejaVuSans-Bold-6e" d="M 4056 2131 
L 4056 0 
L 2931 0 
L 2931 347 
L 2931 1631 
Q 2931 2084 2911 2256 
Q 2891 2428 2841 2509 
Q 2775 2619 2662 2680 
Q 2550 2741 2406 2741 
Q 2056 2741 1856 2470 
Q 1656 2200 1656 1722 
L 1656 0 
L 538 0 
L 538 3500 
L 1656 3500 
L 1656 2988 
Q 1909 3294 2193 3439 
Q 2478 3584 2822 3584 
Q 3428 3584 3742 3212 
Q 4056 2841 4056 2131 
z
" transform="scale(0.015625)"/>
       </defs>
       <use xlink:href="#DejaVuSans-Bold-50"/>
       <use xlink:href="#DejaVuSans-Bold-72" x="73.291016"/>
       <use xlink:href="#DejaVuSans-Bold-65" x="122.607422"/>
       <use xlink:href="#DejaVuSans-Bold-63" x="190.429688"/>
       <use xlink:href="#DejaVuSans-Bold-69" x="249.707031"/>
       <use xlink:href="#DejaVuSans-Bold-73" x="283.984375"/>
       <use xlink:href="#DejaVuSans-Bold-69" x="343.505859"/>
       <use xlink:href="#DejaVuSans-Bold-6f" x="377.783203"/>
       <use xlink:href="#DejaVuSans-Bold-6e" x="446.484375"/>
      </g>
     </g>
    </g>
    <g id="xtick_2">
     <g id="line2d_2">
      <g>
       <use xlink:href="#md33cd29306" x="173.077812" y="244.246875" style="stroke: #000000; stroke-width: 0.8"/>
      </g>
     </g>
     <g id="text_2">
      <!-- Recall -->
      <g transform="translate(156.07 258.845313) scale(0.1 -0.1)">
       <defs>
        <path id="DejaVuSans-Bold-52" d="M 2297 2597 
Q 2675 2597 2839 2737 
Q 3003 2878 3003 3200 
Q 3003 3519 2839 3656 
Q 2675 3794 2297 3794 
L 1791 3794 
L 1791 2597 
L 2297 2597 
z
M 1791 1766 
L 1791 0 
L 588 0 
L 588 4666 
L 2425 4666 
Q 3347 4666 3776 4356 
Q 4206 4047 4206 3378 
Q 4206 2916 3982 2619 
Q 3759 2322 3309 2181 
Q 3556 2125 3751 1926 
Q 3947 1728 4147 1325 
L 4800 0 
L 3519 0 
L 2950 1159 
Q 2778 1509 2601 1637 
Q 2425 1766 2131 1766 
L 1791 1766 
z
" transform="scale(0.015625)"/>
        <path id="DejaVuSans-Bold-61" d="M 2106 1575 
Q 1756 1575 1579 1456 
Q 1403 1338 1403 1106 
Q 1403 894 1545 773 
Q 1688 653 1941 653 
Q 2256 653 2472 879 
Q 2688 1106 2688 1447 
L 2688 1575 
L 2106 1575 
z
M 3816 1997 
L 3816 0 
L 2688 0 
L 2688 519 
Q 2463 200 2181 54 
Q 1900 -91 1497 -91 
Q 953 -91 614 226 
Q 275 544 275 1050 
Q 275 1666 698 1953 
Q 1122 2241 2028 2241 
L 2688 2241 
L 2688 2328 
Q 2688 2594 2478 2717 
Q 2269 2841 1825 2841 
Q 1466 2841 1156 2769 
Q 847 2697 581 2553 
L 581 3406 
Q 941 3494 1303 3539 
Q 1666 3584 2028 3584 
Q 2975 3584 3395 3211 
Q 3816 2838 3816 1997 
z
" transform="scale(0.015625)"/>
        <path id="DejaVuSans-Bold-6c" d="M 538 4863 
L 1656 4863 
L 1656 0 
L 538 0 
L 538 4863 
z
" transform="scale(0.015625)"/>
       </defs>
       <use xlink:href="#DejaVuSans-Bold-52"/>
       <use xlink:href="#DejaVuSans-Bold-65" x="77.001953"/>
       <use xlink:href="#DejaVuSans-Bold-63" x="144.824219"/>
       <use xlink:href="#DejaVuSans-Bold-61" x="204.101562"/>
       <use xlink:href="#DejaVuSans-Bold-6c" x="271.582031"/>
       <use xlink:href="#DejaVuSans-Bold-6c" x="305.859375"/>
      </g>
     </g>
    </g>
    <g id="xtick_3">
     <g id="line2d_3">
      <g>
       <use xlink:href="#md33cd29306" x="256.777812" y="244.246875" style="stroke: #000000; stroke-width: 0.8"/>
      </g>
     </g>
     <g id="text_3">
      <!-- F1-Score -->
      <g transform="translate(231.95125 258.845313) scale(0.1 -0.1)">
       <defs>
        <path id="DejaVuSans-Bold-46" d="M 588 4666 
L 3834 4666 
L 3834 3756 
L 1791 3756 
L 1791 2888 
L 3713 2888 
L 3713 1978 
L 1791 1978 
L 1791 0 
L 588 0 
L 588 4666 
z
" transform="scale(0.015625)"/>
        <path id="DejaVuSans-Bold-31" d="M 750 831 
L 1813 831 
L 1813 3847 
L 722 3622 
L 722 4441 
L 1806 4666 
L 2950 4666 
L 2950 831 
L 4013 831 
L 4013 0 
L 750 0 
L 750 831 
z
" transform="scale(0.015625)"/>
        <path id="DejaVuSans-Bold-2d" d="M 347 2297 
L 2309 2297 
L 2309 1388 
L 347 1388 
L 347 2297 
z
" transform="scale(0.015625)"/>
        <path id="DejaVuSans-Bold-53" d="M 3834 4519 
L 3834 3531 
Q 3450 3703 3084 3790 
Q 2719 3878 2394 3878 
Q 1963 3878 1756 3759 
Q 1550 3641 1550 3391 
Q 1550 3203 1689 3098 
Q 1828 2994 2194 2919 
L 2706 2816 
Q 3484 2659 3812 2340 
Q 4141 2022 4141 1434 
Q 4141 663 3683 286 
Q 3225 -91 2284 -91 
Q 1841 -91 1394 -6 
Q 947 78 500 244 
L 500 1259 
Q 947 1022 1364 901 
Q 1781 781 2169 781 
Q 2563 781 2772 912 
Q 2981 1044 2981 1288 
Q 2981 1506 2839 1625 
Q 2697 1744 2272 1838 
L 1806 1941 
Q 1106 2091 782 2419 
Q 459 2747 459 3303 
Q 459 4000 909 4375 
Q 1359 4750 2203 4750 
Q 2588 4750 2994 4692 
Q 3400 4634 3834 4519 
z
" transform="scale(0.015625)"/>
       </defs>
       <use xlink:href="#DejaVuSans-Bold-46"/>
       <use xlink:href="#DejaVuSans-Bold-31" x="68.310547"/>
       <use xlink:href="#DejaVuSans-Bold-2d" x="137.890625"/>
       <use xlink:href="#DejaVuSans-Bold-53" x="179.394531"/>
       <use xlink:href="#DejaVuSans-Bold-63" x="251.416016"/>
       <use xlink:href="#DejaVuSans-Bold-6f" x="310.693359"/>
       <use xlink:href="#DejaVuSans-Bold-72" x="379.394531"/>
       <use xlink:href="#DejaVuSans-Bold-65" x="428.710938"/>
      </g>
     </g>
    </g>
    <g id="xtick_4">
     <g id="line2d_4">
      <g>
       <use xlink:href="#md33cd29306" x="340.477813" y="244.246875" style="stroke: #000000; stroke-width: 0.8"/>
      </g>
     </g>
     <g id="text_4">
      <!-- Accuracy -->
      <g transform="translate(315.0575 258.767188) scale(0.1 -0.1)">
       <defs>
        <path id="DejaVuSans-Bold-41" d="M 3419 850 
L 1538 850 
L 1241 0 
L 31 0 
L 1759 4666 
L 3194 4666 
L 4922 0 
L 3713 0 
L 3419 850 
z
M 1838 1716 
L 3116 1716 
L 2478 3572 
L 1838 1716 
z
" transform="scale(0.015625)"/>
        <path id="DejaVuSans-Bold-75" d="M 500 1363 
L 500 3500 
L 1625 3500 
L 1625 3150 
Q 1625 2866 1622 2436 
Q 1619 2006 1619 1863 
Q 1619 1441 1641 1255 
Q 1663 1069 1716 984 
Q 1784 875 1895 815 
Q 2006 756 2150 756 
Q 2500 756 2700 1025 
Q 2900 1294 2900 1772 
L 2900 3500 
L 4019 3500 
L 4019 0 
L 2900 0 
L 2900 506 
Q 2647 200 2364 54 
Q 2081 -91 1741 -91 
Q 1134 -91 817 281 
Q 500 653 500 1363 
z
" transform="scale(0.015625)"/>
        <path id="DejaVuSans-Bold-79" d="M 78 3500 
L 1197 3500 
L 2138 1125 
L 2938 3500 
L 4056 3500 
L 2584 -331 
Q 2363 -916 2067 -1148 
Q 1772 -1381 1288 -1381 
L 641 -1381 
L 641 -647 
L 991 -647 
Q 1275 -647 1404 -556 
Q 1534 -466 1606 -231 
L 1638 -134 
L 78 3500 
z
" transform="scale(0.015625)"/>
       </defs>
       <use xlink:href="#DejaVuSans-Bold-41"/>
       <use xlink:href="#DejaVuSans-Bold-63" x="77.392578"/>
       <use xlink:href="#DejaVuSans-Bold-63" x="136.669922"/>
       <use xlink:href="#DejaVuSans-Bold-75" x="195.947266"/>
       <use xlink:href="#DejaVuSans-Bold-72" x="267.138672"/>
       <use xlink:href="#DejaVuSans-Bold-61" x="316.455078"/>
       <use xlink:href="#DejaVuSans-Bold-63" x="383.935547"/>
       <use xlink:href="#DejaVuSans-Bold-79" x="443.212891"/>
      </g>
     </g>
    </g>
    <g id="text_5">
     <!-- Метрики -->
     <g transform="translate(184.635313 274.043125) scale(0.12 -0.12)">
      <defs>
       <path id="DejaVuSans-Bold-41c" d="M 588 4666 
L 2119 4666 
L 3181 2169 
L 4250 4666 
L 5778 4666 
L 5778 0 
L 4641 0 
L 4641 3413 
L 3566 897 
L 2803 897 
L 1728 3413 
L 1728 0 
L 588 0 
L 588 4666 
z
" transform="scale(0.015625)"/>
       <path id="DejaVuSans-Bold-435" d="M 4031 1759 
L 4031 1441 
L 1416 1441 
Q 1456 1047 1700 850 
Q 1944 653 2381 653 
Q 2734 653 3104 758 
Q 3475 863 3866 1075 
L 3866 213 
Q 3469 63 3072 -14 
Q 2675 -91 2278 -91 
Q 1328 -91 801 392 
Q 275 875 275 1747 
Q 275 2603 792 3093 
Q 1309 3584 2216 3584 
Q 3041 3584 3536 3087 
Q 4031 2591 4031 1759 
z
M 2881 2131 
Q 2881 2450 2695 2645 
Q 2509 2841 2209 2841 
Q 1884 2841 1681 2658 
Q 1478 2475 1428 2131 
L 2881 2131 
z
" transform="scale(0.015625)"/>
       <path id="DejaVuSans-Bold-442" d="M 25 3500 
L 3681 3500 
L 3681 2809 
L 2413 2809 
L 2413 0 
L 1297 0 
L 1297 2809 
L 25 2809 
L 25 3500 
z
" transform="scale(0.015625)"/>
       <path id="DejaVuSans-Bold-440" d="M 1656 506 
L 1656 -1331 
L 538 -1331 
L 538 3500 
L 1656 3500 
L 1656 2988 
Q 1888 3294 2169 3439 
Q 2450 3584 2816 3584 
Q 3463 3584 3878 3070 
Q 4294 2556 4294 1747 
Q 4294 938 3878 423 
Q 3463 -91 2816 -91 
Q 2450 -91 2169 54 
Q 1888 200 1656 506 
z
M 2400 2772 
Q 2041 2772 1848 2508 
Q 1656 2244 1656 1747 
Q 1656 1250 1848 986 
Q 2041 722 2400 722 
Q 2759 722 2948 984 
Q 3138 1247 3138 1747 
Q 3138 2247 2948 2509 
Q 2759 2772 2400 2772 
z
" transform="scale(0.015625)"/>
       <path id="DejaVuSans-Bold-438" d="M 3947 3500 
L 3947 0 
L 2828 0 
L 2828 1863 
L 1700 0 
L 538 0 
L 538 3500 
L 1656 3500 
L 1656 1638 
L 2784 3500 
L 3947 3500 
z
" transform="scale(0.015625)"/>
       <path id="DejaVuSans-Bold-43a" d="M 538 3500 
L 1656 3500 
L 1656 2316 
L 2903 3500 
L 4128 3500 
L 2634 2078 
L 4250 0 
L 3094 0 
L 1972 1447 
L 1656 1147 
L 1656 0 
L 538 0 
L 538 3500 
z
" transform="scale(0.015625)"/>
      </defs>
      <use xlink:href="#DejaVuSans-Bold-41c"/>
      <use xlink:href="#DejaVuSans-Bold-435" x="99.511719"/>
      <use xlink:href="#DejaVuSans-Bold-442" x="167.333984"/>
      <use xlink:href="#DejaVuSans-Bold-440" x="225.292969"/>
      <use xlink:href="#DejaVuSans-Bold-438" x="296.875"/>
      <use xlink:href="#DejaVuSans-Bold-43a" x="366.943359"/>
      <use xlink:href="#DejaVuSans-Bold-438" x="434.814453"/>
     </g>
    </g>
   </g>
   <g id="matplotlib.axis_2">
    <g id="ytick_1">
     <g id="line2d_5">
      <defs>
       <path id="m7bf6fcf156" d="M 0 0 
L -3.5 0 
" style="stroke: #000000; stroke-width: 0.8"/>
      </defs>
      <g>
       <use xlink:href="#m7bf6fcf156" x="47.527813" y="244.246875" style="stroke: #000000; stroke-width: 0.8"/>
      </g>
     </g>
     <g id="text_6">
      <!-- 0.0 -->
      <g transform="translate(22.81375 248.046094) scale(0.1 -0.1)">
       <defs>
        <path id="DejaVuSans-Bold-30" d="M 2944 2338 
Q 2944 3213 2780 3570 
Q 2616 3928 2228 3928 
Q 1841 3928 1675 3570 
Q 1509 3213 1509 2338 
Q 1509 1453 1675 1090 
Q 1841 728 2228 728 
Q 2613 728 2778 1090 
Q 2944 1453 2944 2338 
z
M 4147 2328 
Q 4147 1169 3647 539 
Q 3147 -91 2228 -91 
Q 1306 -91 806 539 
Q 306 1169 306 2328 
Q 306 3491 806 4120 
Q 1306 4750 2228 4750 
Q 3147 4750 3647 4120 
Q 4147 3491 4147 2328 
z
" transform="scale(0.015625)"/>
        <path id="DejaVuSans-Bold-2e" d="M 653 1209 
L 1778 1209 
L 1778 0 
L 653 0 
L 653 1209 
z
" transform="scale(0.015625)"/>
       </defs>
       <use xlink:href="#DejaVuSans-Bold-30"/>
       <use xlink:href="#DejaVuSans-Bold-2e" x="69.580078"/>
       <use xlink:href="#DejaVuSans-Bold-30" x="107.568359"/>
      </g>
     </g>
    </g>
    <g id="ytick_2">
     <g id="line2d_6">
      <g>
       <use xlink:href="#m7bf6fcf156" x="47.527813" y="202.006875" style="stroke: #000000; stroke-width: 0.8"/>
      </g>
     </g>
     <g id="text_7">
      <!-- 0.2 -->
      <g transform="translate(22.81375 205.806094) scale(0.1 -0.1)">
       <defs>
        <path id="DejaVuSans-Bold-32" d="M 1844 884 
L 3897 884 
L 3897 0 
L 506 0 
L 506 884 
L 2209 2388 
Q 2438 2594 2547 2791 
Q 2656 2988 2656 3200 
Q 2656 3528 2436 3728 
Q 2216 3928 1850 3928 
Q 1569 3928 1234 3808 
Q 900 3688 519 3450 
L 519 4475 
Q 925 4609 1322 4679 
Q 1719 4750 2100 4750 
Q 2938 4750 3402 4381 
Q 3866 4013 3866 3353 
Q 3866 2972 3669 2642 
Q 3472 2313 2841 1759 
L 1844 884 
z
" transform="scale(0.015625)"/>
       </defs>
       <use xlink:href="#DejaVuSans-Bold-30"/>
       <use xlink:href="#DejaVuSans-Bold-2e" x="69.580078"/>
       <use xlink:href="#DejaVuSans-Bold-32" x="107.568359"/>
      </g>
     </g>
    </g>
    <g id="ytick_3">
     <g id="line2d_7">
      <g>
       <use xlink:href="#m7bf6fcf156" x="47.527813" y="159.766875" style="stroke: #000000; stroke-width: 0.8"/>
      </g>
     </g>
     <g id="text_8">
      <!-- 0.4 -->
      <g transform="translate(22.81375 163.566094) scale(0.1 -0.1)">
       <defs>
        <path id="DejaVuSans-Bold-34" d="M 2356 3675 
L 1038 1722 
L 2356 1722 
L 2356 3675 
z
M 2156 4666 
L 3494 4666 
L 3494 1722 
L 4159 1722 
L 4159 850 
L 3494 850 
L 3494 0 
L 2356 0 
L 2356 850 
L 288 850 
L 288 1881 
L 2156 4666 
z
" transform="scale(0.015625)"/>
       </defs>
       <use xlink:href="#DejaVuSans-Bold-30"/>
       <use xlink:href="#DejaVuSans-Bold-2e" x="69.580078"/>
       <use xlink:href="#DejaVuSans-Bold-34" x="107.568359"/>
      </g>
     </g>
    </g>
    <g id="ytick_4">
     <g id="line2d_8">
      <g>
       <use xlink:href="#m7bf6fcf156" x="47.527813" y="117.526875" style="stroke: #000000; stroke-width: 0.8"/>
      </g>
     </g>
     <g id="text_9">
      <!-- 0.6 -->
      <g transform="translate(22.81375 121.326094) scale(0.1 -0.1)">
       <defs>
        <path id="DejaVuSans-Bold-36" d="M 2316 2303 
Q 2000 2303 1842 2098 
Q 1684 1894 1684 1484 
Q 1684 1075 1842 870 
Q 2000 666 2316 666 
Q 2634 666 2792 870 
Q 2950 1075 2950 1484 
Q 2950 1894 2792 2098 
Q 2634 2303 2316 2303 
z
M 3803 4544 
L 3803 3681 
Q 3506 3822 3243 3889 
Q 2981 3956 2731 3956 
Q 2194 3956 1894 3657 
Q 1594 3359 1544 2772 
Q 1750 2925 1990 3001 
Q 2231 3078 2516 3078 
Q 3231 3078 3670 2659 
Q 4109 2241 4109 1563 
Q 4109 813 3618 361 
Q 3128 -91 2303 -91 
Q 1394 -91 895 523 
Q 397 1138 397 2266 
Q 397 3422 980 4083 
Q 1563 4744 2578 4744 
Q 2900 4744 3203 4694 
Q 3506 4644 3803 4544 
z
" transform="scale(0.015625)"/>
       </defs>
       <use xlink:href="#DejaVuSans-Bold-30"/>
       <use xlink:href="#DejaVuSans-Bold-2e" x="69.580078"/>
       <use xlink:href="#DejaVuSans-Bold-36" x="107.568359"/>
      </g>
     </g>
    </g>
    <g id="ytick_5">
     <g id="line2d_9">
      <g>
       <use xlink:href="#m7bf6fcf156" x="47.527813" y="75.286875" style="stroke: #000000; stroke-width: 0.8"/>
      </g>
     </g>
     <g id="text_10">
      <!-- 0.8 -->
      <g transform="translate(22.81375 79.086094) scale(0.1 -0.1)">
       <defs>
        <path id="DejaVuSans-Bold-38" d="M 2228 2088 
Q 1891 2088 1709 1903 
Q 1528 1719 1528 1375 
Q 1528 1031 1709 848 
Q 1891 666 2228 666 
Q 2563 666 2741 848 
Q 2919 1031 2919 1375 
Q 2919 1722 2741 1905 
Q 2563 2088 2228 2088 
z
M 1350 2484 
Q 925 2613 709 2878 
Q 494 3144 494 3541 
Q 494 4131 934 4440 
Q 1375 4750 2228 4750 
Q 3075 4750 3515 4442 
Q 3956 4134 3956 3541 
Q 3956 3144 3739 2878 
Q 3522 2613 3097 2484 
Q 3572 2353 3814 2058 
Q 4056 1763 4056 1313 
Q 4056 619 3595 264 
Q 3134 -91 2228 -91 
Q 1319 -91 855 264 
Q 391 619 391 1313 
Q 391 1763 633 2058 
Q 875 2353 1350 2484 
z
M 1631 3419 
Q 1631 3141 1786 2991 
Q 1941 2841 2228 2841 
Q 2509 2841 2662 2991 
Q 2816 3141 2816 3419 
Q 2816 3697 2662 3845 
Q 2509 3994 2228 3994 
Q 1941 3994 1786 3844 
Q 1631 3694 1631 3419 
z
" transform="scale(0.015625)"/>
       </defs>
       <use xlink:href="#DejaVuSans-Bold-30"/>
       <use xlink:href="#DejaVuSans-Bold-2e" x="69.580078"/>
       <use xlink:href="#DejaVuSans-Bold-38" x="107.568359"/>
      </g>
     </g>
    </g>
    <g id="ytick_6">
     <g id="line2d_10">
      <g>
       <use xlink:href="#m7bf6fcf156" x="47.527813" y="33.046875" style="stroke: #000000; stroke-width: 0.8"/>
      </g>
     </g>
     <g id="text_11">
      <!-- 1.0 -->
      <g transform="translate(22.81375 36.846094) scale(0.1 -0.1)">
       <use xlink:href="#DejaVuSans-Bold-31"/>
       <use xlink:href="#DejaVuSans-Bold-2e" x="69.580078"/>
       <use xlink:href="#DejaVuSans-Bold-30" x="107.568359"/>
      </g>
     </g>
    </g>
    <g id="text_12">
     <!-- Значення метрик -->
     <g transform="translate(16.318125 193.2675) rotate(-90) scale(0.12 -0.12)">
      <defs>
       <path id="DejaVuSans-Bold-417" d="M 3163 2516 
Q 3634 2394 3879 2092 
Q 4125 1791 4125 1325 
Q 4125 631 3594 270 
Q 3063 -91 1950 -91 
Q 1491 -91 1125 -31 
Q 759 28 422 141 
L 422 1069 
Q 759 900 1092 814 
Q 1425 728 1903 728 
Q 2413 728 2667 893 
Q 2922 1059 2922 1369 
Q 2922 1688 2661 1852 
Q 2400 2016 1797 2016 
L 1222 2016 
L 1222 2791 
L 1822 2791 
Q 2369 2791 2591 2933 
Q 2813 3075 2813 3366 
Q 2813 3634 2597 3781 
Q 2381 3928 1956 3928 
Q 1513 3928 1128 3851 
Q 744 3775 528 3669 
L 528 4550 
Q 738 4622 1198 4686 
Q 1659 4750 1953 4750 
Q 2975 4750 3495 4451 
Q 4016 4153 4016 3553 
Q 4016 3144 3800 2883 
Q 3584 2622 3163 2516 
z
" transform="scale(0.015625)"/>
       <path id="DejaVuSans-Bold-43d" d="M 538 3500 
L 1656 3500 
L 1656 2169 
L 2766 2169 
L 2766 3500 
L 3884 3500 
L 3884 0 
L 2766 0 
L 2766 1478 
L 1656 1478 
L 1656 0 
L 538 0 
L 538 3500 
z
" transform="scale(0.015625)"/>
       <path id="DejaVuSans-Bold-430" d="M 2106 1575 
Q 1756 1575 1579 1456 
Q 1403 1338 1403 1106 
Q 1403 894 1545 773 
Q 1688 653 1941 653 
Q 2256 653 2472 879 
Q 2688 1106 2688 1447 
L 2688 1575 
L 2106 1575 
z
M 3816 1997 
L 3816 0 
L 2688 0 
L 2688 519 
Q 2463 200 2181 54 
Q 1900 -91 1497 -91 
Q 953 -91 614 226 
Q 275 544 275 1050 
Q 275 1666 698 1953 
Q 1122 2241 2028 2241 
L 2688 2241 
L 2688 2328 
Q 2688 2594 2478 2717 
Q 2269 2841 1825 2841 
Q 1466 2841 1156 2769 
Q 847 2697 581 2553 
L 581 3406 
Q 941 3494 1303 3539 
Q 1666 3584 2028 3584 
Q 2975 3584 3395 3211 
Q 3816 2838 3816 1997 
z
" transform="scale(0.015625)"/>
       <path id="DejaVuSans-Bold-447" d="M 2550 0 
L 2550 1353 
L 1400 1353 
Q 931 1353 672 1629 
Q 413 1906 413 2450 
L 413 3500 
L 1531 3500 
L 1531 2878 
Q 1531 2322 1622 2183 
Q 1713 2044 1950 2044 
L 2550 2044 
L 2550 3500 
L 3669 3500 
L 3669 0 
L 2550 0 
z
" transform="scale(0.015625)"/>
       <path id="DejaVuSans-Bold-44f" d="M 1528 2394 
Q 1528 2169 1651 2069 
Q 1775 1969 2059 1969 
L 2463 1969 
L 2463 2816 
L 2059 2816 
Q 1775 2816 1651 2719 
Q 1528 2622 1528 2394 
z
M 197 0 
L 1113 1497 
Q 847 1650 650 1917 
Q 453 2184 453 2516 
Q 453 3013 789 3256 
Q 1125 3500 1878 3500 
L 3581 3500 
L 3581 0 
L 2463 0 
L 2463 1278 
L 2069 1278 
L 1288 0 
L 197 0 
z
" transform="scale(0.015625)"/>
       <path id="DejaVuSans-Bold-20" transform="scale(0.015625)"/>
       <path id="DejaVuSans-Bold-43c" d="M 538 3500 
L 1825 3500 
L 2613 1750 
L 3400 3500 
L 4691 3500 
L 4691 0 
L 3575 0 
L 3575 1984 
L 2984 672 
L 2250 672 
L 1656 1984 
L 1656 0 
L 538 0 
L 538 3500 
z
" transform="scale(0.015625)"/>
      </defs>
      <use xlink:href="#DejaVuSans-Bold-417"/>
      <use xlink:href="#DejaVuSans-Bold-43d" x="71.044922"/>
      <use xlink:href="#DejaVuSans-Bold-430" x="140.136719"/>
      <use xlink:href="#DejaVuSans-Bold-447" x="207.617188"/>
      <use xlink:href="#DejaVuSans-Bold-435" x="276.269531"/>
      <use xlink:href="#DejaVuSans-Bold-43d" x="344.091797"/>
      <use xlink:href="#DejaVuSans-Bold-43d" x="413.183594"/>
      <use xlink:href="#DejaVuSans-Bold-44f" x="482.275391"/>
      <use xlink:href="#DejaVuSans-Bold-20" x="546.484375"/>
      <use xlink:href="#DejaVuSans-Bold-43c" x="581.298828"/>
      <use xlink:href="#DejaVuSans-Bold-435" x="663.037109"/>
      <use xlink:href="#DejaVuSans-Bold-442" x="730.859375"/>
      <use xlink:href="#DejaVuSans-Bold-440" x="788.818359"/>
      <use xlink:href="#DejaVuSans-Bold-438" x="860.400391"/>
      <use xlink:href="#DejaVuSans-Bold-43a" x="930.46875"/>
     </g>
    </g>
   </g>
   <g id="patch_23">
    <path d="M 47.527813 244.246875 
L 47.527813 22.486875 
" style="fill: none; stroke: #000000; stroke-width: 0.8; stroke-linejoin: miter; stroke-linecap: square"/>
   </g>
   <g id="patch_24">
    <path d="M 382.327812 244.246875 
L 382.327812 22.486875 
" style="fill: none; stroke: #000000; stroke-width: 0.8; stroke-linejoin: miter; stroke-linecap: square"/>
   </g>
   <g id="patch_25">
    <path d="M 47.527813 244.246875 
L 382.327812 244.246875 
" style="fill: none; stroke: #000000; stroke-width: 0.8; stroke-linejoin: miter; stroke-linecap: square"/>
   </g>
   <g id="patch_26">
    <path d="M 47.527813 22.486875 
L 382.327812 22.486875 
" style="fill: none; stroke: #000000; stroke-width: 0.8; stroke-linejoin: miter; stroke-linecap: square"/>
   </g>
   <g id="text_13">
    <!-- 94.3 -->
    <g transform="translate(56.628205 55.252903) rotate(-35) scale(0.07 -0.07)">
     <defs>
      <path id="DejaVuSans-Bold-39" d="M 641 103 
L 641 966 
Q 928 831 1190 764 
Q 1453 697 1709 697 
Q 2247 697 2547 995 
Q 2847 1294 2900 1881 
Q 2688 1725 2447 1647 
Q 2206 1569 1925 1569 
Q 1209 1569 770 1986 
Q 331 2403 331 3084 
Q 331 3838 820 4291 
Q 1309 4744 2131 4744 
Q 3044 4744 3544 4128 
Q 4044 3513 4044 2388 
Q 4044 1231 3459 570 
Q 2875 -91 1856 -91 
Q 1528 -91 1228 -42 
Q 928 6 641 103 
z
M 2125 2350 
Q 2441 2350 2600 2554 
Q 2759 2759 2759 3169 
Q 2759 3575 2600 3781 
Q 2441 3988 2125 3988 
Q 1809 3988 1650 3781 
Q 1491 3575 1491 3169 
Q 1491 2759 1650 2554 
Q 1809 2350 2125 2350 
z
" transform="scale(0.015625)"/>
      <path id="DejaVuSans-Bold-33" d="M 2981 2516 
Q 3453 2394 3698 2092 
Q 3944 1791 3944 1325 
Q 3944 631 3412 270 
Q 2881 -91 1863 -91 
Q 1503 -91 1142 -33 
Q 781 25 428 141 
L 428 1069 
Q 766 900 1098 814 
Q 1431 728 1753 728 
Q 2231 728 2486 893 
Q 2741 1059 2741 1369 
Q 2741 1688 2480 1852 
Q 2219 2016 1709 2016 
L 1228 2016 
L 1228 2791 
L 1734 2791 
Q 2188 2791 2409 2933 
Q 2631 3075 2631 3366 
Q 2631 3634 2415 3781 
Q 2200 3928 1806 3928 
Q 1516 3928 1219 3862 
Q 922 3797 628 3669 
L 628 4550 
Q 984 4650 1334 4700 
Q 1684 4750 2022 4750 
Q 2931 4750 3382 4451 
Q 3834 4153 3834 3553 
Q 3834 3144 3618 2883 
Q 3403 2622 2981 2516 
z
" transform="scale(0.015625)"/>
     </defs>
     <use xlink:href="#DejaVuSans-Bold-39"/>
     <use xlink:href="#DejaVuSans-Bold-34" x="69.580078"/>
     <use xlink:href="#DejaVuSans-Bold-2e" x="139.160156"/>
     <use xlink:href="#DejaVuSans-Bold-33" x="177.148438"/>
    </g>
   </g>
   <g id="text_14">
    <!-- 100.0 -->
    <g transform="translate(138.333378 43.87015) rotate(-35) scale(0.07 -0.07)">
     <use xlink:href="#DejaVuSans-Bold-31"/>
     <use xlink:href="#DejaVuSans-Bold-30" x="69.580078"/>
     <use xlink:href="#DejaVuSans-Bold-30" x="139.160156"/>
     <use xlink:href="#DejaVuSans-Bold-2e" x="208.740234"/>
     <use xlink:href="#DejaVuSans-Bold-30" x="246.728516"/>
    </g>
   </g>
   <g id="text_15">
    <!-- 97.1 -->
    <g transform="translate(224.028205 49.727682) rotate(-35) scale(0.07 -0.07)">
     <defs>
      <path id="DejaVuSans-Bold-37" d="M 428 4666 
L 3944 4666 
L 3944 3988 
L 2125 0 
L 953 0 
L 2675 3781 
L 428 3781 
L 428 4666 
z
" transform="scale(0.015625)"/>
     </defs>
     <use xlink:href="#DejaVuSans-Bold-39"/>
     <use xlink:href="#DejaVuSans-Bold-37" x="69.580078"/>
     <use xlink:href="#DejaVuSans-Bold-2e" x="139.160156"/>
     <use xlink:href="#DejaVuSans-Bold-31" x="177.148438"/>
    </g>
   </g>
   <g id="text_16">
    <!-- 79.2 -->
    <g transform="translate(307.728205 85.696962) rotate(-35) scale(0.07 -0.07)">
     <use xlink:href="#DejaVuSans-Bold-37"/>
     <use xlink:href="#DejaVuSans-Bold-39" x="69.580078"/>
     <use xlink:href="#DejaVuSans-Bold-2e" x="139.160156"/>
     <use xlink:href="#DejaVuSans-Bold-32" x="177.148438"/>
    </g>
   </g>
   <g id="text_17">
    <!-- 98.0 -->
    <g transform="translate(70.020205 47.813546) rotate(-35) scale(0.07 -0.07)">
     <use xlink:href="#DejaVuSans-Bold-39"/>
     <use xlink:href="#DejaVuSans-Bold-38" x="69.580078"/>
     <use xlink:href="#DejaVuSans-Bold-2e" x="139.160156"/>
     <use xlink:href="#DejaVuSans-Bold-30" x="177.148438"/>
    </g>
   </g>
   <g id="text_18">
    <!-- 100.0 -->
    <g transform="translate(151.725378 43.87015) rotate(-35) scale(0.07 -0.07)">
     <use xlink:href="#DejaVuSans-Bold-31"/>
     <use xlink:href="#DejaVuSans-Bold-30" x="69.580078"/>
     <use xlink:href="#DejaVuSans-Bold-30" x="139.160156"/>
     <use xlink:href="#DejaVuSans-Bold-2e" x="208.740234"/>
     <use xlink:href="#DejaVuSans-Bold-30" x="246.728516"/>
    </g>
   </g>
   <g id="text_19">
    <!-- 99.0 -->
    <g transform="translate(237.420205 45.861416) rotate(-35) scale(0.07 -0.07)">
     <use xlink:href="#DejaVuSans-Bold-39"/>
     <use xlink:href="#DejaVuSans-Bold-39" x="69.580078"/>
     <use xlink:href="#DejaVuSans-Bold-2e" x="139.160156"/>
     <use xlink:href="#DejaVuSans-Bold-30" x="177.148438"/>
    </g>
   </g>
   <g id="text_20">
    <!-- 77.3 -->
    <g transform="translate(321.120205 89.364852) rotate(-35) scale(0.07 -0.07)">
     <use xlink:href="#DejaVuSans-Bold-37"/>
     <use xlink:href="#DejaVuSans-Bold-37" x="69.580078"/>
     <use xlink:href="#DejaVuSans-Bold-2e" x="139.160156"/>
     <use xlink:href="#DejaVuSans-Bold-33" x="177.148438"/>
    </g>
   </g>
   <g id="text_21">
    <!-- 100.0 -->
    <g transform="translate(81.417378 43.87015) rotate(-35) scale(0.07 -0.07)">
     <use xlink:href="#DejaVuSans-Bold-31"/>
     <use xlink:href="#DejaVuSans-Bold-30" x="69.580078"/>
     <use xlink:href="#DejaVuSans-Bold-30" x="139.160156"/>
     <use xlink:href="#DejaVuSans-Bold-2e" x="208.740234"/>
     <use xlink:href="#DejaVuSans-Bold-30" x="246.728516"/>
    </g>
   </g>
   <g id="text_22">
    <!-- 99.2 -->
    <g transform="translate(167.112205 45.479132) rotate(-35) scale(0.07 -0.07)">
     <use xlink:href="#DejaVuSans-Bold-39"/>
     <use xlink:href="#DejaVuSans-Bold-39" x="69.580078"/>
     <use xlink:href="#DejaVuSans-Bold-2e" x="139.160156"/>
     <use xlink:href="#DejaVuSans-Bold-32" x="177.148438"/>
    </g>
   </g>
   <g id="text_23">
    <!-- 99.6 -->
    <g transform="translate(250.812205 44.67788) rotate(-35) scale(0.07 -0.07)">
     <use xlink:href="#DejaVuSans-Bold-39"/>
     <use xlink:href="#DejaVuSans-Bold-39" x="69.580078"/>
     <use xlink:href="#DejaVuSans-Bold-2e" x="139.160156"/>
     <use xlink:href="#DejaVuSans-Bold-36" x="177.148438"/>
    </g>
   </g>
   <g id="text_24">
    <!-- 78.6 -->
    <g transform="translate(334.512205 86.823069) rotate(-35) scale(0.07 -0.07)">
     <use xlink:href="#DejaVuSans-Bold-37"/>
     <use xlink:href="#DejaVuSans-Bold-38" x="69.580078"/>
     <use xlink:href="#DejaVuSans-Bold-2e" x="139.160156"/>
     <use xlink:href="#DejaVuSans-Bold-36" x="177.148438"/>
    </g>
   </g>
   <g id="text_25">
    <!-- 95.8 -->
    <g transform="translate(96.804205 52.198021) rotate(-35) scale(0.07 -0.07)">
     <defs>
      <path id="DejaVuSans-Bold-35" d="M 678 4666 
L 3669 4666 
L 3669 3781 
L 1638 3781 
L 1638 3059 
Q 1775 3097 1914 3117 
Q 2053 3138 2203 3138 
Q 3056 3138 3531 2711 
Q 4006 2284 4006 1522 
Q 4006 766 3489 337 
Q 2972 -91 2053 -91 
Q 1656 -91 1267 -14 
Q 878 63 494 219 
L 494 1166 
Q 875 947 1217 837 
Q 1559 728 1863 728 
Q 2300 728 2551 942 
Q 2803 1156 2803 1522 
Q 2803 1891 2551 2103 
Q 2300 2316 1863 2316 
Q 1603 2316 1309 2248 
Q 1016 2181 678 2041 
L 678 4666 
z
" transform="scale(0.015625)"/>
     </defs>
     <use xlink:href="#DejaVuSans-Bold-39"/>
     <use xlink:href="#DejaVuSans-Bold-35" x="69.580078"/>
     <use xlink:href="#DejaVuSans-Bold-2e" x="139.160156"/>
     <use xlink:href="#DejaVuSans-Bold-38" x="177.148438"/>
    </g>
   </g>
   <g id="text_26">
    <!-- 100.0 -->
    <g transform="translate(178.509378 43.87015) rotate(-35) scale(0.07 -0.07)">
     <use xlink:href="#DejaVuSans-Bold-31"/>
     <use xlink:href="#DejaVuSans-Bold-30" x="69.580078"/>
     <use xlink:href="#DejaVuSans-Bold-30" x="139.160156"/>
     <use xlink:href="#DejaVuSans-Bold-2e" x="208.740234"/>
     <use xlink:href="#DejaVuSans-Bold-30" x="246.728516"/>
    </g>
   </g>
   <g id="text_27">
    <!-- 97.9 -->
    <g transform="translate(264.204205 48.122332) rotate(-35) scale(0.07 -0.07)">
     <use xlink:href="#DejaVuSans-Bold-39"/>
     <use xlink:href="#DejaVuSans-Bold-37" x="69.580078"/>
     <use xlink:href="#DejaVuSans-Bold-2e" x="139.160156"/>
     <use xlink:href="#DejaVuSans-Bold-39" x="177.148438"/>
    </g>
   </g>
   <g id="text_28">
    <!-- 80.2 -->
    <g transform="translate(347.904205 83.541273) rotate(-35) scale(0.07 -0.07)">
     <use xlink:href="#DejaVuSans-Bold-38"/>
     <use xlink:href="#DejaVuSans-Bold-30" x="69.580078"/>
     <use xlink:href="#DejaVuSans-Bold-2e" x="139.160156"/>
     <use xlink:href="#DejaVuSans-Bold-32" x="177.148438"/>
    </g>
   </g>
   <g id="text_29">
    <!-- 100.0 -->
    <g transform="translate(108.201378 43.87015) rotate(-35) scale(0.07 -0.07)">
     <use xlink:href="#DejaVuSans-Bold-31"/>
     <use xlink:href="#DejaVuSans-Bold-30" x="69.580078"/>
     <use xlink:href="#DejaVuSans-Bold-30" x="139.160156"/>
     <use xlink:href="#DejaVuSans-Bold-2e" x="208.740234"/>
     <use xlink:href="#DejaVuSans-Bold-30" x="246.728516"/>
    </g>
   </g>
   <g id="text_30">
    <!-- 99.7 -->
    <g transform="translate(193.896205 44.513743) rotate(-35) scale(0.07 -0.07)">
     <use xlink:href="#DejaVuSans-Bold-39"/>
     <use xlink:href="#DejaVuSans-Bold-39" x="69.580078"/>
     <use xlink:href="#DejaVuSans-Bold-2e" x="139.160156"/>
     <use xlink:href="#DejaVuSans-Bold-37" x="177.148438"/>
    </g>
   </g>
   <g id="text_31">
    <!-- 99.8 -->
    <g transform="translate(277.596205 44.192463) rotate(-35) scale(0.07 -0.07)">
     <use xlink:href="#DejaVuSans-Bold-39"/>
     <use xlink:href="#DejaVuSans-Bold-39" x="69.580078"/>
     <use xlink:href="#DejaVuSans-Bold-2e" x="139.160156"/>
     <use xlink:href="#DejaVuSans-Bold-38" x="177.148438"/>
    </g>
   </g>
   <g id="text_32">
    <!-- 80.6 -->
    <g transform="translate(361.296205 82.833434) rotate(-35) scale(0.07 -0.07)">
     <use xlink:href="#DejaVuSans-Bold-38"/>
     <use xlink:href="#DejaVuSans-Bold-30" x="69.580078"/>
     <use xlink:href="#DejaVuSans-Bold-2e" x="139.160156"/>
     <use xlink:href="#DejaVuSans-Bold-36" x="177.148438"/>
    </g>
   </g>
   <g id="text_33">
    <!-- Порівняння моделей для емоції: Сум -->
    <g transform="translate(86.16125 16.486875) scale(0.12 -0.12)">
     <defs>
      <path id="DejaVuSans-Bold-41f" d="M 4769 4666 
L 4769 0 
L 3566 0 
L 3566 3756 
L 1791 3756 
L 1791 0 
L 588 0 
L 588 4666 
L 4769 4666 
z
" transform="scale(0.015625)"/>
      <path id="DejaVuSans-Bold-43e" d="M 2203 2784 
Q 1831 2784 1636 2517 
Q 1441 2250 1441 1747 
Q 1441 1244 1636 976 
Q 1831 709 2203 709 
Q 2569 709 2762 976 
Q 2956 1244 2956 1747 
Q 2956 2250 2762 2517 
Q 2569 2784 2203 2784 
z
M 2203 3584 
Q 3106 3584 3614 3096 
Q 4122 2609 4122 1747 
Q 4122 884 3614 396 
Q 3106 -91 2203 -91 
Q 1297 -91 786 396 
Q 275 884 275 1747 
Q 275 2609 786 3096 
Q 1297 3584 2203 3584 
z
" transform="scale(0.015625)"/>
      <path id="DejaVuSans-Bold-456" d="M 538 3500 
L 1656 3500 
L 1656 0 
L 538 0 
L 538 3500 
z
M 538 4863 
L 1656 4863 
L 1656 3950 
L 538 3950 
L 538 4863 
z
" transform="scale(0.015625)"/>
      <path id="DejaVuSans-Bold-432" d="M 2184 2181 
Q 2378 2181 2478 2261 
Q 2578 2341 2578 2497 
Q 2578 2653 2478 2731 
Q 2378 2809 2184 2809 
L 1656 2809 
L 1656 2181 
L 2184 2181 
z
M 2222 700 
Q 2469 700 2594 798 
Q 2719 897 2719 1094 
Q 2719 1288 2594 1384 
Q 2469 1481 2222 1481 
L 1656 1481 
L 1656 700 
L 2222 700 
z
M 538 3500 
L 2141 3500 
Q 2919 3500 3267 3279 
Q 3616 3059 3616 2575 
Q 3616 2319 3487 2139 
Q 3359 1959 3119 1872 
Q 3428 1788 3598 1561 
Q 3769 1334 3769 1003 
Q 3769 497 3403 248 
Q 3038 0 2294 0 
L 538 0 
L 538 3500 
z
" transform="scale(0.015625)"/>
      <path id="DejaVuSans-Bold-434" d="M 547 800 
Q 903 919 1053 1314 
Q 1203 1709 1203 2838 
L 1203 3500 
L 4228 3500 
L 4228 800 
L 4809 800 
L 4809 -884 
L 4009 -884 
L 4009 0 
L 1159 0 
L 1159 -884 
L 359 -884 
L 359 800 
L 547 800 
z
M 3109 2700 
L 2322 2700 
L 2322 2603 
Q 2322 1456 2063 800 
L 3109 800 
L 3109 2700 
z
" transform="scale(0.015625)"/>
      <path id="DejaVuSans-Bold-43b" d="M 353 0 
L 353 800 
Q 906 913 1031 1278 
Q 1125 1556 1125 2928 
L 1125 3500 
L 4150 3500 
L 4150 0 
L 3031 0 
L 3031 2700 
L 2244 2700 
L 2244 2584 
Q 2244 1213 2028 813 
Q 1591 0 353 0 
z
" transform="scale(0.015625)"/>
      <path id="DejaVuSans-Bold-439" d="M 3947 3500 
L 3947 0 
L 2828 0 
L 2828 1863 
L 1700 0 
L 538 0 
L 538 3500 
L 1656 3500 
L 1656 1638 
L 2784 3500 
L 3947 3500 
z
M 1194 4894 
L 1641 4894 
Q 1675 4675 1829 4559 
Q 1984 4444 2244 4444 
Q 2503 4444 2658 4559 
Q 2813 4675 2847 4894 
L 3294 4894 
Q 3275 4444 3003 4205 
Q 2731 3966 2244 3966 
Q 1756 3966 1484 4205 
Q 1213 4444 1194 4894 
z
" transform="scale(0.015625)"/>
      <path id="DejaVuSans-Bold-446" d="M 3666 -884 
L 3666 0 
L 538 0 
L 538 3500 
L 1656 3500 
L 1656 800 
L 2766 800 
L 2766 3500 
L 3884 3500 
L 3884 800 
L 4466 800 
L 4466 -884 
L 3666 -884 
z
" transform="scale(0.015625)"/>
      <path id="DejaVuSans-Bold-457" d="M 538 3500 
L 1656 3500 
L 1656 0 
L 538 0 
L 538 3500 
z
M 109 4953 
L 844 4953 
L 844 4184 
L 109 4184 
L 109 4953 
z
M 1344 4953 
L 2078 4953 
L 2078 4184 
L 1344 4184 
L 1344 4953 
z
" transform="scale(0.015625)"/>
      <path id="DejaVuSans-Bold-3a" d="M 716 3500 
L 1844 3500 
L 1844 2291 
L 716 2291 
L 716 3500 
z
M 716 1209 
L 1844 1209 
L 1844 0 
L 716 0 
L 716 1209 
z
" transform="scale(0.015625)"/>
      <path id="DejaVuSans-Bold-421" d="M 4288 256 
Q 3956 84 3597 -3 
Q 3238 -91 2847 -91 
Q 1681 -91 1000 561 
Q 319 1213 319 2328 
Q 319 3447 1000 4098 
Q 1681 4750 2847 4750 
Q 3238 4750 3597 4662 
Q 3956 4575 4288 4403 
L 4288 3438 
Q 3953 3666 3628 3772 
Q 3303 3878 2944 3878 
Q 2300 3878 1931 3465 
Q 1563 3053 1563 2328 
Q 1563 1606 1931 1193 
Q 2300 781 2944 781 
Q 3303 781 3628 887 
Q 3953 994 4288 1222 
L 4288 256 
z
" transform="scale(0.015625)"/>
      <path id="DejaVuSans-Bold-443" d="M 78 3500 
L 1197 3500 
L 2138 1125 
L 2938 3500 
L 4056 3500 
L 2584 -331 
Q 2363 -916 2067 -1148 
Q 1772 -1381 1288 -1381 
L 641 -1381 
L 641 -647 
L 991 -647 
Q 1275 -647 1404 -556 
Q 1534 -466 1606 -231 
L 1638 -134 
L 78 3500 
z
" transform="scale(0.015625)"/>
     </defs>
     <use xlink:href="#DejaVuSans-Bold-41f"/>
     <use xlink:href="#DejaVuSans-Bold-43e" x="83.691406"/>
     <use xlink:href="#DejaVuSans-Bold-440" x="152.392578"/>
     <use xlink:href="#DejaVuSans-Bold-456" x="223.974609"/>
     <use xlink:href="#DejaVuSans-Bold-432" x="258.251953"/>
     <use xlink:href="#DejaVuSans-Bold-43d" x="321.533203"/>
     <use xlink:href="#DejaVuSans-Bold-44f" x="390.625"/>
     <use xlink:href="#DejaVuSans-Bold-43d" x="454.833984"/>
     <use xlink:href="#DejaVuSans-Bold-43d" x="523.925781"/>
     <use xlink:href="#DejaVuSans-Bold-44f" x="593.017578"/>
     <use xlink:href="#DejaVuSans-Bold-20" x="657.226562"/>
     <use xlink:href="#DejaVuSans-Bold-43c" x="692.041016"/>
     <use xlink:href="#DejaVuSans-Bold-43e" x="773.779297"/>
     <use xlink:href="#DejaVuSans-Bold-434" x="842.480469"/>
     <use xlink:href="#DejaVuSans-Bold-435" x="923.242188"/>
     <use xlink:href="#DejaVuSans-Bold-43b" x="991.064453"/>
     <use xlink:href="#DejaVuSans-Bold-435" x="1064.306641"/>
     <use xlink:href="#DejaVuSans-Bold-439" x="1132.128906"/>
     <use xlink:href="#DejaVuSans-Bold-20" x="1202.197266"/>
     <use xlink:href="#DejaVuSans-Bold-434" x="1237.011719"/>
     <use xlink:href="#DejaVuSans-Bold-43b" x="1317.773438"/>
     <use xlink:href="#DejaVuSans-Bold-44f" x="1391.015625"/>
     <use xlink:href="#DejaVuSans-Bold-20" x="1455.224609"/>
     <use xlink:href="#DejaVuSans-Bold-435" x="1490.039062"/>
     <use xlink:href="#DejaVuSans-Bold-43c" x="1557.861328"/>
     <use xlink:href="#DejaVuSans-Bold-43e" x="1639.599609"/>
     <use xlink:href="#DejaVuSans-Bold-446" x="1708.300781"/>
     <use xlink:href="#DejaVuSans-Bold-456" x="1782.421875"/>
     <use xlink:href="#DejaVuSans-Bold-457" x="1816.699219"/>
     <use xlink:href="#DejaVuSans-Bold-3a" x="1850.976562"/>
     <use xlink:href="#DejaVuSans-Bold-20" x="1890.966797"/>
     <use xlink:href="#DejaVuSans-Bold-421" x="1925.78125"/>
     <use xlink:href="#DejaVuSans-Bold-443" x="1999.169922"/>
     <use xlink:href="#DejaVuSans-Bold-43c" x="2064.355469"/>
    </g>
   </g>
   <g id="legend_1">
    <g id="patch_27">
     <path d="M 64.996563 315.423375 
L 364.859062 315.423375 
Q 366.859062 315.423375 366.859062 313.423375 
L 366.859062 284.510875 
Q 366.859062 282.510875 364.859062 282.510875 
L 64.996563 282.510875 
Q 62.996563 282.510875 62.996563 284.510875 
L 62.996563 313.423375 
Q 62.996563 315.423375 64.996563 315.423375 
z
" style="fill: #ffffff; opacity: 0.8; stroke: #cccccc; stroke-linejoin: miter"/>
    </g>
    <g id="patch_28">
     <path d="M 66.996563 294.109313 
L 86.996563 294.109313 
L 86.996563 287.109313 
L 66.996563 287.109313 
z
" style="fill: #ddeed9"/>
    </g>
    <g id="text_34">
     <!-- Модель_1 -->
     <g transform="translate(94.996563 294.109313) scale(0.1 -0.1)">
      <defs>
       <path id="DejaVuSans-Bold-44c" d="M 2719 1094 
Q 2719 1291 2594 1388 
Q 2472 1481 2222 1481 
L 1656 1481 
L 1656 700 
L 2222 700 
Q 2469 700 2594 800 
Q 2719 897 2719 1094 
z
M 538 3500 
L 1656 3500 
L 1656 2172 
L 2291 2172 
Q 3000 2172 3381 1913 
Q 3766 1650 3766 1081 
Q 3766 513 3381 256 
Q 3000 0 2291 0 
L 538 0 
L 538 3500 
z
" transform="scale(0.015625)"/>
       <path id="DejaVuSans-Bold-5f" d="M 3200 -916 
L 3200 -1509 
L 0 -1509 
L 0 -916 
L 3200 -916 
z
" transform="scale(0.015625)"/>
      </defs>
      <use xlink:href="#DejaVuSans-Bold-41c"/>
      <use xlink:href="#DejaVuSans-Bold-43e" x="99.511719"/>
      <use xlink:href="#DejaVuSans-Bold-434" x="168.212891"/>
      <use xlink:href="#DejaVuSans-Bold-435" x="248.974609"/>
      <use xlink:href="#DejaVuSans-Bold-43b" x="316.796875"/>
      <use xlink:href="#DejaVuSans-Bold-44c" x="390.039062"/>
      <use xlink:href="#DejaVuSans-Bold-5f" x="453.271484"/>
      <use xlink:href="#DejaVuSans-Bold-31" x="503.271484"/>
     </g>
    </g>
    <g id="patch_29">
     <path d="M 66.996563 309.065562 
L 86.996563 309.065562 
L 86.996563 302.065562 
L 66.996563 302.065562 
z
" style="fill: #b3d7ae"/>
    </g>
    <g id="text_35">
     <!-- Модель_2 -->
     <g transform="translate(94.996563 309.065562) scale(0.1 -0.1)">
      <use xlink:href="#DejaVuSans-Bold-41c"/>
      <use xlink:href="#DejaVuSans-Bold-43e" x="99.511719"/>
      <use xlink:href="#DejaVuSans-Bold-434" x="168.212891"/>
      <use xlink:href="#DejaVuSans-Bold-435" x="248.974609"/>
      <use xlink:href="#DejaVuSans-Bold-43b" x="316.796875"/>
      <use xlink:href="#DejaVuSans-Bold-44c" x="390.039062"/>
      <use xlink:href="#DejaVuSans-Bold-5f" x="453.271484"/>
      <use xlink:href="#DejaVuSans-Bold-32" x="503.271484"/>
     </g>
    </g>
    <g id="patch_30">
     <path d="M 172.284063 294.109313 
L 192.284063 294.109313 
L 192.284063 287.109313 
L 172.284063 287.109313 
z
" style="fill: #7dba7f"/>
    </g>
    <g id="text_36">
     <!-- Модель_3 -->
     <g transform="translate(200.284063 294.109313) scale(0.1 -0.1)">
      <use xlink:href="#DejaVuSans-Bold-41c"/>
      <use xlink:href="#DejaVuSans-Bold-43e" x="99.511719"/>
      <use xlink:href="#DejaVuSans-Bold-434" x="168.212891"/>
      <use xlink:href="#DejaVuSans-Bold-435" x="248.974609"/>
      <use xlink:href="#DejaVuSans-Bold-43b" x="316.796875"/>
      <use xlink:href="#DejaVuSans-Bold-44c" x="390.039062"/>
      <use xlink:href="#DejaVuSans-Bold-5f" x="453.271484"/>
      <use xlink:href="#DejaVuSans-Bold-33" x="503.271484"/>
     </g>
    </g>
    <g id="patch_31">
     <path d="M 172.284063 309.065562 
L 192.284063 309.065562 
L 192.284063 302.065562 
L 172.284063 302.065562 
z
" style="fill: #44935b"/>
    </g>
    <g id="text_37">
     <!-- Модель_4 -->
     <g transform="translate(200.284063 309.065562) scale(0.1 -0.1)">
      <use xlink:href="#DejaVuSans-Bold-41c"/>
      <use xlink:href="#DejaVuSans-Bold-43e" x="99.511719"/>
      <use xlink:href="#DejaVuSans-Bold-434" x="168.212891"/>
      <use xlink:href="#DejaVuSans-Bold-435" x="248.974609"/>
      <use xlink:href="#DejaVuSans-Bold-43b" x="316.796875"/>
      <use xlink:href="#DejaVuSans-Bold-44c" x="390.039062"/>
      <use xlink:href="#DejaVuSans-Bold-5f" x="453.271484"/>
      <use xlink:href="#DejaVuSans-Bold-34" x="503.271484"/>
     </g>
    </g>
    <g id="patch_32">
     <path d="M 277.571563 294.109313 
L 297.571563 294.109313 
L 297.571563 287.109313 
L 277.571563 287.109313 
z
" style="fill: #196937"/>
    </g>
    <g id="text_38">
     <!-- Модель_5 -->
     <g transform="translate(305.571563 294.109313) scale(0.1 -0.1)">
      <use xlink:href="#DejaVuSans-Bold-41c"/>
      <use xlink:href="#DejaVuSans-Bold-43e" x="99.511719"/>
      <use xlink:href="#DejaVuSans-Bold-434" x="168.212891"/>
      <use xlink:href="#DejaVuSans-Bold-435" x="248.974609"/>
      <use xlink:href="#DejaVuSans-Bold-43b" x="316.796875"/>
      <use xlink:href="#DejaVuSans-Bold-44c" x="390.039062"/>
      <use xlink:href="#DejaVuSans-Bold-5f" x="453.271484"/>
      <use xlink:href="#DejaVuSans-Bold-35" x="503.271484"/>
     </g>
    </g>
   </g>
  </g>
 </g>
 <defs>
  <clipPath id="pa4c3c795a1">
   <rect x="47.527813" y="22.486875" width="334.8" height="221.76"/>
  </clipPath>
 </defs>
</svg>
