<?xml version="1.0" encoding="utf-8" standalone="no"?>
<!DOCTYPE svg PUBLIC "-//W3C//DTD SVG 1.1//EN"
  "http://www.w3.org/Graphics/SVG/1.1/DTD/svg11.dtd">
<svg xmlns:xlink="http://www.w3.org/1999/xlink" width="247.595306pt" height="180.72pt" viewBox="0 0 247.595306 180.72" xmlns="http://www.w3.org/2000/svg" version="1.1">
 <metadata>
  <rdf:RDF xmlns:dc="http://purl.org/dc/elements/1.1/" xmlns:cc="http://creativecommons.org/ns#" xmlns:rdf="http://www.w3.org/1999/02/22-rdf-syntax-ns#">
   <cc:Work>
    <dc:type rdf:resource="http://purl.org/dc/dcmitype/StillImage"/>
    <dc:date>2025-05-09T18:38:28.721987</dc:date>
    <dc:format>image/svg+xml</dc:format>
    <dc:creator>
     <cc:Agent>
      <dc:title>Matplotlib v3.6.2, https://matplotlib.org/</dc:title>
     </cc:Agent>
    </dc:creator>
   </cc:Work>
  </rdf:RDF>
 </metadata>
 <defs>
  <style type="text/css">*{stroke-linejoin: round; stroke-linecap: butt}</style>
 </defs>
 <g id="figure_1">
  <g id="patch_1">
   <path d="M 0 180.72 
L 247.595306 180.72 
L 247.595306 0 
L 0 0 
z
" style="fill: #ffffff"/>
  </g>
  <g id="axes_1">
   <g id="patch_2">
    <path d="M 17.195306 173.52 
L 240.395306 173.52 
L 240.395306 7.2 
L 17.195306 7.2 
z
" style="fill: #ffffff"/>
   </g>
   <g id="PathCollection_1">
    <defs>
     <path id="m9b92cab652" d="M -3.535534 3.535534 
L 3.535534 -3.535534 
M -3.535534 -3.535534 
L 3.535534 3.535534 
" style="stroke: #6495ed; stroke-width: 1.5"/>
    </defs>
    <g clip-path="url(#pbabf2b493c)">
     <use xlink:href="#m9b92cab652" x="54.395306" y="34.92" style="fill: #6495ed; stroke: #6495ed; stroke-width: 1.5"/>
     <use xlink:href="#m9b92cab652" x="72.995306" y="21.06" style="fill: #6495ed; stroke: #6495ed; stroke-width: 1.5"/>
     <use xlink:href="#m9b92cab652" x="91.595306" y="43.236" style="fill: #6495ed; stroke: #6495ed; stroke-width: 1.5"/>
     <use xlink:href="#m9b92cab652" x="65.555306" y="54.324" style="fill: #6495ed; stroke: #6495ed; stroke-width: 1.5"/>
     <use xlink:href="#m9b92cab652" x="80.435306" y="62.64" style="fill: #6495ed; stroke: #6495ed; stroke-width: 1.5"/>
     <use xlink:href="#m9b92cab652" x="46.955306" y="70.956" style="fill: #6495ed; stroke: #6495ed; stroke-width: 1.5"/>
     <use xlink:href="#m9b92cab652" x="102.755306" y="26.604" style="fill: #6495ed; stroke: #6495ed; stroke-width: 1.5"/>
     <use xlink:href="#m9b92cab652" x="61.835306" y="48.78" style="fill: #6495ed; stroke: #6495ed; stroke-width: 1.5"/>
     <use xlink:href="#m9b92cab652" x="84.155306" y="76.5" style="fill: #6495ed; stroke: #6495ed; stroke-width: 1.5"/>
     <use xlink:href="#m9b92cab652" x="110.195306" y="57.096" style="fill: #6495ed; stroke: #6495ed; stroke-width: 1.5"/>
     <use xlink:href="#m9b92cab652" x="117.635306" y="82.044" style="fill: #6495ed; stroke: #6495ed; stroke-width: 1.5"/>
    </g>
   </g>
   <g id="PathCollection_2">
    <defs>
     <path id="m7cbe032934" d="M 0 3.535534 
C 0.937635 3.535534 1.836992 3.163008 2.5 2.5 
C 3.163008 1.836992 3.535534 0.937635 3.535534 0 
C 3.535534 -0.937635 3.163008 -1.836992 2.5 -2.5 
C 1.836992 -3.163008 0.937635 -3.535534 0 -3.535534 
C -0.937635 -3.535534 -1.836992 -3.163008 -2.5 -2.5 
C -3.163008 -1.836992 -3.535534 -0.937635 -3.535534 0 
C -3.535534 0.937635 -3.163008 1.836992 -2.5 2.5 
C -1.836992 3.163008 -0.937635 3.535534 0 3.535534 
z
" style="stroke: #6495ed"/>
    </defs>
    <g clip-path="url(#pbabf2b493c)">
     <use xlink:href="#m7cbe032934" x="147.395306" y="131.94" style="fill: #6495ed; stroke: #6495ed"/>
     <use xlink:href="#m7cbe032934" x="165.995306" y="118.08" style="fill: #6495ed; stroke: #6495ed"/>
     <use xlink:href="#m7cbe032934" x="184.595306" y="137.484" style="fill: #6495ed; stroke: #6495ed"/>
     <use xlink:href="#m7cbe032934" x="139.955306" y="126.396" style="fill: #6495ed; stroke: #6495ed"/>
     <use xlink:href="#m7cbe032934" x="154.835306" y="145.8" style="fill: #6495ed; stroke: #6495ed"/>
     <use xlink:href="#m7cbe032934" x="192.035306" y="123.624" style="fill: #6495ed; stroke: #6495ed"/>
     <use xlink:href="#m7cbe032934" x="177.155306" y="151.344" style="fill: #6495ed; stroke: #6495ed"/>
     <use xlink:href="#m7cbe032934" x="128.795306" y="137.484" style="fill: #6495ed; stroke: #6495ed"/>
     <use xlink:href="#m7cbe032934" x="203.195306" y="131.94" style="fill: #6495ed; stroke: #6495ed"/>
     <use xlink:href="#m7cbe032934" x="158.555306" y="109.764" style="fill: #6495ed; stroke: #6495ed"/>
     <use xlink:href="#m7cbe032934" x="121.355306" y="104.22" style="fill: #6495ed; stroke: #6495ed"/>
     <use xlink:href="#m7cbe032934" x="102.755306" y="90.36" style="fill: #6495ed; stroke: #6495ed"/>
    </g>
   </g>
   <g id="matplotlib.axis_1"/>
   <g id="matplotlib.axis_2"/>
   <g id="patch_3">
    <path d="M 35.795306 173.52 
L 35.795306 7.2 
" style="fill: none; stroke: #000000; stroke-width: 1.5; stroke-linejoin: miter; stroke-linecap: square"/>
   </g>
   <g id="patch_4">
    <path d="M 17.195306 159.66 
L 240.395306 159.66 
" style="fill: none; stroke: #000000; stroke-width: 1.5; stroke-linejoin: miter; stroke-linecap: square"/>
   </g>
   <g id="patch_5">
    <path d="M 41.144225 159.66 
Q 125.076586 159.66 207.331897 159.66 
" style="fill: none; stroke: #000000; stroke-width: 1.5; stroke-linecap: round"/>
    <path d="M 203.331897 157.66 
L 207.331897 159.66 
L 203.331897 161.66 
" style="fill: none; stroke: #000000; stroke-width: 1.5; stroke-linecap: round"/>
   </g>
   <g id="patch_6">
    <path d="M 35.795306 155.859489 
Q 35.795306 86.201 35.795306 18.219562 
" style="fill: none; stroke: #000000; stroke-width: 1.5; stroke-linecap: round"/>
    <path d="M 33.795306 22.219562 
L 35.795306 18.219562 
L 37.795306 22.219562 
" style="fill: none; stroke: #000000; stroke-width: 1.5; stroke-linecap: round"/>
   </g>
   <g id="text_1">
    <!-- (b) -->
    <g transform="translate(7.2 34.541965) scale(0.14 -0.14)">
     <defs>
      <path id="DejaVuSans-Bold-28" d="M 2413 -844 
L 1484 -844 
Q 1006 -72 778 623 
Q 550 1319 550 2003 
Q 550 2688 779 3389 
Q 1009 4091 1484 4856 
L 2413 4856 
Q 2013 4116 1813 3408 
Q 1613 2700 1613 2009 
Q 1613 1319 1811 609 
Q 2009 -100 2413 -844 
z
" transform="scale(0.015625)"/>
      <path id="DejaVuSans-Bold-62" d="M 2400 722 
Q 2759 722 2948 984 
Q 3138 1247 3138 1747 
Q 3138 2247 2948 2509 
Q 2759 2772 2400 2772 
Q 2041 2772 1848 2508 
Q 1656 2244 1656 1747 
Q 1656 1250 1848 986 
Q 2041 722 2400 722 
z
M 1656 2988 
Q 1888 3294 2169 3439 
Q 2450 3584 2816 3584 
Q 3463 3584 3878 3070 
Q 4294 2556 4294 1747 
Q 4294 938 3878 423 
Q 3463 -91 2816 -91 
Q 2450 -91 2169 54 
Q 1888 200 1656 506 
L 1656 0 
L 538 0 
L 538 4863 
L 1656 4863 
L 1656 2988 
z
" transform="scale(0.015625)"/>
      <path id="DejaVuSans-Bold-29" d="M 513 -844 
Q 913 -100 1113 609 
Q 1313 1319 1313 2009 
Q 1313 2700 1113 3408 
Q 913 4116 513 4856 
L 1441 4856 
Q 1916 4091 2145 3389 
Q 2375 2688 2375 2003 
Q 2375 1319 2147 623 
Q 1919 -72 1441 -844 
L 513 -844 
z
" transform="scale(0.015625)"/>
     </defs>
     <use xlink:href="#DejaVuSans-Bold-28"/>
     <use xlink:href="#DejaVuSans-Bold-62" x="45.703125"/>
     <use xlink:href="#DejaVuSans-Bold-29" x="117.285156"/>
    </g>
   </g>
  </g>
 </g>
 <defs>
  <clipPath id="pbabf2b493c">
   <rect x="17.195306" y="7.2" width="223.2" height="166.32"/>
  </clipPath>
 </defs>
</svg>
