<?xml version="1.0" encoding="utf-8" standalone="no"?>
<!DOCTYPE svg PUBLIC "-//W3C//DTD SVG 1.1//EN"
  "http://www.w3.org/Graphics/SVG/1.1/DTD/svg11.dtd">
<svg xmlns:xlink="http://www.w3.org/1999/xlink" width="419.150625pt" height="239.065313pt" viewBox="0 0 419.150625 239.065313" xmlns="http://www.w3.org/2000/svg" version="1.1">
 <metadata>
  <rdf:RDF xmlns:dc="http://purl.org/dc/elements/1.1/" xmlns:cc="http://creativecommons.org/ns#" xmlns:rdf="http://www.w3.org/1999/02/22-rdf-syntax-ns#">
   <cc:Work>
    <dc:type rdf:resource="http://purl.org/dc/dcmitype/StillImage"/>
    <dc:date>2026-01-12T17:42:08.482483</dc:date>
    <dc:format>image/svg+xml</dc:format>
    <dc:creator>
     <cc:Agent>
      <dc:title>Matplotlib v3.10.6, https://matplotlib.org/</dc:title>
     </cc:Agent>
    </dc:creator>
   </cc:Work>
  </rdf:RDF>
 </metadata>
 <defs>
  <style type="text/css">*{stroke-linejoin: round; stroke-linecap: butt}</style>
 </defs>
 <g id="figure_1">
  <g id="patch_1">
   <path d="M -0 239.065313 
L 419.150625 239.065313 
L 419.150625 0 
L -0 0 
z
" style="fill: #ffffff"/>
  </g>
  <g id="axes_1">
   <g id="patch_2">
    <path d="M 52.570625 211.657813 
L 411.950625 211.657813 
L 411.950625 23.837812 
L 52.570625 23.837812 
z
" style="fill: #fbfbf8"/>
   </g>
   <g id="matplotlib.axis_1">
    <g id="xtick_1">
     <g id="line2d_1">
      <defs>
       <path id="m6e03b59555" d="M 0 0 
L 0 5 
" style="stroke: #1f2937; stroke-width: 1.05"/>
      </defs>
      <g>
       <use xlink:href="#m6e03b59555" x="111.257258" y="211.657813" style="fill: #1f2937; stroke: #1f2937; stroke-width: 1.05"/>
      </g>
     </g>
     <g id="text_1">
      <!-- Crack -->
      <g transform="translate(92.299133 229.275937) scale(0.12 -0.12)">
       <defs>
        <path id="DejaVuSans-Bold-43" d="M 4288 256 
Q 3956 84 3597 -3 
Q 3238 -91 2847 -91 
Q 1681 -91 1000 561 
Q 319 1213 319 2328 
Q 319 3447 1000 4098 
Q 1681 4750 2847 4750 
Q 3238 4750 3597 4662 
Q 3956 4575 4288 4403 
L 4288 3438 
Q 3953 3666 3628 3772 
Q 3303 3878 2944 3878 
Q 2300 3878 1931 3465 
Q 1563 3053 1563 2328 
Q 1563 1606 1931 1193 
Q 2300 781 2944 781 
Q 3303 781 3628 887 
Q 3953 994 4288 1222 
L 4288 256 
z
" transform="scale(0.015625)"/>
        <path id="DejaVuSans-Bold-72" d="M 3138 2547 
Q 2991 2616 2845 2648 
Q 2700 2681 2553 2681 
Q 2122 2681 1889 2404 
Q 1656 2128 1656 1613 
L 1656 0 
L 538 0 
L 538 3500 
L 1656 3500 
L 1656 2925 
Q 1872 3269 2151 3426 
Q 2431 3584 2822 3584 
Q 2878 3584 2943 3579 
Q 3009 3575 3134 3559 
L 3138 2547 
z
" transform="scale(0.015625)"/>
        <path id="DejaVuSans-Bold-61" d="M 2106 1575 
Q 1756 1575 1579 1456 
Q 1403 1338 1403 1106 
Q 1403 894 1545 773 
Q 1688 653 1941 653 
Q 2256 653 2472 879 
Q 2688 1106 2688 1447 
L 2688 1575 
L 2106 1575 
z
M 3816 1997 
L 3816 0 
L 2688 0 
L 2688 519 
Q 2463 200 2181 54 
Q 1900 -91 1497 -91 
Q 953 -91 614 226 
Q 275 544 275 1050 
Q 275 1666 698 1953 
Q 1122 2241 2028 2241 
L 2688 2241 
L 2688 2328 
Q 2688 2594 2478 2717 
Q 2269 2841 1825 2841 
Q 1466 2841 1156 2769 
Q 847 2697 581 2553 
L 581 3406 
Q 941 3494 1303 3539 
Q 1666 3584 2028 3584 
Q 2975 3584 3395 3211 
Q 3816 2838 3816 1997 
z
" transform="scale(0.015625)"/>
        <path id="DejaVuSans-Bold-63" d="M 3366 3391 
L 3366 2478 
Q 3138 2634 2908 2709 
Q 2678 2784 2431 2784 
Q 1963 2784 1702 2511 
Q 1441 2238 1441 1747 
Q 1441 1256 1702 982 
Q 1963 709 2431 709 
Q 2694 709 2930 787 
Q 3166 866 3366 1019 
L 3366 103 
Q 3103 6 2833 -42 
Q 2563 -91 2291 -91 
Q 1344 -91 809 395 
Q 275 881 275 1747 
Q 275 2613 809 3098 
Q 1344 3584 2291 3584 
Q 2566 3584 2833 3536 
Q 3100 3488 3366 3391 
z
" transform="scale(0.015625)"/>
        <path id="DejaVuSans-Bold-6b" d="M 538 4863 
L 1656 4863 
L 1656 2216 
L 2944 3500 
L 4244 3500 
L 2534 1894 
L 4378 0 
L 3022 0 
L 1656 1459 
L 1656 0 
L 538 0 
L 538 4863 
z
" transform="scale(0.015625)"/>
       </defs>
       <use xlink:href="#DejaVuSans-Bold-43"/>
       <use xlink:href="#DejaVuSans-Bold-72" transform="translate(73.388672 0)"/>
       <use xlink:href="#DejaVuSans-Bold-61" transform="translate(122.705078 0)"/>
       <use xlink:href="#DejaVuSans-Bold-63" transform="translate(190.185547 0)"/>
       <use xlink:href="#DejaVuSans-Bold-6b" transform="translate(249.462891 0)"/>
      </g>
     </g>
    </g>
    <g id="xtick_2">
     <g id="line2d_2">
      <g>
       <use xlink:href="#m6e03b59555" x="232.260625" y="211.657813" style="fill: #1f2937; stroke: #1f2937; stroke-width: 1.05"/>
      </g>
     </g>
     <g id="text_2">
      <!-- Soiling -->
      <g transform="translate(209.080938 229.275937) scale(0.12 -0.12)">
       <defs>
        <path id="DejaVuSans-Bold-53" d="M 3834 4519 
L 3834 3531 
Q 3450 3703 3084 3790 
Q 2719 3878 2394 3878 
Q 1963 3878 1756 3759 
Q 1550 3641 1550 3391 
Q 1550 3203 1689 3098 
Q 1828 2994 2194 2919 
L 2706 2816 
Q 3484 2659 3812 2340 
Q 4141 2022 4141 1434 
Q 4141 663 3683 286 
Q 3225 -91 2284 -91 
Q 1841 -91 1394 -6 
Q 947 78 500 244 
L 500 1259 
Q 947 1022 1364 901 
Q 1781 781 2169 781 
Q 2563 781 2772 912 
Q 2981 1044 2981 1288 
Q 2981 1506 2839 1625 
Q 2697 1744 2272 1838 
L 1806 1941 
Q 1106 2091 782 2419 
Q 459 2747 459 3303 
Q 459 4000 909 4375 
Q 1359 4750 2203 4750 
Q 2588 4750 2994 4692 
Q 3400 4634 3834 4519 
z
" transform="scale(0.015625)"/>
        <path id="DejaVuSans-Bold-6f" d="M 2203 2784 
Q 1831 2784 1636 2517 
Q 1441 2250 1441 1747 
Q 1441 1244 1636 976 
Q 1831 709 2203 709 
Q 2569 709 2762 976 
Q 2956 1244 2956 1747 
Q 2956 2250 2762 2517 
Q 2569 2784 2203 2784 
z
M 2203 3584 
Q 3106 3584 3614 3096 
Q 4122 2609 4122 1747 
Q 4122 884 3614 396 
Q 3106 -91 2203 -91 
Q 1297 -91 786 396 
Q 275 884 275 1747 
Q 275 2609 786 3096 
Q 1297 3584 2203 3584 
z
" transform="scale(0.015625)"/>
        <path id="DejaVuSans-Bold-69" d="M 538 3500 
L 1656 3500 
L 1656 0 
L 538 0 
L 538 3500 
z
M 538 4863 
L 1656 4863 
L 1656 3950 
L 538 3950 
L 538 4863 
z
" transform="scale(0.015625)"/>
        <path id="DejaVuSans-Bold-6c" d="M 538 4863 
L 1656 4863 
L 1656 0 
L 538 0 
L 538 4863 
z
" transform="scale(0.015625)"/>
        <path id="DejaVuSans-Bold-6e" d="M 4056 2131 
L 4056 0 
L 2931 0 
L 2931 347 
L 2931 1631 
Q 2931 2084 2911 2256 
Q 2891 2428 2841 2509 
Q 2775 2619 2662 2680 
Q 2550 2741 2406 2741 
Q 2056 2741 1856 2470 
Q 1656 2200 1656 1722 
L 1656 0 
L 538 0 
L 538 3500 
L 1656 3500 
L 1656 2988 
Q 1909 3294 2193 3439 
Q 2478 3584 2822 3584 
Q 3428 3584 3742 3212 
Q 4056 2841 4056 2131 
z
" transform="scale(0.015625)"/>
        <path id="DejaVuSans-Bold-67" d="M 2919 594 
Q 2688 288 2409 144 
Q 2131 0 1766 0 
Q 1125 0 706 504 
Q 288 1009 288 1791 
Q 288 2575 706 3076 
Q 1125 3578 1766 3578 
Q 2131 3578 2409 3434 
Q 2688 3291 2919 2981 
L 2919 3500 
L 4044 3500 
L 4044 353 
Q 4044 -491 3511 -936 
Q 2978 -1381 1966 -1381 
Q 1638 -1381 1331 -1331 
Q 1025 -1281 716 -1178 
L 716 -306 
Q 1009 -475 1290 -558 
Q 1572 -641 1856 -641 
Q 2406 -641 2662 -400 
Q 2919 -159 2919 353 
L 2919 594 
z
M 2181 2772 
Q 1834 2772 1640 2515 
Q 1447 2259 1447 1791 
Q 1447 1309 1634 1061 
Q 1822 813 2181 813 
Q 2531 813 2725 1069 
Q 2919 1325 2919 1791 
Q 2919 2259 2725 2515 
Q 2531 2772 2181 2772 
z
" transform="scale(0.015625)"/>
       </defs>
       <use xlink:href="#DejaVuSans-Bold-53"/>
       <use xlink:href="#DejaVuSans-Bold-6f" transform="translate(72.021484 0)"/>
       <use xlink:href="#DejaVuSans-Bold-69" transform="translate(140.722656 0)"/>
       <use xlink:href="#DejaVuSans-Bold-6c" transform="translate(175 0)"/>
       <use xlink:href="#DejaVuSans-Bold-69" transform="translate(209.277344 0)"/>
       <use xlink:href="#DejaVuSans-Bold-6e" transform="translate(243.554688 0)"/>
       <use xlink:href="#DejaVuSans-Bold-67" transform="translate(314.746094 0)"/>
      </g>
     </g>
    </g>
    <g id="xtick_3">
     <g id="line2d_3">
      <g>
       <use xlink:href="#m6e03b59555" x="353.263992" y="211.657813" style="fill: #1f2937; stroke: #1f2937; stroke-width: 1.05"/>
      </g>
     </g>
     <g id="text_3">
      <!-- Delamination -->
      <g transform="translate(308.15993 229.275937) scale(0.12 -0.12)">
       <defs>
        <path id="DejaVuSans-Bold-44" d="M 1791 3756 
L 1791 909 
L 2222 909 
Q 2959 909 3348 1275 
Q 3738 1641 3738 2338 
Q 3738 3031 3350 3393 
Q 2963 3756 2222 3756 
L 1791 3756 
z
M 588 4666 
L 1856 4666 
Q 2919 4666 3439 4514 
Q 3959 4363 4331 4000 
Q 4659 3684 4818 3271 
Q 4978 2859 4978 2338 
Q 4978 1809 4818 1395 
Q 4659 981 4331 666 
Q 3956 303 3431 151 
Q 2906 0 1856 0 
L 588 0 
L 588 4666 
z
" transform="scale(0.015625)"/>
        <path id="DejaVuSans-Bold-65" d="M 4031 1759 
L 4031 1441 
L 1416 1441 
Q 1456 1047 1700 850 
Q 1944 653 2381 653 
Q 2734 653 3104 758 
Q 3475 863 3866 1075 
L 3866 213 
Q 3469 63 3072 -14 
Q 2675 -91 2278 -91 
Q 1328 -91 801 392 
Q 275 875 275 1747 
Q 275 2603 792 3093 
Q 1309 3584 2216 3584 
Q 3041 3584 3536 3087 
Q 4031 2591 4031 1759 
z
M 2881 2131 
Q 2881 2450 2695 2645 
Q 2509 2841 2209 2841 
Q 1884 2841 1681 2658 
Q 1478 2475 1428 2131 
L 2881 2131 
z
" transform="scale(0.015625)"/>
        <path id="DejaVuSans-Bold-6d" d="M 3781 2919 
Q 3994 3244 4286 3414 
Q 4578 3584 4928 3584 
Q 5531 3584 5847 3212 
Q 6163 2841 6163 2131 
L 6163 0 
L 5038 0 
L 5038 1825 
Q 5041 1866 5042 1909 
Q 5044 1953 5044 2034 
Q 5044 2406 4934 2573 
Q 4825 2741 4581 2741 
Q 4263 2741 4089 2478 
Q 3916 2216 3909 1719 
L 3909 0 
L 2784 0 
L 2784 1825 
Q 2784 2406 2684 2573 
Q 2584 2741 2328 2741 
Q 2006 2741 1831 2477 
Q 1656 2213 1656 1722 
L 1656 0 
L 531 0 
L 531 3500 
L 1656 3500 
L 1656 2988 
Q 1863 3284 2130 3434 
Q 2397 3584 2719 3584 
Q 3081 3584 3359 3409 
Q 3638 3234 3781 2919 
z
" transform="scale(0.015625)"/>
        <path id="DejaVuSans-Bold-74" d="M 1759 4494 
L 1759 3500 
L 2913 3500 
L 2913 2700 
L 1759 2700 
L 1759 1216 
Q 1759 972 1856 886 
Q 1953 800 2241 800 
L 2816 800 
L 2816 0 
L 1856 0 
Q 1194 0 917 276 
Q 641 553 641 1216 
L 641 2700 
L 84 2700 
L 84 3500 
L 641 3500 
L 641 4494 
L 1759 4494 
z
" transform="scale(0.015625)"/>
       </defs>
       <use xlink:href="#DejaVuSans-Bold-44"/>
       <use xlink:href="#DejaVuSans-Bold-65" transform="translate(83.007812 0)"/>
       <use xlink:href="#DejaVuSans-Bold-6c" transform="translate(150.830078 0)"/>
       <use xlink:href="#DejaVuSans-Bold-61" transform="translate(185.107422 0)"/>
       <use xlink:href="#DejaVuSans-Bold-6d" transform="translate(252.587891 0)"/>
       <use xlink:href="#DejaVuSans-Bold-69" transform="translate(356.787109 0)"/>
       <use xlink:href="#DejaVuSans-Bold-6e" transform="translate(391.064453 0)"/>
       <use xlink:href="#DejaVuSans-Bold-61" transform="translate(462.255859 0)"/>
       <use xlink:href="#DejaVuSans-Bold-74" transform="translate(529.736328 0)"/>
       <use xlink:href="#DejaVuSans-Bold-69" transform="translate(577.539062 0)"/>
       <use xlink:href="#DejaVuSans-Bold-6f" transform="translate(611.816406 0)"/>
       <use xlink:href="#DejaVuSans-Bold-6e" transform="translate(680.517578 0)"/>
      </g>
     </g>
    </g>
   </g>
   <g id="matplotlib.axis_2">
    <g id="ytick_1">
     <g id="line2d_4">
      <path d="M 52.570625 211.657813 
L 411.950625 211.657813 
" clip-path="url(#p40d3cfd341)" style="fill: none; stroke: #c7ccd6; stroke-opacity: 0.7; stroke-width: 0.9; stroke-linecap: square"/>
     </g>
     <g id="line2d_5">
      <defs>
       <path id="mfd5aa5b7b2" d="M 0 0 
L -5 0 
" style="stroke: #1f2937; stroke-width: 1.05"/>
      </defs>
      <g>
       <use xlink:href="#mfd5aa5b7b2" x="52.570625" y="211.657813" style="fill: #1f2937; stroke: #1f2937; stroke-width: 1.05"/>
      </g>
     </g>
     <g id="text_4">
      <!-- 0.0 -->
      <g transform="translate(22.81375 216.216875) scale(0.12 -0.12)">
       <defs>
        <path id="DejaVuSans-Bold-30" d="M 2944 2338 
Q 2944 3213 2780 3570 
Q 2616 3928 2228 3928 
Q 1841 3928 1675 3570 
Q 1509 3213 1509 2338 
Q 1509 1453 1675 1090 
Q 1841 728 2228 728 
Q 2613 728 2778 1090 
Q 2944 1453 2944 2338 
z
M 4147 2328 
Q 4147 1169 3647 539 
Q 3147 -91 2228 -91 
Q 1306 -91 806 539 
Q 306 1169 306 2328 
Q 306 3491 806 4120 
Q 1306 4750 2228 4750 
Q 3147 4750 3647 4120 
Q 4147 3491 4147 2328 
z
" transform="scale(0.015625)"/>
        <path id="DejaVuSans-Bold-2e" d="M 653 1209 
L 1778 1209 
L 1778 0 
L 653 0 
L 653 1209 
z
" transform="scale(0.015625)"/>
       </defs>
       <use xlink:href="#DejaVuSans-Bold-30"/>
       <use xlink:href="#DejaVuSans-Bold-2e" transform="translate(69.580078 0)"/>
       <use xlink:href="#DejaVuSans-Bold-30" transform="translate(107.568359 0)"/>
      </g>
     </g>
    </g>
    <g id="ytick_2">
     <g id="line2d_6">
      <path d="M 52.570625 174.093813 
L 411.950625 174.093813 
" clip-path="url(#p40d3cfd341)" style="fill: none; stroke: #c7ccd6; stroke-opacity: 0.7; stroke-width: 0.9; stroke-linecap: square"/>
     </g>
     <g id="line2d_7">
      <g>
       <use xlink:href="#mfd5aa5b7b2" x="52.570625" y="174.093813" style="fill: #1f2937; stroke: #1f2937; stroke-width: 1.05"/>
      </g>
     </g>
     <g id="text_5">
      <!-- 0.2 -->
      <g transform="translate(22.81375 178.652875) scale(0.12 -0.12)">
       <defs>
        <path id="DejaVuSans-Bold-32" d="M 1844 884 
L 3897 884 
L 3897 0 
L 506 0 
L 506 884 
L 2209 2388 
Q 2438 2594 2547 2791 
Q 2656 2988 2656 3200 
Q 2656 3528 2436 3728 
Q 2216 3928 1850 3928 
Q 1569 3928 1234 3808 
Q 900 3688 519 3450 
L 519 4475 
Q 925 4609 1322 4679 
Q 1719 4750 2100 4750 
Q 2938 4750 3402 4381 
Q 3866 4013 3866 3353 
Q 3866 2972 3669 2642 
Q 3472 2313 2841 1759 
L 1844 884 
z
" transform="scale(0.015625)"/>
       </defs>
       <use xlink:href="#DejaVuSans-Bold-30"/>
       <use xlink:href="#DejaVuSans-Bold-2e" transform="translate(69.580078 0)"/>
       <use xlink:href="#DejaVuSans-Bold-32" transform="translate(107.568359 0)"/>
      </g>
     </g>
    </g>
    <g id="ytick_3">
     <g id="line2d_8">
      <path d="M 52.570625 136.529812 
L 411.950625 136.529812 
" clip-path="url(#p40d3cfd341)" style="fill: none; stroke: #c7ccd6; stroke-opacity: 0.7; stroke-width: 0.9; stroke-linecap: square"/>
     </g>
     <g id="line2d_9">
      <g>
       <use xlink:href="#mfd5aa5b7b2" x="52.570625" y="136.529812" style="fill: #1f2937; stroke: #1f2937; stroke-width: 1.05"/>
      </g>
     </g>
     <g id="text_6">
      <!-- 0.4 -->
      <g transform="translate(22.81375 141.088875) scale(0.12 -0.12)">
       <defs>
        <path id="DejaVuSans-Bold-34" d="M 2356 3675 
L 1038 1722 
L 2356 1722 
L 2356 3675 
z
M 2156 4666 
L 3494 4666 
L 3494 1722 
L 4159 1722 
L 4159 850 
L 3494 850 
L 3494 0 
L 2356 0 
L 2356 850 
L 288 850 
L 288 1881 
L 2156 4666 
z
" transform="scale(0.015625)"/>
       </defs>
       <use xlink:href="#DejaVuSans-Bold-30"/>
       <use xlink:href="#DejaVuSans-Bold-2e" transform="translate(69.580078 0)"/>
       <use xlink:href="#DejaVuSans-Bold-34" transform="translate(107.568359 0)"/>
      </g>
     </g>
    </g>
    <g id="ytick_4">
     <g id="line2d_10">
      <path d="M 52.570625 98.965812 
L 411.950625 98.965812 
" clip-path="url(#p40d3cfd341)" style="fill: none; stroke: #c7ccd6; stroke-opacity: 0.7; stroke-width: 0.9; stroke-linecap: square"/>
     </g>
     <g id="line2d_11">
      <g>
       <use xlink:href="#mfd5aa5b7b2" x="52.570625" y="98.965812" style="fill: #1f2937; stroke: #1f2937; stroke-width: 1.05"/>
      </g>
     </g>
     <g id="text_7">
      <!-- 0.6 -->
      <g transform="translate(22.81375 103.524875) scale(0.12 -0.12)">
       <defs>
        <path id="DejaVuSans-Bold-36" d="M 2316 2303 
Q 2000 2303 1842 2098 
Q 1684 1894 1684 1484 
Q 1684 1075 1842 870 
Q 2000 666 2316 666 
Q 2634 666 2792 870 
Q 2950 1075 2950 1484 
Q 2950 1894 2792 2098 
Q 2634 2303 2316 2303 
z
M 3803 4544 
L 3803 3681 
Q 3506 3822 3243 3889 
Q 2981 3956 2731 3956 
Q 2194 3956 1894 3657 
Q 1594 3359 1544 2772 
Q 1750 2925 1990 3001 
Q 2231 3078 2516 3078 
Q 3231 3078 3670 2659 
Q 4109 2241 4109 1563 
Q 4109 813 3618 361 
Q 3128 -91 2303 -91 
Q 1394 -91 895 523 
Q 397 1138 397 2266 
Q 397 3422 980 4083 
Q 1563 4744 2578 4744 
Q 2900 4744 3203 4694 
Q 3506 4644 3803 4544 
z
" transform="scale(0.015625)"/>
       </defs>
       <use xlink:href="#DejaVuSans-Bold-30"/>
       <use xlink:href="#DejaVuSans-Bold-2e" transform="translate(69.580078 0)"/>
       <use xlink:href="#DejaVuSans-Bold-36" transform="translate(107.568359 0)"/>
      </g>
     </g>
    </g>
    <g id="ytick_5">
     <g id="line2d_12">
      <path d="M 52.570625 61.401812 
L 411.950625 61.401812 
" clip-path="url(#p40d3cfd341)" style="fill: none; stroke: #c7ccd6; stroke-opacity: 0.7; stroke-width: 0.9; stroke-linecap: square"/>
     </g>
     <g id="line2d_13">
      <g>
       <use xlink:href="#mfd5aa5b7b2" x="52.570625" y="61.401812" style="fill: #1f2937; stroke: #1f2937; stroke-width: 1.05"/>
      </g>
     </g>
     <g id="text_8">
      <!-- 0.8 -->
      <g transform="translate(22.81375 65.960875) scale(0.12 -0.12)">
       <defs>
        <path id="DejaVuSans-Bold-38" d="M 2228 2088 
Q 1891 2088 1709 1903 
Q 1528 1719 1528 1375 
Q 1528 1031 1709 848 
Q 1891 666 2228 666 
Q 2563 666 2741 848 
Q 2919 1031 2919 1375 
Q 2919 1722 2741 1905 
Q 2563 2088 2228 2088 
z
M 1350 2484 
Q 925 2613 709 2878 
Q 494 3144 494 3541 
Q 494 4131 934 4440 
Q 1375 4750 2228 4750 
Q 3075 4750 3515 4442 
Q 3956 4134 3956 3541 
Q 3956 3144 3739 2878 
Q 3522 2613 3097 2484 
Q 3572 2353 3814 2058 
Q 4056 1763 4056 1313 
Q 4056 619 3595 264 
Q 3134 -91 2228 -91 
Q 1319 -91 855 264 
Q 391 619 391 1313 
Q 391 1763 633 2058 
Q 875 2353 1350 2484 
z
M 1631 3419 
Q 1631 3141 1786 2991 
Q 1941 2841 2228 2841 
Q 2509 2841 2662 2991 
Q 2816 3141 2816 3419 
Q 2816 3697 2662 3845 
Q 2509 3994 2228 3994 
Q 1941 3994 1786 3844 
Q 1631 3694 1631 3419 
z
" transform="scale(0.015625)"/>
       </defs>
       <use xlink:href="#DejaVuSans-Bold-30"/>
       <use xlink:href="#DejaVuSans-Bold-2e" transform="translate(69.580078 0)"/>
       <use xlink:href="#DejaVuSans-Bold-38" transform="translate(107.568359 0)"/>
      </g>
     </g>
    </g>
    <g id="ytick_6">
     <g id="line2d_14">
      <path d="M 52.570625 23.837812 
L 411.950625 23.837812 
" clip-path="url(#p40d3cfd341)" style="fill: none; stroke: #c7ccd6; stroke-opacity: 0.7; stroke-width: 0.9; stroke-linecap: square"/>
     </g>
     <g id="line2d_15">
      <g>
       <use xlink:href="#mfd5aa5b7b2" x="52.570625" y="23.837812" style="fill: #1f2937; stroke: #1f2937; stroke-width: 1.05"/>
      </g>
     </g>
     <g id="text_9">
      <!-- 1.0 -->
      <g transform="translate(22.81375 28.396875) scale(0.12 -0.12)">
       <defs>
        <path id="DejaVuSans-Bold-31" d="M 750 831 
L 1813 831 
L 1813 3847 
L 722 3622 
L 722 4441 
L 1806 4666 
L 2950 4666 
L 2950 831 
L 4013 831 
L 4013 0 
L 750 0 
L 750 831 
z
" transform="scale(0.015625)"/>
       </defs>
       <use xlink:href="#DejaVuSans-Bold-31"/>
       <use xlink:href="#DejaVuSans-Bold-2e" transform="translate(69.580078 0)"/>
       <use xlink:href="#DejaVuSans-Bold-30" transform="translate(107.568359 0)"/>
      </g>
     </g>
    </g>
    <g id="text_10">
     <!-- mAP@0.5 -->
     <g style="fill: #0f172a" transform="translate(16.318125 149.669688) rotate(-90) scale(0.12 -0.12)">
      <defs>
       <path id="DejaVuSans-Bold-41" d="M 3419 850 
L 1538 850 
L 1241 0 
L 31 0 
L 1759 4666 
L 3194 4666 
L 4922 0 
L 3713 0 
L 3419 850 
z
M 1838 1716 
L 3116 1716 
L 2478 3572 
L 1838 1716 
z
" transform="scale(0.015625)"/>
       <path id="DejaVuSans-Bold-50" d="M 588 4666 
L 2584 4666 
Q 3475 4666 3951 4270 
Q 4428 3875 4428 3144 
Q 4428 2409 3951 2014 
Q 3475 1619 2584 1619 
L 1791 1619 
L 1791 0 
L 588 0 
L 588 4666 
z
M 1791 3794 
L 1791 2491 
L 2456 2491 
Q 2806 2491 2997 2661 
Q 3188 2831 3188 3144 
Q 3188 3456 2997 3625 
Q 2806 3794 2456 3794 
L 1791 3794 
z
" transform="scale(0.015625)"/>
       <path id="DejaVuSans-Bold-40" d="M 2597 1684 
Q 2597 1300 2761 1078 
Q 2925 856 3206 856 
Q 3484 856 3650 1079 
Q 3816 1303 3816 1684 
Q 3816 2063 3648 2283 
Q 3481 2503 3200 2503 
Q 2925 2503 2761 2283 
Q 2597 2063 2597 1684 
z
M 3878 744 
Q 3784 522 3576 398 
Q 3369 275 3091 275 
Q 2553 275 2217 664 
Q 1881 1053 1881 1678 
Q 1881 2303 2218 2693 
Q 2556 3084 3091 3084 
Q 3369 3084 3576 2959 
Q 3784 2834 3878 2613 
L 3878 3022 
L 4531 3022 
L 4531 856 
Q 4919 916 5141 1230 
Q 5363 1544 5363 2034 
Q 5363 2347 5272 2620 
Q 5181 2894 4997 3122 
Q 4700 3503 4254 3709 
Q 3809 3916 3291 3916 
Q 2928 3916 2597 3820 
Q 2266 3725 1984 3541 
Q 1522 3234 1264 2748 
Q 1006 2263 1006 1697 
Q 1006 1231 1173 823 
Q 1341 416 1656 103 
Q 1969 -203 2373 -364 
Q 2778 -525 3238 -525 
Q 3631 -525 4025 -378 
Q 4419 -231 4697 19 
L 5031 -488 
Q 4641 -791 4180 -952 
Q 3719 -1113 3244 -1113 
Q 2666 -1113 2153 -908 
Q 1641 -703 1241 -313 
Q 841 78 631 592 
Q 422 1106 422 1697 
Q 422 2266 634 2781 
Q 847 3297 1241 3688 
Q 1634 4075 2157 4287 
Q 2681 4500 3244 4500 
Q 3944 4500 4516 4233 
Q 5088 3966 5472 3463 
Q 5706 3156 5826 2798 
Q 5947 2441 5947 2047 
Q 5947 1200 5437 731 
Q 4928 263 4000 263 
L 3878 263 
L 3878 744 
z
" transform="scale(0.015625)"/>
       <path id="DejaVuSans-Bold-35" d="M 678 4666 
L 3669 4666 
L 3669 3781 
L 1638 3781 
L 1638 3059 
Q 1775 3097 1914 3117 
Q 2053 3138 2203 3138 
Q 3056 3138 3531 2711 
Q 4006 2284 4006 1522 
Q 4006 766 3489 337 
Q 2972 -91 2053 -91 
Q 1656 -91 1267 -14 
Q 878 63 494 219 
L 494 1166 
Q 875 947 1217 837 
Q 1559 728 1863 728 
Q 2300 728 2551 942 
Q 2803 1156 2803 1522 
Q 2803 1891 2551 2103 
Q 2300 2316 1863 2316 
Q 1603 2316 1309 2248 
Q 1016 2181 678 2041 
L 678 4666 
z
" transform="scale(0.015625)"/>
      </defs>
      <use xlink:href="#DejaVuSans-Bold-6d"/>
      <use xlink:href="#DejaVuSans-Bold-41" transform="translate(104.199219 0)"/>
      <use xlink:href="#DejaVuSans-Bold-50" transform="translate(181.591797 0)"/>
      <use xlink:href="#DejaVuSans-Bold-40" transform="translate(254.882812 0)"/>
      <use xlink:href="#DejaVuSans-Bold-30" transform="translate(354.882812 0)"/>
      <use xlink:href="#DejaVuSans-Bold-2e" transform="translate(424.462891 0)"/>
      <use xlink:href="#DejaVuSans-Bold-35" transform="translate(462.451172 0)"/>
     </g>
    </g>
   </g>
   <g id="patch_3">
    <path d="M 68.90608 211.657813 
L 111.257258 211.657813 
L 111.257258 36.985212 
L 68.90608 36.985212 
z
" clip-path="url(#p40d3cfd341)" style="fill: #1f77b4; stroke: #1f2937; stroke-linejoin: miter"/>
   </g>
   <g id="patch_4">
    <path d="M 189.909447 211.657813 
L 232.260625 211.657813 
L 232.260625 42.619812 
L 189.909447 42.619812 
z
" clip-path="url(#p40d3cfd341)" style="fill: #1f77b4; stroke: #1f2937; stroke-linejoin: miter"/>
   </g>
   <g id="patch_5">
    <path d="M 310.912814 211.657813 
L 353.263992 211.657813 
L 353.263992 36.985212 
L 310.912814 36.985212 
z
" clip-path="url(#p40d3cfd341)" style="fill: #1f77b4; stroke: #1f2937; stroke-linejoin: miter"/>
   </g>
   <g id="patch_6">
    <path d="M 111.257258 211.657813 
L 153.608436 211.657813 
L 153.608436 31.350612 
L 111.257258 31.350612 
z
" clip-path="url(#p40d3cfd341)" style="fill: #ff7f0e; stroke: #1f2937; stroke-linejoin: miter"/>
   </g>
   <g id="patch_7">
    <path d="M 232.260625 211.657813 
L 274.611803 211.657813 
L 274.611803 42.619812 
L 232.260625 42.619812 
z
" clip-path="url(#p40d3cfd341)" style="fill: #ff7f0e; stroke: #1f2937; stroke-linejoin: miter"/>
   </g>
   <g id="patch_8">
    <path d="M 353.263992 211.657813 
L 395.61517 211.657813 
L 395.61517 33.228813 
L 353.263992 33.228813 
z
" clip-path="url(#p40d3cfd341)" style="fill: #ff7f0e; stroke: #1f2937; stroke-linejoin: miter"/>
   </g>
   <g id="patch_9">
    <path d="M 52.570625 211.657813 
L 52.570625 23.837812 
" style="fill: none; stroke: #1f2937; stroke-width: 1.1; stroke-linejoin: miter; stroke-linecap: square"/>
   </g>
   <g id="patch_10">
    <path d="M 411.950625 211.657813 
L 411.950625 23.837812 
" style="fill: none; stroke: #1f2937; stroke-width: 1.1; stroke-linejoin: miter; stroke-linecap: square"/>
   </g>
   <g id="patch_11">
    <path d="M 52.570625 211.657813 
L 411.950625 211.657813 
" style="fill: none; stroke: #1f2937; stroke-width: 1.1; stroke-linejoin: miter; stroke-linecap: square"/>
   </g>
   <g id="patch_12">
    <path d="M 52.570625 23.837812 
L 411.950625 23.837812 
" style="fill: none; stroke: #1f2937; stroke-width: 1.1; stroke-linejoin: miter; stroke-linecap: square"/>
   </g>
   <g id="text_11">
    <!-- Ensemble fusion improves mAP@0.5 -->
    <g style="fill: #0f172a" transform="translate(88.7475 17.837812) scale(0.14 -0.14)">
     <defs>
      <path id="DejaVuSans-Bold-45" d="M 588 4666 
L 3834 4666 
L 3834 3756 
L 1791 3756 
L 1791 2888 
L 3713 2888 
L 3713 1978 
L 1791 1978 
L 1791 909 
L 3903 909 
L 3903 0 
L 588 0 
L 588 4666 
z
" transform="scale(0.015625)"/>
      <path id="DejaVuSans-Bold-73" d="M 3272 3391 
L 3272 2541 
Q 2913 2691 2578 2766 
Q 2244 2841 1947 2841 
Q 1628 2841 1473 2761 
Q 1319 2681 1319 2516 
Q 1319 2381 1436 2309 
Q 1553 2238 1856 2203 
L 2053 2175 
Q 2913 2066 3209 1816 
Q 3506 1566 3506 1031 
Q 3506 472 3093 190 
Q 2681 -91 1863 -91 
Q 1516 -91 1145 -36 
Q 775 19 384 128 
L 384 978 
Q 719 816 1070 734 
Q 1422 653 1784 653 
Q 2113 653 2278 743 
Q 2444 834 2444 1013 
Q 2444 1163 2330 1236 
Q 2216 1309 1875 1350 
L 1678 1375 
Q 931 1469 631 1722 
Q 331 1975 331 2491 
Q 331 3047 712 3315 
Q 1094 3584 1881 3584 
Q 2191 3584 2531 3537 
Q 2872 3491 3272 3391 
z
" transform="scale(0.015625)"/>
      <path id="DejaVuSans-Bold-62" d="M 2400 722 
Q 2759 722 2948 984 
Q 3138 1247 3138 1747 
Q 3138 2247 2948 2509 
Q 2759 2772 2400 2772 
Q 2041 2772 1848 2508 
Q 1656 2244 1656 1747 
Q 1656 1250 1848 986 
Q 2041 722 2400 722 
z
M 1656 2988 
Q 1888 3294 2169 3439 
Q 2450 3584 2816 3584 
Q 3463 3584 3878 3070 
Q 4294 2556 4294 1747 
Q 4294 938 3878 423 
Q 3463 -91 2816 -91 
Q 2450 -91 2169 54 
Q 1888 200 1656 506 
L 1656 0 
L 538 0 
L 538 4863 
L 1656 4863 
L 1656 2988 
z
" transform="scale(0.015625)"/>
      <path id="DejaVuSans-Bold-20" transform="scale(0.015625)"/>
      <path id="DejaVuSans-Bold-66" d="M 2841 4863 
L 2841 4128 
L 2222 4128 
Q 1984 4128 1890 4042 
Q 1797 3956 1797 3744 
L 1797 3500 
L 2753 3500 
L 2753 2700 
L 1797 2700 
L 1797 0 
L 678 0 
L 678 2700 
L 122 2700 
L 122 3500 
L 678 3500 
L 678 3744 
Q 678 4316 997 4589 
Q 1316 4863 1984 4863 
L 2841 4863 
z
" transform="scale(0.015625)"/>
      <path id="DejaVuSans-Bold-75" d="M 500 1363 
L 500 3500 
L 1625 3500 
L 1625 3150 
Q 1625 2866 1622 2436 
Q 1619 2006 1619 1863 
Q 1619 1441 1641 1255 
Q 1663 1069 1716 984 
Q 1784 875 1895 815 
Q 2006 756 2150 756 
Q 2500 756 2700 1025 
Q 2900 1294 2900 1772 
L 2900 3500 
L 4019 3500 
L 4019 0 
L 2900 0 
L 2900 506 
Q 2647 200 2364 54 
Q 2081 -91 1741 -91 
Q 1134 -91 817 281 
Q 500 653 500 1363 
z
" transform="scale(0.015625)"/>
      <path id="DejaVuSans-Bold-70" d="M 1656 506 
L 1656 -1331 
L 538 -1331 
L 538 3500 
L 1656 3500 
L 1656 2988 
Q 1888 3294 2169 3439 
Q 2450 3584 2816 3584 
Q 3463 3584 3878 3070 
Q 4294 2556 4294 1747 
Q 4294 938 3878 423 
Q 3463 -91 2816 -91 
Q 2450 -91 2169 54 
Q 1888 200 1656 506 
z
M 2400 2772 
Q 2041 2772 1848 2508 
Q 1656 2244 1656 1747 
Q 1656 1250 1848 986 
Q 2041 722 2400 722 
Q 2759 722 2948 984 
Q 3138 1247 3138 1747 
Q 3138 2247 2948 2509 
Q 2759 2772 2400 2772 
z
" transform="scale(0.015625)"/>
      <path id="DejaVuSans-Bold-76" d="M 97 3500 
L 1216 3500 
L 2088 1081 
L 2956 3500 
L 4078 3500 
L 2700 0 
L 1472 0 
L 97 3500 
z
" transform="scale(0.015625)"/>
     </defs>
     <use xlink:href="#DejaVuSans-Bold-45"/>
     <use xlink:href="#DejaVuSans-Bold-6e" transform="translate(68.310547 0)"/>
     <use xlink:href="#DejaVuSans-Bold-73" transform="translate(139.501953 0)"/>
     <use xlink:href="#DejaVuSans-Bold-65" transform="translate(199.023438 0)"/>
     <use xlink:href="#DejaVuSans-Bold-6d" transform="translate(266.845703 0)"/>
     <use xlink:href="#DejaVuSans-Bold-62" transform="translate(371.044922 0)"/>
     <use xlink:href="#DejaVuSans-Bold-6c" transform="translate(442.626953 0)"/>
     <use xlink:href="#DejaVuSans-Bold-65" transform="translate(476.904297 0)"/>
     <use xlink:href="#DejaVuSans-Bold-20" transform="translate(544.726562 0)"/>
     <use xlink:href="#DejaVuSans-Bold-66" transform="translate(579.541016 0)"/>
     <use xlink:href="#DejaVuSans-Bold-75" transform="translate(623.046875 0)"/>
     <use xlink:href="#DejaVuSans-Bold-73" transform="translate(694.238281 0)"/>
     <use xlink:href="#DejaVuSans-Bold-69" transform="translate(753.759766 0)"/>
     <use xlink:href="#DejaVuSans-Bold-6f" transform="translate(788.037109 0)"/>
     <use xlink:href="#DejaVuSans-Bold-6e" transform="translate(856.738281 0)"/>
     <use xlink:href="#DejaVuSans-Bold-20" transform="translate(927.929688 0)"/>
     <use xlink:href="#DejaVuSans-Bold-69" transform="translate(962.744141 0)"/>
     <use xlink:href="#DejaVuSans-Bold-6d" transform="translate(997.021484 0)"/>
     <use xlink:href="#DejaVuSans-Bold-70" transform="translate(1101.220703 0)"/>
     <use xlink:href="#DejaVuSans-Bold-72" transform="translate(1172.802734 0)"/>
     <use xlink:href="#DejaVuSans-Bold-6f" transform="translate(1222.119141 0)"/>
     <use xlink:href="#DejaVuSans-Bold-76" transform="translate(1290.820312 0)"/>
     <use xlink:href="#DejaVuSans-Bold-65" transform="translate(1356.005859 0)"/>
     <use xlink:href="#DejaVuSans-Bold-73" transform="translate(1423.828125 0)"/>
     <use xlink:href="#DejaVuSans-Bold-20" transform="translate(1483.349609 0)"/>
     <use xlink:href="#DejaVuSans-Bold-6d" transform="translate(1518.164062 0)"/>
     <use xlink:href="#DejaVuSans-Bold-41" transform="translate(1622.363281 0)"/>
     <use xlink:href="#DejaVuSans-Bold-50" transform="translate(1699.755859 0)"/>
     <use xlink:href="#DejaVuSans-Bold-40" transform="translate(1773.046875 0)"/>
     <use xlink:href="#DejaVuSans-Bold-30" transform="translate(1873.046875 0)"/>
     <use xlink:href="#DejaVuSans-Bold-2e" transform="translate(1942.626953 0)"/>
     <use xlink:href="#DejaVuSans-Bold-35" transform="translate(1980.615234 0)"/>
    </g>
   </g>
   <g id="legend_1">
    <g id="patch_13">
     <path d="M 277.705312 61.194063 
L 404.950625 61.194063 
Q 406.950625 61.194063 406.950625 59.194063 
L 406.950625 30.837812 
Q 406.950625 28.837812 404.950625 28.837812 
L 277.705312 28.837812 
Q 275.705312 28.837812 275.705312 30.837812 
L 275.705312 59.194063 
Q 275.705312 61.194063 277.705312 61.194063 
z
" style="fill: #ffffff; opacity: 0.92; stroke: #cccccc; stroke-linejoin: miter"/>
    </g>
    <g id="patch_14">
     <path d="M 279.705312 40.43625 
L 299.705312 40.43625 
L 299.705312 33.43625 
L 279.705312 33.43625 
z
" style="fill: #1f77b4; stroke: #1f2937; stroke-linejoin: miter"/>
    </g>
    <g id="text_12">
     <!-- Before ensemble -->
     <g transform="translate(307.705312 40.43625) scale(0.1 -0.1)">
      <defs>
       <path id="DejaVuSans-Bold-42" d="M 2456 2859 
Q 2741 2859 2887 2984 
Q 3034 3109 3034 3353 
Q 3034 3594 2887 3720 
Q 2741 3847 2456 3847 
L 1791 3847 
L 1791 2859 
L 2456 2859 
z
M 2497 819 
Q 2859 819 3042 972 
Q 3225 1125 3225 1434 
Q 3225 1738 3044 1889 
Q 2863 2041 2497 2041 
L 1791 2041 
L 1791 819 
L 2497 819 
z
M 3616 2497 
Q 4003 2384 4215 2081 
Q 4428 1778 4428 1338 
Q 4428 663 3972 331 
Q 3516 0 2584 0 
L 588 0 
L 588 4666 
L 2394 4666 
Q 3366 4666 3802 4372 
Q 4238 4078 4238 3431 
Q 4238 3091 4078 2852 
Q 3919 2613 3616 2497 
z
" transform="scale(0.015625)"/>
      </defs>
      <use xlink:href="#DejaVuSans-Bold-42"/>
      <use xlink:href="#DejaVuSans-Bold-65" transform="translate(76.220703 0)"/>
      <use xlink:href="#DejaVuSans-Bold-66" transform="translate(144.042969 0)"/>
      <use xlink:href="#DejaVuSans-Bold-6f" transform="translate(187.548828 0)"/>
      <use xlink:href="#DejaVuSans-Bold-72" transform="translate(256.25 0)"/>
      <use xlink:href="#DejaVuSans-Bold-65" transform="translate(305.566406 0)"/>
      <use xlink:href="#DejaVuSans-Bold-20" transform="translate(373.388672 0)"/>
      <use xlink:href="#DejaVuSans-Bold-65" transform="translate(408.203125 0)"/>
      <use xlink:href="#DejaVuSans-Bold-6e" transform="translate(476.025391 0)"/>
      <use xlink:href="#DejaVuSans-Bold-73" transform="translate(547.216797 0)"/>
      <use xlink:href="#DejaVuSans-Bold-65" transform="translate(606.738281 0)"/>
      <use xlink:href="#DejaVuSans-Bold-6d" transform="translate(674.560547 0)"/>
      <use xlink:href="#DejaVuSans-Bold-62" transform="translate(778.759766 0)"/>
      <use xlink:href="#DejaVuSans-Bold-6c" transform="translate(850.341797 0)"/>
      <use xlink:href="#DejaVuSans-Bold-65" transform="translate(884.619141 0)"/>
     </g>
    </g>
    <g id="patch_15">
     <path d="M 279.705312 55.114375 
L 299.705312 55.114375 
L 299.705312 48.114375 
L 279.705312 48.114375 
z
" style="fill: #ff7f0e; stroke: #1f2937; stroke-linejoin: miter"/>
    </g>
    <g id="text_13">
     <!-- After ensemble -->
     <g transform="translate(307.705312 55.114375) scale(0.1 -0.1)">
      <use xlink:href="#DejaVuSans-Bold-41"/>
      <use xlink:href="#DejaVuSans-Bold-66" transform="translate(77.392578 0)"/>
      <use xlink:href="#DejaVuSans-Bold-74" transform="translate(120.898438 0)"/>
      <use xlink:href="#DejaVuSans-Bold-65" transform="translate(168.701172 0)"/>
      <use xlink:href="#DejaVuSans-Bold-72" transform="translate(236.523438 0)"/>
      <use xlink:href="#DejaVuSans-Bold-20" transform="translate(285.839844 0)"/>
      <use xlink:href="#DejaVuSans-Bold-65" transform="translate(320.654297 0)"/>
      <use xlink:href="#DejaVuSans-Bold-6e" transform="translate(388.476562 0)"/>
      <use xlink:href="#DejaVuSans-Bold-73" transform="translate(459.667969 0)"/>
      <use xlink:href="#DejaVuSans-Bold-65" transform="translate(519.189453 0)"/>
      <use xlink:href="#DejaVuSans-Bold-6d" transform="translate(587.011719 0)"/>
      <use xlink:href="#DejaVuSans-Bold-62" transform="translate(691.210938 0)"/>
      <use xlink:href="#DejaVuSans-Bold-6c" transform="translate(762.792969 0)"/>
      <use xlink:href="#DejaVuSans-Bold-65" transform="translate(797.070312 0)"/>
     </g>
    </g>
   </g>
  </g>
 </g>
 <defs>
  <clipPath id="p40d3cfd341">
   <rect x="52.570625" y="23.837812" width="359.38" height="187.82"/>
  </clipPath>
 </defs>
</svg>
