<?xml version="1.0" encoding="utf-8" standalone="no"?>
<!DOCTYPE svg PUBLIC "-//W3C//DTD SVG 1.1//EN"
  "http://www.w3.org/Graphics/SVG/1.1/DTD/svg11.dtd">
<svg xmlns:xlink="http://www.w3.org/1999/xlink" width="299.101383pt" height="276.41614pt" viewBox="0 0 299.101383 276.41614" xmlns="http://www.w3.org/2000/svg" version="1.1">
 <metadata>
  <rdf:RDF xmlns:dc="http://purl.org/dc/elements/1.1/" xmlns:cc="http://creativecommons.org/ns#" xmlns:rdf="http://www.w3.org/1999/02/22-rdf-syntax-ns#">
   <cc:Work>
    <dc:type rdf:resource="http://purl.org/dc/dcmitype/StillImage"/>
    <dc:date>2026-01-18T14:00:43.513790</dc:date>
    <dc:format>image/svg+xml</dc:format>
    <dc:creator>
     <cc:Agent>
      <dc:title>Matplotlib v3.10.6, https://matplotlib.org/</dc:title>
     </cc:Agent>
    </dc:creator>
   </cc:Work>
  </rdf:RDF>
 </metadata>
 <defs>
  <style type="text/css">*{stroke-linejoin: round; stroke-linecap: butt}</style>
 </defs>
 <g id="figure_1">
  <g id="patch_1">
   <path d="M 0 276.41614 
L 299.101383 276.41614 
L 299.101383 0 
L 0 0 
z
" style="fill: #ffffff"/>
  </g>
  <g id="axes_1">
   <g id="patch_2">
    <path d="M 149.550691 85.962846 
L 152.785934 95.668575 
L 149.712453 95.668575 
L 149.712453 247.724995 
L 149.388929 247.724995 
L 149.388929 95.668575 
L 146.315448 95.668575 
z
" clip-path="url(#p53382780d0)" style="fill: #1f2937; stroke: #1f2937; stroke-linejoin: miter"/>
   </g>
   <g id="patch_3">
    <path d="M 133.374476 231.54878 
L 126.870723 223.651365 
L 129.739343 222.54805 
L 52.342422 21.316055 
L 52.644382 21.199917 
L 130.041303 222.431911 
L 132.909923 221.328596 
z
" clip-path="url(#p53382780d0)" style="fill: #1f2937; stroke: #1f2937; stroke-linejoin: miter"/>
   </g>
   <g id="patch_4">
    <path d="M 246.607981 53.610416 
L 244.126663 63.535688 
L 241.533685 61.885612 
L 133.510949 231.635626 
L 133.238004 231.461934 
L 241.26074 61.711919 
L 238.667763 60.061843 
z
" clip-path="url(#p53382780d0)" style="fill: #1f2937; stroke: #1f2937; stroke-linejoin: miter"/>
   </g>
   <g id="patch_5">
    <path d="M 278.960411 199.19635 
L 270.187626 204.460021 
L 269.520895 201.459728 
L 133.409568 231.70669 
L 133.339385 231.39087 
L 269.450713 201.143908 
L 268.783981 198.143616 
z
" clip-path="url(#p53382780d0)" style="fill: #1f2937; stroke: #1f2937; stroke-linejoin: miter"/>
   </g>
   <g id="line2d_1">
    <path d="M 20.140972 247.724995 
L 278.960411 247.724995 
" clip-path="url(#p53382780d0)" style="fill: none; stroke: #1f2937; stroke-width: 2; stroke-linecap: square"/>
   </g>
   <g id="text_1">
    <!-- PV module plane -->
    <g transform="translate(102.028035 267.136453) scale(0.1 -0.1)">
     <defs>
      <path id="DejaVuSans-Bold-50" d="M 588 4666 
L 2584 4666 
Q 3475 4666 3951 4270 
Q 4428 3875 4428 3144 
Q 4428 2409 3951 2014 
Q 3475 1619 2584 1619 
L 1791 1619 
L 1791 0 
L 588 0 
L 588 4666 
z
M 1791 3794 
L 1791 2491 
L 2456 2491 
Q 2806 2491 2997 2661 
Q 3188 2831 3188 3144 
Q 3188 3456 2997 3625 
Q 2806 3794 2456 3794 
L 1791 3794 
z
" transform="scale(0.015625)"/>
      <path id="DejaVuSans-Bold-56" d="M 31 4666 
L 1241 4666 
L 2478 1222 
L 3713 4666 
L 4922 4666 
L 3194 0 
L 1759 0 
L 31 4666 
z
" transform="scale(0.015625)"/>
      <path id="DejaVuSans-Bold-20" transform="scale(0.015625)"/>
      <path id="DejaVuSans-Bold-6d" d="M 3781 2919 
Q 3994 3244 4286 3414 
Q 4578 3584 4928 3584 
Q 5531 3584 5847 3212 
Q 6163 2841 6163 2131 
L 6163 0 
L 5038 0 
L 5038 1825 
Q 5041 1866 5042 1909 
Q 5044 1953 5044 2034 
Q 5044 2406 4934 2573 
Q 4825 2741 4581 2741 
Q 4263 2741 4089 2478 
Q 3916 2216 3909 1719 
L 3909 0 
L 2784 0 
L 2784 1825 
Q 2784 2406 2684 2573 
Q 2584 2741 2328 2741 
Q 2006 2741 1831 2477 
Q 1656 2213 1656 1722 
L 1656 0 
L 531 0 
L 531 3500 
L 1656 3500 
L 1656 2988 
Q 1863 3284 2130 3434 
Q 2397 3584 2719 3584 
Q 3081 3584 3359 3409 
Q 3638 3234 3781 2919 
z
" transform="scale(0.015625)"/>
      <path id="DejaVuSans-Bold-6f" d="M 2203 2784 
Q 1831 2784 1636 2517 
Q 1441 2250 1441 1747 
Q 1441 1244 1636 976 
Q 1831 709 2203 709 
Q 2569 709 2762 976 
Q 2956 1244 2956 1747 
Q 2956 2250 2762 2517 
Q 2569 2784 2203 2784 
z
M 2203 3584 
Q 3106 3584 3614 3096 
Q 4122 2609 4122 1747 
Q 4122 884 3614 396 
Q 3106 -91 2203 -91 
Q 1297 -91 786 396 
Q 275 884 275 1747 
Q 275 2609 786 3096 
Q 1297 3584 2203 3584 
z
" transform="scale(0.015625)"/>
      <path id="DejaVuSans-Bold-64" d="M 2919 2988 
L 2919 4863 
L 4044 4863 
L 4044 0 
L 2919 0 
L 2919 506 
Q 2688 197 2409 53 
Q 2131 -91 1766 -91 
Q 1119 -91 703 423 
Q 288 938 288 1747 
Q 288 2556 703 3070 
Q 1119 3584 1766 3584 
Q 2128 3584 2408 3439 
Q 2688 3294 2919 2988 
z
M 2181 722 
Q 2541 722 2730 984 
Q 2919 1247 2919 1747 
Q 2919 2247 2730 2509 
Q 2541 2772 2181 2772 
Q 1825 2772 1636 2509 
Q 1447 2247 1447 1747 
Q 1447 1247 1636 984 
Q 1825 722 2181 722 
z
" transform="scale(0.015625)"/>
      <path id="DejaVuSans-Bold-75" d="M 500 1363 
L 500 3500 
L 1625 3500 
L 1625 3150 
Q 1625 2866 1622 2436 
Q 1619 2006 1619 1863 
Q 1619 1441 1641 1255 
Q 1663 1069 1716 984 
Q 1784 875 1895 815 
Q 2006 756 2150 756 
Q 2500 756 2700 1025 
Q 2900 1294 2900 1772 
L 2900 3500 
L 4019 3500 
L 4019 0 
L 2900 0 
L 2900 506 
Q 2647 200 2364 54 
Q 2081 -91 1741 -91 
Q 1134 -91 817 281 
Q 500 653 500 1363 
z
" transform="scale(0.015625)"/>
      <path id="DejaVuSans-Bold-6c" d="M 538 4863 
L 1656 4863 
L 1656 0 
L 538 0 
L 538 4863 
z
" transform="scale(0.015625)"/>
      <path id="DejaVuSans-Bold-65" d="M 4031 1759 
L 4031 1441 
L 1416 1441 
Q 1456 1047 1700 850 
Q 1944 653 2381 653 
Q 2734 653 3104 758 
Q 3475 863 3866 1075 
L 3866 213 
Q 3469 63 3072 -14 
Q 2675 -91 2278 -91 
Q 1328 -91 801 392 
Q 275 875 275 1747 
Q 275 2603 792 3093 
Q 1309 3584 2216 3584 
Q 3041 3584 3536 3087 
Q 4031 2591 4031 1759 
z
M 2881 2131 
Q 2881 2450 2695 2645 
Q 2509 2841 2209 2841 
Q 1884 2841 1681 2658 
Q 1478 2475 1428 2131 
L 2881 2131 
z
" transform="scale(0.015625)"/>
      <path id="DejaVuSans-Bold-70" d="M 1656 506 
L 1656 -1331 
L 538 -1331 
L 538 3500 
L 1656 3500 
L 1656 2988 
Q 1888 3294 2169 3439 
Q 2450 3584 2816 3584 
Q 3463 3584 3878 3070 
Q 4294 2556 4294 1747 
Q 4294 938 3878 423 
Q 3463 -91 2816 -91 
Q 2450 -91 2169 54 
Q 1888 200 1656 506 
z
M 2400 2772 
Q 2041 2772 1848 2508 
Q 1656 2244 1656 1747 
Q 1656 1250 1848 986 
Q 2041 722 2400 722 
Q 2759 722 2948 984 
Q 3138 1247 3138 1747 
Q 3138 2247 2948 2509 
Q 2759 2772 2400 2772 
z
" transform="scale(0.015625)"/>
      <path id="DejaVuSans-Bold-61" d="M 2106 1575 
Q 1756 1575 1579 1456 
Q 1403 1338 1403 1106 
Q 1403 894 1545 773 
Q 1688 653 1941 653 
Q 2256 653 2472 879 
Q 2688 1106 2688 1447 
L 2688 1575 
L 2106 1575 
z
M 3816 1997 
L 3816 0 
L 2688 0 
L 2688 519 
Q 2463 200 2181 54 
Q 1900 -91 1497 -91 
Q 953 -91 614 226 
Q 275 544 275 1050 
Q 275 1666 698 1953 
Q 1122 2241 2028 2241 
L 2688 2241 
L 2688 2328 
Q 2688 2594 2478 2717 
Q 2269 2841 1825 2841 
Q 1466 2841 1156 2769 
Q 847 2697 581 2553 
L 581 3406 
Q 941 3494 1303 3539 
Q 1666 3584 2028 3584 
Q 2975 3584 3395 3211 
Q 3816 2838 3816 1997 
z
" transform="scale(0.015625)"/>
      <path id="DejaVuSans-Bold-6e" d="M 4056 2131 
L 4056 0 
L 2931 0 
L 2931 347 
L 2931 1631 
Q 2931 2084 2911 2256 
Q 2891 2428 2841 2509 
Q 2775 2619 2662 2680 
Q 2550 2741 2406 2741 
Q 2056 2741 1856 2470 
Q 1656 2200 1656 1722 
L 1656 0 
L 538 0 
L 538 3500 
L 1656 3500 
L 1656 2988 
Q 1909 3294 2193 3439 
Q 2478 3584 2822 3584 
Q 3428 3584 3742 3212 
Q 4056 2841 4056 2131 
z
" transform="scale(0.015625)"/>
     </defs>
     <use xlink:href="#DejaVuSans-Bold-50"/>
     <use xlink:href="#DejaVuSans-Bold-56" transform="translate(73.291016 0)"/>
     <use xlink:href="#DejaVuSans-Bold-20" transform="translate(150.683594 0)"/>
     <use xlink:href="#DejaVuSans-Bold-6d" transform="translate(185.498047 0)"/>
     <use xlink:href="#DejaVuSans-Bold-6f" transform="translate(289.697266 0)"/>
     <use xlink:href="#DejaVuSans-Bold-64" transform="translate(358.398438 0)"/>
     <use xlink:href="#DejaVuSans-Bold-75" transform="translate(429.980469 0)"/>
     <use xlink:href="#DejaVuSans-Bold-6c" transform="translate(501.171875 0)"/>
     <use xlink:href="#DejaVuSans-Bold-65" transform="translate(535.449219 0)"/>
     <use xlink:href="#DejaVuSans-Bold-20" transform="translate(603.271484 0)"/>
     <use xlink:href="#DejaVuSans-Bold-70" transform="translate(638.085938 0)"/>
     <use xlink:href="#DejaVuSans-Bold-6c" transform="translate(709.667969 0)"/>
     <use xlink:href="#DejaVuSans-Bold-61" transform="translate(743.945312 0)"/>
     <use xlink:href="#DejaVuSans-Bold-6e" transform="translate(811.425781 0)"/>
     <use xlink:href="#DejaVuSans-Bold-65" transform="translate(882.617188 0)"/>
    </g>
   </g>
   <g id="text_2">
    <!-- n -->
    <g transform="translate(156.021177 134.49149) scale(0.11 -0.11)">
     <use xlink:href="#DejaVuSans-Bold-6e"/>
    </g>
   </g>
   <g id="text_3">
    <!-- s (sun ray) -->
    <g transform="translate(46.022916 14.7875) scale(0.1 -0.1)">
     <defs>
      <path id="DejaVuSans-Bold-73" d="M 3272 3391 
L 3272 2541 
Q 2913 2691 2578 2766 
Q 2244 2841 1947 2841 
Q 1628 2841 1473 2761 
Q 1319 2681 1319 2516 
Q 1319 2381 1436 2309 
Q 1553 2238 1856 2203 
L 2053 2175 
Q 2913 2066 3209 1816 
Q 3506 1566 3506 1031 
Q 3506 472 3093 190 
Q 2681 -91 1863 -91 
Q 1516 -91 1145 -36 
Q 775 19 384 128 
L 384 978 
Q 719 816 1070 734 
Q 1422 653 1784 653 
Q 2113 653 2278 743 
Q 2444 834 2444 1013 
Q 2444 1163 2330 1236 
Q 2216 1309 1875 1350 
L 1678 1375 
Q 931 1469 631 1722 
Q 331 1975 331 2491 
Q 331 3047 712 3315 
Q 1094 3584 1881 3584 
Q 2191 3584 2531 3537 
Q 2872 3491 3272 3391 
z
" transform="scale(0.015625)"/>
      <path id="DejaVuSans-Bold-28" d="M 2413 -844 
L 1484 -844 
Q 1006 -72 778 623 
Q 550 1319 550 2003 
Q 550 2688 779 3389 
Q 1009 4091 1484 4856 
L 2413 4856 
Q 2013 4116 1813 3408 
Q 1613 2700 1613 2009 
Q 1613 1319 1811 609 
Q 2009 -100 2413 -844 
z
" transform="scale(0.015625)"/>
      <path id="DejaVuSans-Bold-72" d="M 3138 2547 
Q 2991 2616 2845 2648 
Q 2700 2681 2553 2681 
Q 2122 2681 1889 2404 
Q 1656 2128 1656 1613 
L 1656 0 
L 538 0 
L 538 3500 
L 1656 3500 
L 1656 2925 
Q 1872 3269 2151 3426 
Q 2431 3584 2822 3584 
Q 2878 3584 2943 3579 
Q 3009 3575 3134 3559 
L 3138 2547 
z
" transform="scale(0.015625)"/>
      <path id="DejaVuSans-Bold-79" d="M 78 3500 
L 1197 3500 
L 2138 1125 
L 2938 3500 
L 4056 3500 
L 2584 -331 
Q 2363 -916 2067 -1148 
Q 1772 -1381 1288 -1381 
L 641 -1381 
L 641 -647 
L 991 -647 
Q 1275 -647 1404 -556 
Q 1534 -466 1606 -231 
L 1638 -134 
L 78 3500 
z
" transform="scale(0.015625)"/>
      <path id="DejaVuSans-Bold-29" d="M 513 -844 
Q 913 -100 1113 609 
Q 1313 1319 1313 2009 
Q 1313 2700 1113 3408 
Q 913 4116 513 4856 
L 1441 4856 
Q 1916 4091 2145 3389 
Q 2375 2688 2375 2003 
Q 2375 1319 2147 623 
Q 1919 -72 1441 -844 
L 513 -844 
z
" transform="scale(0.015625)"/>
     </defs>
     <use xlink:href="#DejaVuSans-Bold-73"/>
     <use xlink:href="#DejaVuSans-Bold-20" transform="translate(59.521484 0)"/>
     <use xlink:href="#DejaVuSans-Bold-28" transform="translate(94.335938 0)"/>
     <use xlink:href="#DejaVuSans-Bold-73" transform="translate(140.039062 0)"/>
     <use xlink:href="#DejaVuSans-Bold-75" transform="translate(199.560547 0)"/>
     <use xlink:href="#DejaVuSans-Bold-6e" transform="translate(270.751953 0)"/>
     <use xlink:href="#DejaVuSans-Bold-20" transform="translate(341.943359 0)"/>
     <use xlink:href="#DejaVuSans-Bold-72" transform="translate(376.757812 0)"/>
     <use xlink:href="#DejaVuSans-Bold-61" transform="translate(426.074219 0)"/>
     <use xlink:href="#DejaVuSans-Bold-79" transform="translate(490.429688 0)"/>
     <use xlink:href="#DejaVuSans-Bold-29" transform="translate(555.615234 0)"/>
    </g>
   </g>
   <g id="text_4">
    <!-- r (specular) -->
    <g transform="translate(187.478467 47.13993) scale(0.1 -0.1)">
     <defs>
      <path id="DejaVuSans-Bold-63" d="M 3366 3391 
L 3366 2478 
Q 3138 2634 2908 2709 
Q 2678 2784 2431 2784 
Q 1963 2784 1702 2511 
Q 1441 2238 1441 1747 
Q 1441 1256 1702 982 
Q 1963 709 2431 709 
Q 2694 709 2930 787 
Q 3166 866 3366 1019 
L 3366 103 
Q 3103 6 2833 -42 
Q 2563 -91 2291 -91 
Q 1344 -91 809 395 
Q 275 881 275 1747 
Q 275 2613 809 3098 
Q 1344 3584 2291 3584 
Q 2566 3584 2833 3536 
Q 3100 3488 3366 3391 
z
" transform="scale(0.015625)"/>
     </defs>
     <use xlink:href="#DejaVuSans-Bold-72"/>
     <use xlink:href="#DejaVuSans-Bold-20" transform="translate(49.316406 0)"/>
     <use xlink:href="#DejaVuSans-Bold-28" transform="translate(84.130859 0)"/>
     <use xlink:href="#DejaVuSans-Bold-73" transform="translate(129.833984 0)"/>
     <use xlink:href="#DejaVuSans-Bold-70" transform="translate(189.355469 0)"/>
     <use xlink:href="#DejaVuSans-Bold-65" transform="translate(260.9375 0)"/>
     <use xlink:href="#DejaVuSans-Bold-63" transform="translate(328.759766 0)"/>
     <use xlink:href="#DejaVuSans-Bold-75" transform="translate(388.037109 0)"/>
     <use xlink:href="#DejaVuSans-Bold-6c" transform="translate(459.228516 0)"/>
     <use xlink:href="#DejaVuSans-Bold-61" transform="translate(493.505859 0)"/>
     <use xlink:href="#DejaVuSans-Bold-72" transform="translate(560.986328 0)"/>
     <use xlink:href="#DejaVuSans-Bold-29" transform="translate(610.302734 0)"/>
    </g>
   </g>
   <g id="text_5">
    <!-- v* (camera) -->
    <g transform="translate(219.501209 187.998538) scale(0.1 -0.1)">
     <defs>
      <path id="DejaVuSans-Bold-76" d="M 97 3500 
L 1216 3500 
L 2088 1081 
L 2956 3500 
L 4078 3500 
L 2700 0 
L 1472 0 
L 97 3500 
z
" transform="scale(0.015625)"/>
      <path id="DejaVuSans-Bold-2a" d="M 3219 3803 
L 2188 3263 
L 3219 2719 
L 2981 2278 
L 1941 2853 
L 1941 1778 
L 1409 1778 
L 1409 2853 
L 366 2278 
L 128 2719 
L 1172 3263 
L 128 3803 
L 366 4244 
L 1409 3675 
L 1409 4750 
L 1941 4750 
L 1941 3675 
L 2981 4244 
L 3219 3803 
z
" transform="scale(0.015625)"/>
     </defs>
     <use xlink:href="#DejaVuSans-Bold-76"/>
     <use xlink:href="#DejaVuSans-Bold-2a" transform="translate(65.185547 0)"/>
     <use xlink:href="#DejaVuSans-Bold-20" transform="translate(117.480469 0)"/>
     <use xlink:href="#DejaVuSans-Bold-28" transform="translate(152.294922 0)"/>
     <use xlink:href="#DejaVuSans-Bold-63" transform="translate(197.998047 0)"/>
     <use xlink:href="#DejaVuSans-Bold-61" transform="translate(257.275391 0)"/>
     <use xlink:href="#DejaVuSans-Bold-6d" transform="translate(324.755859 0)"/>
     <use xlink:href="#DejaVuSans-Bold-65" transform="translate(428.955078 0)"/>
     <use xlink:href="#DejaVuSans-Bold-72" transform="translate(496.777344 0)"/>
     <use xlink:href="#DejaVuSans-Bold-61" transform="translate(546.09375 0)"/>
     <use xlink:href="#DejaVuSans-Bold-29" transform="translate(613.574219 0)"/>
    </g>
    <!-- rotated away -->
    <g transform="translate(210.957459 199.19635) scale(0.1 -0.1)">
     <defs>
      <path id="DejaVuSans-Bold-74" d="M 1759 4494 
L 1759 3500 
L 2913 3500 
L 2913 2700 
L 1759 2700 
L 1759 1216 
Q 1759 972 1856 886 
Q 1953 800 2241 800 
L 2816 800 
L 2816 0 
L 1856 0 
Q 1194 0 917 276 
Q 641 553 641 1216 
L 641 2700 
L 84 2700 
L 84 3500 
L 641 3500 
L 641 4494 
L 1759 4494 
z
" transform="scale(0.015625)"/>
      <path id="DejaVuSans-Bold-77" d="M 225 3500 
L 1313 3500 
L 1900 1088 
L 2491 3500 
L 3425 3500 
L 4013 1113 
L 4603 3500 
L 5691 3500 
L 4769 0 
L 3547 0 
L 2956 2406 
L 2369 0 
L 1147 0 
L 225 3500 
z
" transform="scale(0.015625)"/>
     </defs>
     <use xlink:href="#DejaVuSans-Bold-72"/>
     <use xlink:href="#DejaVuSans-Bold-6f" transform="translate(49.316406 0)"/>
     <use xlink:href="#DejaVuSans-Bold-74" transform="translate(118.017578 0)"/>
     <use xlink:href="#DejaVuSans-Bold-61" transform="translate(165.820312 0)"/>
     <use xlink:href="#DejaVuSans-Bold-74" transform="translate(233.300781 0)"/>
     <use xlink:href="#DejaVuSans-Bold-65" transform="translate(281.103516 0)"/>
     <use xlink:href="#DejaVuSans-Bold-64" transform="translate(348.925781 0)"/>
     <use xlink:href="#DejaVuSans-Bold-20" transform="translate(420.507812 0)"/>
     <use xlink:href="#DejaVuSans-Bold-61" transform="translate(455.322266 0)"/>
     <use xlink:href="#DejaVuSans-Bold-77" transform="translate(522.802734 0)"/>
     <use xlink:href="#DejaVuSans-Bold-61" transform="translate(615.185547 0)"/>
     <use xlink:href="#DejaVuSans-Bold-79" transform="translate(679.541016 0)"/>
    </g>
   </g>
  </g>
 </g>
 <defs>
  <clipPath id="p53382780d0">
   <rect x="7.2" y="9.873663" width="284.701383" height="249.177586"/>
  </clipPath>
 </defs>
</svg>
