<?xml version="1.0" encoding="utf-8" standalone="no"?>
<!DOCTYPE svg PUBLIC "-//W3C//DTD SVG 1.1//EN"
  "http://www.w3.org/Graphics/SVG/1.1/DTD/svg11.dtd">
<svg xmlns:xlink="http://www.w3.org/1999/xlink" width="629.284419pt" height="237.625312pt" viewBox="0 0 629.284419 237.625312" xmlns="http://www.w3.org/2000/svg" version="1.1">
 <metadata>
  <rdf:RDF xmlns:dc="http://purl.org/dc/elements/1.1/" xmlns:cc="http://creativecommons.org/ns#" xmlns:rdf="http://www.w3.org/1999/02/22-rdf-syntax-ns#">
   <cc:Work>
    <dc:type rdf:resource="http://purl.org/dc/dcmitype/StillImage"/>
    <dc:date>2026-01-13T21:03:54.156834</dc:date>
    <dc:format>image/svg+xml</dc:format>
    <dc:creator>
     <cc:Agent>
      <dc:title>Matplotlib v3.10.6, https://matplotlib.org/</dc:title>
     </cc:Agent>
    </dc:creator>
   </cc:Work>
  </rdf:RDF>
 </metadata>
 <defs>
  <style type="text/css">*{stroke-linejoin: round; stroke-linecap: butt}</style>
 </defs>
 <g id="figure_1">
  <g id="patch_1">
   <path d="M 0 237.625312 
L 629.284419 237.625312 
L 629.284419 0 
L 0 0 
z
" style="fill: #ffffff"/>
  </g>
  <g id="axes_1">
   <g id="patch_2">
    <path d="M 284.2075 194.697812 
L 464.0879 194.697812 
L 464.0879 23.837812 
L 284.2075 23.837812 
z
" style="fill: #fbfbf8"/>
   </g>
   <g id="matplotlib.axis_1">
    <g id="xtick_1">
     <g id="line2d_1">
      <path d="M 284.2075 194.697812 
L 284.2075 23.837812 
" clip-path="url(#p849b5c9e67)" style="fill: none; stroke: #c7ccd6; stroke-opacity: 0.7; stroke-width: 0.9; stroke-linecap: square"/>
     </g>
     <g id="line2d_2">
      <defs>
       <path id="m22e2c6b7a3" d="M 0 0 
L 0 5 
" style="stroke: #1f2937; stroke-width: 1.05"/>
      </defs>
      <g>
       <use xlink:href="#m22e2c6b7a3" x="284.2075" y="194.697812" style="fill: #1f2937; stroke: #1f2937; stroke-width: 1.05"/>
      </g>
     </g>
     <g id="text_1">
      <!-- 0.00 -->
      <g transform="translate(269.404375 212.315937) scale(0.12 -0.12)">
       <defs>
        <path id="DejaVuSans-Bold-30" d="M 2944 2338 
Q 2944 3213 2780 3570 
Q 2616 3928 2228 3928 
Q 1841 3928 1675 3570 
Q 1509 3213 1509 2338 
Q 1509 1453 1675 1090 
Q 1841 728 2228 728 
Q 2613 728 2778 1090 
Q 2944 1453 2944 2338 
z
M 4147 2328 
Q 4147 1169 3647 539 
Q 3147 -91 2228 -91 
Q 1306 -91 806 539 
Q 306 1169 306 2328 
Q 306 3491 806 4120 
Q 1306 4750 2228 4750 
Q 3147 4750 3647 4120 
Q 4147 3491 4147 2328 
z
" transform="scale(0.015625)"/>
        <path id="DejaVuSans-Bold-2e" d="M 653 1209 
L 1778 1209 
L 1778 0 
L 653 0 
L 653 1209 
z
" transform="scale(0.015625)"/>
       </defs>
       <use xlink:href="#DejaVuSans-Bold-30"/>
       <use xlink:href="#DejaVuSans-Bold-2e" transform="translate(69.580078 0)"/>
       <use xlink:href="#DejaVuSans-Bold-30" transform="translate(107.568359 0)"/>
       <use xlink:href="#DejaVuSans-Bold-30" transform="translate(177.148438 0)"/>
      </g>
     </g>
    </g>
    <g id="xtick_2">
     <g id="line2d_3">
      <path d="M 329.1776 194.697812 
L 329.1776 23.837812 
" clip-path="url(#p849b5c9e67)" style="fill: none; stroke: #c7ccd6; stroke-opacity: 0.7; stroke-width: 0.9; stroke-linecap: square"/>
     </g>
     <g id="line2d_4">
      <g>
       <use xlink:href="#m22e2c6b7a3" x="329.1776" y="194.697812" style="fill: #1f2937; stroke: #1f2937; stroke-width: 1.05"/>
      </g>
     </g>
     <g id="text_2">
      <!-- 0.25 -->
      <g transform="translate(314.374475 212.315937) scale(0.12 -0.12)">
       <defs>
        <path id="DejaVuSans-Bold-32" d="M 1844 884 
L 3897 884 
L 3897 0 
L 506 0 
L 506 884 
L 2209 2388 
Q 2438 2594 2547 2791 
Q 2656 2988 2656 3200 
Q 2656 3528 2436 3728 
Q 2216 3928 1850 3928 
Q 1569 3928 1234 3808 
Q 900 3688 519 3450 
L 519 4475 
Q 925 4609 1322 4679 
Q 1719 4750 2100 4750 
Q 2938 4750 3402 4381 
Q 3866 4013 3866 3353 
Q 3866 2972 3669 2642 
Q 3472 2313 2841 1759 
L 1844 884 
z
" transform="scale(0.015625)"/>
        <path id="DejaVuSans-Bold-35" d="M 678 4666 
L 3669 4666 
L 3669 3781 
L 1638 3781 
L 1638 3059 
Q 1775 3097 1914 3117 
Q 2053 3138 2203 3138 
Q 3056 3138 3531 2711 
Q 4006 2284 4006 1522 
Q 4006 766 3489 337 
Q 2972 -91 2053 -91 
Q 1656 -91 1267 -14 
Q 878 63 494 219 
L 494 1166 
Q 875 947 1217 837 
Q 1559 728 1863 728 
Q 2300 728 2551 942 
Q 2803 1156 2803 1522 
Q 2803 1891 2551 2103 
Q 2300 2316 1863 2316 
Q 1603 2316 1309 2248 
Q 1016 2181 678 2041 
L 678 4666 
z
" transform="scale(0.015625)"/>
       </defs>
       <use xlink:href="#DejaVuSans-Bold-30"/>
       <use xlink:href="#DejaVuSans-Bold-2e" transform="translate(69.580078 0)"/>
       <use xlink:href="#DejaVuSans-Bold-32" transform="translate(107.568359 0)"/>
       <use xlink:href="#DejaVuSans-Bold-35" transform="translate(177.148438 0)"/>
      </g>
     </g>
    </g>
    <g id="xtick_3">
     <g id="line2d_5">
      <path d="M 374.1477 194.697812 
L 374.1477 23.837812 
" clip-path="url(#p849b5c9e67)" style="fill: none; stroke: #c7ccd6; stroke-opacity: 0.7; stroke-width: 0.9; stroke-linecap: square"/>
     </g>
     <g id="line2d_6">
      <g>
       <use xlink:href="#m22e2c6b7a3" x="374.1477" y="194.697812" style="fill: #1f2937; stroke: #1f2937; stroke-width: 1.05"/>
      </g>
     </g>
     <g id="text_3">
      <!-- 0.50 -->
      <g transform="translate(359.344575 212.315937) scale(0.12 -0.12)">
       <use xlink:href="#DejaVuSans-Bold-30"/>
       <use xlink:href="#DejaVuSans-Bold-2e" transform="translate(69.580078 0)"/>
       <use xlink:href="#DejaVuSans-Bold-35" transform="translate(107.568359 0)"/>
       <use xlink:href="#DejaVuSans-Bold-30" transform="translate(177.148438 0)"/>
      </g>
     </g>
    </g>
    <g id="xtick_4">
     <g id="line2d_7">
      <path d="M 419.1178 194.697812 
L 419.1178 23.837812 
" clip-path="url(#p849b5c9e67)" style="fill: none; stroke: #c7ccd6; stroke-opacity: 0.7; stroke-width: 0.9; stroke-linecap: square"/>
     </g>
     <g id="line2d_8">
      <g>
       <use xlink:href="#m22e2c6b7a3" x="419.1178" y="194.697812" style="fill: #1f2937; stroke: #1f2937; stroke-width: 1.05"/>
      </g>
     </g>
     <g id="text_4">
      <!-- 0.75 -->
      <g transform="translate(404.314675 212.315937) scale(0.12 -0.12)">
       <defs>
        <path id="DejaVuSans-Bold-37" d="M 428 4666 
L 3944 4666 
L 3944 3988 
L 2125 0 
L 953 0 
L 2675 3781 
L 428 3781 
L 428 4666 
z
" transform="scale(0.015625)"/>
       </defs>
       <use xlink:href="#DejaVuSans-Bold-30"/>
       <use xlink:href="#DejaVuSans-Bold-2e" transform="translate(69.580078 0)"/>
       <use xlink:href="#DejaVuSans-Bold-37" transform="translate(107.568359 0)"/>
       <use xlink:href="#DejaVuSans-Bold-35" transform="translate(177.148438 0)"/>
      </g>
     </g>
    </g>
    <g id="xtick_5">
     <g id="line2d_9">
      <path d="M 464.0879 194.697812 
L 464.0879 23.837812 
" clip-path="url(#p849b5c9e67)" style="fill: none; stroke: #c7ccd6; stroke-opacity: 0.7; stroke-width: 0.9; stroke-linecap: square"/>
     </g>
     <g id="line2d_10">
      <g>
       <use xlink:href="#m22e2c6b7a3" x="464.0879" y="194.697812" style="fill: #1f2937; stroke: #1f2937; stroke-width: 1.05"/>
      </g>
     </g>
     <g id="text_5">
      <!-- 1.00 -->
      <g transform="translate(449.284775 212.315937) scale(0.12 -0.12)">
       <defs>
        <path id="DejaVuSans-Bold-31" d="M 750 831 
L 1813 831 
L 1813 3847 
L 722 3622 
L 722 4441 
L 1806 4666 
L 2950 4666 
L 2950 831 
L 4013 831 
L 4013 0 
L 750 0 
L 750 831 
z
" transform="scale(0.015625)"/>
       </defs>
       <use xlink:href="#DejaVuSans-Bold-31"/>
       <use xlink:href="#DejaVuSans-Bold-2e" transform="translate(69.580078 0)"/>
       <use xlink:href="#DejaVuSans-Bold-30" transform="translate(107.568359 0)"/>
       <use xlink:href="#DejaVuSans-Bold-30" transform="translate(177.148438 0)"/>
      </g>
     </g>
    </g>
    <g id="text_6">
     <!-- Reported score (mAP@0.5 or F1) -->
     <g style="fill: #0f172a" transform="translate(263.456138 227.929687) scale(0.12 -0.12)">
      <defs>
       <path id="DejaVuSans-Bold-52" d="M 2297 2597 
Q 2675 2597 2839 2737 
Q 3003 2878 3003 3200 
Q 3003 3519 2839 3656 
Q 2675 3794 2297 3794 
L 1791 3794 
L 1791 2597 
L 2297 2597 
z
M 1791 1766 
L 1791 0 
L 588 0 
L 588 4666 
L 2425 4666 
Q 3347 4666 3776 4356 
Q 4206 4047 4206 3378 
Q 4206 2916 3982 2619 
Q 3759 2322 3309 2181 
Q 3556 2125 3751 1926 
Q 3947 1728 4147 1325 
L 4800 0 
L 3519 0 
L 2950 1159 
Q 2778 1509 2601 1637 
Q 2425 1766 2131 1766 
L 1791 1766 
z
" transform="scale(0.015625)"/>
       <path id="DejaVuSans-Bold-65" d="M 4031 1759 
L 4031 1441 
L 1416 1441 
Q 1456 1047 1700 850 
Q 1944 653 2381 653 
Q 2734 653 3104 758 
Q 3475 863 3866 1075 
L 3866 213 
Q 3469 63 3072 -14 
Q 2675 -91 2278 -91 
Q 1328 -91 801 392 
Q 275 875 275 1747 
Q 275 2603 792 3093 
Q 1309 3584 2216 3584 
Q 3041 3584 3536 3087 
Q 4031 2591 4031 1759 
z
M 2881 2131 
Q 2881 2450 2695 2645 
Q 2509 2841 2209 2841 
Q 1884 2841 1681 2658 
Q 1478 2475 1428 2131 
L 2881 2131 
z
" transform="scale(0.015625)"/>
       <path id="DejaVuSans-Bold-70" d="M 1656 506 
L 1656 -1331 
L 538 -1331 
L 538 3500 
L 1656 3500 
L 1656 2988 
Q 1888 3294 2169 3439 
Q 2450 3584 2816 3584 
Q 3463 3584 3878 3070 
Q 4294 2556 4294 1747 
Q 4294 938 3878 423 
Q 3463 -91 2816 -91 
Q 2450 -91 2169 54 
Q 1888 200 1656 506 
z
M 2400 2772 
Q 2041 2772 1848 2508 
Q 1656 2244 1656 1747 
Q 1656 1250 1848 986 
Q 2041 722 2400 722 
Q 2759 722 2948 984 
Q 3138 1247 3138 1747 
Q 3138 2247 2948 2509 
Q 2759 2772 2400 2772 
z
" transform="scale(0.015625)"/>
       <path id="DejaVuSans-Bold-6f" d="M 2203 2784 
Q 1831 2784 1636 2517 
Q 1441 2250 1441 1747 
Q 1441 1244 1636 976 
Q 1831 709 2203 709 
Q 2569 709 2762 976 
Q 2956 1244 2956 1747 
Q 2956 2250 2762 2517 
Q 2569 2784 2203 2784 
z
M 2203 3584 
Q 3106 3584 3614 3096 
Q 4122 2609 4122 1747 
Q 4122 884 3614 396 
Q 3106 -91 2203 -91 
Q 1297 -91 786 396 
Q 275 884 275 1747 
Q 275 2609 786 3096 
Q 1297 3584 2203 3584 
z
" transform="scale(0.015625)"/>
       <path id="DejaVuSans-Bold-72" d="M 3138 2547 
Q 2991 2616 2845 2648 
Q 2700 2681 2553 2681 
Q 2122 2681 1889 2404 
Q 1656 2128 1656 1613 
L 1656 0 
L 538 0 
L 538 3500 
L 1656 3500 
L 1656 2925 
Q 1872 3269 2151 3426 
Q 2431 3584 2822 3584 
Q 2878 3584 2943 3579 
Q 3009 3575 3134 3559 
L 3138 2547 
z
" transform="scale(0.015625)"/>
       <path id="DejaVuSans-Bold-74" d="M 1759 4494 
L 1759 3500 
L 2913 3500 
L 2913 2700 
L 1759 2700 
L 1759 1216 
Q 1759 972 1856 886 
Q 1953 800 2241 800 
L 2816 800 
L 2816 0 
L 1856 0 
Q 1194 0 917 276 
Q 641 553 641 1216 
L 641 2700 
L 84 2700 
L 84 3500 
L 641 3500 
L 641 4494 
L 1759 4494 
z
" transform="scale(0.015625)"/>
       <path id="DejaVuSans-Bold-64" d="M 2919 2988 
L 2919 4863 
L 4044 4863 
L 4044 0 
L 2919 0 
L 2919 506 
Q 2688 197 2409 53 
Q 2131 -91 1766 -91 
Q 1119 -91 703 423 
Q 288 938 288 1747 
Q 288 2556 703 3070 
Q 1119 3584 1766 3584 
Q 2128 3584 2408 3439 
Q 2688 3294 2919 2988 
z
M 2181 722 
Q 2541 722 2730 984 
Q 2919 1247 2919 1747 
Q 2919 2247 2730 2509 
Q 2541 2772 2181 2772 
Q 1825 2772 1636 2509 
Q 1447 2247 1447 1747 
Q 1447 1247 1636 984 
Q 1825 722 2181 722 
z
" transform="scale(0.015625)"/>
       <path id="DejaVuSans-Bold-20" transform="scale(0.015625)"/>
       <path id="DejaVuSans-Bold-73" d="M 3272 3391 
L 3272 2541 
Q 2913 2691 2578 2766 
Q 2244 2841 1947 2841 
Q 1628 2841 1473 2761 
Q 1319 2681 1319 2516 
Q 1319 2381 1436 2309 
Q 1553 2238 1856 2203 
L 2053 2175 
Q 2913 2066 3209 1816 
Q 3506 1566 3506 1031 
Q 3506 472 3093 190 
Q 2681 -91 1863 -91 
Q 1516 -91 1145 -36 
Q 775 19 384 128 
L 384 978 
Q 719 816 1070 734 
Q 1422 653 1784 653 
Q 2113 653 2278 743 
Q 2444 834 2444 1013 
Q 2444 1163 2330 1236 
Q 2216 1309 1875 1350 
L 1678 1375 
Q 931 1469 631 1722 
Q 331 1975 331 2491 
Q 331 3047 712 3315 
Q 1094 3584 1881 3584 
Q 2191 3584 2531 3537 
Q 2872 3491 3272 3391 
z
" transform="scale(0.015625)"/>
       <path id="DejaVuSans-Bold-63" d="M 3366 3391 
L 3366 2478 
Q 3138 2634 2908 2709 
Q 2678 2784 2431 2784 
Q 1963 2784 1702 2511 
Q 1441 2238 1441 1747 
Q 1441 1256 1702 982 
Q 1963 709 2431 709 
Q 2694 709 2930 787 
Q 3166 866 3366 1019 
L 3366 103 
Q 3103 6 2833 -42 
Q 2563 -91 2291 -91 
Q 1344 -91 809 395 
Q 275 881 275 1747 
Q 275 2613 809 3098 
Q 1344 3584 2291 3584 
Q 2566 3584 2833 3536 
Q 3100 3488 3366 3391 
z
" transform="scale(0.015625)"/>
       <path id="DejaVuSans-Bold-28" d="M 2413 -844 
L 1484 -844 
Q 1006 -72 778 623 
Q 550 1319 550 2003 
Q 550 2688 779 3389 
Q 1009 4091 1484 4856 
L 2413 4856 
Q 2013 4116 1813 3408 
Q 1613 2700 1613 2009 
Q 1613 1319 1811 609 
Q 2009 -100 2413 -844 
z
" transform="scale(0.015625)"/>
       <path id="DejaVuSans-Bold-6d" d="M 3781 2919 
Q 3994 3244 4286 3414 
Q 4578 3584 4928 3584 
Q 5531 3584 5847 3212 
Q 6163 2841 6163 2131 
L 6163 0 
L 5038 0 
L 5038 1825 
Q 5041 1866 5042 1909 
Q 5044 1953 5044 2034 
Q 5044 2406 4934 2573 
Q 4825 2741 4581 2741 
Q 4263 2741 4089 2478 
Q 3916 2216 3909 1719 
L 3909 0 
L 2784 0 
L 2784 1825 
Q 2784 2406 2684 2573 
Q 2584 2741 2328 2741 
Q 2006 2741 1831 2477 
Q 1656 2213 1656 1722 
L 1656 0 
L 531 0 
L 531 3500 
L 1656 3500 
L 1656 2988 
Q 1863 3284 2130 3434 
Q 2397 3584 2719 3584 
Q 3081 3584 3359 3409 
Q 3638 3234 3781 2919 
z
" transform="scale(0.015625)"/>
       <path id="DejaVuSans-Bold-41" d="M 3419 850 
L 1538 850 
L 1241 0 
L 31 0 
L 1759 4666 
L 3194 4666 
L 4922 0 
L 3713 0 
L 3419 850 
z
M 1838 1716 
L 3116 1716 
L 2478 3572 
L 1838 1716 
z
" transform="scale(0.015625)"/>
       <path id="DejaVuSans-Bold-50" d="M 588 4666 
L 2584 4666 
Q 3475 4666 3951 4270 
Q 4428 3875 4428 3144 
Q 4428 2409 3951 2014 
Q 3475 1619 2584 1619 
L 1791 1619 
L 1791 0 
L 588 0 
L 588 4666 
z
M 1791 3794 
L 1791 2491 
L 2456 2491 
Q 2806 2491 2997 2661 
Q 3188 2831 3188 3144 
Q 3188 3456 2997 3625 
Q 2806 3794 2456 3794 
L 1791 3794 
z
" transform="scale(0.015625)"/>
       <path id="DejaVuSans-Bold-40" d="M 2597 1684 
Q 2597 1300 2761 1078 
Q 2925 856 3206 856 
Q 3484 856 3650 1079 
Q 3816 1303 3816 1684 
Q 3816 2063 3648 2283 
Q 3481 2503 3200 2503 
Q 2925 2503 2761 2283 
Q 2597 2063 2597 1684 
z
M 3878 744 
Q 3784 522 3576 398 
Q 3369 275 3091 275 
Q 2553 275 2217 664 
Q 1881 1053 1881 1678 
Q 1881 2303 2218 2693 
Q 2556 3084 3091 3084 
Q 3369 3084 3576 2959 
Q 3784 2834 3878 2613 
L 3878 3022 
L 4531 3022 
L 4531 856 
Q 4919 916 5141 1230 
Q 5363 1544 5363 2034 
Q 5363 2347 5272 2620 
Q 5181 2894 4997 3122 
Q 4700 3503 4254 3709 
Q 3809 3916 3291 3916 
Q 2928 3916 2597 3820 
Q 2266 3725 1984 3541 
Q 1522 3234 1264 2748 
Q 1006 2263 1006 1697 
Q 1006 1231 1173 823 
Q 1341 416 1656 103 
Q 1969 -203 2373 -364 
Q 2778 -525 3238 -525 
Q 3631 -525 4025 -378 
Q 4419 -231 4697 19 
L 5031 -488 
Q 4641 -791 4180 -952 
Q 3719 -1113 3244 -1113 
Q 2666 -1113 2153 -908 
Q 1641 -703 1241 -313 
Q 841 78 631 592 
Q 422 1106 422 1697 
Q 422 2266 634 2781 
Q 847 3297 1241 3688 
Q 1634 4075 2157 4287 
Q 2681 4500 3244 4500 
Q 3944 4500 4516 4233 
Q 5088 3966 5472 3463 
Q 5706 3156 5826 2798 
Q 5947 2441 5947 2047 
Q 5947 1200 5437 731 
Q 4928 263 4000 263 
L 3878 263 
L 3878 744 
z
" transform="scale(0.015625)"/>
       <path id="DejaVuSans-Bold-46" d="M 588 4666 
L 3834 4666 
L 3834 3756 
L 1791 3756 
L 1791 2888 
L 3713 2888 
L 3713 1978 
L 1791 1978 
L 1791 0 
L 588 0 
L 588 4666 
z
" transform="scale(0.015625)"/>
       <path id="DejaVuSans-Bold-29" d="M 513 -844 
Q 913 -100 1113 609 
Q 1313 1319 1313 2009 
Q 1313 2700 1113 3408 
Q 913 4116 513 4856 
L 1441 4856 
Q 1916 4091 2145 3389 
Q 2375 2688 2375 2003 
Q 2375 1319 2147 623 
Q 1919 -72 1441 -844 
L 513 -844 
z
" transform="scale(0.015625)"/>
      </defs>
      <use xlink:href="#DejaVuSans-Bold-52"/>
      <use xlink:href="#DejaVuSans-Bold-65" transform="translate(77.001953 0)"/>
      <use xlink:href="#DejaVuSans-Bold-70" transform="translate(144.824219 0)"/>
      <use xlink:href="#DejaVuSans-Bold-6f" transform="translate(216.40625 0)"/>
      <use xlink:href="#DejaVuSans-Bold-72" transform="translate(285.107422 0)"/>
      <use xlink:href="#DejaVuSans-Bold-74" transform="translate(334.423828 0)"/>
      <use xlink:href="#DejaVuSans-Bold-65" transform="translate(382.226562 0)"/>
      <use xlink:href="#DejaVuSans-Bold-64" transform="translate(450.048828 0)"/>
      <use xlink:href="#DejaVuSans-Bold-20" transform="translate(521.630859 0)"/>
      <use xlink:href="#DejaVuSans-Bold-73" transform="translate(556.445312 0)"/>
      <use xlink:href="#DejaVuSans-Bold-63" transform="translate(615.966797 0)"/>
      <use xlink:href="#DejaVuSans-Bold-6f" transform="translate(675.244141 0)"/>
      <use xlink:href="#DejaVuSans-Bold-72" transform="translate(743.945312 0)"/>
      <use xlink:href="#DejaVuSans-Bold-65" transform="translate(793.261719 0)"/>
      <use xlink:href="#DejaVuSans-Bold-20" transform="translate(861.083984 0)"/>
      <use xlink:href="#DejaVuSans-Bold-28" transform="translate(895.898438 0)"/>
      <use xlink:href="#DejaVuSans-Bold-6d" transform="translate(941.601562 0)"/>
      <use xlink:href="#DejaVuSans-Bold-41" transform="translate(1045.800781 0)"/>
      <use xlink:href="#DejaVuSans-Bold-50" transform="translate(1123.193359 0)"/>
      <use xlink:href="#DejaVuSans-Bold-40" transform="translate(1196.484375 0)"/>
      <use xlink:href="#DejaVuSans-Bold-30" transform="translate(1296.484375 0)"/>
      <use xlink:href="#DejaVuSans-Bold-2e" transform="translate(1366.064453 0)"/>
      <use xlink:href="#DejaVuSans-Bold-35" transform="translate(1404.052734 0)"/>
      <use xlink:href="#DejaVuSans-Bold-20" transform="translate(1473.632812 0)"/>
      <use xlink:href="#DejaVuSans-Bold-6f" transform="translate(1508.447266 0)"/>
      <use xlink:href="#DejaVuSans-Bold-72" transform="translate(1577.148438 0)"/>
      <use xlink:href="#DejaVuSans-Bold-20" transform="translate(1626.464844 0)"/>
      <use xlink:href="#DejaVuSans-Bold-46" transform="translate(1661.279297 0)"/>
      <use xlink:href="#DejaVuSans-Bold-31" transform="translate(1729.589844 0)"/>
      <use xlink:href="#DejaVuSans-Bold-29" transform="translate(1799.169922 0)"/>
     </g>
    </g>
   </g>
   <g id="matplotlib.axis_2">
    <g id="ytick_1">
     <g id="line2d_11">
      <defs>
       <path id="me344b6ed14" d="M 0 0 
L -5 0 
" style="stroke: #1f2937; stroke-width: 1.05"/>
      </defs>
      <g>
       <use xlink:href="#me344b6ed14" x="284.2075" y="170.58121" style="fill: #1f2937; stroke: #1f2937; stroke-width: 1.05"/>
      </g>
     </g>
     <g id="text_7">
      <!-- Di Tommaso et al. (IR hotspots) AP@0.5 -->
      <g transform="translate(7.2 175.140272) scale(0.12 -0.12)">
       <defs>
        <path id="DejaVuSans-Bold-44" d="M 1791 3756 
L 1791 909 
L 2222 909 
Q 2959 909 3348 1275 
Q 3738 1641 3738 2338 
Q 3738 3031 3350 3393 
Q 2963 3756 2222 3756 
L 1791 3756 
z
M 588 4666 
L 1856 4666 
Q 2919 4666 3439 4514 
Q 3959 4363 4331 4000 
Q 4659 3684 4818 3271 
Q 4978 2859 4978 2338 
Q 4978 1809 4818 1395 
Q 4659 981 4331 666 
Q 3956 303 3431 151 
Q 2906 0 1856 0 
L 588 0 
L 588 4666 
z
" transform="scale(0.015625)"/>
        <path id="DejaVuSans-Bold-69" d="M 538 3500 
L 1656 3500 
L 1656 0 
L 538 0 
L 538 3500 
z
M 538 4863 
L 1656 4863 
L 1656 3950 
L 538 3950 
L 538 4863 
z
" transform="scale(0.015625)"/>
        <path id="DejaVuSans-Bold-54" d="M 31 4666 
L 4331 4666 
L 4331 3756 
L 2784 3756 
L 2784 0 
L 1581 0 
L 1581 3756 
L 31 3756 
L 31 4666 
z
" transform="scale(0.015625)"/>
        <path id="DejaVuSans-Bold-61" d="M 2106 1575 
Q 1756 1575 1579 1456 
Q 1403 1338 1403 1106 
Q 1403 894 1545 773 
Q 1688 653 1941 653 
Q 2256 653 2472 879 
Q 2688 1106 2688 1447 
L 2688 1575 
L 2106 1575 
z
M 3816 1997 
L 3816 0 
L 2688 0 
L 2688 519 
Q 2463 200 2181 54 
Q 1900 -91 1497 -91 
Q 953 -91 614 226 
Q 275 544 275 1050 
Q 275 1666 698 1953 
Q 1122 2241 2028 2241 
L 2688 2241 
L 2688 2328 
Q 2688 2594 2478 2717 
Q 2269 2841 1825 2841 
Q 1466 2841 1156 2769 
Q 847 2697 581 2553 
L 581 3406 
Q 941 3494 1303 3539 
Q 1666 3584 2028 3584 
Q 2975 3584 3395 3211 
Q 3816 2838 3816 1997 
z
" transform="scale(0.015625)"/>
        <path id="DejaVuSans-Bold-6c" d="M 538 4863 
L 1656 4863 
L 1656 0 
L 538 0 
L 538 4863 
z
" transform="scale(0.015625)"/>
        <path id="DejaVuSans-Bold-49" d="M 588 4666 
L 1791 4666 
L 1791 0 
L 588 0 
L 588 4666 
z
" transform="scale(0.015625)"/>
        <path id="DejaVuSans-Bold-68" d="M 4056 2131 
L 4056 0 
L 2931 0 
L 2931 347 
L 2931 1625 
Q 2931 2084 2911 2256 
Q 2891 2428 2841 2509 
Q 2775 2619 2662 2680 
Q 2550 2741 2406 2741 
Q 2056 2741 1856 2470 
Q 1656 2200 1656 1722 
L 1656 0 
L 538 0 
L 538 4863 
L 1656 4863 
L 1656 2988 
Q 1909 3294 2193 3439 
Q 2478 3584 2822 3584 
Q 3428 3584 3742 3212 
Q 4056 2841 4056 2131 
z
" transform="scale(0.015625)"/>
       </defs>
       <use xlink:href="#DejaVuSans-Bold-44"/>
       <use xlink:href="#DejaVuSans-Bold-69" transform="translate(83.007812 0)"/>
       <use xlink:href="#DejaVuSans-Bold-20" transform="translate(117.285156 0)"/>
       <use xlink:href="#DejaVuSans-Bold-54" transform="translate(152.099609 0)"/>
       <use xlink:href="#DejaVuSans-Bold-6f" transform="translate(207.0625 0)"/>
       <use xlink:href="#DejaVuSans-Bold-6d" transform="translate(275.763672 0)"/>
       <use xlink:href="#DejaVuSans-Bold-6d" transform="translate(379.962891 0)"/>
       <use xlink:href="#DejaVuSans-Bold-61" transform="translate(484.162109 0)"/>
       <use xlink:href="#DejaVuSans-Bold-73" transform="translate(551.642578 0)"/>
       <use xlink:href="#DejaVuSans-Bold-6f" transform="translate(611.164062 0)"/>
       <use xlink:href="#DejaVuSans-Bold-20" transform="translate(679.865234 0)"/>
       <use xlink:href="#DejaVuSans-Bold-65" transform="translate(714.679688 0)"/>
       <use xlink:href="#DejaVuSans-Bold-74" transform="translate(782.501953 0)"/>
       <use xlink:href="#DejaVuSans-Bold-20" transform="translate(830.304688 0)"/>
       <use xlink:href="#DejaVuSans-Bold-61" transform="translate(865.119141 0)"/>
       <use xlink:href="#DejaVuSans-Bold-6c" transform="translate(932.599609 0)"/>
       <use xlink:href="#DejaVuSans-Bold-2e" transform="translate(966.876953 0)"/>
       <use xlink:href="#DejaVuSans-Bold-20" transform="translate(1004.865234 0)"/>
       <use xlink:href="#DejaVuSans-Bold-28" transform="translate(1039.679688 0)"/>
       <use xlink:href="#DejaVuSans-Bold-49" transform="translate(1085.382812 0)"/>
       <use xlink:href="#DejaVuSans-Bold-52" transform="translate(1122.589844 0)"/>
       <use xlink:href="#DejaVuSans-Bold-20" transform="translate(1199.591797 0)"/>
       <use xlink:href="#DejaVuSans-Bold-68" transform="translate(1234.40625 0)"/>
       <use xlink:href="#DejaVuSans-Bold-6f" transform="translate(1305.597656 0)"/>
       <use xlink:href="#DejaVuSans-Bold-74" transform="translate(1374.298828 0)"/>
       <use xlink:href="#DejaVuSans-Bold-73" transform="translate(1422.101562 0)"/>
       <use xlink:href="#DejaVuSans-Bold-70" transform="translate(1481.623047 0)"/>
       <use xlink:href="#DejaVuSans-Bold-6f" transform="translate(1553.205078 0)"/>
       <use xlink:href="#DejaVuSans-Bold-74" transform="translate(1621.90625 0)"/>
       <use xlink:href="#DejaVuSans-Bold-73" transform="translate(1669.708984 0)"/>
       <use xlink:href="#DejaVuSans-Bold-29" transform="translate(1729.230469 0)"/>
       <use xlink:href="#DejaVuSans-Bold-20" transform="translate(1774.933594 0)"/>
       <use xlink:href="#DejaVuSans-Bold-41" transform="translate(1809.748047 0)"/>
       <use xlink:href="#DejaVuSans-Bold-50" transform="translate(1887.140625 0)"/>
       <use xlink:href="#DejaVuSans-Bold-40" transform="translate(1960.431641 0)"/>
       <use xlink:href="#DejaVuSans-Bold-30" transform="translate(2060.431641 0)"/>
       <use xlink:href="#DejaVuSans-Bold-2e" transform="translate(2130.011719 0)"/>
       <use xlink:href="#DejaVuSans-Bold-35" transform="translate(2168 0)"/>
      </g>
     </g>
    </g>
    <g id="ytick_2">
     <g id="line2d_12">
      <g>
       <use xlink:href="#me344b6ed14" x="284.2075" y="129.705612" style="fill: #1f2937; stroke: #1f2937; stroke-width: 1.05"/>
      </g>
     </g>
     <g id="text_8">
      <!-- Dotenco et al. (defect cls) F1 -->
      <g transform="translate(79.370625 134.264674) scale(0.12 -0.12)">
       <defs>
        <path id="DejaVuSans-Bold-6e" d="M 4056 2131 
L 4056 0 
L 2931 0 
L 2931 347 
L 2931 1631 
Q 2931 2084 2911 2256 
Q 2891 2428 2841 2509 
Q 2775 2619 2662 2680 
Q 2550 2741 2406 2741 
Q 2056 2741 1856 2470 
Q 1656 2200 1656 1722 
L 1656 0 
L 538 0 
L 538 3500 
L 1656 3500 
L 1656 2988 
Q 1909 3294 2193 3439 
Q 2478 3584 2822 3584 
Q 3428 3584 3742 3212 
Q 4056 2841 4056 2131 
z
" transform="scale(0.015625)"/>
        <path id="DejaVuSans-Bold-66" d="M 2841 4863 
L 2841 4128 
L 2222 4128 
Q 1984 4128 1890 4042 
Q 1797 3956 1797 3744 
L 1797 3500 
L 2753 3500 
L 2753 2700 
L 1797 2700 
L 1797 0 
L 678 0 
L 678 2700 
L 122 2700 
L 122 3500 
L 678 3500 
L 678 3744 
Q 678 4316 997 4589 
Q 1316 4863 1984 4863 
L 2841 4863 
z
" transform="scale(0.015625)"/>
       </defs>
       <use xlink:href="#DejaVuSans-Bold-44"/>
       <use xlink:href="#DejaVuSans-Bold-6f" transform="translate(83.007812 0)"/>
       <use xlink:href="#DejaVuSans-Bold-74" transform="translate(151.708984 0)"/>
       <use xlink:href="#DejaVuSans-Bold-65" transform="translate(199.511719 0)"/>
       <use xlink:href="#DejaVuSans-Bold-6e" transform="translate(267.333984 0)"/>
       <use xlink:href="#DejaVuSans-Bold-63" transform="translate(338.525391 0)"/>
       <use xlink:href="#DejaVuSans-Bold-6f" transform="translate(397.802734 0)"/>
       <use xlink:href="#DejaVuSans-Bold-20" transform="translate(466.503906 0)"/>
       <use xlink:href="#DejaVuSans-Bold-65" transform="translate(501.318359 0)"/>
       <use xlink:href="#DejaVuSans-Bold-74" transform="translate(569.140625 0)"/>
       <use xlink:href="#DejaVuSans-Bold-20" transform="translate(616.943359 0)"/>
       <use xlink:href="#DejaVuSans-Bold-61" transform="translate(651.757812 0)"/>
       <use xlink:href="#DejaVuSans-Bold-6c" transform="translate(719.238281 0)"/>
       <use xlink:href="#DejaVuSans-Bold-2e" transform="translate(753.515625 0)"/>
       <use xlink:href="#DejaVuSans-Bold-20" transform="translate(791.503906 0)"/>
       <use xlink:href="#DejaVuSans-Bold-28" transform="translate(826.318359 0)"/>
       <use xlink:href="#DejaVuSans-Bold-64" transform="translate(872.021484 0)"/>
       <use xlink:href="#DejaVuSans-Bold-65" transform="translate(943.603516 0)"/>
       <use xlink:href="#DejaVuSans-Bold-66" transform="translate(1011.425781 0)"/>
       <use xlink:href="#DejaVuSans-Bold-65" transform="translate(1054.931641 0)"/>
       <use xlink:href="#DejaVuSans-Bold-63" transform="translate(1122.753906 0)"/>
       <use xlink:href="#DejaVuSans-Bold-74" transform="translate(1182.03125 0)"/>
       <use xlink:href="#DejaVuSans-Bold-20" transform="translate(1229.833984 0)"/>
       <use xlink:href="#DejaVuSans-Bold-63" transform="translate(1264.648438 0)"/>
       <use xlink:href="#DejaVuSans-Bold-6c" transform="translate(1323.925781 0)"/>
       <use xlink:href="#DejaVuSans-Bold-73" transform="translate(1358.203125 0)"/>
       <use xlink:href="#DejaVuSans-Bold-29" transform="translate(1417.724609 0)"/>
       <use xlink:href="#DejaVuSans-Bold-20" transform="translate(1463.427734 0)"/>
       <use xlink:href="#DejaVuSans-Bold-46" transform="translate(1498.242188 0)"/>
       <use xlink:href="#DejaVuSans-Bold-31" transform="translate(1566.552734 0)"/>
      </g>
     </g>
    </g>
    <g id="ytick_3">
     <g id="line2d_13">
      <g>
       <use xlink:href="#me344b6ed14" x="284.2075" y="88.830013" style="fill: #1f2937; stroke: #1f2937; stroke-width: 1.05"/>
      </g>
     </g>
     <g id="text_9">
      <!-- Xie et al. ST-YOLO mAP@0.5 -->
      <g transform="translate(88.8675 93.389076) scale(0.12 -0.12)">
       <defs>
        <path id="DejaVuSans-Bold-58" d="M 3188 2381 
L 4806 0 
L 3553 0 
L 2463 1594 
L 1381 0 
L 122 0 
L 1741 2381 
L 184 4666 
L 1441 4666 
L 2463 3163 
L 3481 4666 
L 4744 4666 
L 3188 2381 
z
" transform="scale(0.015625)"/>
        <path id="DejaVuSans-Bold-53" d="M 3834 4519 
L 3834 3531 
Q 3450 3703 3084 3790 
Q 2719 3878 2394 3878 
Q 1963 3878 1756 3759 
Q 1550 3641 1550 3391 
Q 1550 3203 1689 3098 
Q 1828 2994 2194 2919 
L 2706 2816 
Q 3484 2659 3812 2340 
Q 4141 2022 4141 1434 
Q 4141 663 3683 286 
Q 3225 -91 2284 -91 
Q 1841 -91 1394 -6 
Q 947 78 500 244 
L 500 1259 
Q 947 1022 1364 901 
Q 1781 781 2169 781 
Q 2563 781 2772 912 
Q 2981 1044 2981 1288 
Q 2981 1506 2839 1625 
Q 2697 1744 2272 1838 
L 1806 1941 
Q 1106 2091 782 2419 
Q 459 2747 459 3303 
Q 459 4000 909 4375 
Q 1359 4750 2203 4750 
Q 2588 4750 2994 4692 
Q 3400 4634 3834 4519 
z
" transform="scale(0.015625)"/>
        <path id="DejaVuSans-Bold-2d" d="M 347 2297 
L 2309 2297 
L 2309 1388 
L 347 1388 
L 347 2297 
z
" transform="scale(0.015625)"/>
        <path id="DejaVuSans-Bold-59" d="M -63 4666 
L 1253 4666 
L 2316 3003 
L 3378 4666 
L 4697 4666 
L 2919 1966 
L 2919 0 
L 1716 0 
L 1716 1966 
L -63 4666 
z
" transform="scale(0.015625)"/>
        <path id="DejaVuSans-Bold-4f" d="M 2719 3878 
Q 2169 3878 1866 3472 
Q 1563 3066 1563 2328 
Q 1563 1594 1866 1187 
Q 2169 781 2719 781 
Q 3272 781 3575 1187 
Q 3878 1594 3878 2328 
Q 3878 3066 3575 3472 
Q 3272 3878 2719 3878 
z
M 2719 4750 
Q 3844 4750 4481 4106 
Q 5119 3463 5119 2328 
Q 5119 1197 4481 553 
Q 3844 -91 2719 -91 
Q 1597 -91 958 553 
Q 319 1197 319 2328 
Q 319 3463 958 4106 
Q 1597 4750 2719 4750 
z
" transform="scale(0.015625)"/>
        <path id="DejaVuSans-Bold-4c" d="M 588 4666 
L 1791 4666 
L 1791 909 
L 3903 909 
L 3903 0 
L 588 0 
L 588 4666 
z
" transform="scale(0.015625)"/>
       </defs>
       <use xlink:href="#DejaVuSans-Bold-58"/>
       <use xlink:href="#DejaVuSans-Bold-69" transform="translate(77.099609 0)"/>
       <use xlink:href="#DejaVuSans-Bold-65" transform="translate(111.376953 0)"/>
       <use xlink:href="#DejaVuSans-Bold-20" transform="translate(179.199219 0)"/>
       <use xlink:href="#DejaVuSans-Bold-65" transform="translate(214.013672 0)"/>
       <use xlink:href="#DejaVuSans-Bold-74" transform="translate(281.835938 0)"/>
       <use xlink:href="#DejaVuSans-Bold-20" transform="translate(329.638672 0)"/>
       <use xlink:href="#DejaVuSans-Bold-61" transform="translate(364.453125 0)"/>
       <use xlink:href="#DejaVuSans-Bold-6c" transform="translate(431.933594 0)"/>
       <use xlink:href="#DejaVuSans-Bold-2e" transform="translate(466.210938 0)"/>
       <use xlink:href="#DejaVuSans-Bold-20" transform="translate(504.199219 0)"/>
       <use xlink:href="#DejaVuSans-Bold-53" transform="translate(539.013672 0)"/>
       <use xlink:href="#DejaVuSans-Bold-54" transform="translate(611.035156 0)"/>
       <use xlink:href="#DejaVuSans-Bold-2d" transform="translate(664.498047 0)"/>
       <use xlink:href="#DejaVuSans-Bold-59" transform="translate(691.251953 0)"/>
       <use xlink:href="#DejaVuSans-Bold-4f" transform="translate(760.039062 0)"/>
       <use xlink:href="#DejaVuSans-Bold-4c" transform="translate(845.048828 0)"/>
       <use xlink:href="#DejaVuSans-Bold-4f" transform="translate(905.144531 0)"/>
       <use xlink:href="#DejaVuSans-Bold-20" transform="translate(990.154297 0)"/>
       <use xlink:href="#DejaVuSans-Bold-6d" transform="translate(1024.96875 0)"/>
       <use xlink:href="#DejaVuSans-Bold-41" transform="translate(1129.167969 0)"/>
       <use xlink:href="#DejaVuSans-Bold-50" transform="translate(1206.560547 0)"/>
       <use xlink:href="#DejaVuSans-Bold-40" transform="translate(1279.851562 0)"/>
       <use xlink:href="#DejaVuSans-Bold-30" transform="translate(1379.851562 0)"/>
       <use xlink:href="#DejaVuSans-Bold-2e" transform="translate(1449.431641 0)"/>
       <use xlink:href="#DejaVuSans-Bold-35" transform="translate(1487.419922 0)"/>
      </g>
     </g>
    </g>
    <g id="ytick_4">
     <g id="line2d_14">
      <g>
       <use xlink:href="#me344b6ed14" x="284.2075" y="47.954415" style="fill: #1f2937; stroke: #1f2937; stroke-width: 1.05"/>
      </g>
     </g>
     <g id="text_10">
      <!-- This work (ensemble) mAP@0.5 -->
      <g transform="translate(61.839375 52.513478) scale(0.12 -0.12)">
       <defs>
        <path id="DejaVuSans-Bold-77" d="M 225 3500 
L 1313 3500 
L 1900 1088 
L 2491 3500 
L 3425 3500 
L 4013 1113 
L 4603 3500 
L 5691 3500 
L 4769 0 
L 3547 0 
L 2956 2406 
L 2369 0 
L 1147 0 
L 225 3500 
z
" transform="scale(0.015625)"/>
        <path id="DejaVuSans-Bold-6b" d="M 538 4863 
L 1656 4863 
L 1656 2216 
L 2944 3500 
L 4244 3500 
L 2534 1894 
L 4378 0 
L 3022 0 
L 1656 1459 
L 1656 0 
L 538 0 
L 538 4863 
z
" transform="scale(0.015625)"/>
        <path id="DejaVuSans-Bold-62" d="M 2400 722 
Q 2759 722 2948 984 
Q 3138 1247 3138 1747 
Q 3138 2247 2948 2509 
Q 2759 2772 2400 2772 
Q 2041 2772 1848 2508 
Q 1656 2244 1656 1747 
Q 1656 1250 1848 986 
Q 2041 722 2400 722 
z
M 1656 2988 
Q 1888 3294 2169 3439 
Q 2450 3584 2816 3584 
Q 3463 3584 3878 3070 
Q 4294 2556 4294 1747 
Q 4294 938 3878 423 
Q 3463 -91 2816 -91 
Q 2450 -91 2169 54 
Q 1888 200 1656 506 
L 1656 0 
L 538 0 
L 538 4863 
L 1656 4863 
L 1656 2988 
z
" transform="scale(0.015625)"/>
       </defs>
       <use xlink:href="#DejaVuSans-Bold-54"/>
       <use xlink:href="#DejaVuSans-Bold-68" transform="translate(68.212891 0)"/>
       <use xlink:href="#DejaVuSans-Bold-69" transform="translate(139.404297 0)"/>
       <use xlink:href="#DejaVuSans-Bold-73" transform="translate(173.681641 0)"/>
       <use xlink:href="#DejaVuSans-Bold-20" transform="translate(233.203125 0)"/>
       <use xlink:href="#DejaVuSans-Bold-77" transform="translate(268.017578 0)"/>
       <use xlink:href="#DejaVuSans-Bold-6f" transform="translate(360.400391 0)"/>
       <use xlink:href="#DejaVuSans-Bold-72" transform="translate(429.101562 0)"/>
       <use xlink:href="#DejaVuSans-Bold-6b" transform="translate(478.417969 0)"/>
       <use xlink:href="#DejaVuSans-Bold-20" transform="translate(544.921875 0)"/>
       <use xlink:href="#DejaVuSans-Bold-28" transform="translate(579.736328 0)"/>
       <use xlink:href="#DejaVuSans-Bold-65" transform="translate(625.439453 0)"/>
       <use xlink:href="#DejaVuSans-Bold-6e" transform="translate(693.261719 0)"/>
       <use xlink:href="#DejaVuSans-Bold-73" transform="translate(764.453125 0)"/>
       <use xlink:href="#DejaVuSans-Bold-65" transform="translate(823.974609 0)"/>
       <use xlink:href="#DejaVuSans-Bold-6d" transform="translate(891.796875 0)"/>
       <use xlink:href="#DejaVuSans-Bold-62" transform="translate(995.996094 0)"/>
       <use xlink:href="#DejaVuSans-Bold-6c" transform="translate(1067.578125 0)"/>
       <use xlink:href="#DejaVuSans-Bold-65" transform="translate(1101.855469 0)"/>
       <use xlink:href="#DejaVuSans-Bold-29" transform="translate(1169.677734 0)"/>
       <use xlink:href="#DejaVuSans-Bold-20" transform="translate(1215.380859 0)"/>
       <use xlink:href="#DejaVuSans-Bold-6d" transform="translate(1250.195312 0)"/>
       <use xlink:href="#DejaVuSans-Bold-41" transform="translate(1354.394531 0)"/>
       <use xlink:href="#DejaVuSans-Bold-50" transform="translate(1431.787109 0)"/>
       <use xlink:href="#DejaVuSans-Bold-40" transform="translate(1505.078125 0)"/>
       <use xlink:href="#DejaVuSans-Bold-30" transform="translate(1605.078125 0)"/>
       <use xlink:href="#DejaVuSans-Bold-2e" transform="translate(1674.658203 0)"/>
       <use xlink:href="#DejaVuSans-Bold-35" transform="translate(1712.646484 0)"/>
      </g>
     </g>
    </g>
   </g>
   <g id="patch_3">
    <path d="M 284.2075 186.931449 
L 404.547488 186.931449 
L 404.547488 154.23097 
L 284.2075 154.23097 
z
" clip-path="url(#p849b5c9e67)" style="fill: #1f77b4; stroke: #1f2937; stroke-linejoin: miter"/>
   </g>
   <g id="patch_4">
    <path d="M 284.2075 146.055851 
L 453.115196 146.055851 
L 453.115196 113.355372 
L 284.2075 113.355372 
z
" clip-path="url(#p849b5c9e67)" style="fill: #1f77b4; stroke: #1f2937; stroke-linejoin: miter"/>
   </g>
   <g id="patch_5">
    <path d="M 284.2075 105.180253 
L 457.971966 105.180253 
L 457.971966 72.479774 
L 284.2075 72.479774 
z
" clip-path="url(#p849b5c9e67)" style="fill: #1f77b4; stroke: #1f2937; stroke-linejoin: miter"/>
   </g>
   <g id="patch_6">
    <path d="M 284.2075 64.304655 
L 456.892684 64.304655 
L 456.892684 31.604176 
L 284.2075 31.604176 
z
" clip-path="url(#p849b5c9e67)" style="fill: #1f77b4; stroke: #1f2937; stroke-linejoin: miter"/>
   </g>
   <g id="patch_7">
    <path d="M 284.2075 194.697812 
L 284.2075 23.837812 
" style="fill: none; stroke: #1f2937; stroke-width: 1.1; stroke-linejoin: miter; stroke-linecap: square"/>
   </g>
   <g id="patch_8">
    <path d="M 464.0879 194.697812 
L 464.0879 23.837812 
" style="fill: none; stroke: #1f2937; stroke-width: 1.1; stroke-linejoin: miter; stroke-linecap: square"/>
   </g>
   <g id="patch_9">
    <path d="M 284.2075 194.697812 
L 464.0879 194.697812 
" style="fill: none; stroke: #1f2937; stroke-width: 1.1; stroke-linejoin: miter; stroke-linecap: square"/>
   </g>
   <g id="patch_10">
    <path d="M 284.2075 23.837812 
L 464.0879 23.837812 
" style="fill: none; stroke: #1f2937; stroke-width: 1.1; stroke-linejoin: miter; stroke-linecap: square"/>
   </g>
   <g id="text_11">
    <!-- 0.669 -->
    <g transform="translate(408.547488 173.340585) scale(0.1 -0.1)">
     <defs>
      <path id="DejaVuSans-Bold-36" d="M 2316 2303 
Q 2000 2303 1842 2098 
Q 1684 1894 1684 1484 
Q 1684 1075 1842 870 
Q 2000 666 2316 666 
Q 2634 666 2792 870 
Q 2950 1075 2950 1484 
Q 2950 1894 2792 2098 
Q 2634 2303 2316 2303 
z
M 3803 4544 
L 3803 3681 
Q 3506 3822 3243 3889 
Q 2981 3956 2731 3956 
Q 2194 3956 1894 3657 
Q 1594 3359 1544 2772 
Q 1750 2925 1990 3001 
Q 2231 3078 2516 3078 
Q 3231 3078 3670 2659 
Q 4109 2241 4109 1563 
Q 4109 813 3618 361 
Q 3128 -91 2303 -91 
Q 1394 -91 895 523 
Q 397 1138 397 2266 
Q 397 3422 980 4083 
Q 1563 4744 2578 4744 
Q 2900 4744 3203 4694 
Q 3506 4644 3803 4544 
z
" transform="scale(0.015625)"/>
      <path id="DejaVuSans-Bold-39" d="M 641 103 
L 641 966 
Q 928 831 1190 764 
Q 1453 697 1709 697 
Q 2247 697 2547 995 
Q 2847 1294 2900 1881 
Q 2688 1725 2447 1647 
Q 2206 1569 1925 1569 
Q 1209 1569 770 1986 
Q 331 2403 331 3084 
Q 331 3838 820 4291 
Q 1309 4744 2131 4744 
Q 3044 4744 3544 4128 
Q 4044 3513 4044 2388 
Q 4044 1231 3459 570 
Q 2875 -91 1856 -91 
Q 1528 -91 1228 -42 
Q 928 6 641 103 
z
M 2125 2350 
Q 2441 2350 2600 2554 
Q 2759 2759 2759 3169 
Q 2759 3575 2600 3781 
Q 2441 3988 2125 3988 
Q 1809 3988 1650 3781 
Q 1491 3575 1491 3169 
Q 1491 2759 1650 2554 
Q 1809 2350 2125 2350 
z
" transform="scale(0.015625)"/>
     </defs>
     <use xlink:href="#DejaVuSans-Bold-30"/>
     <use xlink:href="#DejaVuSans-Bold-2e" transform="translate(69.580078 0)"/>
     <use xlink:href="#DejaVuSans-Bold-36" transform="translate(107.568359 0)"/>
     <use xlink:href="#DejaVuSans-Bold-36" transform="translate(177.148438 0)"/>
     <use xlink:href="#DejaVuSans-Bold-39" transform="translate(246.728516 0)"/>
    </g>
   </g>
   <g id="text_12">
    <!-- 0.939 -->
    <g transform="translate(457.115196 132.464987) scale(0.1 -0.1)">
     <defs>
      <path id="DejaVuSans-Bold-33" d="M 2981 2516 
Q 3453 2394 3698 2092 
Q 3944 1791 3944 1325 
Q 3944 631 3412 270 
Q 2881 -91 1863 -91 
Q 1503 -91 1142 -33 
Q 781 25 428 141 
L 428 1069 
Q 766 900 1098 814 
Q 1431 728 1753 728 
Q 2231 728 2486 893 
Q 2741 1059 2741 1369 
Q 2741 1688 2480 1852 
Q 2219 2016 1709 2016 
L 1228 2016 
L 1228 2791 
L 1734 2791 
Q 2188 2791 2409 2933 
Q 2631 3075 2631 3366 
Q 2631 3634 2415 3781 
Q 2200 3928 1806 3928 
Q 1516 3928 1219 3862 
Q 922 3797 628 3669 
L 628 4550 
Q 984 4650 1334 4700 
Q 1684 4750 2022 4750 
Q 2931 4750 3382 4451 
Q 3834 4153 3834 3553 
Q 3834 3144 3618 2883 
Q 3403 2622 2981 2516 
z
" transform="scale(0.015625)"/>
     </defs>
     <use xlink:href="#DejaVuSans-Bold-30"/>
     <use xlink:href="#DejaVuSans-Bold-2e" transform="translate(69.580078 0)"/>
     <use xlink:href="#DejaVuSans-Bold-39" transform="translate(107.568359 0)"/>
     <use xlink:href="#DejaVuSans-Bold-33" transform="translate(177.148438 0)"/>
     <use xlink:href="#DejaVuSans-Bold-39" transform="translate(246.728516 0)"/>
    </g>
   </g>
   <g id="text_13">
    <!-- 0.966 -->
    <g transform="translate(461.971966 91.589388) scale(0.1 -0.1)">
     <use xlink:href="#DejaVuSans-Bold-30"/>
     <use xlink:href="#DejaVuSans-Bold-2e" transform="translate(69.580078 0)"/>
     <use xlink:href="#DejaVuSans-Bold-39" transform="translate(107.568359 0)"/>
     <use xlink:href="#DejaVuSans-Bold-36" transform="translate(177.148438 0)"/>
     <use xlink:href="#DejaVuSans-Bold-36" transform="translate(246.728516 0)"/>
    </g>
   </g>
   <g id="text_14">
    <!-- 0.96 -->
    <g transform="translate(460.892684 50.71379) scale(0.1 -0.1)">
     <use xlink:href="#DejaVuSans-Bold-30"/>
     <use xlink:href="#DejaVuSans-Bold-2e" transform="translate(69.580078 0)"/>
     <use xlink:href="#DejaVuSans-Bold-39" transform="translate(107.568359 0)"/>
     <use xlink:href="#DejaVuSans-Bold-36" transform="translate(177.148438 0)"/>
    </g>
   </g>
   <g id="text_15">
    <!-- Representative quantitative comparison (reported by authors) -->
    <g style="fill: #0f172a" transform="translate(126.210981 17.837812) scale(0.14 -0.14)">
     <defs>
      <path id="DejaVuSans-Bold-76" d="M 97 3500 
L 1216 3500 
L 2088 1081 
L 2956 3500 
L 4078 3500 
L 2700 0 
L 1472 0 
L 97 3500 
z
" transform="scale(0.015625)"/>
      <path id="DejaVuSans-Bold-71" d="M 2181 2772 
Q 1825 2772 1636 2509 
Q 1447 2247 1447 1747 
Q 1447 1247 1636 984 
Q 1825 722 2181 722 
Q 2541 722 2730 984 
Q 2919 1247 2919 1747 
Q 2919 2247 2730 2509 
Q 2541 2772 2181 2772 
z
M 2919 506 
Q 2688 197 2409 53 
Q 2131 -91 1766 -91 
Q 1119 -91 703 423 
Q 288 938 288 1747 
Q 288 2556 703 3067 
Q 1119 3578 1766 3578 
Q 2131 3578 2409 3434 
Q 2688 3291 2919 2981 
L 2919 3500 
L 4044 3500 
L 4044 -1331 
L 2919 -1331 
L 2919 506 
z
" transform="scale(0.015625)"/>
      <path id="DejaVuSans-Bold-75" d="M 500 1363 
L 500 3500 
L 1625 3500 
L 1625 3150 
Q 1625 2866 1622 2436 
Q 1619 2006 1619 1863 
Q 1619 1441 1641 1255 
Q 1663 1069 1716 984 
Q 1784 875 1895 815 
Q 2006 756 2150 756 
Q 2500 756 2700 1025 
Q 2900 1294 2900 1772 
L 2900 3500 
L 4019 3500 
L 4019 0 
L 2900 0 
L 2900 506 
Q 2647 200 2364 54 
Q 2081 -91 1741 -91 
Q 1134 -91 817 281 
Q 500 653 500 1363 
z
" transform="scale(0.015625)"/>
      <path id="DejaVuSans-Bold-79" d="M 78 3500 
L 1197 3500 
L 2138 1125 
L 2938 3500 
L 4056 3500 
L 2584 -331 
Q 2363 -916 2067 -1148 
Q 1772 -1381 1288 -1381 
L 641 -1381 
L 641 -647 
L 991 -647 
Q 1275 -647 1404 -556 
Q 1534 -466 1606 -231 
L 1638 -134 
L 78 3500 
z
" transform="scale(0.015625)"/>
     </defs>
     <use xlink:href="#DejaVuSans-Bold-52"/>
     <use xlink:href="#DejaVuSans-Bold-65" transform="translate(77.001953 0)"/>
     <use xlink:href="#DejaVuSans-Bold-70" transform="translate(144.824219 0)"/>
     <use xlink:href="#DejaVuSans-Bold-72" transform="translate(216.40625 0)"/>
     <use xlink:href="#DejaVuSans-Bold-65" transform="translate(265.722656 0)"/>
     <use xlink:href="#DejaVuSans-Bold-73" transform="translate(333.544922 0)"/>
     <use xlink:href="#DejaVuSans-Bold-65" transform="translate(393.066406 0)"/>
     <use xlink:href="#DejaVuSans-Bold-6e" transform="translate(460.888672 0)"/>
     <use xlink:href="#DejaVuSans-Bold-74" transform="translate(532.080078 0)"/>
     <use xlink:href="#DejaVuSans-Bold-61" transform="translate(579.882812 0)"/>
     <use xlink:href="#DejaVuSans-Bold-74" transform="translate(647.363281 0)"/>
     <use xlink:href="#DejaVuSans-Bold-69" transform="translate(695.166016 0)"/>
     <use xlink:href="#DejaVuSans-Bold-76" transform="translate(729.443359 0)"/>
     <use xlink:href="#DejaVuSans-Bold-65" transform="translate(794.628906 0)"/>
     <use xlink:href="#DejaVuSans-Bold-20" transform="translate(862.451172 0)"/>
     <use xlink:href="#DejaVuSans-Bold-71" transform="translate(897.265625 0)"/>
     <use xlink:href="#DejaVuSans-Bold-75" transform="translate(968.847656 0)"/>
     <use xlink:href="#DejaVuSans-Bold-61" transform="translate(1040.039062 0)"/>
     <use xlink:href="#DejaVuSans-Bold-6e" transform="translate(1107.519531 0)"/>
     <use xlink:href="#DejaVuSans-Bold-74" transform="translate(1178.710938 0)"/>
     <use xlink:href="#DejaVuSans-Bold-69" transform="translate(1226.513672 0)"/>
     <use xlink:href="#DejaVuSans-Bold-74" transform="translate(1260.791016 0)"/>
     <use xlink:href="#DejaVuSans-Bold-61" transform="translate(1308.59375 0)"/>
     <use xlink:href="#DejaVuSans-Bold-74" transform="translate(1376.074219 0)"/>
     <use xlink:href="#DejaVuSans-Bold-69" transform="translate(1423.876953 0)"/>
     <use xlink:href="#DejaVuSans-Bold-76" transform="translate(1458.154297 0)"/>
     <use xlink:href="#DejaVuSans-Bold-65" transform="translate(1523.339844 0)"/>
     <use xlink:href="#DejaVuSans-Bold-20" transform="translate(1591.162109 0)"/>
     <use xlink:href="#DejaVuSans-Bold-63" transform="translate(1625.976562 0)"/>
     <use xlink:href="#DejaVuSans-Bold-6f" transform="translate(1685.253906 0)"/>
     <use xlink:href="#DejaVuSans-Bold-6d" transform="translate(1753.955078 0)"/>
     <use xlink:href="#DejaVuSans-Bold-70" transform="translate(1858.154297 0)"/>
     <use xlink:href="#DejaVuSans-Bold-61" transform="translate(1929.736328 0)"/>
     <use xlink:href="#DejaVuSans-Bold-72" transform="translate(1997.216797 0)"/>
     <use xlink:href="#DejaVuSans-Bold-69" transform="translate(2046.533203 0)"/>
     <use xlink:href="#DejaVuSans-Bold-73" transform="translate(2080.810547 0)"/>
     <use xlink:href="#DejaVuSans-Bold-6f" transform="translate(2140.332031 0)"/>
     <use xlink:href="#DejaVuSans-Bold-6e" transform="translate(2209.033203 0)"/>
     <use xlink:href="#DejaVuSans-Bold-20" transform="translate(2280.224609 0)"/>
     <use xlink:href="#DejaVuSans-Bold-28" transform="translate(2315.039062 0)"/>
     <use xlink:href="#DejaVuSans-Bold-72" transform="translate(2360.742188 0)"/>
     <use xlink:href="#DejaVuSans-Bold-65" transform="translate(2410.058594 0)"/>
     <use xlink:href="#DejaVuSans-Bold-70" transform="translate(2477.880859 0)"/>
     <use xlink:href="#DejaVuSans-Bold-6f" transform="translate(2549.462891 0)"/>
     <use xlink:href="#DejaVuSans-Bold-72" transform="translate(2618.164062 0)"/>
     <use xlink:href="#DejaVuSans-Bold-74" transform="translate(2667.480469 0)"/>
     <use xlink:href="#DejaVuSans-Bold-65" transform="translate(2715.283203 0)"/>
     <use xlink:href="#DejaVuSans-Bold-64" transform="translate(2783.105469 0)"/>
     <use xlink:href="#DejaVuSans-Bold-20" transform="translate(2854.6875 0)"/>
     <use xlink:href="#DejaVuSans-Bold-62" transform="translate(2889.501953 0)"/>
     <use xlink:href="#DejaVuSans-Bold-79" transform="translate(2961.083984 0)"/>
     <use xlink:href="#DejaVuSans-Bold-20" transform="translate(3026.269531 0)"/>
     <use xlink:href="#DejaVuSans-Bold-61" transform="translate(3061.083984 0)"/>
     <use xlink:href="#DejaVuSans-Bold-75" transform="translate(3128.564453 0)"/>
     <use xlink:href="#DejaVuSans-Bold-74" transform="translate(3199.755859 0)"/>
     <use xlink:href="#DejaVuSans-Bold-68" transform="translate(3247.558594 0)"/>
     <use xlink:href="#DejaVuSans-Bold-6f" transform="translate(3318.75 0)"/>
     <use xlink:href="#DejaVuSans-Bold-72" transform="translate(3387.451172 0)"/>
     <use xlink:href="#DejaVuSans-Bold-73" transform="translate(3436.767578 0)"/>
     <use xlink:href="#DejaVuSans-Bold-29" transform="translate(3496.289062 0)"/>
    </g>
   </g>
  </g>
 </g>
 <defs>
  <clipPath id="p849b5c9e67">
   <rect x="284.2075" y="23.837812" width="179.8804" height="170.86"/>
  </clipPath>
 </defs>
</svg>
