<?xml version="1.0" encoding="utf-8" standalone="no"?>
<!DOCTYPE svg PUBLIC "-//W3C//DTD SVG 1.1//EN"
  "http://www.w3.org/Graphics/SVG/1.1/DTD/svg11.dtd">
<svg xmlns:xlink="http://www.w3.org/1999/xlink" width="454.349062pt" height="403.904125pt" viewBox="0 0 454.349062 403.904125" xmlns="http://www.w3.org/2000/svg" version="1.1">
 <metadata>
  <rdf:RDF xmlns:dc="http://purl.org/dc/elements/1.1/" xmlns:cc="http://creativecommons.org/ns#" xmlns:rdf="http://www.w3.org/1999/02/22-rdf-syntax-ns#">
   <cc:Work>
    <dc:type rdf:resource="http://purl.org/dc/dcmitype/StillImage"/>
    <dc:date>2025-02-21T19:31:02.944789</dc:date>
    <dc:format>image/svg+xml</dc:format>
    <dc:creator>
     <cc:Agent>
      <dc:title>Matplotlib v3.7.1, https://matplotlib.org/</dc:title>
     </cc:Agent>
    </dc:creator>
   </cc:Work>
  </rdf:RDF>
 </metadata>
 <defs>
  <style type="text/css">*{stroke-linejoin: round; stroke-linecap: butt}</style>
 </defs>
 <g id="figure_1">
  <g id="patch_1">
   <path d="M 0 403.904125 
L 454.349062 403.904125 
L 454.349062 0 
L 0 0 
z
" style="fill: #ffffff"/>
  </g>
  <g id="axes_1">
   <g id="patch_2">
    <path d="M 56.549063 358.605375 
L 447.149063 358.605375 
L 447.149063 25.965375 
L 56.549063 25.965375 
z
" style="fill: #ffffff"/>
   </g>
   <g id="matplotlib.axis_1">
    <g id="xtick_1">
     <g id="line2d_1">
      <defs>
       <path id="m9a1e84228e" d="M 0 0 
L 0 3.5 
" style="stroke: #000000; stroke-width: 0.8"/>
      </defs>
      <g>
       <use xlink:href="#m9a1e84228e" x="74.303608" y="358.605375" style="stroke: #000000; stroke-width: 0.8"/>
      </g>
     </g>
     <g id="text_1">
      <!-- 0.0 -->
      <g transform="translate(61.903764 376.243188) scale(0.14 -0.14)">
       <defs>
        <path id="DejaVuSans-Bold-30" d="M 2944 2338 
Q 2944 3213 2780 3570 
Q 2616 3928 2228 3928 
Q 1841 3928 1675 3570 
Q 1509 3213 1509 2338 
Q 1509 1453 1675 1090 
Q 1841 728 2228 728 
Q 2613 728 2778 1090 
Q 2944 1453 2944 2338 
z
M 4147 2328 
Q 4147 1169 3647 539 
Q 3147 -91 2228 -91 
Q 1306 -91 806 539 
Q 306 1169 306 2328 
Q 306 3491 806 4120 
Q 1306 4750 2228 4750 
Q 3147 4750 3647 4120 
Q 4147 3491 4147 2328 
z
" transform="scale(0.015625)"/>
        <path id="DejaVuSans-Bold-2e" d="M 653 1209 
L 1778 1209 
L 1778 0 
L 653 0 
L 653 1209 
z
" transform="scale(0.015625)"/>
       </defs>
       <use xlink:href="#DejaVuSans-Bold-30"/>
       <use xlink:href="#DejaVuSans-Bold-2e" x="69.580078"/>
       <use xlink:href="#DejaVuSans-Bold-30" x="107.568359"/>
      </g>
     </g>
    </g>
    <g id="xtick_2">
     <g id="line2d_2">
      <g>
       <use xlink:href="#m9a1e84228e" x="145.32179" y="358.605375" style="stroke: #000000; stroke-width: 0.8"/>
      </g>
     </g>
     <g id="text_2">
      <!-- 0.2 -->
      <g transform="translate(132.921946 376.243188) scale(0.14 -0.14)">
       <defs>
        <path id="DejaVuSans-Bold-32" d="M 1844 884 
L 3897 884 
L 3897 0 
L 506 0 
L 506 884 
L 2209 2388 
Q 2438 2594 2547 2791 
Q 2656 2988 2656 3200 
Q 2656 3528 2436 3728 
Q 2216 3928 1850 3928 
Q 1569 3928 1234 3808 
Q 900 3688 519 3450 
L 519 4475 
Q 925 4609 1322 4679 
Q 1719 4750 2100 4750 
Q 2938 4750 3402 4381 
Q 3866 4013 3866 3353 
Q 3866 2972 3669 2642 
Q 3472 2313 2841 1759 
L 1844 884 
z
" transform="scale(0.015625)"/>
       </defs>
       <use xlink:href="#DejaVuSans-Bold-30"/>
       <use xlink:href="#DejaVuSans-Bold-2e" x="69.580078"/>
       <use xlink:href="#DejaVuSans-Bold-32" x="107.568359"/>
      </g>
     </g>
    </g>
    <g id="xtick_3">
     <g id="line2d_3">
      <g>
       <use xlink:href="#m9a1e84228e" x="216.339972" y="358.605375" style="stroke: #000000; stroke-width: 0.8"/>
      </g>
     </g>
     <g id="text_3">
      <!-- 0.4 -->
      <g transform="translate(203.940128 376.243188) scale(0.14 -0.14)">
       <defs>
        <path id="DejaVuSans-Bold-34" d="M 2356 3675 
L 1038 1722 
L 2356 1722 
L 2356 3675 
z
M 2156 4666 
L 3494 4666 
L 3494 1722 
L 4159 1722 
L 4159 850 
L 3494 850 
L 3494 0 
L 2356 0 
L 2356 850 
L 288 850 
L 288 1881 
L 2156 4666 
z
" transform="scale(0.015625)"/>
       </defs>
       <use xlink:href="#DejaVuSans-Bold-30"/>
       <use xlink:href="#DejaVuSans-Bold-2e" x="69.580078"/>
       <use xlink:href="#DejaVuSans-Bold-34" x="107.568359"/>
      </g>
     </g>
    </g>
    <g id="xtick_4">
     <g id="line2d_4">
      <g>
       <use xlink:href="#m9a1e84228e" x="287.358153" y="358.605375" style="stroke: #000000; stroke-width: 0.8"/>
      </g>
     </g>
     <g id="text_4">
      <!-- 0.6 -->
      <g transform="translate(274.95831 376.243188) scale(0.14 -0.14)">
       <defs>
        <path id="DejaVuSans-Bold-36" d="M 2316 2303 
Q 2000 2303 1842 2098 
Q 1684 1894 1684 1484 
Q 1684 1075 1842 870 
Q 2000 666 2316 666 
Q 2634 666 2792 870 
Q 2950 1075 2950 1484 
Q 2950 1894 2792 2098 
Q 2634 2303 2316 2303 
z
M 3803 4544 
L 3803 3681 
Q 3506 3822 3243 3889 
Q 2981 3956 2731 3956 
Q 2194 3956 1894 3657 
Q 1594 3359 1544 2772 
Q 1750 2925 1990 3001 
Q 2231 3078 2516 3078 
Q 3231 3078 3670 2659 
Q 4109 2241 4109 1563 
Q 4109 813 3618 361 
Q 3128 -91 2303 -91 
Q 1394 -91 895 523 
Q 397 1138 397 2266 
Q 397 3422 980 4083 
Q 1563 4744 2578 4744 
Q 2900 4744 3203 4694 
Q 3506 4644 3803 4544 
z
" transform="scale(0.015625)"/>
       </defs>
       <use xlink:href="#DejaVuSans-Bold-30"/>
       <use xlink:href="#DejaVuSans-Bold-2e" x="69.580078"/>
       <use xlink:href="#DejaVuSans-Bold-36" x="107.568359"/>
      </g>
     </g>
    </g>
    <g id="xtick_5">
     <g id="line2d_5">
      <g>
       <use xlink:href="#m9a1e84228e" x="358.376335" y="358.605375" style="stroke: #000000; stroke-width: 0.8"/>
      </g>
     </g>
     <g id="text_5">
      <!-- 0.8 -->
      <g transform="translate(345.976491 376.243188) scale(0.14 -0.14)">
       <defs>
        <path id="DejaVuSans-Bold-38" d="M 2228 2088 
Q 1891 2088 1709 1903 
Q 1528 1719 1528 1375 
Q 1528 1031 1709 848 
Q 1891 666 2228 666 
Q 2563 666 2741 848 
Q 2919 1031 2919 1375 
Q 2919 1722 2741 1905 
Q 2563 2088 2228 2088 
z
M 1350 2484 
Q 925 2613 709 2878 
Q 494 3144 494 3541 
Q 494 4131 934 4440 
Q 1375 4750 2228 4750 
Q 3075 4750 3515 4442 
Q 3956 4134 3956 3541 
Q 3956 3144 3739 2878 
Q 3522 2613 3097 2484 
Q 3572 2353 3814 2058 
Q 4056 1763 4056 1313 
Q 4056 619 3595 264 
Q 3134 -91 2228 -91 
Q 1319 -91 855 264 
Q 391 619 391 1313 
Q 391 1763 633 2058 
Q 875 2353 1350 2484 
z
M 1631 3419 
Q 1631 3141 1786 2991 
Q 1941 2841 2228 2841 
Q 2509 2841 2662 2991 
Q 2816 3141 2816 3419 
Q 2816 3697 2662 3845 
Q 2509 3994 2228 3994 
Q 1941 3994 1786 3844 
Q 1631 3694 1631 3419 
z
" transform="scale(0.015625)"/>
       </defs>
       <use xlink:href="#DejaVuSans-Bold-30"/>
       <use xlink:href="#DejaVuSans-Bold-2e" x="69.580078"/>
       <use xlink:href="#DejaVuSans-Bold-38" x="107.568359"/>
      </g>
     </g>
    </g>
    <g id="xtick_6">
     <g id="line2d_6">
      <g>
       <use xlink:href="#m9a1e84228e" x="429.394517" y="358.605375" style="stroke: #000000; stroke-width: 0.8"/>
      </g>
     </g>
     <g id="text_6">
      <!-- 1.0 -->
      <g transform="translate(416.994673 376.243188) scale(0.14 -0.14)">
       <defs>
        <path id="DejaVuSans-Bold-31" d="M 750 831 
L 1813 831 
L 1813 3847 
L 722 3622 
L 722 4441 
L 1806 4666 
L 2950 4666 
L 2950 831 
L 4013 831 
L 4013 0 
L 750 0 
L 750 831 
z
" transform="scale(0.015625)"/>
       </defs>
       <use xlink:href="#DejaVuSans-Bold-31"/>
       <use xlink:href="#DejaVuSans-Bold-2e" x="69.580078"/>
       <use xlink:href="#DejaVuSans-Bold-30" x="107.568359"/>
      </g>
     </g>
    </g>
    <g id="text_7">
     <!-- Recall -->
     <g transform="translate(228.038125 393.792563) scale(0.14 -0.14)">
      <defs>
       <path id="DejaVuSans-Bold-52" d="M 2297 2597 
Q 2675 2597 2839 2737 
Q 3003 2878 3003 3200 
Q 3003 3519 2839 3656 
Q 2675 3794 2297 3794 
L 1791 3794 
L 1791 2597 
L 2297 2597 
z
M 1791 1766 
L 1791 0 
L 588 0 
L 588 4666 
L 2425 4666 
Q 3347 4666 3776 4356 
Q 4206 4047 4206 3378 
Q 4206 2916 3982 2619 
Q 3759 2322 3309 2181 
Q 3556 2125 3751 1926 
Q 3947 1728 4147 1325 
L 4800 0 
L 3519 0 
L 2950 1159 
Q 2778 1509 2601 1637 
Q 2425 1766 2131 1766 
L 1791 1766 
z
" transform="scale(0.015625)"/>
       <path id="DejaVuSans-Bold-65" d="M 4031 1759 
L 4031 1441 
L 1416 1441 
Q 1456 1047 1700 850 
Q 1944 653 2381 653 
Q 2734 653 3104 758 
Q 3475 863 3866 1075 
L 3866 213 
Q 3469 63 3072 -14 
Q 2675 -91 2278 -91 
Q 1328 -91 801 392 
Q 275 875 275 1747 
Q 275 2603 792 3093 
Q 1309 3584 2216 3584 
Q 3041 3584 3536 3087 
Q 4031 2591 4031 1759 
z
M 2881 2131 
Q 2881 2450 2695 2645 
Q 2509 2841 2209 2841 
Q 1884 2841 1681 2658 
Q 1478 2475 1428 2131 
L 2881 2131 
z
" transform="scale(0.015625)"/>
       <path id="DejaVuSans-Bold-63" d="M 3366 3391 
L 3366 2478 
Q 3138 2634 2908 2709 
Q 2678 2784 2431 2784 
Q 1963 2784 1702 2511 
Q 1441 2238 1441 1747 
Q 1441 1256 1702 982 
Q 1963 709 2431 709 
Q 2694 709 2930 787 
Q 3166 866 3366 1019 
L 3366 103 
Q 3103 6 2833 -42 
Q 2563 -91 2291 -91 
Q 1344 -91 809 395 
Q 275 881 275 1747 
Q 275 2613 809 3098 
Q 1344 3584 2291 3584 
Q 2566 3584 2833 3536 
Q 3100 3488 3366 3391 
z
" transform="scale(0.015625)"/>
       <path id="DejaVuSans-Bold-61" d="M 2106 1575 
Q 1756 1575 1579 1456 
Q 1403 1338 1403 1106 
Q 1403 894 1545 773 
Q 1688 653 1941 653 
Q 2256 653 2472 879 
Q 2688 1106 2688 1447 
L 2688 1575 
L 2106 1575 
z
M 3816 1997 
L 3816 0 
L 2688 0 
L 2688 519 
Q 2463 200 2181 54 
Q 1900 -91 1497 -91 
Q 953 -91 614 226 
Q 275 544 275 1050 
Q 275 1666 698 1953 
Q 1122 2241 2028 2241 
L 2688 2241 
L 2688 2328 
Q 2688 2594 2478 2717 
Q 2269 2841 1825 2841 
Q 1466 2841 1156 2769 
Q 847 2697 581 2553 
L 581 3406 
Q 941 3494 1303 3539 
Q 1666 3584 2028 3584 
Q 2975 3584 3395 3211 
Q 3816 2838 3816 1997 
z
" transform="scale(0.015625)"/>
       <path id="DejaVuSans-Bold-6c" d="M 538 4863 
L 1656 4863 
L 1656 0 
L 538 0 
L 538 4863 
z
" transform="scale(0.015625)"/>
      </defs>
      <use xlink:href="#DejaVuSans-Bold-52"/>
      <use xlink:href="#DejaVuSans-Bold-65" x="77.001953"/>
      <use xlink:href="#DejaVuSans-Bold-63" x="144.824219"/>
      <use xlink:href="#DejaVuSans-Bold-61" x="204.101562"/>
      <use xlink:href="#DejaVuSans-Bold-6c" x="271.582031"/>
      <use xlink:href="#DejaVuSans-Bold-6c" x="305.859375"/>
     </g>
    </g>
   </g>
   <g id="matplotlib.axis_2">
    <g id="ytick_1">
     <g id="line2d_7">
      <defs>
       <path id="m3e0608f0c4" d="M 0 0 
L -3.5 0 
" style="stroke: #000000; stroke-width: 0.8"/>
      </defs>
      <g>
       <use xlink:href="#m3e0608f0c4" x="56.549063" y="343.485375" style="stroke: #000000; stroke-width: 0.8"/>
      </g>
     </g>
     <g id="text_8">
      <!-- 0.3 -->
      <g transform="translate(24.749375 348.804281) scale(0.14 -0.14)">
       <defs>
        <path id="DejaVuSans-Bold-33" d="M 2981 2516 
Q 3453 2394 3698 2092 
Q 3944 1791 3944 1325 
Q 3944 631 3412 270 
Q 2881 -91 1863 -91 
Q 1503 -91 1142 -33 
Q 781 25 428 141 
L 428 1069 
Q 766 900 1098 814 
Q 1431 728 1753 728 
Q 2231 728 2486 893 
Q 2741 1059 2741 1369 
Q 2741 1688 2480 1852 
Q 2219 2016 1709 2016 
L 1228 2016 
L 1228 2791 
L 1734 2791 
Q 2188 2791 2409 2933 
Q 2631 3075 2631 3366 
Q 2631 3634 2415 3781 
Q 2200 3928 1806 3928 
Q 1516 3928 1219 3862 
Q 922 3797 628 3669 
L 628 4550 
Q 984 4650 1334 4700 
Q 1684 4750 2022 4750 
Q 2931 4750 3382 4451 
Q 3834 4153 3834 3553 
Q 3834 3144 3618 2883 
Q 3403 2622 2981 2516 
z
" transform="scale(0.015625)"/>
       </defs>
       <use xlink:href="#DejaVuSans-Bold-30"/>
       <use xlink:href="#DejaVuSans-Bold-2e" x="69.580078"/>
       <use xlink:href="#DejaVuSans-Bold-33" x="107.568359"/>
      </g>
     </g>
    </g>
    <g id="ytick_2">
     <g id="line2d_8">
      <g>
       <use xlink:href="#m3e0608f0c4" x="56.549063" y="300.285375" style="stroke: #000000; stroke-width: 0.8"/>
      </g>
     </g>
     <g id="text_9">
      <!-- 0.4 -->
      <g transform="translate(24.749375 305.604281) scale(0.14 -0.14)">
       <use xlink:href="#DejaVuSans-Bold-30"/>
       <use xlink:href="#DejaVuSans-Bold-2e" x="69.580078"/>
       <use xlink:href="#DejaVuSans-Bold-34" x="107.568359"/>
      </g>
     </g>
    </g>
    <g id="ytick_3">
     <g id="line2d_9">
      <g>
       <use xlink:href="#m3e0608f0c4" x="56.549063" y="257.085375" style="stroke: #000000; stroke-width: 0.8"/>
      </g>
     </g>
     <g id="text_10">
      <!-- 0.5 -->
      <g transform="translate(24.749375 262.404281) scale(0.14 -0.14)">
       <defs>
        <path id="DejaVuSans-Bold-35" d="M 678 4666 
L 3669 4666 
L 3669 3781 
L 1638 3781 
L 1638 3059 
Q 1775 3097 1914 3117 
Q 2053 3138 2203 3138 
Q 3056 3138 3531 2711 
Q 4006 2284 4006 1522 
Q 4006 766 3489 337 
Q 2972 -91 2053 -91 
Q 1656 -91 1267 -14 
Q 878 63 494 219 
L 494 1166 
Q 875 947 1217 837 
Q 1559 728 1863 728 
Q 2300 728 2551 942 
Q 2803 1156 2803 1522 
Q 2803 1891 2551 2103 
Q 2300 2316 1863 2316 
Q 1603 2316 1309 2248 
Q 1016 2181 678 2041 
L 678 4666 
z
" transform="scale(0.015625)"/>
       </defs>
       <use xlink:href="#DejaVuSans-Bold-30"/>
       <use xlink:href="#DejaVuSans-Bold-2e" x="69.580078"/>
       <use xlink:href="#DejaVuSans-Bold-35" x="107.568359"/>
      </g>
     </g>
    </g>
    <g id="ytick_4">
     <g id="line2d_10">
      <g>
       <use xlink:href="#m3e0608f0c4" x="56.549063" y="213.885375" style="stroke: #000000; stroke-width: 0.8"/>
      </g>
     </g>
     <g id="text_11">
      <!-- 0.6 -->
      <g transform="translate(24.749375 219.204281) scale(0.14 -0.14)">
       <use xlink:href="#DejaVuSans-Bold-30"/>
       <use xlink:href="#DejaVuSans-Bold-2e" x="69.580078"/>
       <use xlink:href="#DejaVuSans-Bold-36" x="107.568359"/>
      </g>
     </g>
    </g>
    <g id="ytick_5">
     <g id="line2d_11">
      <g>
       <use xlink:href="#m3e0608f0c4" x="56.549063" y="170.685375" style="stroke: #000000; stroke-width: 0.8"/>
      </g>
     </g>
     <g id="text_12">
      <!-- 0.7 -->
      <g transform="translate(24.749375 176.004281) scale(0.14 -0.14)">
       <defs>
        <path id="DejaVuSans-Bold-37" d="M 428 4666 
L 3944 4666 
L 3944 3988 
L 2125 0 
L 953 0 
L 2675 3781 
L 428 3781 
L 428 4666 
z
" transform="scale(0.015625)"/>
       </defs>
       <use xlink:href="#DejaVuSans-Bold-30"/>
       <use xlink:href="#DejaVuSans-Bold-2e" x="69.580078"/>
       <use xlink:href="#DejaVuSans-Bold-37" x="107.568359"/>
      </g>
     </g>
    </g>
    <g id="ytick_6">
     <g id="line2d_12">
      <g>
       <use xlink:href="#m3e0608f0c4" x="56.549063" y="127.485375" style="stroke: #000000; stroke-width: 0.8"/>
      </g>
     </g>
     <g id="text_13">
      <!-- 0.8 -->
      <g transform="translate(24.749375 132.804281) scale(0.14 -0.14)">
       <use xlink:href="#DejaVuSans-Bold-30"/>
       <use xlink:href="#DejaVuSans-Bold-2e" x="69.580078"/>
       <use xlink:href="#DejaVuSans-Bold-38" x="107.568359"/>
      </g>
     </g>
    </g>
    <g id="ytick_7">
     <g id="line2d_13">
      <g>
       <use xlink:href="#m3e0608f0c4" x="56.549063" y="84.285375" style="stroke: #000000; stroke-width: 0.8"/>
      </g>
     </g>
     <g id="text_14">
      <!-- 0.9 -->
      <g transform="translate(24.749375 89.604281) scale(0.14 -0.14)">
       <defs>
        <path id="DejaVuSans-Bold-39" d="M 641 103 
L 641 966 
Q 928 831 1190 764 
Q 1453 697 1709 697 
Q 2247 697 2547 995 
Q 2847 1294 2900 1881 
Q 2688 1725 2447 1647 
Q 2206 1569 1925 1569 
Q 1209 1569 770 1986 
Q 331 2403 331 3084 
Q 331 3838 820 4291 
Q 1309 4744 2131 4744 
Q 3044 4744 3544 4128 
Q 4044 3513 4044 2388 
Q 4044 1231 3459 570 
Q 2875 -91 1856 -91 
Q 1528 -91 1228 -42 
Q 928 6 641 103 
z
M 2125 2350 
Q 2441 2350 2600 2554 
Q 2759 2759 2759 3169 
Q 2759 3575 2600 3781 
Q 2441 3988 2125 3988 
Q 1809 3988 1650 3781 
Q 1491 3575 1491 3169 
Q 1491 2759 1650 2554 
Q 1809 2350 2125 2350 
z
" transform="scale(0.015625)"/>
       </defs>
       <use xlink:href="#DejaVuSans-Bold-30"/>
       <use xlink:href="#DejaVuSans-Bold-2e" x="69.580078"/>
       <use xlink:href="#DejaVuSans-Bold-39" x="107.568359"/>
      </g>
     </g>
    </g>
    <g id="ytick_8">
     <g id="line2d_14">
      <g>
       <use xlink:href="#m3e0608f0c4" x="56.549063" y="41.085375" style="stroke: #000000; stroke-width: 0.8"/>
      </g>
     </g>
     <g id="text_15">
      <!-- 1.0 -->
      <g transform="translate(24.749375 46.404281) scale(0.14 -0.14)">
       <use xlink:href="#DejaVuSans-Bold-31"/>
       <use xlink:href="#DejaVuSans-Bold-2e" x="69.580078"/>
       <use xlink:href="#DejaVuSans-Bold-30" x="107.568359"/>
      </g>
     </g>
    </g>
    <g id="text_16">
     <!-- Precision -->
     <g transform="translate(17.837813 228.5235) rotate(-90) scale(0.14 -0.14)">
      <defs>
       <path id="DejaVuSans-Bold-50" d="M 588 4666 
L 2584 4666 
Q 3475 4666 3951 4270 
Q 4428 3875 4428 3144 
Q 4428 2409 3951 2014 
Q 3475 1619 2584 1619 
L 1791 1619 
L 1791 0 
L 588 0 
L 588 4666 
z
M 1791 3794 
L 1791 2491 
L 2456 2491 
Q 2806 2491 2997 2661 
Q 3188 2831 3188 3144 
Q 3188 3456 2997 3625 
Q 2806 3794 2456 3794 
L 1791 3794 
z
" transform="scale(0.015625)"/>
       <path id="DejaVuSans-Bold-72" d="M 3138 2547 
Q 2991 2616 2845 2648 
Q 2700 2681 2553 2681 
Q 2122 2681 1889 2404 
Q 1656 2128 1656 1613 
L 1656 0 
L 538 0 
L 538 3500 
L 1656 3500 
L 1656 2925 
Q 1872 3269 2151 3426 
Q 2431 3584 2822 3584 
Q 2878 3584 2943 3579 
Q 3009 3575 3134 3559 
L 3138 2547 
z
" transform="scale(0.015625)"/>
       <path id="DejaVuSans-Bold-69" d="M 538 3500 
L 1656 3500 
L 1656 0 
L 538 0 
L 538 3500 
z
M 538 4863 
L 1656 4863 
L 1656 3950 
L 538 3950 
L 538 4863 
z
" transform="scale(0.015625)"/>
       <path id="DejaVuSans-Bold-73" d="M 3272 3391 
L 3272 2541 
Q 2913 2691 2578 2766 
Q 2244 2841 1947 2841 
Q 1628 2841 1473 2761 
Q 1319 2681 1319 2516 
Q 1319 2381 1436 2309 
Q 1553 2238 1856 2203 
L 2053 2175 
Q 2913 2066 3209 1816 
Q 3506 1566 3506 1031 
Q 3506 472 3093 190 
Q 2681 -91 1863 -91 
Q 1516 -91 1145 -36 
Q 775 19 384 128 
L 384 978 
Q 719 816 1070 734 
Q 1422 653 1784 653 
Q 2113 653 2278 743 
Q 2444 834 2444 1013 
Q 2444 1163 2330 1236 
Q 2216 1309 1875 1350 
L 1678 1375 
Q 931 1469 631 1722 
Q 331 1975 331 2491 
Q 331 3047 712 3315 
Q 1094 3584 1881 3584 
Q 2191 3584 2531 3537 
Q 2872 3491 3272 3391 
z
" transform="scale(0.015625)"/>
       <path id="DejaVuSans-Bold-6f" d="M 2203 2784 
Q 1831 2784 1636 2517 
Q 1441 2250 1441 1747 
Q 1441 1244 1636 976 
Q 1831 709 2203 709 
Q 2569 709 2762 976 
Q 2956 1244 2956 1747 
Q 2956 2250 2762 2517 
Q 2569 2784 2203 2784 
z
M 2203 3584 
Q 3106 3584 3614 3096 
Q 4122 2609 4122 1747 
Q 4122 884 3614 396 
Q 3106 -91 2203 -91 
Q 1297 -91 786 396 
Q 275 884 275 1747 
Q 275 2609 786 3096 
Q 1297 3584 2203 3584 
z
" transform="scale(0.015625)"/>
       <path id="DejaVuSans-Bold-6e" d="M 4056 2131 
L 4056 0 
L 2931 0 
L 2931 347 
L 2931 1631 
Q 2931 2084 2911 2256 
Q 2891 2428 2841 2509 
Q 2775 2619 2662 2680 
Q 2550 2741 2406 2741 
Q 2056 2741 1856 2470 
Q 1656 2200 1656 1722 
L 1656 0 
L 538 0 
L 538 3500 
L 1656 3500 
L 1656 2988 
Q 1909 3294 2193 3439 
Q 2478 3584 2822 3584 
Q 3428 3584 3742 3212 
Q 4056 2841 4056 2131 
z
" transform="scale(0.015625)"/>
      </defs>
      <use xlink:href="#DejaVuSans-Bold-50"/>
      <use xlink:href="#DejaVuSans-Bold-72" x="73.291016"/>
      <use xlink:href="#DejaVuSans-Bold-65" x="122.607422"/>
      <use xlink:href="#DejaVuSans-Bold-63" x="190.429688"/>
      <use xlink:href="#DejaVuSans-Bold-69" x="249.707031"/>
      <use xlink:href="#DejaVuSans-Bold-73" x="283.984375"/>
      <use xlink:href="#DejaVuSans-Bold-69" x="343.505859"/>
      <use xlink:href="#DejaVuSans-Bold-6f" x="377.783203"/>
      <use xlink:href="#DejaVuSans-Bold-6e" x="446.484375"/>
     </g>
    </g>
   </g>
   <g id="line2d_15">
    <path d="M 429.394517 343.485375 
L 429.394517 275.524399 
L 428.210881 275.882322 
L 428.210881 275.278331 
L 427.027244 275.637522 
L 427.027244 273.339836 
L 426.435426 273.520158 
L 426.435426 272.115868 
L 425.843608 272.296643 
L 425.843608 271.349526 
L 425.25179 271.530694 
L 425.25179 270.734664 
L 424.659972 270.916205 
L 424.659972 268.65372 
L 424.068153 268.835775 
L 424.068153 267.520158 
L 423.476335 267.702619 
L 423.476335 266.537563 
L 422.292699 266.903557 
L 422.292699 266.568302 
L 421.700881 266.75177 
L 421.700881 266.246876 
L 421.109063 266.430681 
L 421.109063 266.261846 
L 420.517244 266.445964 
L 420.517244 265.085375 
L 419.925426 265.269889 
L 419.925426 264.582896 
L 419.333608 264.767757 
L 419.333608 263.380129 
L 418.149972 263.75093 
L 418.149972 262.698116 
L 416.966335 263.070262 
L 416.966335 260.932703 
L 416.374517 261.119331 
L 416.374517 260.758844 
L 415.782699 260.945801 
L 415.782699 260.402781 
L 415.190881 260.590072 
L 415.190881 260.408452 
L 414.599063 260.596068 
L 414.599063 260.231905 
L 414.007244 260.419852 
L 414.007244 259.687785 
L 413.415426 259.876073 
L 413.415426 258.768492 
L 412.823608 258.957125 
L 412.823608 258.025323 
L 412.23179 258.214295 
L 412.23179 255.753216 
L 411.639972 255.942518 
L 411.639972 255.750865 
L 411.048153 255.940499 
L 411.048153 255.363497 
L 410.456335 255.55346 
L 410.456335 255.360442 
L 409.864517 255.550739 
L 409.864517 253.797998 
L 409.272699 253.988601 
L 409.272699 253.792101 
L 408.680881 253.983041 
L 408.680881 253.588972 
L 408.089063 253.780244 
L 408.089063 252.389723 
L 407.497244 252.581295 
L 407.497244 250.767276 
L 406.905426 250.959117 
L 406.905426 250.755705 
L 406.313608 250.947886 
L 406.313608 249.719476 
L 404.538153 250.297944 
L 404.538153 249.055635 
L 403.946335 249.249096 
L 403.946335 249.040682 
L 402.170881 249.62319 
L 402.170881 248.995487 
L 401.579063 249.190342 
L 401.579063 248.559059 
L 400.987244 248.754237 
L 400.987244 248.543002 
L 400.395426 248.738532 
L 400.395426 248.314837 
L 399.803608 248.510706 
L 399.803608 247.872105 
L 399.21179 248.068297 
L 399.21179 247.426003 
L 398.028153 247.819407 
L 398.028153 246.306104 
L 397.436335 246.503242 
L 397.436335 244.969321 
L 396.252699 245.364445 
L 396.252699 245.143571 
L 395.069063 245.540185 
L 395.069063 245.09706 
L 394.477244 245.295901 
L 394.477244 243.955963 
L 393.293608 244.35453 
L 393.293608 243.452239 
L 390.926335 244.253692 
L 390.926335 243.571969 
L 390.334517 243.773248 
L 390.334517 243.087369 
L 389.150881 243.490969 
L 389.150881 242.569828 
L 388.559063 242.772122 
L 388.559063 242.540651 
L 387.967244 242.743323 
L 387.967244 242.278923 
L 386.783608 242.685375 
L 386.783608 241.515832 
L 385.599972 241.923625 
L 385.599972 241.688226 
L 385.008153 241.892714 
L 385.008153 239.752042 
L 384.416335 239.956642 
L 384.416335 239.716303 
L 383.824517 239.921288 
L 383.824517 238.954805 
L 383.232699 239.160064 
L 383.232699 238.917151 
L 382.640881 239.122797 
L 382.640881 238.390902 
L 381.457244 238.803243 
L 381.457244 237.819898 
L 380.865426 238.026551 
L 380.865426 237.779381 
L 380.273608 237.986428 
L 380.273608 235.989834 
L 379.68179 236.196958 
L 379.68179 235.185695 
L 379.089972 235.393067 
L 379.089972 235.138851 
L 378.498153 235.346617 
L 378.498153 234.836448 
L 377.906335 235.044559 
L 377.906335 234.788601 
L 377.314517 234.997108 
L 377.314517 234.483433 
L 376.722699 234.692286 
L 376.722699 234.434564 
L 375.539063 234.853522 
L 375.539063 233.294753 
L 374.947244 233.504589 
L 374.947244 232.717357 
L 374.355426 232.92748 
L 374.355426 232.399661 
L 373.763608 232.610127 
L 373.763608 232.079862 
L 373.17179 232.290673 
L 373.17179 229.874673 
L 372.579972 230.085375 
L 372.579972 229.813867 
L 371.988153 230.024972 
L 371.988153 229.479994 
L 370.804517 229.903353 
L 370.804517 229.355645 
L 369.620881 229.780635 
L 369.620881 229.505714 
L 369.029063 229.718859 
L 369.029063 229.443246 
L 367.253608 230.085375 
L 367.253608 229.808924 
L 366.66179 230.023872 
L 366.66179 229.468937 
L 365.478153 229.90002 
L 365.478153 229.621457 
L 364.886335 229.837669 
L 364.886335 228.434856 
L 364.294517 228.651195 
L 364.294517 228.368612 
L 361.335426 229.457468 
L 361.335426 228.604628 
L 359.559972 229.263361 
L 359.559972 226.957715 
L 357.192699 227.840719 
L 357.192699 226.963802 
L 356.600881 227.185614 
L 356.600881 226.302141 
L 355.417244 226.74684 
L 355.417244 226.153967 
L 354.825426 226.376941 
L 354.825426 225.182227 
L 354.233608 225.405375 
L 354.233608 225.104792 
L 353.64179 225.328388 
L 353.64179 224.118342 
L 350.682699 225.242623 
L 350.682699 224.937774 
L 350.090881 225.164193 
L 350.090881 224.858495 
L 348.315426 225.540821 
L 348.315426 223.065375 
L 347.723608 223.293135 
L 347.723608 222.666303 
L 347.13179 222.89442 
L 347.13179 220.674729 
L 345.948153 221.131118 
L 345.948153 220.489197 
L 345.356335 220.718028 
L 345.356335 216.462807 
L 344.172699 216.918925 
L 344.172699 216.585375 
L 343.580881 216.814189 
L 343.580881 216.144199 
L 341.805426 216.833406 
L 341.805426 216.496676 
L 340.029972 217.190916 
L 340.029972 214.805748 
L 339.438153 215.037375 
L 339.438153 214.001038 
L 338.846335 214.232828 
L 338.846335 213.885375 
L 338.254517 214.117633 
L 338.254517 212.012204 
L 337.662699 212.244127 
L 337.662699 211.889723 
L 337.070881 212.12211 
L 337.070881 211.766574 
L 336.479063 211.999427 
L 336.479063 211.285101 
L 335.295426 211.752042 
L 335.295426 209.947253 
L 334.703608 210.180811 
L 334.703608 207.610515 
L 332.928153 208.311181 
L 332.928153 207.566388 
L 332.336335 207.800868 
L 332.336335 206.29784 
L 331.744517 206.532184 
L 331.744517 205.393067 
L 331.152699 205.627458 
L 331.152699 204.477925 
L 329.969063 204.947444 
L 329.969063 203.007227 
L 329.377244 203.241897 
L 329.377244 202.457468 
L 328.785426 202.692362 
L 328.785426 202.298203 
L 328.193608 202.53355 
L 328.193608 202.138007 
L 327.009972 202.610302 
L 327.009972 201.415272 
L 325.234517 202.126795 
L 325.234517 201.322764 
L 324.050881 201.799661 
L 324.050881 200.989853 
L 322.275426 201.709063 
L 322.275426 201.301591 
L 321.683608 201.542518 
L 321.683608 201.133568 
L 321.09179 201.374968 
L 321.09179 200.13992 
L 319.316335 200.866197 
L 319.316335 200.451229 
L 318.132699 200.938586 
L 318.132699 200.521822 
L 316.949063 201.011642 
L 316.949063 200.173202 
L 316.357244 200.418708 
L 316.357244 199.574539 
L 315.173608 200.066741 
L 315.173608 199.64214 
L 314.58179 199.889113 
L 314.58179 199.035375 
L 312.806335 199.779253 
L 312.806335 198.918446 
L 311.622699 199.417129 
L 311.622699 198.113946 
L 311.030881 198.363594 
L 311.030881 197.926139 
L 310.439063 198.176284 
L 310.439063 197.737132 
L 309.847244 197.987775 
L 309.847244 197.104637 
L 309.255426 197.355471 
L 309.255426 196.911462 
L 308.663608 197.162794 
L 308.663608 196.717039 
L 308.07179 196.96887 
L 308.07179 196.521356 
L 306.888153 197.026838 
L 306.888153 196.126158 
L 302.153608 198.176284 
L 302.153608 197.264479 
L 300.969972 197.78421 
L 300.969972 196.865008 
L 299.786335 197.386883 
L 299.786335 195.994466 
L 299.194517 196.255695 
L 299.194517 195.788078 
L 295.643608 197.372064 
L 295.643608 196.427841 
L 295.05179 196.694294 
L 295.05179 196.219396 
L 293.868153 196.754341 
L 293.868153 195.798178 
L 293.276335 196.066311 
L 293.276335 195.585375 
L 292.684517 195.854071 
L 292.684517 193.422217 
L 292.092699 193.689944 
L 292.092699 192.704423 
L 291.500881 192.972301 
L 291.500881 191.479691 
L 290.317244 192.015856 
L 290.317244 190.50473 
L 289.133608 191.04221 
L 289.133608 190.024003 
L 286.766335 191.107193 
L 286.766335 190.593572 
L 285.582699 191.14022 
L 285.582699 190.623837 
L 284.990881 190.898219 
L 284.990881 190.379493 
L 282.623608 191.485375 
L 282.623608 188.853599 
L 282.03179 189.130319 
L 282.03179 188.59757 
L 281.439972 188.874849 
L 281.439972 188.339612 
L 280.848153 188.61745 
L 280.848153 188.079704 
L 280.256335 188.358102 
L 280.256335 184.532592 
L 279.072699 185.085375 
L 279.072699 181.147875 
L 277.889063 181.69714 
L 277.889063 181.124668 
L 276.113608 181.95494 
L 276.113608 180.799661 
L 274.929972 181.356291 
L 274.929972 180.773998 
L 274.338153 181.053375 
L 274.338153 180.468141 
L 273.746335 180.748026 
L 273.746335 179.569246 
L 271.379063 180.695131 
L 271.379063 180.099632 
L 269.603608 180.954227 
L 269.603608 179.147231 
L 268.419972 179.718915 
L 268.419972 175.404703 
L 267.828153 175.68748 
L 267.828153 175.060059 
L 264.869063 176.48836 
L 264.869063 175.218137 
L 263.093608 176.085375 
L 263.093608 175.443906 
L 262.50179 175.734726 
L 262.50179 175.089713 
L 260.726335 175.967471 
L 260.726335 174.008452 
L 260.134517 174.301234 
L 260.134517 173.641666 
L 258.359063 174.525375 
L 258.359063 173.860431 
L 254.808153 175.658738 
L 254.808153 173.63083 
L 252.440881 174.846843 
L 252.440881 173.472472 
L 251.849063 173.778216 
L 251.849063 171.690026 
L 251.257244 171.994466 
L 251.257244 171.290982 
L 250.665426 171.595914 
L 250.665426 170.888192 
L 250.073608 171.19361 
L 250.073608 169.766226 
L 248.889972 170.377537 
L 248.889972 169.656804 
L 248.298153 169.963657 
L 248.298153 169.238485 
L 247.706335 169.545807 
L 247.706335 168.082965 
L 244.155426 169.946011 
L 244.155426 168.456382 
L 243.563608 168.770104 
L 243.563608 167.263593 
L 242.97179 167.57669 
L 242.97179 166.816718 
L 240.604517 168.08035 
L 240.604517 167.312075 
L 238.829063 168.273192 
L 238.829063 166.718028 
L 237.645426 167.362298 
L 237.645426 164.992352 
L 235.869972 165.960375 
L 235.869972 164.352391 
L 234.686335 165.001164 
L 234.686335 163.371089 
L 233.502699 164.021545 
L 233.502699 162.368797 
L 232.910881 162.693954 
L 232.910881 161.859569 
L 232.319063 162.185105 
L 232.319063 160.500009 
L 230.543608 161.478818 
L 230.543608 160.625101 
L 229.95179 160.953507 
L 229.95179 159.229021 
L 228.768153 159.885375 
L 228.768153 158.135654 
L 228.176335 158.463526 
L 228.176335 157.579757 
L 227.584517 157.90791 
L 227.584517 157.017578 
L 224.625426 158.678498 
L 224.625426 155.952427 
L 222.849972 156.957095 
L 222.849972 156.032743 
L 222.258153 156.369832 
L 222.258153 154.501304 
L 219.890881 155.855524 
L 219.890881 153.95024 
L 218.707244 154.632203 
L 218.707244 153.667193 
L 216.93179 154.700054 
L 216.93179 153.723412 
L 215.156335 154.769586 
L 215.156335 151.785375 
L 213.972699 152.481601 
L 213.972699 151.470233 
L 212.789063 152.171089 
L 212.789063 150.120519 
L 212.197244 150.46999 
L 212.197244 149.432642 
L 211.605426 149.782149 
L 211.605426 148.73586 
L 208.646335 150.506428 
L 208.646335 149.441811 
L 208.054517 149.800607 
L 208.054517 147.645375 
L 206.870881 148.360543 
L 206.870881 143.942518 
L 206.279063 144.293566 
L 206.279063 143.167567 
L 205.095426 143.871582 
L 205.095426 142.732434 
L 204.503608 143.085375 
L 204.503608 140.777683 
L 202.136335 142.191758 
L 202.136335 139.828232 
L 201.544517 140.182149 
L 201.544517 137.778516 
L 200.952699 138.128853 
L 200.952699 135.683915 
L 199.177244 136.731131 
L 199.177244 132.965972 
L 198.585426 133.310094 
L 198.585426 132.032743 
L 194.442699 134.49078 
L 194.442699 133.178398 
L 192.667244 134.261846 
L 192.667244 128.862267 
L 190.299972 130.283756 
L 190.299972 127.485375 
L 189.708153 127.839473 
L 189.708153 126.418708 
L 187.932699 127.485375 
L 187.932699 126.03935 
L 185.565426 127.485375 
L 185.565426 126.008452 
L 184.38179 126.740547 
L 184.38179 125.241219 
L 181.422699 127.103074 
L 181.422699 124.013946 
L 179.647244 125.139674 
L 179.647244 123.558102 
L 177.279972 125.085375 
L 177.279972 123.46677 
L 172.545426 126.650592 
L 172.545426 124.96887 
L 167.810881 128.358102 
L 166.627244 129.24864 
L 166.627244 127.485375 
L 166.035426 127.930736 
L 166.035426 124.335375 
L 161.892699 127.485375 
L 161.892699 125.607114 
L 161.300881 126.068982 
L 161.300881 124.162298 
L 160.117244 125.085375 
L 160.117244 123.141241 
L 159.525426 123.602229 
L 159.525426 121.627748 
L 155.382699 124.944199 
L 153.015426 126.964893 
L 153.015426 124.867193 
L 149.464517 128.028771 
L 149.464517 125.844869 
L 147.097244 128.046414 
L 147.097244 123.506428 
L 145.913608 124.605375 
L 145.913608 122.266583 
L 145.32179 122.815105 
L 145.32179 120.432314 
L 141.770881 123.808779 
L 140.587244 124.999044 
L 140.587244 119.917492 
L 137.628153 122.903557 
L 137.628153 111.960375 
L 136.444517 113.085375 
L 136.444517 110.205375 
L 133.485426 113.085375 
L 133.485426 103.854606 
L 131.709972 105.506428 
L 131.709972 102.253517 
L 130.526335 103.355645 
L 130.526335 99.994466 
L 127.567244 102.799661 
L 125.199972 105.243791 
L 125.199972 101.565375 
L 123.424517 103.43589 
L 123.424517 99.585375 
L 122.832699 100.201164 
L 122.832699 96.234311 
L 122.240881 96.82731 
L 122.240881 92.737549 
L 120.465426 94.478633 
L 120.465426 90.176284 
L 117.506335 93.133568 
L 117.506335 88.500009 
L 116.322699 89.685375 
L 116.322699 84.83221 
L 115.730881 85.393067 
L 115.730881 75.190638 
L 112.77179 77.592417 
L 110.996335 79.203022 
L 110.996335 73.324181 
L 109.220881 74.835375 
L 109.220881 61.988601 
L 108.037244 62.685375 
L 108.037244 55.729443 
L 105.078153 57.085375 
L 102.119063 58.718028 
L 99.75179 60.285375 
L 99.159972 60.721739 
L 99.159972 51.131887 
L 98.568153 51.371089 
L 98.568153 41.085375 
L 74.303608 41.085375 
L 74.303608 41.085375 
" clip-path="url(#p64a525b334)" style="fill: none; stroke: #1f77b4; stroke-width: 2; stroke-linecap: square"/>
   </g>
   <g id="line2d_16">
    <path d="M 429.394517 343.485375 
L 429.394517 191.346245 
L 428.802699 191.509749 
L 428.802699 186.520591 
L 428.210881 186.681827 
L 428.210881 182.166456 
L 427.027244 182.484924 
L 427.027244 179.837083 
L 426.435426 179.995295 
L 426.435426 177.637099 
L 425.843608 177.794236 
L 425.843608 174.008452 
L 424.659972 174.31902 
L 424.659972 169.351408 
L 422.292699 169.963657 
L 422.292699 168.509835 
L 421.700881 168.662806 
L 421.700881 167.562483 
L 421.109063 167.715049 
L 421.109063 163.986474 
L 420.517244 164.13672 
L 420.517244 162.618545 
L 419.925426 162.768032 
L 419.925426 162.385868 
L 419.333608 162.535437 
L 419.333608 162.152042 
L 418.74179 162.301691 
L 418.74179 161.531472 
L 417.558153 161.830717 
L 417.558153 160.666422 
L 416.374517 160.965375 
L 416.374517 160.183119 
L 415.782699 160.332552 
L 415.782699 159.545752 
L 412.823608 160.295502 
L 412.823608 159.899063 
L 412.23179 160.049842 
L 412.23179 158.452722 
L 411.048153 158.752894 
L 411.048153 156.322488 
L 409.864517 156.620259 
L 409.864517 155.800401 
L 409.272699 155.949188 
L 409.272699 155.537323 
L 408.089063 155.835375 
L 408.089063 152.917175 
L 405.129972 153.656804 
L 405.129972 152.38418 
L 402.762699 152.978566 
L 402.762699 151.691273 
L 401.579063 151.988601 
L 401.579063 151.123111 
L 399.803608 151.569813 
L 399.803608 148.495211 
L 399.21179 148.642147 
L 399.21179 147.305155 
L 398.619972 147.451262 
L 398.619972 145.196178 
L 398.028153 145.340576 
L 398.028153 144.885375 
L 397.436335 145.029742 
L 397.436335 144.57284 
L 395.660881 145.007053 
L 395.660881 144.086778 
L 395.069063 144.231442 
L 395.069063 143.768919 
L 394.477244 143.913544 
L 394.477244 142.516775 
L 393.293608 142.804524 
L 393.293608 142.335375 
L 392.70179 142.479401 
L 392.70179 141.53616 
L 389.150881 142.403361 
L 389.150881 141.926874 
L 387.967244 142.218323 
L 387.967244 141.739499 
L 387.375426 141.885375 
L 387.375426 139.95418 
L 386.783608 140.098514 
L 386.783608 139.611691 
L 386.19179 139.755946 
L 386.19179 138.777005 
L 385.599972 138.920669 
L 385.599972 137.934933 
L 385.008153 138.077989 
L 385.008153 137.582416 
L 383.824517 137.868758 
L 383.824517 137.370665 
L 382.640881 137.657655 
L 382.640881 136.654882 
L 382.049063 136.79795 
L 382.049063 134.772122 
L 380.865426 135.055164 
L 380.865426 134.03083 
L 379.089972 134.455238 
L 379.089972 132.901889 
L 377.906335 133.183535 
L 377.906335 132.137683 
L 376.130881 132.559873 
L 376.130881 130.973574 
L 375.539063 131.113369 
L 375.539063 130.046373 
L 374.947244 130.185375 
L 374.947244 129.648755 
L 374.355426 129.787569 
L 374.355426 128.16569 
L 373.17179 128.440825 
L 373.17179 127.348449 
L 372.579972 127.485375 
L 372.579972 125.831786 
L 371.396335 126.102975 
L 371.396335 125.546913 
L 370.212699 125.818494 
L 370.212699 124.698278 
L 369.029063 124.96887 
L 369.029063 124.404662 
L 368.437244 124.53992 
L 368.437244 123.404593 
L 367.253608 123.67361 
L 367.253608 120.795424 
L 366.66179 120.926959 
L 366.66179 120.344879 
L 366.069972 120.476103 
L 366.069972 118.125375 
L 365.478153 118.253989 
L 365.478153 116.467925 
L 364.886335 116.594619 
L 364.886335 115.392289 
L 364.294517 115.517807 
L 364.294517 114.912786 
L 363.702699 115.037917 
L 363.702699 113.820069 
L 360.743608 114.443866 
L 360.743608 113.209299 
L 358.968153 113.583645 
L 358.968153 111.707984 
L 358.376335 111.83102 
L 358.376335 111.200558 
L 356.600881 111.569586 
L 356.600881 110.934233 
L 356.009063 111.057206 
L 356.009063 109.777955 
L 355.417244 109.899534 
L 355.417244 109.255588 
L 352.458153 109.865339 
L 352.458153 109.214407 
L 350.682699 109.582672 
L 350.682699 108.92653 
L 348.907244 109.295901 
L 348.907244 108.634466 
L 348.315426 108.757506 
L 348.315426 108.092674 
L 347.723608 108.215174 
L 347.723608 106.203022 
L 346.539972 106.443309 
L 346.539972 105.765597 
L 345.948153 105.885375 
L 345.948153 105.204113 
L 344.172699 105.562987 
L 344.172699 104.876029 
L 342.989063 105.115394 
L 342.989063 103.729443 
L 341.805426 103.966282 
L 341.805426 102.565451 
L 340.62179 102.799661 
L 340.62179 102.093009 
L 340.029972 102.209658 
L 340.029972 100.785951 
L 338.254517 101.131707 
L 338.254517 100.412261 
L 335.887244 100.874849 
L 335.887244 99.418056 
L 334.703608 99.647261 
L 334.703608 98.912147 
L 333.519972 99.140711 
L 333.519972 97.656804 
L 332.336335 97.882188 
L 332.336335 96.381375 
L 322.275426 98.327611 
L 322.275426 96.769367 
L 320.499972 97.118848 
L 320.499972 96.330658 
L 318.724517 96.680312 
L 318.724517 95.884529 
L 316.949063 96.234311 
L 316.949063 95.430791 
L 316.357244 95.546913 
L 316.357244 94.73848 
L 313.398153 95.319141 
L 313.398153 93.676679 
L 310.439063 94.254606 
L 310.439063 93.420177 
L 305.112699 94.478633 
L 305.112699 92.769348 
L 304.520881 92.88628 
L 304.520881 92.024151 
L 303.929062 92.13992 
L 303.929062 91.272163 
L 300.378153 91.967592 
L 300.378153 90.199064 
L 298.010881 90.659145 
L 298.010881 88.859493 
L 295.643608 89.313404 
L 295.643608 88.399661 
L 294.459972 88.626045 
L 294.459972 85.846821 
L 292.092699 86.282455 
L 292.092699 85.339034 
L 290.909063 85.555963 
L 290.909063 84.603803 
L 282.623608 86.154077 
L 282.623608 85.167008 
L 276.705426 86.320977 
L 276.705426 84.285375 
L 275.52179 84.513946 
L 275.52179 83.483253 
L 273.746335 83.823343 
L 273.746335 81.730536 
L 272.562699 81.95024 
L 272.562699 80.890253 
L 271.379063 81.107173 
L 271.379063 80.036195 
L 270.787244 80.142909 
L 270.787244 79.063397 
L 269.01179 79.379004 
L 269.01179 78.285375 
L 266.644517 78.703353 
L 266.644517 77.592417 
L 266.052699 77.695544 
L 266.052699 76.57546 
L 262.50179 77.189121 
L 262.50179 74.894071 
L 261.909972 74.992352 
L 261.909972 73.831731 
L 255.399972 74.9167 
L 255.399972 72.503557 
L 250.665426 73.284133 
L 250.665426 70.785375 
L 248.889972 71.066448 
L 248.889972 69.794236 
L 245.930881 70.255793 
L 245.930881 68.956343 
L 244.155426 69.228697 
L 244.155426 67.908904 
L 242.97179 68.085375 
L 242.97179 66.748741 
L 241.196335 67.005375 
L 241.196335 65.647248 
L 238.829063 65.98029 
L 238.829063 63.201416 
L 226.992699 64.821639 
L 226.992699 63.320669 
L 215.748153 64.990513 
L 209.238153 66.077111 
L 209.238153 64.38828 
L 208.646335 64.485375 
L 208.646335 62.775752 
L 208.054517 62.866888 
L 208.054517 61.136008 
L 197.993608 62.685375 
L 194.442699 63.290982 
L 194.442699 61.367065 
L 187.932699 62.471514 
L 187.932699 60.428659 
L 184.38179 61.023837 
L 184.38179 58.899808 
L 175.504517 60.392638 
L 173.729063 60.721739 
L 173.729063 58.365375 
L 171.953608 58.66677 
L 171.953608 56.24327 
L 166.627244 57.085375 
L 166.627244 54.501524 
L 164.85179 54.756261 
L 164.85179 52.091744 
L 161.300881 52.529084 
L 161.300881 49.725375 
L 151.83179 50.757017 
L 148.280881 51.210375 
L 148.280881 47.888525 
L 145.32179 48.167342 
L 145.32179 44.655623 
L 134.077244 45.320669 
L 125.199972 46.050892 
L 124.016335 46.167728 
L 124.016335 41.085375 
L 74.303608 41.085375 
L 74.303608 41.085375 
" clip-path="url(#p64a525b334)" style="fill: none; stroke: #ff7f0e; stroke-width: 2; stroke-linecap: square"/>
   </g>
   <g id="patch_3">
    <path d="M 56.549063 358.605375 
L 56.549063 25.965375 
" style="fill: none; stroke: #000000; stroke-width: 0.8; stroke-linejoin: miter; stroke-linecap: square"/>
   </g>
   <g id="patch_4">
    <path d="M 447.149063 358.605375 
L 447.149063 25.965375 
" style="fill: none; stroke: #000000; stroke-width: 0.8; stroke-linejoin: miter; stroke-linecap: square"/>
   </g>
   <g id="patch_5">
    <path d="M 56.549063 358.605375 
L 447.149063 358.605375 
" style="fill: none; stroke: #000000; stroke-width: 0.8; stroke-linejoin: miter; stroke-linecap: square"/>
   </g>
   <g id="patch_6">
    <path d="M 56.549063 25.965375 
L 447.149063 25.965375 
" style="fill: none; stroke: #000000; stroke-width: 0.8; stroke-linejoin: miter; stroke-linecap: square"/>
   </g>
   <g id="text_17">
    <!-- Ukrainian Data: Precision-Recall -->
    <g transform="translate(99.165937 19.965375) scale(0.168 -0.168)">
     <defs>
      <path id="DejaVuSans-Bold-55" d="M 588 4666 
L 1791 4666 
L 1791 1869 
Q 1791 1291 1980 1042 
Q 2169 794 2597 794 
Q 3028 794 3217 1042 
Q 3406 1291 3406 1869 
L 3406 4666 
L 4609 4666 
L 4609 1869 
Q 4609 878 4112 393 
Q 3616 -91 2597 -91 
Q 1581 -91 1084 393 
Q 588 878 588 1869 
L 588 4666 
z
" transform="scale(0.015625)"/>
      <path id="DejaVuSans-Bold-6b" d="M 538 4863 
L 1656 4863 
L 1656 2216 
L 2944 3500 
L 4244 3500 
L 2534 1894 
L 4378 0 
L 3022 0 
L 1656 1459 
L 1656 0 
L 538 0 
L 538 4863 
z
" transform="scale(0.015625)"/>
      <path id="DejaVuSans-Bold-20" transform="scale(0.015625)"/>
      <path id="DejaVuSans-Bold-44" d="M 1791 3756 
L 1791 909 
L 2222 909 
Q 2959 909 3348 1275 
Q 3738 1641 3738 2338 
Q 3738 3031 3350 3393 
Q 2963 3756 2222 3756 
L 1791 3756 
z
M 588 4666 
L 1856 4666 
Q 2919 4666 3439 4514 
Q 3959 4363 4331 4000 
Q 4659 3684 4818 3271 
Q 4978 2859 4978 2338 
Q 4978 1809 4818 1395 
Q 4659 981 4331 666 
Q 3956 303 3431 151 
Q 2906 0 1856 0 
L 588 0 
L 588 4666 
z
" transform="scale(0.015625)"/>
      <path id="DejaVuSans-Bold-74" d="M 1759 4494 
L 1759 3500 
L 2913 3500 
L 2913 2700 
L 1759 2700 
L 1759 1216 
Q 1759 972 1856 886 
Q 1953 800 2241 800 
L 2816 800 
L 2816 0 
L 1856 0 
Q 1194 0 917 276 
Q 641 553 641 1216 
L 641 2700 
L 84 2700 
L 84 3500 
L 641 3500 
L 641 4494 
L 1759 4494 
z
" transform="scale(0.015625)"/>
      <path id="DejaVuSans-Bold-3a" d="M 716 3500 
L 1844 3500 
L 1844 2291 
L 716 2291 
L 716 3500 
z
M 716 1209 
L 1844 1209 
L 1844 0 
L 716 0 
L 716 1209 
z
" transform="scale(0.015625)"/>
      <path id="DejaVuSans-Bold-2d" d="M 347 2297 
L 2309 2297 
L 2309 1388 
L 347 1388 
L 347 2297 
z
" transform="scale(0.015625)"/>
     </defs>
     <use xlink:href="#DejaVuSans-Bold-55"/>
     <use xlink:href="#DejaVuSans-Bold-6b" x="81.201172"/>
     <use xlink:href="#DejaVuSans-Bold-72" x="147.705078"/>
     <use xlink:href="#DejaVuSans-Bold-61" x="197.021484"/>
     <use xlink:href="#DejaVuSans-Bold-69" x="264.501953"/>
     <use xlink:href="#DejaVuSans-Bold-6e" x="298.779297"/>
     <use xlink:href="#DejaVuSans-Bold-69" x="369.970703"/>
     <use xlink:href="#DejaVuSans-Bold-61" x="404.248047"/>
     <use xlink:href="#DejaVuSans-Bold-6e" x="471.728516"/>
     <use xlink:href="#DejaVuSans-Bold-20" x="542.919922"/>
     <use xlink:href="#DejaVuSans-Bold-44" x="577.734375"/>
     <use xlink:href="#DejaVuSans-Bold-61" x="660.742188"/>
     <use xlink:href="#DejaVuSans-Bold-74" x="728.222656"/>
     <use xlink:href="#DejaVuSans-Bold-61" x="776.025391"/>
     <use xlink:href="#DejaVuSans-Bold-3a" x="843.505859"/>
     <use xlink:href="#DejaVuSans-Bold-20" x="883.496094"/>
     <use xlink:href="#DejaVuSans-Bold-50" x="918.310547"/>
     <use xlink:href="#DejaVuSans-Bold-72" x="991.601562"/>
     <use xlink:href="#DejaVuSans-Bold-65" x="1040.917969"/>
     <use xlink:href="#DejaVuSans-Bold-63" x="1108.740234"/>
     <use xlink:href="#DejaVuSans-Bold-69" x="1168.017578"/>
     <use xlink:href="#DejaVuSans-Bold-73" x="1202.294922"/>
     <use xlink:href="#DejaVuSans-Bold-69" x="1261.816406"/>
     <use xlink:href="#DejaVuSans-Bold-6f" x="1296.09375"/>
     <use xlink:href="#DejaVuSans-Bold-6e" x="1364.794922"/>
     <use xlink:href="#DejaVuSans-Bold-2d" x="1435.986328"/>
     <use xlink:href="#DejaVuSans-Bold-52" x="1477.490234"/>
     <use xlink:href="#DejaVuSans-Bold-65" x="1554.492188"/>
     <use xlink:href="#DejaVuSans-Bold-63" x="1622.314453"/>
     <use xlink:href="#DejaVuSans-Bold-61" x="1681.591797"/>
     <use xlink:href="#DejaVuSans-Bold-6c" x="1749.072266"/>
     <use xlink:href="#DejaVuSans-Bold-6c" x="1783.349609"/>
    </g>
   </g>
   <g id="legend_1">
    <g id="patch_7">
     <path d="M 66.349063 351.605375 
L 246.835312 351.605375 
Q 249.635312 351.605375 249.635312 348.805375 
L 249.635312 290.492875 
Q 249.635312 287.692875 246.835312 287.692875 
L 66.349063 287.692875 
Q 63.549062 287.692875 63.549062 290.492875 
L 63.549062 348.805375 
Q 63.549062 351.605375 66.349063 351.605375 
z
" style="fill: #ffffff; opacity: 0.8; stroke: #cccccc; stroke-linejoin: miter"/>
    </g>
    <g id="text_18">
     <!-- Method -->
     <g transform="translate(130.995625 302.411) scale(0.12 -0.12)">
      <defs>
       <path id="DejaVuSans-Bold-4d" d="M 588 4666 
L 2119 4666 
L 3181 2169 
L 4250 4666 
L 5778 4666 
L 5778 0 
L 4641 0 
L 4641 3413 
L 3566 897 
L 2803 897 
L 1728 3413 
L 1728 0 
L 588 0 
L 588 4666 
z
" transform="scale(0.015625)"/>
       <path id="DejaVuSans-Bold-68" d="M 4056 2131 
L 4056 0 
L 2931 0 
L 2931 347 
L 2931 1625 
Q 2931 2084 2911 2256 
Q 2891 2428 2841 2509 
Q 2775 2619 2662 2680 
Q 2550 2741 2406 2741 
Q 2056 2741 1856 2470 
Q 1656 2200 1656 1722 
L 1656 0 
L 538 0 
L 538 4863 
L 1656 4863 
L 1656 2988 
Q 1909 3294 2193 3439 
Q 2478 3584 2822 3584 
Q 3428 3584 3742 3212 
Q 4056 2841 4056 2131 
z
" transform="scale(0.015625)"/>
       <path id="DejaVuSans-Bold-64" d="M 2919 2988 
L 2919 4863 
L 4044 4863 
L 4044 0 
L 2919 0 
L 2919 506 
Q 2688 197 2409 53 
Q 2131 -91 1766 -91 
Q 1119 -91 703 423 
Q 288 938 288 1747 
Q 288 2556 703 3070 
Q 1119 3584 1766 3584 
Q 2128 3584 2408 3439 
Q 2688 3294 2919 2988 
z
M 2181 722 
Q 2541 722 2730 984 
Q 2919 1247 2919 1747 
Q 2919 2247 2730 2509 
Q 2541 2772 2181 2772 
Q 1825 2772 1636 2509 
Q 1447 2247 1447 1747 
Q 1447 1247 1636 984 
Q 1825 722 2181 722 
z
" transform="scale(0.015625)"/>
      </defs>
      <use xlink:href="#DejaVuSans-Bold-4d"/>
      <use xlink:href="#DejaVuSans-Bold-65" x="99.511719"/>
      <use xlink:href="#DejaVuSans-Bold-74" x="167.333984"/>
      <use xlink:href="#DejaVuSans-Bold-68" x="215.136719"/>
      <use xlink:href="#DejaVuSans-Bold-6f" x="286.328125"/>
      <use xlink:href="#DejaVuSans-Bold-64" x="355.029297"/>
     </g>
    </g>
    <g id="line2d_17">
     <path d="M 69.149062 317.644438 
L 83.149062 317.644438 
L 97.149062 317.644438 
" style="fill: none; stroke: #1f77b4; stroke-width: 2; stroke-linecap: square"/>
    </g>
    <g id="text_19">
     <!-- BERT Baseline -->
     <g transform="translate(108.349063 322.544438) scale(0.14 -0.14)">
      <defs>
       <path id="DejaVuSans-Bold-42" d="M 2456 2859 
Q 2741 2859 2887 2984 
Q 3034 3109 3034 3353 
Q 3034 3594 2887 3720 
Q 2741 3847 2456 3847 
L 1791 3847 
L 1791 2859 
L 2456 2859 
z
M 2497 819 
Q 2859 819 3042 972 
Q 3225 1125 3225 1434 
Q 3225 1738 3044 1889 
Q 2863 2041 2497 2041 
L 1791 2041 
L 1791 819 
L 2497 819 
z
M 3616 2497 
Q 4003 2384 4215 2081 
Q 4428 1778 4428 1338 
Q 4428 663 3972 331 
Q 3516 0 2584 0 
L 588 0 
L 588 4666 
L 2394 4666 
Q 3366 4666 3802 4372 
Q 4238 4078 4238 3431 
Q 4238 3091 4078 2852 
Q 3919 2613 3616 2497 
z
" transform="scale(0.015625)"/>
       <path id="DejaVuSans-Bold-45" d="M 588 4666 
L 3834 4666 
L 3834 3756 
L 1791 3756 
L 1791 2888 
L 3713 2888 
L 3713 1978 
L 1791 1978 
L 1791 909 
L 3903 909 
L 3903 0 
L 588 0 
L 588 4666 
z
" transform="scale(0.015625)"/>
       <path id="DejaVuSans-Bold-54" d="M 31 4666 
L 4331 4666 
L 4331 3756 
L 2784 3756 
L 2784 0 
L 1581 0 
L 1581 3756 
L 31 3756 
L 31 4666 
z
" transform="scale(0.015625)"/>
      </defs>
      <use xlink:href="#DejaVuSans-Bold-42"/>
      <use xlink:href="#DejaVuSans-Bold-45" x="76.220703"/>
      <use xlink:href="#DejaVuSans-Bold-52" x="144.53125"/>
      <use xlink:href="#DejaVuSans-Bold-54" x="217.033203"/>
      <use xlink:href="#DejaVuSans-Bold-20" x="285.246094"/>
      <use xlink:href="#DejaVuSans-Bold-42" x="320.060547"/>
      <use xlink:href="#DejaVuSans-Bold-61" x="396.28125"/>
      <use xlink:href="#DejaVuSans-Bold-73" x="463.761719"/>
      <use xlink:href="#DejaVuSans-Bold-65" x="523.283203"/>
      <use xlink:href="#DejaVuSans-Bold-6c" x="591.105469"/>
      <use xlink:href="#DejaVuSans-Bold-69" x="625.382812"/>
      <use xlink:href="#DejaVuSans-Bold-6e" x="659.660156"/>
      <use xlink:href="#DejaVuSans-Bold-65" x="730.851562"/>
     </g>
    </g>
    <g id="line2d_18">
     <path d="M 69.149062 338.193813 
L 83.149062 338.193813 
L 97.149062 338.193813 
" style="fill: none; stroke: #ff7f0e; stroke-width: 2; stroke-linecap: square"/>
    </g>
    <g id="text_20">
     <!-- BERT + Proposed -->
     <g transform="translate(108.349063 343.093813) scale(0.14 -0.14)">
      <defs>
       <path id="DejaVuSans-Bold-2b" d="M 3053 4013 
L 3053 2375 
L 4684 2375 
L 4684 1638 
L 3053 1638 
L 3053 0 
L 2309 0 
L 2309 1638 
L 678 1638 
L 678 2375 
L 2309 2375 
L 2309 4013 
L 3053 4013 
z
" transform="scale(0.015625)"/>
       <path id="DejaVuSans-Bold-70" d="M 1656 506 
L 1656 -1331 
L 538 -1331 
L 538 3500 
L 1656 3500 
L 1656 2988 
Q 1888 3294 2169 3439 
Q 2450 3584 2816 3584 
Q 3463 3584 3878 3070 
Q 4294 2556 4294 1747 
Q 4294 938 3878 423 
Q 3463 -91 2816 -91 
Q 2450 -91 2169 54 
Q 1888 200 1656 506 
z
M 2400 2772 
Q 2041 2772 1848 2508 
Q 1656 2244 1656 1747 
Q 1656 1250 1848 986 
Q 2041 722 2400 722 
Q 2759 722 2948 984 
Q 3138 1247 3138 1747 
Q 3138 2247 2948 2509 
Q 2759 2772 2400 2772 
z
" transform="scale(0.015625)"/>
      </defs>
      <use xlink:href="#DejaVuSans-Bold-42"/>
      <use xlink:href="#DejaVuSans-Bold-45" x="76.220703"/>
      <use xlink:href="#DejaVuSans-Bold-52" x="144.53125"/>
      <use xlink:href="#DejaVuSans-Bold-54" x="217.033203"/>
      <use xlink:href="#DejaVuSans-Bold-20" x="285.246094"/>
      <use xlink:href="#DejaVuSans-Bold-2b" x="320.060547"/>
      <use xlink:href="#DejaVuSans-Bold-20" x="403.849609"/>
      <use xlink:href="#DejaVuSans-Bold-50" x="438.664062"/>
      <use xlink:href="#DejaVuSans-Bold-72" x="511.955078"/>
      <use xlink:href="#DejaVuSans-Bold-6f" x="561.271484"/>
      <use xlink:href="#DejaVuSans-Bold-70" x="629.972656"/>
      <use xlink:href="#DejaVuSans-Bold-6f" x="701.554688"/>
      <use xlink:href="#DejaVuSans-Bold-73" x="770.255859"/>
      <use xlink:href="#DejaVuSans-Bold-65" x="829.777344"/>
      <use xlink:href="#DejaVuSans-Bold-64" x="897.599609"/>
     </g>
    </g>
   </g>
  </g>
 </g>
 <defs>
  <clipPath id="p64a525b334">
   <rect x="56.549063" y="25.965375" width="390.6" height="332.64"/>
  </clipPath>
 </defs>
</svg>
