<?xml version="1.0" encoding="utf-8" standalone="no"?>
<!DOCTYPE svg PUBLIC "-//W3C//DTD SVG 1.1//EN"
  "http://www.w3.org/Graphics/SVG/1.1/DTD/svg11.dtd">
<svg xmlns:xlink="http://www.w3.org/1999/xlink" width="415.328437pt" height="425.783691pt" viewBox="0 0 415.328437 425.783691" xmlns="http://www.w3.org/2000/svg" version="1.1">
 <metadata>
  <rdf:RDF xmlns:dc="http://purl.org/dc/elements/1.1/" xmlns:cc="http://creativecommons.org/ns#" xmlns:rdf="http://www.w3.org/1999/02/22-rdf-syntax-ns#">
   <cc:Work>
    <dc:type rdf:resource="http://purl.org/dc/dcmitype/StillImage"/>
    <dc:date>2023-06-24T14:56:45.156030</dc:date>
    <dc:format>image/svg+xml</dc:format>
    <dc:creator>
     <cc:Agent>
      <dc:title>Matplotlib v3.7.1, https://matplotlib.org/</dc:title>
     </cc:Agent>
    </dc:creator>
   </cc:Work>
  </rdf:RDF>
 </metadata>
 <defs>
  <style type="text/css">*{stroke-linejoin: round; stroke-linecap: butt}</style>
 </defs>
 <g id="figure_1">
  <g id="patch_1">
   <path d="M 0 425.783691 
L 415.328437 425.783691 
L 415.328437 0 
L 0 0 
z
" style="fill: #ffffff"/>
  </g>
  <g id="axes_1">
   <g id="patch_2">
    <path d="M 75.488438 356.230625 
L 408.128437 356.230625 
L 408.128437 23.590625 
L 75.488438 23.590625 
z
" style="fill: #ffffff"/>
   </g>
   <g id="QuadMesh_1">
    <path d="M 75.488438 23.590625 
L 142.016437 23.590625 
L 142.016437 90.118625 
L 75.488438 90.118625 
L 75.488438 23.590625 
" clip-path="url(#p172f3f27cb)" style="fill: #2b7bba; stroke: #ffffff; stroke-width: 0.5"/>
    <path d="M 142.016437 23.590625 
L 208.544438 23.590625 
L 208.544438 90.118625 
L 142.016437 90.118625 
L 142.016437 23.590625 
" clip-path="url(#p172f3f27cb)" style="fill: #e4eff9; stroke: #ffffff; stroke-width: 0.5"/>
    <path d="M 208.544438 23.590625 
L 275.072437 23.590625 
L 275.072437 90.118625 
L 208.544438 90.118625 
L 208.544438 23.590625 
" clip-path="url(#p172f3f27cb)" style="fill: #eef5fc; stroke: #ffffff; stroke-width: 0.5"/>
    <path d="M 275.072437 23.590625 
L 341.600437 23.590625 
L 341.600437 90.118625 
L 275.072437 90.118625 
L 275.072437 23.590625 
" clip-path="url(#p172f3f27cb)" style="fill: #dbe9f6; stroke: #ffffff; stroke-width: 0.5"/>
    <path d="M 341.600437 23.590625 
L 408.128438 23.590625 
L 408.128438 90.118625 
L 341.600437 90.118625 
L 341.600437 23.590625 
" clip-path="url(#p172f3f27cb)" style="fill: #eef5fc; stroke: #ffffff; stroke-width: 0.5"/>
    <path d="M 75.488438 90.118625 
L 142.016437 90.118625 
L 142.016437 156.646625 
L 75.488438 156.646625 
L 75.488438 90.118625 
" clip-path="url(#p172f3f27cb)" style="fill: #e4eff9; stroke: #ffffff; stroke-width: 0.5"/>
    <path d="M 142.016437 90.118625 
L 208.544438 90.118625 
L 208.544438 156.646625 
L 142.016437 156.646625 
L 142.016437 90.118625 
" clip-path="url(#p172f3f27cb)" style="fill: #1561a9; stroke: #ffffff; stroke-width: 0.5"/>
    <path d="M 208.544438 90.118625 
L 275.072437 90.118625 
L 275.072437 156.646625 
L 208.544438 156.646625 
L 208.544438 90.118625 
" clip-path="url(#p172f3f27cb)" style="fill: #f7fbff; stroke: #ffffff; stroke-width: 0.5"/>
    <path d="M 275.072437 90.118625 
L 341.600437 90.118625 
L 341.600437 156.646625 
L 275.072437 156.646625 
L 275.072437 90.118625 
" clip-path="url(#p172f3f27cb)" style="fill: #e4eff9; stroke: #ffffff; stroke-width: 0.5"/>
    <path d="M 341.600437 90.118625 
L 408.128438 90.118625 
L 408.128438 156.646625 
L 341.600437 156.646625 
L 341.600437 90.118625 
" clip-path="url(#p172f3f27cb)" style="fill: #eef5fc; stroke: #ffffff; stroke-width: 0.5"/>
    <path d="M 75.488438 156.646625 
L 142.016437 156.646625 
L 142.016437 223.174625 
L 75.488438 223.174625 
L 75.488438 156.646625 
" clip-path="url(#p172f3f27cb)" style="fill: #f7fbff; stroke: #ffffff; stroke-width: 0.5"/>
    <path d="M 142.016437 156.646625 
L 208.544438 156.646625 
L 208.544438 223.174625 
L 142.016437 223.174625 
L 142.016437 156.646625 
" clip-path="url(#p172f3f27cb)" style="fill: #eef5fc; stroke: #ffffff; stroke-width: 0.5"/>
    <path d="M 208.544438 156.646625 
L 275.072437 156.646625 
L 275.072437 223.174625 
L 208.544438 223.174625 
L 208.544438 156.646625 
" clip-path="url(#p172f3f27cb)" style="fill: #08306b; stroke: #ffffff; stroke-width: 0.5"/>
    <path d="M 275.072437 156.646625 
L 341.600437 156.646625 
L 341.600437 223.174625 
L 275.072437 223.174625 
L 275.072437 156.646625 
" clip-path="url(#p172f3f27cb)" style="fill: #f7fbff; stroke: #ffffff; stroke-width: 0.5"/>
    <path d="M 341.600437 156.646625 
L 408.128438 156.646625 
L 408.128438 223.174625 
L 341.600437 223.174625 
L 341.600437 156.646625 
" clip-path="url(#p172f3f27cb)" style="fill: #f7fbff; stroke: #ffffff; stroke-width: 0.5"/>
    <path d="M 75.488438 223.174625 
L 142.016437 223.174625 
L 142.016437 289.702625 
L 75.488438 289.702625 
L 75.488438 223.174625 
" clip-path="url(#p172f3f27cb)" style="fill: #eef5fc; stroke: #ffffff; stroke-width: 0.5"/>
    <path d="M 142.016437 223.174625 
L 208.544438 223.174625 
L 208.544438 289.702625 
L 142.016437 289.702625 
L 142.016437 223.174625 
" clip-path="url(#p172f3f27cb)" style="fill: #dbe9f6; stroke: #ffffff; stroke-width: 0.5"/>
    <path d="M 208.544438 223.174625 
L 275.072437 223.174625 
L 275.072437 289.702625 
L 208.544438 289.702625 
L 208.544438 223.174625 
" clip-path="url(#p172f3f27cb)" style="fill: #eef5fc; stroke: #ffffff; stroke-width: 0.5"/>
    <path d="M 275.072437 223.174625 
L 341.600437 223.174625 
L 341.600437 289.702625 
L 275.072437 289.702625 
L 275.072437 223.174625 
" clip-path="url(#p172f3f27cb)" style="fill: #4493c7; stroke: #ffffff; stroke-width: 0.5"/>
    <path d="M 341.600437 223.174625 
L 408.128438 223.174625 
L 408.128438 289.702625 
L 341.600437 289.702625 
L 341.600437 223.174625 
" clip-path="url(#p172f3f27cb)" style="fill: #d2e3f3; stroke: #ffffff; stroke-width: 0.5"/>
    <path d="M 75.488438 289.702625 
L 142.016437 289.702625 
L 142.016437 356.230625 
L 75.488438 356.230625 
L 75.488438 289.702625 
" clip-path="url(#p172f3f27cb)" style="fill: #e4eff9; stroke: #ffffff; stroke-width: 0.5"/>
    <path d="M 142.016437 289.702625 
L 208.544438 289.702625 
L 208.544438 356.230625 
L 142.016437 356.230625 
L 142.016437 289.702625 
" clip-path="url(#p172f3f27cb)" style="fill: #eef5fc; stroke: #ffffff; stroke-width: 0.5"/>
    <path d="M 208.544438 289.702625 
L 275.072437 289.702625 
L 275.072437 356.230625 
L 208.544438 356.230625 
L 208.544438 289.702625 
" clip-path="url(#p172f3f27cb)" style="fill: #eef5fc; stroke: #ffffff; stroke-width: 0.5"/>
    <path d="M 275.072437 289.702625 
L 341.600437 289.702625 
L 341.600437 356.230625 
L 275.072437 356.230625 
L 275.072437 289.702625 
" clip-path="url(#p172f3f27cb)" style="fill: #d2e3f3; stroke: #ffffff; stroke-width: 0.5"/>
    <path d="M 341.600437 289.702625 
L 408.128438 289.702625 
L 408.128438 356.230625 
L 341.600437 356.230625 
L 341.600437 289.702625 
" clip-path="url(#p172f3f27cb)" style="fill: #3787c0; stroke: #ffffff; stroke-width: 0.5"/>
   </g>
   <g id="matplotlib.axis_1">
    <g id="xtick_1">
     <g id="line2d_1">
      <defs>
       <path id="m9a6905bfb0" d="M 0 0 
L 0 3.5 
" style="stroke: #000000; stroke-width: 0.8"/>
      </defs>
      <g>
       <use xlink:href="#m9a6905bfb0" x="108.752438" y="356.230625" style="stroke: #000000; stroke-width: 0.8"/>
      </g>
     </g>
     <g id="text_1">
      <!-- Злість -->
      <g transform="translate(98.009386 393.99198) rotate(-45) scale(0.1 -0.1)">
       <defs>
        <path id="DejaVuSans-Bold-417" d="M 3163 2516 
Q 3634 2394 3879 2092 
Q 4125 1791 4125 1325 
Q 4125 631 3594 270 
Q 3063 -91 1950 -91 
Q 1491 -91 1125 -31 
Q 759 28 422 141 
L 422 1069 
Q 759 900 1092 814 
Q 1425 728 1903 728 
Q 2413 728 2667 893 
Q 2922 1059 2922 1369 
Q 2922 1688 2661 1852 
Q 2400 2016 1797 2016 
L 1222 2016 
L 1222 2791 
L 1822 2791 
Q 2369 2791 2591 2933 
Q 2813 3075 2813 3366 
Q 2813 3634 2597 3781 
Q 2381 3928 1956 3928 
Q 1513 3928 1128 3851 
Q 744 3775 528 3669 
L 528 4550 
Q 738 4622 1198 4686 
Q 1659 4750 1953 4750 
Q 2975 4750 3495 4451 
Q 4016 4153 4016 3553 
Q 4016 3144 3800 2883 
Q 3584 2622 3163 2516 
z
" transform="scale(0.015625)"/>
        <path id="DejaVuSans-Bold-43b" d="M 353 0 
L 353 800 
Q 906 913 1031 1278 
Q 1125 1556 1125 2928 
L 1125 3500 
L 4150 3500 
L 4150 0 
L 3031 0 
L 3031 2700 
L 2244 2700 
L 2244 2584 
Q 2244 1213 2028 813 
Q 1591 0 353 0 
z
" transform="scale(0.015625)"/>
        <path id="DejaVuSans-Bold-456" d="M 538 3500 
L 1656 3500 
L 1656 0 
L 538 0 
L 538 3500 
z
M 538 4863 
L 1656 4863 
L 1656 3950 
L 538 3950 
L 538 4863 
z
" transform="scale(0.015625)"/>
        <path id="DejaVuSans-Bold-441" d="M 3366 3391 
L 3366 2478 
Q 3138 2634 2908 2709 
Q 2678 2784 2431 2784 
Q 1963 2784 1702 2511 
Q 1441 2238 1441 1747 
Q 1441 1256 1702 982 
Q 1963 709 2431 709 
Q 2694 709 2930 787 
Q 3166 866 3366 1019 
L 3366 103 
Q 3103 6 2833 -42 
Q 2563 -91 2291 -91 
Q 1344 -91 809 395 
Q 275 881 275 1747 
Q 275 2613 809 3098 
Q 1344 3584 2291 3584 
Q 2566 3584 2833 3536 
Q 3100 3488 3366 3391 
z
" transform="scale(0.015625)"/>
        <path id="DejaVuSans-Bold-442" d="M 25 3500 
L 3681 3500 
L 3681 2809 
L 2413 2809 
L 2413 0 
L 1297 0 
L 1297 2809 
L 25 2809 
L 25 3500 
z
" transform="scale(0.015625)"/>
        <path id="DejaVuSans-Bold-44c" d="M 2719 1094 
Q 2719 1291 2594 1388 
Q 2472 1481 2222 1481 
L 1656 1481 
L 1656 700 
L 2222 700 
Q 2469 700 2594 800 
Q 2719 897 2719 1094 
z
M 538 3500 
L 1656 3500 
L 1656 2172 
L 2291 2172 
Q 3000 2172 3381 1913 
Q 3766 1650 3766 1081 
Q 3766 513 3381 256 
Q 3000 0 2291 0 
L 538 0 
L 538 3500 
z
" transform="scale(0.015625)"/>
       </defs>
       <use xlink:href="#DejaVuSans-Bold-417"/>
       <use xlink:href="#DejaVuSans-Bold-43b" x="71.044922"/>
       <use xlink:href="#DejaVuSans-Bold-456" x="144.287109"/>
       <use xlink:href="#DejaVuSans-Bold-441" x="178.564453"/>
       <use xlink:href="#DejaVuSans-Bold-442" x="237.841797"/>
       <use xlink:href="#DejaVuSans-Bold-44c" x="295.800781"/>
      </g>
     </g>
    </g>
    <g id="xtick_2">
     <g id="line2d_2">
      <g>
       <use xlink:href="#m9a6905bfb0" x="175.280438" y="356.230625" style="stroke: #000000; stroke-width: 0.8"/>
      </g>
     </g>
     <g id="text_2">
      <!-- Страх -->
      <g transform="translate(165.390886 392.28498) rotate(-45) scale(0.1 -0.1)">
       <defs>
        <path id="DejaVuSans-Bold-421" d="M 4288 256 
Q 3956 84 3597 -3 
Q 3238 -91 2847 -91 
Q 1681 -91 1000 561 
Q 319 1213 319 2328 
Q 319 3447 1000 4098 
Q 1681 4750 2847 4750 
Q 3238 4750 3597 4662 
Q 3956 4575 4288 4403 
L 4288 3438 
Q 3953 3666 3628 3772 
Q 3303 3878 2944 3878 
Q 2300 3878 1931 3465 
Q 1563 3053 1563 2328 
Q 1563 1606 1931 1193 
Q 2300 781 2944 781 
Q 3303 781 3628 887 
Q 3953 994 4288 1222 
L 4288 256 
z
" transform="scale(0.015625)"/>
        <path id="DejaVuSans-Bold-440" d="M 1656 506 
L 1656 -1331 
L 538 -1331 
L 538 3500 
L 1656 3500 
L 1656 2988 
Q 1888 3294 2169 3439 
Q 2450 3584 2816 3584 
Q 3463 3584 3878 3070 
Q 4294 2556 4294 1747 
Q 4294 938 3878 423 
Q 3463 -91 2816 -91 
Q 2450 -91 2169 54 
Q 1888 200 1656 506 
z
M 2400 2772 
Q 2041 2772 1848 2508 
Q 1656 2244 1656 1747 
Q 1656 1250 1848 986 
Q 2041 722 2400 722 
Q 2759 722 2948 984 
Q 3138 1247 3138 1747 
Q 3138 2247 2948 2509 
Q 2759 2772 2400 2772 
z
" transform="scale(0.015625)"/>
        <path id="DejaVuSans-Bold-430" d="M 2106 1575 
Q 1756 1575 1579 1456 
Q 1403 1338 1403 1106 
Q 1403 894 1545 773 
Q 1688 653 1941 653 
Q 2256 653 2472 879 
Q 2688 1106 2688 1447 
L 2688 1575 
L 2106 1575 
z
M 3816 1997 
L 3816 0 
L 2688 0 
L 2688 519 
Q 2463 200 2181 54 
Q 1900 -91 1497 -91 
Q 953 -91 614 226 
Q 275 544 275 1050 
Q 275 1666 698 1953 
Q 1122 2241 2028 2241 
L 2688 2241 
L 2688 2328 
Q 2688 2594 2478 2717 
Q 2269 2841 1825 2841 
Q 1466 2841 1156 2769 
Q 847 2697 581 2553 
L 581 3406 
Q 941 3494 1303 3539 
Q 1666 3584 2028 3584 
Q 2975 3584 3395 3211 
Q 3816 2838 3816 1997 
z
" transform="scale(0.015625)"/>
        <path id="DejaVuSans-Bold-445" d="M 1422 1791 
L 159 3500 
L 1344 3500 
L 2059 2463 
L 2784 3500 
L 3969 3500 
L 2706 1797 
L 4031 0 
L 2847 0 
L 2059 1106 
L 1281 0 
L 97 0 
L 1422 1791 
z
" transform="scale(0.015625)"/>
       </defs>
       <use xlink:href="#DejaVuSans-Bold-421"/>
       <use xlink:href="#DejaVuSans-Bold-442" x="73.388672"/>
       <use xlink:href="#DejaVuSans-Bold-440" x="131.347656"/>
       <use xlink:href="#DejaVuSans-Bold-430" x="202.929688"/>
       <use xlink:href="#DejaVuSans-Bold-445" x="270.410156"/>
      </g>
     </g>
    </g>
    <g id="xtick_3">
     <g id="line2d_3">
      <g>
       <use xlink:href="#m9a6905bfb0" x="241.808438" y="356.230625" style="stroke: #000000; stroke-width: 0.8"/>
      </g>
     </g>
     <g id="text_3">
      <!-- Радість -->
      <g transform="translate(228.334186 399.45438) rotate(-45) scale(0.1 -0.1)">
       <defs>
        <path id="DejaVuSans-Bold-420" d="M 588 4666 
L 2584 4666 
Q 3475 4666 3951 4270 
Q 4428 3875 4428 3144 
Q 4428 2409 3951 2014 
Q 3475 1619 2584 1619 
L 1791 1619 
L 1791 0 
L 588 0 
L 588 4666 
z
M 1791 3794 
L 1791 2491 
L 2456 2491 
Q 2806 2491 2997 2661 
Q 3188 2831 3188 3144 
Q 3188 3456 2997 3625 
Q 2806 3794 2456 3794 
L 1791 3794 
z
" transform="scale(0.015625)"/>
        <path id="DejaVuSans-Bold-434" d="M 547 800 
Q 903 919 1053 1314 
Q 1203 1709 1203 2838 
L 1203 3500 
L 4228 3500 
L 4228 800 
L 4809 800 
L 4809 -884 
L 4009 -884 
L 4009 0 
L 1159 0 
L 1159 -884 
L 359 -884 
L 359 800 
L 547 800 
z
M 3109 2700 
L 2322 2700 
L 2322 2603 
Q 2322 1456 2063 800 
L 3109 800 
L 3109 2700 
z
" transform="scale(0.015625)"/>
       </defs>
       <use xlink:href="#DejaVuSans-Bold-420"/>
       <use xlink:href="#DejaVuSans-Bold-430" x="73.291016"/>
       <use xlink:href="#DejaVuSans-Bold-434" x="140.771484"/>
       <use xlink:href="#DejaVuSans-Bold-456" x="221.533203"/>
       <use xlink:href="#DejaVuSans-Bold-441" x="255.810547"/>
       <use xlink:href="#DejaVuSans-Bold-442" x="315.087891"/>
       <use xlink:href="#DejaVuSans-Bold-44c" x="373.046875"/>
      </g>
     </g>
    </g>
    <g id="xtick_4">
     <g id="line2d_4">
      <g>
       <use xlink:href="#m9a6905bfb0" x="308.336437" y="356.230625" style="stroke: #000000; stroke-width: 0.8"/>
      </g>
     </g>
     <g id="text_4">
      <!-- Нейтр. -->
      <g transform="translate(296.548194 396.150865) rotate(-45) scale(0.1 -0.1)">
       <defs>
        <path id="DejaVuSans-Bold-41d" d="M 588 4666 
L 1791 4666 
L 1791 2888 
L 3566 2888 
L 3566 4666 
L 4769 4666 
L 4769 0 
L 3566 0 
L 3566 1978 
L 1791 1978 
L 1791 0 
L 588 0 
L 588 4666 
z
" transform="scale(0.015625)"/>
        <path id="DejaVuSans-Bold-435" d="M 4031 1759 
L 4031 1441 
L 1416 1441 
Q 1456 1047 1700 850 
Q 1944 653 2381 653 
Q 2734 653 3104 758 
Q 3475 863 3866 1075 
L 3866 213 
Q 3469 63 3072 -14 
Q 2675 -91 2278 -91 
Q 1328 -91 801 392 
Q 275 875 275 1747 
Q 275 2603 792 3093 
Q 1309 3584 2216 3584 
Q 3041 3584 3536 3087 
Q 4031 2591 4031 1759 
z
M 2881 2131 
Q 2881 2450 2695 2645 
Q 2509 2841 2209 2841 
Q 1884 2841 1681 2658 
Q 1478 2475 1428 2131 
L 2881 2131 
z
" transform="scale(0.015625)"/>
        <path id="DejaVuSans-Bold-439" d="M 3947 3500 
L 3947 0 
L 2828 0 
L 2828 1863 
L 1700 0 
L 538 0 
L 538 3500 
L 1656 3500 
L 1656 1638 
L 2784 3500 
L 3947 3500 
z
M 1194 4894 
L 1641 4894 
Q 1675 4675 1829 4559 
Q 1984 4444 2244 4444 
Q 2503 4444 2658 4559 
Q 2813 4675 2847 4894 
L 3294 4894 
Q 3275 4444 3003 4205 
Q 2731 3966 2244 3966 
Q 1756 3966 1484 4205 
Q 1213 4444 1194 4894 
z
" transform="scale(0.015625)"/>
        <path id="DejaVuSans-Bold-2e" d="M 653 1209 
L 1778 1209 
L 1778 0 
L 653 0 
L 653 1209 
z
" transform="scale(0.015625)"/>
       </defs>
       <use xlink:href="#DejaVuSans-Bold-41d"/>
       <use xlink:href="#DejaVuSans-Bold-435" x="83.691406"/>
       <use xlink:href="#DejaVuSans-Bold-439" x="151.513672"/>
       <use xlink:href="#DejaVuSans-Bold-442" x="221.582031"/>
       <use xlink:href="#DejaVuSans-Bold-440" x="279.541016"/>
       <use xlink:href="#DejaVuSans-Bold-2e" x="351.123047"/>
      </g>
     </g>
    </g>
    <g id="xtick_5">
     <g id="line2d_5">
      <g>
       <use xlink:href="#m9a6905bfb0" x="374.864438" y="356.230625" style="stroke: #000000; stroke-width: 0.8"/>
      </g>
     </g>
     <g id="text_5">
      <!-- Сум -->
      <g transform="translate(368.971144 384.126735) rotate(-45) scale(0.1 -0.1)">
       <defs>
        <path id="DejaVuSans-Bold-443" d="M 78 3500 
L 1197 3500 
L 2138 1125 
L 2938 3500 
L 4056 3500 
L 2584 -331 
Q 2363 -916 2067 -1148 
Q 1772 -1381 1288 -1381 
L 641 -1381 
L 641 -647 
L 991 -647 
Q 1275 -647 1404 -556 
Q 1534 -466 1606 -231 
L 1638 -134 
L 78 3500 
z
" transform="scale(0.015625)"/>
        <path id="DejaVuSans-Bold-43c" d="M 538 3500 
L 1825 3500 
L 2613 1750 
L 3400 3500 
L 4691 3500 
L 4691 0 
L 3575 0 
L 3575 1984 
L 2984 672 
L 2250 672 
L 1656 1984 
L 1656 0 
L 538 0 
L 538 3500 
z
" transform="scale(0.015625)"/>
       </defs>
       <use xlink:href="#DejaVuSans-Bold-421"/>
       <use xlink:href="#DejaVuSans-Bold-443" x="73.388672"/>
       <use xlink:href="#DejaVuSans-Bold-43c" x="138.574219"/>
      </g>
     </g>
    </g>
    <g id="text_6">
     <!-- Прогнозована приналежність до класу -->
     <g transform="translate(83.125 415.562753) scale(0.14 -0.14)">
      <defs>
       <path id="DejaVuSans-Bold-41f" d="M 4769 4666 
L 4769 0 
L 3566 0 
L 3566 3756 
L 1791 3756 
L 1791 0 
L 588 0 
L 588 4666 
L 4769 4666 
z
" transform="scale(0.015625)"/>
       <path id="DejaVuSans-Bold-43e" d="M 2203 2784 
Q 1831 2784 1636 2517 
Q 1441 2250 1441 1747 
Q 1441 1244 1636 976 
Q 1831 709 2203 709 
Q 2569 709 2762 976 
Q 2956 1244 2956 1747 
Q 2956 2250 2762 2517 
Q 2569 2784 2203 2784 
z
M 2203 3584 
Q 3106 3584 3614 3096 
Q 4122 2609 4122 1747 
Q 4122 884 3614 396 
Q 3106 -91 2203 -91 
Q 1297 -91 786 396 
Q 275 884 275 1747 
Q 275 2609 786 3096 
Q 1297 3584 2203 3584 
z
" transform="scale(0.015625)"/>
       <path id="DejaVuSans-Bold-433" d="M 538 0 
L 538 3500 
L 3191 3500 
L 3191 2809 
L 1656 2809 
L 1656 0 
L 538 0 
z
" transform="scale(0.015625)"/>
       <path id="DejaVuSans-Bold-43d" d="M 538 3500 
L 1656 3500 
L 1656 2169 
L 2766 2169 
L 2766 3500 
L 3884 3500 
L 3884 0 
L 2766 0 
L 2766 1478 
L 1656 1478 
L 1656 0 
L 538 0 
L 538 3500 
z
" transform="scale(0.015625)"/>
       <path id="DejaVuSans-Bold-437" d="M 900 2181 
L 1413 2181 
Q 1872 2181 2039 2281 
Q 2206 2381 2206 2519 
Q 2206 2841 1469 2841 
Q 853 2841 472 2625 
L 472 3434 
Q 1041 3584 1713 3584 
Q 2500 3584 2862 3361 
Q 3225 3138 3225 2666 
Q 3225 2047 2541 1888 
Q 3313 1697 3313 994 
Q 3313 453 2888 181 
Q 2463 -91 1553 -91 
Q 875 -91 313 84 
L 313 947 
Q 1013 653 1428 653 
Q 1884 653 2089 776 
Q 2294 900 2294 1056 
Q 2294 1491 1394 1491 
L 900 1491 
L 900 2181 
z
" transform="scale(0.015625)"/>
       <path id="DejaVuSans-Bold-432" d="M 2184 2181 
Q 2378 2181 2478 2261 
Q 2578 2341 2578 2497 
Q 2578 2653 2478 2731 
Q 2378 2809 2184 2809 
L 1656 2809 
L 1656 2181 
L 2184 2181 
z
M 2222 700 
Q 2469 700 2594 798 
Q 2719 897 2719 1094 
Q 2719 1288 2594 1384 
Q 2469 1481 2222 1481 
L 1656 1481 
L 1656 700 
L 2222 700 
z
M 538 3500 
L 2141 3500 
Q 2919 3500 3267 3279 
Q 3616 3059 3616 2575 
Q 3616 2319 3487 2139 
Q 3359 1959 3119 1872 
Q 3428 1788 3598 1561 
Q 3769 1334 3769 1003 
Q 3769 497 3403 248 
Q 3038 0 2294 0 
L 538 0 
L 538 3500 
z
" transform="scale(0.015625)"/>
       <path id="DejaVuSans-Bold-20" transform="scale(0.015625)"/>
       <path id="DejaVuSans-Bold-43f" d="M 3884 3500 
L 3884 0 
L 2766 0 
L 2766 2700 
L 1656 2700 
L 1656 0 
L 538 0 
L 538 3500 
L 3884 3500 
z
" transform="scale(0.015625)"/>
       <path id="DejaVuSans-Bold-438" d="M 3947 3500 
L 3947 0 
L 2828 0 
L 2828 1863 
L 1700 0 
L 538 0 
L 538 3500 
L 1656 3500 
L 1656 1638 
L 2784 3500 
L 3947 3500 
z
" transform="scale(0.015625)"/>
       <path id="DejaVuSans-Bold-436" d="M 94 0 
L 1678 2078 
L 216 3500 
L 1441 3500 
L 2625 2347 
L 2625 3500 
L 3744 3500 
L 3744 2347 
L 4928 3500 
L 6153 3500 
L 4691 2078 
L 6275 0 
L 5119 0 
L 4025 1431 
L 3744 1159 
L 3744 0 
L 2625 0 
L 2625 1159 
L 2344 1431 
L 1250 0 
L 94 0 
z
" transform="scale(0.015625)"/>
       <path id="DejaVuSans-Bold-43a" d="M 538 3500 
L 1656 3500 
L 1656 2316 
L 2903 3500 
L 4128 3500 
L 2634 2078 
L 4250 0 
L 3094 0 
L 1972 1447 
L 1656 1147 
L 1656 0 
L 538 0 
L 538 3500 
z
" transform="scale(0.015625)"/>
      </defs>
      <use xlink:href="#DejaVuSans-Bold-41f"/>
      <use xlink:href="#DejaVuSans-Bold-440" x="83.691406"/>
      <use xlink:href="#DejaVuSans-Bold-43e" x="155.273438"/>
      <use xlink:href="#DejaVuSans-Bold-433" x="223.974609"/>
      <use xlink:href="#DejaVuSans-Bold-43d" x="276.220703"/>
      <use xlink:href="#DejaVuSans-Bold-43e" x="345.3125"/>
      <use xlink:href="#DejaVuSans-Bold-437" x="414.013672"/>
      <use xlink:href="#DejaVuSans-Bold-43e" x="472.119141"/>
      <use xlink:href="#DejaVuSans-Bold-432" x="540.820312"/>
      <use xlink:href="#DejaVuSans-Bold-430" x="604.101562"/>
      <use xlink:href="#DejaVuSans-Bold-43d" x="671.582031"/>
      <use xlink:href="#DejaVuSans-Bold-430" x="740.673828"/>
      <use xlink:href="#DejaVuSans-Bold-20" x="808.154297"/>
      <use xlink:href="#DejaVuSans-Bold-43f" x="842.96875"/>
      <use xlink:href="#DejaVuSans-Bold-440" x="912.060547"/>
      <use xlink:href="#DejaVuSans-Bold-438" x="983.642578"/>
      <use xlink:href="#DejaVuSans-Bold-43d" x="1053.710938"/>
      <use xlink:href="#DejaVuSans-Bold-430" x="1122.802734"/>
      <use xlink:href="#DejaVuSans-Bold-43b" x="1190.283203"/>
      <use xlink:href="#DejaVuSans-Bold-435" x="1263.525391"/>
      <use xlink:href="#DejaVuSans-Bold-436" x="1331.347656"/>
      <use xlink:href="#DejaVuSans-Bold-43d" x="1430.859375"/>
      <use xlink:href="#DejaVuSans-Bold-456" x="1499.951172"/>
      <use xlink:href="#DejaVuSans-Bold-441" x="1534.228516"/>
      <use xlink:href="#DejaVuSans-Bold-442" x="1593.505859"/>
      <use xlink:href="#DejaVuSans-Bold-44c" x="1651.464844"/>
      <use xlink:href="#DejaVuSans-Bold-20" x="1714.697266"/>
      <use xlink:href="#DejaVuSans-Bold-434" x="1749.511719"/>
      <use xlink:href="#DejaVuSans-Bold-43e" x="1830.273438"/>
      <use xlink:href="#DejaVuSans-Bold-20" x="1898.974609"/>
      <use xlink:href="#DejaVuSans-Bold-43a" x="1933.789062"/>
      <use xlink:href="#DejaVuSans-Bold-43b" x="2001.660156"/>
      <use xlink:href="#DejaVuSans-Bold-430" x="2074.902344"/>
      <use xlink:href="#DejaVuSans-Bold-441" x="2142.382812"/>
      <use xlink:href="#DejaVuSans-Bold-443" x="2201.660156"/>
     </g>
    </g>
   </g>
   <g id="matplotlib.axis_2">
    <g id="ytick_1">
     <g id="line2d_6">
      <defs>
       <path id="me1a6145fee" d="M 0 0 
L -3.5 0 
" style="stroke: #000000; stroke-width: 0.8"/>
      </defs>
      <g>
       <use xlink:href="#me1a6145fee" x="75.488438" y="56.854625" style="stroke: #000000; stroke-width: 0.8"/>
      </g>
     </g>
     <g id="text_7">
      <!-- Злість -->
      <g transform="translate(32.58375 59.614) scale(0.1 -0.1)">
       <use xlink:href="#DejaVuSans-Bold-417"/>
       <use xlink:href="#DejaVuSans-Bold-43b" x="71.044922"/>
       <use xlink:href="#DejaVuSans-Bold-456" x="144.287109"/>
       <use xlink:href="#DejaVuSans-Bold-441" x="178.564453"/>
       <use xlink:href="#DejaVuSans-Bold-442" x="237.841797"/>
       <use xlink:href="#DejaVuSans-Bold-44c" x="295.800781"/>
      </g>
     </g>
    </g>
    <g id="ytick_2">
     <g id="line2d_7">
      <g>
       <use xlink:href="#me1a6145fee" x="75.488438" y="123.382625" style="stroke: #000000; stroke-width: 0.8"/>
      </g>
     </g>
     <g id="text_8">
      <!-- Страх -->
      <g transform="translate(34.997813 126.142) scale(0.1 -0.1)">
       <use xlink:href="#DejaVuSans-Bold-421"/>
       <use xlink:href="#DejaVuSans-Bold-442" x="73.388672"/>
       <use xlink:href="#DejaVuSans-Bold-440" x="131.347656"/>
       <use xlink:href="#DejaVuSans-Bold-430" x="202.929688"/>
       <use xlink:href="#DejaVuSans-Bold-445" x="270.410156"/>
      </g>
     </g>
    </g>
    <g id="ytick_3">
     <g id="line2d_8">
      <g>
       <use xlink:href="#me1a6145fee" x="75.488438" y="189.910625" style="stroke: #000000; stroke-width: 0.8"/>
      </g>
     </g>
     <g id="text_9">
      <!-- Радість -->
      <g transform="translate(24.85875 192.67) scale(0.1 -0.1)">
       <use xlink:href="#DejaVuSans-Bold-420"/>
       <use xlink:href="#DejaVuSans-Bold-430" x="73.291016"/>
       <use xlink:href="#DejaVuSans-Bold-434" x="140.771484"/>
       <use xlink:href="#DejaVuSans-Bold-456" x="221.533203"/>
       <use xlink:href="#DejaVuSans-Bold-441" x="255.810547"/>
       <use xlink:href="#DejaVuSans-Bold-442" x="315.087891"/>
       <use xlink:href="#DejaVuSans-Bold-44c" x="373.046875"/>
      </g>
     </g>
    </g>
    <g id="ytick_4">
     <g id="line2d_9">
      <g>
       <use xlink:href="#me1a6145fee" x="75.488438" y="256.438625" style="stroke: #000000; stroke-width: 0.8"/>
      </g>
     </g>
     <g id="text_10">
      <!-- Нейтр. -->
      <g transform="translate(29.579063 259.222219) scale(0.1 -0.1)">
       <use xlink:href="#DejaVuSans-Bold-41d"/>
       <use xlink:href="#DejaVuSans-Bold-435" x="83.691406"/>
       <use xlink:href="#DejaVuSans-Bold-439" x="151.513672"/>
       <use xlink:href="#DejaVuSans-Bold-442" x="221.582031"/>
       <use xlink:href="#DejaVuSans-Bold-440" x="279.541016"/>
       <use xlink:href="#DejaVuSans-Bold-2e" x="351.123047"/>
      </g>
     </g>
    </g>
    <g id="ytick_5">
     <g id="line2d_10">
      <g>
       <use xlink:href="#me1a6145fee" x="75.488438" y="322.966625" style="stroke: #000000; stroke-width: 0.8"/>
      </g>
     </g>
     <g id="text_11">
      <!-- Сум -->
      <g transform="translate(46.457188 325.647875) scale(0.1 -0.1)">
       <use xlink:href="#DejaVuSans-Bold-421"/>
       <use xlink:href="#DejaVuSans-Bold-443" x="73.388672"/>
       <use xlink:href="#DejaVuSans-Bold-43c" x="138.574219"/>
      </g>
     </g>
    </g>
    <g id="text_12">
     <!-- Реальна приналежність до клаусу -->
     <g transform="translate(17.837813 330.302187) rotate(-90) scale(0.14 -0.14)">
      <use xlink:href="#DejaVuSans-Bold-420"/>
      <use xlink:href="#DejaVuSans-Bold-435" x="73.291016"/>
      <use xlink:href="#DejaVuSans-Bold-430" x="141.113281"/>
      <use xlink:href="#DejaVuSans-Bold-43b" x="208.59375"/>
      <use xlink:href="#DejaVuSans-Bold-44c" x="281.835938"/>
      <use xlink:href="#DejaVuSans-Bold-43d" x="345.068359"/>
      <use xlink:href="#DejaVuSans-Bold-430" x="414.160156"/>
      <use xlink:href="#DejaVuSans-Bold-20" x="481.640625"/>
      <use xlink:href="#DejaVuSans-Bold-43f" x="516.455078"/>
      <use xlink:href="#DejaVuSans-Bold-440" x="585.546875"/>
      <use xlink:href="#DejaVuSans-Bold-438" x="657.128906"/>
      <use xlink:href="#DejaVuSans-Bold-43d" x="727.197266"/>
      <use xlink:href="#DejaVuSans-Bold-430" x="796.289062"/>
      <use xlink:href="#DejaVuSans-Bold-43b" x="863.769531"/>
      <use xlink:href="#DejaVuSans-Bold-435" x="937.011719"/>
      <use xlink:href="#DejaVuSans-Bold-436" x="1004.833984"/>
      <use xlink:href="#DejaVuSans-Bold-43d" x="1104.345703"/>
      <use xlink:href="#DejaVuSans-Bold-456" x="1173.4375"/>
      <use xlink:href="#DejaVuSans-Bold-441" x="1207.714844"/>
      <use xlink:href="#DejaVuSans-Bold-442" x="1266.992188"/>
      <use xlink:href="#DejaVuSans-Bold-44c" x="1324.951172"/>
      <use xlink:href="#DejaVuSans-Bold-20" x="1388.183594"/>
      <use xlink:href="#DejaVuSans-Bold-434" x="1422.998047"/>
      <use xlink:href="#DejaVuSans-Bold-43e" x="1503.759766"/>
      <use xlink:href="#DejaVuSans-Bold-20" x="1572.460938"/>
      <use xlink:href="#DejaVuSans-Bold-43a" x="1607.275391"/>
      <use xlink:href="#DejaVuSans-Bold-43b" x="1675.146484"/>
      <use xlink:href="#DejaVuSans-Bold-430" x="1748.388672"/>
      <use xlink:href="#DejaVuSans-Bold-443" x="1815.869141"/>
      <use xlink:href="#DejaVuSans-Bold-441" x="1881.054688"/>
      <use xlink:href="#DejaVuSans-Bold-443" x="1940.332031"/>
     </g>
    </g>
   </g>
   <g id="text_13">
    <!--  15 -->
    <g style="fill: #ffffff" transform="translate(96.574625 60.71775) scale(0.14 -0.14)">
     <defs>
      <path id="DejaVuSans-Bold-31" d="M 750 831 
L 1813 831 
L 1813 3847 
L 722 3622 
L 722 4441 
L 1806 4666 
L 2950 4666 
L 2950 831 
L 4013 831 
L 4013 0 
L 750 0 
L 750 831 
z
" transform="scale(0.015625)"/>
      <path id="DejaVuSans-Bold-35" d="M 678 4666 
L 3669 4666 
L 3669 3781 
L 1638 3781 
L 1638 3059 
Q 1775 3097 1914 3117 
Q 2053 3138 2203 3138 
Q 3056 3138 3531 2711 
Q 4006 2284 4006 1522 
Q 4006 766 3489 337 
Q 2972 -91 2053 -91 
Q 1656 -91 1267 -14 
Q 878 63 494 219 
L 494 1166 
Q 875 947 1217 837 
Q 1559 728 1863 728 
Q 2300 728 2551 942 
Q 2803 1156 2803 1522 
Q 2803 1891 2551 2103 
Q 2300 2316 1863 2316 
Q 1603 2316 1309 2248 
Q 1016 2181 678 2041 
L 678 4666 
z
" transform="scale(0.015625)"/>
     </defs>
     <use xlink:href="#DejaVuSans-Bold-20"/>
     <use xlink:href="#DejaVuSans-Bold-31" x="34.814453"/>
     <use xlink:href="#DejaVuSans-Bold-35" x="104.394531"/>
    </g>
   </g>
   <g id="text_14">
    <!--   2 -->
    <g style="fill: #262626" transform="translate(165.536219 60.71775) scale(0.14 -0.14)">
     <defs>
      <path id="DejaVuSans-Bold-32" d="M 1844 884 
L 3897 884 
L 3897 0 
L 506 0 
L 506 884 
L 2209 2388 
Q 2438 2594 2547 2791 
Q 2656 2988 2656 3200 
Q 2656 3528 2436 3728 
Q 2216 3928 1850 3928 
Q 1569 3928 1234 3808 
Q 900 3688 519 3450 
L 519 4475 
Q 925 4609 1322 4679 
Q 1719 4750 2100 4750 
Q 2938 4750 3402 4381 
Q 3866 4013 3866 3353 
Q 3866 2972 3669 2642 
Q 3472 2313 2841 1759 
L 1844 884 
z
" transform="scale(0.015625)"/>
     </defs>
     <use xlink:href="#DejaVuSans-Bold-20"/>
     <use xlink:href="#DejaVuSans-Bold-20" x="34.814453"/>
     <use xlink:href="#DejaVuSans-Bold-32" x="69.628906"/>
    </g>
   </g>
   <g id="text_15">
    <!--   1 -->
    <g style="fill: #262626" transform="translate(232.064219 60.71775) scale(0.14 -0.14)">
     <use xlink:href="#DejaVuSans-Bold-20"/>
     <use xlink:href="#DejaVuSans-Bold-20" x="34.814453"/>
     <use xlink:href="#DejaVuSans-Bold-31" x="69.628906"/>
    </g>
   </g>
   <g id="text_16">
    <!--   3 -->
    <g style="fill: #262626" transform="translate(298.592219 60.71775) scale(0.14 -0.14)">
     <defs>
      <path id="DejaVuSans-Bold-33" d="M 2981 2516 
Q 3453 2394 3698 2092 
Q 3944 1791 3944 1325 
Q 3944 631 3412 270 
Q 2881 -91 1863 -91 
Q 1503 -91 1142 -33 
Q 781 25 428 141 
L 428 1069 
Q 766 900 1098 814 
Q 1431 728 1753 728 
Q 2231 728 2486 893 
Q 2741 1059 2741 1369 
Q 2741 1688 2480 1852 
Q 2219 2016 1709 2016 
L 1228 2016 
L 1228 2791 
L 1734 2791 
Q 2188 2791 2409 2933 
Q 2631 3075 2631 3366 
Q 2631 3634 2415 3781 
Q 2200 3928 1806 3928 
Q 1516 3928 1219 3862 
Q 922 3797 628 3669 
L 628 4550 
Q 984 4650 1334 4700 
Q 1684 4750 2022 4750 
Q 2931 4750 3382 4451 
Q 3834 4153 3834 3553 
Q 3834 3144 3618 2883 
Q 3403 2622 2981 2516 
z
" transform="scale(0.015625)"/>
     </defs>
     <use xlink:href="#DejaVuSans-Bold-20"/>
     <use xlink:href="#DejaVuSans-Bold-20" x="34.814453"/>
     <use xlink:href="#DejaVuSans-Bold-33" x="69.628906"/>
    </g>
   </g>
   <g id="text_17">
    <!--   1 -->
    <g style="fill: #262626" transform="translate(365.120219 60.71775) scale(0.14 -0.14)">
     <use xlink:href="#DejaVuSans-Bold-20"/>
     <use xlink:href="#DejaVuSans-Bold-20" x="34.814453"/>
     <use xlink:href="#DejaVuSans-Bold-31" x="69.628906"/>
    </g>
   </g>
   <g id="text_18">
    <!--   2 -->
    <g style="fill: #262626" transform="translate(99.008219 127.24575) scale(0.14 -0.14)">
     <use xlink:href="#DejaVuSans-Bold-20"/>
     <use xlink:href="#DejaVuSans-Bold-20" x="34.814453"/>
     <use xlink:href="#DejaVuSans-Bold-32" x="69.628906"/>
    </g>
   </g>
   <g id="text_19">
    <!--  17 -->
    <g style="fill: #ffffff" transform="translate(163.102625 127.24575) scale(0.14 -0.14)">
     <defs>
      <path id="DejaVuSans-Bold-37" d="M 428 4666 
L 3944 4666 
L 3944 3988 
L 2125 0 
L 953 0 
L 2675 3781 
L 428 3781 
L 428 4666 
z
" transform="scale(0.015625)"/>
     </defs>
     <use xlink:href="#DejaVuSans-Bold-20"/>
     <use xlink:href="#DejaVuSans-Bold-31" x="34.814453"/>
     <use xlink:href="#DejaVuSans-Bold-37" x="104.394531"/>
    </g>
   </g>
   <g id="text_20">
    <!--   0 -->
    <g style="fill: #262626" transform="translate(232.064219 127.24575) scale(0.14 -0.14)">
     <defs>
      <path id="DejaVuSans-Bold-30" d="M 2944 2338 
Q 2944 3213 2780 3570 
Q 2616 3928 2228 3928 
Q 1841 3928 1675 3570 
Q 1509 3213 1509 2338 
Q 1509 1453 1675 1090 
Q 1841 728 2228 728 
Q 2613 728 2778 1090 
Q 2944 1453 2944 2338 
z
M 4147 2328 
Q 4147 1169 3647 539 
Q 3147 -91 2228 -91 
Q 1306 -91 806 539 
Q 306 1169 306 2328 
Q 306 3491 806 4120 
Q 1306 4750 2228 4750 
Q 3147 4750 3647 4120 
Q 4147 3491 4147 2328 
z
" transform="scale(0.015625)"/>
     </defs>
     <use xlink:href="#DejaVuSans-Bold-20"/>
     <use xlink:href="#DejaVuSans-Bold-20" x="34.814453"/>
     <use xlink:href="#DejaVuSans-Bold-30" x="69.628906"/>
    </g>
   </g>
   <g id="text_21">
    <!--   2 -->
    <g style="fill: #262626" transform="translate(298.592219 127.24575) scale(0.14 -0.14)">
     <use xlink:href="#DejaVuSans-Bold-20"/>
     <use xlink:href="#DejaVuSans-Bold-20" x="34.814453"/>
     <use xlink:href="#DejaVuSans-Bold-32" x="69.628906"/>
    </g>
   </g>
   <g id="text_22">
    <!--   1 -->
    <g style="fill: #262626" transform="translate(365.120219 127.24575) scale(0.14 -0.14)">
     <use xlink:href="#DejaVuSans-Bold-20"/>
     <use xlink:href="#DejaVuSans-Bold-20" x="34.814453"/>
     <use xlink:href="#DejaVuSans-Bold-31" x="69.628906"/>
    </g>
   </g>
   <g id="text_23">
    <!--   0 -->
    <g style="fill: #262626" transform="translate(99.008219 193.77375) scale(0.14 -0.14)">
     <use xlink:href="#DejaVuSans-Bold-20"/>
     <use xlink:href="#DejaVuSans-Bold-20" x="34.814453"/>
     <use xlink:href="#DejaVuSans-Bold-30" x="69.628906"/>
    </g>
   </g>
   <g id="text_24">
    <!--   1 -->
    <g style="fill: #262626" transform="translate(165.536219 193.77375) scale(0.14 -0.14)">
     <use xlink:href="#DejaVuSans-Bold-20"/>
     <use xlink:href="#DejaVuSans-Bold-20" x="34.814453"/>
     <use xlink:href="#DejaVuSans-Bold-31" x="69.628906"/>
    </g>
   </g>
   <g id="text_25">
    <!--  21 -->
    <g style="fill: #ffffff" transform="translate(229.630625 193.77375) scale(0.14 -0.14)">
     <use xlink:href="#DejaVuSans-Bold-20"/>
     <use xlink:href="#DejaVuSans-Bold-32" x="34.814453"/>
     <use xlink:href="#DejaVuSans-Bold-31" x="104.394531"/>
    </g>
   </g>
   <g id="text_26">
    <!--   0 -->
    <g style="fill: #262626" transform="translate(298.592219 193.77375) scale(0.14 -0.14)">
     <use xlink:href="#DejaVuSans-Bold-20"/>
     <use xlink:href="#DejaVuSans-Bold-20" x="34.814453"/>
     <use xlink:href="#DejaVuSans-Bold-30" x="69.628906"/>
    </g>
   </g>
   <g id="text_27">
    <!--   0 -->
    <g style="fill: #262626" transform="translate(365.120219 193.77375) scale(0.14 -0.14)">
     <use xlink:href="#DejaVuSans-Bold-20"/>
     <use xlink:href="#DejaVuSans-Bold-20" x="34.814453"/>
     <use xlink:href="#DejaVuSans-Bold-30" x="69.628906"/>
    </g>
   </g>
   <g id="text_28">
    <!--   1 -->
    <g style="fill: #262626" transform="translate(99.008219 260.30175) scale(0.14 -0.14)">
     <use xlink:href="#DejaVuSans-Bold-20"/>
     <use xlink:href="#DejaVuSans-Bold-20" x="34.814453"/>
     <use xlink:href="#DejaVuSans-Bold-31" x="69.628906"/>
    </g>
   </g>
   <g id="text_29">
    <!--   3 -->
    <g style="fill: #262626" transform="translate(165.536219 260.30175) scale(0.14 -0.14)">
     <use xlink:href="#DejaVuSans-Bold-20"/>
     <use xlink:href="#DejaVuSans-Bold-20" x="34.814453"/>
     <use xlink:href="#DejaVuSans-Bold-33" x="69.628906"/>
    </g>
   </g>
   <g id="text_30">
    <!--   1 -->
    <g style="fill: #262626" transform="translate(232.064219 260.30175) scale(0.14 -0.14)">
     <use xlink:href="#DejaVuSans-Bold-20"/>
     <use xlink:href="#DejaVuSans-Bold-20" x="34.814453"/>
     <use xlink:href="#DejaVuSans-Bold-31" x="69.628906"/>
    </g>
   </g>
   <g id="text_31">
    <!--  13 -->
    <g style="fill: #ffffff" transform="translate(296.158625 260.30175) scale(0.14 -0.14)">
     <use xlink:href="#DejaVuSans-Bold-20"/>
     <use xlink:href="#DejaVuSans-Bold-31" x="34.814453"/>
     <use xlink:href="#DejaVuSans-Bold-33" x="104.394531"/>
    </g>
   </g>
   <g id="text_32">
    <!--   4 -->
    <g style="fill: #262626" transform="translate(365.120219 260.30175) scale(0.14 -0.14)">
     <defs>
      <path id="DejaVuSans-Bold-34" d="M 2356 3675 
L 1038 1722 
L 2356 1722 
L 2356 3675 
z
M 2156 4666 
L 3494 4666 
L 3494 1722 
L 4159 1722 
L 4159 850 
L 3494 850 
L 3494 0 
L 2356 0 
L 2356 850 
L 288 850 
L 288 1881 
L 2156 4666 
z
" transform="scale(0.015625)"/>
     </defs>
     <use xlink:href="#DejaVuSans-Bold-20"/>
     <use xlink:href="#DejaVuSans-Bold-20" x="34.814453"/>
     <use xlink:href="#DejaVuSans-Bold-34" x="69.628906"/>
    </g>
   </g>
   <g id="text_33">
    <!--   2 -->
    <g style="fill: #262626" transform="translate(99.008219 326.82975) scale(0.14 -0.14)">
     <use xlink:href="#DejaVuSans-Bold-20"/>
     <use xlink:href="#DejaVuSans-Bold-20" x="34.814453"/>
     <use xlink:href="#DejaVuSans-Bold-32" x="69.628906"/>
    </g>
   </g>
   <g id="text_34">
    <!--   1 -->
    <g style="fill: #262626" transform="translate(165.536219 326.82975) scale(0.14 -0.14)">
     <use xlink:href="#DejaVuSans-Bold-20"/>
     <use xlink:href="#DejaVuSans-Bold-20" x="34.814453"/>
     <use xlink:href="#DejaVuSans-Bold-31" x="69.628906"/>
    </g>
   </g>
   <g id="text_35">
    <!--   1 -->
    <g style="fill: #262626" transform="translate(232.064219 326.82975) scale(0.14 -0.14)">
     <use xlink:href="#DejaVuSans-Bold-20"/>
     <use xlink:href="#DejaVuSans-Bold-20" x="34.814453"/>
     <use xlink:href="#DejaVuSans-Bold-31" x="69.628906"/>
    </g>
   </g>
   <g id="text_36">
    <!--   4 -->
    <g style="fill: #262626" transform="translate(298.592219 326.82975) scale(0.14 -0.14)">
     <use xlink:href="#DejaVuSans-Bold-20"/>
     <use xlink:href="#DejaVuSans-Bold-20" x="34.814453"/>
     <use xlink:href="#DejaVuSans-Bold-34" x="69.628906"/>
    </g>
   </g>
   <g id="text_37">
    <!--  14 -->
    <g style="fill: #ffffff" transform="translate(362.686625 326.82975) scale(0.14 -0.14)">
     <use xlink:href="#DejaVuSans-Bold-20"/>
     <use xlink:href="#DejaVuSans-Bold-31" x="34.814453"/>
     <use xlink:href="#DejaVuSans-Bold-34" x="104.394531"/>
    </g>
   </g>
   <g id="text_38">
    <!-- Модель_3 -->
    <g transform="translate(201.707187 17.590625) scale(0.14 -0.14)">
     <defs>
      <path id="DejaVuSans-Bold-41c" d="M 588 4666 
L 2119 4666 
L 3181 2169 
L 4250 4666 
L 5778 4666 
L 5778 0 
L 4641 0 
L 4641 3413 
L 3566 897 
L 2803 897 
L 1728 3413 
L 1728 0 
L 588 0 
L 588 4666 
z
" transform="scale(0.015625)"/>
      <path id="DejaVuSans-Bold-5f" d="M 3200 -916 
L 3200 -1509 
L 0 -1509 
L 0 -916 
L 3200 -916 
z
" transform="scale(0.015625)"/>
     </defs>
     <use xlink:href="#DejaVuSans-Bold-41c"/>
     <use xlink:href="#DejaVuSans-Bold-43e" x="99.511719"/>
     <use xlink:href="#DejaVuSans-Bold-434" x="168.212891"/>
     <use xlink:href="#DejaVuSans-Bold-435" x="248.974609"/>
     <use xlink:href="#DejaVuSans-Bold-43b" x="316.796875"/>
     <use xlink:href="#DejaVuSans-Bold-44c" x="390.039062"/>
     <use xlink:href="#DejaVuSans-Bold-5f" x="453.271484"/>
     <use xlink:href="#DejaVuSans-Bold-33" x="503.271484"/>
    </g>
   </g>
  </g>
 </g>
 <defs>
  <clipPath id="p172f3f27cb">
   <rect x="75.488438" y="23.590625" width="332.64" height="332.64"/>
  </clipPath>
 </defs>
</svg>
